<svg width="372" height="106" viewBox="0 0 372 106" fill="none" xmlns="http://www.w3.org/2000/svg">
<rect width="30" height="30" rx="2" fill="white"/>
<path d="M14.2302 11.006L14.8182 11.342C14.7529 11.51 14.6222 11.678 14.4262 11.846C14.2396 12.014 13.9829 12.154 13.6562 12.266C13.3389 12.3687 12.9516 12.42 12.4942 12.42V10.88C12.8769 10.88 13.2129 10.824 13.5022 10.712C13.8009 10.5907 14.0482 10.4227 14.2442 10.208C14.4496 9.99333 14.5989 9.746 14.6922 9.466H15.8542V19H14.2302V11.006Z" fill="#464646"/>
<rect x="38" width="30" height="30" rx="2" fill="white"/>
<path d="M54.8355 11.944C54.8355 12.3267 54.7795 12.7 54.6675 13.064C54.5555 13.428 54.3782 13.8013 54.1355 14.184C53.8928 14.5667 53.5802 14.9727 53.1975 15.402L50.6635 18.314L50.5515 17.46H54.9895V19H49.1515V17.656L51.7275 14.744C52.1102 14.3053 52.4088 13.9367 52.6235 13.638C52.8475 13.3393 53.0015 13.0687 53.0855 12.826C53.1788 12.5833 53.2255 12.3453 53.2255 12.112C53.2255 11.72 53.1088 11.4213 52.8755 11.216C52.6422 11.0013 52.3715 10.894 52.0635 10.894C51.7368 10.894 51.4148 10.992 51.0975 11.188C50.7802 11.384 50.4442 11.7293 50.0895 12.224L48.9135 11.37C49.1842 10.9313 49.4735 10.558 49.7815 10.25C50.0988 9.942 50.4442 9.71333 50.8175 9.564C51.1908 9.40533 51.6015 9.326 52.0495 9.326C52.6282 9.326 53.1228 9.44267 53.5335 9.676C53.9535 9.9 54.2755 10.2127 54.4995 10.614C54.7235 11.006 54.8355 11.4493 54.8355 11.944Z" fill="#464646"/>
<rect x="76" width="30" height="30" rx="2" fill="white"/>
<path d="M90.0225 19.154C89.3131 19.154 88.7065 19.0327 88.2025 18.79C87.6985 18.538 87.2318 18.1553 86.8025 17.642L87.8385 16.606C88.1558 16.942 88.4731 17.1893 88.7905 17.348C89.1078 17.5067 89.4625 17.586 89.8545 17.586C90.3958 17.586 90.8065 17.4553 91.0865 17.194C91.3665 16.9233 91.5065 16.5873 91.5065 16.186C91.5065 15.794 91.4085 15.4907 91.2125 15.276C91.0258 15.052 90.7738 14.8933 90.4565 14.8C90.1391 14.6973 89.7845 14.646 89.3925 14.646C89.2805 14.646 89.1591 14.6507 89.0285 14.66C88.9071 14.66 88.7951 14.6693 88.6925 14.688V13.26C88.8511 13.2693 88.9631 13.2787 89.0285 13.288C89.1031 13.288 89.1918 13.288 89.2945 13.288C89.8825 13.288 90.3351 13.176 90.6525 12.952C90.9698 12.7187 91.1285 12.406 91.1285 12.014C91.1285 11.6593 91.0165 11.384 90.7925 11.188C90.5685 10.992 90.2558 10.894 89.8545 10.894C89.4905 10.894 89.1591 10.9733 88.8605 11.132C88.5711 11.2907 88.2865 11.5333 88.0065 11.86L86.9565 10.852C87.4418 10.3013 87.9178 9.90933 88.3845 9.676C88.8511 9.44267 89.3925 9.326 90.0085 9.326C90.5685 9.326 91.0538 9.43333 91.4645 9.648C91.8751 9.85333 92.1878 10.1473 92.4025 10.53C92.6265 10.9033 92.7385 11.342 92.7385 11.846C92.7385 12.6113 92.4538 13.2273 91.8845 13.694C91.3245 14.1607 90.5638 14.394 89.6025 14.394V13.526C90.2838 13.526 90.8905 13.6287 91.4225 13.834C91.9545 14.0393 92.3745 14.3473 92.6825 14.758C92.9905 15.1687 93.1445 15.682 93.1445 16.298C93.1445 16.8113 93.0231 17.2873 92.7805 17.726C92.5378 18.1553 92.1831 18.5007 91.7165 18.762C91.2498 19.0233 90.6851 19.154 90.0225 19.154Z" fill="#464646"/>
<rect x="114" width="30" height="30" rx="2" fill="white"/>
<path d="M130.286 12.812V19H128.634V15.682L128.382 15.178L129.278 12.812H130.286ZM124.574 16.676V15.682L126.982 9.466H128.62L126.184 15.878L125.932 15.108H131.602V16.676H124.574Z" fill="#464646"/>
<rect x="152" width="30" height="30" rx="2" fill="white"/>
<path d="M164.38 15.192L163.176 14.898V9.466H168.664V11.034H164.128L164.73 10.446V14.548L163.974 14.058C164.245 13.6287 164.572 13.3067 164.954 13.092C165.337 12.8773 165.813 12.77 166.382 12.77C166.905 12.77 167.386 12.9007 167.824 13.162C168.263 13.414 168.613 13.778 168.874 14.254C169.145 14.7207 169.28 15.276 169.28 15.92C169.28 16.62 169.131 17.2127 168.832 17.698C168.543 18.174 168.156 18.538 167.67 18.79C167.194 19.0327 166.658 19.154 166.06 19.154C165.323 19.154 164.688 19.014 164.156 18.734C163.634 18.4447 163.214 18.062 162.896 17.586L164.156 16.69C164.39 16.998 164.66 17.2267 164.968 17.376C165.276 17.5253 165.589 17.6 165.906 17.6C166.457 17.6 166.877 17.4507 167.166 17.152C167.465 16.844 167.614 16.4427 167.614 15.948C167.614 15.472 167.456 15.094 167.138 14.814C166.83 14.5247 166.448 14.38 165.99 14.38C165.682 14.38 165.393 14.4407 165.122 14.562C164.861 14.6833 164.614 14.8933 164.38 15.192Z" fill="#464646"/>
<rect x="190" width="30" height="30" rx="2" fill="white"/>
<path d="M200.612 14.506C200.612 13.4233 200.771 12.4947 201.088 11.72C201.415 10.9453 201.872 10.3527 202.46 9.942C203.048 9.53133 203.744 9.326 204.546 9.326C205.06 9.326 205.54 9.41 205.988 9.578C206.436 9.746 206.847 9.98867 207.22 10.306L206.338 11.482C206.077 11.2767 205.797 11.1227 205.498 11.02C205.2 10.908 204.892 10.852 204.574 10.852C204.154 10.852 203.767 10.9827 203.412 11.244C203.067 11.5053 202.792 11.916 202.586 12.476C202.381 13.036 202.283 13.7687 202.292 14.674H201.97C202.185 14.142 202.53 13.7267 203.006 13.428C203.482 13.1293 204.028 12.98 204.644 12.98C205.26 12.98 205.778 13.1153 206.198 13.386C206.628 13.6473 206.95 14.002 207.164 14.45C207.388 14.898 207.5 15.3973 207.5 15.948C207.5 16.5733 207.37 17.1287 207.108 17.614C206.856 18.09 206.488 18.468 206.002 18.748C205.526 19.0187 204.938 19.154 204.238 19.154C203.473 19.154 202.82 18.9907 202.278 18.664C201.746 18.3373 201.336 17.8333 201.046 17.152C200.757 16.4613 200.612 15.5793 200.612 14.506ZM202.474 16.06C202.474 16.536 202.628 16.9187 202.936 17.208C203.254 17.488 203.66 17.628 204.154 17.628C204.677 17.628 205.088 17.488 205.386 17.208C205.694 16.9187 205.848 16.536 205.848 16.06C205.848 15.584 205.694 15.2013 205.386 14.912C205.088 14.6133 204.677 14.464 204.154 14.464C203.66 14.464 203.254 14.6133 202.936 14.912C202.628 15.2013 202.474 15.584 202.474 16.06Z" fill="#464646"/>
<rect x="228" width="30" height="30" rx="2" fill="white"/>
<path d="M239.971 19L244.255 10.18L244.913 11.034H239.481V9.466H245.655V10.838L241.805 19H239.971Z" fill="#464646"/>
<rect x="266" width="30" height="30" rx="2" fill="white"/>
<path d="M279.999 19.154C279.318 19.154 278.739 19.0327 278.263 18.79C277.787 18.5473 277.428 18.2207 277.185 17.81C276.952 17.39 276.835 16.9327 276.835 16.438C276.835 15.9527 276.938 15.5327 277.143 15.178C277.349 14.814 277.638 14.5107 278.011 14.268C278.385 14.0253 278.814 13.8527 279.299 13.75V14.492C278.851 14.38 278.464 14.2027 278.137 13.96C277.811 13.7173 277.559 13.4233 277.381 13.078C277.204 12.7327 277.115 12.3547 277.115 11.944C277.115 11.44 277.227 10.992 277.451 10.6C277.685 10.1987 278.016 9.886 278.445 9.662C278.884 9.438 279.411 9.326 280.027 9.326C280.625 9.326 281.133 9.438 281.553 9.662C281.983 9.886 282.309 10.1987 282.533 10.6C282.767 10.992 282.883 11.44 282.883 11.944C282.883 12.3173 282.804 12.672 282.645 13.008C282.496 13.3347 282.277 13.6193 281.987 13.862C281.707 14.1047 281.371 14.2913 280.979 14.422L280.951 13.806C281.409 13.9273 281.801 14.1093 282.127 14.352C282.454 14.5947 282.706 14.8933 282.883 15.248C283.07 15.5933 283.163 15.99 283.163 16.438C283.163 16.9327 283.042 17.39 282.799 17.81C282.566 18.2207 282.211 18.5473 281.735 18.79C281.269 19.0327 280.69 19.154 279.999 19.154ZM279.999 17.586C280.457 17.586 280.825 17.46 281.105 17.208C281.385 16.956 281.525 16.62 281.525 16.2C281.525 15.7613 281.385 15.4113 281.105 15.15C280.825 14.8887 280.457 14.758 279.999 14.758C279.542 14.758 279.173 14.8887 278.893 15.15C278.613 15.4113 278.473 15.7613 278.473 16.2C278.473 16.62 278.613 16.956 278.893 17.208C279.173 17.46 279.542 17.586 279.999 17.586ZM279.999 13.232C280.382 13.232 280.695 13.12 280.937 12.896C281.189 12.6627 281.315 12.3733 281.315 12.028C281.315 11.7013 281.189 11.4307 280.937 11.216C280.695 11.0013 280.382 10.894 279.999 10.894C279.626 10.894 279.313 11.0013 279.061 11.216C278.809 11.4307 278.683 11.7013 278.683 12.028C278.683 12.3733 278.809 12.6627 279.061 12.896C279.313 13.12 279.626 13.232 279.999 13.232Z" fill="#464646"/>
<rect x="304" width="30" height="30" rx="2" fill="white"/>
<path d="M321.493 13.974C321.493 15.0567 321.335 15.9853 321.017 16.76C320.7 17.5253 320.243 18.118 319.645 18.538C319.057 18.9487 318.362 19.154 317.559 19.154C317.055 19.154 316.579 19.07 316.131 18.902C315.683 18.7247 315.268 18.482 314.885 18.174L315.781 16.984C316.043 17.1893 316.323 17.348 316.621 17.46C316.92 17.572 317.228 17.628 317.545 17.628C317.975 17.628 318.362 17.4973 318.707 17.236C319.053 16.9747 319.323 16.564 319.519 16.004C319.725 15.444 319.823 14.7067 319.813 13.792H320.149C319.925 14.3333 319.575 14.7533 319.099 15.052C318.623 15.3507 318.082 15.5 317.475 15.5C316.859 15.5 316.337 15.3693 315.907 15.108C315.478 14.8373 315.151 14.478 314.927 14.03C314.713 13.582 314.605 13.0827 314.605 12.532C314.605 11.9067 314.731 11.356 314.983 10.88C315.245 10.3947 315.618 10.0167 316.103 9.746C316.598 9.466 317.191 9.326 317.881 9.326C318.647 9.326 319.295 9.48933 319.827 9.816C320.369 10.1427 320.779 10.6513 321.059 11.342C321.349 12.0233 321.493 12.9007 321.493 13.974ZM319.645 12.406C319.645 11.93 319.491 11.552 319.183 11.272C318.875 10.9827 318.469 10.838 317.965 10.838C317.452 10.838 317.037 10.9827 316.719 11.272C316.411 11.5613 316.257 11.9393 316.257 12.406C316.257 12.8913 316.411 13.2833 316.719 13.582C317.037 13.8713 317.452 14.016 317.965 14.016C318.469 14.016 318.875 13.8713 319.183 13.582C319.491 13.2833 319.645 12.8913 319.645 12.406Z" fill="#464646"/>
<rect x="342" width="30" height="30" rx="2" fill="#248B3B"/>
<path d="M352.395 11.006L352.983 11.342C352.918 11.51 352.787 11.678 352.591 11.846C352.405 12.014 352.148 12.154 351.821 12.266C351.504 12.3687 351.117 12.42 350.659 12.42V10.88C351.042 10.88 351.378 10.824 351.667 10.712C351.966 10.5907 352.213 10.4227 352.409 10.208C352.615 9.99333 352.764 9.746 352.857 9.466H354.019V19H352.395V11.006ZM358.969 19.154C358.297 19.154 357.709 18.958 357.205 18.566C356.701 18.174 356.313 17.614 356.043 16.886C355.772 16.1487 355.637 15.2667 355.637 14.24C355.637 13.232 355.772 12.3593 356.043 11.622C356.313 10.8847 356.701 10.32 357.205 9.928C357.709 9.52667 358.297 9.326 358.969 9.326C359.65 9.326 360.238 9.52667 360.733 9.928C361.237 10.32 361.624 10.8847 361.895 11.622C362.165 12.3593 362.301 13.232 362.301 14.24C362.301 15.2667 362.165 16.1487 361.895 16.886C361.624 17.614 361.237 18.174 360.733 18.566C360.238 18.958 359.65 19.154 358.969 19.154ZM358.969 17.586C359.37 17.586 359.692 17.4367 359.935 17.138C360.177 16.8393 360.355 16.438 360.467 15.934C360.588 15.4207 360.649 14.856 360.649 14.24C360.649 13.6893 360.588 13.1573 360.467 12.644C360.355 12.1307 360.177 11.7153 359.935 11.398C359.692 11.0713 359.37 10.908 358.969 10.908C358.558 10.908 358.227 11.0713 357.975 11.398C357.723 11.7153 357.541 12.1307 357.429 12.644C357.326 13.1573 357.275 13.6893 357.275 14.24C357.275 14.856 357.326 15.4207 357.429 15.934C357.541 16.438 357.723 16.8393 357.975 17.138C358.227 17.4367 358.558 17.586 358.969 17.586Z" fill="white"/>
<rect y="38" width="30" height="30" rx="2" fill="white"/>
<path d="M11.2625 49.006L11.8505 49.342C11.7851 49.51 11.6545 49.678 11.4585 49.846C11.2718 50.014 11.0151 50.154 10.6885 50.266C10.3711 50.3687 9.98379 50.42 9.52645 50.42V48.88C9.90912 48.88 10.2451 48.824 10.5345 48.712C10.8331 48.5907 11.0805 48.4227 11.2765 48.208C11.4818 47.9933 11.6311 47.746 11.7245 47.466H12.8865V57H11.2625V49.006ZM16.198 49.006L16.786 49.342C16.7207 49.51 16.59 49.678 16.394 49.846C16.2073 50.014 15.9507 50.154 15.624 50.266C15.3067 50.3687 14.9193 50.42 14.462 50.42V48.88C14.8447 48.88 15.1807 48.824 15.47 48.712C15.7687 48.5907 16.016 48.4227 16.212 48.208C16.4173 47.9933 16.5667 47.746 16.66 47.466H17.822V57H16.198V49.006Z" fill="#464646"/>
<rect x="38" y="38" width="30" height="30" rx="2" fill="white"/>
<path d="M48.2097 49.006L48.7977 49.342C48.7324 49.51 48.6017 49.678 48.4057 49.846C48.2191 50.014 47.9624 50.154 47.6357 50.266C47.3184 50.3687 46.9311 50.42 46.4737 50.42V48.88C46.8564 48.88 47.1924 48.824 47.4817 48.712C47.7804 48.5907 48.0277 48.4227 48.2237 48.208C48.4291 47.9933 48.5784 47.746 48.6717 47.466H49.8337V57H48.2097V49.006ZM57.3033 49.944C57.3033 50.3267 57.2473 50.7 57.1353 51.064C57.0233 51.428 56.8459 51.8013 56.6033 52.184C56.3606 52.5667 56.0479 52.9727 55.6653 53.402L53.1313 56.314L53.0193 55.46H57.4573V57H51.6193V55.656L54.1953 52.744C54.5779 52.3053 54.8766 51.9367 55.0913 51.638C55.3153 51.3393 55.4693 51.0687 55.5533 50.826C55.6466 50.5833 55.6933 50.3453 55.6933 50.112C55.6933 49.72 55.5766 49.4213 55.3433 49.216C55.1099 49.0013 54.8393 48.894 54.5313 48.894C54.2046 48.894 53.8826 48.992 53.5653 49.188C53.2479 49.384 52.9119 49.7293 52.5573 50.224L51.3813 49.37C51.6519 48.9313 51.9413 48.558 52.2493 48.25C52.5666 47.942 52.9119 47.7133 53.2853 47.564C53.6586 47.4053 54.0693 47.326 54.5173 47.326C55.0959 47.326 55.5906 47.4427 56.0013 47.676C56.4213 47.9 56.7433 48.2127 56.9673 48.614C57.1913 49.006 57.3033 49.4493 57.3033 49.944Z" fill="#464646"/>
<rect x="76" y="38" width="30" height="30" rx="2" fill="white"/>
<path d="M86.6687 49.006L87.2567 49.342C87.1914 49.51 87.0607 49.678 86.8647 49.846C86.678 50.014 86.4214 50.154 86.0947 50.266C85.7774 50.3687 85.39 50.42 84.9327 50.42V48.88C85.3154 48.88 85.6514 48.824 85.9407 48.712C86.2394 48.5907 86.4867 48.4227 86.6827 48.208C86.888 47.9933 87.0374 47.746 87.1307 47.466H88.2927V57H86.6687V49.006ZM92.9903 57.154C92.2809 57.154 91.6743 57.0327 91.1703 56.79C90.6663 56.538 90.1996 56.1553 89.7703 55.642L90.8063 54.606C91.1236 54.942 91.4409 55.1893 91.7583 55.348C92.0756 55.5067 92.4303 55.586 92.8223 55.586C93.3636 55.586 93.7743 55.4553 94.0543 55.194C94.3343 54.9233 94.4743 54.5873 94.4743 54.186C94.4743 53.794 94.3763 53.4907 94.1803 53.276C93.9936 53.052 93.7416 52.8933 93.4243 52.8C93.1069 52.6973 92.7523 52.646 92.3603 52.646C92.2483 52.646 92.1269 52.6507 91.9963 52.66C91.8749 52.66 91.7629 52.6693 91.6603 52.688V51.26C91.8189 51.2693 91.9309 51.2787 91.9963 51.288C92.0709 51.288 92.1596 51.288 92.2623 51.288C92.8503 51.288 93.3029 51.176 93.6203 50.952C93.9376 50.7187 94.0963 50.406 94.0963 50.014C94.0963 49.6593 93.9843 49.384 93.7603 49.188C93.5363 48.992 93.2236 48.894 92.8223 48.894C92.4583 48.894 92.1269 48.9733 91.8283 49.132C91.5389 49.2907 91.2543 49.5333 90.9743 49.86L89.9243 48.852C90.4096 48.3013 90.8856 47.9093 91.3523 47.676C91.8189 47.4427 92.3603 47.326 92.9763 47.326C93.5363 47.326 94.0216 47.4333 94.4323 47.648C94.8429 47.8533 95.1556 48.1473 95.3703 48.53C95.5943 48.9033 95.7063 49.342 95.7063 49.846C95.7063 50.6113 95.4216 51.2273 94.8523 51.694C94.2923 52.1607 93.5316 52.394 92.5703 52.394V51.526C93.2516 51.526 93.8583 51.6287 94.3903 51.834C94.9223 52.0393 95.3423 52.3473 95.6503 52.758C95.9583 53.1687 96.1123 53.682 96.1123 54.298C96.1123 54.8113 95.9909 55.2873 95.7483 55.726C95.5056 56.1553 95.1509 56.5007 94.6843 56.762C94.2176 57.0233 93.6529 57.154 92.9903 57.154Z" fill="#464646"/>
<rect x="114" y="38" width="30" height="30" rx="2" fill="white"/>
<path d="M124.286 49.006L124.874 49.342C124.809 49.51 124.678 49.678 124.482 49.846C124.295 50.014 124.039 50.154 123.712 50.266C123.395 50.3687 123.007 50.42 122.55 50.42V48.88C122.933 48.88 123.269 48.824 123.558 48.712C123.857 48.5907 124.104 48.4227 124.3 48.208C124.505 47.9933 124.655 47.746 124.748 47.466H125.91V57H124.286V49.006ZM133.253 50.812V57H131.601V53.682L131.349 53.178L132.245 50.812H133.253ZM127.541 54.676V53.682L129.949 47.466H131.587L129.151 53.878L128.899 53.108H134.569V54.676H127.541Z" fill="#464646"/>
<rect x="152" y="38" width="30" height="30" rx="2" fill="white"/>
<path d="M162.552 49.006L163.14 49.342C163.075 49.51 162.944 49.678 162.748 49.846C162.562 50.014 162.305 50.154 161.978 50.266C161.661 50.3687 161.274 50.42 160.816 50.42V48.88C161.199 48.88 161.535 48.824 161.824 48.712C162.123 48.5907 162.37 48.4227 162.566 48.208C162.772 47.9933 162.921 47.746 163.014 47.466H164.176V57H162.552V49.006ZM167.348 53.192L166.144 52.898V47.466H171.632V49.034H167.096L167.698 48.446V52.548L166.942 52.058C167.213 51.6287 167.539 51.3067 167.922 51.092C168.305 50.8773 168.781 50.77 169.35 50.77C169.873 50.77 170.353 50.9007 170.792 51.162C171.231 51.414 171.581 51.778 171.842 52.254C172.113 52.7207 172.248 53.276 172.248 53.92C172.248 54.62 172.099 55.2127 171.8 55.698C171.511 56.174 171.123 56.538 170.638 56.79C170.162 57.0327 169.625 57.154 169.028 57.154C168.291 57.154 167.656 57.014 167.124 56.734C166.601 56.4447 166.181 56.062 165.864 55.586L167.124 54.69C167.357 54.998 167.628 55.2267 167.936 55.376C168.244 55.5253 168.557 55.6 168.874 55.6C169.425 55.6 169.845 55.4507 170.134 55.152C170.433 54.844 170.582 54.4427 170.582 53.948C170.582 53.472 170.423 53.094 170.106 52.814C169.798 52.5247 169.415 52.38 168.958 52.38C168.65 52.38 168.361 52.4407 168.09 52.562C167.829 52.6833 167.581 52.8933 167.348 53.192Z" fill="#464646"/>
<rect x="190" y="38" width="30" height="30" rx="2" fill="white"/>
<path d="M200.436 49.006L201.024 49.342C200.959 49.51 200.828 49.678 200.632 49.846C200.446 50.014 200.189 50.154 199.862 50.266C199.545 50.3687 199.158 50.42 198.7 50.42V48.88C199.083 48.88 199.419 48.824 199.708 48.712C200.007 48.5907 200.254 48.4227 200.45 48.208C200.656 47.9933 200.805 47.746 200.898 47.466H202.06V57H200.436V49.006ZM203.566 52.506C203.566 51.4233 203.725 50.4947 204.042 49.72C204.369 48.9453 204.826 48.3527 205.414 47.942C206.002 47.5313 206.698 47.326 207.5 47.326C208.014 47.326 208.494 47.41 208.942 47.578C209.39 47.746 209.801 47.9887 210.174 48.306L209.292 49.482C209.031 49.2767 208.751 49.1227 208.452 49.02C208.154 48.908 207.846 48.852 207.528 48.852C207.108 48.852 206.721 48.9827 206.366 49.244C206.021 49.5053 205.746 49.916 205.54 50.476C205.335 51.036 205.237 51.7687 205.246 52.674H204.924C205.139 52.142 205.484 51.7267 205.96 51.428C206.436 51.1293 206.982 50.98 207.598 50.98C208.214 50.98 208.732 51.1153 209.152 51.386C209.582 51.6473 209.904 52.002 210.118 52.45C210.342 52.898 210.454 53.3973 210.454 53.948C210.454 54.5733 210.324 55.1287 210.062 55.614C209.81 56.09 209.442 56.468 208.956 56.748C208.48 57.0187 207.892 57.154 207.192 57.154C206.427 57.154 205.774 56.9907 205.232 56.664C204.7 56.3373 204.29 55.8333 204 55.152C203.711 54.4613 203.566 53.5793 203.566 52.506ZM205.428 54.06C205.428 54.536 205.582 54.9187 205.89 55.208C206.208 55.488 206.614 55.628 207.108 55.628C207.631 55.628 208.042 55.488 208.34 55.208C208.648 54.9187 208.802 54.536 208.802 54.06C208.802 53.584 208.648 53.2013 208.34 52.912C208.042 52.6133 207.631 52.464 207.108 52.464C206.614 52.464 206.208 52.6133 205.89 52.912C205.582 53.2013 205.428 53.584 205.428 54.06Z" fill="#464646"/>
<rect x="228" y="38" width="30" height="30" rx="2" fill="white"/>
<path d="M238.442 49.006L239.03 49.342C238.965 49.51 238.834 49.678 238.638 49.846C238.451 50.014 238.195 50.154 237.868 50.266C237.551 50.3687 237.163 50.42 236.706 50.42V48.88C237.089 48.88 237.425 48.824 237.714 48.712C238.013 48.5907 238.26 48.4227 238.456 48.208C238.661 47.9933 238.811 47.746 238.904 47.466H240.066V57H238.442V49.006ZM241.829 57L246.113 48.18L246.771 49.034H241.339V47.466H247.513V48.838L243.663 57H241.829Z" fill="#464646"/>
<rect x="266" y="38" width="30" height="30" rx="2" fill="white"/>
<path d="M276.464 49.006L277.052 49.342C276.986 49.51 276.856 49.678 276.66 49.846C276.473 50.014 276.216 50.154 275.89 50.266C275.572 50.3687 275.185 50.42 274.728 50.42V48.88C275.11 48.88 275.446 48.824 275.736 48.712C276.034 48.5907 276.282 48.4227 276.478 48.208C276.683 47.9933 276.832 47.746 276.926 47.466H278.088V57H276.464V49.006ZM282.967 57.154C282.286 57.154 281.707 57.0327 281.231 56.79C280.755 56.5473 280.396 56.2207 280.153 55.81C279.92 55.39 279.803 54.9327 279.803 54.438C279.803 53.9527 279.906 53.5327 280.111 53.178C280.317 52.814 280.606 52.5107 280.979 52.268C281.353 52.0253 281.782 51.8527 282.267 51.75V52.492C281.819 52.38 281.432 52.2027 281.105 51.96C280.779 51.7173 280.527 51.4233 280.349 51.078C280.172 50.7327 280.083 50.3547 280.083 49.944C280.083 49.44 280.195 48.992 280.419 48.6C280.653 48.1987 280.984 47.886 281.413 47.662C281.852 47.438 282.379 47.326 282.995 47.326C283.593 47.326 284.101 47.438 284.521 47.662C284.951 47.886 285.277 48.1987 285.501 48.6C285.735 48.992 285.851 49.44 285.851 49.944C285.851 50.3173 285.772 50.672 285.613 51.008C285.464 51.3347 285.245 51.6193 284.955 51.862C284.675 52.1047 284.339 52.2913 283.947 52.422L283.919 51.806C284.377 51.9273 284.769 52.1093 285.095 52.352C285.422 52.5947 285.674 52.8933 285.851 53.248C286.038 53.5933 286.131 53.99 286.131 54.438C286.131 54.9327 286.01 55.39 285.767 55.81C285.534 56.2207 285.179 56.5473 284.703 56.79C284.237 57.0327 283.658 57.154 282.967 57.154ZM282.967 55.586C283.425 55.586 283.793 55.46 284.073 55.208C284.353 54.956 284.493 54.62 284.493 54.2C284.493 53.7613 284.353 53.4113 284.073 53.15C283.793 52.8887 283.425 52.758 282.967 52.758C282.51 52.758 282.141 52.8887 281.861 53.15C281.581 53.4113 281.441 53.7613 281.441 54.2C281.441 54.62 281.581 54.956 281.861 55.208C282.141 55.46 282.51 55.586 282.967 55.586ZM282.967 51.232C283.35 51.232 283.663 51.12 283.905 50.896C284.157 50.6627 284.283 50.3733 284.283 50.028C284.283 49.7013 284.157 49.4307 283.905 49.216C283.663 49.0013 283.35 48.894 282.967 48.894C282.594 48.894 282.281 49.0013 282.029 49.216C281.777 49.4307 281.651 49.7013 281.651 50.028C281.651 50.3733 281.777 50.6627 282.029 50.896C282.281 51.12 282.594 51.232 282.967 51.232Z" fill="#464646"/>
<rect x="304" y="38" width="30" height="30" rx="2" fill="white"/>
<path d="M314.429 49.006L315.017 49.342C314.952 49.51 314.821 49.678 314.625 49.846C314.439 50.014 314.182 50.154 313.855 50.266C313.538 50.3687 313.151 50.42 312.693 50.42V48.88C313.076 48.88 313.412 48.824 313.701 48.712C314 48.5907 314.247 48.4227 314.443 48.208C314.649 47.9933 314.798 47.746 314.891 47.466H316.053V57H314.429V49.006ZM324.461 51.974C324.461 53.0567 324.302 53.9853 323.985 54.76C323.668 55.5253 323.21 56.118 322.613 56.538C322.025 56.9487 321.33 57.154 320.527 57.154C320.023 57.154 319.547 57.07 319.099 56.902C318.651 56.7247 318.236 56.482 317.853 56.174L318.749 54.984C319.01 55.1893 319.29 55.348 319.589 55.46C319.888 55.572 320.196 55.628 320.513 55.628C320.942 55.628 321.33 55.4973 321.675 55.236C322.02 54.9747 322.291 54.564 322.487 54.004C322.692 53.444 322.79 52.7067 322.781 51.792H323.117C322.893 52.3333 322.543 52.7533 322.067 53.052C321.591 53.3507 321.05 53.5 320.443 53.5C319.827 53.5 319.304 53.3693 318.875 53.108C318.446 52.8373 318.119 52.478 317.895 52.03C317.68 51.582 317.573 51.0827 317.573 50.532C317.573 49.9067 317.699 49.356 317.951 48.88C318.212 48.3947 318.586 48.0167 319.071 47.746C319.566 47.466 320.158 47.326 320.849 47.326C321.614 47.326 322.263 47.4893 322.795 47.816C323.336 48.1427 323.747 48.6513 324.027 49.342C324.316 50.0233 324.461 50.9007 324.461 51.974ZM322.613 50.406C322.613 49.93 322.459 49.552 322.151 49.272C321.843 48.9827 321.437 48.838 320.933 48.838C320.42 48.838 320.004 48.9827 319.687 49.272C319.379 49.5613 319.225 49.9393 319.225 50.406C319.225 50.8913 319.379 51.2833 319.687 51.582C320.004 51.8713 320.42 52.016 320.933 52.016C321.437 52.016 321.843 51.8713 322.151 51.582C322.459 51.2833 322.613 50.8913 322.613 50.406Z" fill="#464646"/>
<rect x="342" y="38" width="30" height="30" rx="2" fill="white"/>
<path d="M355.501 49.944C355.501 50.3267 355.445 50.7 355.333 51.064C355.221 51.428 355.043 51.8013 354.801 52.184C354.558 52.5667 354.245 52.9727 353.863 53.402L351.329 56.314L351.217 55.46H355.655V57H349.817V55.656L352.393 52.744C352.775 52.3053 353.074 51.9367 353.289 51.638C353.513 51.3393 353.667 51.0687 353.751 50.826C353.844 50.5833 353.891 50.3453 353.891 50.112C353.891 49.72 353.774 49.4213 353.541 49.216C353.307 49.0013 353.037 48.894 352.729 48.894C352.402 48.894 352.08 48.992 351.763 49.188C351.445 49.384 351.109 49.7293 350.755 50.224L349.579 49.37C349.849 48.9313 350.139 48.558 350.447 48.25C350.764 47.942 351.109 47.7133 351.483 47.564C351.856 47.4053 352.267 47.326 352.715 47.326C353.293 47.326 353.788 47.4427 354.199 47.676C354.619 47.9 354.941 48.2127 355.165 48.614C355.389 49.006 355.501 49.4493 355.501 49.944ZM360.022 57.154C359.35 57.154 358.762 56.958 358.258 56.566C357.754 56.174 357.366 55.614 357.096 54.886C356.825 54.1487 356.69 53.2667 356.69 52.24C356.69 51.232 356.825 50.3593 357.096 49.622C357.366 48.8847 357.754 48.32 358.258 47.928C358.762 47.5267 359.35 47.326 360.022 47.326C360.703 47.326 361.291 47.5267 361.786 47.928C362.29 48.32 362.677 48.8847 362.948 49.622C363.218 50.3593 363.354 51.232 363.354 52.24C363.354 53.2667 363.218 54.1487 362.948 54.886C362.677 55.614 362.29 56.174 361.786 56.566C361.291 56.958 360.703 57.154 360.022 57.154ZM360.022 55.586C360.423 55.586 360.745 55.4367 360.988 55.138C361.23 54.8393 361.408 54.438 361.52 53.934C361.641 53.4207 361.702 52.856 361.702 52.24C361.702 51.6893 361.641 51.1573 361.52 50.644C361.408 50.1307 361.23 49.7153 360.988 49.398C360.745 49.0713 360.423 48.908 360.022 48.908C359.611 48.908 359.28 49.0713 359.028 49.398C358.776 49.7153 358.594 50.1307 358.482 50.644C358.379 51.1573 358.328 51.6893 358.328 52.24C358.328 52.856 358.379 53.4207 358.482 53.934C358.594 54.438 358.776 54.8393 359.028 55.138C359.28 55.4367 359.611 55.586 360.022 55.586Z" fill="#464646"/>
<rect y="76" width="30" height="30" rx="2" fill="white"/>
<path d="M14.3677 87.944C14.3677 88.3267 14.3117 88.7 14.1997 89.064C14.0877 89.428 13.9104 89.8013 13.6677 90.184C13.4251 90.5667 13.1124 90.9727 12.7297 91.402L10.1957 94.314L10.0837 93.46H14.5217V95H8.68372V93.656L11.2597 90.744C11.6424 90.3053 11.9411 89.9367 12.1557 89.638C12.3797 89.3393 12.5337 89.0687 12.6177 88.826C12.7111 88.5833 12.7577 88.3453 12.7577 88.112C12.7577 87.72 12.6411 87.4213 12.4077 87.216C12.1744 87.0013 11.9037 86.894 11.5957 86.894C11.2691 86.894 10.9471 86.992 10.6297 87.188C10.3124 87.384 9.97639 87.7293 9.62172 88.224L8.44572 87.37C8.71639 86.9313 9.00572 86.558 9.31372 86.25C9.63105 85.942 9.97639 85.7133 10.3497 85.564C10.7231 85.4053 11.1337 85.326 11.5817 85.326C12.1604 85.326 12.6551 85.4427 13.0657 85.676C13.4857 85.9 13.8077 86.2127 14.0317 86.614C14.2557 87.006 14.3677 87.4493 14.3677 87.944ZM17.2507 87.006L17.8387 87.342C17.7734 87.51 17.6427 87.678 17.4467 87.846C17.2601 88.014 17.0034 88.154 16.6767 88.266C16.3594 88.3687 15.9721 88.42 15.5147 88.42V86.88C15.8974 86.88 16.2334 86.824 16.5227 86.712C16.8214 86.5907 17.0687 86.4227 17.2647 86.208C17.4701 85.9933 17.6194 85.746 17.7127 85.466H18.8747V95H17.2507V87.006Z" fill="#464646"/>
<rect x="38" y="76" width="30" height="30" rx="2" fill="white"/>
<path d="M51.815 87.944C51.815 88.3267 51.759 88.7 51.647 89.064C51.535 89.428 51.3577 89.8013 51.115 90.184C50.8723 90.5667 50.5597 90.9727 50.177 91.402L47.643 94.314L47.531 93.46H51.969V95H46.131V93.656L48.707 90.744C49.0897 90.3053 49.3883 89.9367 49.603 89.638C49.827 89.3393 49.981 89.0687 50.065 88.826C50.1583 88.5833 50.205 88.3453 50.205 88.112C50.205 87.72 50.0883 87.4213 49.855 87.216C49.6217 87.0013 49.351 86.894 49.043 86.894C48.7163 86.894 48.3943 86.992 48.077 87.188C47.7597 87.384 47.4237 87.7293 47.069 88.224L45.893 87.37C46.1637 86.9313 46.453 86.558 46.761 86.25C47.0783 85.942 47.4237 85.7133 47.797 85.564C48.1703 85.4053 48.581 85.326 49.029 85.326C49.6077 85.326 50.1023 85.4427 50.513 85.676C50.933 85.9 51.255 86.2127 51.479 86.614C51.703 87.006 51.815 87.4493 51.815 87.944ZM58.856 87.944C58.856 88.3267 58.8 88.7 58.688 89.064C58.576 89.428 58.3987 89.8013 58.156 90.184C57.9133 90.5667 57.6007 90.9727 57.218 91.402L54.684 94.314L54.572 93.46H59.01V95H53.172V93.656L55.748 90.744C56.1307 90.3053 56.4293 89.9367 56.644 89.638C56.868 89.3393 57.022 89.0687 57.106 88.826C57.1993 88.5833 57.246 88.3453 57.246 88.112C57.246 87.72 57.1293 87.4213 56.896 87.216C56.6627 87.0013 56.392 86.894 56.084 86.894C55.7573 86.894 55.4353 86.992 55.118 87.188C54.8007 87.384 54.4647 87.7293 54.11 88.224L52.934 87.37C53.2047 86.9313 53.494 86.558 53.802 86.25C54.1193 85.942 54.4647 85.7133 54.838 85.564C55.2113 85.4053 55.622 85.326 56.07 85.326C56.6487 85.326 57.1433 85.4427 57.554 85.676C57.974 85.9 58.296 86.2127 58.52 86.614C58.744 87.006 58.856 87.4493 58.856 87.944Z" fill="#464646"/>
<rect x="76" y="76" width="30" height="30" rx="2" fill="white"/>
<path d="M89.774 87.944C89.774 88.3267 89.718 88.7 89.606 89.064C89.494 89.428 89.3166 89.8013 89.074 90.184C88.8313 90.5667 88.5186 90.9727 88.136 91.402L85.602 94.314L85.49 93.46H89.928V95H84.09V93.656L86.666 90.744C87.0486 90.3053 87.3473 89.9367 87.562 89.638C87.786 89.3393 87.94 89.0687 88.024 88.826C88.1173 88.5833 88.164 88.3453 88.164 88.112C88.164 87.72 88.0473 87.4213 87.814 87.216C87.5806 87.0013 87.31 86.894 87.002 86.894C86.6753 86.894 86.3533 86.992 86.036 87.188C85.7186 87.384 85.3826 87.7293 85.028 88.224L83.852 87.37C84.1226 86.9313 84.412 86.558 84.72 86.25C85.0373 85.942 85.3826 85.7133 85.756 85.564C86.1293 85.4053 86.54 85.326 86.988 85.326C87.5666 85.326 88.0613 85.4427 88.472 85.676C88.892 85.9 89.214 86.2127 89.438 86.614C89.662 87.006 89.774 87.4493 89.774 87.944ZM94.043 95.154C93.3337 95.154 92.727 95.0327 92.223 94.79C91.719 94.538 91.2523 94.1553 90.823 93.642L91.859 92.606C92.1763 92.942 92.4937 93.1893 92.811 93.348C93.1283 93.5067 93.483 93.586 93.875 93.586C94.4163 93.586 94.827 93.4553 95.107 93.194C95.387 92.9233 95.527 92.5873 95.527 92.186C95.527 91.794 95.429 91.4907 95.233 91.276C95.0463 91.052 94.7943 90.8933 94.477 90.8C94.1597 90.6973 93.805 90.646 93.413 90.646C93.301 90.646 93.1797 90.6507 93.049 90.66C92.9277 90.66 92.8157 90.6693 92.713 90.688V89.26C92.8717 89.2693 92.9837 89.2787 93.049 89.288C93.1237 89.288 93.2123 89.288 93.315 89.288C93.903 89.288 94.3557 89.176 94.673 88.952C94.9903 88.7187 95.149 88.406 95.149 88.014C95.149 87.6593 95.037 87.384 94.813 87.188C94.589 86.992 94.2763 86.894 93.875 86.894C93.511 86.894 93.1797 86.9733 92.881 87.132C92.5917 87.2907 92.307 87.5333 92.027 87.86L90.977 86.852C91.4623 86.3013 91.9383 85.9093 92.405 85.676C92.8717 85.4427 93.413 85.326 94.029 85.326C94.589 85.326 95.0743 85.4333 95.485 85.648C95.8957 85.8533 96.2083 86.1473 96.423 86.53C96.647 86.9033 96.759 87.342 96.759 87.846C96.759 88.6113 96.4743 89.2273 95.905 89.694C95.345 90.1607 94.5843 90.394 93.623 90.394V89.526C94.3043 89.526 94.911 89.6287 95.443 89.834C95.975 90.0393 96.395 90.3473 96.703 90.758C97.011 91.1687 97.165 91.682 97.165 92.298C97.165 92.8113 97.0437 93.2873 96.801 93.726C96.5583 94.1553 96.2037 94.5007 95.737 94.762C95.2703 95.0233 94.7057 95.154 94.043 95.154Z" fill="#464646"/>
<rect x="114" y="76" width="30" height="30" rx="2" fill="white"/>
<path d="M127.671 87.944C127.671 88.3267 127.615 88.7 127.503 89.064C127.391 89.428 127.214 89.8013 126.971 90.184C126.729 90.5667 126.416 90.9727 126.033 91.402L123.499 94.314L123.387 93.46H127.825V95H121.987V93.656L124.563 90.744C124.946 90.3053 125.245 89.9367 125.459 89.638C125.683 89.3393 125.837 89.0687 125.921 88.826C126.015 88.5833 126.061 88.3453 126.061 88.112C126.061 87.72 125.945 87.4213 125.711 87.216C125.478 87.0013 125.207 86.894 124.899 86.894C124.573 86.894 124.251 86.992 123.933 87.188C123.616 87.384 123.28 87.7293 122.925 88.224L121.749 87.37C122.02 86.9313 122.309 86.558 122.617 86.25C122.935 85.942 123.28 85.7133 123.653 85.564C124.027 85.4053 124.437 85.326 124.885 85.326C125.464 85.326 125.959 85.4427 126.369 85.676C126.789 85.9 127.111 86.2127 127.335 86.614C127.559 87.006 127.671 87.4493 127.671 87.944ZM134.026 88.812V95H132.374V91.682L132.122 91.178L133.018 88.812H134.026ZM128.314 92.676V91.682L130.722 85.466H132.36L129.924 91.878L129.672 91.108H135.342V92.676H128.314Z" fill="#464646"/>
<rect x="152" y="76" width="30" height="30" rx="2" fill="white"/>
<path d="M165.658 87.944C165.658 88.3267 165.602 88.7 165.49 89.064C165.378 89.428 165.2 89.8013 164.958 90.184C164.715 90.5667 164.402 90.9727 164.02 91.402L161.486 94.314L161.374 93.46H165.812V95H159.974V93.656L162.55 90.744C162.932 90.3053 163.231 89.9367 163.446 89.638C163.67 89.3393 163.824 89.0687 163.908 88.826C164.001 88.5833 164.048 88.3453 164.048 88.112C164.048 87.72 163.931 87.4213 163.698 87.216C163.464 87.0013 163.194 86.894 162.886 86.894C162.559 86.894 162.237 86.992 161.92 87.188C161.602 87.384 161.266 87.7293 160.912 88.224L159.736 87.37C160.006 86.9313 160.296 86.558 160.604 86.25C160.921 85.942 161.266 85.7133 161.64 85.564C162.013 85.4053 162.424 85.326 162.872 85.326C163.45 85.326 163.945 85.4427 164.356 85.676C164.776 85.9 165.098 86.2127 165.322 86.614C165.546 87.006 165.658 87.4493 165.658 87.944ZM168.401 91.192L167.197 90.898V85.466H172.685V87.034H168.149L168.751 86.446V90.548L167.995 90.058C168.265 89.6287 168.592 89.3067 168.975 89.092C169.357 88.8773 169.833 88.77 170.403 88.77C170.925 88.77 171.406 88.9007 171.845 89.162C172.283 89.414 172.633 89.778 172.895 90.254C173.165 90.7207 173.301 91.276 173.301 91.92C173.301 92.62 173.151 93.2127 172.853 93.698C172.563 94.174 172.176 94.538 171.691 94.79C171.215 95.0327 170.678 95.154 170.081 95.154C169.343 95.154 168.709 95.014 168.177 94.734C167.654 94.4447 167.234 94.062 166.917 93.586L168.177 92.69C168.41 92.998 168.681 93.2267 168.989 93.376C169.297 93.5253 169.609 93.6 169.927 93.6C170.477 93.6 170.897 93.4507 171.187 93.152C171.485 92.844 171.635 92.4427 171.635 91.948C171.635 91.472 171.476 91.094 171.159 90.814C170.851 90.5247 170.468 90.38 170.011 90.38C169.703 90.38 169.413 90.4407 169.143 90.562C168.881 90.6833 168.634 90.8933 168.401 91.192Z" fill="#464646"/>
<rect x="190" y="76" width="30" height="30" rx="2" fill="white"/>
<path d="M203.596 87.944C203.596 88.3267 203.54 88.7 203.428 89.064C203.316 89.428 203.139 89.8013 202.896 90.184C202.654 90.5667 202.341 90.9727 201.958 91.402L199.424 94.314L199.312 93.46H203.75V95H197.912V93.656L200.488 90.744C200.871 90.3053 201.17 89.9367 201.384 89.638C201.608 89.3393 201.762 89.0687 201.846 88.826C201.94 88.5833 201.986 88.3453 201.986 88.112C201.986 87.72 201.87 87.4213 201.636 87.216C201.403 87.0013 201.132 86.894 200.824 86.894C200.498 86.894 200.176 86.992 199.858 87.188C199.541 87.384 199.205 87.7293 198.85 88.224L197.674 87.37C197.945 86.9313 198.234 86.558 198.542 86.25C198.86 85.942 199.205 85.7133 199.578 85.564C199.952 85.4053 200.362 85.326 200.81 85.326C201.389 85.326 201.884 85.4427 202.294 85.676C202.714 85.9 203.036 86.2127 203.26 86.614C203.484 87.006 203.596 87.4493 203.596 87.944ZM204.565 90.506C204.565 89.4233 204.723 88.4947 205.041 87.72C205.367 86.9453 205.825 86.3527 206.413 85.942C207.001 85.5313 207.696 85.326 208.499 85.326C209.012 85.326 209.493 85.41 209.941 85.578C210.389 85.746 210.799 85.9887 211.173 86.306L210.291 87.482C210.029 87.2767 209.749 87.1227 209.451 87.02C209.152 86.908 208.844 86.852 208.527 86.852C208.107 86.852 207.719 86.9827 207.365 87.244C207.019 87.5053 206.744 87.916 206.539 88.476C206.333 89.036 206.235 89.7687 206.245 90.674H205.923C206.137 90.142 206.483 89.7267 206.959 89.428C207.435 89.1293 207.981 88.98 208.597 88.98C209.213 88.98 209.731 89.1153 210.151 89.386C210.58 89.6473 210.902 90.002 211.117 90.45C211.341 90.898 211.453 91.3973 211.453 91.948C211.453 92.5733 211.322 93.1287 211.061 93.614C210.809 94.09 210.44 94.468 209.955 94.748C209.479 95.0187 208.891 95.154 208.191 95.154C207.425 95.154 206.772 94.9907 206.231 94.664C205.699 94.3373 205.288 93.8333 204.999 93.152C204.709 92.4613 204.565 91.5793 204.565 90.506ZM206.427 92.06C206.427 92.536 206.581 92.9187 206.889 93.208C207.206 93.488 207.612 93.628 208.107 93.628C208.629 93.628 209.04 93.488 209.339 93.208C209.647 92.9187 209.801 92.536 209.801 92.06C209.801 91.584 209.647 91.2013 209.339 90.912C209.04 90.6133 208.629 90.464 208.107 90.464C207.612 90.464 207.206 90.6133 206.889 90.912C206.581 91.2013 206.427 91.584 206.427 92.06Z" fill="#464646"/>
<rect x="228" y="76" width="30" height="30" rx="2" fill="white"/>
<path d="M241.438 87.944C241.438 88.3267 241.382 88.7 241.27 89.064C241.158 89.428 240.981 89.8013 240.738 90.184C240.495 90.5667 240.183 90.9727 239.8 91.402L237.266 94.314L237.154 93.46H241.592V95H235.754V93.656L238.33 90.744C238.713 90.3053 239.011 89.9367 239.226 89.638C239.45 89.3393 239.604 89.0687 239.688 88.826C239.781 88.5833 239.828 88.3453 239.828 88.112C239.828 87.72 239.711 87.4213 239.478 87.216C239.245 87.0013 238.974 86.894 238.666 86.894C238.339 86.894 238.017 86.992 237.7 87.188C237.383 87.384 237.047 87.7293 236.692 88.224L235.516 87.37C235.787 86.9313 236.076 86.558 236.384 86.25C236.701 85.942 237.047 85.7133 237.42 85.564C237.793 85.4053 238.204 85.326 238.652 85.326C239.231 85.326 239.725 85.4427 240.136 85.676C240.556 85.9 240.878 86.2127 241.102 86.614C241.326 87.006 241.438 87.4493 241.438 87.944ZM242.991 95L247.275 86.18L247.933 87.034H242.501V85.466H248.675V86.838L244.825 95H242.991Z" fill="#464646"/>
<rect x="266" y="76" width="30" height="30" rx="2" fill="#FFA233"/>
<path d="M279.569 87.944C279.569 88.3267 279.513 88.7 279.401 89.064C279.289 89.428 279.112 89.8013 278.869 90.184C278.626 90.5667 278.314 90.9727 277.931 91.402L275.397 94.314L275.285 93.46H279.723V95H273.885V93.656L276.461 90.744C276.844 90.3053 277.142 89.9367 277.357 89.638C277.581 89.3393 277.735 89.0687 277.819 88.826C277.912 88.5833 277.959 88.3453 277.959 88.112C277.959 87.72 277.842 87.4213 277.609 87.216C277.376 87.0013 277.105 86.894 276.797 86.894C276.47 86.894 276.148 86.992 275.831 87.188C275.514 87.384 275.178 87.7293 274.823 88.224L273.647 87.37C273.918 86.9313 274.207 86.558 274.515 86.25C274.832 85.942 275.178 85.7133 275.551 85.564C275.924 85.4053 276.335 85.326 276.783 85.326C277.362 85.326 277.856 85.4427 278.267 85.676C278.687 85.9 279.009 86.2127 279.233 86.614C279.457 87.006 279.569 87.4493 279.569 87.944ZM284.02 95.154C283.339 95.154 282.76 95.0327 282.284 94.79C281.808 94.5473 281.449 94.2207 281.206 93.81C280.973 93.39 280.856 92.9327 280.856 92.438C280.856 91.9527 280.959 91.5327 281.164 91.178C281.369 90.814 281.659 90.5107 282.032 90.268C282.405 90.0253 282.835 89.8527 283.32 89.75V90.492C282.872 90.38 282.485 90.2027 282.158 89.96C281.831 89.7173 281.579 89.4233 281.402 89.078C281.225 88.7327 281.136 88.3547 281.136 87.944C281.136 87.44 281.248 86.992 281.472 86.6C281.705 86.1987 282.037 85.886 282.466 85.662C282.905 85.438 283.432 85.326 284.048 85.326C284.645 85.326 285.154 85.438 285.574 85.662C286.003 85.886 286.33 86.1987 286.554 86.6C286.787 86.992 286.904 87.44 286.904 87.944C286.904 88.3173 286.825 88.672 286.666 89.008C286.517 89.3347 286.297 89.6193 286.008 89.862C285.728 90.1047 285.392 90.2913 285 90.422L284.972 89.806C285.429 89.9273 285.821 90.1093 286.148 90.352C286.475 90.5947 286.727 90.8933 286.904 91.248C287.091 91.5933 287.184 91.99 287.184 92.438C287.184 92.9327 287.063 93.39 286.82 93.81C286.587 94.2207 286.232 94.5473 285.756 94.79C285.289 95.0327 284.711 95.154 284.02 95.154ZM284.02 93.586C284.477 93.586 284.846 93.46 285.126 93.208C285.406 92.956 285.546 92.62 285.546 92.2C285.546 91.7613 285.406 91.4113 285.126 91.15C284.846 90.8887 284.477 90.758 284.02 90.758C283.563 90.758 283.194 90.8887 282.914 91.15C282.634 91.4113 282.494 91.7613 282.494 92.2C282.494 92.62 282.634 92.956 282.914 93.208C283.194 93.46 283.563 93.586 284.02 93.586ZM284.02 89.232C284.403 89.232 284.715 89.12 284.958 88.896C285.21 88.6627 285.336 88.3733 285.336 88.028C285.336 87.7013 285.21 87.4307 284.958 87.216C284.715 87.0013 284.403 86.894 284.02 86.894C283.647 86.894 283.334 87.0013 283.082 87.216C282.83 87.4307 282.704 87.7013 282.704 88.028C282.704 88.3733 282.83 88.6627 283.082 88.896C283.334 89.12 283.647 89.232 284.02 89.232Z" fill="white"/>
<rect x="304" y="76" width="30" height="30" rx="2" fill="white"/>
<path d="M317.535 87.944C317.535 88.3267 317.479 88.7 317.367 89.064C317.255 89.428 317.077 89.8013 316.835 90.184C316.592 90.5667 316.279 90.9727 315.897 91.402L313.363 94.314L313.251 93.46H317.689V95H311.851V93.656L314.427 90.744C314.809 90.3053 315.108 89.9367 315.323 89.638C315.547 89.3393 315.701 89.0687 315.785 88.826C315.878 88.5833 315.925 88.3453 315.925 88.112C315.925 87.72 315.808 87.4213 315.575 87.216C315.341 87.0013 315.071 86.894 314.763 86.894C314.436 86.894 314.114 86.992 313.797 87.188C313.479 87.384 313.143 87.7293 312.789 88.224L311.613 87.37C311.883 86.9313 312.173 86.558 312.481 86.25C312.798 85.942 313.143 85.7133 313.517 85.564C313.89 85.4053 314.301 85.326 314.749 85.326C315.327 85.326 315.822 85.4427 316.233 85.676C316.653 85.9 316.975 86.2127 317.199 86.614C317.423 87.006 317.535 87.4493 317.535 87.944ZM325.514 89.974C325.514 91.0567 325.355 91.9853 325.038 92.76C324.72 93.5253 324.263 94.118 323.666 94.538C323.078 94.9487 322.382 95.154 321.58 95.154C321.076 95.154 320.6 95.07 320.152 94.902C319.704 94.7247 319.288 94.482 318.906 94.174L319.802 92.984C320.063 93.1893 320.343 93.348 320.642 93.46C320.94 93.572 321.248 93.628 321.566 93.628C321.995 93.628 322.382 93.4973 322.728 93.236C323.073 92.9747 323.344 92.564 323.54 92.004C323.745 91.444 323.843 90.7067 323.834 89.792H324.17C323.946 90.3333 323.596 90.7533 323.12 91.052C322.644 91.3507 322.102 91.5 321.496 91.5C320.88 91.5 320.357 91.3693 319.928 91.108C319.498 90.8373 319.172 90.478 318.948 90.03C318.733 89.582 318.626 89.0827 318.626 88.532C318.626 87.9067 318.752 87.356 319.004 86.88C319.265 86.3947 319.638 86.0167 320.124 85.746C320.618 85.466 321.211 85.326 321.902 85.326C322.667 85.326 323.316 85.4893 323.848 85.816C324.389 86.1427 324.8 86.6513 325.08 87.342C325.369 88.0233 325.514 88.9007 325.514 89.974ZM323.666 88.406C323.666 87.93 323.512 87.552 323.204 87.272C322.896 86.9827 322.49 86.838 321.986 86.838C321.472 86.838 321.057 86.9827 320.74 87.272C320.432 87.5613 320.278 87.9393 320.278 88.406C320.278 88.8913 320.432 89.2833 320.74 89.582C321.057 89.8713 321.472 90.016 321.986 90.016C322.49 90.016 322.896 89.8713 323.204 89.582C323.512 89.2833 323.666 88.8913 323.666 88.406Z" fill="#464646"/>
<rect x="342" y="76" width="30" height="30" rx="2" fill="white"/>
<path d="M352.688 95.154C351.978 95.154 351.372 95.0327 350.868 94.79C350.364 94.538 349.897 94.1553 349.468 93.642L350.504 92.606C350.821 92.942 351.138 93.1893 351.456 93.348C351.773 93.5067 352.128 93.586 352.52 93.586C353.061 93.586 353.472 93.4553 353.752 93.194C354.032 92.9233 354.172 92.5873 354.172 92.186C354.172 91.794 354.074 91.4907 353.878 91.276C353.691 91.052 353.439 90.8933 353.122 90.8C352.804 90.6973 352.45 90.646 352.058 90.646C351.946 90.646 351.824 90.6507 351.694 90.66C351.572 90.66 351.46 90.6693 351.358 90.688V89.26C351.516 89.2693 351.628 89.2787 351.694 89.288C351.768 89.288 351.857 89.288 351.96 89.288C352.548 89.288 353 89.176 353.318 88.952C353.635 88.7187 353.794 88.406 353.794 88.014C353.794 87.6593 353.682 87.384 353.458 87.188C353.234 86.992 352.921 86.894 352.52 86.894C352.156 86.894 351.824 86.9733 351.526 87.132C351.236 87.2907 350.952 87.5333 350.672 87.86L349.622 86.852C350.107 86.3013 350.583 85.9093 351.05 85.676C351.516 85.4427 352.058 85.326 352.674 85.326C353.234 85.326 353.719 85.4333 354.13 85.648C354.54 85.8533 354.853 86.1473 355.068 86.53C355.292 86.9033 355.404 87.342 355.404 87.846C355.404 88.6113 355.119 89.2273 354.55 89.694C353.99 90.1607 353.229 90.394 352.268 90.394V89.526C352.949 89.526 353.556 89.6287 354.088 89.834C354.62 90.0393 355.04 90.3473 355.348 90.758C355.656 91.1687 355.81 91.682 355.81 92.298C355.81 92.8113 355.688 93.2873 355.446 93.726C355.203 94.1553 354.848 94.5007 354.382 94.762C353.915 95.0233 353.35 95.154 352.688 95.154ZM360.063 95.154C359.391 95.154 358.803 94.958 358.299 94.566C357.795 94.174 357.407 93.614 357.137 92.886C356.866 92.1487 356.731 91.2667 356.731 90.24C356.731 89.232 356.866 88.3593 357.137 87.622C357.407 86.8847 357.795 86.32 358.299 85.928C358.803 85.5267 359.391 85.326 360.063 85.326C360.744 85.326 361.332 85.5267 361.827 85.928C362.331 86.32 362.718 86.8847 362.989 87.622C363.259 88.3593 363.395 89.232 363.395 90.24C363.395 91.2667 363.259 92.1487 362.989 92.886C362.718 93.614 362.331 94.174 361.827 94.566C361.332 94.958 360.744 95.154 360.063 95.154ZM360.063 93.586C360.464 93.586 360.786 93.4367 361.029 93.138C361.271 92.8393 361.449 92.438 361.561 91.934C361.682 91.4207 361.743 90.856 361.743 90.24C361.743 89.6893 361.682 89.1573 361.561 88.644C361.449 88.1307 361.271 87.7153 361.029 87.398C360.786 87.0713 360.464 86.908 360.063 86.908C359.652 86.908 359.321 87.0713 359.069 87.398C358.817 87.7153 358.635 88.1307 358.523 88.644C358.42 89.1573 358.369 89.6893 358.369 90.24C358.369 90.856 358.42 91.4207 358.523 91.934C358.635 92.438 358.817 92.8393 359.069 93.138C359.321 93.4367 359.652 93.586 360.063 93.586Z" fill="#464646"/>
</svg>
