<svg width="328" height="60" viewBox="0 0 328 60" fill="none" xmlns="http://www.w3.org/2000/svg">
<rect y="6" width="328" height="54" rx="12" fill="#9B0624"/>
<path d="M84.3389 27.44C85.4189 27.44 86.3669 27.626 87.1829 27.998C87.9989 28.37 88.6949 28.922 89.2709 29.654L87.8849 31.256C87.3929 30.632 86.8529 30.176 86.2649 29.888C85.6889 29.588 85.0169 29.438 84.2489 29.438C83.7449 29.438 83.3249 29.504 82.9889 29.636C82.6649 29.768 82.4249 29.942 82.2689 30.158C82.1249 30.374 82.0529 30.614 82.0529 30.878C82.0529 31.202 82.1789 31.478 82.4309 31.706C82.6829 31.922 83.1149 32.102 83.7269 32.246L85.9409 32.75C87.1169 33.014 87.9569 33.41 88.4609 33.938C88.9769 34.454 89.2349 35.126 89.2349 35.954C89.2349 36.734 89.0309 37.406 88.6229 37.97C88.2149 38.522 87.6449 38.948 86.9129 39.248C86.1809 39.536 85.3409 39.68 84.3929 39.68C83.5649 39.68 82.8029 39.584 82.1069 39.392C81.4229 39.188 80.8109 38.912 80.2709 38.564C79.7309 38.216 79.2809 37.814 78.9209 37.358L80.3249 35.684C80.6009 36.068 80.9429 36.41 81.3509 36.71C81.7589 37.01 82.2209 37.25 82.7369 37.43C83.2649 37.598 83.8169 37.682 84.3929 37.682C84.8849 37.682 85.2989 37.628 85.6349 37.52C85.9829 37.4 86.2409 37.238 86.4089 37.034C86.5889 36.818 86.6789 36.56 86.6789 36.26C86.6789 35.948 86.5709 35.684 86.3549 35.468C86.1509 35.24 85.7669 35.066 85.2029 34.946L82.7909 34.406C82.0949 34.238 81.4949 34.022 80.9909 33.758C80.4989 33.482 80.1209 33.134 79.8569 32.714C79.6049 32.282 79.4789 31.772 79.4789 31.184C79.4789 30.476 79.6709 29.84 80.0549 29.276C80.4389 28.712 80.9909 28.268 81.7109 27.944C82.4429 27.608 83.3189 27.44 84.3389 27.44ZM94.2189 27.746V36.566C94.2189 36.998 94.3269 37.316 94.5429 37.52C94.7709 37.712 95.0769 37.808 95.4609 37.808C95.7609 37.808 96.0249 37.766 96.2529 37.682C96.4809 37.586 96.6849 37.46 96.8649 37.304L97.2609 38.942C96.9729 39.17 96.6129 39.35 96.1809 39.482C95.7489 39.614 95.2929 39.68 94.8129 39.68C94.2129 39.68 93.6789 39.59 93.2109 39.41C92.7549 39.23 92.3949 38.942 92.1309 38.546C91.8789 38.15 91.7529 37.622 91.7529 36.962V28.43L94.2189 27.746ZM97.0989 30.5V32.336H90.0969V30.5H97.0989ZM103.685 33.758C103.685 33.242 103.535 32.84 103.235 32.552C102.947 32.264 102.563 32.12 102.083 32.12C101.639 32.12 101.249 32.234 100.913 32.462C100.577 32.69 100.331 33.068 100.175 33.596L98.0692 32.948C98.2732 32.156 98.7172 31.52 99.4012 31.04C100.097 30.56 101.027 30.32 102.191 30.32C102.983 30.32 103.673 30.446 104.261 30.698C104.849 30.938 105.305 31.304 105.629 31.796C105.965 32.288 106.133 32.906 106.133 33.65V37.304C106.133 37.76 106.349 37.988 106.781 37.988C106.985 37.988 107.177 37.958 107.357 37.898L107.213 39.428C106.901 39.584 106.511 39.662 106.043 39.662C105.623 39.662 105.245 39.59 104.909 39.446C104.573 39.302 104.309 39.086 104.117 38.798C103.925 38.498 103.829 38.126 103.829 37.682V37.61L104.261 37.538C104.189 37.994 103.991 38.384 103.667 38.708C103.343 39.02 102.947 39.26 102.479 39.428C102.023 39.596 101.549 39.68 101.057 39.68C100.445 39.68 99.9172 39.59 99.4732 39.41C99.0292 39.218 98.6872 38.942 98.4472 38.582C98.2072 38.222 98.0872 37.778 98.0872 37.25C98.0872 36.578 98.3032 36.032 98.7352 35.612C99.1672 35.18 99.7852 34.886 100.589 34.73L103.973 34.046L103.955 35.576L101.795 36.008C101.387 36.092 101.075 36.206 100.859 36.35C100.655 36.482 100.553 36.704 100.553 37.016C100.553 37.316 100.661 37.544 100.877 37.7C101.105 37.856 101.375 37.934 101.687 37.934C101.939 37.934 102.185 37.904 102.425 37.844C102.665 37.784 102.881 37.688 103.073 37.556C103.265 37.424 103.415 37.244 103.523 37.016C103.631 36.788 103.685 36.512 103.685 36.188V33.758ZM108.591 39.5V30.5H110.733L110.895 32.264C111.135 31.64 111.483 31.16 111.939 30.824C112.407 30.488 112.989 30.32 113.685 30.32C113.889 30.32 114.075 30.338 114.243 30.374C114.411 30.41 114.549 30.458 114.657 30.518L114.369 32.588C114.249 32.54 114.099 32.504 113.919 32.48C113.751 32.456 113.529 32.444 113.253 32.444C112.893 32.444 112.545 32.534 112.209 32.714C111.873 32.882 111.597 33.146 111.381 33.506C111.165 33.854 111.057 34.298 111.057 34.838V39.5H108.591ZM118.737 27.746V36.566C118.737 36.998 118.845 37.316 119.061 37.52C119.289 37.712 119.595 37.808 119.979 37.808C120.279 37.808 120.543 37.766 120.771 37.682C120.999 37.586 121.203 37.46 121.383 37.304L121.779 38.942C121.491 39.17 121.131 39.35 120.699 39.482C120.267 39.614 119.811 39.68 119.331 39.68C118.731 39.68 118.197 39.59 117.729 39.41C117.273 39.23 116.913 38.942 116.649 38.546C116.397 38.15 116.271 37.622 116.271 36.962V28.43L118.737 27.746ZM121.617 30.5V32.336H114.615V30.5H121.617ZM130.32 39.5L126.864 27.62H129.51L131.85 37.43L134.226 27.62H136.602L139.014 37.43L141.336 27.62H143.874L140.418 39.5H137.628L135.972 33.02L135.414 30.212H135.378L134.82 33.02L133.182 39.5H130.32ZM149.646 33.758C149.646 33.242 149.496 32.84 149.196 32.552C148.908 32.264 148.524 32.12 148.044 32.12C147.6 32.12 147.21 32.234 146.874 32.462C146.538 32.69 146.292 33.068 146.136 33.596L144.03 32.948C144.234 32.156 144.678 31.52 145.362 31.04C146.058 30.56 146.988 30.32 148.152 30.32C148.944 30.32 149.634 30.446 150.222 30.698C150.81 30.938 151.266 31.304 151.59 31.796C151.926 32.288 152.094 32.906 152.094 33.65V37.304C152.094 37.76 152.31 37.988 152.742 37.988C152.946 37.988 153.138 37.958 153.318 37.898L153.174 39.428C152.862 39.584 152.472 39.662 152.004 39.662C151.584 39.662 151.206 39.59 150.87 39.446C150.534 39.302 150.27 39.086 150.078 38.798C149.886 38.498 149.79 38.126 149.79 37.682V37.61L150.222 37.538C150.15 37.994 149.952 38.384 149.628 38.708C149.304 39.02 148.908 39.26 148.44 39.428C147.984 39.596 147.51 39.68 147.018 39.68C146.406 39.68 145.878 39.59 145.434 39.41C144.99 39.218 144.648 38.942 144.408 38.582C144.168 38.222 144.048 37.778 144.048 37.25C144.048 36.578 144.264 36.032 144.696 35.612C145.128 35.18 145.746 34.886 146.55 34.73L149.934 34.046L149.916 35.576L147.756 36.008C147.348 36.092 147.036 36.206 146.82 36.35C146.616 36.482 146.514 36.704 146.514 37.016C146.514 37.316 146.622 37.544 146.838 37.7C147.066 37.856 147.336 37.934 147.648 37.934C147.9 37.934 148.146 37.904 148.386 37.844C148.626 37.784 148.842 37.688 149.034 37.556C149.226 37.424 149.376 37.244 149.484 37.016C149.592 36.788 149.646 36.512 149.646 36.188V33.758ZM157.386 27.746V36.566C157.386 36.998 157.494 37.316 157.71 37.52C157.938 37.712 158.244 37.808 158.628 37.808C158.928 37.808 159.192 37.766 159.42 37.682C159.648 37.586 159.852 37.46 160.032 37.304L160.428 38.942C160.14 39.17 159.78 39.35 159.348 39.482C158.916 39.614 158.46 39.68 157.98 39.68C157.38 39.68 156.846 39.59 156.378 39.41C155.922 39.23 155.562 38.942 155.298 38.546C155.046 38.15 154.92 37.622 154.92 36.962V28.43L157.386 27.746ZM160.266 30.5V32.336H153.264V30.5H160.266ZM165.721 30.32C166.525 30.32 167.203 30.44 167.755 30.68C168.319 30.908 168.769 31.226 169.105 31.634C169.453 32.03 169.699 32.474 169.843 32.966L167.539 33.794C167.419 33.254 167.215 32.846 166.927 32.57C166.639 32.294 166.249 32.156 165.757 32.156C165.301 32.156 164.911 32.264 164.587 32.48C164.263 32.684 164.017 33.002 163.849 33.434C163.681 33.854 163.597 34.382 163.597 35.018C163.597 35.654 163.681 36.182 163.849 36.602C164.029 37.022 164.281 37.334 164.605 37.538C164.941 37.742 165.331 37.844 165.775 37.844C166.135 37.844 166.441 37.784 166.693 37.664C166.945 37.532 167.149 37.346 167.305 37.106C167.473 36.866 167.587 36.578 167.647 36.242L169.879 36.962C169.747 37.502 169.501 37.976 169.141 38.384C168.781 38.792 168.319 39.11 167.755 39.338C167.191 39.566 166.537 39.68 165.793 39.68C164.869 39.68 164.053 39.494 163.345 39.122C162.637 38.75 162.091 38.216 161.707 37.52C161.323 36.824 161.131 35.984 161.131 35C161.131 34.016 161.323 33.176 161.707 32.48C162.091 31.784 162.631 31.25 163.327 30.878C164.023 30.506 164.821 30.32 165.721 30.32ZM171.495 39.5V26.558H173.961V32.03C174.249 31.454 174.645 31.028 175.149 30.752C175.653 30.464 176.223 30.32 176.859 30.32C177.483 30.32 178.035 30.44 178.515 30.68C179.007 30.92 179.391 31.286 179.667 31.778C179.955 32.258 180.099 32.864 180.099 33.596V39.5H177.633V34.316C177.633 33.536 177.483 33.002 177.183 32.714C176.883 32.414 176.499 32.264 176.031 32.264C175.683 32.264 175.347 32.348 175.023 32.516C174.711 32.672 174.453 32.936 174.249 33.308C174.057 33.668 173.961 34.148 173.961 34.748V39.5H171.495ZM183.582 29.204C183.066 29.204 182.682 29.096 182.43 28.88C182.178 28.652 182.052 28.322 182.052 27.89C182.052 27.446 182.178 27.116 182.43 26.9C182.682 26.672 183.066 26.558 183.582 26.558C184.098 26.558 184.482 26.672 184.734 26.9C184.986 27.116 185.112 27.446 185.112 27.89C185.112 28.322 184.986 28.652 184.734 28.88C184.482 29.096 184.098 29.204 183.582 29.204ZM184.806 30.5V39.5H182.34V30.5H184.806ZM187.12 39.5V30.5H189.334L189.478 33.2L189.172 32.912C189.316 32.324 189.544 31.838 189.856 31.454C190.168 31.07 190.546 30.788 190.99 30.608C191.446 30.416 191.944 30.32 192.484 30.32C193.108 30.32 193.66 30.44 194.14 30.68C194.632 30.92 195.016 31.286 195.292 31.778C195.58 32.258 195.724 32.864 195.724 33.596V39.5H193.258V34.298C193.258 33.53 193.108 33.002 192.808 32.714C192.508 32.414 192.118 32.264 191.638 32.264C191.302 32.264 190.972 32.348 190.648 32.516C190.336 32.672 190.078 32.93 189.874 33.29C189.682 33.65 189.586 34.13 189.586 34.73V39.5H187.12ZM206.262 28.358L206.55 30.122C206.502 30.122 206.448 30.122 206.388 30.122C206.34 30.11 206.286 30.104 206.226 30.104C205.674 30.104 205.26 30.23 204.984 30.482C204.708 30.722 204.57 31.058 204.57 31.49L203.562 31.076C203.562 30.596 203.658 30.152 203.85 29.744C204.042 29.324 204.324 28.988 204.696 28.736C205.08 28.484 205.536 28.358 206.064 28.358C206.088 28.358 206.118 28.358 206.154 28.358C206.19 28.358 206.226 28.358 206.262 28.358ZM203.31 37.808C204.282 37.808 205.032 38.018 205.56 38.438C206.088 38.858 206.352 39.446 206.352 40.202C206.352 40.886 206.154 41.462 205.758 41.93C205.362 42.41 204.804 42.77 204.084 43.01C203.376 43.25 202.554 43.37 201.618 43.37C200.07 43.37 198.936 43.154 198.216 42.722C197.508 42.29 197.154 41.726 197.154 41.03C197.154 40.538 197.34 40.124 197.712 39.788C198.096 39.452 198.726 39.266 199.602 39.23L199.512 39.518C198.888 39.41 198.408 39.206 198.072 38.906C197.748 38.594 197.586 38.168 197.586 37.628C197.586 37.076 197.796 36.626 198.216 36.278C198.648 35.918 199.23 35.708 199.962 35.648L201.042 36.152H200.79C200.274 36.188 199.908 36.296 199.692 36.476C199.488 36.644 199.386 36.836 199.386 37.052C199.386 37.304 199.482 37.496 199.674 37.628C199.878 37.748 200.166 37.808 200.538 37.808H203.31ZM201.636 41.678C202.26 41.678 202.77 41.624 203.166 41.516C203.574 41.408 203.874 41.27 204.066 41.102C204.27 40.934 204.372 40.748 204.372 40.544C204.372 40.316 204.282 40.13 204.102 39.986C203.922 39.854 203.598 39.788 203.13 39.788H200.088C199.8 39.788 199.56 39.86 199.368 40.004C199.188 40.148 199.098 40.346 199.098 40.598C199.098 40.934 199.32 41.198 199.764 41.39C200.22 41.582 200.844 41.678 201.636 41.678ZM201.654 30.32C202.494 30.32 203.22 30.446 203.832 30.698C204.456 30.938 204.93 31.286 205.254 31.742C205.59 32.198 205.758 32.744 205.758 33.38C205.758 34.004 205.59 34.544 205.254 35C204.93 35.456 204.456 35.81 203.832 36.062C203.22 36.302 202.494 36.422 201.654 36.422C200.322 36.422 199.302 36.152 198.594 35.612C197.898 35.06 197.55 34.316 197.55 33.38C197.55 32.744 197.712 32.198 198.036 31.742C198.372 31.286 198.846 30.938 199.458 30.698C200.07 30.446 200.802 30.32 201.654 30.32ZM201.654 31.868C201.174 31.868 200.778 32 200.466 32.264C200.154 32.528 199.998 32.894 199.998 33.362C199.998 33.83 200.154 34.202 200.466 34.478C200.778 34.742 201.174 34.874 201.654 34.874C202.134 34.874 202.524 34.742 202.824 34.478C203.136 34.202 203.292 33.83 203.292 33.362C203.292 32.894 203.136 32.528 202.824 32.264C202.524 32 202.134 31.868 201.654 31.868Z" fill="white"/>
<circle cx="239" cy="33" r="12" fill="white"/>
<path d="M233 27L239 33V27H233Z" fill="#B31232"/>
<path d="M233 39L239 33V39H233Z" fill="#B31232"/>
<path d="M245 33L239 39V33H245Z" fill="#B31232"/>
<path d="M245 33L239 27V33H245Z" fill="#B31232"/>
<rect width="328" height="54" rx="12" fill="url(#paint0_linear_23916_5748)"/>
<path d="M145.277 24.032V33.5H143.153V24.032H141.965V22.304H147.023V24.032H145.277ZM137.771 22.124C138.503 22.124 139.097 22.25 139.553 22.502C140.021 22.742 140.357 23.072 140.561 23.492C140.777 23.9 140.885 24.356 140.885 24.86C140.885 25.76 140.531 26.486 139.823 27.038C139.127 27.59 138.053 27.92 136.601 28.028L136.277 26.39C136.961 26.318 137.483 26.222 137.843 26.102C138.215 25.97 138.473 25.808 138.617 25.616C138.761 25.424 138.833 25.196 138.833 24.932C138.833 24.596 138.719 24.338 138.491 24.158C138.275 23.978 137.963 23.888 137.555 23.888C137.183 23.888 136.811 23.942 136.439 24.05C136.067 24.158 135.695 24.32 135.323 24.536L134.729 22.88C135.161 22.64 135.629 22.454 136.133 22.322C136.649 22.19 137.195 22.124 137.771 22.124ZM141.173 29.576C141.173 30.5 140.867 31.226 140.255 31.754C139.655 32.27 138.857 32.528 137.861 32.528C137.093 32.528 136.397 32.372 135.773 32.06C135.161 31.736 134.591 31.202 134.063 30.458C133.535 29.714 133.013 28.694 132.497 27.398L134.207 26.606C134.723 27.998 135.245 29.036 135.773 29.72C136.301 30.404 136.919 30.746 137.627 30.746C138.095 30.746 138.467 30.626 138.743 30.386C139.019 30.146 139.157 29.798 139.157 29.342C139.157 28.898 138.995 28.502 138.671 28.154C138.347 27.794 137.945 27.476 137.465 27.2L138.473 26.804L139.535 26.732C139.715 26.864 139.895 27.02 140.075 27.2C140.267 27.38 140.423 27.566 140.543 27.758L140.723 28.082C140.867 28.298 140.975 28.532 141.047 28.784C141.131 29.036 141.173 29.3 141.173 29.576ZM141.371 27.164C141.815 27.164 142.259 27.122 142.703 27.038C143.147 26.942 143.591 26.786 144.035 26.57L144.107 28.37C143.735 28.538 143.357 28.658 142.973 28.73C142.589 28.802 142.199 28.838 141.803 28.838C141.443 28.838 141.077 28.808 140.705 28.748C140.333 28.676 139.985 28.592 139.661 28.496L139.355 27.182L139.517 26.93C139.793 27.002 140.087 27.062 140.399 27.11C140.723 27.146 141.047 27.164 141.371 27.164ZM149.987 22.124C150.767 22.124 151.391 22.256 151.859 22.52C152.327 22.784 152.663 23.168 152.867 23.672C153.083 24.164 153.191 24.752 153.191 25.436V27.632H156.395V24.032H154.433V22.304H160.247V24.032H158.519V33.5H156.395V29.378H153.191V29.81C153.191 30.266 153.089 30.602 152.885 30.818C152.681 31.022 152.411 31.124 152.075 31.124C151.799 31.124 151.511 31.04 151.211 30.872C150.923 30.704 150.653 30.494 150.401 30.242C150.161 29.978 149.963 29.702 149.807 29.414C149.663 29.114 149.591 28.832 149.591 28.568C149.591 28.4 149.627 28.244 149.699 28.1C149.771 27.956 149.903 27.842 150.095 27.758C150.287 27.674 150.551 27.632 150.887 27.632L151.139 27.722V25.364C151.139 24.776 151.055 24.338 150.887 24.05C150.719 23.762 150.431 23.618 150.023 23.618C149.735 23.618 149.513 23.69 149.357 23.834C149.213 23.978 149.141 24.164 149.141 24.392C149.141 24.668 149.243 24.878 149.447 25.022C149.663 25.166 149.987 25.262 150.419 25.31L150.221 26.768C149.345 26.72 148.631 26.492 148.079 26.084C147.539 25.676 147.269 25.106 147.269 24.374C147.269 23.618 147.521 23.054 148.025 22.682C148.541 22.31 149.195 22.124 149.987 22.124ZM155.896 22.43C155.704 22.046 155.56 21.662 155.464 21.278C155.368 20.894 155.32 20.528 155.32 20.18C155.32 19.34 155.59 18.662 156.13 18.146C156.67 17.63 157.426 17.372 158.398 17.372C159.346 17.372 160.12 17.582 160.72 18.002C161.332 18.41 161.824 18.992 162.196 19.748C162.58 20.504 162.886 21.398 163.114 22.43H161.17C160.93 21.326 160.612 20.498 160.216 19.946C159.832 19.382 159.346 19.1 158.758 19.1C158.302 19.1 157.966 19.232 157.75 19.496C157.534 19.748 157.426 20.096 157.426 20.54C157.426 20.852 157.48 21.17 157.588 21.494C157.684 21.806 157.81 22.118 157.966 22.43H155.896ZM163.276 24.032V33.5H161.17V24.032H159.694V22.304H165.004V24.032H163.276ZM174.861 24.032L175.095 23.654C175.227 23.894 175.329 24.17 175.401 24.482C175.485 24.794 175.527 25.16 175.527 25.58C175.527 26.504 175.299 27.266 174.843 27.866C174.387 28.454 173.715 28.94 172.827 29.324L172.881 29.108C173.265 29.66 173.721 30.128 174.249 30.512C174.777 30.896 175.377 31.19 176.049 31.394C176.721 31.598 177.459 31.7 178.263 31.7C178.971 31.7 179.631 31.628 180.243 31.484C180.867 31.328 181.455 31.094 182.007 30.782L182.313 32.258C181.785 32.654 181.185 32.948 180.513 33.14C179.841 33.332 179.055 33.428 178.155 33.428C177.159 33.428 176.247 33.296 175.419 33.032C174.603 32.768 173.877 32.414 173.241 31.97C172.605 31.514 172.065 31.01 171.621 30.458C171.201 29.93 170.877 29.42 170.649 28.928C170.421 28.436 170.307 27.98 170.307 27.56C170.307 27.176 170.415 26.882 170.631 26.678C170.859 26.474 171.153 26.372 171.513 26.372C171.861 26.372 172.179 26.474 172.467 26.678C172.767 26.87 173.091 27.17 173.439 27.578H172.359C172.635 27.434 172.845 27.248 172.989 27.02C173.145 26.792 173.253 26.54 173.313 26.264C173.373 25.988 173.403 25.712 173.403 25.436C173.403 25.088 173.367 24.752 173.295 24.428C173.235 24.092 173.127 23.81 172.971 23.582L173.871 24.032H169.659V22.304H178.353V24.032H174.861ZM183.555 24.032V33.5H181.449V24.032H177.723V22.304H185.283V24.032H183.555ZM182.025 29.738C181.713 29.954 181.365 30.128 180.981 30.26C180.597 30.392 180.129 30.458 179.577 30.458C178.917 30.458 178.341 30.35 177.849 30.134C177.357 29.906 176.973 29.588 176.697 29.18C176.433 28.76 176.301 28.274 176.301 27.722C176.301 26.87 176.577 26.216 177.129 25.76C177.693 25.292 178.485 25.058 179.505 25.058C179.757 25.058 180.003 25.076 180.243 25.112C180.483 25.136 180.705 25.172 180.909 25.22L180.783 26.75C180.615 26.702 180.447 26.672 180.279 26.66C180.123 26.636 179.955 26.624 179.775 26.624C179.283 26.624 178.911 26.72 178.659 26.912C178.407 27.104 178.281 27.392 178.281 27.776C178.281 28.16 178.413 28.448 178.677 28.64C178.953 28.82 179.301 28.91 179.721 28.91C180.201 28.91 180.621 28.808 180.981 28.604C181.341 28.4 181.617 28.13 181.809 27.794L182.025 29.738ZM181.194 22.43C180.978 21.734 180.786 21.17 180.618 20.738C180.438 20.306 180.264 19.976 180.096 19.748C179.928 19.52 179.748 19.364 179.556 19.28C179.352 19.184 179.112 19.136 178.836 19.136C178.608 19.136 178.374 19.166 178.134 19.226C177.882 19.274 177.648 19.34 177.432 19.424L176.91 17.714C177.198 17.606 177.516 17.522 177.864 17.462C178.2 17.402 178.536 17.372 178.872 17.372C179.412 17.372 179.88 17.45 180.276 17.606C180.66 17.75 181.008 18.014 181.32 18.398C181.62 18.77 181.908 19.286 182.184 19.946C182.448 20.594 182.736 21.422 183.048 22.43H181.194ZM184.422 24.032V22.304H197.562V24.032H195.816V33.5H193.71V26.876L194.736 27.74C194.544 27.656 194.352 27.602 194.16 27.578C193.98 27.554 193.8 27.542 193.62 27.542C193.26 27.542 192.942 27.632 192.666 27.812C192.39 27.98 192.156 28.262 191.964 28.658C191.784 29.054 191.646 29.576 191.55 30.224L189.516 29.72C189.672 28.436 190.098 27.47 190.794 26.822C191.49 26.174 192.402 25.85 193.53 25.85C193.77 25.85 194.022 25.868 194.286 25.904C194.562 25.94 194.778 25.982 194.934 26.03L194.988 26.426L193.71 26.084V24.032H184.422ZM190.452 28.424C190.248 28.172 190.008 27.968 189.732 27.812C189.468 27.644 189.144 27.56 188.76 27.56C188.28 27.56 187.902 27.704 187.626 27.992C187.362 28.268 187.23 28.64 187.23 29.108C187.23 29.696 187.458 30.236 187.914 30.728C188.382 31.208 189.15 31.73 190.218 32.294L189.066 33.86C187.842 33.224 186.876 32.51 186.168 31.718C185.472 30.914 185.124 29.996 185.124 28.964C185.124 27.908 185.436 27.122 186.06 26.606C186.684 26.078 187.476 25.814 188.436 25.814C189.06 25.814 189.606 25.922 190.074 26.138C190.542 26.354 190.95 26.654 191.298 27.038L190.452 28.424ZM194.793 18.758C194.793 18.422 194.907 18.14 195.135 17.912C195.363 17.684 195.639 17.57 195.963 17.57C196.287 17.57 196.563 17.684 196.791 17.912C197.007 18.14 197.115 18.422 197.115 18.758C197.115 19.082 197.007 19.364 196.791 19.604C196.563 19.832 196.287 19.946 195.963 19.946C195.639 19.946 195.363 19.832 195.135 19.604C194.907 19.364 194.793 19.082 194.793 18.758ZM193.461 22.43C193.245 21.734 193.053 21.17 192.885 20.738C192.705 20.306 192.531 19.976 192.363 19.748C192.195 19.52 192.015 19.364 191.823 19.28C191.619 19.184 191.379 19.136 191.103 19.136C190.875 19.136 190.641 19.166 190.401 19.226C190.149 19.274 189.915 19.34 189.699 19.424L189.177 17.714C189.465 17.606 189.783 17.522 190.131 17.462C190.467 17.402 190.803 17.372 191.139 17.372C191.679 17.372 192.147 17.45 192.543 17.606C192.927 17.75 193.275 18.014 193.587 18.398C193.887 18.77 194.175 19.286 194.451 19.946C194.715 20.594 195.003 21.422 195.315 22.43H193.461Z" fill="white"/>
<defs>
<linearGradient id="paint0_linear_23916_5748" x1="0" y1="0" x2="164.679" y2="223.197" gradientUnits="userSpaceOnUse">
<stop stop-color="#B31232"/>
<stop offset="1" stop-color="#FF6B2C"/>
</linearGradient>
</defs>
</svg>
