<svg width="412" height="78" viewBox="0 0 412 78" fill="none" xmlns="http://www.w3.org/2000/svg">
<g filter="url(#filter0_d_24239_48857)">
<path d="M0 4H412V56C412 68.1503 402.15 78 390 78H22C9.84974 78 0 68.1503 0 56V4Z" fill="#1A090B" shape-rendering="crispEdges"/>
<path d="M51.4246 32.9004C50.2582 33.2847 49.2379 34.0177 48.5014 35.0004C47.7645 34.0175 46.7438 33.2845 45.577 32.9004C45.9104 32.4362 46.3495 32.058 46.858 31.7972C47.3665 31.5363 47.9298 31.4003 48.5014 31.4004C49.705 31.4004 50.7718 31.992 51.4246 32.9004ZM40.8526 42.4644C41.1867 40.8032 42.0524 39.2959 43.3189 38.1702C44.5853 37.0445 46.1837 36.3615 47.8726 36.2244C47.5188 35.6033 47.0307 35.0691 46.4441 34.6608C45.8575 34.2525 45.1871 33.9803 44.4818 33.8641C43.7765 33.748 43.0543 33.7908 42.3677 33.9895C41.6811 34.1882 41.0475 34.5377 40.5133 35.0125C39.979 35.4873 39.5575 36.0754 39.2796 36.7339C39.0017 37.3924 38.8743 38.1047 38.9068 38.8187C38.9393 39.5327 39.1309 40.2305 39.4675 40.861C39.8042 41.4915 40.2774 42.0389 40.8526 42.4632M56.149 42.4632C56.7242 42.0389 57.1974 41.4915 57.534 40.861C57.8706 40.2305 58.0622 39.5327 58.0947 38.8187C58.1272 38.1047 57.9999 37.3924 57.7219 36.7339C57.444 36.0754 57.0225 35.4873 56.4883 35.0125C55.954 34.5377 55.3205 34.1882 54.6339 33.9895C53.9473 33.7908 53.225 33.748 52.5197 33.8641C51.8145 33.9803 51.1441 34.2525 50.5574 34.6608C49.9708 35.0691 49.4828 35.6033 49.129 36.2244C50.8177 36.3614 52.4159 37.0443 53.6824 38.1697C54.9488 39.2952 55.8146 40.8023 56.149 42.4632ZM55.1002 44.0004C55.1002 45.7508 54.4048 47.4296 53.1671 48.6673C51.9293 49.905 50.2506 50.6004 48.5002 50.6004C46.7497 50.6004 45.071 49.905 43.8333 48.6673C42.5955 47.4296 41.9002 45.7508 41.9002 44.0004C41.9002 42.25 42.5955 40.5712 43.8333 39.3335C45.071 38.0957 46.7497 37.4004 48.5002 37.4004C50.2506 37.4004 51.9293 38.0957 53.1671 39.3335C54.4048 40.5712 55.1002 42.25 55.1002 44.0004ZM46.1002 41.6004C46.1002 41.7595 46.1634 41.9121 46.2759 42.0247C46.3884 42.1372 46.541 42.2004 46.7002 42.2004H49.3882C49.265 42.3764 49.137 42.5704 49.0042 42.7824C48.4246 43.7088 47.7706 44.9976 47.605 46.326C47.5932 46.4051 47.5973 46.4858 47.6171 46.5633C47.637 46.6408 47.6721 46.7135 47.7205 46.7772C47.7688 46.8409 47.8294 46.8943 47.8987 46.9343C47.968 46.9742 48.0446 46.9999 48.124 47.0098C48.2034 47.0198 48.2839 47.0137 48.3609 46.9921C48.4379 46.9704 48.5098 46.9335 48.5723 46.8837C48.6349 46.8338 48.6869 46.772 48.7252 46.7018C48.7635 46.6315 48.7873 46.5544 48.7954 46.4748C48.9298 45.4032 49.4758 44.292 50.0218 43.4184C50.328 42.9296 50.6659 42.4614 51.0334 42.0168L51.0478 42L51.0526 41.9952C51.1284 41.9084 51.1777 41.8015 51.1944 41.6875C51.2111 41.5734 51.1947 41.457 51.1469 41.352C51.0992 41.2471 51.0223 41.1581 50.9253 41.0957C50.8283 41.0334 50.7155 41.0003 50.6002 41.0004H46.7002C46.541 41.0004 46.3884 41.0636 46.2759 41.1761C46.1634 41.2886 46.1002 41.4413 46.1002 41.6004Z" fill="white"/>
<path d="M73.766 38.636V46H72.128V41.73H70.28C69.776 41.73 69.384 41.8233 69.104 42.01C68.8333 42.1967 68.698 42.4953 68.698 42.906C68.698 43.298 68.8287 43.6807 69.09 44.054C69.3513 44.418 69.734 44.838 70.238 45.314L69.048 46.28C68.4133 45.6547 67.9187 45.0667 67.564 44.516C67.2187 43.956 67.046 43.354 67.046 42.71C67.046 41.9167 67.3073 41.3333 67.83 40.96C68.362 40.5773 69.0993 40.386 70.042 40.386H72.128V38.636H66.5V37.292H75.124V38.636H73.766ZM77.4302 44.152C77.2249 44.152 77.0055 44.0867 76.7722 43.956C76.5482 43.8253 76.3382 43.662 76.1422 43.466C75.9462 43.2607 75.7875 43.046 75.6662 42.822C75.5449 42.5887 75.4842 42.3693 75.4842 42.164C75.4842 41.9773 75.5495 41.814 75.6802 41.674C75.8202 41.5247 76.0722 41.4453 76.4362 41.436H77.0102L76.6462 41.814V38.636H75.0082V37.292H80.4542V38.636H78.2982V41.436H81.1682V42.794H78.2982V43.13C78.2982 43.4847 78.2189 43.746 78.0602 43.914C77.9015 44.0727 77.6915 44.152 77.4302 44.152ZM88.476 38.636H87.132V46H85.48V43.368L85.97 43.816C85.6527 44.0867 85.284 44.2967 84.864 44.446C84.4533 44.586 83.9773 44.656 83.436 44.656C82.5027 44.656 81.7653 44.4273 81.224 43.97C80.6827 43.5033 80.412 42.8873 80.412 42.122C80.412 41.2727 80.6967 40.638 81.266 40.218C81.8353 39.798 82.5867 39.588 83.52 39.588C83.8093 39.588 84.0753 39.602 84.318 39.63C84.57 39.6487 84.808 39.686 85.032 39.742L84.906 40.988C84.7287 40.9507 84.5373 40.9227 84.332 40.904C84.136 40.876 83.9307 40.862 83.716 40.862C83.1653 40.862 82.736 40.9693 82.428 41.184C82.1293 41.3987 81.98 41.7207 81.98 42.15C81.98 42.5607 82.1153 42.8687 82.386 43.074C82.666 43.2793 83.03 43.382 83.478 43.382C83.814 43.382 84.122 43.326 84.402 43.214C84.6913 43.102 84.948 42.9573 85.172 42.78C85.396 42.5933 85.578 42.4067 85.718 42.22L85.48 43.116V38.636H79.866V37.292H88.476V38.636ZM82.89 40.218L85.298 43.27L84.528 43.872L81.896 40.568L82.89 40.218ZM91.1602 38.636V46H89.5222V38.636H88.3742V37.292H92.5042V38.636H91.1602ZM89.5642 37.39C89.3962 36.8487 89.2422 36.41 89.1022 36.074C88.9716 35.738 88.8409 35.4813 88.7102 35.304C88.5796 35.1267 88.4396 35.0053 88.2902 34.94C88.1316 34.8653 87.9449 34.828 87.7302 34.828C87.5529 34.828 87.3709 34.8513 87.1842 34.898C86.9882 34.9353 86.8062 34.9867 86.6382 35.052L86.2322 33.722C86.4562 33.638 86.7036 33.5727 86.9742 33.526C87.2356 33.4793 87.4969 33.456 87.7582 33.456C88.1782 33.456 88.5376 33.5167 88.8362 33.638C89.1442 33.75 89.4149 33.9553 89.6482 34.254C89.8909 34.5433 90.1149 34.9447 90.3202 35.458C90.5349 35.962 90.7636 36.606 91.0062 37.39H89.5642ZM92.4117 38.636V37.292H102.632V38.636H101.274V46H99.6357V40.848L100.434 41.52C100.284 41.4547 100.135 41.4127 99.9857 41.394C99.8457 41.3753 99.7057 41.366 99.5657 41.366C99.2857 41.366 99.0384 41.436 98.8237 41.576C98.6091 41.7067 98.4271 41.926 98.2777 42.234C98.1377 42.542 98.0304 42.948 97.9557 43.452L96.3737 43.06C96.4951 42.0613 96.8264 41.31 97.3677 40.806C97.9091 40.302 98.6184 40.05 99.4957 40.05C99.6824 40.05 99.8784 40.064 100.084 40.092C100.298 40.12 100.466 40.1527 100.588 40.19L100.63 40.498L99.6357 40.232V38.636H92.4117ZM97.1017 42.052C96.9431 41.856 96.7564 41.6973 96.5417 41.576C96.3364 41.4453 96.0844 41.38 95.7857 41.38C95.4124 41.38 95.1184 41.492 94.9037 41.716C94.6984 41.9307 94.5957 42.22 94.5957 42.584C94.5957 43.0413 94.7731 43.4613 95.1277 43.844C95.4917 44.2173 96.0891 44.6233 96.9197 45.062L96.0237 46.28C95.0717 45.7853 94.3204 45.23 93.7697 44.614C93.2284 43.9887 92.9577 43.2747 92.9577 42.472C92.9577 41.6507 93.2004 41.0393 93.6857 40.638C94.1711 40.2273 94.7871 40.022 95.5337 40.022C96.0191 40.022 96.4437 40.106 96.8077 40.274C97.1717 40.442 97.4891 40.6753 97.7597 40.974L97.1017 42.052ZM105.306 38.636V46H103.668V38.636H102.52V37.292H106.65V38.636H105.306Z" fill="white"/>
<rect x="152.5" y="19" width="98" height="44" rx="22" fill="url(#paint0_linear_24239_48857)"/>
<path d="M190.25 32.75H187.433C187.383 32.75 187.335 32.7302 187.3 32.6951C187.265 32.6599 187.245 32.6122 187.245 32.5625V31.9962C187.244 31.5991 187.086 31.2185 186.805 30.938C186.523 30.6575 186.142 30.5 185.745 30.5L175.255 30.5122C174.858 30.5129 174.478 30.6708 174.197 30.9514C173.917 31.2319 173.759 31.6121 173.758 32.0089V32.5625C173.758 32.6122 173.738 32.6599 173.703 32.6951C173.668 32.7302 173.62 32.75 173.57 32.75H170.75C170.551 32.75 170.36 32.829 170.22 32.9697C170.079 33.1103 170 33.3011 170 33.5V34.25C170 36.8061 171.406 39.5211 173.587 40.1258C173.651 40.1437 173.71 40.179 173.756 40.2278C173.801 40.2765 173.833 40.3369 173.847 40.4023C174.117 41.6628 174.95 42.8633 176.257 43.8528C177.237 44.5948 178.406 45.1419 179.457 45.3753C179.54 45.3939 179.614 45.4403 179.668 45.5067C179.721 45.5732 179.75 45.6558 179.75 45.7409V49.8125C179.75 49.8622 179.73 49.9099 179.695 49.9451C179.66 49.9802 179.612 50 179.562 50H176.771C176.367 50 176.021 50.3103 176.001 50.7139C175.996 50.8153 176.012 50.9167 176.047 51.0118C176.083 51.1069 176.137 51.1939 176.207 51.2674C176.277 51.3409 176.361 51.3994 176.455 51.4394C176.548 51.4794 176.648 51.5 176.75 51.5H184.229C184.632 51.5 184.979 51.1897 184.999 50.7861C185.004 50.6847 184.988 50.5833 184.953 50.4882C184.917 50.3931 184.863 50.3061 184.793 50.2326C184.723 50.1591 184.639 50.1006 184.545 50.0606C184.452 50.0206 184.352 50 184.25 50H181.438C181.388 50 181.34 49.9802 181.305 49.9451C181.27 49.9099 181.25 49.8622 181.25 49.8125V45.7409C181.25 45.6558 181.279 45.5732 181.332 45.5067C181.386 45.4403 181.46 45.3939 181.543 45.3753C182.594 45.1409 183.763 44.5948 184.743 43.8528C186.05 42.8633 186.882 41.6628 187.153 40.4023C187.167 40.3369 187.199 40.2765 187.244 40.2278C187.29 40.179 187.349 40.1437 187.413 40.1258C189.594 39.5211 191 36.8061 191 34.25V33.5C191 33.3011 190.921 33.1103 190.78 32.9697C190.64 32.829 190.449 32.75 190.25 32.75ZM173.75 38.2916C173.75 38.3244 173.741 38.3567 173.725 38.3851C173.708 38.4135 173.684 38.4371 173.656 38.4534C173.627 38.4698 173.595 38.4784 173.562 38.4784C173.529 38.4784 173.497 38.4697 173.469 38.4533C172.988 38.1669 172.637 37.7328 172.431 37.4272C171.873 36.598 171.54 35.5208 171.503 34.4445C171.502 34.4193 171.506 34.3942 171.515 34.3706C171.524 34.3471 171.538 34.3255 171.556 34.3074C171.573 34.2892 171.594 34.2748 171.617 34.2649C171.641 34.2551 171.666 34.25 171.691 34.25H173.566C173.616 34.25 173.663 34.2698 173.698 34.3049C173.734 34.3401 173.753 34.3878 173.753 34.4375C173.752 35.7242 173.75 37.197 173.75 38.2916ZM188.569 37.4272C188.363 37.7328 188.012 38.1669 187.531 38.4533C187.503 38.4697 187.47 38.4784 187.438 38.4784C187.405 38.4784 187.372 38.4698 187.344 38.4533C187.315 38.4369 187.292 38.4133 187.275 38.3848C187.259 38.3563 187.25 38.324 187.25 38.2911C187.25 37.0484 187.25 35.6366 187.248 34.4375C187.248 34.3878 187.267 34.3401 187.303 34.3049C187.338 34.2698 187.385 34.25 187.435 34.25H189.31C189.335 34.25 189.36 34.2551 189.384 34.2649C189.407 34.2748 189.428 34.2892 189.445 34.3074C189.463 34.3255 189.476 34.3471 189.485 34.3706C189.494 34.3942 189.499 34.4193 189.498 34.4445C189.461 35.5208 189.127 36.598 188.569 37.4272H188.569Z" fill="white"/>
<path d="M199.62 37.39C199.499 37.1753 199.396 36.9513 199.312 36.718C199.228 36.4753 199.186 36.2 199.186 35.892C199.186 35.136 199.48 34.5433 200.068 34.114C200.656 33.6753 201.463 33.456 202.49 33.456C203.507 33.456 204.445 33.6333 205.304 33.988C206.172 34.3333 206.951 34.8047 207.642 35.402C208.333 35.99 208.911 36.6527 209.378 37.39H207.726C207.269 36.8393 206.783 36.3727 206.27 35.99C205.757 35.6073 205.215 35.318 204.646 35.122C204.077 34.9167 203.479 34.814 202.854 34.814C202.201 34.814 201.701 34.94 201.356 35.192C201.011 35.4347 200.838 35.7753 200.838 36.214C200.838 36.466 200.88 36.69 200.964 36.886C201.048 37.0727 201.146 37.2407 201.258 37.39H199.62ZM201.286 38.636V46H199.648V38.636H198.5V37.292H202.63V38.636H201.286ZM210.938 38.636H209.594V46H207.956V43.354L208.488 43.69C208.198 43.9793 207.844 44.208 207.424 44.376C207.013 44.5347 206.546 44.614 206.024 44.614C205.445 44.614 204.932 44.516 204.484 44.32C204.045 44.124 203.699 43.8393 203.447 43.466C203.205 43.0927 203.083 42.64 203.083 42.108C203.083 41.2867 203.354 40.6707 203.895 40.26C204.437 39.84 205.16 39.63 206.065 39.63C206.345 39.63 206.602 39.644 206.836 39.672C207.078 39.7 207.297 39.7373 207.493 39.784L207.382 41.114C207.204 41.0767 207.022 41.0487 206.836 41.03C206.658 41.0113 206.467 41.002 206.261 41.002C205.795 41.002 205.421 41.1 205.141 41.296C204.871 41.492 204.735 41.7767 204.735 42.15C204.735 42.486 204.852 42.752 205.086 42.948C205.319 43.144 205.655 43.242 206.094 43.242C206.504 43.242 206.892 43.144 207.256 42.948C207.62 42.7427 207.9 42.472 208.096 42.136L207.956 43.102V38.636H202.537V37.292H210.938V38.636ZM220.473 38.636V46H218.821V41.226H217.491C217.248 41.226 217.038 41.2213 216.861 41.212C216.683 41.2027 216.548 41.184 216.455 41.156L215.867 40.68C216.371 40.9787 216.772 41.324 217.071 41.716C217.369 42.0987 217.519 42.542 217.519 43.046C217.519 43.4753 217.416 43.8393 217.211 44.138C217.015 44.4367 216.749 44.6607 216.413 44.81C216.086 44.9593 215.713 45.034 215.293 45.034C214.882 45.034 214.49 44.9593 214.117 44.81C213.743 44.6607 213.384 44.418 213.039 44.082C212.703 43.7367 212.381 43.2793 212.073 42.71C211.765 42.1313 211.461 41.4173 211.163 40.568L212.549 40.064C212.81 40.8573 213.071 41.52 213.333 42.052C213.603 42.584 213.883 42.9853 214.173 43.256C214.462 43.5267 214.761 43.662 215.069 43.662C215.311 43.662 215.512 43.5967 215.671 43.466C215.829 43.3353 215.909 43.116 215.909 42.808C215.909 42.4533 215.787 42.1267 215.545 41.828C215.302 41.52 214.985 41.24 214.593 40.988L215.041 39.91H218.821V38.636H210.841V37.292H221.817V38.636H220.473ZM218.956 37.39C218.788 36.8487 218.639 36.41 218.508 36.074C218.368 35.738 218.233 35.4813 218.102 35.304C217.972 35.1267 217.832 35.0053 217.682 34.94C217.524 34.8653 217.337 34.828 217.122 34.828C216.945 34.828 216.763 34.8513 216.576 34.898C216.38 34.9353 216.198 34.9867 216.03 35.052L215.624 33.722C215.848 33.638 216.096 33.5727 216.366 33.526C216.628 33.4793 216.889 33.456 217.15 33.456C217.57 33.456 217.934 33.5167 218.242 33.638C218.541 33.75 218.812 33.9553 219.054 34.254C219.288 34.5433 219.512 34.9447 219.726 35.458C219.932 35.962 220.156 36.606 220.398 37.39H218.956ZM229.066 38.636V46H227.428V41.73H225.58C225.076 41.73 224.684 41.8233 224.404 42.01C224.134 42.1967 223.998 42.4953 223.998 42.906C223.998 43.298 224.129 43.6807 224.39 44.054C224.652 44.418 225.034 44.838 225.538 45.314L224.348 46.28C223.714 45.6547 223.219 45.0667 222.864 44.516C222.519 43.956 222.346 43.354 222.346 42.71C222.346 41.9167 222.608 41.3333 223.13 40.96C223.662 40.5773 224.4 40.386 225.342 40.386H227.428V38.636H221.8V37.292H230.424V38.636H229.066ZM233.095 38.636V46H231.457V38.636H230.309V37.292H234.439V38.636H233.095Z" fill="white"/>
<path d="M308.5 31C302.977 31 298.5 35.477 298.5 41C298.5 46.523 302.977 51 308.5 51C314.023 51 318.5 46.523 318.5 41C318.5 35.477 314.023 31 308.5 31ZM309.5 47H307.5V45H309.5V47ZM309.5 42.859V44H307.5V42C307.5 41.7348 307.605 41.4804 307.793 41.2929C307.98 41.1054 308.235 41 308.5 41C309.603 41 310.5 40.103 310.5 39C310.5 37.897 309.603 37 308.5 37C307.397 37 306.5 37.897 306.5 39H304.5C304.5 37.9391 304.921 36.9217 305.672 36.1716C306.422 35.4214 307.439 35 308.5 35C309.561 35 310.578 35.4214 311.328 36.1716C312.079 36.9217 312.5 37.9391 312.5 39C312.499 39.8848 312.203 40.7441 311.66 41.4427C311.117 42.1412 310.357 42.6395 309.5 42.859Z" fill="white"/>
<path d="M337.994 38.636H333.444V41.366L333.248 41.058C333.453 40.862 333.701 40.7033 333.99 40.582C334.289 40.4607 334.625 40.4 334.998 40.4C335.707 40.4 336.263 40.61 336.664 41.03C337.075 41.4407 337.28 42.01 337.28 42.738C337.28 43.2047 337.191 43.6667 337.014 44.124C336.846 44.572 336.561 45.0387 336.16 45.524L334.732 44.712C335.012 44.404 335.231 44.096 335.39 43.788C335.558 43.4707 335.642 43.13 335.642 42.766C335.642 42.4207 335.563 42.164 335.404 41.996C335.245 41.8187 335.021 41.73 334.732 41.73C334.452 41.73 334.191 41.8187 333.948 41.996C333.715 42.164 333.528 42.3833 333.388 42.654L333.444 42.22V46H331.806V43.242L332.212 43.676C332.007 43.8627 331.783 44.026 331.54 44.166C331.307 44.2967 331.045 44.3993 330.756 44.474C330.476 44.5487 330.173 44.586 329.846 44.586C329.314 44.586 328.833 44.4927 328.404 44.306C327.984 44.11 327.653 43.83 327.41 43.466C327.167 43.0927 327.046 42.6353 327.046 42.094C327.046 41.31 327.307 40.7033 327.83 40.274C328.353 39.8447 329.081 39.63 330.014 39.63C330.257 39.63 330.49 39.644 330.714 39.672C330.938 39.6907 331.153 39.7233 331.358 39.77L331.218 41.114C331.069 41.0767 330.905 41.0487 330.728 41.03C330.551 41.0113 330.369 41.002 330.182 41.002C329.706 41.002 329.337 41.1 329.076 41.296C328.824 41.492 328.698 41.772 328.698 42.136C328.698 42.5 328.815 42.7753 329.048 42.962C329.281 43.1393 329.58 43.228 329.944 43.228C330.383 43.228 330.779 43.1067 331.134 42.864C331.489 42.6213 331.759 42.346 331.946 42.038L331.806 43.046V38.636H326.5V37.292H337.994V38.636ZM331.992 37.39C331.703 37.1007 331.46 36.886 331.264 36.746C331.068 36.5967 330.882 36.4987 330.704 36.452C330.527 36.4053 330.331 36.382 330.116 36.382C329.902 36.382 329.687 36.41 329.472 36.466C329.248 36.5127 329.038 36.578 328.842 36.662L328.422 35.542C328.646 35.4393 328.88 35.36 329.122 35.304C329.365 35.248 329.608 35.22 329.85 35.22C330.121 35.22 330.364 35.2527 330.578 35.318C330.784 35.3833 330.994 35.5 331.208 35.668C331.423 35.8267 331.675 36.0507 331.964 36.34L332.02 36.312C331.768 35.8453 331.544 35.4907 331.348 35.248C331.152 34.996 330.956 34.828 330.76 34.744C330.555 34.6507 330.322 34.604 330.06 34.604C329.892 34.604 329.724 34.6227 329.556 34.66C329.388 34.688 329.216 34.7347 329.038 34.8L328.66 33.666C328.847 33.6007 329.062 33.5493 329.304 33.512C329.538 33.4747 329.771 33.456 330.004 33.456C330.434 33.456 330.802 33.5167 331.11 33.638C331.418 33.7593 331.689 33.9693 331.922 34.268C332.156 34.5573 332.384 34.9587 332.608 35.472C332.832 35.976 333.075 36.6153 333.336 37.39H331.992ZM341.913 46.28C341.167 45.5333 340.537 44.8473 340.023 44.222C339.51 43.5967 339.132 43.0693 338.889 42.64C338.749 42.388 338.647 42.1593 338.581 41.954C338.516 41.7487 338.483 41.5527 338.483 41.366C338.483 41.0953 338.563 40.876 338.721 40.708C338.889 40.54 339.123 40.456 339.421 40.456C339.739 40.456 340.023 40.5587 340.275 40.764C340.537 40.9693 340.793 41.2213 341.045 41.52L340.079 41.394C340.453 41.2167 340.709 40.9833 340.849 40.694C340.989 40.3953 341.059 40.064 341.059 39.7C341.059 39.4013 341.022 39.1307 340.947 38.888C340.882 38.636 340.793 38.4353 340.681 38.286L341.507 38.636H337.979V37.292H344.111V38.636H341.997L342.375 38.3C342.478 38.524 342.557 38.7667 342.613 39.028C342.679 39.28 342.711 39.5647 342.711 39.882C342.711 40.2553 342.651 40.5913 342.529 40.89C342.408 41.1887 342.245 41.45 342.039 41.674L341.899 41.842C341.722 42.0287 341.517 42.1967 341.283 42.346C341.059 42.486 340.789 42.6167 340.471 42.738V42.528C340.695 42.8173 340.947 43.1113 341.227 43.41C341.507 43.7087 341.806 44.012 342.123 44.32C342.45 44.628 342.786 44.9407 343.131 45.258L341.913 46.28ZM343.845 42.808C343.453 42.808 343.038 42.7613 342.599 42.668C342.161 42.5747 341.731 42.4113 341.311 42.178L341.787 41.058C342.17 41.198 342.515 41.3007 342.823 41.366C343.131 41.422 343.472 41.45 343.845 41.45C344.219 41.45 344.578 41.4173 344.923 41.352C345.269 41.2867 345.619 41.1747 345.973 41.016V42.444C345.665 42.5653 345.334 42.6587 344.979 42.724C344.625 42.78 344.247 42.808 343.845 42.808ZM345.203 46V38.636H343.719V37.292H348.185V38.636H346.841V46H345.203ZM345.343 37.39C345.175 36.8487 345.026 36.41 344.895 36.074C344.755 35.738 344.62 35.4813 344.489 35.304C344.358 35.1267 344.218 35.0053 344.069 34.94C343.91 34.8653 343.724 34.828 343.509 34.828C343.332 34.828 343.15 34.8513 342.963 34.898C342.767 34.9353 342.585 34.9867 342.417 35.052L342.011 33.722C342.235 33.638 342.482 33.5727 342.753 33.526C343.014 33.4793 343.276 33.456 343.537 33.456C343.957 33.456 344.321 33.5167 344.629 33.638C344.928 33.75 345.198 33.9553 345.441 34.254C345.674 34.5433 345.898 34.9447 346.113 35.458C346.318 35.962 346.542 36.606 346.785 37.39H345.343ZM362.198 38.636V46H360.546V41.226H359.216C358.974 41.226 358.764 41.2213 358.586 41.212C358.409 41.2027 358.274 41.184 358.18 41.156L357.592 40.68C358.096 40.9787 358.498 41.324 358.796 41.716C359.095 42.0987 359.244 42.542 359.244 43.046C359.244 43.4753 359.142 43.8393 358.936 44.138C358.74 44.4367 358.474 44.6607 358.138 44.81C357.812 44.9593 357.438 45.034 357.018 45.034C356.608 45.034 356.216 44.9593 355.842 44.81C355.469 44.6607 355.11 44.418 354.764 44.082C354.428 43.7367 354.106 43.2793 353.798 42.71C353.49 42.1313 353.187 41.4173 352.888 40.568L354.274 40.064C354.536 40.8573 354.797 41.52 355.058 42.052C355.329 42.584 355.609 42.9853 355.898 43.256C356.188 43.5267 356.486 43.662 356.794 43.662C357.037 43.662 357.238 43.5967 357.396 43.466C357.555 43.3353 357.634 43.116 357.634 42.808C357.634 42.4533 357.513 42.1267 357.27 41.828C357.028 41.52 356.71 41.24 356.318 40.988L356.766 39.91H360.546V38.636H352.566V37.292H363.542V38.636H362.198ZM360.472 37.39C360.323 37.0913 360.211 36.7927 360.136 36.494C360.062 36.1953 360.024 35.9107 360.024 35.64C360.024 34.9867 360.234 34.4593 360.654 34.058C361.074 33.6567 361.662 33.456 362.418 33.456C363.156 33.456 363.758 33.6193 364.224 33.946C364.7 34.2633 365.083 34.716 365.372 35.304C365.671 35.892 365.909 36.5873 366.086 37.39H364.574C364.388 36.5313 364.14 35.8873 363.832 35.458C363.534 35.0193 363.156 34.8 362.698 34.8C362.344 34.8 362.082 34.9027 361.914 35.108C361.746 35.304 361.662 35.5747 361.662 35.92C361.662 36.1627 361.704 36.41 361.788 36.662C361.863 36.9047 361.961 37.1473 362.082 37.39H360.472ZM366.212 38.636V46H364.574V38.636H363.426V37.292H367.556V38.636H366.212ZM374.73 38.636V46H373.092V41.73H371.244C370.74 41.73 370.348 41.8233 370.068 42.01C369.797 42.1967 369.662 42.4953 369.662 42.906C369.662 43.298 369.792 43.6807 370.054 44.054C370.315 44.418 370.698 44.838 371.202 45.314L370.012 46.28C369.377 45.6547 368.882 45.0667 368.528 44.516C368.182 43.956 368.01 43.354 368.01 42.71C368.01 41.9167 368.271 41.3333 368.794 40.96C369.326 40.5773 370.063 40.386 371.006 40.386H373.092V38.636H367.464V37.292H376.088V38.636H374.73ZM374.264 34.534C374.264 34.2727 374.353 34.0533 374.53 33.876C374.707 33.6987 374.922 33.61 375.174 33.61C375.426 33.61 375.641 33.6987 375.818 33.876C375.986 34.0533 376.07 34.2727 376.07 34.534C376.07 34.786 375.986 35.0053 375.818 35.192C375.641 35.3693 375.426 35.458 375.174 35.458C374.922 35.458 374.707 35.3693 374.53 35.192C374.353 35.0053 374.264 34.786 374.264 34.534ZM373.228 37.39C373.06 36.8487 372.911 36.41 372.78 36.074C372.64 35.738 372.505 35.4813 372.374 35.304C372.243 35.1267 372.103 35.0053 371.954 34.94C371.795 34.8653 371.609 34.828 371.394 34.828C371.217 34.828 371.035 34.8513 370.848 34.898C370.652 34.9353 370.47 34.9867 370.302 35.052L369.896 33.722C370.12 33.638 370.367 33.5727 370.638 33.526C370.899 33.4793 371.161 33.456 371.422 33.456C371.842 33.456 372.206 33.5167 372.514 33.638C372.813 33.75 373.083 33.9553 373.326 34.254C373.559 34.5433 373.783 34.9447 373.998 35.458C374.203 35.962 374.427 36.606 374.67 37.39H373.228Z" fill="white"/>
</g>
<defs>
<filter id="filter0_d_24239_48857" x="-4" y="0" width="420" height="82" filterUnits="userSpaceOnUse" color-interpolation-filters="sRGB">
<feFlood flood-opacity="0" result="BackgroundImageFix"/>
<feColorMatrix in="SourceAlpha" type="matrix" values="0 0 0 0 0 0 0 0 0 0 0 0 0 0 0 0 0 0 127 0" result="hardAlpha"/>
<feOffset/>
<feGaussianBlur stdDeviation="2"/>
<feComposite in2="hardAlpha" operator="out"/>
<feColorMatrix type="matrix" values="0 0 0 0 1 0 0 0 0 1 0 0 0 0 1 0 0 0 0.2 0"/>
<feBlend mode="normal" in2="BackgroundImageFix" result="effect1_dropShadow_24239_48857"/>
<feBlend mode="normal" in="SourceGraphic" in2="effect1_dropShadow_24239_48857" result="shape"/>
</filter>
<linearGradient id="paint0_linear_24239_48857" x1="152.5" y1="41" x2="250.5" y2="41" gradientUnits="userSpaceOnUse">
<stop stop-color="#B31232"/>
<stop offset="1" stop-color="#FF6B2C"/>
</linearGradient>
</defs>
</svg>
