<svg width="412" height="74" viewBox="0 843 412 74" fill="none" xmlns="http://www.w3.org/2000/svg">
<path d="M0 843H412V917H0V843Z" fill="#1A1A1A"/>
<path d="M51.9241 871.9C50.7577 872.285 49.7374 873.018 49.0009 874C48.264 873.018 47.2433 872.285 46.0765 871.9C46.4099 871.436 46.849 871.058 47.3575 870.797C47.866 870.536 48.4294 870.4 49.0009 870.4C50.2045 870.4 51.2713 870.992 51.9241 871.9ZM41.3521 881.464C41.6862 879.803 42.5519 878.296 43.8184 877.17C45.0848 876.044 46.6832 875.361 48.3721 875.224C48.0183 874.603 47.5302 874.069 46.9436 873.661C46.357 873.252 45.6866 872.98 44.9813 872.864C44.2761 872.748 43.5538 872.791 42.8672 872.99C42.1806 873.188 41.547 873.538 41.0128 874.012C40.4785 874.487 40.057 875.075 39.7791 875.734C39.5012 876.392 39.3738 877.105 39.4063 877.819C39.4389 878.533 39.6304 879.23 39.967 879.861C40.3037 880.492 40.7769 881.039 41.3521 881.463M56.6485 881.463C57.2237 881.039 57.6969 880.492 58.0335 879.861C58.3701 879.23 58.5617 878.533 58.5942 877.819C58.6267 877.105 58.4994 876.392 58.2215 875.734C57.9435 875.075 57.5221 874.487 56.9878 874.012C56.4535 873.538 55.82 873.188 55.1334 872.99C54.4468 872.791 53.7245 872.748 53.0192 872.864C52.314 872.98 51.6436 873.252 51.0569 873.661C50.4703 874.069 49.9823 874.603 49.6285 875.224C51.3172 875.361 52.9155 876.044 54.1819 877.17C55.4483 878.295 56.3141 879.802 56.6485 881.463ZM55.5997 883C55.5997 884.751 54.9043 886.43 53.6666 887.667C52.4288 888.905 50.7501 889.6 48.9997 889.6C47.2492 889.6 45.5705 888.905 44.3328 887.667C43.095 886.43 42.3997 884.751 42.3997 883C42.3997 881.25 43.095 879.571 44.3328 878.333C45.5705 877.096 47.2492 876.4 48.9997 876.4C50.7501 876.4 52.4288 877.096 53.6666 878.333C54.9043 879.571 55.5997 881.25 55.5997 883ZM46.5997 880.6C46.5997 880.76 46.6629 880.912 46.7754 881.025C46.8879 881.137 47.0405 881.2 47.1997 881.2H49.8877C49.7645 881.376 49.6365 881.57 49.5037 881.782C48.9241 882.709 48.2701 883.998 48.1045 885.326C48.0927 885.405 48.0968 885.486 48.1167 885.563C48.1365 885.641 48.1716 885.713 48.22 885.777C48.2683 885.841 48.3289 885.894 48.3982 885.934C48.4675 885.974 48.5441 886 48.6235 886.01C48.7029 886.02 48.7834 886.014 48.8604 885.992C48.9374 885.97 49.0093 885.934 49.0719 885.884C49.1344 885.834 49.1864 885.772 49.2247 885.702C49.263 885.632 49.2868 885.554 49.2949 885.475C49.4293 884.403 49.9753 883.292 50.5213 882.418C50.8275 881.93 51.1654 881.461 51.5329 881.017L51.5473 881L51.5521 880.995C51.6279 880.908 51.6772 880.802 51.6939 880.687C51.7106 880.573 51.6942 880.457 51.6464 880.352C51.5987 880.247 51.5218 880.158 51.4248 880.096C51.3278 880.033 51.215 880 51.0997 880H47.1997C47.0405 880 46.8879 880.064 46.7754 880.176C46.6629 880.289 46.5997 880.441 46.5997 880.6Z" fill="white"/>
<path d="M74.266 877.136V884.5H72.628V880.23H70.78C70.276 880.23 69.884 880.323 69.604 880.51C69.3333 880.697 69.198 880.995 69.198 881.406C69.198 881.798 69.3287 882.181 69.59 882.554C69.8513 882.918 70.234 883.338 70.738 883.814L69.548 884.78C68.9133 884.155 68.4187 883.567 68.064 883.016C67.7187 882.456 67.546 881.854 67.546 881.21C67.546 880.417 67.8073 879.833 68.33 879.46C68.862 879.077 69.5993 878.886 70.542 878.886H72.628V877.136H67V875.792H75.624V877.136H74.266ZM77.9302 882.652C77.7249 882.652 77.5055 882.587 77.2722 882.456C77.0482 882.325 76.8382 882.162 76.6422 881.966C76.4462 881.761 76.2875 881.546 76.1662 881.322C76.0449 881.089 75.9842 880.869 75.9842 880.664C75.9842 880.477 76.0495 880.314 76.1802 880.174C76.3202 880.025 76.5722 879.945 76.9362 879.936H77.5102L77.1462 880.314V877.136H75.5082V875.792H80.9542V877.136H78.7982V879.936H81.6682V881.294H78.7982V881.63C78.7982 881.985 78.7189 882.246 78.5602 882.414C78.4015 882.573 78.1915 882.652 77.9302 882.652ZM88.976 877.136H87.632V884.5H85.98V881.868L86.47 882.316C86.1527 882.587 85.784 882.797 85.364 882.946C84.9533 883.086 84.4773 883.156 83.936 883.156C83.0027 883.156 82.2653 882.927 81.724 882.47C81.1827 882.003 80.912 881.387 80.912 880.622C80.912 879.773 81.1967 879.138 81.766 878.718C82.3353 878.298 83.0867 878.088 84.02 878.088C84.3093 878.088 84.5753 878.102 84.818 878.13C85.07 878.149 85.308 878.186 85.532 878.242L85.406 879.488C85.2287 879.451 85.0373 879.423 84.832 879.404C84.636 879.376 84.4307 879.362 84.216 879.362C83.6653 879.362 83.236 879.469 82.928 879.684C82.6293 879.899 82.48 880.221 82.48 880.65C82.48 881.061 82.6153 881.369 82.886 881.574C83.166 881.779 83.53 881.882 83.978 881.882C84.314 881.882 84.622 881.826 84.902 881.714C85.1913 881.602 85.448 881.457 85.672 881.28C85.896 881.093 86.078 880.907 86.218 880.72L85.98 881.616V877.136H80.366V875.792H88.976V877.136ZM83.39 878.718L85.798 881.77L85.028 882.372L82.396 879.068L83.39 878.718ZM91.6602 877.136V884.5H90.0222V877.136H88.8742V875.792H93.0042V877.136H91.6602ZM90.0642 875.89C89.8962 875.349 89.7422 874.91 89.6022 874.574C89.4716 874.238 89.3409 873.981 89.2102 873.804C89.0796 873.627 88.9396 873.505 88.7902 873.44C88.6316 873.365 88.4449 873.328 88.2302 873.328C88.0529 873.328 87.8709 873.351 87.6842 873.398C87.4882 873.435 87.3062 873.487 87.1382 873.552L86.7322 872.222C86.9562 872.138 87.2036 872.073 87.4742 872.026C87.7356 871.979 87.9969 871.956 88.2582 871.956C88.6782 871.956 89.0376 872.017 89.3362 872.138C89.6442 872.25 89.9149 872.455 90.1482 872.754C90.3909 873.043 90.6149 873.445 90.8202 873.958C91.0349 874.462 91.2636 875.106 91.5062 875.89H90.0642ZM92.9117 877.136V875.792H103.132V877.136H101.774V884.5H100.136V879.348L100.934 880.02C100.784 879.955 100.635 879.913 100.486 879.894C100.346 879.875 100.206 879.866 100.066 879.866C99.7857 879.866 99.5384 879.936 99.3237 880.076C99.1091 880.207 98.9271 880.426 98.7777 880.734C98.6377 881.042 98.5304 881.448 98.4557 881.952L96.8737 881.56C96.9951 880.561 97.3264 879.81 97.8677 879.306C98.4091 878.802 99.1184 878.55 99.9957 878.55C100.182 878.55 100.378 878.564 100.584 878.592C100.798 878.62 100.966 878.653 101.088 878.69L101.13 878.998L100.136 878.732V877.136H92.9117ZM97.6017 880.552C97.4431 880.356 97.2564 880.197 97.0417 880.076C96.8364 879.945 96.5844 879.88 96.2857 879.88C95.9124 879.88 95.6184 879.992 95.4037 880.216C95.1984 880.431 95.0957 880.72 95.0957 881.084C95.0957 881.541 95.2731 881.961 95.6277 882.344C95.9917 882.717 96.5891 883.123 97.4197 883.562L96.5237 884.78C95.5717 884.285 94.8204 883.73 94.2697 883.114C93.7284 882.489 93.4577 881.775 93.4577 880.972C93.4577 880.151 93.7004 879.539 94.1857 879.138C94.6711 878.727 95.2871 878.522 96.0337 878.522C96.5191 878.522 96.9437 878.606 97.3077 878.774C97.6717 878.942 97.9891 879.175 98.2597 879.474L97.6017 880.552ZM105.806 877.136V884.5H104.168V877.136H103.02V875.792H107.15V877.136H105.806Z" fill="white"/>
<rect x="153" y="858" width="98" height="44" rx="22" fill="url(#paint2_linear_24322_9876)"/>
<path d="M190.75 871.75H187.933C187.883 871.75 187.835 871.73 187.8 871.695C187.765 871.66 187.745 871.612 187.745 871.562V870.996C187.744 870.599 187.586 870.219 187.305 869.938C187.023 869.658 186.642 869.5 186.245 869.5L175.755 869.512C175.358 869.513 174.978 869.671 174.697 869.951C174.417 870.232 174.259 870.612 174.258 871.009V871.562C174.258 871.612 174.238 871.66 174.203 871.695C174.168 871.73 174.12 871.75 174.07 871.75H171.25C171.051 871.75 170.86 871.829 170.72 871.97C170.579 872.11 170.5 872.301 170.5 872.5V873.25C170.5 875.806 171.906 878.521 174.087 879.126C174.151 879.144 174.21 879.179 174.256 879.228C174.301 879.277 174.333 879.337 174.347 879.402C174.617 880.663 175.45 881.863 176.757 882.853C177.737 883.595 178.906 884.142 179.957 884.375C180.04 884.394 180.114 884.44 180.168 884.507C180.221 884.573 180.25 884.656 180.25 884.741V888.812C180.25 888.862 180.23 888.91 180.195 888.945C180.16 888.98 180.112 889 180.062 889H177.271C176.867 889 176.521 889.31 176.501 889.714C176.496 889.815 176.512 889.917 176.547 890.012C176.583 890.107 176.637 890.194 176.707 890.267C176.777 890.341 176.861 890.399 176.955 890.439C177.048 890.479 177.148 890.5 177.25 890.5H184.729C185.132 890.5 185.479 890.19 185.499 889.786C185.504 889.685 185.488 889.583 185.453 889.488C185.417 889.393 185.363 889.306 185.293 889.233C185.223 889.159 185.139 889.101 185.045 889.061C184.952 889.021 184.852 889 184.75 889H181.938C181.888 889 181.84 888.98 181.805 888.945C181.77 888.91 181.75 888.862 181.75 888.812V884.741C181.75 884.656 181.779 884.573 181.832 884.507C181.886 884.44 181.96 884.394 182.043 884.375C183.094 884.141 184.263 883.595 185.243 882.853C186.55 881.863 187.382 880.663 187.653 879.402C187.667 879.337 187.699 879.277 187.744 879.228C187.79 879.179 187.849 879.144 187.913 879.126C190.094 878.521 191.5 875.806 191.5 873.25V872.5C191.5 872.301 191.421 872.11 191.28 871.97C191.14 871.829 190.949 871.75 190.75 871.75ZM174.25 877.292C174.25 877.324 174.241 877.357 174.225 877.385C174.208 877.413 174.184 877.437 174.156 877.453C174.127 877.47 174.095 877.478 174.062 877.478C174.029 877.478 173.997 877.47 173.969 877.453C173.488 877.167 173.137 876.733 172.931 876.427C172.373 875.598 172.04 874.521 172.003 873.445C172.002 873.419 172.006 873.394 172.015 873.371C172.024 873.347 172.038 873.326 172.056 873.307C172.073 873.289 172.094 873.275 172.117 873.265C172.141 873.255 172.166 873.25 172.191 873.25H174.066C174.116 873.25 174.163 873.27 174.198 873.305C174.234 873.34 174.253 873.388 174.253 873.438C174.252 874.724 174.25 876.197 174.25 877.292ZM189.069 876.427C188.863 876.733 188.512 877.167 188.031 877.453C188.003 877.47 187.97 877.478 187.938 877.478C187.905 877.478 187.872 877.47 187.844 877.453C187.815 877.437 187.792 877.413 187.775 877.385C187.759 877.356 187.75 877.324 187.75 877.291C187.75 876.048 187.75 874.637 187.748 873.438C187.748 873.388 187.767 873.34 187.803 873.305C187.838 873.27 187.885 873.25 187.935 873.25H189.81C189.835 873.25 189.86 873.255 189.884 873.265C189.907 873.275 189.928 873.289 189.945 873.307C189.963 873.326 189.976 873.347 189.985 873.371C189.994 873.394 189.999 873.419 189.998 873.445C189.961 874.521 189.627 875.598 189.069 876.427H189.069Z" fill="white"/>
<path d="M200.12 875.89C199.999 875.675 199.896 875.451 199.812 875.218C199.728 874.975 199.686 874.7 199.686 874.392C199.686 873.636 199.98 873.043 200.568 872.614C201.156 872.175 201.963 871.956 202.99 871.956C204.007 871.956 204.945 872.133 205.804 872.488C206.672 872.833 207.451 873.305 208.142 873.902C208.833 874.49 209.411 875.153 209.878 875.89H208.226C207.769 875.339 207.283 874.873 206.77 874.49C206.257 874.107 205.715 873.818 205.146 873.622C204.577 873.417 203.979 873.314 203.354 873.314C202.701 873.314 202.201 873.44 201.856 873.692C201.511 873.935 201.338 874.275 201.338 874.714C201.338 874.966 201.38 875.19 201.464 875.386C201.548 875.573 201.646 875.741 201.758 875.89H200.12ZM201.786 877.136V884.5H200.148V877.136H199V875.792H203.13V877.136H201.786ZM211.438 877.136H210.094V884.5H208.456V881.854L208.988 882.19C208.698 882.479 208.344 882.708 207.924 882.876C207.513 883.035 207.046 883.114 206.524 883.114C205.945 883.114 205.432 883.016 204.984 882.82C204.545 882.624 204.199 882.339 203.947 881.966C203.705 881.593 203.583 881.14 203.583 880.608C203.583 879.787 203.854 879.171 204.395 878.76C204.937 878.34 205.66 878.13 206.565 878.13C206.845 878.13 207.102 878.144 207.336 878.172C207.578 878.2 207.797 878.237 207.993 878.284L207.882 879.614C207.704 879.577 207.522 879.549 207.336 879.53C207.158 879.511 206.967 879.502 206.761 879.502C206.295 879.502 205.921 879.6 205.641 879.796C205.371 879.992 205.235 880.277 205.235 880.65C205.235 880.986 205.352 881.252 205.586 881.448C205.819 881.644 206.155 881.742 206.594 881.742C207.004 881.742 207.392 881.644 207.756 881.448C208.12 881.243 208.4 880.972 208.596 880.636L208.456 881.602V877.136H203.037V875.792H211.438V877.136ZM220.973 877.136V884.5H219.321V879.726H217.991C217.748 879.726 217.538 879.721 217.361 879.712C217.183 879.703 217.048 879.684 216.955 879.656L216.367 879.18C216.871 879.479 217.272 879.824 217.571 880.216C217.869 880.599 218.019 881.042 218.019 881.546C218.019 881.975 217.916 882.339 217.711 882.638C217.515 882.937 217.249 883.161 216.913 883.31C216.586 883.459 216.213 883.534 215.793 883.534C215.382 883.534 214.99 883.459 214.617 883.31C214.243 883.161 213.884 882.918 213.539 882.582C213.203 882.237 212.881 881.779 212.573 881.21C212.265 880.631 211.961 879.917 211.663 879.068L213.049 878.564C213.31 879.357 213.571 880.02 213.833 880.552C214.103 881.084 214.383 881.485 214.673 881.756C214.962 882.027 215.261 882.162 215.569 882.162C215.811 882.162 216.012 882.097 216.171 881.966C216.329 881.835 216.409 881.616 216.409 881.308C216.409 880.953 216.287 880.627 216.045 880.328C215.802 880.02 215.485 879.74 215.093 879.488L215.541 878.41H219.321V877.136H211.341V875.792H222.317V877.136H220.973ZM219.456 875.89C219.288 875.349 219.139 874.91 219.008 874.574C218.868 874.238 218.733 873.981 218.602 873.804C218.472 873.627 218.332 873.505 218.182 873.44C218.024 873.365 217.837 873.328 217.622 873.328C217.445 873.328 217.263 873.351 217.076 873.398C216.88 873.435 216.698 873.487 216.53 873.552L216.124 872.222C216.348 872.138 216.596 872.073 216.866 872.026C217.128 871.979 217.389 871.956 217.65 871.956C218.07 871.956 218.434 872.017 218.742 872.138C219.041 872.25 219.312 872.455 219.554 872.754C219.788 873.043 220.012 873.445 220.226 873.958C220.432 874.462 220.656 875.106 220.898 875.89H219.456ZM229.566 877.136V884.5H227.928V880.23H226.08C225.576 880.23 225.184 880.323 224.904 880.51C224.634 880.697 224.498 880.995 224.498 881.406C224.498 881.798 224.629 882.181 224.89 882.554C225.152 882.918 225.534 883.338 226.038 883.814L224.848 884.78C224.214 884.155 223.719 883.567 223.364 883.016C223.019 882.456 222.846 881.854 222.846 881.21C222.846 880.417 223.108 879.833 223.63 879.46C224.162 879.077 224.9 878.886 225.842 878.886H227.928V877.136H222.3V875.792H230.924V877.136H229.566ZM233.595 877.136V884.5H231.957V877.136H230.809V875.792H234.939V877.136H233.595Z" fill="white"/>
<path d="M309 870C303.477 870 299 874.477 299 880C299 885.523 303.477 890 309 890C314.523 890 319 885.523 319 880C319 874.477 314.523 870 309 870ZM310 886H308V884H310V886ZM310 881.859V883H308V881C308 880.735 308.105 880.48 308.293 880.293C308.48 880.105 308.735 880 309 880C310.103 880 311 879.103 311 878C311 876.897 310.103 876 309 876C307.897 876 307 876.897 307 878H305C305 876.939 305.421 875.922 306.172 875.172C306.922 874.421 307.939 874 309 874C310.061 874 311.078 874.421 311.828 875.172C312.579 875.922 313 876.939 313 878C312.999 878.885 312.703 879.744 312.16 880.443C311.617 881.141 310.857 881.639 310 881.859Z" fill="white"/>
<path d="M338.494 877.136H333.944V879.866L333.748 879.558C333.953 879.362 334.201 879.203 334.49 879.082C334.789 878.961 335.125 878.9 335.498 878.9C336.207 878.9 336.763 879.11 337.164 879.53C337.575 879.941 337.78 880.51 337.78 881.238C337.78 881.705 337.691 882.167 337.514 882.624C337.346 883.072 337.061 883.539 336.66 884.024L335.232 883.212C335.512 882.904 335.731 882.596 335.89 882.288C336.058 881.971 336.142 881.63 336.142 881.266C336.142 880.921 336.063 880.664 335.904 880.496C335.745 880.319 335.521 880.23 335.232 880.23C334.952 880.23 334.691 880.319 334.448 880.496C334.215 880.664 334.028 880.883 333.888 881.154L333.944 880.72V884.5H332.306V881.742L332.712 882.176C332.507 882.363 332.283 882.526 332.04 882.666C331.807 882.797 331.545 882.899 331.256 882.974C330.976 883.049 330.673 883.086 330.346 883.086C329.814 883.086 329.333 882.993 328.904 882.806C328.484 882.61 328.153 882.33 327.91 881.966C327.667 881.593 327.546 881.135 327.546 880.594C327.546 879.81 327.807 879.203 328.33 878.774C328.853 878.345 329.581 878.13 330.514 878.13C330.757 878.13 330.99 878.144 331.214 878.172C331.438 878.191 331.653 878.223 331.858 878.27L331.718 879.614C331.569 879.577 331.405 879.549 331.228 879.53C331.051 879.511 330.869 879.502 330.682 879.502C330.206 879.502 329.837 879.6 329.576 879.796C329.324 879.992 329.198 880.272 329.198 880.636C329.198 881 329.315 881.275 329.548 881.462C329.781 881.639 330.08 881.728 330.444 881.728C330.883 881.728 331.279 881.607 331.634 881.364C331.989 881.121 332.259 880.846 332.446 880.538L332.306 881.546V877.136H327V875.792H338.494V877.136ZM332.492 875.89C332.203 875.601 331.96 875.386 331.764 875.246C331.568 875.097 331.382 874.999 331.204 874.952C331.027 874.905 330.831 874.882 330.616 874.882C330.402 874.882 330.187 874.91 329.972 874.966C329.748 875.013 329.538 875.078 329.342 875.162L328.922 874.042C329.146 873.939 329.38 873.86 329.622 873.804C329.865 873.748 330.108 873.72 330.35 873.72C330.621 873.72 330.864 873.753 331.078 873.818C331.284 873.883 331.494 874 331.708 874.168C331.923 874.327 332.175 874.551 332.464 874.84L332.52 874.812C332.268 874.345 332.044 873.991 331.848 873.748C331.652 873.496 331.456 873.328 331.26 873.244C331.055 873.151 330.822 873.104 330.56 873.104C330.392 873.104 330.224 873.123 330.056 873.16C329.888 873.188 329.716 873.235 329.538 873.3L329.16 872.166C329.347 872.101 329.562 872.049 329.804 872.012C330.038 871.975 330.271 871.956 330.504 871.956C330.934 871.956 331.302 872.017 331.61 872.138C331.918 872.259 332.189 872.469 332.422 872.768C332.656 873.057 332.884 873.459 333.108 873.972C333.332 874.476 333.575 875.115 333.836 875.89H332.492ZM342.413 884.78C341.667 884.033 341.037 883.347 340.523 882.722C340.01 882.097 339.632 881.569 339.389 881.14C339.249 880.888 339.147 880.659 339.081 880.454C339.016 880.249 338.983 880.053 338.983 879.866C338.983 879.595 339.063 879.376 339.221 879.208C339.389 879.04 339.623 878.956 339.921 878.956C340.239 878.956 340.523 879.059 340.775 879.264C341.037 879.469 341.293 879.721 341.545 880.02L340.579 879.894C340.953 879.717 341.209 879.483 341.349 879.194C341.489 878.895 341.559 878.564 341.559 878.2C341.559 877.901 341.522 877.631 341.447 877.388C341.382 877.136 341.293 876.935 341.181 876.786L342.007 877.136H338.479V875.792H344.611V877.136H342.497L342.875 876.8C342.978 877.024 343.057 877.267 343.113 877.528C343.179 877.78 343.211 878.065 343.211 878.382C343.211 878.755 343.151 879.091 343.029 879.39C342.908 879.689 342.745 879.95 342.539 880.174L342.399 880.342C342.222 880.529 342.017 880.697 341.783 880.846C341.559 880.986 341.289 881.117 340.971 881.238V881.028C341.195 881.317 341.447 881.611 341.727 881.91C342.007 882.209 342.306 882.512 342.623 882.82C342.95 883.128 343.286 883.441 343.631 883.758L342.413 884.78ZM344.345 881.308C343.953 881.308 343.538 881.261 343.099 881.168C342.661 881.075 342.231 880.911 341.811 880.678L342.287 879.558C342.67 879.698 343.015 879.801 343.323 879.866C343.631 879.922 343.972 879.95 344.345 879.95C344.719 879.95 345.078 879.917 345.423 879.852C345.769 879.787 346.119 879.675 346.473 879.516V880.944C346.165 881.065 345.834 881.159 345.479 881.224C345.125 881.28 344.747 881.308 344.345 881.308ZM345.703 884.5V877.136H344.219V875.792H348.685V877.136H347.341V884.5H345.703ZM345.843 875.89C345.675 875.349 345.526 874.91 345.395 874.574C345.255 874.238 345.12 873.981 344.989 873.804C344.858 873.627 344.718 873.505 344.569 873.44C344.41 873.365 344.224 873.328 344.009 873.328C343.832 873.328 343.65 873.351 343.463 873.398C343.267 873.435 343.085 873.487 342.917 873.552L342.511 872.222C342.735 872.138 342.982 872.073 343.253 872.026C343.514 871.979 343.776 871.956 344.037 871.956C344.457 871.956 344.821 872.017 345.129 872.138C345.428 872.25 345.698 872.455 345.941 872.754C346.174 873.043 346.398 873.445 346.613 873.958C346.818 874.462 347.042 875.106 347.285 875.89H345.843ZM362.056 877.136V884.5H360.404V879.726H359.074C358.831 879.726 358.621 879.721 358.444 879.712C358.266 879.703 358.131 879.684 358.038 879.656L357.45 879.18C357.954 879.479 358.355 879.824 358.654 880.216C358.952 880.599 359.102 881.042 359.102 881.546C359.102 881.975 358.999 882.339 358.794 882.638C358.598 882.937 358.332 883.161 357.996 883.31C357.669 883.459 357.296 883.534 356.876 883.534C356.465 883.534 356.073 883.459 355.7 883.31C355.326 883.161 354.967 882.918 354.622 882.582C354.286 882.237 353.964 881.779 353.656 881.21C353.348 880.631 353.044 879.917 352.746 879.068L354.132 878.564C354.393 879.357 354.654 880.02 354.916 880.552C355.186 881.084 355.466 881.485 355.756 881.756C356.045 882.027 356.344 882.162 356.652 882.162C356.894 882.162 357.095 882.097 357.254 881.966C357.412 881.835 357.492 881.616 357.492 881.308C357.492 880.953 357.37 880.627 357.128 880.328C356.885 880.02 356.568 879.74 356.176 879.488L356.624 878.41H360.404V877.136H352.424V875.792H363.4V877.136H362.056ZM360.33 875.89C360.18 875.591 360.068 875.293 359.994 874.994C359.919 874.695 359.882 874.411 359.882 874.14C359.882 873.487 360.092 872.959 360.512 872.558C360.932 872.157 361.52 871.956 362.276 871.956C363.013 871.956 363.615 872.119 364.082 872.446C364.558 872.763 364.94 873.216 365.23 873.804C365.528 874.392 365.766 875.087 365.944 875.89H364.432C364.245 875.031 363.998 874.387 363.69 873.958C363.391 873.519 363.013 873.3 362.556 873.3C362.201 873.3 361.94 873.403 361.772 873.608C361.604 873.804 361.52 874.075 361.52 874.42C361.52 874.663 361.562 874.91 361.646 875.162C361.72 875.405 361.818 875.647 361.94 875.89H360.33ZM366.07 877.136V884.5H364.432V877.136H363.284V875.792H367.414V877.136H366.07ZM374.587 877.136V884.5H372.949V880.23H371.101C370.597 880.23 370.205 880.323 369.925 880.51C369.654 880.697 369.519 880.995 369.519 881.406C369.519 881.798 369.65 882.181 369.911 882.554C370.172 882.918 370.555 883.338 371.059 883.814L369.869 884.78C369.234 884.155 368.74 883.567 368.385 883.016C368.04 882.456 367.867 881.854 367.867 881.21C367.867 880.417 368.128 879.833 368.651 879.46C369.183 879.077 369.92 878.886 370.863 878.886H372.949V877.136H367.321V875.792H375.945V877.136H374.587ZM374.121 873.034C374.121 872.773 374.21 872.553 374.387 872.376C374.565 872.199 374.779 872.11 375.031 872.11C375.283 872.11 375.498 872.199 375.675 872.376C375.843 872.553 375.927 872.773 375.927 873.034C375.927 873.286 375.843 873.505 375.675 873.692C375.498 873.869 375.283 873.958 375.031 873.958C374.779 873.958 374.565 873.869 374.387 873.692C374.21 873.505 374.121 873.286 374.121 873.034ZM373.085 875.89C372.917 875.349 372.768 874.91 372.637 874.574C372.497 874.238 372.362 873.981 372.231 873.804C372.101 873.627 371.961 873.505 371.811 873.44C371.653 873.365 371.466 873.328 371.251 873.328C371.074 873.328 370.892 873.351 370.705 873.398C370.509 873.435 370.327 873.487 370.159 873.552L369.753 872.222C369.977 872.138 370.225 872.073 370.495 872.026C370.757 871.979 371.018 871.956 371.279 871.956C371.699 871.956 372.063 872.017 372.371 872.138C372.67 872.25 372.941 872.455 373.183 872.754C373.417 873.043 373.641 873.445 373.855 873.958C374.061 874.462 374.285 875.106 374.527 875.89H373.085Z" fill="white"/>

<defs>
<linearGradient id="paint2_linear_24322_9876" x1="153" y1="880" x2="251" y2="880" gradientUnits="userSpaceOnUse">
<stop stop-color="#B31232"/>
<stop offset="1" stop-color="#FF6B2C"/>
</linearGradient>
</defs>
</svg>