<svg width="412" height="74" viewBox="0 0 412 74" fill="none" xmlns="http://www.w3.org/2000/svg">
<path d="M0 0H412V74H0V0Z" fill="#1A1A1A"/>
<rect x="17" y="15" width="102" height="44" rx="22" fill="url(#paint0_linear_24322_9524)"/>
<path d="M47.9241 28.9004C46.7577 29.2847 45.7374 30.0177 45.0009 31.0004C44.264 30.0175 43.2433 29.2845 42.0765 28.9004C42.4099 28.4362 42.849 28.058 43.3575 27.7972C43.866 27.5363 44.4294 27.4003 45.0009 27.4004C46.2045 27.4004 47.2713 27.992 47.9241 28.9004ZM37.3521 38.4644C37.6862 36.8032 38.5519 35.2959 39.8184 34.1702C41.0848 33.0445 42.6832 32.3615 44.3721 32.2244C44.0183 31.6033 43.5302 31.0691 42.9436 30.6608C42.357 30.2525 41.6866 29.9803 40.9813 29.8641C40.2761 29.748 39.5538 29.7908 38.8672 29.9895C38.1806 30.1882 37.547 30.5377 37.0128 31.0125C36.4785 31.4873 36.057 32.0754 35.7791 32.7339C35.5012 33.3924 35.3738 34.1047 35.4063 34.8187C35.4389 35.5327 35.6304 36.2305 35.967 36.861C36.3037 37.4915 36.7769 38.0389 37.3521 38.4632M52.6485 38.4632C53.2237 38.0389 53.6969 37.4915 54.0335 36.861C54.3701 36.2305 54.5617 35.5327 54.5942 34.8187C54.6267 34.1047 54.4994 33.3924 54.2215 32.7339C53.9435 32.0754 53.5221 31.4873 52.9878 31.0125C52.4535 30.5377 51.82 30.1882 51.1334 29.9895C50.4468 29.7908 49.7245 29.748 49.0192 29.8641C48.314 29.9803 47.6436 30.2525 47.0569 30.6608C46.4703 31.0691 45.9823 31.6033 45.6285 32.2244C47.3172 32.3614 48.9155 33.0443 50.1819 34.1697C51.4483 35.2952 52.3141 36.8023 52.6485 38.4632ZM51.5997 40.0004C51.5997 41.7508 50.9043 43.4296 49.6666 44.6673C48.4288 45.905 46.7501 46.6004 44.9997 46.6004C43.2492 46.6004 41.5705 45.905 40.3328 44.6673C39.095 43.4296 38.3997 41.7508 38.3997 40.0004C38.3997 38.25 39.095 36.5712 40.3328 35.3335C41.5705 34.0957 43.2492 33.4004 44.9997 33.4004C46.7501 33.4004 48.4288 34.0957 49.6666 35.3335C50.9043 36.5712 51.5997 38.25 51.5997 40.0004ZM42.5997 37.6004C42.5997 37.7595 42.6629 37.9121 42.7754 38.0247C42.8879 38.1372 43.0405 38.2004 43.1997 38.2004H45.8877C45.7645 38.3764 45.6365 38.5704 45.5037 38.7824C44.9241 39.7088 44.2701 40.9976 44.1045 42.326C44.0927 42.4051 44.0968 42.4858 44.1167 42.5633C44.1365 42.6408 44.1716 42.7135 44.22 42.7772C44.2683 42.8409 44.3289 42.8943 44.3982 42.9343C44.4675 42.9742 44.5441 42.9999 44.6235 43.0098C44.7029 43.0198 44.7834 43.0137 44.8604 42.9921C44.9374 42.9704 45.0093 42.9335 45.0719 42.8837C45.1344 42.8338 45.1864 42.772 45.2247 42.7018C45.263 42.6315 45.2868 42.5544 45.2949 42.4748C45.4293 41.4032 45.9753 40.292 46.5213 39.4184C46.8275 38.9296 47.1654 38.4614 47.5329 38.0168L47.5473 38L47.5521 37.9952C47.6279 37.9084 47.6772 37.8015 47.6939 37.6875C47.7106 37.5734 47.6942 37.457 47.6464 37.352C47.5987 37.2471 47.5218 37.1581 47.4248 37.0957C47.3278 37.0334 47.215 37.0003 47.0997 37.0004H43.1997C43.0405 37.0004 42.8879 37.0636 42.7754 37.1761C42.6629 37.2886 42.5997 37.4413 42.5997 37.6004Z" fill="white"/>
<path d="M70.266 34.136V41.5H68.628V37.23H66.78C66.276 37.23 65.884 37.3233 65.604 37.51C65.3333 37.6967 65.198 37.9953 65.198 38.406C65.198 38.798 65.3287 39.1807 65.59 39.554C65.8513 39.918 66.234 40.338 66.738 40.814L65.548 41.78C64.9133 41.1547 64.4187 40.5667 64.064 40.016C63.7187 39.456 63.546 38.854 63.546 38.21C63.546 37.4167 63.8073 36.8333 64.33 36.46C64.862 36.0773 65.5993 35.886 66.542 35.886H68.628V34.136H63V32.792H71.624V34.136H70.266ZM73.9302 39.652C73.7249 39.652 73.5055 39.5867 73.2722 39.456C73.0482 39.3253 72.8382 39.162 72.6422 38.966C72.4462 38.7607 72.2875 38.546 72.1662 38.322C72.0449 38.0887 71.9842 37.8693 71.9842 37.664C71.9842 37.4773 72.0495 37.314 72.1802 37.174C72.3202 37.0247 72.5722 36.9453 72.9362 36.936H73.5102L73.1462 37.314V34.136H71.5082V32.792H76.9542V34.136H74.7982V36.936H77.6682V38.294H74.7982V38.63C74.7982 38.9847 74.7189 39.246 74.5602 39.414C74.4015 39.5727 74.1915 39.652 73.9302 39.652ZM84.976 34.136H83.632V41.5H81.98V38.868L82.47 39.316C82.1527 39.5867 81.784 39.7967 81.364 39.946C80.9533 40.086 80.4773 40.156 79.936 40.156C79.0027 40.156 78.2653 39.9273 77.724 39.47C77.1827 39.0033 76.912 38.3873 76.912 37.622C76.912 36.7727 77.1967 36.138 77.766 35.718C78.3353 35.298 79.0867 35.088 80.02 35.088C80.3093 35.088 80.5753 35.102 80.818 35.13C81.07 35.1487 81.308 35.186 81.532 35.242L81.406 36.488C81.2287 36.4507 81.0373 36.4227 80.832 36.404C80.636 36.376 80.4307 36.362 80.216 36.362C79.6653 36.362 79.236 36.4693 78.928 36.684C78.6293 36.8987 78.48 37.2207 78.48 37.65C78.48 38.0607 78.6153 38.3687 78.886 38.574C79.166 38.7793 79.53 38.882 79.978 38.882C80.314 38.882 80.622 38.826 80.902 38.714C81.1913 38.602 81.448 38.4573 81.672 38.28C81.896 38.0933 82.078 37.9067 82.218 37.72L81.98 38.616V34.136H76.366V32.792H84.976V34.136ZM79.39 35.718L81.798 38.77L81.028 39.372L78.396 36.068L79.39 35.718ZM87.6602 34.136V41.5H86.0222V34.136H84.8742V32.792H89.0042V34.136H87.6602ZM86.0642 32.89C85.8962 32.3487 85.7422 31.91 85.6022 31.574C85.4716 31.238 85.3409 30.9813 85.2102 30.804C85.0796 30.6267 84.9396 30.5053 84.7902 30.44C84.6316 30.3653 84.4449 30.328 84.2302 30.328C84.0529 30.328 83.8709 30.3513 83.6842 30.398C83.4882 30.4353 83.3062 30.4867 83.1382 30.552L82.7322 29.222C82.9562 29.138 83.2036 29.0727 83.4742 29.026C83.7356 28.9793 83.9969 28.956 84.2582 28.956C84.6782 28.956 85.0376 29.0167 85.3362 29.138C85.6442 29.25 85.9149 29.4553 86.1482 29.754C86.3909 30.0433 86.6149 30.4447 86.8202 30.958C87.0349 31.462 87.2636 32.106 87.5062 32.89H86.0642ZM88.9117 34.136V32.792H99.1317V34.136H97.7737V41.5H96.1357V36.348L96.9337 37.02C96.7844 36.9547 96.6351 36.9127 96.4857 36.894C96.3457 36.8753 96.2057 36.866 96.0657 36.866C95.7857 36.866 95.5384 36.936 95.3237 37.076C95.1091 37.2067 94.9271 37.426 94.7777 37.734C94.6377 38.042 94.5304 38.448 94.4557 38.952L92.8737 38.56C92.9951 37.5613 93.3264 36.81 93.8677 36.306C94.4091 35.802 95.1184 35.55 95.9957 35.55C96.1824 35.55 96.3784 35.564 96.5837 35.592C96.7984 35.62 96.9664 35.6527 97.0877 35.69L97.1297 35.998L96.1357 35.732V34.136H88.9117ZM93.6017 37.552C93.4431 37.356 93.2564 37.1973 93.0417 37.076C92.8364 36.9453 92.5844 36.88 92.2857 36.88C91.9124 36.88 91.6184 36.992 91.4037 37.216C91.1984 37.4307 91.0957 37.72 91.0957 38.084C91.0957 38.5413 91.2731 38.9613 91.6277 39.344C91.9917 39.7173 92.5891 40.1233 93.4197 40.562L92.5237 41.78C91.5717 41.2853 90.8204 40.73 90.2697 40.114C89.7284 39.4887 89.4577 38.7747 89.4577 37.972C89.4577 37.1507 89.7004 36.5393 90.1857 36.138C90.6711 35.7273 91.2871 35.522 92.0337 35.522C92.5191 35.522 92.9437 35.606 93.3077 35.774C93.6717 35.942 93.9891 36.1753 94.2597 36.474L93.6017 37.552ZM101.806 34.136V41.5H100.168V34.136H99.0195V32.792H103.15V34.136H101.806Z" fill="white"/>
<path d="M186.75 28.75H183.933C183.883 28.75 183.835 28.7302 183.8 28.6951C183.765 28.6599 183.745 28.6122 183.745 28.5625V27.9962C183.744 27.5991 183.586 27.2185 183.305 26.938C183.023 26.6575 182.642 26.5 182.245 26.5L171.755 26.5122C171.358 26.5129 170.978 26.6708 170.697 26.9514C170.417 27.2319 170.259 27.6121 170.258 28.0089V28.5625C170.258 28.6122 170.238 28.6599 170.203 28.6951C170.168 28.7302 170.12 28.75 170.07 28.75H167.25C167.051 28.75 166.86 28.829 166.72 28.9697C166.579 29.1103 166.5 29.3011 166.5 29.5V30.25C166.5 32.8061 167.906 35.5211 170.087 36.1258C170.151 36.1437 170.21 36.179 170.256 36.2278C170.301 36.2765 170.333 36.3369 170.347 36.4023C170.617 37.6628 171.45 38.8633 172.757 39.8528C173.737 40.5948 174.906 41.1419 175.957 41.3753C176.04 41.3939 176.114 41.4403 176.168 41.5067C176.221 41.5732 176.25 41.6558 176.25 41.7409V45.8125C176.25 45.8622 176.23 45.9099 176.195 45.9451C176.16 45.9802 176.112 46 176.062 46H173.271C172.867 46 172.521 46.3103 172.501 46.7139C172.496 46.8153 172.512 46.9167 172.547 47.0118C172.583 47.1069 172.637 47.1939 172.707 47.2674C172.777 47.3409 172.861 47.3994 172.955 47.4394C173.048 47.4794 173.148 47.5 173.25 47.5H180.729C181.132 47.5 181.479 47.1897 181.499 46.7861C181.504 46.6847 181.488 46.5833 181.453 46.4882C181.417 46.3931 181.363 46.3061 181.293 46.2326C181.223 46.1591 181.139 46.1006 181.045 46.0606C180.952 46.0206 180.852 46 180.75 46H177.938C177.888 46 177.84 45.9802 177.805 45.9451C177.77 45.9099 177.75 45.8622 177.75 45.8125V41.7409C177.75 41.6558 177.779 41.5732 177.832 41.5067C177.886 41.4403 177.96 41.3939 178.043 41.3753C179.094 41.1409 180.263 40.5948 181.243 39.8528C182.55 38.8633 183.382 37.6628 183.653 36.4023C183.667 36.3369 183.699 36.2765 183.744 36.2278C183.79 36.179 183.849 36.1437 183.913 36.1258C186.094 35.5211 187.5 32.8061 187.5 30.25V29.5C187.5 29.3011 187.421 29.1103 187.28 28.9697C187.14 28.829 186.949 28.75 186.75 28.75ZM170.25 34.2916C170.25 34.3244 170.241 34.3567 170.225 34.3851C170.208 34.4135 170.184 34.4371 170.156 34.4534C170.127 34.4698 170.095 34.4784 170.062 34.4784C170.029 34.4784 169.997 34.4697 169.969 34.4533C169.488 34.1669 169.137 33.7328 168.931 33.4272C168.373 32.598 168.04 31.5208 168.003 30.4445C168.002 30.4193 168.006 30.3942 168.015 30.3706C168.024 30.3471 168.038 30.3255 168.056 30.3074C168.073 30.2892 168.094 30.2748 168.117 30.2649C168.141 30.2551 168.166 30.25 168.191 30.25H170.066C170.116 30.25 170.163 30.2698 170.198 30.3049C170.234 30.3401 170.253 30.3878 170.253 30.4375C170.252 31.7242 170.25 33.197 170.25 34.2916ZM185.069 33.4272C184.863 33.7328 184.512 34.1669 184.031 34.4533C184.003 34.4697 183.97 34.4784 183.938 34.4784C183.905 34.4784 183.872 34.4698 183.844 34.4533C183.815 34.4369 183.792 34.4133 183.775 34.3848C183.759 34.3563 183.75 34.324 183.75 34.2911C183.75 33.0484 183.75 31.6366 183.748 30.4375C183.748 30.3878 183.767 30.3401 183.803 30.3049C183.838 30.2698 183.885 30.25 183.935 30.25H185.81C185.835 30.25 185.86 30.2551 185.884 30.2649C185.907 30.2748 185.928 30.2892 185.945 30.3074C185.963 30.3255 185.976 30.3471 185.985 30.3706C185.994 30.3942 185.999 30.4193 185.998 30.4445C185.961 31.5208 185.627 32.598 185.069 33.4272H185.069Z" fill="white"/>
<path d="M196.12 32.89C195.999 32.6753 195.896 32.4513 195.812 32.218C195.728 31.9753 195.686 31.7 195.686 31.392C195.686 30.636 195.98 30.0433 196.568 29.614C197.156 29.1753 197.963 28.956 198.99 28.956C200.007 28.956 200.945 29.1333 201.804 29.488C202.672 29.8333 203.451 30.3047 204.142 30.902C204.833 31.49 205.411 32.1527 205.878 32.89H204.226C203.769 32.3393 203.283 31.8727 202.77 31.49C202.257 31.1073 201.715 30.818 201.146 30.622C200.577 30.4167 199.979 30.314 199.354 30.314C198.701 30.314 198.201 30.44 197.856 30.692C197.511 30.9347 197.338 31.2753 197.338 31.714C197.338 31.966 197.38 32.19 197.464 32.386C197.548 32.5727 197.646 32.7407 197.758 32.89H196.12ZM197.786 34.136V41.5H196.148V34.136H195V32.792H199.13V34.136H197.786ZM207.438 34.136H206.094V41.5H204.456V38.854L204.988 39.19C204.698 39.4793 204.344 39.708 203.924 39.876C203.513 40.0347 203.046 40.114 202.524 40.114C201.945 40.114 201.432 40.016 200.984 39.82C200.545 39.624 200.199 39.3393 199.947 38.966C199.705 38.5927 199.583 38.14 199.583 37.608C199.583 36.7867 199.854 36.1707 200.395 35.76C200.937 35.34 201.66 35.13 202.565 35.13C202.845 35.13 203.102 35.144 203.336 35.172C203.578 35.2 203.797 35.2373 203.993 35.284L203.882 36.614C203.704 36.5767 203.522 36.5487 203.336 36.53C203.158 36.5113 202.967 36.502 202.761 36.502C202.295 36.502 201.921 36.6 201.641 36.796C201.371 36.992 201.235 37.2767 201.235 37.65C201.235 37.986 201.352 38.252 201.586 38.448C201.819 38.644 202.155 38.742 202.594 38.742C203.004 38.742 203.392 38.644 203.756 38.448C204.12 38.2427 204.4 37.972 204.596 37.636L204.456 38.602V34.136H199.037V32.792H207.438V34.136ZM216.973 34.136V41.5H215.321V36.726H213.991C213.748 36.726 213.538 36.7213 213.361 36.712C213.183 36.7027 213.048 36.684 212.955 36.656L212.367 36.18C212.871 36.4787 213.272 36.824 213.571 37.216C213.869 37.5987 214.019 38.042 214.019 38.546C214.019 38.9753 213.916 39.3393 213.711 39.638C213.515 39.9367 213.249 40.1607 212.913 40.31C212.586 40.4593 212.213 40.534 211.793 40.534C211.382 40.534 210.99 40.4593 210.617 40.31C210.243 40.1607 209.884 39.918 209.539 39.582C209.203 39.2367 208.881 38.7793 208.573 38.21C208.265 37.6313 207.961 36.9173 207.663 36.068L209.049 35.564C209.31 36.3573 209.571 37.02 209.833 37.552C210.103 38.084 210.383 38.4853 210.673 38.756C210.962 39.0267 211.261 39.162 211.569 39.162C211.811 39.162 212.012 39.0967 212.171 38.966C212.329 38.8353 212.409 38.616 212.409 38.308C212.409 37.9533 212.287 37.6267 212.045 37.328C211.802 37.02 211.485 36.74 211.093 36.488L211.541 35.41H215.321V34.136H207.341V32.792H218.317V34.136H216.973ZM215.456 32.89C215.288 32.3487 215.139 31.91 215.008 31.574C214.868 31.238 214.733 30.9813 214.602 30.804C214.472 30.6267 214.332 30.5053 214.182 30.44C214.024 30.3653 213.837 30.328 213.622 30.328C213.445 30.328 213.263 30.3513 213.076 30.398C212.88 30.4353 212.698 30.4867 212.53 30.552L212.124 29.222C212.348 29.138 212.596 29.0727 212.866 29.026C213.128 28.9793 213.389 28.956 213.65 28.956C214.07 28.956 214.434 29.0167 214.742 29.138C215.041 29.25 215.312 29.4553 215.554 29.754C215.788 30.0433 216.012 30.4447 216.226 30.958C216.432 31.462 216.656 32.106 216.898 32.89H215.456ZM225.566 34.136V41.5H223.928V37.23H222.08C221.576 37.23 221.184 37.3233 220.904 37.51C220.634 37.6967 220.498 37.9953 220.498 38.406C220.498 38.798 220.629 39.1807 220.89 39.554C221.152 39.918 221.534 40.338 222.038 40.814L220.848 41.78C220.214 41.1547 219.719 40.5667 219.364 40.016C219.019 39.456 218.846 38.854 218.846 38.21C218.846 37.4167 219.108 36.8333 219.63 36.46C220.162 36.0773 220.9 35.886 221.842 35.886H223.928V34.136H218.3V32.792H226.924V34.136H225.566ZM229.595 34.136V41.5H227.957V34.136H226.809V32.792H230.939V34.136H229.595Z" fill="white"/>
<path d="M309 27C303.477 27 299 31.477 299 37C299 42.523 303.477 47 309 47C314.523 47 319 42.523 319 37C319 31.477 314.523 27 309 27ZM310 43H308V41H310V43ZM310 38.859V40H308V38C308 37.7348 308.105 37.4804 308.293 37.2929C308.48 37.1054 308.735 37 309 37C310.103 37 311 36.103 311 35C311 33.897 310.103 33 309 33C307.897 33 307 33.897 307 35H305C305 33.9391 305.421 32.9217 306.172 32.1716C306.922 31.4214 307.939 31 309 31C310.061 31 311.078 31.4214 311.828 32.1716C312.579 32.9217 313 33.9391 313 35C312.999 35.8848 312.703 36.7441 312.16 37.4427C311.617 38.1412 310.857 38.6395 310 38.859Z" fill="white"/>
<path d="M338.494 34.136H333.944V36.866L333.748 36.558C333.953 36.362 334.201 36.2033 334.49 36.082C334.789 35.9607 335.125 35.9 335.498 35.9C336.207 35.9 336.763 36.11 337.164 36.53C337.575 36.9407 337.78 37.51 337.78 38.238C337.78 38.7047 337.691 39.1667 337.514 39.624C337.346 40.072 337.061 40.5387 336.66 41.024L335.232 40.212C335.512 39.904 335.731 39.596 335.89 39.288C336.058 38.9707 336.142 38.63 336.142 38.266C336.142 37.9207 336.063 37.664 335.904 37.496C335.745 37.3187 335.521 37.23 335.232 37.23C334.952 37.23 334.691 37.3187 334.448 37.496C334.215 37.664 334.028 37.8833 333.888 38.154L333.944 37.72V41.5H332.306V38.742L332.712 39.176C332.507 39.3627 332.283 39.526 332.04 39.666C331.807 39.7967 331.545 39.8993 331.256 39.974C330.976 40.0487 330.673 40.086 330.346 40.086C329.814 40.086 329.333 39.9927 328.904 39.806C328.484 39.61 328.153 39.33 327.91 38.966C327.667 38.5927 327.546 38.1353 327.546 37.594C327.546 36.81 327.807 36.2033 328.33 35.774C328.853 35.3447 329.581 35.13 330.514 35.13C330.757 35.13 330.99 35.144 331.214 35.172C331.438 35.1907 331.653 35.2233 331.858 35.27L331.718 36.614C331.569 36.5767 331.405 36.5487 331.228 36.53C331.051 36.5113 330.869 36.502 330.682 36.502C330.206 36.502 329.837 36.6 329.576 36.796C329.324 36.992 329.198 37.272 329.198 37.636C329.198 38 329.315 38.2753 329.548 38.462C329.781 38.6393 330.08 38.728 330.444 38.728C330.883 38.728 331.279 38.6067 331.634 38.364C331.989 38.1213 332.259 37.846 332.446 37.538L332.306 38.546V34.136H327V32.792H338.494V34.136ZM332.492 32.89C332.203 32.6007 331.96 32.386 331.764 32.246C331.568 32.0967 331.382 31.9987 331.204 31.952C331.027 31.9053 330.831 31.882 330.616 31.882C330.402 31.882 330.187 31.91 329.972 31.966C329.748 32.0127 329.538 32.078 329.342 32.162L328.922 31.042C329.146 30.9393 329.38 30.86 329.622 30.804C329.865 30.748 330.108 30.72 330.35 30.72C330.621 30.72 330.864 30.7527 331.078 30.818C331.284 30.8833 331.494 31 331.708 31.168C331.923 31.3267 332.175 31.5507 332.464 31.84L332.52 31.812C332.268 31.3453 332.044 30.9907 331.848 30.748C331.652 30.496 331.456 30.328 331.26 30.244C331.055 30.1507 330.822 30.104 330.56 30.104C330.392 30.104 330.224 30.1227 330.056 30.16C329.888 30.188 329.716 30.2347 329.538 30.3L329.16 29.166C329.347 29.1007 329.562 29.0493 329.804 29.012C330.038 28.9747 330.271 28.956 330.504 28.956C330.934 28.956 331.302 29.0167 331.61 29.138C331.918 29.2593 332.189 29.4693 332.422 29.768C332.656 30.0573 332.884 30.4587 333.108 30.972C333.332 31.476 333.575 32.1153 333.836 32.89H332.492ZM342.413 41.78C341.667 41.0333 341.037 40.3473 340.523 39.722C340.01 39.0967 339.632 38.5693 339.389 38.14C339.249 37.888 339.147 37.6593 339.081 37.454C339.016 37.2487 338.983 37.0527 338.983 36.866C338.983 36.5953 339.063 36.376 339.221 36.208C339.389 36.04 339.623 35.956 339.921 35.956C340.239 35.956 340.523 36.0587 340.775 36.264C341.037 36.4693 341.293 36.7213 341.545 37.02L340.579 36.894C340.953 36.7167 341.209 36.4833 341.349 36.194C341.489 35.8953 341.559 35.564 341.559 35.2C341.559 34.9013 341.522 34.6307 341.447 34.388C341.382 34.136 341.293 33.9353 341.181 33.786L342.007 34.136H338.479V32.792H344.611V34.136H342.497L342.875 33.8C342.978 34.024 343.057 34.2667 343.113 34.528C343.179 34.78 343.211 35.0647 343.211 35.382C343.211 35.7553 343.151 36.0913 343.029 36.39C342.908 36.6887 342.745 36.95 342.539 37.174L342.399 37.342C342.222 37.5287 342.017 37.6967 341.783 37.846C341.559 37.986 341.289 38.1167 340.971 38.238V38.028C341.195 38.3173 341.447 38.6113 341.727 38.91C342.007 39.2087 342.306 39.512 342.623 39.82C342.95 40.128 343.286 40.4407 343.631 40.758L342.413 41.78ZM344.345 38.308C343.953 38.308 343.538 38.2613 343.099 38.168C342.661 38.0747 342.231 37.9113 341.811 37.678L342.287 36.558C342.67 36.698 343.015 36.8007 343.323 36.866C343.631 36.922 343.972 36.95 344.345 36.95C344.719 36.95 345.078 36.9173 345.423 36.852C345.769 36.7867 346.119 36.6747 346.473 36.516V37.944C346.165 38.0653 345.834 38.1587 345.479 38.224C345.125 38.28 344.747 38.308 344.345 38.308ZM345.703 41.5V34.136H344.219V32.792H348.685V34.136H347.341V41.5H345.703ZM345.843 32.89C345.675 32.3487 345.526 31.91 345.395 31.574C345.255 31.238 345.12 30.9813 344.989 30.804C344.858 30.6267 344.718 30.5053 344.569 30.44C344.41 30.3653 344.224 30.328 344.009 30.328C343.832 30.328 343.65 30.3513 343.463 30.398C343.267 30.4353 343.085 30.4867 342.917 30.552L342.511 29.222C342.735 29.138 342.982 29.0727 343.253 29.026C343.514 28.9793 343.776 28.956 344.037 28.956C344.457 28.956 344.821 29.0167 345.129 29.138C345.428 29.25 345.698 29.4553 345.941 29.754C346.174 30.0433 346.398 30.4447 346.613 30.958C346.818 31.462 347.042 32.106 347.285 32.89H345.843ZM362.056 34.136V41.5H360.404V36.726H359.074C358.831 36.726 358.621 36.7213 358.444 36.712C358.266 36.7027 358.131 36.684 358.038 36.656L357.45 36.18C357.954 36.4787 358.355 36.824 358.654 37.216C358.952 37.5987 359.102 38.042 359.102 38.546C359.102 38.9753 358.999 39.3393 358.794 39.638C358.598 39.9367 358.332 40.1607 357.996 40.31C357.669 40.4593 357.296 40.534 356.876 40.534C356.465 40.534 356.073 40.4593 355.7 40.31C355.326 40.1607 354.967 39.918 354.622 39.582C354.286 39.2367 353.964 38.7793 353.656 38.21C353.348 37.6313 353.044 36.9173 352.746 36.068L354.132 35.564C354.393 36.3573 354.654 37.02 354.916 37.552C355.186 38.084 355.466 38.4853 355.756 38.756C356.045 39.0267 356.344 39.162 356.652 39.162C356.894 39.162 357.095 39.0967 357.254 38.966C357.412 38.8353 357.492 38.616 357.492 38.308C357.492 37.9533 357.37 37.6267 357.128 37.328C356.885 37.02 356.568 36.74 356.176 36.488L356.624 35.41H360.404V34.136H352.424V32.792H363.4V34.136H362.056ZM360.33 32.89C360.18 32.5913 360.068 32.2927 359.994 31.994C359.919 31.6953 359.882 31.4107 359.882 31.14C359.882 30.4867 360.092 29.9593 360.512 29.558C360.932 29.1567 361.52 28.956 362.276 28.956C363.013 28.956 363.615 29.1193 364.082 29.446C364.558 29.7633 364.94 30.216 365.23 30.804C365.528 31.392 365.766 32.0873 365.944 32.89H364.432C364.245 32.0313 363.998 31.3873 363.69 30.958C363.391 30.5193 363.013 30.3 362.556 30.3C362.201 30.3 361.94 30.4027 361.772 30.608C361.604 30.804 361.52 31.0747 361.52 31.42C361.52 31.6627 361.562 31.91 361.646 32.162C361.72 32.4047 361.818 32.6473 361.94 32.89H360.33ZM366.07 34.136V41.5H364.432V34.136H363.284V32.792H367.414V34.136H366.07ZM374.587 34.136V41.5H372.949V37.23H371.101C370.597 37.23 370.205 37.3233 369.925 37.51C369.654 37.6967 369.519 37.9953 369.519 38.406C369.519 38.798 369.65 39.1807 369.911 39.554C370.172 39.918 370.555 40.338 371.059 40.814L369.869 41.78C369.234 41.1547 368.74 40.5667 368.385 40.016C368.04 39.456 367.867 38.854 367.867 38.21C367.867 37.4167 368.128 36.8333 368.651 36.46C369.183 36.0773 369.92 35.886 370.863 35.886H372.949V34.136H367.321V32.792H375.945V34.136H374.587ZM374.121 30.034C374.121 29.7727 374.21 29.5533 374.387 29.376C374.565 29.1987 374.779 29.11 375.031 29.11C375.283 29.11 375.498 29.1987 375.675 29.376C375.843 29.5533 375.927 29.7727 375.927 30.034C375.927 30.286 375.843 30.5053 375.675 30.692C375.498 30.8693 375.283 30.958 375.031 30.958C374.779 30.958 374.565 30.8693 374.387 30.692C374.21 30.5053 374.121 30.286 374.121 30.034ZM373.085 32.89C372.917 32.3487 372.768 31.91 372.637 31.574C372.497 31.238 372.362 30.9813 372.231 30.804C372.101 30.6267 371.961 30.5053 371.811 30.44C371.653 30.3653 371.466 30.328 371.251 30.328C371.074 30.328 370.892 30.3513 370.705 30.398C370.509 30.4353 370.327 30.4867 370.159 30.552L369.753 29.222C369.977 29.138 370.225 29.0727 370.495 29.026C370.757 28.9793 371.018 28.956 371.279 28.956C371.699 28.956 372.063 29.0167 372.371 29.138C372.67 29.25 372.941 29.4553 373.183 29.754C373.417 30.0433 373.641 30.4447 373.855 30.958C374.061 31.462 374.285 32.106 374.527 32.89H373.085Z" fill="white"/>
<defs>
<linearGradient id="paint0_linear_24322_9524" x1="17" y1="37" x2="119" y2="37" gradientUnits="userSpaceOnUse">
<stop stop-color="#B31232"/>
<stop offset="1" stop-color="#FF6B2C"/>
</linearGradient>
</defs>
</svg>
