<svg width="412" height="78" viewBox="0 0 412 78" fill="none" xmlns="http://www.w3.org/2000/svg">
<g filter="url(#filter0_d_24266_198441)">
<path d="M0 4H412V56C412 68.1503 402.15 78 390 78H22C9.84974 78 0 68.1503 0 56V4Z" fill="#1A090B" shape-rendering="crispEdges"/>
<rect x="16.5" y="19" width="102" height="44" rx="22" fill="url(#paint0_linear_24266_198441)"/>
<path d="M47.4246 32.9004C46.2582 33.2847 45.2379 34.0177 44.5014 35.0004C43.7645 34.0175 42.7438 33.2845 41.577 32.9004C41.9104 32.4362 42.3495 32.058 42.858 31.7972C43.3665 31.5363 43.9298 31.4003 44.5014 31.4004C45.705 31.4004 46.7718 31.992 47.4246 32.9004ZM36.8526 42.4644C37.1867 40.8032 38.0524 39.2959 39.3189 38.1702C40.5853 37.0445 42.1837 36.3615 43.8726 36.2244C43.5188 35.6033 43.0307 35.0691 42.4441 34.6608C41.8575 34.2525 41.1871 33.9803 40.4818 33.8641C39.7765 33.748 39.0543 33.7908 38.3677 33.9895C37.6811 34.1882 37.0475 34.5377 36.5133 35.0125C35.979 35.4873 35.5575 36.0754 35.2796 36.7339C35.0017 37.3924 34.8743 38.1047 34.9068 38.8187C34.9393 39.5327 35.1309 40.2305 35.4675 40.861C35.8042 41.4915 36.2774 42.0389 36.8526 42.4632M52.149 42.4632C52.7242 42.0389 53.1974 41.4915 53.534 40.861C53.8706 40.2305 54.0622 39.5327 54.0947 38.8187C54.1272 38.1047 53.9999 37.3924 53.7219 36.7339C53.444 36.0754 53.0225 35.4873 52.4883 35.0125C51.954 34.5377 51.3205 34.1882 50.6339 33.9895C49.9473 33.7908 49.225 33.748 48.5197 33.8641C47.8145 33.9803 47.1441 34.2525 46.5574 34.6608C45.9708 35.0691 45.4828 35.6033 45.129 36.2244C46.8177 36.3614 48.4159 37.0443 49.6824 38.1697C50.9488 39.2952 51.8146 40.8023 52.149 42.4632ZM51.1002 44.0004C51.1002 45.7508 50.4048 47.4296 49.1671 48.6673C47.9293 49.905 46.2506 50.6004 44.5002 50.6004C42.7497 50.6004 41.071 49.905 39.8333 48.6673C38.5955 47.4296 37.9002 45.7508 37.9002 44.0004C37.9002 42.25 38.5955 40.5712 39.8333 39.3335C41.071 38.0957 42.7497 37.4004 44.5002 37.4004C46.2506 37.4004 47.9293 38.0957 49.1671 39.3335C50.4048 40.5712 51.1002 42.25 51.1002 44.0004ZM42.1002 41.6004C42.1002 41.7595 42.1634 41.9121 42.2759 42.0247C42.3884 42.1372 42.541 42.2004 42.7002 42.2004H45.3882C45.265 42.3764 45.137 42.5704 45.0042 42.7824C44.4246 43.7088 43.7706 44.9976 43.605 46.326C43.5932 46.4051 43.5973 46.4858 43.6171 46.5633C43.637 46.6408 43.6721 46.7135 43.7205 46.7772C43.7688 46.8409 43.8294 46.8943 43.8987 46.9343C43.968 46.9742 44.0446 46.9999 44.124 47.0098C44.2034 47.0198 44.2839 47.0137 44.3609 46.9921C44.4379 46.9704 44.5098 46.9335 44.5723 46.8837C44.6349 46.8338 44.6869 46.772 44.7252 46.7018C44.7635 46.6315 44.7873 46.5544 44.7954 46.4748C44.9298 45.4032 45.4758 44.292 46.0218 43.4184C46.328 42.9296 46.6659 42.4614 47.0334 42.0168L47.0478 42L47.0526 41.9952C47.1284 41.9084 47.1777 41.8015 47.1944 41.6875C47.2111 41.5734 47.1947 41.457 47.1469 41.352C47.0992 41.2471 47.0223 41.1581 46.9253 41.0957C46.8283 41.0334 46.7155 41.0003 46.6002 41.0004H42.7002C42.541 41.0004 42.3884 41.0636 42.2759 41.1761C42.1634 41.2886 42.1002 41.4413 42.1002 41.6004Z" fill="white"/>
<path d="M69.766 38.636V46H68.128V41.73H66.28C65.776 41.73 65.384 41.8233 65.104 42.01C64.8333 42.1967 64.698 42.4953 64.698 42.906C64.698 43.298 64.8287 43.6807 65.09 44.054C65.3513 44.418 65.734 44.838 66.238 45.314L65.048 46.28C64.4133 45.6547 63.9187 45.0667 63.564 44.516C63.2187 43.956 63.046 43.354 63.046 42.71C63.046 41.9167 63.3073 41.3333 63.83 40.96C64.362 40.5773 65.0993 40.386 66.042 40.386H68.128V38.636H62.5V37.292H71.124V38.636H69.766ZM73.4302 44.152C73.2249 44.152 73.0055 44.0867 72.7722 43.956C72.5482 43.8253 72.3382 43.662 72.1422 43.466C71.9462 43.2607 71.7875 43.046 71.6662 42.822C71.5449 42.5887 71.4842 42.3693 71.4842 42.164C71.4842 41.9773 71.5495 41.814 71.6802 41.674C71.8202 41.5247 72.0722 41.4453 72.4362 41.436H73.0102L72.6462 41.814V38.636H71.0082V37.292H76.4542V38.636H74.2982V41.436H77.1682V42.794H74.2982V43.13C74.2982 43.4847 74.2189 43.746 74.0602 43.914C73.9015 44.0727 73.6915 44.152 73.4302 44.152ZM84.476 38.636H83.132V46H81.48V43.368L81.97 43.816C81.6527 44.0867 81.284 44.2967 80.864 44.446C80.4533 44.586 79.9773 44.656 79.436 44.656C78.5027 44.656 77.7653 44.4273 77.224 43.97C76.6827 43.5033 76.412 42.8873 76.412 42.122C76.412 41.2727 76.6967 40.638 77.266 40.218C77.8353 39.798 78.5867 39.588 79.52 39.588C79.8093 39.588 80.0753 39.602 80.318 39.63C80.57 39.6487 80.808 39.686 81.032 39.742L80.906 40.988C80.7287 40.9507 80.5373 40.9227 80.332 40.904C80.136 40.876 79.9307 40.862 79.716 40.862C79.1653 40.862 78.736 40.9693 78.428 41.184C78.1293 41.3987 77.98 41.7207 77.98 42.15C77.98 42.5607 78.1153 42.8687 78.386 43.074C78.666 43.2793 79.03 43.382 79.478 43.382C79.814 43.382 80.122 43.326 80.402 43.214C80.6913 43.102 80.948 42.9573 81.172 42.78C81.396 42.5933 81.578 42.4067 81.718 42.22L81.48 43.116V38.636H75.866V37.292H84.476V38.636ZM78.89 40.218L81.298 43.27L80.528 43.872L77.896 40.568L78.89 40.218ZM87.1602 38.636V46H85.5222V38.636H84.3742V37.292H88.5042V38.636H87.1602ZM85.5642 37.39C85.3962 36.8487 85.2422 36.41 85.1022 36.074C84.9716 35.738 84.8409 35.4813 84.7102 35.304C84.5796 35.1267 84.4396 35.0053 84.2902 34.94C84.1316 34.8653 83.9449 34.828 83.7302 34.828C83.5529 34.828 83.3709 34.8513 83.1842 34.898C82.9882 34.9353 82.8062 34.9867 82.6382 35.052L82.2322 33.722C82.4562 33.638 82.7036 33.5727 82.9742 33.526C83.2356 33.4793 83.4969 33.456 83.7582 33.456C84.1782 33.456 84.5376 33.5167 84.8362 33.638C85.1442 33.75 85.4149 33.9553 85.6482 34.254C85.8909 34.5433 86.1149 34.9447 86.3202 35.458C86.5349 35.962 86.7636 36.606 87.0062 37.39H85.5642ZM88.4117 38.636V37.292H98.6317V38.636H97.2737V46H95.6357V40.848L96.4337 41.52C96.2844 41.4547 96.1351 41.4127 95.9857 41.394C95.8457 41.3753 95.7057 41.366 95.5657 41.366C95.2857 41.366 95.0384 41.436 94.8237 41.576C94.6091 41.7067 94.4271 41.926 94.2777 42.234C94.1377 42.542 94.0304 42.948 93.9557 43.452L92.3737 43.06C92.4951 42.0613 92.8264 41.31 93.3677 40.806C93.9091 40.302 94.6184 40.05 95.4957 40.05C95.6824 40.05 95.8784 40.064 96.0837 40.092C96.2984 40.12 96.4664 40.1527 96.5877 40.19L96.6297 40.498L95.6357 40.232V38.636H88.4117ZM93.1017 42.052C92.9431 41.856 92.7564 41.6973 92.5417 41.576C92.3364 41.4453 92.0844 41.38 91.7857 41.38C91.4124 41.38 91.1184 41.492 90.9037 41.716C90.6984 41.9307 90.5957 42.22 90.5957 42.584C90.5957 43.0413 90.7731 43.4613 91.1277 43.844C91.4917 44.2173 92.0891 44.6233 92.9197 45.062L92.0237 46.28C91.0717 45.7853 90.3204 45.23 89.7697 44.614C89.2284 43.9887 88.9577 43.2747 88.9577 42.472C88.9577 41.6507 89.2004 41.0393 89.6857 40.638C90.1711 40.2273 90.7871 40.022 91.5337 40.022C92.0191 40.022 92.4437 40.106 92.8077 40.274C93.1717 40.442 93.4891 40.6753 93.7597 40.974L93.1017 42.052ZM101.306 38.636V46H99.6675V38.636H98.5195V37.292H102.65V38.636H101.306Z" fill="white"/>
<path d="M186.25 32.75H183.433C183.383 32.75 183.335 32.7302 183.3 32.6951C183.265 32.6599 183.245 32.6122 183.245 32.5625V31.9962C183.244 31.5991 183.086 31.2185 182.805 30.938C182.523 30.6575 182.142 30.5 181.745 30.5L171.255 30.5122C170.858 30.5129 170.478 30.6708 170.197 30.9514C169.917 31.2319 169.759 31.6121 169.758 32.0089V32.5625C169.758 32.6122 169.738 32.6599 169.703 32.6951C169.668 32.7302 169.62 32.75 169.57 32.75H166.75C166.551 32.75 166.36 32.829 166.22 32.9697C166.079 33.1103 166 33.3011 166 33.5V34.25C166 36.8061 167.406 39.5211 169.587 40.1258C169.651 40.1437 169.71 40.179 169.756 40.2278C169.801 40.2765 169.833 40.3369 169.847 40.4023C170.117 41.6628 170.95 42.8633 172.257 43.8528C173.237 44.5948 174.406 45.1419 175.457 45.3753C175.54 45.3939 175.614 45.4403 175.668 45.5067C175.721 45.5732 175.75 45.6558 175.75 45.7409V49.8125C175.75 49.8622 175.73 49.9099 175.695 49.9451C175.66 49.9802 175.612 50 175.562 50H172.771C172.367 50 172.021 50.3103 172.001 50.7139C171.996 50.8153 172.012 50.9167 172.047 51.0118C172.083 51.1069 172.137 51.1939 172.207 51.2674C172.277 51.3409 172.361 51.3994 172.455 51.4394C172.548 51.4794 172.648 51.5 172.75 51.5H180.229C180.632 51.5 180.979 51.1897 180.999 50.7861C181.004 50.6847 180.988 50.5833 180.953 50.4882C180.917 50.3931 180.863 50.3061 180.793 50.2326C180.723 50.1591 180.639 50.1006 180.545 50.0606C180.452 50.0206 180.352 50 180.25 50H177.438C177.388 50 177.34 49.9802 177.305 49.9451C177.27 49.9099 177.25 49.8622 177.25 49.8125V45.7409C177.25 45.6558 177.279 45.5732 177.332 45.5067C177.386 45.4403 177.46 45.3939 177.543 45.3753C178.594 45.1409 179.763 44.5948 180.743 43.8528C182.05 42.8633 182.882 41.6628 183.153 40.4023C183.167 40.3369 183.199 40.2765 183.244 40.2278C183.29 40.179 183.349 40.1437 183.413 40.1258C185.594 39.5211 187 36.8061 187 34.25V33.5C187 33.3011 186.921 33.1103 186.78 32.9697C186.64 32.829 186.449 32.75 186.25 32.75ZM169.75 38.2916C169.75 38.3244 169.741 38.3567 169.725 38.3851C169.708 38.4135 169.684 38.4371 169.656 38.4534C169.627 38.4698 169.595 38.4784 169.562 38.4784C169.529 38.4784 169.497 38.4697 169.469 38.4533C168.988 38.1669 168.637 37.7328 168.431 37.4272C167.873 36.598 167.54 35.5208 167.503 34.4445C167.502 34.4193 167.506 34.3942 167.515 34.3706C167.524 34.3471 167.538 34.3255 167.556 34.3074C167.573 34.2892 167.594 34.2748 167.617 34.2649C167.641 34.2551 167.666 34.25 167.691 34.25H169.566C169.616 34.25 169.663 34.2698 169.698 34.3049C169.734 34.3401 169.753 34.3878 169.753 34.4375C169.752 35.7242 169.75 37.197 169.75 38.2916ZM184.569 37.4272C184.363 37.7328 184.012 38.1669 183.531 38.4533C183.503 38.4697 183.47 38.4784 183.438 38.4784C183.405 38.4784 183.372 38.4698 183.344 38.4533C183.315 38.4369 183.292 38.4133 183.275 38.3848C183.259 38.3563 183.25 38.324 183.25 38.2911C183.25 37.0484 183.25 35.6366 183.248 34.4375C183.248 34.3878 183.267 34.3401 183.303 34.3049C183.338 34.2698 183.385 34.25 183.435 34.25H185.31C185.335 34.25 185.36 34.2551 185.384 34.2649C185.407 34.2748 185.428 34.2892 185.445 34.3074C185.463 34.3255 185.476 34.3471 185.485 34.3706C185.494 34.3942 185.499 34.4193 185.498 34.4445C185.461 35.5208 185.127 36.598 184.569 37.4272H184.569Z" fill="white"/>
<path d="M195.62 37.39C195.499 37.1753 195.396 36.9513 195.312 36.718C195.228 36.4753 195.186 36.2 195.186 35.892C195.186 35.136 195.48 34.5433 196.068 34.114C196.656 33.6753 197.463 33.456 198.49 33.456C199.507 33.456 200.445 33.6333 201.304 33.988C202.172 34.3333 202.951 34.8047 203.642 35.402C204.333 35.99 204.911 36.6527 205.378 37.39H203.726C203.269 36.8393 202.783 36.3727 202.27 35.99C201.757 35.6073 201.215 35.318 200.646 35.122C200.077 34.9167 199.479 34.814 198.854 34.814C198.201 34.814 197.701 34.94 197.356 35.192C197.011 35.4347 196.838 35.7753 196.838 36.214C196.838 36.466 196.88 36.69 196.964 36.886C197.048 37.0727 197.146 37.2407 197.258 37.39H195.62ZM197.286 38.636V46H195.648V38.636H194.5V37.292H198.63V38.636H197.286ZM206.938 38.636H205.594V46H203.956V43.354L204.488 43.69C204.198 43.9793 203.844 44.208 203.424 44.376C203.013 44.5347 202.546 44.614 202.024 44.614C201.445 44.614 200.932 44.516 200.484 44.32C200.045 44.124 199.699 43.8393 199.447 43.466C199.205 43.0927 199.083 42.64 199.083 42.108C199.083 41.2867 199.354 40.6707 199.895 40.26C200.437 39.84 201.16 39.63 202.065 39.63C202.345 39.63 202.602 39.644 202.836 39.672C203.078 39.7 203.297 39.7373 203.493 39.784L203.382 41.114C203.204 41.0767 203.022 41.0487 202.836 41.03C202.658 41.0113 202.467 41.002 202.261 41.002C201.795 41.002 201.421 41.1 201.141 41.296C200.871 41.492 200.735 41.7767 200.735 42.15C200.735 42.486 200.852 42.752 201.086 42.948C201.319 43.144 201.655 43.242 202.094 43.242C202.504 43.242 202.892 43.144 203.256 42.948C203.62 42.7427 203.9 42.472 204.096 42.136L203.956 43.102V38.636H198.537V37.292H206.938V38.636ZM216.473 38.636V46H214.821V41.226H213.491C213.248 41.226 213.038 41.2213 212.861 41.212C212.683 41.2027 212.548 41.184 212.455 41.156L211.867 40.68C212.371 40.9787 212.772 41.324 213.071 41.716C213.369 42.0987 213.519 42.542 213.519 43.046C213.519 43.4753 213.416 43.8393 213.211 44.138C213.015 44.4367 212.749 44.6607 212.413 44.81C212.086 44.9593 211.713 45.034 211.293 45.034C210.882 45.034 210.49 44.9593 210.117 44.81C209.743 44.6607 209.384 44.418 209.039 44.082C208.703 43.7367 208.381 43.2793 208.073 42.71C207.765 42.1313 207.461 41.4173 207.163 40.568L208.549 40.064C208.81 40.8573 209.071 41.52 209.333 42.052C209.603 42.584 209.883 42.9853 210.173 43.256C210.462 43.5267 210.761 43.662 211.069 43.662C211.311 43.662 211.512 43.5967 211.671 43.466C211.829 43.3353 211.909 43.116 211.909 42.808C211.909 42.4533 211.787 42.1267 211.545 41.828C211.302 41.52 210.985 41.24 210.593 40.988L211.041 39.91H214.821V38.636H206.841V37.292H217.817V38.636H216.473ZM214.956 37.39C214.788 36.8487 214.639 36.41 214.508 36.074C214.368 35.738 214.233 35.4813 214.102 35.304C213.972 35.1267 213.832 35.0053 213.682 34.94C213.524 34.8653 213.337 34.828 213.122 34.828C212.945 34.828 212.763 34.8513 212.576 34.898C212.38 34.9353 212.198 34.9867 212.03 35.052L211.624 33.722C211.848 33.638 212.096 33.5727 212.366 33.526C212.628 33.4793 212.889 33.456 213.15 33.456C213.57 33.456 213.934 33.5167 214.242 33.638C214.541 33.75 214.812 33.9553 215.054 34.254C215.288 34.5433 215.512 34.9447 215.726 35.458C215.932 35.962 216.156 36.606 216.398 37.39H214.956ZM225.066 38.636V46H223.428V41.73H221.58C221.076 41.73 220.684 41.8233 220.404 42.01C220.134 42.1967 219.998 42.4953 219.998 42.906C219.998 43.298 220.129 43.6807 220.39 44.054C220.652 44.418 221.034 44.838 221.538 45.314L220.348 46.28C219.714 45.6547 219.219 45.0667 218.864 44.516C218.519 43.956 218.346 43.354 218.346 42.71C218.346 41.9167 218.608 41.3333 219.13 40.96C219.662 40.5773 220.4 40.386 221.342 40.386H223.428V38.636H217.8V37.292H226.424V38.636H225.066ZM229.095 38.636V46H227.457V38.636H226.309V37.292H230.439V38.636H229.095Z" fill="white"/>
<path d="M308.5 31C302.977 31 298.5 35.477 298.5 41C298.5 46.523 302.977 51 308.5 51C314.023 51 318.5 46.523 318.5 41C318.5 35.477 314.023 31 308.5 31ZM309.5 47H307.5V45H309.5V47ZM309.5 42.859V44H307.5V42C307.5 41.7348 307.605 41.4804 307.793 41.2929C307.98 41.1054 308.235 41 308.5 41C309.603 41 310.5 40.103 310.5 39C310.5 37.897 309.603 37 308.5 37C307.397 37 306.5 37.897 306.5 39H304.5C304.5 37.9391 304.921 36.9217 305.672 36.1716C306.422 35.4214 307.439 35 308.5 35C309.561 35 310.578 35.4214 311.328 36.1716C312.079 36.9217 312.5 37.9391 312.5 39C312.499 39.8848 312.203 40.7441 311.66 41.4427C311.117 42.1412 310.357 42.6395 309.5 42.859Z" fill="white"/>
<path d="M337.994 38.636H333.444V41.366L333.248 41.058C333.453 40.862 333.701 40.7033 333.99 40.582C334.289 40.4607 334.625 40.4 334.998 40.4C335.707 40.4 336.263 40.61 336.664 41.03C337.075 41.4407 337.28 42.01 337.28 42.738C337.28 43.2047 337.191 43.6667 337.014 44.124C336.846 44.572 336.561 45.0387 336.16 45.524L334.732 44.712C335.012 44.404 335.231 44.096 335.39 43.788C335.558 43.4707 335.642 43.13 335.642 42.766C335.642 42.4207 335.563 42.164 335.404 41.996C335.245 41.8187 335.021 41.73 334.732 41.73C334.452 41.73 334.191 41.8187 333.948 41.996C333.715 42.164 333.528 42.3833 333.388 42.654L333.444 42.22V46H331.806V43.242L332.212 43.676C332.007 43.8627 331.783 44.026 331.54 44.166C331.307 44.2967 331.045 44.3993 330.756 44.474C330.476 44.5487 330.173 44.586 329.846 44.586C329.314 44.586 328.833 44.4927 328.404 44.306C327.984 44.11 327.653 43.83 327.41 43.466C327.167 43.0927 327.046 42.6353 327.046 42.094C327.046 41.31 327.307 40.7033 327.83 40.274C328.353 39.8447 329.081 39.63 330.014 39.63C330.257 39.63 330.49 39.644 330.714 39.672C330.938 39.6907 331.153 39.7233 331.358 39.77L331.218 41.114C331.069 41.0767 330.905 41.0487 330.728 41.03C330.551 41.0113 330.369 41.002 330.182 41.002C329.706 41.002 329.337 41.1 329.076 41.296C328.824 41.492 328.698 41.772 328.698 42.136C328.698 42.5 328.815 42.7753 329.048 42.962C329.281 43.1393 329.58 43.228 329.944 43.228C330.383 43.228 330.779 43.1067 331.134 42.864C331.489 42.6213 331.759 42.346 331.946 42.038L331.806 43.046V38.636H326.5V37.292H337.994V38.636ZM331.992 37.39C331.703 37.1007 331.46 36.886 331.264 36.746C331.068 36.5967 330.882 36.4987 330.704 36.452C330.527 36.4053 330.331 36.382 330.116 36.382C329.902 36.382 329.687 36.41 329.472 36.466C329.248 36.5127 329.038 36.578 328.842 36.662L328.422 35.542C328.646 35.4393 328.88 35.36 329.122 35.304C329.365 35.248 329.608 35.22 329.85 35.22C330.121 35.22 330.364 35.2527 330.578 35.318C330.784 35.3833 330.994 35.5 331.208 35.668C331.423 35.8267 331.675 36.0507 331.964 36.34L332.02 36.312C331.768 35.8453 331.544 35.4907 331.348 35.248C331.152 34.996 330.956 34.828 330.76 34.744C330.555 34.6507 330.322 34.604 330.06 34.604C329.892 34.604 329.724 34.6227 329.556 34.66C329.388 34.688 329.216 34.7347 329.038 34.8L328.66 33.666C328.847 33.6007 329.062 33.5493 329.304 33.512C329.538 33.4747 329.771 33.456 330.004 33.456C330.434 33.456 330.802 33.5167 331.11 33.638C331.418 33.7593 331.689 33.9693 331.922 34.268C332.156 34.5573 332.384 34.9587 332.608 35.472C332.832 35.976 333.075 36.6153 333.336 37.39H331.992ZM341.913 46.28C341.167 45.5333 340.537 44.8473 340.023 44.222C339.51 43.5967 339.132 43.0693 338.889 42.64C338.749 42.388 338.647 42.1593 338.581 41.954C338.516 41.7487 338.483 41.5527 338.483 41.366C338.483 41.0953 338.563 40.876 338.721 40.708C338.889 40.54 339.123 40.456 339.421 40.456C339.739 40.456 340.023 40.5587 340.275 40.764C340.537 40.9693 340.793 41.2213 341.045 41.52L340.079 41.394C340.453 41.2167 340.709 40.9833 340.849 40.694C340.989 40.3953 341.059 40.064 341.059 39.7C341.059 39.4013 341.022 39.1307 340.947 38.888C340.882 38.636 340.793 38.4353 340.681 38.286L341.507 38.636H337.979V37.292H344.111V38.636H341.997L342.375 38.3C342.478 38.524 342.557 38.7667 342.613 39.028C342.679 39.28 342.711 39.5647 342.711 39.882C342.711 40.2553 342.651 40.5913 342.529 40.89C342.408 41.1887 342.245 41.45 342.039 41.674L341.899 41.842C341.722 42.0287 341.517 42.1967 341.283 42.346C341.059 42.486 340.789 42.6167 340.471 42.738V42.528C340.695 42.8173 340.947 43.1113 341.227 43.41C341.507 43.7087 341.806 44.012 342.123 44.32C342.45 44.628 342.786 44.9407 343.131 45.258L341.913 46.28ZM343.845 42.808C343.453 42.808 343.038 42.7613 342.599 42.668C342.161 42.5747 341.731 42.4113 341.311 42.178L341.787 41.058C342.17 41.198 342.515 41.3007 342.823 41.366C343.131 41.422 343.472 41.45 343.845 41.45C344.219 41.45 344.578 41.4173 344.923 41.352C345.269 41.2867 345.619 41.1747 345.973 41.016V42.444C345.665 42.5653 345.334 42.6587 344.979 42.724C344.625 42.78 344.247 42.808 343.845 42.808ZM345.203 46V38.636H343.719V37.292H348.185V38.636H346.841V46H345.203ZM345.343 37.39C345.175 36.8487 345.026 36.41 344.895 36.074C344.755 35.738 344.62 35.4813 344.489 35.304C344.358 35.1267 344.218 35.0053 344.069 34.94C343.91 34.8653 343.724 34.828 343.509 34.828C343.332 34.828 343.15 34.8513 342.963 34.898C342.767 34.9353 342.585 34.9867 342.417 35.052L342.011 33.722C342.235 33.638 342.482 33.5727 342.753 33.526C343.014 33.4793 343.276 33.456 343.537 33.456C343.957 33.456 344.321 33.5167 344.629 33.638C344.928 33.75 345.198 33.9553 345.441 34.254C345.674 34.5433 345.898 34.9447 346.113 35.458C346.318 35.962 346.542 36.606 346.785 37.39H345.343ZM362.198 38.636V46H360.546V41.226H359.216C358.974 41.226 358.764 41.2213 358.586 41.212C358.409 41.2027 358.274 41.184 358.18 41.156L357.592 40.68C358.096 40.9787 358.498 41.324 358.796 41.716C359.095 42.0987 359.244 42.542 359.244 43.046C359.244 43.4753 359.142 43.8393 358.936 44.138C358.74 44.4367 358.474 44.6607 358.138 44.81C357.812 44.9593 357.438 45.034 357.018 45.034C356.608 45.034 356.216 44.9593 355.842 44.81C355.469 44.6607 355.11 44.418 354.764 44.082C354.428 43.7367 354.106 43.2793 353.798 42.71C353.49 42.1313 353.187 41.4173 352.888 40.568L354.274 40.064C354.536 40.8573 354.797 41.52 355.058 42.052C355.329 42.584 355.609 42.9853 355.898 43.256C356.188 43.5267 356.486 43.662 356.794 43.662C357.037 43.662 357.238 43.5967 357.396 43.466C357.555 43.3353 357.634 43.116 357.634 42.808C357.634 42.4533 357.513 42.1267 357.27 41.828C357.028 41.52 356.71 41.24 356.318 40.988L356.766 39.91H360.546V38.636H352.566V37.292H363.542V38.636H362.198ZM360.472 37.39C360.323 37.0913 360.211 36.7927 360.136 36.494C360.062 36.1953 360.024 35.9107 360.024 35.64C360.024 34.9867 360.234 34.4593 360.654 34.058C361.074 33.6567 361.662 33.456 362.418 33.456C363.156 33.456 363.758 33.6193 364.224 33.946C364.7 34.2633 365.083 34.716 365.372 35.304C365.671 35.892 365.909 36.5873 366.086 37.39H364.574C364.388 36.5313 364.14 35.8873 363.832 35.458C363.534 35.0193 363.156 34.8 362.698 34.8C362.344 34.8 362.082 34.9027 361.914 35.108C361.746 35.304 361.662 35.5747 361.662 35.92C361.662 36.1627 361.704 36.41 361.788 36.662C361.863 36.9047 361.961 37.1473 362.082 37.39H360.472ZM366.212 38.636V46H364.574V38.636H363.426V37.292H367.556V38.636H366.212ZM374.73 38.636V46H373.092V41.73H371.244C370.74 41.73 370.348 41.8233 370.068 42.01C369.797 42.1967 369.662 42.4953 369.662 42.906C369.662 43.298 369.792 43.6807 370.054 44.054C370.315 44.418 370.698 44.838 371.202 45.314L370.012 46.28C369.377 45.6547 368.882 45.0667 368.528 44.516C368.182 43.956 368.01 43.354 368.01 42.71C368.01 41.9167 368.271 41.3333 368.794 40.96C369.326 40.5773 370.063 40.386 371.006 40.386H373.092V38.636H367.464V37.292H376.088V38.636H374.73ZM374.264 34.534C374.264 34.2727 374.353 34.0533 374.53 33.876C374.707 33.6987 374.922 33.61 375.174 33.61C375.426 33.61 375.641 33.6987 375.818 33.876C375.986 34.0533 376.07 34.2727 376.07 34.534C376.07 34.786 375.986 35.0053 375.818 35.192C375.641 35.3693 375.426 35.458 375.174 35.458C374.922 35.458 374.707 35.3693 374.53 35.192C374.353 35.0053 374.264 34.786 374.264 34.534ZM373.228 37.39C373.06 36.8487 372.911 36.41 372.78 36.074C372.64 35.738 372.505 35.4813 372.374 35.304C372.243 35.1267 372.103 35.0053 371.954 34.94C371.795 34.8653 371.609 34.828 371.394 34.828C371.217 34.828 371.035 34.8513 370.848 34.898C370.652 34.9353 370.47 34.9867 370.302 35.052L369.896 33.722C370.12 33.638 370.367 33.5727 370.638 33.526C370.899 33.4793 371.161 33.456 371.422 33.456C371.842 33.456 372.206 33.5167 372.514 33.638C372.813 33.75 373.083 33.9553 373.326 34.254C373.559 34.5433 373.783 34.9447 373.998 35.458C374.203 35.962 374.427 36.606 374.67 37.39H373.228Z" fill="white"/>
</g>
<defs>
<filter id="filter0_d_24266_198441" x="-4" y="0" width="420" height="82" filterUnits="userSpaceOnUse" color-interpolation-filters="sRGB">
<feFlood flood-opacity="0" result="BackgroundImageFix"/>
<feColorMatrix in="SourceAlpha" type="matrix" values="0 0 0 0 0 0 0 0 0 0 0 0 0 0 0 0 0 0 127 0" result="hardAlpha"/>
<feOffset/>
<feGaussianBlur stdDeviation="2"/>
<feComposite in2="hardAlpha" operator="out"/>
<feColorMatrix type="matrix" values="0 0 0 0 1 0 0 0 0 1 0 0 0 0 1 0 0 0 0.2 0"/>
<feBlend mode="normal" in2="BackgroundImageFix" result="effect1_dropShadow_24266_198441"/>
<feBlend mode="normal" in="SourceGraphic" in2="effect1_dropShadow_24266_198441" result="shape"/>
</filter>
<linearGradient id="paint0_linear_24266_198441" x1="16.5" y1="41" x2="118.5" y2="41" gradientUnits="userSpaceOnUse">
<stop stop-color="#B31232"/>
<stop offset="1" stop-color="#FF6B2C"/>
</linearGradient>
</defs>
</svg>
