<svg width="18" height="18" viewBox="0 0 18 18" fill="none" xmlns="http://www.w3.org/2000/svg">
<path d="M16.1527 7.39258V14.3785C16.1527 14.7514 16.0046 15.1091 15.7409 15.3728C15.4771 15.6366 15.1194 15.7847 14.7465 15.7847H3.25391C2.88095 15.7847 2.52326 15.6366 2.25954 15.3728C1.99581 15.1091 1.84766 14.7514 1.84766 14.3785V7.39258H16.1527Z" fill="#FEDB41"/>
<path d="M13.1715 3.4707H14.7465C15.1194 3.4707 15.4771 3.61886 15.7409 3.88258C16.0046 4.14631 16.1527 4.50399 16.1527 4.87695V7.39344H1.84766V4.87695C1.84766 4.50399 1.99581 4.14631 2.25954 3.88258C2.52326 3.61886 2.88095 3.4707 3.25391 3.4707H13.1715Z" fill="#00ACEA"/>
<path d="M11.5916 10.6377C11.8092 11.7589 11.1167 13.2558 9.06564 14.0869C9.02341 14.1043 8.97604 14.1043 8.93381 14.0869C6.88947 13.2755 6.19056 11.7719 6.40818 10.6377C6.55302 9.87273 7.0874 9.38477 7.77963 9.38477C8.16881 9.38477 8.58435 9.54297 8.9999 9.85305C9.40877 9.55633 9.83064 9.39777 10.2131 9.39777C10.9057 9.39777 11.4397 9.88574 11.5916 10.6377Z" fill="#D7443E"/>
<path d="M4.98584 5.0066C4.91125 5.0066 4.83971 4.97697 4.78697 4.92423C4.73422 4.87148 4.70459 4.79994 4.70459 4.72535V2.21484C4.70459 2.14025 4.73422 2.06871 4.78697 2.01597C4.83971 1.96323 4.91125 1.93359 4.98584 1.93359C5.06043 1.93359 5.13197 1.96323 5.18471 2.01597C5.23746 2.06871 5.26709 2.14025 5.26709 2.21484V4.72535C5.26709 4.79994 5.23746 4.87148 5.18471 4.92423C5.13197 4.97697 5.06043 5.0066 4.98584 5.0066ZM13.1713 5.0066C13.0967 5.0066 13.0251 4.97697 12.9724 4.92423C12.9197 4.87148 12.89 4.79994 12.89 4.72535V2.21484C12.89 2.14025 12.9197 2.06871 12.9724 2.01597C13.0251 1.96323 13.0967 1.93359 13.1713 1.93359C13.2459 1.93359 13.3174 1.96323 13.3701 2.01597C13.4229 2.06871 13.4525 2.14025 13.4525 2.21484V4.72535C13.4525 4.79994 13.4229 4.87148 13.3701 4.92423C13.3174 4.97697 13.2459 5.0066 13.1713 5.0066Z" fill="#FEDB41"/>
</svg>
