<svg width="360" height="340" viewBox="0 0 360 340" fill="none" xmlns="http://www.w3.org/2000/svg">
<rect width="360" height="340" rx="12" fill="#D5FDE7"/>
<g filter="url(#filter0_d_23777_169459)">
<rect x="6" y="44" width="348" height="290" rx="8" fill="white"/>
</g>
<rect x="18" y="268" width="324" height="54" rx="8" fill="url(#paint0_linear_23777_169459)"/>
<path d="M142.155 290.532V300H140.031V290.532H138.843V288.804H143.901V290.532H142.155ZM134.649 288.624C135.381 288.624 135.975 288.75 136.431 289.002C136.899 289.242 137.235 289.572 137.439 289.992C137.655 290.4 137.763 290.856 137.763 291.36C137.763 292.26 137.409 292.986 136.701 293.538C136.005 294.09 134.931 294.42 133.479 294.528L133.155 292.89C133.839 292.818 134.361 292.722 134.721 292.602C135.093 292.47 135.351 292.308 135.495 292.116C135.639 291.924 135.711 291.696 135.711 291.432C135.711 291.096 135.597 290.838 135.369 290.658C135.153 290.478 134.841 290.388 134.433 290.388C134.061 290.388 133.689 290.442 133.317 290.55C132.945 290.658 132.573 290.82 132.201 291.036L131.607 289.38C132.039 289.14 132.507 288.954 133.011 288.822C133.527 288.69 134.073 288.624 134.649 288.624ZM138.051 296.076C138.051 297 137.745 297.726 137.133 298.254C136.533 298.77 135.735 299.028 134.739 299.028C133.971 299.028 133.275 298.872 132.651 298.56C132.039 298.236 131.469 297.702 130.941 296.958C130.413 296.214 129.891 295.194 129.375 293.898L131.085 293.106C131.601 294.498 132.123 295.536 132.651 296.22C133.179 296.904 133.797 297.246 134.505 297.246C134.973 297.246 135.345 297.126 135.621 296.886C135.897 296.646 136.035 296.298 136.035 295.842C136.035 295.398 135.873 295.002 135.549 294.654C135.225 294.294 134.823 293.976 134.343 293.7L135.351 293.304L136.413 293.232C136.593 293.364 136.773 293.52 136.953 293.7C137.145 293.88 137.301 294.066 137.421 294.258L137.601 294.582C137.745 294.798 137.853 295.032 137.925 295.284C138.009 295.536 138.051 295.8 138.051 296.076ZM138.249 293.664C138.693 293.664 139.137 293.622 139.581 293.538C140.025 293.442 140.469 293.286 140.913 293.07L140.985 294.87C140.613 295.038 140.235 295.158 139.851 295.23C139.467 295.302 139.077 295.338 138.681 295.338C138.321 295.338 137.955 295.308 137.583 295.248C137.211 295.176 136.863 295.092 136.539 294.996L136.233 293.682L136.395 293.43C136.671 293.502 136.965 293.562 137.277 293.61C137.601 293.646 137.925 293.664 138.249 293.664ZM146.865 288.624C147.645 288.624 148.269 288.756 148.737 289.02C149.205 289.284 149.541 289.668 149.745 290.172C149.961 290.664 150.069 291.252 150.069 291.936V294.132H153.273V290.532H151.311V288.804H157.125V290.532H155.397V300H153.273V295.878H150.069V296.31C150.069 296.766 149.967 297.102 149.763 297.318C149.559 297.522 149.289 297.624 148.953 297.624C148.677 297.624 148.389 297.54 148.089 297.372C147.801 297.204 147.531 296.994 147.279 296.742C147.039 296.478 146.841 296.202 146.685 295.914C146.541 295.614 146.469 295.332 146.469 295.068C146.469 294.9 146.505 294.744 146.577 294.6C146.649 294.456 146.781 294.342 146.973 294.258C147.165 294.174 147.429 294.132 147.765 294.132L148.017 294.222V291.864C148.017 291.276 147.933 290.838 147.765 290.55C147.597 290.262 147.309 290.118 146.901 290.118C146.613 290.118 146.391 290.19 146.235 290.334C146.091 290.478 146.019 290.664 146.019 290.892C146.019 291.168 146.121 291.378 146.325 291.522C146.541 291.666 146.865 291.762 147.297 291.81L147.099 293.268C146.223 293.22 145.509 292.992 144.957 292.584C144.417 292.176 144.147 291.606 144.147 290.874C144.147 290.118 144.399 289.554 144.903 289.182C145.419 288.81 146.073 288.624 146.865 288.624ZM152.774 288.93C152.582 288.546 152.438 288.162 152.342 287.778C152.246 287.394 152.198 287.028 152.198 286.68C152.198 285.84 152.468 285.162 153.008 284.646C153.548 284.13 154.304 283.872 155.276 283.872C156.224 283.872 156.998 284.082 157.598 284.502C158.21 284.91 158.702 285.492 159.074 286.248C159.458 287.004 159.764 287.898 159.992 288.93H158.048C157.808 287.826 157.49 286.998 157.094 286.446C156.71 285.882 156.224 285.6 155.636 285.6C155.18 285.6 154.844 285.732 154.628 285.996C154.412 286.248 154.304 286.596 154.304 287.04C154.304 287.352 154.358 287.67 154.466 287.994C154.562 288.306 154.688 288.618 154.844 288.93H152.774ZM160.154 290.532V300H158.048V290.532H156.572V288.804H161.882V290.532H160.154ZM178.183 290.532V300H176.077V290.532H174.691V288.804H179.911V290.532H178.183ZM169.039 297.192C168.439 297.192 167.947 297.054 167.563 296.778C167.179 296.49 166.987 296.094 166.987 295.59C166.987 295.194 167.119 294.882 167.383 294.654C167.647 294.426 167.989 294.312 168.409 294.312C168.793 294.312 169.135 294.402 169.435 294.582C169.735 294.75 170.053 295.026 170.389 295.41L170.605 295.77C171.193 296.25 171.745 296.778 172.261 297.354C172.789 297.93 173.287 298.524 173.755 299.136L171.991 300.252C171.379 299.376 170.803 298.608 170.263 297.948C169.735 297.276 169.243 296.712 168.787 296.256L168.823 295.338C169.519 295.278 170.113 295.104 170.605 294.816C171.109 294.528 171.499 294.144 171.775 293.664C172.051 293.184 172.189 292.632 172.189 292.008C172.189 291.432 172.069 290.988 171.829 290.676C171.589 290.364 171.241 290.208 170.785 290.208C170.461 290.208 170.203 290.298 170.011 290.478C169.831 290.646 169.741 290.856 169.741 291.108C169.741 291.432 169.885 291.684 170.173 291.864C170.461 292.032 170.863 292.14 171.379 292.188L170.875 293.556C169.879 293.46 169.117 293.196 168.589 292.764C168.073 292.332 167.815 291.75 167.815 291.018C167.815 290.298 168.061 289.722 168.553 289.29C169.057 288.846 169.777 288.624 170.713 288.624C171.469 288.624 172.111 288.774 172.639 289.074C173.167 289.362 173.569 289.77 173.845 290.298C174.121 290.826 174.259 291.45 174.259 292.17C174.259 292.902 174.121 293.562 173.845 294.15C173.569 294.738 173.167 295.248 172.639 295.68C172.123 296.112 171.499 296.466 170.767 296.742L170.461 296.904C170.197 297 169.951 297.078 169.723 297.138C169.495 297.186 169.267 297.204 169.039 297.192ZM182.932 290.532V300H180.826V290.532H179.35V288.804H184.66V290.532H182.932ZM185.552 288.93C185.396 288.654 185.264 288.36 185.156 288.048C185.048 287.736 184.994 287.376 184.994 286.968C184.994 285.996 185.378 285.24 186.146 284.7C186.914 284.148 187.97 283.872 189.314 283.872C190.646 283.872 191.882 284.1 193.022 284.556C194.162 285 195.182 285.606 196.082 286.374C196.994 287.13 197.762 287.982 198.386 288.93H196.226C195.638 288.222 194.996 287.622 194.3 287.13C193.616 286.638 192.89 286.266 192.122 286.014C191.366 285.75 190.58 285.618 189.764 285.618C188.9 285.618 188.24 285.78 187.784 286.104C187.34 286.416 187.118 286.854 187.118 287.418C187.118 287.742 187.172 288.03 187.28 288.282C187.388 288.522 187.514 288.738 187.658 288.93H185.552ZM187.694 290.532V300H185.588V290.532H184.112V288.804H189.422V290.532H187.694ZM198.775 290.532V300H196.651V295.878H193.105V296.31C193.105 296.766 193.003 297.102 192.799 297.318C192.595 297.522 192.325 297.624 191.989 297.624C191.725 297.624 191.443 297.54 191.143 297.372C190.855 297.204 190.585 296.994 190.333 296.742C190.081 296.478 189.877 296.202 189.721 295.914C189.565 295.614 189.487 295.332 189.487 295.068C189.487 294.816 189.577 294.6 189.757 294.42C189.937 294.228 190.273 294.132 190.765 294.132L190.981 294.15V290.532H188.875V288.804H200.503V290.532H198.775ZM196.651 290.532H193.105V294.132H196.651V290.532ZM199.93 290.532V288.804H213.07V290.532H211.324V300H209.218V293.376L210.244 294.24C210.052 294.156 209.86 294.102 209.668 294.078C209.488 294.054 209.308 294.042 209.128 294.042C208.768 294.042 208.45 294.132 208.174 294.312C207.898 294.48 207.664 294.762 207.472 295.158C207.292 295.554 207.154 296.076 207.058 296.724L205.024 296.22C205.18 294.936 205.606 293.97 206.302 293.322C206.998 292.674 207.91 292.35 209.038 292.35C209.278 292.35 209.53 292.368 209.794 292.404C210.07 292.44 210.286 292.482 210.442 292.53L210.496 292.926L209.218 292.584V290.532H199.93ZM205.96 294.924C205.756 294.672 205.516 294.468 205.24 294.312C204.976 294.144 204.652 294.06 204.268 294.06C203.788 294.06 203.41 294.204 203.134 294.492C202.87 294.768 202.738 295.14 202.738 295.608C202.738 296.196 202.966 296.736 203.422 297.228C203.89 297.708 204.658 298.23 205.726 298.794L204.574 300.36C203.35 299.724 202.384 299.01 201.676 298.218C200.98 297.414 200.632 296.496 200.632 295.464C200.632 294.408 200.944 293.622 201.568 293.106C202.192 292.578 202.984 292.314 203.944 292.314C204.568 292.314 205.114 292.422 205.582 292.638C206.05 292.854 206.458 293.154 206.806 293.538L205.96 294.924ZM220.273 296.256C219.781 295.908 219.409 295.542 219.157 295.158C218.905 294.774 218.779 294.366 218.779 293.934C218.779 293.238 219.031 292.704 219.535 292.332C220.051 291.96 220.795 291.774 221.767 291.774H224.089V290.532H217.699V288.804H227.905V290.532H226.177V293.466H222.091C221.659 293.466 221.341 293.532 221.137 293.664C220.945 293.796 220.849 293.994 220.849 294.258C220.849 294.462 220.921 294.66 221.065 294.852C221.209 295.032 221.413 295.2 221.677 295.356L220.273 296.256ZM223.837 298.992C224.161 298.824 224.407 298.632 224.575 298.416C224.755 298.188 224.845 297.954 224.845 297.714C224.845 297.39 224.707 297.126 224.431 296.922C224.155 296.706 223.711 296.598 223.099 296.598C222.379 296.598 221.827 296.742 221.443 297.03C221.071 297.306 220.885 297.69 220.885 298.182C220.885 298.59 221.029 298.956 221.317 299.28C221.617 299.592 222.067 299.892 222.667 300.18C223.279 300.468 224.035 300.78 224.935 301.116L224.017 302.79C222.901 302.418 221.953 302.016 221.173 301.584C220.393 301.152 219.799 300.654 219.391 300.09C218.983 299.526 218.779 298.89 218.779 298.182C218.779 297.426 218.977 296.808 219.373 296.328C219.769 295.836 220.297 295.476 220.957 295.248C221.617 295.02 222.361 294.906 223.189 294.906C224.065 294.906 224.779 295.032 225.331 295.284C225.883 295.536 226.285 295.872 226.537 296.292C226.801 296.712 226.933 297.168 226.933 297.66C226.933 298.14 226.825 298.584 226.609 298.992C226.393 299.388 226.027 299.766 225.511 300.126L223.837 298.992ZM230.931 290.532V300H228.825V290.532H227.349V288.804H232.659V290.532H230.931ZM229.915 285.258C229.915 284.922 230.029 284.64 230.257 284.412C230.485 284.184 230.761 284.07 231.085 284.07C231.409 284.07 231.685 284.184 231.913 284.412C232.129 284.64 232.237 284.922 232.237 285.258C232.237 285.582 232.129 285.864 231.913 286.104C231.685 286.332 231.409 286.446 231.085 286.446C230.761 286.446 230.485 286.332 230.257 286.104C230.029 285.864 229.915 285.582 229.915 285.258ZM228.583 288.93C228.367 288.234 228.175 287.67 228.007 287.238C227.827 286.806 227.653 286.476 227.485 286.248C227.317 286.02 227.137 285.864 226.945 285.78C226.741 285.684 226.501 285.636 226.225 285.636C225.997 285.636 225.763 285.666 225.523 285.726C225.271 285.774 225.037 285.84 224.821 285.924L224.299 284.214C224.587 284.106 224.905 284.022 225.253 283.962C225.589 283.902 225.925 283.872 226.261 283.872C226.801 283.872 227.269 283.95 227.665 284.106C228.049 284.25 228.397 284.514 228.709 284.898C229.009 285.27 229.297 285.786 229.573 286.446C229.837 287.094 230.125 287.922 230.437 288.93H228.583Z" fill="white"/>
<path d="M105.839 74.16C108.319 74.16 110.215 74.848 111.527 76.224C112.855 77.6 113.519 79.552 113.519 82.08C113.519 84.608 112.855 86.56 111.527 87.936C110.215 89.312 108.319 90 105.839 90H99.1192V74.16H105.839ZM105.431 86.88C106.775 86.88 107.751 86.48 108.359 85.68C108.983 84.864 109.295 83.664 109.295 82.08C109.295 80.496 108.983 79.304 108.359 78.504C107.751 77.688 106.775 77.28 105.431 77.28H103.247V86.88H105.431ZM122.613 82.392C122.613 81.832 122.453 81.392 122.133 81.072C121.829 80.736 121.413 80.568 120.885 80.568C120.357 80.568 119.901 80.704 119.517 80.976C119.149 81.232 118.893 81.696 118.749 82.368L115.293 81.552C115.517 80.4 116.109 79.48 117.069 78.792C118.029 78.104 119.381 77.76 121.125 77.76C122.293 77.76 123.285 77.936 124.101 78.288C124.933 78.624 125.565 79.136 125.997 79.824C126.445 80.496 126.669 81.328 126.669 82.32V86.712C126.669 87.336 126.949 87.648 127.509 87.648C127.797 87.648 128.029 87.616 128.205 87.552L127.965 89.88C127.485 90.104 126.901 90.216 126.213 90.216C125.589 90.216 125.037 90.12 124.557 89.928C124.077 89.72 123.701 89.416 123.429 89.016C123.157 88.6 123.021 88.08 123.021 87.456V87.312L123.477 87.144C123.477 87.832 123.269 88.408 122.853 88.872C122.453 89.336 121.925 89.68 121.269 89.904C120.629 90.128 119.957 90.24 119.253 90.24C118.437 90.24 117.725 90.112 117.117 89.856C116.509 89.6 116.037 89.232 115.701 88.752C115.381 88.256 115.221 87.648 115.221 86.928C115.221 86.064 115.477 85.352 115.989 84.792C116.517 84.216 117.341 83.816 118.461 83.592L122.997 82.656L122.973 84.816L120.669 85.296C120.189 85.392 119.829 85.536 119.589 85.728C119.365 85.904 119.253 86.176 119.253 86.544C119.253 86.896 119.381 87.16 119.637 87.336C119.893 87.512 120.197 87.6 120.549 87.6C120.821 87.6 121.077 87.56 121.317 87.48C121.573 87.4 121.797 87.28 121.989 87.12C122.181 86.944 122.333 86.728 122.445 86.472C122.557 86.216 122.613 85.912 122.613 85.56V82.392ZM131.856 76.608C131.024 76.608 130.416 76.456 130.032 76.152C129.664 75.832 129.48 75.336 129.48 74.664C129.48 73.976 129.664 73.48 130.032 73.176C130.416 72.856 131.024 72.696 131.856 72.696C132.672 72.696 133.272 72.856 133.656 73.176C134.04 73.48 134.232 73.976 134.232 74.664C134.232 75.336 134.04 75.832 133.656 76.152C133.272 76.456 132.672 76.608 131.856 76.608ZM133.896 78V90H129.816V78H133.896ZM140.832 72.912V85.92C140.832 86.448 140.92 86.824 141.096 87.048C141.272 87.272 141.568 87.384 141.984 87.384C142.224 87.384 142.424 87.368 142.584 87.336C142.744 87.304 142.936 87.256 143.16 87.192L142.896 89.64C142.608 89.816 142.232 89.96 141.768 90.072C141.304 90.184 140.848 90.24 140.4 90.24C139.12 90.24 138.192 89.944 137.616 89.352C137.04 88.76 136.752 87.792 136.752 86.448V72.912H140.832ZM156.325 78L151.957 90C151.509 91.264 151.021 92.272 150.493 93.024C149.965 93.776 149.341 94.32 148.621 94.656C147.901 94.992 147.037 95.16 146.029 95.16C145.357 95.16 144.741 95.088 144.181 94.944C143.621 94.8 143.133 94.6 142.717 94.344L143.533 91.584C143.821 91.792 144.125 91.936 144.445 92.016C144.765 92.112 145.173 92.16 145.669 92.16C146.133 92.16 146.509 92.08 146.797 91.92C147.101 91.76 147.341 91.456 147.517 91.008L147.829 90.264L146.437 87L142.837 78H147.325L149.173 84.84L149.749 87.384L150.421 84.744L152.269 78H156.325ZM177.291 74.16V77.352H172.131V90H168.003V77.352H162.819V74.16H177.291ZM183.949 82.392C183.949 81.832 183.789 81.392 183.469 81.072C183.165 80.736 182.749 80.568 182.221 80.568C181.693 80.568 181.237 80.704 180.853 80.976C180.485 81.232 180.229 81.696 180.085 82.368L176.629 81.552C176.853 80.4 177.445 79.48 178.405 78.792C179.365 78.104 180.717 77.76 182.461 77.76C183.629 77.76 184.621 77.936 185.437 78.288C186.269 78.624 186.901 79.136 187.333 79.824C187.781 80.496 188.005 81.328 188.005 82.32V86.712C188.005 87.336 188.285 87.648 188.845 87.648C189.133 87.648 189.365 87.616 189.541 87.552L189.301 89.88C188.821 90.104 188.237 90.216 187.549 90.216C186.925 90.216 186.373 90.12 185.893 89.928C185.413 89.72 185.037 89.416 184.765 89.016C184.493 88.6 184.357 88.08 184.357 87.456V87.312L184.813 87.144C184.813 87.832 184.605 88.408 184.189 88.872C183.789 89.336 183.261 89.68 182.605 89.904C181.965 90.128 181.293 90.24 180.589 90.24C179.773 90.24 179.061 90.112 178.453 89.856C177.845 89.6 177.373 89.232 177.037 88.752C176.717 88.256 176.557 87.648 176.557 86.928C176.557 86.064 176.813 85.352 177.325 84.792C177.853 84.216 178.677 83.816 179.797 83.592L184.333 82.656L184.309 84.816L182.005 85.296C181.525 85.392 181.165 85.536 180.925 85.728C180.701 85.904 180.589 86.176 180.589 86.544C180.589 86.896 180.717 87.16 180.973 87.336C181.229 87.512 181.533 87.6 181.885 87.6C182.157 87.6 182.413 87.56 182.653 87.48C182.909 87.4 183.133 87.28 183.325 87.12C183.517 86.944 183.669 86.728 183.781 86.472C183.893 86.216 183.949 85.912 183.949 85.56V82.392ZM191.152 90V78H194.8L194.92 80.328C195.304 79.48 195.84 78.84 196.528 78.408C197.232 77.976 198.04 77.76 198.952 77.76C199.848 77.76 200.624 77.96 201.28 78.36C201.936 78.76 202.424 79.352 202.744 80.136C203 79.608 203.328 79.168 203.728 78.816C204.144 78.464 204.616 78.2 205.144 78.024C205.672 77.848 206.216 77.76 206.776 77.76C207.576 77.76 208.28 77.92 208.888 78.24C209.496 78.544 209.976 79.016 210.328 79.656C210.696 80.28 210.88 81.064 210.88 82.008V90H206.8V82.944C206.8 82.176 206.648 81.64 206.344 81.336C206.056 81.032 205.664 80.88 205.168 80.88C204.768 80.88 204.4 80.984 204.064 81.192C203.744 81.384 203.496 81.68 203.32 82.08C203.144 82.48 203.056 82.984 203.056 83.592V90H198.976V82.944C198.976 82.176 198.824 81.64 198.52 81.336C198.216 81.032 197.824 80.88 197.344 80.88C196.976 80.88 196.624 80.976 196.288 81.168C195.968 81.36 195.712 81.664 195.52 82.08C195.328 82.48 195.232 83.008 195.232 83.664V90H191.152ZM221.449 90.24C220.665 90.24 219.969 90.064 219.361 89.712C218.769 89.36 218.281 88.88 217.897 88.272C217.513 87.648 217.265 86.944 217.153 86.16L217.537 85.656L217.321 90H213.745V72.912H217.825V81.768L217.441 81.192C217.665 80.2 218.121 79.384 218.809 78.744C219.497 78.088 220.425 77.76 221.593 77.76C222.521 77.76 223.345 78.008 224.065 78.504C224.801 79 225.369 79.72 225.769 80.664C226.185 81.592 226.393 82.72 226.393 84.048C226.393 85.344 226.185 86.456 225.769 87.384C225.353 88.312 224.777 89.024 224.041 89.52C223.305 90 222.441 90.24 221.449 90.24ZM220.033 87.24C220.737 87.24 221.289 86.984 221.689 86.472C222.089 85.944 222.289 85.12 222.289 84C222.289 82.88 222.089 82.064 221.689 81.552C221.289 81.024 220.737 80.76 220.033 80.76C219.569 80.76 219.169 80.896 218.833 81.168C218.513 81.424 218.265 81.792 218.089 82.272C217.913 82.752 217.825 83.336 217.825 84.024C217.825 84.712 217.913 85.296 218.089 85.776C218.265 86.256 218.521 86.624 218.857 86.88C219.193 87.12 219.585 87.24 220.033 87.24ZM234.504 77.76C235.768 77.76 236.872 78.008 237.816 78.504C238.776 78.984 239.52 79.696 240.048 80.64C240.592 81.568 240.864 82.688 240.864 84C240.864 85.312 240.592 86.44 240.048 87.384C239.52 88.312 238.776 89.024 237.816 89.52C236.872 90 235.768 90.24 234.504 90.24C233.272 90.24 232.176 90 231.216 89.52C230.256 89.024 229.504 88.312 228.96 87.384C228.432 86.44 228.168 85.312 228.168 84C228.168 82.688 228.432 81.568 228.96 80.64C229.504 79.696 230.256 78.984 231.216 78.504C232.176 78.008 233.272 77.76 234.504 77.76ZM234.504 80.664C234.04 80.664 233.64 80.776 233.304 81C232.968 81.224 232.712 81.584 232.536 82.08C232.36 82.576 232.272 83.216 232.272 84C232.272 84.784 232.36 85.424 232.536 85.92C232.712 86.4 232.968 86.76 233.304 87C233.64 87.224 234.04 87.336 234.504 87.336C234.984 87.336 235.392 87.224 235.728 87C236.064 86.76 236.32 86.4 236.496 85.92C236.672 85.424 236.76 84.784 236.76 84C236.76 83.216 236.672 82.576 236.496 82.08C236.32 81.584 236.064 81.224 235.728 81C235.392 80.776 234.984 80.664 234.504 80.664ZM247.191 72.912V85.92C247.191 86.448 247.279 86.824 247.455 87.048C247.631 87.272 247.927 87.384 248.343 87.384C248.583 87.384 248.783 87.368 248.943 87.336C249.103 87.304 249.295 87.256 249.519 87.192L249.255 89.64C248.967 89.816 248.591 89.96 248.127 90.072C247.663 90.184 247.207 90.24 246.759 90.24C245.479 90.24 244.551 89.944 243.975 89.352C243.399 88.76 243.111 87.792 243.111 86.448V72.912H247.191ZM257.894 82.392C257.894 81.832 257.734 81.392 257.414 81.072C257.11 80.736 256.694 80.568 256.166 80.568C255.638 80.568 255.182 80.704 254.798 80.976C254.43 81.232 254.174 81.696 254.03 82.368L250.574 81.552C250.798 80.4 251.39 79.48 252.35 78.792C253.31 78.104 254.662 77.76 256.406 77.76C257.574 77.76 258.566 77.936 259.382 78.288C260.214 78.624 260.846 79.136 261.278 79.824C261.726 80.496 261.95 81.328 261.95 82.32V86.712C261.95 87.336 262.23 87.648 262.79 87.648C263.078 87.648 263.31 87.616 263.486 87.552L263.246 89.88C262.766 90.104 262.182 90.216 261.494 90.216C260.87 90.216 260.318 90.12 259.838 89.928C259.358 89.72 258.982 89.416 258.71 89.016C258.438 88.6 258.302 88.08 258.302 87.456V87.312L258.758 87.144C258.758 87.832 258.55 88.408 258.134 88.872C257.734 89.336 257.206 89.68 256.55 89.904C255.91 90.128 255.238 90.24 254.534 90.24C253.718 90.24 253.006 90.112 252.398 89.856C251.79 89.6 251.318 89.232 250.982 88.752C250.662 88.256 250.502 87.648 250.502 86.928C250.502 86.064 250.758 85.352 251.27 84.792C251.798 84.216 252.622 83.816 253.742 83.592L258.278 82.656L258.254 84.816L255.95 85.296C255.47 85.392 255.11 85.536 254.87 85.728C254.646 85.904 254.534 86.176 254.534 86.544C254.534 86.896 254.662 87.16 254.918 87.336C255.174 87.512 255.478 87.6 255.83 87.6C256.102 87.6 256.358 87.56 256.598 87.48C256.854 87.4 257.078 87.28 257.27 87.12C257.462 86.944 257.614 86.728 257.726 86.472C257.838 86.216 257.894 85.912 257.894 85.56V82.392Z" fill="black"/>
<path opacity="0.7" d="M127.401 111.636L127.723 111.314C127.817 111.538 127.891 111.771 127.947 112.014C128.003 112.257 128.031 112.541 128.031 112.868C128.031 113.353 127.929 113.783 127.723 114.156C127.518 114.52 127.229 114.837 126.855 115.108C126.482 115.369 126.043 115.593 125.539 115.78L125.525 115.5C125.805 115.789 126.099 116.088 126.407 116.396C126.725 116.695 127.056 116.993 127.401 117.292C127.756 117.591 128.115 117.889 128.479 118.188L127.331 119.252C126.585 118.608 125.936 118.006 125.385 117.446C124.844 116.886 124.401 116.359 124.055 115.864C123.831 115.556 123.668 115.281 123.565 115.038C123.463 114.795 123.411 114.562 123.411 114.338C123.411 114.077 123.495 113.867 123.663 113.708C123.831 113.54 124.06 113.456 124.349 113.456C124.648 113.456 124.928 113.549 125.189 113.736C125.451 113.923 125.721 114.184 126.001 114.52L125.105 114.31C125.553 114.133 125.88 113.909 126.085 113.638C126.291 113.367 126.393 113.036 126.393 112.644C126.393 112.373 126.361 112.117 126.295 111.874C126.23 111.622 126.137 111.431 126.015 111.3L126.701 111.636H122.907V110.292H129.123V111.636H127.401ZM131.695 111.636V119H130.057V111.636H128.909V110.292H133.039V111.636H131.695ZM130.099 110.39C129.931 109.849 129.777 109.41 129.637 109.074C129.507 108.738 129.376 108.481 129.245 108.304C129.115 108.127 128.975 108.005 128.825 107.94C128.667 107.865 128.48 107.828 128.265 107.828C128.088 107.828 127.906 107.851 127.719 107.898C127.523 107.935 127.341 107.987 127.173 108.052L126.767 106.722C126.991 106.638 127.239 106.573 127.509 106.526C127.771 106.479 128.032 106.456 128.293 106.456C128.713 106.456 129.073 106.517 129.371 106.638C129.679 106.75 129.95 106.955 130.183 107.254C130.426 107.543 130.65 107.945 130.855 108.458C131.07 108.962 131.299 109.606 131.541 110.39H130.099ZM142.479 111.636V119H140.827V114.226H139.497C139.254 114.226 139.044 114.221 138.867 114.212C138.689 114.203 138.554 114.184 138.461 114.156L137.873 113.68C138.377 113.979 138.778 114.324 139.077 114.716C139.375 115.099 139.525 115.542 139.525 116.046C139.525 116.475 139.422 116.839 139.217 117.138C139.021 117.437 138.755 117.661 138.419 117.81C138.092 117.959 137.719 118.034 137.299 118.034C136.888 118.034 136.496 117.959 136.123 117.81C135.749 117.661 135.39 117.418 135.045 117.082C134.709 116.737 134.387 116.279 134.079 115.71C133.771 115.131 133.467 114.417 133.169 113.568L134.555 113.064C134.816 113.857 135.077 114.52 135.339 115.052C135.609 115.584 135.889 115.985 136.179 116.256C136.468 116.527 136.767 116.662 137.075 116.662C137.317 116.662 137.518 116.597 137.677 116.466C137.835 116.335 137.915 116.116 137.915 115.808C137.915 115.453 137.793 115.127 137.551 114.828C137.308 114.52 136.991 114.24 136.599 113.988L137.047 112.91H140.827V111.636H132.847V110.292H143.823V111.636H142.479ZM151.932 111.636L152.114 111.342C152.216 111.529 152.296 111.743 152.352 111.986C152.417 112.229 152.45 112.513 152.45 112.84C152.45 113.559 152.272 114.151 151.918 114.618C151.563 115.075 151.04 115.453 150.35 115.752L150.392 115.584C150.69 116.013 151.045 116.377 151.456 116.676C151.866 116.975 152.333 117.203 152.856 117.362C153.378 117.521 153.952 117.6 154.578 117.6C155.128 117.6 155.642 117.544 156.118 117.432C156.603 117.311 157.06 117.129 157.49 116.886L157.728 118.034C157.317 118.342 156.85 118.571 156.328 118.72C155.805 118.869 155.194 118.944 154.494 118.944C153.719 118.944 153.01 118.841 152.366 118.636C151.731 118.431 151.166 118.155 150.672 117.81C150.177 117.455 149.757 117.063 149.412 116.634C149.085 116.223 148.833 115.827 148.656 115.444C148.478 115.061 148.39 114.707 148.39 114.38C148.39 114.081 148.474 113.853 148.642 113.694C148.819 113.535 149.048 113.456 149.328 113.456C149.598 113.456 149.846 113.535 150.07 113.694C150.303 113.843 150.555 114.077 150.826 114.394H149.986C150.2 114.282 150.364 114.137 150.476 113.96C150.597 113.783 150.681 113.587 150.728 113.372C150.774 113.157 150.798 112.943 150.798 112.728C150.798 112.457 150.77 112.196 150.714 111.944C150.667 111.683 150.583 111.463 150.462 111.286L151.162 111.636H147.886V110.292H154.648V111.636H151.932ZM158.694 111.636V119H157.056V111.636H154.158V110.292H160.038V111.636H158.694ZM157.504 116.074C157.261 116.242 156.99 116.377 156.692 116.48C156.393 116.583 156.029 116.634 155.6 116.634C155.086 116.634 154.638 116.55 154.256 116.382C153.873 116.205 153.574 115.957 153.36 115.64C153.154 115.313 153.052 114.935 153.052 114.506C153.052 113.843 153.266 113.335 153.696 112.98C154.134 112.616 154.75 112.434 155.544 112.434C155.74 112.434 155.931 112.448 156.118 112.476C156.304 112.495 156.477 112.523 156.636 112.56L156.538 113.75C156.407 113.713 156.276 113.689 156.146 113.68C156.024 113.661 155.894 113.652 155.754 113.652C155.371 113.652 155.082 113.727 154.886 113.876C154.69 114.025 154.592 114.249 154.592 114.548C154.592 114.847 154.694 115.071 154.9 115.22C155.114 115.36 155.385 115.43 155.712 115.43C156.085 115.43 156.412 115.351 156.692 115.192C156.972 115.033 157.186 114.823 157.336 114.562L157.504 116.074ZM157.091 110.39C156.923 109.849 156.774 109.41 156.643 109.074C156.503 108.738 156.368 108.481 156.237 108.304C156.106 108.127 155.966 108.005 155.817 107.94C155.658 107.865 155.472 107.828 155.257 107.828C155.08 107.828 154.898 107.851 154.711 107.898C154.515 107.935 154.333 107.987 154.165 108.052L153.759 106.722C153.983 106.638 154.23 106.573 154.501 106.526C154.762 106.479 155.024 106.456 155.285 106.456C155.705 106.456 156.069 106.517 156.377 106.638C156.676 106.75 156.946 106.955 157.189 107.254C157.422 107.543 157.646 107.945 157.861 108.458C158.066 108.962 158.29 109.606 158.533 110.39H157.091ZM159.835 111.636V110.292H170.055V111.636H168.697V119H167.059V113.848L167.857 114.52C167.708 114.455 167.558 114.413 167.409 114.394C167.269 114.375 167.129 114.366 166.989 114.366C166.709 114.366 166.462 114.436 166.247 114.576C166.032 114.707 165.85 114.926 165.701 115.234C165.561 115.542 165.454 115.948 165.379 116.452L163.797 116.06C163.918 115.061 164.25 114.31 164.791 113.806C165.332 113.302 166.042 113.05 166.919 113.05C167.106 113.05 167.302 113.064 167.507 113.092C167.722 113.12 167.89 113.153 168.011 113.19L168.053 113.498L167.059 113.232V111.636H159.835ZM164.525 115.052C164.366 114.856 164.18 114.697 163.965 114.576C163.76 114.445 163.508 114.38 163.209 114.38C162.836 114.38 162.542 114.492 162.327 114.716C162.122 114.931 162.019 115.22 162.019 115.584C162.019 116.041 162.196 116.461 162.551 116.844C162.915 117.217 163.512 117.623 164.343 118.062L163.447 119.28C162.495 118.785 161.744 118.23 161.193 117.614C160.652 116.989 160.381 116.275 160.381 115.472C160.381 114.651 160.624 114.039 161.109 113.638C161.594 113.227 162.21 113.022 162.957 113.022C163.442 113.022 163.867 113.106 164.231 113.274C164.595 113.442 164.912 113.675 165.183 113.974L164.525 115.052ZM172.629 111.636V119H170.991V111.636H169.843V110.292H173.973V111.636H172.629ZM171.033 110.39C170.865 109.849 170.711 109.41 170.571 109.074C170.44 108.738 170.309 108.481 170.179 108.304C170.048 108.127 169.908 108.005 169.759 107.94C169.6 107.865 169.413 107.828 169.199 107.828C169.021 107.828 168.839 107.851 168.653 107.898C168.457 107.935 168.275 107.987 168.107 108.052L167.701 106.722C167.925 106.638 168.172 106.573 168.443 106.526C168.704 106.479 168.965 106.456 169.227 106.456C169.647 106.456 170.006 106.517 170.305 106.638C170.613 106.75 170.883 106.955 171.117 107.254C171.359 107.543 171.583 107.945 171.789 108.458C172.003 108.962 172.232 109.606 172.475 110.39H171.033ZM175.726 116.858C176.025 116.858 176.272 116.933 176.468 117.082C176.664 117.222 176.814 117.413 176.916 117.656C177.019 117.889 177.07 118.151 177.07 118.44C177.07 118.823 176.991 119.191 176.832 119.546C176.683 119.901 176.473 120.218 176.202 120.498C175.932 120.778 175.624 120.997 175.278 121.156L174.452 120.498C174.704 120.395 174.933 120.269 175.138 120.12C175.353 119.971 175.535 119.803 175.684 119.616C175.834 119.429 175.941 119.238 176.006 119.042L175.936 119C175.89 119.028 175.834 119.051 175.768 119.07C175.703 119.098 175.61 119.112 175.488 119.112C175.339 119.112 175.19 119.075 175.04 119C174.891 118.916 174.765 118.799 174.662 118.65C174.56 118.491 174.508 118.295 174.508 118.062C174.508 117.81 174.564 117.595 174.676 117.418C174.788 117.241 174.938 117.105 175.124 117.012C175.311 116.909 175.512 116.858 175.726 116.858ZM186.491 111.636L186.813 111.314C186.906 111.538 186.981 111.771 187.037 112.014C187.093 112.257 187.121 112.541 187.121 112.868C187.121 113.353 187.018 113.783 186.813 114.156C186.608 114.52 186.318 114.837 185.945 115.108C185.572 115.369 185.133 115.593 184.629 115.78L184.615 115.5C184.895 115.789 185.189 116.088 185.497 116.396C185.814 116.695 186.146 116.993 186.491 117.292C186.846 117.591 187.205 117.889 187.569 118.188L186.421 119.252C185.674 118.608 185.026 118.006 184.475 117.446C183.934 116.886 183.49 116.359 183.145 115.864C182.921 115.556 182.758 115.281 182.655 115.038C182.552 114.795 182.501 114.562 182.501 114.338C182.501 114.077 182.585 113.867 182.753 113.708C182.921 113.54 183.15 113.456 183.439 113.456C183.738 113.456 184.018 113.549 184.279 113.736C184.54 113.923 184.811 114.184 185.091 114.52L184.195 114.31C184.643 114.133 184.97 113.909 185.175 113.638C185.38 113.367 185.483 113.036 185.483 112.644C185.483 112.373 185.45 112.117 185.385 111.874C185.32 111.622 185.226 111.431 185.105 111.3L185.791 111.636H181.997V110.292H188.213V111.636H186.491ZM190.785 111.636V119H189.147V111.636H187.999V110.292H192.129V111.636H190.785ZM189.189 110.39C189.021 109.849 188.867 109.41 188.727 109.074C188.596 108.738 188.466 108.481 188.335 108.304C188.204 108.127 188.064 108.005 187.915 107.94C187.756 107.865 187.57 107.828 187.355 107.828C187.178 107.828 186.996 107.851 186.809 107.898C186.613 107.935 186.431 107.987 186.263 108.052L185.857 106.722C186.081 106.638 186.328 106.573 186.599 106.526C186.86 106.479 187.122 106.456 187.383 106.456C187.803 106.456 188.162 106.517 188.461 106.638C188.769 106.75 189.04 106.955 189.273 107.254C189.516 107.543 189.74 107.945 189.945 108.458C190.16 108.962 190.388 109.606 190.631 110.39H189.189ZM201.569 111.636V119H199.917V114.226H198.587C198.344 114.226 198.134 114.221 197.957 114.212C197.779 114.203 197.644 114.184 197.551 114.156L196.963 113.68C197.467 113.979 197.868 114.324 198.167 114.716C198.465 115.099 198.615 115.542 198.615 116.046C198.615 116.475 198.512 116.839 198.307 117.138C198.111 117.437 197.845 117.661 197.509 117.81C197.182 117.959 196.809 118.034 196.389 118.034C195.978 118.034 195.586 117.959 195.213 117.81C194.839 117.661 194.48 117.418 194.135 117.082C193.799 116.737 193.477 116.279 193.169 115.71C192.861 115.131 192.557 114.417 192.259 113.568L193.645 113.064C193.906 113.857 194.167 114.52 194.429 115.052C194.699 115.584 194.979 115.985 195.269 116.256C195.558 116.527 195.857 116.662 196.165 116.662C196.407 116.662 196.608 116.597 196.767 116.466C196.925 116.335 197.005 116.116 197.005 115.808C197.005 115.453 196.883 115.127 196.641 114.828C196.398 114.52 196.081 114.24 195.689 113.988L196.137 112.91H199.917V111.636H191.937V110.292H202.913V111.636H201.569ZM216.608 111.636V119H214.956V114.226H213.626C213.383 114.226 213.173 114.221 212.996 114.212C212.818 114.203 212.683 114.184 212.59 114.156L212.002 113.68C212.506 113.979 212.907 114.324 213.206 114.716C213.504 115.099 213.654 115.542 213.654 116.046C213.654 116.475 213.551 116.839 213.346 117.138C213.15 117.437 212.884 117.661 212.548 117.81C212.221 117.959 211.848 118.034 211.428 118.034C211.017 118.034 210.625 117.959 210.252 117.81C209.878 117.661 209.519 117.418 209.174 117.082C208.838 116.737 208.516 116.279 208.208 115.71C207.9 115.131 207.596 114.417 207.298 113.568L208.684 113.064C208.945 113.857 209.206 114.52 209.468 115.052C209.738 115.584 210.018 115.985 210.308 116.256C210.597 116.527 210.896 116.662 211.204 116.662C211.446 116.662 211.647 116.597 211.806 116.466C211.964 116.335 212.044 116.116 212.044 115.808C212.044 115.453 211.922 115.127 211.68 114.828C211.437 114.52 211.12 114.24 210.728 113.988L211.176 112.91H214.956V111.636H206.976V110.292H217.952V111.636H216.608ZM214.781 110.39C214.632 110.091 214.52 109.793 214.445 109.494C214.371 109.195 214.333 108.911 214.333 108.64C214.333 107.987 214.543 107.459 214.963 107.058C215.383 106.657 215.971 106.456 216.727 106.456C217.465 106.456 218.067 106.619 218.533 106.946C219.009 107.263 219.392 107.716 219.681 108.304C219.98 108.892 220.218 109.587 220.395 110.39H218.883C218.697 109.531 218.449 108.887 218.141 108.458C217.843 108.019 217.465 107.8 217.007 107.8C216.653 107.8 216.391 107.903 216.223 108.108C216.055 108.304 215.971 108.575 215.971 108.92C215.971 109.163 216.013 109.41 216.097 109.662C216.172 109.905 216.27 110.147 216.391 110.39H214.781ZM220.521 111.636V119H218.883V111.636H217.735V110.292H221.865V111.636H220.521ZM228.939 111.636V119H227.301V114.73H225.453C224.949 114.73 224.557 114.823 224.277 115.01C224.006 115.197 223.871 115.495 223.871 115.906C223.871 116.298 224.002 116.681 224.263 117.054C224.524 117.418 224.907 117.838 225.411 118.314L224.221 119.28C223.586 118.655 223.092 118.067 222.737 117.516C222.392 116.956 222.219 116.354 222.219 115.71C222.219 114.917 222.48 114.333 223.003 113.96C223.535 113.577 224.272 113.386 225.215 113.386H227.301V111.636H221.673V110.292H230.297V111.636H228.939ZM232.867 111.636V119H231.229V111.636H230.081V110.292H234.211V111.636H232.867ZM231.271 110.39C231.103 109.849 230.949 109.41 230.809 109.074C230.678 108.738 230.548 108.481 230.417 108.304C230.286 108.127 230.146 108.005 229.997 107.94C229.838 107.865 229.652 107.828 229.437 107.828C229.26 107.828 229.078 107.851 228.891 107.898C228.695 107.935 228.513 107.987 228.345 108.052L227.939 106.722C228.163 106.638 228.41 106.573 228.681 106.526C228.942 106.479 229.204 106.456 229.465 106.456C229.885 106.456 230.244 106.517 230.543 106.638C230.851 106.75 231.122 106.955 231.355 107.254C231.598 107.543 231.822 107.945 232.027 108.458C232.242 108.962 232.47 109.606 232.713 110.39H231.271ZM237.057 109.76V113.12L236.819 116.018H235.279L235.041 113.12V109.76H237.057ZM236.049 116.97C236.413 116.97 236.702 117.068 236.917 117.264C237.131 117.46 237.239 117.721 237.239 118.048C237.239 118.384 237.131 118.65 236.917 118.846C236.702 119.033 236.413 119.126 236.049 119.126C235.685 119.126 235.395 119.033 235.181 118.846C234.966 118.65 234.859 118.384 234.859 118.048C234.859 117.721 234.966 117.46 235.181 117.264C235.395 117.068 235.685 116.97 236.049 116.97Z" fill="#78858F"/>
<rect x="174.5" y="132" width="12" height="2" rx="1" fill="url(#paint1_linear_23777_169459)"/>
<rect x="71" y="159" width="220" height="81" rx="8" fill="#D5FDE7" fill-opacity="0.2"/>
<path fill-rule="evenodd" clip-rule="evenodd" d="M174.487 186.722C174.372 187.27 174.072 187.762 173.637 188.115C173.203 188.468 172.66 188.66 172.1 188.66C171.54 188.66 170.998 188.468 170.563 188.115C170.128 187.762 169.828 187.27 169.713 186.722L169.661 186.475C169.585 186.112 169.587 185.737 169.665 185.375C169.743 185.013 169.897 184.671 170.117 184.372L170.201 184.257C170.419 183.959 170.705 183.717 171.035 183.55C171.365 183.383 171.73 183.295 172.1 183.295C172.47 183.295 172.835 183.383 173.165 183.55C173.495 183.717 173.781 183.959 173.999 184.257L174.083 184.372C174.303 184.671 174.457 185.013 174.535 185.375C174.614 185.737 174.615 186.112 174.539 186.475L174.487 186.722ZM167.7 193.453C167.7 193.865 168.035 194.2 168.447 194.2H173.024C173.319 192.89 174.119 191.75 175.25 191.026C175.043 190.879 174.818 190.758 174.581 190.668L174.413 190.603C172.923 190.035 171.276 190.035 169.787 190.603L169.618 190.667C169.054 190.883 168.568 191.264 168.226 191.762C167.883 192.26 167.7 192.849 167.7 193.453ZM192.553 194.2H187.976C187.681 192.89 186.881 191.75 185.751 191.026C185.957 190.879 186.182 190.758 186.419 190.668L186.588 190.603C188.077 190.035 189.724 190.035 191.213 190.603L191.382 190.667C191.947 190.883 192.432 191.264 192.775 191.762C193.117 192.26 193.301 192.849 193.3 193.453C193.3 193.865 192.966 194.2 192.553 194.2ZM186.513 186.723C186.628 187.271 186.928 187.762 187.363 188.115C187.798 188.468 188.34 188.661 188.9 188.661C189.46 188.661 190.003 188.468 190.437 188.115C190.872 187.762 191.172 187.271 191.287 186.723L191.339 186.475C191.415 186.112 191.414 185.737 191.335 185.375C191.257 185.013 191.103 184.671 190.884 184.372L190.8 184.257C190.581 183.959 190.295 183.717 189.965 183.55C189.635 183.383 189.27 183.295 188.9 183.295C188.53 183.295 188.166 183.383 187.836 183.55C187.506 183.717 187.22 183.959 187.001 184.257L186.917 184.372C186.698 184.671 186.544 185.013 186.465 185.375C186.387 185.737 186.385 186.112 186.461 186.475L186.513 186.723Z" fill="#F2C94C"/>
<path d="M173.024 194.2V195C173.206 195 173.382 194.938 173.524 194.825C173.666 194.711 173.765 194.553 173.804 194.376L173.024 194.2ZM175.25 191.026L175.681 191.7C175.791 191.63 175.883 191.533 175.947 191.419C176.011 191.305 176.047 191.177 176.05 191.046C176.053 190.916 176.024 190.786 175.966 190.669C175.908 190.552 175.821 190.451 175.715 190.375L175.25 191.026ZM187.976 194.2L187.196 194.376C187.236 194.553 187.335 194.711 187.477 194.825C187.618 194.938 187.794 195 187.976 195V194.2ZM185.75 191.026L185.286 190.375C185.179 190.451 185.093 190.552 185.035 190.669C184.976 190.786 184.947 190.915 184.951 191.046C184.954 191.177 184.989 191.305 185.054 191.419C185.118 191.533 185.209 191.629 185.319 191.7L185.75 191.026ZM173.602 189.091C174.025 188.87 174.395 188.557 174.683 188.176C174.971 187.795 175.172 187.355 175.27 186.887L173.704 186.558C173.655 186.795 173.553 187.017 173.407 187.21C173.261 187.403 173.075 187.561 172.86 187.673L173.602 189.091ZM170.6 189.091C171.063 189.333 171.578 189.46 172.101 189.46C172.624 189.46 173.138 189.333 173.602 189.091L172.86 187.673C172.626 187.796 172.365 187.86 172.101 187.86C171.836 187.86 171.575 187.796 171.341 187.673L170.6 189.091ZM168.931 186.887C169.03 187.355 169.23 187.795 169.519 188.176C169.807 188.557 170.176 188.87 170.6 189.091L171.341 187.673C171.127 187.561 170.94 187.403 170.794 187.21C170.648 187.017 170.547 186.795 170.497 186.558L168.931 186.887ZM168.879 186.64L168.931 186.887L170.497 186.558L170.445 186.311L168.879 186.64ZM169.472 183.898C169.186 184.288 168.986 184.734 168.884 185.206C168.781 185.678 168.78 186.167 168.879 186.64L170.445 186.311C170.392 186.058 170.393 185.797 170.448 185.544C170.502 185.292 170.609 185.054 170.762 184.846L169.472 183.898ZM169.556 183.784L169.472 183.898L170.762 184.846L170.846 184.731L169.556 183.784ZM172.1 182.496C171.605 182.496 171.117 182.613 170.675 182.836C170.233 183.06 169.85 183.385 169.556 183.784L170.846 184.731C170.991 184.534 171.179 184.374 171.397 184.264C171.615 184.153 171.856 184.096 172.1 184.096V182.496ZM174.644 183.784C174.351 183.385 173.968 183.06 173.526 182.836C173.084 182.613 172.596 182.496 172.1 182.496V184.096C172.345 184.096 172.585 184.153 172.803 184.264C173.021 184.374 173.21 184.534 173.355 184.731L174.644 183.784ZM174.728 183.898L174.644 183.784L173.355 184.731L173.439 184.846L174.728 183.898ZM175.322 186.64C175.421 186.167 175.42 185.678 175.318 185.206C175.215 184.734 175.014 184.288 174.728 183.898L173.439 184.846C173.592 185.054 173.699 185.292 173.754 185.544C173.808 185.797 173.809 186.058 173.756 186.311L175.322 186.64ZM175.27 186.887L175.322 186.64L173.756 186.311L173.704 186.558L175.27 186.887ZM168.447 193.4C168.476 193.4 168.5 193.424 168.5 193.453H166.9C166.9 193.863 167.063 194.257 167.353 194.547C167.644 194.837 168.037 195 168.447 195V193.4ZM173.025 193.4H168.447V195H173.024L173.025 193.4ZM174.819 190.352C173.511 191.189 172.586 192.509 172.244 194.024L173.805 194.376C174.054 193.271 174.728 192.31 175.681 191.7L174.819 190.352ZM174.296 191.415C174.473 191.483 174.637 191.571 174.786 191.677L175.715 190.375C175.453 190.188 175.168 190.035 174.867 189.92L174.296 191.415ZM174.128 191.351L174.296 191.415L174.867 189.92L174.698 189.856L174.128 191.351ZM170.073 191.351C171.379 190.853 172.822 190.853 174.128 191.351L174.698 189.856C173.025 189.218 171.176 189.218 169.502 189.856L170.073 191.351ZM169.904 191.415L170.073 191.351L169.502 189.856L169.334 189.92L169.904 191.415ZM168.5 193.453C168.5 193.011 168.634 192.58 168.885 192.216C169.136 191.852 169.491 191.573 169.904 191.415L169.334 189.92C168.618 190.193 168.002 190.677 167.567 191.308C167.133 191.939 166.9 192.687 166.9 193.453H168.5ZM187.976 195H192.554V193.4H187.976L187.976 195ZM185.319 191.7C186.272 192.31 186.947 193.272 187.196 194.376L188.757 194.024C188.415 192.509 187.49 191.189 186.182 190.352L185.319 191.7ZM186.134 189.92C185.833 190.035 185.548 190.188 185.286 190.375L186.215 191.677C186.366 191.57 186.531 191.482 186.704 191.415L186.134 189.92ZM186.302 189.856L186.134 189.92L186.704 191.415L186.873 191.351L186.302 189.856ZM191.498 189.856C189.825 189.218 187.976 189.218 186.302 189.856L186.873 191.351C188.179 190.853 189.622 190.853 190.928 191.351L191.498 189.856ZM191.667 189.92L191.498 189.856L190.928 191.351L191.097 191.415L191.667 189.92ZM194.1 193.453C194.1 191.885 193.132 190.48 191.667 189.92L191.097 191.415C191.51 191.573 191.865 191.852 192.116 192.216C192.366 192.58 192.501 193.011 192.5 193.453H194.1ZM192.554 195C192.964 195 193.357 194.837 193.647 194.547C193.937 194.257 194.1 193.863 194.1 193.453H192.5C192.5 193.424 192.524 193.4 192.554 193.4V195ZM188.141 187.673C187.927 187.561 187.74 187.403 187.594 187.21C187.448 187.017 187.347 186.795 187.297 186.558L185.731 186.887C185.829 187.355 186.03 187.795 186.318 188.176C186.607 188.557 186.976 188.87 187.399 189.091L188.141 187.673ZM189.66 187.673C189.426 187.796 189.165 187.86 188.9 187.86C188.636 187.86 188.375 187.796 188.141 187.673L187.399 189.091C187.863 189.333 188.378 189.46 188.9 189.46C189.423 189.46 189.938 189.333 190.402 189.091L189.66 187.673ZM190.504 186.558C190.454 186.795 190.353 187.017 190.207 187.21C190.061 187.403 189.874 187.561 189.66 187.673L190.402 189.091C190.825 188.87 191.194 188.557 191.483 188.176C191.771 187.795 191.972 187.355 192.07 186.887L190.504 186.558ZM190.556 186.311L190.504 186.558L192.07 186.887L192.122 186.64L190.556 186.311ZM190.239 184.846C190.392 185.054 190.499 185.292 190.554 185.544C190.608 185.797 190.609 186.058 190.556 186.311L192.122 186.64C192.221 186.167 192.22 185.679 192.117 185.206C192.015 184.734 191.815 184.288 191.529 183.899L190.239 184.846ZM190.155 184.731L190.239 184.846L191.529 183.899L191.445 183.784L190.155 184.731ZM188.9 184.096C189.396 184.096 189.862 184.332 190.155 184.731L191.445 183.784C191.152 183.385 190.768 183.06 190.326 182.836C189.884 182.612 189.396 182.496 188.9 182.496V184.096ZM187.646 184.731C187.791 184.534 187.979 184.374 188.197 184.264C188.415 184.153 188.656 184.096 188.9 184.096V182.496C188.405 182.496 187.917 182.612 187.475 182.836C187.033 183.06 186.65 183.385 186.356 183.784L187.646 184.731ZM187.562 184.846L187.646 184.731L186.356 183.784L186.272 183.899L187.562 184.846ZM187.245 186.311C187.192 186.058 187.193 185.797 187.247 185.544C187.302 185.292 187.409 185.054 187.562 184.846L186.272 183.899C185.987 184.288 185.786 184.734 185.683 185.206C185.581 185.679 185.58 186.167 185.679 186.64L187.245 186.311ZM187.297 186.558L187.245 186.311L185.679 186.64L185.731 186.887L187.297 186.558Z" fill="#F2C94C"/>
<path d="M186.82 196.6H174.18C173.841 196.6 173.515 196.465 173.275 196.225C173.035 195.985 172.9 195.659 172.9 195.32C172.9 194.285 173.215 193.275 173.803 192.423C174.391 191.572 175.225 190.919 176.192 190.553L176.525 190.427C179.086 189.457 181.914 189.457 184.476 190.427L184.808 190.553C185.776 190.919 186.61 191.572 187.198 192.423C187.786 193.275 188.101 194.285 188.1 195.32C188.1 195.659 187.966 195.985 187.725 196.225C187.485 196.465 187.16 196.6 186.82 196.6Z" fill="#F2994A" stroke="#F2994A" stroke-linecap="square" stroke-linejoin="round"/>
<path d="M178.557 186.631C179.134 186.931 179.772 187.093 180.422 187.105C181.072 187.117 181.716 186.979 182.303 186.701C182.891 186.423 183.407 186.013 183.81 185.503C184.213 184.993 184.493 184.397 184.627 183.761L184.709 183.374C184.842 182.748 184.84 182.1 184.704 181.474C184.568 180.847 184.3 180.257 183.919 179.742L183.787 179.564C183.407 179.05 182.912 178.632 182.341 178.344C181.77 178.057 181.14 177.907 180.5 177.907C179.861 177.907 179.231 178.057 178.66 178.344C178.089 178.632 177.594 179.05 177.214 179.564L177.082 179.742C176.701 180.257 176.433 180.847 176.297 181.474C176.161 182.1 176.159 182.748 176.292 183.374L176.374 183.761C176.503 184.371 176.766 184.945 177.143 185.441C177.521 185.937 178.004 186.344 178.557 186.631Z" fill="#F2994A" stroke="#F2994A" stroke-linecap="round" stroke-linejoin="round"/>
<path d="M123.652 224V217.312C123.652 217.067 123.652 216.816 123.652 216.56C123.663 216.293 123.673 216.021 123.684 215.744C123.321 216.075 122.916 216.363 122.468 216.608C122.02 216.853 121.561 217.024 121.092 217.12L120.804 215.264C121.049 215.243 121.321 215.173 121.62 215.056C121.929 214.928 122.239 214.779 122.548 214.608C122.868 214.427 123.156 214.24 123.412 214.048C123.679 213.845 123.881 213.643 124.02 213.44H125.812V224H123.652ZM133.012 224V221.52H127.86V220.08C127.914 219.973 127.988 219.845 128.084 219.696C128.191 219.536 128.308 219.355 128.436 219.152L132.372 213.44H135.012V219.92H136.724V221.52H135.012V224H133.012ZM129.748 219.92H133.028V216.432C133.028 216.208 133.034 215.968 133.044 215.712C133.055 215.456 133.066 215.205 133.076 214.96H133.044C132.927 215.195 132.783 215.451 132.612 215.728C132.452 215.995 132.303 216.235 132.164 216.448L129.956 219.616C129.924 219.669 129.887 219.723 129.844 219.776C129.812 219.819 129.78 219.867 129.748 219.92ZM139.396 221.552C139.737 221.552 140.02 221.637 140.244 221.808C140.468 221.968 140.639 222.187 140.756 222.464C140.873 222.731 140.932 223.029 140.932 223.36C140.932 223.797 140.841 224.219 140.66 224.624C140.489 225.029 140.249 225.392 139.94 225.712C139.631 226.032 139.279 226.283 138.884 226.464L137.94 225.712C138.228 225.595 138.489 225.451 138.724 225.28C138.969 225.109 139.177 224.917 139.348 224.704C139.519 224.491 139.641 224.272 139.716 224.048L139.636 224C139.583 224.032 139.519 224.059 139.444 224.08C139.369 224.112 139.263 224.128 139.124 224.128C138.953 224.128 138.783 224.085 138.612 224C138.441 223.904 138.297 223.771 138.18 223.6C138.063 223.419 138.004 223.195 138.004 222.928C138.004 222.64 138.068 222.395 138.196 222.192C138.324 221.989 138.495 221.835 138.708 221.728C138.921 221.611 139.151 221.552 139.396 221.552ZM146.648 213.312C147.405 213.312 148.061 213.429 148.616 213.664C149.181 213.888 149.613 214.213 149.912 214.64C150.221 215.056 150.376 215.563 150.376 216.16C150.376 216.715 150.237 217.195 149.96 217.6C149.693 218.005 149.304 218.315 148.792 218.528V218.544C149.411 218.768 149.896 219.093 150.248 219.52C150.6 219.947 150.776 220.485 150.776 221.136C150.776 221.755 150.605 222.288 150.264 222.736C149.933 223.184 149.459 223.536 148.84 223.792C148.232 224.037 147.501 224.16 146.648 224.16C145.805 224.16 145.075 224.037 144.456 223.792C143.848 223.536 143.373 223.184 143.032 222.736C142.701 222.288 142.536 221.755 142.536 221.136C142.536 220.496 142.712 219.963 143.064 219.536C143.416 219.099 143.907 218.768 144.536 218.544V218.528C144.024 218.325 143.629 218.021 143.352 217.616C143.075 217.2 142.936 216.715 142.936 216.16C142.936 215.563 143.085 215.056 143.384 214.64C143.693 214.213 144.131 213.888 144.696 213.664C145.261 213.429 145.912 213.312 146.648 213.312ZM146.664 215.008C146.163 215.008 145.763 215.131 145.464 215.376C145.165 215.621 145.016 215.963 145.016 216.4C145.016 216.837 145.165 217.179 145.464 217.424C145.763 217.669 146.163 217.792 146.664 217.792C147.155 217.792 147.544 217.669 147.832 217.424C148.131 217.179 148.28 216.837 148.28 216.4C148.28 215.963 148.136 215.621 147.848 215.376C147.56 215.131 147.165 215.008 146.664 215.008ZM146.664 222.448C147.069 222.448 147.416 222.389 147.704 222.272C147.992 222.155 148.211 221.979 148.36 221.744C148.52 221.509 148.6 221.232 148.6 220.912C148.6 220.592 148.52 220.315 148.36 220.08C148.211 219.845 147.987 219.669 147.688 219.552C147.4 219.424 147.059 219.36 146.664 219.36C146.269 219.36 145.923 219.424 145.624 219.552C145.325 219.669 145.096 219.845 144.936 220.08C144.776 220.315 144.696 220.592 144.696 220.912C144.696 221.232 144.776 221.509 144.936 221.744C145.096 221.979 145.32 222.155 145.608 222.272C145.907 222.389 146.259 222.448 146.664 222.448ZM156.729 224.16C155.374 224.16 154.329 223.701 153.593 222.784C152.867 221.867 152.505 220.512 152.505 218.72C152.505 216.928 152.867 215.573 153.593 214.656C154.329 213.739 155.374 213.28 156.729 213.28C158.083 213.28 159.123 213.739 159.849 214.656C160.585 215.573 160.953 216.928 160.953 218.72C160.953 220.512 160.585 221.867 159.849 222.784C159.123 223.701 158.083 224.16 156.729 224.16ZM156.729 222.384C157.187 222.384 157.561 222.256 157.849 222C158.147 221.733 158.371 221.333 158.521 220.8C158.67 220.256 158.745 219.563 158.745 218.72C158.745 217.877 158.67 217.189 158.521 216.656C158.371 216.112 158.147 215.712 157.849 215.456C157.561 215.189 157.187 215.056 156.729 215.056C156.27 215.056 155.891 215.189 155.593 215.456C155.294 215.712 155.07 216.112 154.921 216.656C154.782 217.189 154.713 217.877 154.713 218.72C154.713 219.563 154.782 220.256 154.921 220.8C155.07 221.333 155.294 221.733 155.593 222C155.891 222.256 156.27 222.384 156.729 222.384ZM162.853 224V222.512C163.813 221.861 164.623 221.275 165.285 220.752C165.957 220.219 166.495 219.728 166.901 219.28C167.317 218.821 167.615 218.389 167.797 217.984C167.989 217.579 168.085 217.173 168.085 216.768C168.085 216.277 167.935 215.877 167.637 215.568C167.338 215.248 166.917 215.088 166.373 215.088C165.775 215.088 165.306 215.291 164.965 215.696C164.634 216.101 164.453 216.677 164.421 217.424L162.517 216.704C162.57 215.979 162.762 215.365 163.093 214.864C163.434 214.352 163.893 213.963 164.469 213.696C165.055 213.419 165.727 213.28 166.485 213.28C167.135 213.28 167.695 213.371 168.165 213.552C168.645 213.733 169.039 213.984 169.349 214.304C169.669 214.613 169.909 214.971 170.069 215.376C170.229 215.781 170.309 216.203 170.309 216.64C170.309 217.323 170.138 217.968 169.797 218.576C169.466 219.184 168.954 219.787 168.261 220.384C167.567 220.981 166.687 221.611 165.621 222.272V222.288C165.781 222.277 165.973 222.267 166.197 222.256C166.431 222.245 166.671 222.24 166.917 222.24C167.162 222.229 167.375 222.224 167.557 222.224H170.469V224H162.853ZM177.01 214.72V222.992H175.202V214.72H177.01ZM180.066 218.016V219.68H172.13V218.016H180.066Z" fill="black"/>
<path d="M193.364 215.954L193.532 215.73C193.635 215.917 193.714 216.131 193.77 216.374C193.826 216.617 193.854 216.892 193.854 217.2C193.854 217.956 193.677 218.567 193.322 219.034C192.977 219.501 192.468 219.888 191.796 220.196L191.852 220.07C192.16 220.527 192.524 220.919 192.944 221.246C193.364 221.573 193.84 221.825 194.372 222.002C194.913 222.17 195.497 222.254 196.122 222.254C196.691 222.254 197.219 222.193 197.704 222.072C198.189 221.941 198.647 221.741 199.076 221.47L199.258 222.492C198.857 222.809 198.399 223.043 197.886 223.192C197.373 223.341 196.771 223.416 196.08 223.416C195.315 223.416 194.619 223.313 193.994 223.108C193.378 222.903 192.827 222.627 192.342 222.282C191.866 221.927 191.455 221.54 191.11 221.12C190.765 220.681 190.499 220.271 190.312 219.888C190.135 219.496 190.046 219.132 190.046 218.796C190.046 218.535 190.121 218.334 190.27 218.194C190.429 218.045 190.634 217.97 190.886 217.97C191.147 217.97 191.385 218.049 191.6 218.208C191.815 218.357 192.048 218.586 192.3 218.894L191.586 218.88C191.829 218.787 192.011 218.651 192.132 218.474C192.263 218.287 192.351 218.077 192.398 217.844C192.454 217.611 192.482 217.382 192.482 217.158C192.482 216.878 192.454 216.612 192.398 216.36C192.351 216.099 192.267 215.875 192.146 215.688L192.636 215.954H189.5V214.792H196.36V215.954H193.364ZM200 215.954V223.5H198.614V215.954H195.87V214.792H201.386V215.954H200ZM198.992 220.588C198.749 220.756 198.474 220.891 198.166 220.994C197.867 221.097 197.508 221.148 197.088 221.148C196.584 221.148 196.141 221.064 195.758 220.896C195.385 220.719 195.091 220.467 194.876 220.14C194.671 219.813 194.568 219.431 194.568 218.992C194.568 218.329 194.787 217.816 195.226 217.452C195.665 217.088 196.276 216.906 197.06 216.906C197.265 216.906 197.461 216.92 197.648 216.948C197.844 216.967 198.021 216.995 198.18 217.032L198.096 218.096C197.947 218.059 197.797 218.035 197.648 218.026C197.508 218.007 197.359 217.998 197.2 217.998C196.78 217.998 196.458 218.087 196.234 218.264C196.01 218.432 195.898 218.693 195.898 219.048C195.898 219.403 196.015 219.664 196.248 219.832C196.491 219.991 196.789 220.07 197.144 220.07C197.545 220.07 197.9 219.981 198.208 219.804C198.516 219.627 198.749 219.407 198.908 219.146L198.992 220.588ZM198.641 214.89C198.455 214.302 198.296 213.831 198.165 213.476C198.025 213.112 197.89 212.837 197.759 212.65C197.619 212.454 197.47 212.323 197.311 212.258C197.153 212.183 196.957 212.146 196.723 212.146C196.537 212.146 196.345 212.169 196.149 212.216C195.944 212.253 195.762 212.305 195.603 212.37L195.239 211.222C195.454 211.138 195.692 211.073 195.953 211.026C196.205 210.979 196.453 210.956 196.695 210.956C197.115 210.956 197.475 211.017 197.773 211.138C198.063 211.25 198.324 211.455 198.557 211.754C198.781 212.043 198.996 212.445 199.201 212.958C199.407 213.462 199.631 214.106 199.873 214.89H198.641ZM201.189 215.954V214.792H211.129V215.954H209.729V223.5H208.357V218.264L209.057 218.824C208.908 218.759 208.763 218.717 208.623 218.698C208.493 218.679 208.362 218.67 208.231 218.67C207.933 218.67 207.667 218.74 207.433 218.88C207.2 219.02 207.004 219.253 206.845 219.58C206.687 219.897 206.561 220.327 206.467 220.868L205.123 220.504C205.254 219.524 205.581 218.782 206.103 218.278C206.635 217.774 207.335 217.522 208.203 217.522C208.39 217.522 208.572 217.536 208.749 217.564C208.936 217.592 209.09 217.625 209.211 217.662L209.239 217.97L208.357 217.704V215.954H201.189ZM205.865 219.398C205.707 219.183 205.511 219.011 205.277 218.88C205.053 218.74 204.783 218.67 204.465 218.67C204.055 218.67 203.733 218.791 203.499 219.034C203.266 219.277 203.149 219.603 203.149 220.014C203.149 220.509 203.336 220.966 203.709 221.386C204.092 221.797 204.703 222.235 205.543 222.702L204.773 223.738C203.84 223.215 203.107 222.646 202.575 222.03C202.043 221.405 201.777 220.691 201.777 219.888C201.777 219.095 202.011 218.497 202.477 218.096C202.953 217.695 203.555 217.494 204.283 217.494C204.759 217.494 205.17 217.583 205.515 217.76C205.87 217.928 206.183 218.157 206.453 218.446L205.865 219.398ZM219.718 215.954L220.096 215.688C220.199 215.912 220.274 216.145 220.32 216.388C220.367 216.631 220.39 216.906 220.39 217.214C220.39 217.718 220.288 218.157 220.082 218.53C219.877 218.894 219.583 219.211 219.2 219.482C218.827 219.743 218.388 219.972 217.884 220.168L217.898 219.958C218.169 220.257 218.463 220.569 218.78 220.896C219.107 221.223 219.448 221.545 219.802 221.862C220.166 222.179 220.535 222.497 220.908 222.814L219.942 223.71C219.196 223.057 218.552 222.45 218.01 221.89C217.478 221.33 217.035 220.798 216.68 220.294C216.447 219.977 216.279 219.697 216.176 219.454C216.083 219.211 216.036 218.983 216.036 218.768C216.036 218.525 216.111 218.334 216.26 218.194C216.41 218.045 216.615 217.97 216.876 217.97C217.147 217.97 217.404 218.063 217.646 218.25C217.898 218.427 218.15 218.675 218.402 218.992L217.604 218.81C218.108 218.633 218.472 218.399 218.696 218.11C218.92 217.811 219.032 217.452 219.032 217.032C219.032 216.771 218.995 216.514 218.92 216.262C218.855 216.001 218.766 215.809 218.654 215.688L219.312 215.954H215.49V214.792H221.566V215.954H219.718ZM223.385 220.434C223.031 220.173 222.755 219.897 222.559 219.608C222.363 219.319 222.265 219.001 222.265 218.656C222.265 218.133 222.452 217.737 222.825 217.466C223.199 217.186 223.759 217.046 224.505 217.046H226.367V215.954H221.355V214.792H229.139V215.954H227.739V218.194H224.687C224.314 218.194 224.039 218.25 223.861 218.362C223.693 218.474 223.609 218.642 223.609 218.866C223.609 219.034 223.665 219.197 223.777 219.356C223.899 219.505 224.053 219.641 224.239 219.762L223.385 220.434ZM226.073 222.66C226.363 222.52 226.582 222.357 226.731 222.17C226.89 221.983 226.969 221.787 226.969 221.582C226.969 221.302 226.853 221.069 226.619 220.882C226.395 220.695 226.017 220.602 225.485 220.602C224.888 220.602 224.426 220.728 224.099 220.98C223.782 221.223 223.623 221.559 223.623 221.988C223.623 222.333 223.745 222.646 223.987 222.926C224.239 223.197 224.603 223.453 225.079 223.696C225.555 223.939 226.143 224.191 226.843 224.452L226.213 225.572C225.42 225.283 224.725 224.97 224.127 224.634C223.539 224.298 223.082 223.915 222.755 223.486C222.429 223.047 222.265 222.543 222.265 221.974C222.265 221.395 222.41 220.924 222.699 220.56C222.989 220.187 223.381 219.911 223.875 219.734C224.37 219.547 224.925 219.454 225.541 219.454C226.195 219.454 226.727 219.552 227.137 219.748C227.548 219.944 227.847 220.201 228.033 220.518C228.22 220.835 228.313 221.185 228.313 221.568C228.313 221.951 228.225 222.301 228.047 222.618C227.87 222.935 227.557 223.229 227.109 223.5L226.073 222.66ZM226.395 214.89C226.209 214.302 226.05 213.831 225.919 213.476C225.779 213.112 225.644 212.837 225.513 212.65C225.373 212.454 225.224 212.323 225.065 212.258C224.907 212.183 224.711 212.146 224.477 212.146C224.291 212.146 224.099 212.169 223.903 212.216C223.698 212.253 223.516 212.305 223.357 212.37L222.993 211.222C223.208 211.138 223.446 211.073 223.707 211.026C223.959 210.979 224.207 210.956 224.449 210.956C224.869 210.956 225.229 211.017 225.527 211.138C225.817 211.25 226.078 211.455 226.311 211.754C226.535 212.043 226.75 212.445 226.955 212.958C227.161 213.462 227.385 214.106 227.627 214.89H226.395ZM235.512 220.434C235.158 220.173 234.882 219.897 234.686 219.608C234.49 219.319 234.392 219.001 234.392 218.656C234.392 218.133 234.579 217.737 234.952 217.466C235.326 217.186 235.886 217.046 236.632 217.046H238.494V215.954H233.482V214.792H241.266V215.954H239.866V218.194H236.814C236.441 218.194 236.166 218.25 235.988 218.362C235.82 218.474 235.736 218.642 235.736 218.866C235.736 219.034 235.792 219.197 235.904 219.356C236.026 219.505 236.18 219.641 236.366 219.762L235.512 220.434ZM238.2 222.66C238.49 222.52 238.709 222.357 238.858 222.17C239.017 221.983 239.096 221.787 239.096 221.582C239.096 221.302 238.98 221.069 238.746 220.882C238.522 220.695 238.144 220.602 237.612 220.602C237.015 220.602 236.553 220.728 236.226 220.98C235.909 221.223 235.75 221.559 235.75 221.988C235.75 222.333 235.872 222.646 236.114 222.926C236.366 223.197 236.73 223.453 237.206 223.696C237.682 223.939 238.27 224.191 238.97 224.452L238.34 225.572C237.547 225.283 236.852 224.97 236.254 224.634C235.666 224.298 235.209 223.915 234.882 223.486C234.556 223.047 234.392 222.543 234.392 221.974C234.392 221.395 234.537 220.924 234.826 220.56C235.116 220.187 235.508 219.911 236.002 219.734C236.497 219.547 237.052 219.454 237.668 219.454C238.322 219.454 238.854 219.552 239.264 219.748C239.675 219.944 239.974 220.201 240.16 220.518C240.347 220.835 240.44 221.185 240.44 221.568C240.44 221.951 240.352 222.301 240.174 222.618C239.997 222.935 239.684 223.229 239.236 223.5L238.2 222.66ZM239.208 212.006C239.208 211.763 239.292 211.558 239.46 211.39C239.619 211.222 239.81 211.138 240.034 211.138C240.268 211.138 240.468 211.222 240.636 211.39C240.795 211.558 240.874 211.763 240.874 212.006C240.874 212.249 240.795 212.454 240.636 212.622C240.468 212.79 240.268 212.874 240.034 212.874C239.81 212.874 239.619 212.79 239.46 212.622C239.292 212.454 239.208 212.249 239.208 212.006ZM238.55 214.89C238.261 214.563 238.014 214.321 237.808 214.162C237.594 214.003 237.398 213.896 237.22 213.84C237.043 213.784 236.838 213.756 236.604 213.756C236.39 213.756 236.175 213.784 235.96 213.84C235.746 213.896 235.54 213.966 235.344 214.05L234.966 213C235.19 212.907 235.419 212.832 235.652 212.776C235.886 212.72 236.119 212.692 236.352 212.692C236.642 212.692 236.894 212.729 237.108 212.804C237.314 212.869 237.524 212.986 237.738 213.154C237.953 213.322 238.196 213.546 238.466 213.826L238.522 213.798C238.261 213.303 238.037 212.93 237.85 212.678C237.654 212.417 237.458 212.239 237.262 212.146C237.057 212.053 236.824 212.006 236.562 212.006C236.404 212.006 236.245 212.025 236.086 212.062C235.918 212.09 235.741 212.141 235.554 212.216L235.218 211.166C235.405 211.091 235.61 211.04 235.834 211.012C236.058 210.975 236.287 210.956 236.52 210.956C236.931 210.956 237.281 211.017 237.57 211.138C237.85 211.25 238.107 211.451 238.34 211.74C238.574 212.029 238.802 212.431 239.026 212.944C239.241 213.448 239.479 214.097 239.74 214.89H238.55Z" fill="#78858F"/>
<circle cx="146" cy="22" r="4.5" fill="#41EE96" stroke="#114528"/>
<path d="M158.136 25.446H163.008V27H156.204V17.76H158.136V25.446ZM165.382 18.992C164.981 18.992 164.682 18.908 164.486 18.74C164.29 18.5627 164.192 18.306 164.192 17.97C164.192 17.6247 164.29 17.368 164.486 17.2C164.682 17.0227 164.981 16.934 165.382 16.934C165.784 16.934 166.082 17.0227 166.278 17.2C166.474 17.368 166.572 17.6247 166.572 17.97C166.572 18.306 166.474 18.5627 166.278 18.74C166.082 18.908 165.784 18.992 165.382 18.992ZM166.334 20V27H164.416V20H166.334ZM172.959 20H174.947L172.287 27H170.075L167.415 20H169.459L171.195 25.53L172.959 20ZM179.176 27.14C178.439 27.14 177.795 26.9953 177.244 26.706C176.703 26.4167 176.283 26.0013 175.984 25.46C175.685 24.9187 175.536 24.2653 175.536 23.5C175.536 22.7347 175.685 22.0813 175.984 21.54C176.283 20.9987 176.698 20.5833 177.23 20.294C177.771 20.0047 178.387 19.86 179.078 19.86C179.787 19.86 180.389 20.0047 180.884 20.294C181.379 20.574 181.757 20.9613 182.018 21.456C182.279 21.9413 182.41 22.4967 182.41 23.122C182.41 23.3087 182.405 23.486 182.396 23.654C182.387 23.822 182.373 23.9713 182.354 24.102H176.768V22.772H181.514L180.59 23.108C180.59 22.52 180.455 22.0673 180.184 21.75C179.923 21.4327 179.549 21.274 179.064 21.274C178.709 21.274 178.401 21.358 178.14 21.526C177.888 21.694 177.697 21.946 177.566 22.282C177.435 22.6087 177.37 23.024 177.37 23.528C177.37 24.0227 177.44 24.4333 177.58 24.76C177.729 25.0773 177.935 25.3153 178.196 25.474C178.467 25.6327 178.789 25.712 179.162 25.712C179.573 25.712 179.904 25.6327 180.156 25.474C180.408 25.3153 180.604 25.096 180.744 24.816L182.27 25.404C182.121 25.768 181.892 26.0807 181.584 26.342C181.285 26.6033 180.926 26.804 180.506 26.944C180.095 27.0747 179.652 27.14 179.176 27.14ZM196.449 17.76V27H194.237L191.003 21.568L190.205 20.056H190.191L190.247 21.652V27H188.511V17.76H190.709L193.943 23.178L194.741 24.704H194.769L194.713 23.108V17.76H196.449ZM201.788 19.86C202.497 19.86 203.118 20.0047 203.65 20.294C204.191 20.5833 204.611 20.9987 204.91 21.54C205.218 22.0813 205.372 22.7347 205.372 23.5C205.372 24.256 205.218 24.9093 204.91 25.46C204.611 26.0013 204.191 26.4167 203.65 26.706C203.118 26.9953 202.497 27.14 201.788 27.14C201.088 27.14 200.467 26.9953 199.926 26.706C199.385 26.4167 198.96 26.0013 198.652 25.46C198.353 24.9093 198.204 24.256 198.204 23.5C198.204 22.7347 198.353 22.0813 198.652 21.54C198.96 20.9987 199.385 20.5833 199.926 20.294C200.467 20.0047 201.088 19.86 201.788 19.86ZM201.788 21.288C201.433 21.288 201.13 21.372 200.878 21.54C200.635 21.6987 200.449 21.9413 200.318 22.268C200.187 22.5947 200.122 23.0053 200.122 23.5C200.122 23.9947 200.187 24.4053 200.318 24.732C200.449 25.0587 200.635 25.306 200.878 25.474C201.13 25.6327 201.433 25.712 201.788 25.712C202.133 25.712 202.427 25.6327 202.67 25.474C202.922 25.306 203.113 25.0587 203.244 24.732C203.375 24.4053 203.44 23.9947 203.44 23.5C203.44 23.0053 203.375 22.5947 203.244 22.268C203.113 21.9413 202.922 21.6987 202.67 21.54C202.427 21.372 202.133 21.288 201.788 21.288ZM215.815 20H217.859L215.619 27H213.407L211.881 22.24L210.411 27H208.199L205.959 20H208.003L209.403 25.362L210.957 20H212.861L214.429 25.362L215.815 20Z" fill="#114528"/>
<defs>
<filter id="filter0_d_23777_169459" x="2" y="40" width="356" height="298" filterUnits="userSpaceOnUse" color-interpolation-filters="sRGB">
<feFlood flood-opacity="0" result="BackgroundImageFix"/>
<feColorMatrix in="SourceAlpha" type="matrix" values="0 0 0 0 0 0 0 0 0 0 0 0 0 0 0 0 0 0 127 0" result="hardAlpha"/>
<feOffset/>
<feGaussianBlur stdDeviation="2"/>
<feComposite in2="hardAlpha" operator="out"/>
<feColorMatrix type="matrix" values="0 0 0 0 0 0 0 0 0 0 0 0 0 0 0 0 0 0 0.25 0"/>
<feBlend mode="normal" in2="BackgroundImageFix" result="effect1_dropShadow_23777_169459"/>
<feBlend mode="normal" in="SourceGraphic" in2="effect1_dropShadow_23777_169459" result="shape"/>
</filter>
<linearGradient id="paint0_linear_23777_169459" x1="18" y1="295" x2="342" y2="295" gradientUnits="userSpaceOnUse">
<stop stop-color="#114528"/>
<stop offset="1" stop-color="#2AAB63"/>
</linearGradient>
<linearGradient id="paint1_linear_23777_169459" x1="174.5" y1="133" x2="186.5" y2="133" gradientUnits="userSpaceOnUse">
<stop stop-color="#41EE96"/>
<stop offset="1" stop-color="#114528"/>
</linearGradient>
</defs>
</svg>
