<svg width="360" height="301" viewBox="0 0 360 301" fill="none" xmlns="http://www.w3.org/2000/svg">
<rect width="360" height="301" rx="12" fill="#FFECD2"/>
<g filter="url(#filter0_d_23778_169944)">
<rect x="6" y="44" width="348" height="251" rx="8" fill="white"/>
</g>
<path d="M91.3542 73.92C92.8262 73.92 94.1222 74.152 95.2422 74.616C96.3782 75.064 97.3622 75.728 98.1942 76.608L96.2022 79.272C95.5142 78.552 94.7702 78.016 93.9702 77.664C93.1862 77.296 92.2902 77.112 91.2822 77.112C90.6902 77.112 90.2102 77.176 89.8422 77.304C89.4742 77.432 89.2102 77.608 89.0502 77.832C88.8902 78.056 88.8102 78.312 88.8102 78.6C88.8102 78.936 88.9622 79.224 89.2662 79.464C89.5862 79.688 90.0982 79.88 90.8022 80.04L93.4662 80.64C95.0502 81.008 96.2102 81.544 96.9462 82.248C97.6822 82.952 98.0502 83.888 98.0502 85.056C98.0502 86.176 97.7622 87.128 97.1862 87.912C96.6102 88.68 95.8182 89.264 94.8102 89.664C93.8022 90.048 92.6502 90.24 91.3542 90.24C90.2982 90.24 89.2902 90.128 88.3302 89.904C87.3702 89.664 86.5062 89.328 85.7382 88.896C84.9702 88.464 84.3222 87.968 83.7942 87.408L85.7862 84.648C86.1862 85.112 86.6742 85.528 87.2502 85.896C87.8422 86.248 88.4822 86.528 89.1702 86.736C89.8742 86.944 90.5862 87.048 91.3062 87.048C91.8662 87.048 92.3302 86.992 92.6982 86.88C93.0822 86.768 93.3622 86.6 93.5382 86.376C93.7142 86.152 93.8022 85.888 93.8022 85.584C93.8022 85.248 93.6822 84.968 93.4422 84.744C93.2022 84.504 92.7462 84.304 92.0742 84.144L89.1462 83.496C88.2502 83.288 87.4502 83.016 86.7462 82.68C86.0582 82.328 85.5142 81.864 85.1142 81.288C84.7142 80.696 84.5142 79.96 84.5142 79.08C84.5142 78.088 84.7862 77.208 85.3302 76.44C85.8742 75.656 86.6582 75.04 87.6822 74.592C88.7062 74.144 89.9302 73.92 91.3542 73.92ZM104.352 90.24C103.536 90.24 102.816 90.104 102.192 89.832C101.584 89.544 101.104 89.088 100.752 88.464C100.4 87.84 100.224 87.024 100.224 86.016V78H104.304V85.056C104.304 85.824 104.456 86.36 104.76 86.664C105.064 86.968 105.496 87.12 106.056 87.12C106.344 87.12 106.616 87.072 106.872 86.976C107.128 86.864 107.352 86.704 107.544 86.496C107.736 86.272 107.88 85.992 107.976 85.656C108.088 85.304 108.144 84.896 108.144 84.432V78H112.224V90H108.576L108.456 87.744C108.072 88.592 107.536 89.224 106.848 89.64C106.16 90.04 105.328 90.24 104.352 90.24ZM115.155 90V78H118.803L119.019 82.128L118.563 81.672C118.723 80.808 119.003 80.088 119.403 79.512C119.819 78.936 120.331 78.504 120.939 78.216C121.563 77.912 122.259 77.76 123.027 77.76C123.859 77.76 124.579 77.92 125.187 78.24C125.811 78.56 126.299 79.032 126.651 79.656C127.003 80.28 127.179 81.064 127.179 82.008V90H123.099V83.088C123.099 82.256 122.939 81.68 122.619 81.36C122.299 81.04 121.891 80.88 121.395 80.88C121.011 80.88 120.651 80.976 120.315 81.168C119.979 81.344 119.715 81.632 119.523 82.032C119.331 82.432 119.235 82.968 119.235 83.64V90H115.155ZM134.454 90.24C133.462 90.24 132.59 90 131.838 89.52C131.102 89.024 130.526 88.312 130.11 87.384C129.71 86.456 129.51 85.344 129.51 84.048C129.51 82.704 129.718 81.568 130.134 80.64C130.566 79.712 131.158 79 131.91 78.504C132.678 78.008 133.558 77.76 134.55 77.76C135.638 77.76 136.51 78.096 137.166 78.768C137.838 79.424 138.27 80.264 138.462 81.288L138.078 81.792V72.912H142.158V90H138.51L138.246 85.92L138.726 86.28C138.63 87.08 138.382 87.776 137.982 88.368C137.598 88.96 137.102 89.424 136.494 89.76C135.902 90.08 135.222 90.24 134.454 90.24ZM135.87 87.24C136.334 87.24 136.726 87.12 137.046 86.88C137.382 86.624 137.638 86.248 137.814 85.752C137.99 85.256 138.078 84.648 138.078 83.928C138.078 83.256 137.99 82.688 137.814 82.224C137.654 81.744 137.406 81.384 137.07 81.144C136.75 80.888 136.358 80.76 135.894 80.76C135.19 80.76 134.63 81.024 134.214 81.552C133.814 82.064 133.614 82.88 133.614 84C133.614 85.12 133.814 85.944 134.214 86.472C134.614 86.984 135.166 87.24 135.87 87.24ZM151.781 82.392C151.781 81.832 151.621 81.392 151.301 81.072C150.997 80.736 150.581 80.568 150.053 80.568C149.525 80.568 149.069 80.704 148.685 80.976C148.317 81.232 148.061 81.696 147.917 82.368L144.461 81.552C144.685 80.4 145.277 79.48 146.237 78.792C147.197 78.104 148.549 77.76 150.293 77.76C151.461 77.76 152.453 77.936 153.269 78.288C154.101 78.624 154.733 79.136 155.165 79.824C155.613 80.496 155.837 81.328 155.837 82.32V86.712C155.837 87.336 156.117 87.648 156.677 87.648C156.965 87.648 157.197 87.616 157.373 87.552L157.133 89.88C156.653 90.104 156.069 90.216 155.381 90.216C154.757 90.216 154.205 90.12 153.725 89.928C153.245 89.72 152.869 89.416 152.597 89.016C152.325 88.6 152.189 88.08 152.189 87.456V87.312L152.645 87.144C152.645 87.832 152.437 88.408 152.021 88.872C151.621 89.336 151.093 89.68 150.437 89.904C149.797 90.128 149.125 90.24 148.421 90.24C147.605 90.24 146.893 90.112 146.285 89.856C145.677 89.6 145.205 89.232 144.869 88.752C144.549 88.256 144.389 87.648 144.389 86.928C144.389 86.064 144.645 85.352 145.157 84.792C145.685 84.216 146.509 83.816 147.629 83.592L152.165 82.656L152.141 84.816L149.837 85.296C149.357 85.392 148.997 85.536 148.757 85.728C148.533 85.904 148.421 86.176 148.421 86.544C148.421 86.896 148.549 87.16 148.805 87.336C149.061 87.512 149.365 87.6 149.717 87.6C149.989 87.6 150.245 87.56 150.485 87.48C150.741 87.4 150.965 87.28 151.157 87.12C151.349 86.944 151.501 86.728 151.613 86.472C151.725 86.216 151.781 85.912 151.781 85.56V82.392ZM170.282 78L165.914 90C165.466 91.264 164.978 92.272 164.45 93.024C163.922 93.776 163.298 94.32 162.578 94.656C161.858 94.992 160.994 95.16 159.986 95.16C159.314 95.16 158.698 95.088 158.138 94.944C157.578 94.8 157.09 94.6 156.674 94.344L157.49 91.584C157.778 91.792 158.082 91.936 158.402 92.016C158.722 92.112 159.13 92.16 159.626 92.16C160.09 92.16 160.466 92.08 160.754 91.92C161.058 91.76 161.298 91.456 161.474 91.008L161.786 90.264L160.394 87L156.794 78H161.282L163.13 84.84L163.706 87.384L164.378 84.744L166.226 78H170.282ZM191.248 74.16V77.352H186.088V90H181.96V77.352H176.776V74.16H191.248ZM197.906 82.392C197.906 81.832 197.746 81.392 197.426 81.072C197.122 80.736 196.706 80.568 196.178 80.568C195.65 80.568 195.194 80.704 194.81 80.976C194.442 81.232 194.186 81.696 194.042 82.368L190.586 81.552C190.81 80.4 191.402 79.48 192.362 78.792C193.322 78.104 194.674 77.76 196.418 77.76C197.586 77.76 198.578 77.936 199.394 78.288C200.226 78.624 200.858 79.136 201.29 79.824C201.738 80.496 201.962 81.328 201.962 82.32V86.712C201.962 87.336 202.242 87.648 202.802 87.648C203.09 87.648 203.322 87.616 203.498 87.552L203.258 89.88C202.778 90.104 202.194 90.216 201.506 90.216C200.882 90.216 200.33 90.12 199.85 89.928C199.37 89.72 198.994 89.416 198.722 89.016C198.45 88.6 198.314 88.08 198.314 87.456V87.312L198.77 87.144C198.77 87.832 198.562 88.408 198.146 88.872C197.746 89.336 197.218 89.68 196.562 89.904C195.922 90.128 195.25 90.24 194.546 90.24C193.73 90.24 193.018 90.112 192.41 89.856C191.802 89.6 191.33 89.232 190.994 88.752C190.674 88.256 190.514 87.648 190.514 86.928C190.514 86.064 190.77 85.352 191.282 84.792C191.81 84.216 192.634 83.816 193.754 83.592L198.29 82.656L198.266 84.816L195.962 85.296C195.482 85.392 195.122 85.536 194.882 85.728C194.658 85.904 194.546 86.176 194.546 86.544C194.546 86.896 194.674 87.16 194.93 87.336C195.186 87.512 195.49 87.6 195.842 87.6C196.114 87.6 196.37 87.56 196.61 87.48C196.866 87.4 197.09 87.28 197.282 87.12C197.474 86.944 197.626 86.728 197.738 86.472C197.85 86.216 197.906 85.912 197.906 85.56V82.392ZM205.109 90V78H208.757L208.877 80.328C209.261 79.48 209.797 78.84 210.485 78.408C211.189 77.976 211.997 77.76 212.909 77.76C213.805 77.76 214.581 77.96 215.237 78.36C215.893 78.76 216.381 79.352 216.701 80.136C216.957 79.608 217.285 79.168 217.685 78.816C218.101 78.464 218.573 78.2 219.101 78.024C219.629 77.848 220.173 77.76 220.733 77.76C221.533 77.76 222.237 77.92 222.845 78.24C223.453 78.544 223.933 79.016 224.285 79.656C224.653 80.28 224.837 81.064 224.837 82.008V90H220.757V82.944C220.757 82.176 220.605 81.64 220.301 81.336C220.013 81.032 219.621 80.88 219.125 80.88C218.725 80.88 218.357 80.984 218.021 81.192C217.701 81.384 217.453 81.68 217.277 82.08C217.101 82.48 217.013 82.984 217.013 83.592V90H212.933V82.944C212.933 82.176 212.781 81.64 212.477 81.336C212.173 81.032 211.781 80.88 211.301 80.88C210.933 80.88 210.581 80.976 210.245 81.168C209.925 81.36 209.669 81.664 209.477 82.08C209.285 82.48 209.189 83.008 209.189 83.664V90H205.109ZM235.406 90.24C234.622 90.24 233.926 90.064 233.318 89.712C232.726 89.36 232.238 88.88 231.854 88.272C231.47 87.648 231.222 86.944 231.11 86.16L231.494 85.656L231.278 90H227.702V72.912H231.782V81.768L231.398 81.192C231.622 80.2 232.078 79.384 232.766 78.744C233.454 78.088 234.382 77.76 235.55 77.76C236.478 77.76 237.302 78.008 238.022 78.504C238.758 79 239.326 79.72 239.726 80.664C240.142 81.592 240.35 82.72 240.35 84.048C240.35 85.344 240.142 86.456 239.726 87.384C239.31 88.312 238.734 89.024 237.998 89.52C237.262 90 236.398 90.24 235.406 90.24ZM233.99 87.24C234.694 87.24 235.246 86.984 235.646 86.472C236.046 85.944 236.246 85.12 236.246 84C236.246 82.88 236.046 82.064 235.646 81.552C235.246 81.024 234.694 80.76 233.99 80.76C233.526 80.76 233.126 80.896 232.79 81.168C232.47 81.424 232.222 81.792 232.046 82.272C231.87 82.752 231.782 83.336 231.782 84.024C231.782 84.712 231.87 85.296 232.046 85.776C232.222 86.256 232.478 86.624 232.814 86.88C233.15 87.12 233.542 87.24 233.99 87.24ZM248.461 77.76C249.725 77.76 250.829 78.008 251.773 78.504C252.733 78.984 253.477 79.696 254.005 80.64C254.549 81.568 254.821 82.688 254.821 84C254.821 85.312 254.549 86.44 254.005 87.384C253.477 88.312 252.733 89.024 251.773 89.52C250.829 90 249.725 90.24 248.461 90.24C247.229 90.24 246.133 90 245.173 89.52C244.213 89.024 243.461 88.312 242.917 87.384C242.389 86.44 242.125 85.312 242.125 84C242.125 82.688 242.389 81.568 242.917 80.64C243.461 79.696 244.213 78.984 245.173 78.504C246.133 78.008 247.229 77.76 248.461 77.76ZM248.461 80.664C247.997 80.664 247.597 80.776 247.261 81C246.925 81.224 246.669 81.584 246.493 82.08C246.317 82.576 246.229 83.216 246.229 84C246.229 84.784 246.317 85.424 246.493 85.92C246.669 86.4 246.925 86.76 247.261 87C247.597 87.224 247.997 87.336 248.461 87.336C248.941 87.336 249.349 87.224 249.685 87C250.021 86.76 250.277 86.4 250.453 85.92C250.629 85.424 250.717 84.784 250.717 84C250.717 83.216 250.629 82.576 250.453 82.08C250.277 81.584 250.021 81.224 249.685 81C249.349 80.776 248.941 80.664 248.461 80.664ZM261.148 72.912V85.92C261.148 86.448 261.236 86.824 261.412 87.048C261.588 87.272 261.884 87.384 262.3 87.384C262.54 87.384 262.74 87.368 262.9 87.336C263.06 87.304 263.252 87.256 263.476 87.192L263.212 89.64C262.924 89.816 262.548 89.96 262.084 90.072C261.62 90.184 261.164 90.24 260.716 90.24C259.436 90.24 258.508 89.944 257.932 89.352C257.356 88.76 257.068 87.792 257.068 86.448V72.912H261.148ZM271.851 82.392C271.851 81.832 271.691 81.392 271.371 81.072C271.067 80.736 270.651 80.568 270.123 80.568C269.595 80.568 269.139 80.704 268.755 80.976C268.387 81.232 268.131 81.696 267.987 82.368L264.531 81.552C264.755 80.4 265.347 79.48 266.307 78.792C267.267 78.104 268.619 77.76 270.363 77.76C271.531 77.76 272.523 77.936 273.339 78.288C274.171 78.624 274.803 79.136 275.235 79.824C275.683 80.496 275.907 81.328 275.907 82.32V86.712C275.907 87.336 276.187 87.648 276.747 87.648C277.035 87.648 277.267 87.616 277.443 87.552L277.203 89.88C276.723 90.104 276.139 90.216 275.451 90.216C274.827 90.216 274.275 90.12 273.795 89.928C273.315 89.72 272.939 89.416 272.667 89.016C272.395 88.6 272.259 88.08 272.259 87.456V87.312L272.715 87.144C272.715 87.832 272.507 88.408 272.091 88.872C271.691 89.336 271.163 89.68 270.507 89.904C269.867 90.128 269.195 90.24 268.491 90.24C267.675 90.24 266.963 90.112 266.355 89.856C265.747 89.6 265.275 89.232 264.939 88.752C264.619 88.256 264.459 87.648 264.459 86.928C264.459 86.064 264.715 85.352 265.227 84.792C265.755 84.216 266.579 83.816 267.699 83.592L272.235 82.656L272.211 84.816L269.907 85.296C269.427 85.392 269.067 85.536 268.827 85.728C268.603 85.904 268.491 86.176 268.491 86.544C268.491 86.896 268.619 87.16 268.875 87.336C269.131 87.512 269.435 87.6 269.787 87.6C270.059 87.6 270.315 87.56 270.555 87.48C270.811 87.4 271.035 87.28 271.227 87.12C271.419 86.944 271.571 86.728 271.683 86.472C271.795 86.216 271.851 85.912 271.851 85.56V82.392Z" fill="black"/>
<rect x="71" y="120" width="220" height="81" rx="8" fill="#B31232" fill-opacity="0.05"/>
<path fill-rule="evenodd" clip-rule="evenodd" d="M174.487 147.722C174.372 148.27 174.072 148.762 173.637 149.115C173.203 149.468 172.66 149.66 172.1 149.66C171.54 149.66 170.998 149.468 170.563 149.115C170.128 148.762 169.828 148.27 169.713 147.722L169.661 147.475C169.585 147.112 169.587 146.737 169.665 146.375C169.743 146.013 169.897 145.671 170.117 145.372L170.201 145.257C170.419 144.959 170.705 144.717 171.035 144.55C171.365 144.383 171.73 144.295 172.1 144.295C172.47 144.295 172.835 144.383 173.165 144.55C173.495 144.717 173.781 144.959 173.999 145.257L174.083 145.372C174.303 145.671 174.457 146.013 174.535 146.375C174.614 146.737 174.615 147.112 174.539 147.475L174.487 147.722ZM167.7 154.453C167.7 154.865 168.035 155.2 168.447 155.2H173.024C173.319 153.89 174.119 152.75 175.25 152.026C175.043 151.879 174.818 151.758 174.581 151.668L174.413 151.603C172.923 151.035 171.276 151.035 169.787 151.603L169.618 151.667C169.054 151.883 168.568 152.264 168.226 152.762C167.883 153.26 167.7 153.849 167.7 154.453ZM192.553 155.2H187.976C187.681 153.89 186.881 152.75 185.751 152.026C185.957 151.879 186.182 151.758 186.419 151.668L186.588 151.603C188.077 151.035 189.724 151.035 191.213 151.603L191.382 151.667C191.947 151.883 192.432 152.264 192.775 152.762C193.117 153.26 193.301 153.849 193.3 154.453C193.3 154.865 192.966 155.2 192.553 155.2ZM186.513 147.723C186.628 148.271 186.928 148.762 187.363 149.115C187.798 149.468 188.34 149.661 188.9 149.661C189.46 149.661 190.003 149.468 190.437 149.115C190.872 148.762 191.172 148.271 191.287 147.723L191.339 147.475C191.415 147.112 191.414 146.737 191.335 146.375C191.257 146.013 191.103 145.671 190.884 145.372L190.8 145.257C190.581 144.959 190.295 144.717 189.965 144.55C189.635 144.383 189.27 144.295 188.9 144.295C188.53 144.295 188.166 144.383 187.836 144.55C187.506 144.717 187.22 144.959 187.001 145.257L186.917 145.372C186.698 145.671 186.544 146.013 186.465 146.375C186.387 146.737 186.385 147.112 186.461 147.475L186.513 147.723Z" fill="#F2C94C"/>
<path d="M173.024 155.2V156C173.206 156 173.382 155.938 173.524 155.825C173.666 155.711 173.765 155.553 173.804 155.376L173.024 155.2ZM175.25 152.026L175.681 152.7C175.791 152.63 175.883 152.533 175.947 152.419C176.011 152.305 176.047 152.177 176.05 152.046C176.053 151.916 176.024 151.786 175.966 151.669C175.908 151.552 175.821 151.451 175.715 151.375L175.25 152.026ZM187.976 155.2L187.196 155.376C187.236 155.553 187.335 155.711 187.477 155.825C187.618 155.938 187.794 156 187.976 156V155.2ZM185.75 152.026L185.286 151.375C185.179 151.451 185.093 151.552 185.035 151.669C184.976 151.786 184.947 151.915 184.951 152.046C184.954 152.177 184.989 152.305 185.054 152.419C185.118 152.533 185.209 152.629 185.319 152.7L185.75 152.026ZM173.602 150.091C174.025 149.87 174.395 149.557 174.683 149.176C174.971 148.795 175.172 148.355 175.27 147.887L173.704 147.558C173.655 147.795 173.553 148.017 173.407 148.21C173.261 148.403 173.075 148.561 172.86 148.673L173.602 150.091ZM170.6 150.091C171.063 150.333 171.578 150.46 172.101 150.46C172.624 150.46 173.138 150.333 173.602 150.091L172.86 148.673C172.626 148.796 172.365 148.86 172.101 148.86C171.836 148.86 171.575 148.796 171.341 148.673L170.6 150.091ZM168.931 147.887C169.03 148.355 169.23 148.795 169.519 149.176C169.807 149.557 170.176 149.87 170.6 150.091L171.341 148.673C171.127 148.561 170.94 148.403 170.794 148.21C170.648 148.017 170.547 147.795 170.497 147.558L168.931 147.887ZM168.879 147.64L168.931 147.887L170.497 147.558L170.445 147.311L168.879 147.64ZM169.472 144.898C169.186 145.288 168.986 145.734 168.884 146.206C168.781 146.678 168.78 147.167 168.879 147.64L170.445 147.311C170.392 147.058 170.393 146.797 170.448 146.544C170.502 146.292 170.609 146.054 170.762 145.846L169.472 144.898ZM169.556 144.784L169.472 144.898L170.762 145.846L170.846 145.731L169.556 144.784ZM172.1 143.496C171.605 143.496 171.117 143.613 170.675 143.836C170.233 144.06 169.85 144.385 169.556 144.784L170.846 145.731C170.991 145.534 171.179 145.374 171.397 145.264C171.615 145.153 171.856 145.096 172.1 145.096V143.496ZM174.644 144.784C174.351 144.385 173.968 144.06 173.526 143.836C173.084 143.613 172.596 143.496 172.1 143.496V145.096C172.345 145.096 172.585 145.153 172.803 145.264C173.021 145.374 173.21 145.534 173.355 145.731L174.644 144.784ZM174.728 144.898L174.644 144.784L173.355 145.731L173.439 145.846L174.728 144.898ZM175.322 147.64C175.421 147.167 175.42 146.678 175.318 146.206C175.215 145.734 175.014 145.288 174.728 144.898L173.439 145.846C173.592 146.054 173.699 146.292 173.754 146.544C173.808 146.797 173.809 147.058 173.756 147.311L175.322 147.64ZM175.27 147.887L175.322 147.64L173.756 147.311L173.704 147.558L175.27 147.887ZM168.447 154.4C168.476 154.4 168.5 154.424 168.5 154.453H166.9C166.9 154.863 167.063 155.257 167.353 155.547C167.644 155.837 168.037 156 168.447 156V154.4ZM173.025 154.4H168.447V156H173.024L173.025 154.4ZM174.819 151.352C173.511 152.189 172.586 153.509 172.244 155.024L173.805 155.376C174.054 154.271 174.728 153.31 175.681 152.7L174.819 151.352ZM174.296 152.415C174.473 152.483 174.637 152.571 174.786 152.677L175.715 151.375C175.453 151.188 175.168 151.035 174.867 150.92L174.296 152.415ZM174.128 152.351L174.296 152.415L174.867 150.92L174.698 150.856L174.128 152.351ZM170.073 152.351C171.379 151.853 172.822 151.853 174.128 152.351L174.698 150.856C173.025 150.218 171.176 150.218 169.502 150.856L170.073 152.351ZM169.904 152.415L170.073 152.351L169.502 150.856L169.334 150.92L169.904 152.415ZM168.5 154.453C168.5 154.011 168.634 153.58 168.885 153.216C169.136 152.852 169.491 152.573 169.904 152.415L169.334 150.92C168.618 151.193 168.002 151.677 167.567 152.308C167.133 152.939 166.9 153.687 166.9 154.453H168.5ZM187.976 156H192.554V154.4H187.976L187.976 156ZM185.319 152.7C186.272 153.31 186.947 154.272 187.196 155.376L188.757 155.024C188.415 153.509 187.49 152.189 186.182 151.352L185.319 152.7ZM186.134 150.92C185.833 151.035 185.548 151.188 185.286 151.375L186.215 152.677C186.366 152.57 186.531 152.482 186.704 152.415L186.134 150.92ZM186.302 150.856L186.134 150.92L186.704 152.415L186.873 152.351L186.302 150.856ZM191.498 150.856C189.825 150.218 187.976 150.218 186.302 150.856L186.873 152.351C188.179 151.853 189.622 151.853 190.928 152.351L191.498 150.856ZM191.667 150.92L191.498 150.856L190.928 152.351L191.097 152.415L191.667 150.92ZM194.1 154.453C194.1 152.885 193.132 151.48 191.667 150.92L191.097 152.415C191.51 152.573 191.865 152.852 192.116 153.216C192.366 153.58 192.501 154.011 192.5 154.453H194.1ZM192.554 156C192.964 156 193.357 155.837 193.647 155.547C193.937 155.257 194.1 154.863 194.1 154.453H192.5C192.5 154.424 192.524 154.4 192.554 154.4V156ZM188.141 148.673C187.927 148.561 187.74 148.403 187.594 148.21C187.448 148.017 187.347 147.795 187.297 147.558L185.731 147.887C185.829 148.355 186.03 148.795 186.318 149.176C186.607 149.557 186.976 149.87 187.399 150.091L188.141 148.673ZM189.66 148.673C189.426 148.796 189.165 148.86 188.9 148.86C188.636 148.86 188.375 148.796 188.141 148.673L187.399 150.091C187.863 150.333 188.378 150.46 188.9 150.46C189.423 150.46 189.938 150.333 190.402 150.091L189.66 148.673ZM190.504 147.558C190.454 147.795 190.353 148.017 190.207 148.21C190.061 148.403 189.874 148.561 189.66 148.673L190.402 150.091C190.825 149.87 191.194 149.557 191.483 149.176C191.771 148.795 191.972 148.355 192.07 147.887L190.504 147.558ZM190.556 147.311L190.504 147.558L192.07 147.887L192.122 147.64L190.556 147.311ZM190.239 145.846C190.392 146.054 190.499 146.292 190.554 146.544C190.608 146.797 190.609 147.058 190.556 147.311L192.122 147.64C192.221 147.167 192.22 146.679 192.117 146.206C192.015 145.734 191.815 145.288 191.529 144.899L190.239 145.846ZM190.155 145.731L190.239 145.846L191.529 144.899L191.445 144.784L190.155 145.731ZM188.9 145.096C189.396 145.096 189.862 145.332 190.155 145.731L191.445 144.784C191.152 144.385 190.768 144.06 190.326 143.836C189.884 143.612 189.396 143.496 188.9 143.496V145.096ZM187.646 145.731C187.791 145.534 187.979 145.374 188.197 145.264C188.415 145.153 188.656 145.096 188.9 145.096V143.496C188.405 143.496 187.917 143.612 187.475 143.836C187.033 144.06 186.65 144.385 186.356 144.784L187.646 145.731ZM187.562 145.846L187.646 145.731L186.356 144.784L186.272 144.899L187.562 145.846ZM187.245 147.311C187.192 147.058 187.193 146.797 187.247 146.544C187.302 146.292 187.409 146.054 187.562 145.846L186.272 144.899C185.987 145.288 185.786 145.734 185.683 146.206C185.581 146.679 185.58 147.167 185.679 147.64L187.245 147.311ZM187.297 147.558L187.245 147.311L185.679 147.64L185.731 147.887L187.297 147.558Z" fill="#F2C94C"/>
<path d="M186.82 157.6H174.18C173.841 157.6 173.515 157.465 173.275 157.225C173.035 156.985 172.9 156.659 172.9 156.32C172.9 155.285 173.215 154.275 173.803 153.423C174.391 152.572 175.225 151.919 176.192 151.553L176.525 151.427C179.086 150.457 181.914 150.457 184.476 151.427L184.808 151.553C185.776 151.919 186.61 152.572 187.198 153.423C187.786 154.275 188.101 155.285 188.1 156.32C188.1 156.659 187.966 156.985 187.725 157.225C187.485 157.465 187.16 157.6 186.82 157.6Z" fill="#F2994A" stroke="#F2994A" stroke-linecap="square" stroke-linejoin="round"/>
<path d="M178.557 147.631C179.134 147.931 179.772 148.093 180.422 148.105C181.072 148.117 181.716 147.979 182.303 147.701C182.891 147.423 183.407 147.013 183.81 146.503C184.213 145.993 184.493 145.397 184.627 144.761L184.709 144.374C184.842 143.748 184.84 143.1 184.704 142.474C184.568 141.847 184.3 141.257 183.919 140.742L183.787 140.564C183.407 140.05 182.912 139.632 182.341 139.344C181.77 139.057 181.14 138.907 180.5 138.907C179.861 138.907 179.231 139.057 178.66 139.344C178.089 139.632 177.594 140.05 177.214 140.564L177.082 140.742C176.701 141.257 176.433 141.847 176.297 142.474C176.161 143.1 176.159 143.748 176.292 144.374L176.374 144.761C176.503 145.371 176.766 145.945 177.143 146.441C177.521 146.937 178.004 147.344 178.557 147.631Z" fill="#F2994A" stroke="#F2994A" stroke-linecap="round" stroke-linejoin="round"/>
<path d="M110.252 185.16C109.196 185.16 108.295 184.941 107.548 184.504C106.812 184.056 106.305 183.416 106.028 182.584L108.108 181.672C108.183 182.056 108.305 182.376 108.476 182.632C108.647 182.877 108.876 183.064 109.164 183.192C109.463 183.32 109.815 183.384 110.22 183.384C110.583 183.384 110.887 183.32 111.132 183.192C111.388 183.064 111.585 182.883 111.724 182.648C111.863 182.413 111.932 182.147 111.932 181.848C111.932 181.528 111.868 181.267 111.74 181.064C111.623 180.861 111.441 180.717 111.196 180.632C110.951 180.536 110.641 180.488 110.268 180.488C110.129 180.488 109.996 180.493 109.868 180.504C109.751 180.504 109.617 180.515 109.468 180.536V178.92C109.553 178.931 109.639 178.941 109.724 178.952C109.82 178.952 109.916 178.952 110.012 178.952C110.609 178.952 111.036 178.835 111.292 178.6C111.559 178.355 111.692 177.965 111.692 177.432C111.692 176.995 111.559 176.659 111.292 176.424C111.036 176.179 110.668 176.056 110.188 176.056C109.676 176.056 109.271 176.184 108.972 176.44C108.673 176.685 108.465 177.064 108.348 177.576L106.38 176.84C106.508 176.307 106.753 175.848 107.116 175.464C107.489 175.08 107.948 174.787 108.492 174.584C109.036 174.371 109.639 174.264 110.3 174.264C111.089 174.264 111.745 174.387 112.268 174.632C112.801 174.877 113.201 175.213 113.468 175.64C113.745 176.067 113.884 176.557 113.884 177.112C113.884 177.549 113.815 177.923 113.676 178.232C113.548 178.531 113.377 178.787 113.164 179C112.961 179.203 112.748 179.357 112.524 179.464C112.3 179.571 112.092 179.635 111.9 179.656V179.704C112.145 179.715 112.396 179.768 112.652 179.864C112.908 179.949 113.143 180.083 113.356 180.264C113.58 180.445 113.761 180.68 113.9 180.968C114.039 181.245 114.108 181.576 114.108 181.96C114.108 182.6 113.937 183.165 113.596 183.656C113.265 184.136 112.812 184.509 112.236 184.776C111.66 185.032 110.999 185.16 110.252 185.16ZM119.898 174.312C120.655 174.312 121.311 174.429 121.866 174.664C122.431 174.888 122.863 175.213 123.162 175.64C123.471 176.056 123.626 176.563 123.626 177.16C123.626 177.715 123.487 178.195 123.21 178.6C122.943 179.005 122.554 179.315 122.042 179.528V179.544C122.661 179.768 123.146 180.093 123.498 180.52C123.85 180.947 124.026 181.485 124.026 182.136C124.026 182.755 123.855 183.288 123.514 183.736C123.183 184.184 122.709 184.536 122.09 184.792C121.482 185.037 120.751 185.16 119.898 185.16C119.055 185.16 118.325 185.037 117.706 184.792C117.098 184.536 116.623 184.184 116.282 183.736C115.951 183.288 115.786 182.755 115.786 182.136C115.786 181.496 115.962 180.963 116.314 180.536C116.666 180.099 117.157 179.768 117.786 179.544V179.528C117.274 179.325 116.879 179.021 116.602 178.616C116.325 178.2 116.186 177.715 116.186 177.16C116.186 176.563 116.335 176.056 116.634 175.64C116.943 175.213 117.381 174.888 117.946 174.664C118.511 174.429 119.162 174.312 119.898 174.312ZM119.914 176.008C119.413 176.008 119.013 176.131 118.714 176.376C118.415 176.621 118.266 176.963 118.266 177.4C118.266 177.837 118.415 178.179 118.714 178.424C119.013 178.669 119.413 178.792 119.914 178.792C120.405 178.792 120.794 178.669 121.082 178.424C121.381 178.179 121.53 177.837 121.53 177.4C121.53 176.963 121.386 176.621 121.098 176.376C120.81 176.131 120.415 176.008 119.914 176.008ZM119.914 183.448C120.319 183.448 120.666 183.389 120.954 183.272C121.242 183.155 121.461 182.979 121.61 182.744C121.77 182.509 121.85 182.232 121.85 181.912C121.85 181.592 121.77 181.315 121.61 181.08C121.461 180.845 121.237 180.669 120.938 180.552C120.65 180.424 120.309 180.36 119.914 180.36C119.519 180.36 119.173 180.424 118.874 180.552C118.575 180.669 118.346 180.845 118.186 181.08C118.026 181.315 117.946 181.592 117.946 181.912C117.946 182.232 118.026 182.509 118.186 182.744C118.346 182.979 118.57 183.155 118.858 183.272C119.157 183.389 119.509 183.448 119.914 183.448ZM129.867 174.312C130.624 174.312 131.28 174.429 131.835 174.664C132.4 174.888 132.832 175.213 133.131 175.64C133.44 176.056 133.595 176.563 133.595 177.16C133.595 177.715 133.456 178.195 133.179 178.6C132.912 179.005 132.523 179.315 132.011 179.528V179.544C132.629 179.768 133.115 180.093 133.467 180.52C133.819 180.947 133.995 181.485 133.995 182.136C133.995 182.755 133.824 183.288 133.483 183.736C133.152 184.184 132.677 184.536 132.059 184.792C131.451 185.037 130.72 185.16 129.867 185.16C129.024 185.16 128.293 185.037 127.675 184.792C127.067 184.536 126.592 184.184 126.251 183.736C125.92 183.288 125.755 182.755 125.755 182.136C125.755 181.496 125.931 180.963 126.283 180.536C126.635 180.099 127.125 179.768 127.755 179.544V179.528C127.243 179.325 126.848 179.021 126.571 178.616C126.293 178.2 126.155 177.715 126.155 177.16C126.155 176.563 126.304 176.056 126.603 175.64C126.912 175.213 127.349 174.888 127.915 174.664C128.48 174.429 129.131 174.312 129.867 174.312ZM129.883 176.008C129.381 176.008 128.981 176.131 128.683 176.376C128.384 176.621 128.235 176.963 128.235 177.4C128.235 177.837 128.384 178.179 128.683 178.424C128.981 178.669 129.381 178.792 129.883 178.792C130.373 178.792 130.763 178.669 131.051 178.424C131.349 178.179 131.499 177.837 131.499 177.4C131.499 176.963 131.355 176.621 131.067 176.376C130.779 176.131 130.384 176.008 129.883 176.008ZM129.883 183.448C130.288 183.448 130.635 183.389 130.923 183.272C131.211 183.155 131.429 182.979 131.579 182.744C131.739 182.509 131.819 182.232 131.819 181.912C131.819 181.592 131.739 181.315 131.579 181.08C131.429 180.845 131.205 180.669 130.907 180.552C130.619 180.424 130.277 180.36 129.883 180.36C129.488 180.36 129.141 180.424 128.843 180.552C128.544 180.669 128.315 180.845 128.155 181.08C127.995 181.315 127.915 181.592 127.915 181.912C127.915 182.232 127.995 182.509 128.155 182.744C128.315 182.979 128.539 183.155 128.827 183.272C129.125 183.389 129.477 183.448 129.883 183.448ZM141.851 173.496L137.211 186.12H135.179L139.803 173.496H141.851ZM145.308 185V178.312C145.308 178.067 145.308 177.816 145.308 177.56C145.319 177.293 145.33 177.021 145.34 176.744C144.978 177.075 144.572 177.363 144.124 177.608C143.676 177.853 143.218 178.024 142.748 178.12L142.46 176.264C142.706 176.243 142.978 176.173 143.276 176.056C143.586 175.928 143.895 175.779 144.204 175.608C144.524 175.427 144.812 175.24 145.068 175.048C145.335 174.845 145.538 174.643 145.676 174.44H147.468V185H145.308ZM153.389 185.16C152.461 185.16 151.677 184.968 151.037 184.584C150.407 184.2 149.89 183.613 149.485 182.824L151.469 181.832C151.607 182.301 151.826 182.68 152.125 182.968C152.423 183.256 152.861 183.4 153.437 183.4C153.831 183.4 154.167 183.331 154.445 183.192C154.722 183.053 154.935 182.851 155.085 182.584C155.245 182.317 155.325 181.992 155.325 181.608C155.325 181.224 155.25 180.904 155.101 180.648C154.962 180.381 154.759 180.184 154.493 180.056C154.226 179.917 153.89 179.848 153.485 179.848C153.207 179.848 152.946 179.875 152.701 179.928C152.466 179.981 152.253 180.067 152.061 180.184C151.869 180.291 151.698 180.435 151.549 180.616L149.821 180.296L150.477 174.44H156.861V176.216H152.141L151.821 178.792L151.773 179H151.805C152.029 178.744 152.333 178.547 152.717 178.408C153.111 178.269 153.559 178.2 154.061 178.2C154.754 178.2 155.346 178.339 155.837 178.616C156.327 178.893 156.706 179.283 156.973 179.784C157.239 180.275 157.373 180.84 157.373 181.48C157.373 182.088 157.271 182.627 157.069 183.096C156.866 183.555 156.578 183.939 156.205 184.248C155.842 184.547 155.421 184.776 154.941 184.936C154.461 185.085 153.943 185.16 153.389 185.16ZM160.349 182.552C160.69 182.552 160.973 182.637 161.197 182.808C161.421 182.968 161.592 183.187 161.709 183.464C161.826 183.731 161.885 184.029 161.885 184.36C161.885 184.797 161.794 185.219 161.613 185.624C161.442 186.029 161.202 186.392 160.893 186.712C160.584 187.032 160.232 187.283 159.837 187.464L158.893 186.712C159.181 186.595 159.442 186.451 159.677 186.28C159.922 186.109 160.13 185.917 160.301 185.704C160.472 185.491 160.594 185.272 160.669 185.048L160.589 185C160.536 185.032 160.472 185.059 160.397 185.08C160.322 185.112 160.216 185.128 160.077 185.128C159.906 185.128 159.736 185.085 159.565 185C159.394 184.904 159.25 184.771 159.133 184.6C159.016 184.419 158.957 184.195 158.957 183.928C158.957 183.64 159.021 183.395 159.149 183.192C159.277 182.989 159.448 182.835 159.661 182.728C159.874 182.611 160.104 182.552 160.349 182.552ZM167.463 185.16C166.108 185.16 165.063 184.701 164.327 183.784C163.602 182.867 163.239 181.512 163.239 179.72C163.239 177.928 163.602 176.573 164.327 175.656C165.063 174.739 166.108 174.28 167.463 174.28C168.818 174.28 169.858 174.739 170.583 175.656C171.319 176.573 171.687 177.928 171.687 179.72C171.687 181.512 171.319 182.867 170.583 183.784C169.858 184.701 168.818 185.16 167.463 185.16ZM167.463 183.384C167.922 183.384 168.295 183.256 168.583 183C168.882 182.733 169.106 182.333 169.255 181.8C169.404 181.256 169.479 180.563 169.479 179.72C169.479 178.877 169.404 178.189 169.255 177.656C169.106 177.112 168.882 176.712 168.583 176.456C168.295 176.189 167.922 176.056 167.463 176.056C167.004 176.056 166.626 176.189 166.327 176.456C166.028 176.712 165.804 177.112 165.655 177.656C165.516 178.189 165.447 178.877 165.447 179.72C165.447 180.563 165.516 181.256 165.655 181.8C165.804 182.333 166.028 182.733 166.327 183C166.626 183.256 167.004 183.384 167.463 183.384ZM177.635 185.16C176.28 185.16 175.235 184.701 174.499 183.784C173.774 182.867 173.411 181.512 173.411 179.72C173.411 177.928 173.774 176.573 174.499 175.656C175.235 174.739 176.28 174.28 177.635 174.28C178.99 174.28 180.03 174.739 180.755 175.656C181.491 176.573 181.859 177.928 181.859 179.72C181.859 181.512 181.491 182.867 180.755 183.784C180.03 184.701 178.99 185.16 177.635 185.16ZM177.635 183.384C178.094 183.384 178.467 183.256 178.755 183C179.054 182.733 179.278 182.333 179.427 181.8C179.576 181.256 179.651 180.563 179.651 179.72C179.651 178.877 179.576 178.189 179.427 177.656C179.278 177.112 179.054 176.712 178.755 176.456C178.467 176.189 178.094 176.056 177.635 176.056C177.176 176.056 176.798 176.189 176.499 176.456C176.2 176.712 175.976 177.112 175.827 177.656C175.688 178.189 175.619 178.877 175.619 179.72C175.619 180.563 175.688 181.256 175.827 181.8C175.976 182.333 176.2 182.733 176.499 183C176.798 183.256 177.176 183.384 177.635 183.384ZM187.807 185.16C186.452 185.16 185.407 184.701 184.671 183.784C183.945 182.867 183.583 181.512 183.583 179.72C183.583 177.928 183.945 176.573 184.671 175.656C185.407 174.739 186.452 174.28 187.807 174.28C189.161 174.28 190.201 174.739 190.927 175.656C191.663 176.573 192.031 177.928 192.031 179.72C192.031 181.512 191.663 182.867 190.927 183.784C190.201 184.701 189.161 185.16 187.807 185.16ZM187.807 183.384C188.265 183.384 188.639 183.256 188.927 183C189.225 182.733 189.449 182.333 189.599 181.8C189.748 181.256 189.823 180.563 189.823 179.72C189.823 178.877 189.748 178.189 189.599 177.656C189.449 177.112 189.225 176.712 188.927 176.456C188.639 176.189 188.265 176.056 187.807 176.056C187.348 176.056 186.969 176.189 186.671 176.456C186.372 176.712 186.148 177.112 185.999 177.656C185.86 178.189 185.791 178.877 185.791 179.72C185.791 180.563 185.86 181.256 185.999 181.8C186.148 182.333 186.372 182.733 186.671 183C186.969 183.256 187.348 183.384 187.807 183.384Z" fill="black"/>
<path d="M201.757 185.238C201.039 184.519 200.413 183.838 199.881 183.194C199.359 182.55 198.976 182.004 198.733 181.556C198.593 181.313 198.491 181.089 198.425 180.884C198.36 180.669 198.327 180.473 198.327 180.296C198.327 180.044 198.402 179.843 198.551 179.694C198.701 179.545 198.906 179.47 199.167 179.47C199.447 179.47 199.709 179.563 199.951 179.75C200.194 179.937 200.437 180.179 200.679 180.478L199.867 180.38C200.259 180.221 200.53 179.983 200.679 179.666C200.829 179.349 200.903 179.003 200.903 178.63C200.903 178.313 200.866 178.033 200.791 177.79C200.726 177.538 200.647 177.337 200.553 177.188L201.239 177.454H197.781V176.292H203.759V177.454H201.533L201.953 177.174C202.065 177.407 202.149 177.655 202.205 177.916C202.261 178.168 202.289 178.457 202.289 178.784C202.289 179.157 202.229 179.498 202.107 179.806C201.995 180.114 201.832 180.385 201.617 180.618L201.533 180.744C201.365 180.94 201.16 181.113 200.917 181.262C200.684 181.402 200.395 181.537 200.049 181.668L200.021 181.486C200.255 181.794 200.511 182.102 200.791 182.41C201.081 182.718 201.393 183.035 201.729 183.362C202.065 183.679 202.415 184.011 202.779 184.356L201.757 185.238ZM203.507 181.696C203.115 181.696 202.7 181.649 202.261 181.556C201.832 181.463 201.407 181.304 200.987 181.08L201.407 180.1C201.79 180.249 202.14 180.357 202.457 180.422C202.775 180.487 203.12 180.52 203.493 180.52C203.876 180.52 204.24 180.487 204.585 180.422C204.931 180.347 205.285 180.231 205.649 180.072V181.304C205.323 181.444 204.982 181.547 204.627 181.612C204.273 181.668 203.899 181.696 203.507 181.696ZM204.921 185V177.454H203.409V176.292H207.707V177.454H206.307V185H204.921ZM204.744 176.39C204.585 176.073 204.469 175.76 204.394 175.452C204.31 175.135 204.268 174.836 204.268 174.556C204.268 173.931 204.464 173.427 204.856 173.044C205.248 172.652 205.799 172.456 206.508 172.456C207.189 172.456 207.749 172.61 208.188 172.918C208.636 173.226 209 173.674 209.28 174.262C209.56 174.85 209.789 175.559 209.966 176.39H208.706C208.51 175.457 208.249 174.761 207.922 174.304C207.605 173.847 207.208 173.618 206.732 173.618C206.359 173.618 206.083 173.725 205.906 173.94C205.729 174.155 205.64 174.439 205.64 174.794C205.64 175.055 205.682 175.321 205.766 175.592C205.85 175.853 205.957 176.119 206.088 176.39H204.744ZM210.078 177.454V185H208.706V177.454H207.502V176.292H211.478V177.454H210.078ZM218.654 177.454H217.016V180.128H215.756C214.934 180.128 214.304 180.273 213.866 180.562C213.436 180.842 213.222 181.304 213.222 181.948C213.222 182.545 213.422 183.003 213.824 183.32C214.234 183.628 214.729 183.782 215.308 183.782C215.737 183.782 216.134 183.712 216.498 183.572C216.862 183.432 217.244 183.222 217.646 182.942L218.206 184.006C217.814 184.323 217.384 184.571 216.918 184.748C216.451 184.916 215.905 185 215.28 185C214.608 185 214.015 184.879 213.502 184.636C212.998 184.384 212.596 184.029 212.298 183.572C212.008 183.105 211.864 182.555 211.864 181.92C211.864 180.94 212.181 180.207 212.816 179.722C213.46 179.237 214.37 178.994 215.546 178.994H216.078L215.644 179.344V177.454H211.262V176.292H218.654V177.454ZM216.569 173.506C216.569 173.263 216.653 173.058 216.821 172.89C216.989 172.722 217.185 172.638 217.409 172.638C217.642 172.638 217.838 172.722 217.997 172.89C218.155 173.058 218.235 173.263 218.235 173.506C218.235 173.749 218.155 173.954 217.997 174.122C217.838 174.29 217.642 174.374 217.409 174.374C217.185 174.374 216.989 174.29 216.821 174.122C216.653 173.954 216.569 173.749 216.569 173.506ZM215.673 176.39C215.486 175.802 215.327 175.331 215.197 174.976C215.057 174.612 214.921 174.337 214.791 174.15C214.651 173.954 214.501 173.823 214.343 173.758C214.184 173.683 213.988 173.646 213.755 173.646C213.568 173.646 213.377 173.669 213.181 173.716C212.975 173.753 212.793 173.805 212.635 173.87L212.271 172.722C212.485 172.638 212.723 172.573 212.985 172.526C213.237 172.479 213.484 172.456 213.727 172.456C214.147 172.456 214.506 172.517 214.805 172.638C215.094 172.75 215.355 172.955 215.589 173.254C215.813 173.543 216.027 173.945 216.233 174.458C216.438 174.962 216.662 175.606 216.905 176.39H215.673ZM231.392 177.454H229.992V185H228.62V182.298L229.04 182.704C228.713 182.975 228.349 183.18 227.948 183.32C227.556 183.46 227.085 183.53 226.534 183.53C225.629 183.53 224.915 183.306 224.392 182.858C223.869 182.401 223.608 181.794 223.608 181.038C223.608 180.189 223.893 179.554 224.462 179.134C225.031 178.714 225.769 178.504 226.674 178.504C226.963 178.504 227.229 178.518 227.472 178.546C227.715 178.574 227.939 178.611 228.144 178.658L228.046 179.764C227.85 179.717 227.649 179.685 227.444 179.666C227.239 179.638 227.029 179.624 226.814 179.624C226.226 179.624 225.769 179.741 225.442 179.974C225.115 180.207 224.952 180.567 224.952 181.052C224.952 181.519 225.101 181.864 225.4 182.088C225.699 182.312 226.095 182.424 226.59 182.424C226.917 182.424 227.22 182.373 227.5 182.27C227.789 182.158 228.046 182.018 228.27 181.85C228.494 181.673 228.681 181.491 228.83 181.304L228.62 182.032V177.454H223.006V176.292H231.392V177.454ZM225.946 179.134L228.354 182.186L227.654 182.788L225.022 179.47L225.946 179.134ZM240.519 177.454H239.119V185H237.747V182.508L238.069 182.718C237.799 182.979 237.463 183.185 237.061 183.334C236.66 183.483 236.226 183.558 235.759 183.558C235.237 183.558 234.775 183.469 234.373 183.292C233.972 183.105 233.655 182.849 233.421 182.522C233.197 182.186 233.085 181.794 233.085 181.346C233.085 181.01 233.146 180.721 233.267 180.478C233.398 180.235 233.552 180.044 233.729 179.904L231.713 179.932V178.77H236.739L236.627 179.918H236.151C235.647 179.918 235.237 180.025 234.919 180.24C234.611 180.455 234.457 180.781 234.457 181.22C234.457 181.593 234.579 181.883 234.821 182.088C235.064 182.284 235.377 182.382 235.759 182.382C236.226 182.382 236.646 182.265 237.019 182.032C237.393 181.789 237.691 181.505 237.915 181.178L237.747 181.976V177.454H231.195V176.292H240.519V177.454ZM237.57 176.39C237.411 176.073 237.295 175.76 237.22 175.452C237.136 175.135 237.094 174.836 237.094 174.556C237.094 173.931 237.29 173.427 237.682 173.044C238.074 172.652 238.625 172.456 239.334 172.456C240.015 172.456 240.575 172.61 241.014 172.918C241.462 173.226 241.826 173.674 242.106 174.262C242.386 174.85 242.615 175.559 242.792 176.39H241.532C241.336 175.457 241.075 174.761 240.748 174.304C240.431 173.847 240.034 173.618 239.558 173.618C239.185 173.618 238.909 173.725 238.732 173.94C238.555 174.155 238.466 174.439 238.466 174.794C238.466 175.055 238.508 175.321 238.592 175.592C238.676 175.853 238.783 176.119 238.914 176.39H237.57ZM242.904 177.454V185H241.532V177.454H240.328V176.292H244.304V177.454H242.904ZM250.671 181.934C250.316 181.673 250.041 181.397 249.845 181.108C249.649 180.819 249.551 180.501 249.551 180.156C249.551 179.633 249.737 179.237 250.111 178.966C250.484 178.686 251.044 178.546 251.791 178.546H253.653V177.454H248.641V176.292H256.425V177.454H255.025V179.694H251.973C251.599 179.694 251.324 179.75 251.147 179.862C250.979 179.974 250.895 180.142 250.895 180.366C250.895 180.534 250.951 180.697 251.063 180.856C251.184 181.005 251.338 181.141 251.525 181.262L250.671 181.934ZM253.359 184.16C253.648 184.02 253.867 183.857 254.017 183.67C254.175 183.483 254.255 183.287 254.255 183.082C254.255 182.802 254.138 182.569 253.905 182.382C253.681 182.195 253.303 182.102 252.771 182.102C252.173 182.102 251.711 182.228 251.385 182.48C251.067 182.723 250.909 183.059 250.909 183.488C250.909 183.833 251.03 184.146 251.273 184.426C251.525 184.697 251.889 184.953 252.365 185.196C252.841 185.439 253.429 185.691 254.129 185.952L253.499 187.072C252.705 186.783 252.01 186.47 251.413 186.134C250.825 185.798 250.367 185.415 250.041 184.986C249.714 184.547 249.551 184.043 249.551 183.474C249.551 182.895 249.695 182.424 249.985 182.06C250.274 181.687 250.666 181.411 251.161 181.234C251.655 181.047 252.211 180.954 252.827 180.954C253.48 180.954 254.012 181.052 254.423 181.248C254.833 181.444 255.132 181.701 255.319 182.018C255.505 182.335 255.599 182.685 255.599 183.068C255.599 183.451 255.51 183.801 255.333 184.118C255.155 184.435 254.843 184.729 254.395 185L253.359 184.16ZM254.367 173.506C254.367 173.263 254.451 173.058 254.619 172.89C254.777 172.722 254.969 172.638 255.193 172.638C255.426 172.638 255.627 172.722 255.795 172.89C255.953 173.058 256.033 173.263 256.033 173.506C256.033 173.749 255.953 173.954 255.795 174.122C255.627 174.29 255.426 174.374 255.193 174.374C254.969 174.374 254.777 174.29 254.619 174.122C254.451 173.954 254.367 173.749 254.367 173.506ZM253.709 176.39C253.419 176.063 253.172 175.821 252.967 175.662C252.752 175.503 252.556 175.396 252.379 175.34C252.201 175.284 251.996 175.256 251.763 175.256C251.548 175.256 251.333 175.284 251.119 175.34C250.904 175.396 250.699 175.466 250.503 175.55L250.125 174.5C250.349 174.407 250.577 174.332 250.811 174.276C251.044 174.22 251.277 174.192 251.511 174.192C251.8 174.192 252.052 174.229 252.267 174.304C252.472 174.369 252.682 174.486 252.897 174.654C253.111 174.822 253.354 175.046 253.625 175.326L253.681 175.298C253.419 174.803 253.195 174.43 253.009 174.178C252.813 173.917 252.617 173.739 252.421 173.646C252.215 173.553 251.982 173.506 251.721 173.506C251.562 173.506 251.403 173.525 251.245 173.562C251.077 173.59 250.899 173.641 250.713 173.716L250.377 172.666C250.563 172.591 250.769 172.54 250.993 172.512C251.217 172.475 251.445 172.456 251.679 172.456C252.089 172.456 252.439 172.517 252.729 172.638C253.009 172.75 253.265 172.951 253.499 173.24C253.732 173.529 253.961 173.931 254.185 174.444C254.399 174.948 254.637 175.597 254.899 176.39H253.709Z" fill="#78858F"/>
<rect x="18" y="229" width="190" height="54" rx="8" fill="url(#paint0_linear_23778_169944)"/>
<path d="M63.7373 253.657V263.172C63.7373 263.722 63.519 264.251 63.1299 264.64C62.7408 265.029 62.2124 265.247 61.6621 265.247H46.3389C45.7888 265.247 45.2612 265.029 44.8721 264.64C44.4829 264.251 44.2637 263.722 44.2637 263.172V253.657H63.7373Z" fill="#FEDB41" stroke="black" stroke-width="0.4"/>
<path d="M61.6621 248.427C62.2124 248.427 62.7407 248.646 63.1299 249.035C63.5188 249.424 63.7373 249.952 63.7373 250.502V254.058H44.2637V250.502C44.2637 249.952 44.4829 249.424 44.8721 249.035C45.2612 248.646 45.7885 248.427 46.3389 248.427H61.6621Z" fill="#00ACEA" stroke="black" stroke-width="0.4"/>
<path d="M57.4552 258.183C57.7453 259.678 56.8219 261.674 54.0872 262.782C54.0309 262.805 53.9677 262.805 53.9114 262.782C51.1856 261.7 50.2538 259.696 50.5439 258.183C50.737 257.163 51.4495 256.513 52.3725 256.513C52.8914 256.513 53.4455 256.724 53.9995 257.137C54.5447 256.741 55.1072 256.53 55.6172 256.53C56.5406 256.53 57.2527 257.181 57.4552 258.183Z" fill="#D7443E"/>
<path d="M48.6475 250.675C48.548 250.675 48.4526 250.636 48.3823 250.566C48.312 250.495 48.2725 250.4 48.2725 250.3V246.953C48.2725 246.854 48.312 246.758 48.3823 246.688C48.4526 246.618 48.548 246.578 48.6475 246.578C48.7469 246.578 48.8423 246.618 48.9126 246.688C48.983 246.758 49.0225 246.854 49.0225 246.953V250.3C49.0225 250.4 48.983 250.495 48.9126 250.566C48.8423 250.636 48.7469 250.675 48.6475 250.675ZM59.5614 250.675C59.4619 250.675 59.3665 250.636 59.2962 250.566C59.2259 250.495 59.1864 250.4 59.1864 250.3V246.953C59.1864 246.854 59.2259 246.758 59.2962 246.688C59.3665 246.618 59.4619 246.578 59.5614 246.578C59.6608 246.578 59.7562 246.618 59.8265 246.688C59.8969 246.758 59.9364 246.854 59.9364 246.953V250.3C59.9364 250.4 59.8969 250.495 59.8265 250.566C59.7562 250.636 59.6608 250.675 59.5614 250.675Z" fill="#FEDB41"/>
<path d="M83.3469 253.032V262.5H81.2229V253.032H80.0349V251.304H85.0929V253.032H83.3469ZM75.8409 251.124C76.5729 251.124 77.1669 251.25 77.6229 251.502C78.0909 251.742 78.4269 252.072 78.6309 252.492C78.8469 252.9 78.9549 253.356 78.9549 253.86C78.9549 254.76 78.6009 255.486 77.8929 256.038C77.1969 256.59 76.1229 256.92 74.6709 257.028L74.3469 255.39C75.0309 255.318 75.5529 255.222 75.9129 255.102C76.2849 254.97 76.5429 254.808 76.6869 254.616C76.8309 254.424 76.9029 254.196 76.9029 253.932C76.9029 253.596 76.7889 253.338 76.5609 253.158C76.3449 252.978 76.0329 252.888 75.6249 252.888C75.2529 252.888 74.8809 252.942 74.5089 253.05C74.1369 253.158 73.7649 253.32 73.3929 253.536L72.7989 251.88C73.2309 251.64 73.6989 251.454 74.2029 251.322C74.7189 251.19 75.2649 251.124 75.8409 251.124ZM79.2429 258.576C79.2429 259.5 78.9369 260.226 78.3249 260.754C77.7249 261.27 76.9269 261.528 75.9309 261.528C75.1629 261.528 74.4669 261.372 73.8429 261.06C73.2309 260.736 72.6609 260.202 72.1329 259.458C71.6049 258.714 71.0829 257.694 70.5669 256.398L72.2769 255.606C72.7929 256.998 73.3149 258.036 73.8429 258.72C74.3709 259.404 74.9889 259.746 75.6969 259.746C76.1649 259.746 76.5369 259.626 76.8129 259.386C77.0889 259.146 77.2269 258.798 77.2269 258.342C77.2269 257.898 77.0649 257.502 76.7409 257.154C76.4169 256.794 76.0149 256.476 75.5349 256.2L76.5429 255.804L77.6049 255.732C77.7849 255.864 77.9649 256.02 78.1449 256.2C78.3369 256.38 78.4929 256.566 78.6129 256.758L78.7929 257.082C78.9369 257.298 79.0449 257.532 79.1169 257.784C79.2009 258.036 79.2429 258.3 79.2429 258.576ZM79.4409 256.164C79.8849 256.164 80.3289 256.122 80.7729 256.038C81.2169 255.942 81.6609 255.786 82.1049 255.57L82.1769 257.37C81.8049 257.538 81.4269 257.658 81.0429 257.73C80.6589 257.802 80.2689 257.838 79.8729 257.838C79.5129 257.838 79.1469 257.808 78.7749 257.748C78.4029 257.676 78.0549 257.592 77.7309 257.496L77.4249 256.182L77.5869 255.93C77.8629 256.002 78.1569 256.062 78.4689 256.11C78.7929 256.146 79.1169 256.164 79.4409 256.164ZM88.0569 251.124C88.8369 251.124 89.4609 251.256 89.9289 251.52C90.3969 251.784 90.7329 252.168 90.9369 252.672C91.1529 253.164 91.2609 253.752 91.2609 254.436V256.632H94.4649V253.032H92.5029V251.304H98.3169V253.032H96.5889V262.5H94.4649V258.378H91.2609V258.81C91.2609 259.266 91.1589 259.602 90.9549 259.818C90.7509 260.022 90.4809 260.124 90.1449 260.124C89.8689 260.124 89.5809 260.04 89.2809 259.872C88.9929 259.704 88.7229 259.494 88.4709 259.242C88.2309 258.978 88.0329 258.702 87.8769 258.414C87.7329 258.114 87.6609 257.832 87.6609 257.568C87.6609 257.4 87.6969 257.244 87.7689 257.1C87.8409 256.956 87.9729 256.842 88.1649 256.758C88.3569 256.674 88.6209 256.632 88.9569 256.632L89.2089 256.722V254.364C89.2089 253.776 89.1249 253.338 88.9569 253.05C88.7889 252.762 88.5009 252.618 88.0929 252.618C87.8049 252.618 87.5829 252.69 87.4269 252.834C87.2829 252.978 87.2109 253.164 87.2109 253.392C87.2109 253.668 87.3129 253.878 87.5169 254.022C87.7329 254.166 88.0569 254.262 88.4889 254.31L88.2909 255.768C87.4149 255.72 86.7009 255.492 86.1489 255.084C85.6089 254.676 85.3389 254.106 85.3389 253.374C85.3389 252.618 85.5909 252.054 86.0949 251.682C86.6109 251.31 87.2649 251.124 88.0569 251.124ZM93.9661 251.43C93.7741 251.046 93.6301 250.662 93.5341 250.278C93.4381 249.894 93.3901 249.528 93.3901 249.18C93.3901 248.34 93.6601 247.662 94.2001 247.146C94.7401 246.63 95.4961 246.372 96.4681 246.372C97.4161 246.372 98.1901 246.582 98.7901 247.002C99.4021 247.41 99.8941 247.992 100.266 248.748C100.65 249.504 100.956 250.398 101.184 251.43H99.2401C99.0001 250.326 98.6821 249.498 98.2861 248.946C97.9021 248.382 97.4161 248.1 96.8281 248.1C96.3721 248.1 96.0361 248.232 95.8201 248.496C95.6041 248.748 95.4961 249.096 95.4961 249.54C95.4961 249.852 95.5501 250.17 95.6581 250.494C95.7541 250.806 95.8801 251.118 96.0361 251.43H93.9661ZM101.346 253.032V262.5H99.2401V253.032H97.7641V251.304H103.074V253.032H101.346ZM113.507 253.032L113.921 252.618C114.041 252.906 114.137 253.206 114.209 253.518C114.281 253.83 114.317 254.196 114.317 254.616C114.317 255.24 114.185 255.792 113.921 256.272C113.657 256.74 113.285 257.148 112.805 257.496C112.325 257.832 111.761 258.12 111.113 258.36L111.095 258C111.455 258.372 111.833 258.756 112.229 259.152C112.637 259.536 113.063 259.92 113.507 260.304C113.963 260.688 114.425 261.072 114.893 261.456L113.417 262.824C112.457 261.996 111.623 261.222 110.915 260.502C110.219 259.782 109.649 259.104 109.205 258.468C108.917 258.072 108.707 257.718 108.575 257.406C108.443 257.094 108.377 256.794 108.377 256.506C108.377 256.17 108.485 255.9 108.701 255.696C108.917 255.48 109.211 255.372 109.583 255.372C109.967 255.372 110.327 255.492 110.663 255.732C110.999 255.972 111.347 256.308 111.707 256.74L110.555 256.47C111.131 256.242 111.551 255.954 111.815 255.606C112.079 255.258 112.211 254.832 112.211 254.328C112.211 253.98 112.169 253.65 112.085 253.338C112.001 253.014 111.881 252.768 111.725 252.6L112.607 253.032H107.729V251.304H115.721V253.032H113.507ZM116.585 251.43C116.429 251.154 116.297 250.86 116.189 250.548C116.081 250.224 116.027 249.864 116.027 249.468C116.027 248.796 116.231 248.232 116.639 247.776C117.047 247.32 117.629 246.972 118.385 246.732C119.141 246.492 120.029 246.372 121.049 246.372C122.369 246.372 123.599 246.504 124.739 246.768C125.891 247.032 126.953 247.398 127.925 247.866C128.897 248.322 129.773 248.856 130.553 249.468C131.345 250.08 132.035 250.734 132.623 251.43H130.391C129.803 250.902 129.173 250.44 128.501 250.044C127.841 249.636 127.133 249.288 126.377 249C125.633 248.712 124.853 248.496 124.037 248.352C123.221 248.196 122.375 248.118 121.499 248.118C120.419 248.118 119.591 248.274 119.015 248.586C118.439 248.898 118.151 249.348 118.151 249.936C118.151 250.248 118.199 250.53 118.295 250.782C118.403 251.022 118.535 251.238 118.691 251.43H116.585ZM118.727 253.032V262.5H116.621V253.032H115.145V251.304H120.455V253.032H118.727ZM132.292 253.032V262.5H130.168V256.362H128.458C128.146 256.362 127.876 256.356 127.648 256.344C127.42 256.332 127.246 256.308 127.126 256.272L126.37 255.66C127.018 256.044 127.534 256.488 127.918 256.992C128.302 257.484 128.494 258.054 128.494 258.702C128.494 259.254 128.362 259.722 128.098 260.106C127.846 260.49 127.504 260.778 127.072 260.97C126.652 261.162 126.172 261.258 125.632 261.258C125.104 261.258 124.6 261.162 124.12 260.97C123.64 260.778 123.178 260.466 122.734 260.034C122.302 259.59 121.888 259.002 121.492 258.27C121.096 257.526 120.706 256.608 120.322 255.516L122.104 254.868C122.44 255.888 122.776 256.74 123.112 257.424C123.46 258.108 123.82 258.624 124.192 258.972C124.564 259.32 124.948 259.494 125.344 259.494C125.656 259.494 125.914 259.41 126.118 259.242C126.322 259.074 126.424 258.792 126.424 258.396C126.424 257.94 126.268 257.52 125.956 257.136C125.644 256.74 125.236 256.38 124.732 256.056L125.308 254.67H130.168V253.032H119.908V251.304H134.02V253.032H132.292ZM138.5 262.86C137.54 261.9 136.73 261.018 136.07 260.214C135.41 259.41 134.924 258.732 134.612 258.18C134.432 257.856 134.3 257.562 134.216 257.298C134.132 257.034 134.09 256.782 134.09 256.542C134.09 256.194 134.192 255.912 134.396 255.696C134.612 255.48 134.912 255.372 135.296 255.372C135.704 255.372 136.07 255.504 136.394 255.768C136.73 256.032 137.06 256.356 137.384 256.74L136.142 256.578C136.622 256.35 136.952 256.05 137.132 255.678C137.312 255.294 137.402 254.868 137.402 254.4C137.402 254.016 137.354 253.668 137.258 253.356C137.174 253.032 137.06 252.774 136.916 252.582L137.978 253.032H133.442V251.304H142.694V253.032H138.608L139.094 252.6C139.226 252.888 139.328 253.2 139.4 253.536C139.484 253.86 139.526 254.226 139.526 254.634C139.526 255.114 139.448 255.546 139.292 255.93C139.136 256.314 138.926 256.65 138.662 256.938L138.482 257.154C138.266 257.406 138.008 257.622 137.708 257.802C137.408 257.982 137.054 258.15 136.646 258.306V258.036C136.934 258.408 137.258 258.786 137.618 259.17C137.978 259.554 138.362 259.944 138.77 260.34C139.19 260.736 139.622 261.138 140.066 261.546L138.5 262.86ZM141.092 258.594C140.528 258.594 139.934 258.522 139.31 258.378C138.686 258.222 138.086 257.97 137.51 257.622L138.23 256.29C138.71 256.494 139.166 256.638 139.598 256.722C140.03 256.806 140.486 256.848 140.966 256.848C141.302 256.848 141.626 256.836 141.938 256.812C142.25 256.776 142.58 256.734 142.928 256.686L143 258.36C142.688 258.456 142.376 258.522 142.064 258.558C141.764 258.582 141.44 258.594 141.092 258.594ZM150.227 253.032H148.139V256.434H146.375C145.379 256.434 144.623 256.602 144.107 256.938C143.591 257.274 143.333 257.814 143.333 258.558C143.333 259.254 143.573 259.782 144.053 260.142C144.533 260.502 145.127 260.682 145.835 260.682C146.387 260.682 146.897 260.592 147.365 260.412C147.845 260.232 148.349 259.962 148.877 259.602L149.669 261.186C149.165 261.618 148.595 261.948 147.959 262.176C147.335 262.392 146.609 262.5 145.781 262.5C144.893 262.5 144.107 262.344 143.423 262.032C142.739 261.708 142.199 261.246 141.803 260.646C141.419 260.046 141.227 259.332 141.227 258.504C141.227 257.244 141.641 256.308 142.469 255.696C143.309 255.072 144.491 254.76 146.015 254.76H146.645L146.033 255.228V253.032H140.525V251.304H150.227V253.032ZM155.46 253.032L155.874 252.618C155.994 252.906 156.09 253.206 156.162 253.518C156.234 253.83 156.27 254.196 156.27 254.616C156.27 255.24 156.138 255.792 155.874 256.272C155.61 256.74 155.238 257.148 154.758 257.496C154.278 257.832 153.714 258.12 153.066 258.36L153.048 258C153.408 258.372 153.786 258.756 154.182 259.152C154.59 259.536 155.016 259.92 155.46 260.304C155.916 260.688 156.378 261.072 156.846 261.456L155.37 262.824C154.41 261.996 153.576 261.222 152.868 260.502C152.172 259.782 151.602 259.104 151.158 258.468C150.87 258.072 150.66 257.718 150.528 257.406C150.396 257.094 150.33 256.794 150.33 256.506C150.33 256.17 150.438 255.9 150.654 255.696C150.87 255.48 151.164 255.372 151.536 255.372C151.92 255.372 152.28 255.492 152.616 255.732C152.952 255.972 153.3 256.308 153.66 256.74L152.508 256.47C153.084 256.242 153.504 255.954 153.768 255.606C154.032 255.258 154.164 254.832 154.164 254.328C154.164 253.98 154.122 253.65 154.038 253.338C153.954 253.014 153.834 252.768 153.678 252.6L154.56 253.032H149.682V251.304H157.674V253.032H155.46ZM177.078 253.032H171.228V256.542L170.976 256.146C171.24 255.894 171.558 255.69 171.93 255.534C172.314 255.378 172.746 255.3 173.226 255.3C174.138 255.3 174.852 255.57 175.368 256.11C175.896 256.638 176.16 257.37 176.16 258.306C176.16 258.906 176.046 259.5 175.818 260.088C175.602 260.664 175.236 261.264 174.72 261.888L172.884 260.844C173.244 260.448 173.526 260.052 173.73 259.656C173.946 259.248 174.054 258.81 174.054 258.342C174.054 257.898 173.952 257.568 173.748 257.352C173.544 257.124 173.256 257.01 172.884 257.01C172.524 257.01 172.188 257.124 171.876 257.352C171.576 257.568 171.336 257.85 171.156 258.198L171.228 257.64V262.5H169.122V258.954L169.644 259.512C169.38 259.752 169.092 259.962 168.78 260.142C168.48 260.31 168.144 260.442 167.772 260.538C167.412 260.634 167.022 260.682 166.602 260.682C165.918 260.682 165.3 260.562 164.748 260.322C164.208 260.07 163.782 259.71 163.47 259.242C163.158 258.762 163.002 258.174 163.002 257.478C163.002 256.47 163.338 255.69 164.01 255.138C164.682 254.586 165.618 254.31 166.818 254.31C167.13 254.31 167.43 254.328 167.718 254.364C168.006 254.388 168.282 254.43 168.546 254.49L168.366 256.218C168.174 256.17 167.964 256.134 167.736 256.11C167.508 256.086 167.274 256.074 167.034 256.074C166.422 256.074 165.948 256.2 165.612 256.452C165.288 256.704 165.126 257.064 165.126 257.532C165.126 258 165.276 258.354 165.576 258.594C165.876 258.822 166.26 258.936 166.728 258.936C167.292 258.936 167.802 258.78 168.258 258.468C168.714 258.156 169.062 257.802 169.302 257.406L169.122 258.702V253.032H162.3V251.304H177.078V253.032ZM182.28 253.032L182.694 252.618C182.814 252.906 182.91 253.206 182.982 253.518C183.054 253.83 183.09 254.196 183.09 254.616C183.09 255.24 182.958 255.792 182.694 256.272C182.43 256.74 182.058 257.148 181.578 257.496C181.098 257.832 180.534 258.12 179.886 258.36L179.868 258C180.228 258.372 180.606 258.756 181.002 259.152C181.41 259.536 181.836 259.92 182.28 260.304C182.736 260.688 183.198 261.072 183.666 261.456L182.19 262.824C181.23 261.996 180.396 261.222 179.688 260.502C178.992 259.782 178.422 259.104 177.978 258.468C177.69 258.072 177.48 257.718 177.348 257.406C177.216 257.094 177.15 256.794 177.15 256.506C177.15 256.17 177.258 255.9 177.474 255.696C177.69 255.48 177.984 255.372 178.356 255.372C178.74 255.372 179.1 255.492 179.436 255.732C179.772 255.972 180.12 256.308 180.48 256.74L179.328 256.47C179.904 256.242 180.324 255.954 180.588 255.606C180.852 255.258 180.984 254.832 180.984 254.328C180.984 253.98 180.942 253.65 180.858 253.338C180.774 253.014 180.654 252.768 180.498 252.6L181.38 253.032H176.502V251.304H184.494V253.032H182.28ZM181.565 247.758C181.565 247.422 181.679 247.14 181.907 246.912C182.135 246.684 182.411 246.57 182.735 246.57C183.059 246.57 183.335 246.684 183.563 246.912C183.779 247.14 183.887 247.422 183.887 247.758C183.887 248.082 183.779 248.364 183.563 248.604C183.335 248.832 183.059 248.946 182.735 248.946C182.411 248.946 182.135 248.832 181.907 248.604C181.679 248.364 181.565 248.082 181.565 247.758ZM180.233 251.43C180.017 250.734 179.825 250.17 179.657 249.738C179.477 249.306 179.303 248.976 179.135 248.748C178.967 248.52 178.787 248.364 178.595 248.28C178.391 248.184 178.151 248.136 177.875 248.136C177.647 248.136 177.413 248.166 177.173 248.226C176.921 248.274 176.687 248.34 176.471 248.424L175.949 246.714C176.237 246.606 176.555 246.522 176.903 246.462C177.239 246.402 177.575 246.372 177.911 246.372C178.451 246.372 178.919 246.45 179.315 246.606C179.699 246.75 180.047 247.014 180.359 247.398C180.659 247.77 180.947 248.286 181.223 248.946C181.487 249.594 181.775 250.422 182.087 251.43H180.233Z" fill="white"/>
<path d="M227.728 262.24C225.568 262.24 223.928 261.552 222.808 260.176C221.704 258.8 221.152 256.768 221.152 254.08C221.152 251.392 221.704 249.36 222.808 247.984C223.928 246.608 225.568 245.92 227.728 245.92C229.888 245.92 231.52 246.608 232.624 247.984C233.744 249.36 234.304 251.392 234.304 254.08C234.304 256.768 233.744 258.8 232.624 260.176C231.52 261.552 229.888 262.24 227.728 262.24ZM227.728 259.024C228.32 259.024 228.8 258.864 229.168 258.544C229.536 258.208 229.8 257.68 229.96 256.96C230.136 256.224 230.224 255.264 230.224 254.08C230.224 252.896 230.136 251.944 229.96 251.224C229.8 250.488 229.536 249.96 229.168 249.64C228.8 249.304 228.32 249.136 227.728 249.136C227.152 249.136 226.672 249.304 226.288 249.64C225.92 249.96 225.648 250.488 225.472 251.224C225.312 251.944 225.232 252.896 225.232 254.08C225.232 255.264 225.312 256.224 225.472 256.96C225.648 257.68 225.92 258.208 226.288 258.544C226.672 258.864 227.152 259.024 227.728 259.024ZM243.653 245.92C244.501 245.92 245.285 246.032 246.005 246.256C246.741 246.48 247.381 246.848 247.925 247.36C248.469 247.872 248.877 248.56 249.149 249.424L245.789 251.008C245.629 250.448 245.349 250.008 244.949 249.688C244.565 249.352 244.045 249.184 243.389 249.184C242.941 249.184 242.525 249.296 242.141 249.52C241.773 249.728 241.453 250.032 241.181 250.432C240.909 250.832 240.701 251.32 240.557 251.896C240.429 252.472 240.365 253.12 240.365 253.84C240.365 253.888 240.365 253.944 240.365 254.008C240.365 254.056 240.365 254.128 240.365 254.224L240.413 254.368C240.605 253.888 240.901 253.488 241.301 253.168C241.717 252.832 242.189 252.576 242.717 252.4C243.245 252.224 243.773 252.136 244.301 252.136C245.277 252.136 246.149 252.328 246.917 252.712C247.685 253.096 248.285 253.648 248.717 254.368C249.165 255.072 249.389 255.928 249.389 256.936C249.389 258.024 249.141 258.968 248.645 259.768C248.149 260.552 247.461 261.16 246.581 261.592C245.701 262.024 244.653 262.24 243.437 262.24C242.077 262.24 240.877 261.944 239.837 261.352C238.813 260.744 238.013 259.848 237.437 258.664C236.877 257.464 236.597 255.984 236.597 254.224C236.597 252.336 236.909 250.784 237.533 249.568C238.157 248.352 238.997 247.44 240.053 246.832C241.125 246.224 242.325 245.92 243.653 245.92ZM243.365 254.92C242.949 254.92 242.565 255.008 242.213 255.184C241.877 255.344 241.605 255.584 241.397 255.904C241.205 256.224 241.109 256.6 241.109 257.032C241.109 257.448 241.213 257.816 241.421 258.136C241.629 258.456 241.901 258.704 242.237 258.88C242.573 259.056 242.949 259.144 243.365 259.144C244.085 259.144 244.637 258.96 245.021 258.592C245.421 258.224 245.621 257.704 245.621 257.032C245.621 256.584 245.533 256.208 245.357 255.904C245.181 255.584 244.925 255.344 244.589 255.184C244.269 255.008 243.861 254.92 243.365 254.92Z" fill="#531D0B"/>
<path d="M267.44 262V259.36C268.8 258.512 269.96 257.72 270.92 256.984C271.88 256.248 272.656 255.552 273.248 254.896C273.856 254.24 274.304 253.616 274.592 253.024C274.88 252.432 275.024 251.856 275.024 251.296C275.024 250.688 274.84 250.184 274.472 249.784C274.12 249.368 273.592 249.16 272.888 249.16C272.136 249.16 271.552 249.44 271.136 250C270.72 250.544 270.496 251.344 270.464 252.4L266.936 251.32C266.968 250.136 267.248 249.144 267.776 248.344C268.32 247.544 269.056 246.944 269.984 246.544C270.912 246.128 271.968 245.92 273.152 245.92C274.192 245.92 275.088 246.072 275.84 246.376C276.608 246.664 277.232 247.056 277.712 247.552C278.192 248.032 278.544 248.576 278.768 249.184C279.008 249.776 279.128 250.384 279.128 251.008C279.128 252.032 278.864 252.992 278.336 253.888C277.808 254.768 277.04 255.624 276.032 256.456C275.04 257.272 273.832 258.096 272.408 258.928V258.952C272.68 258.936 273 258.92 273.368 258.904C273.736 258.888 274.12 258.88 274.52 258.88C274.92 258.864 275.28 258.856 275.6 258.856H279.32V262H267.44ZM288.025 262.24C285.865 262.24 284.225 261.552 283.105 260.176C282.001 258.8 281.449 256.768 281.449 254.08C281.449 251.392 282.001 249.36 283.105 247.984C284.225 246.608 285.865 245.92 288.025 245.92C290.185 245.92 291.817 246.608 292.921 247.984C294.041 249.36 294.601 251.392 294.601 254.08C294.601 256.768 294.041 258.8 292.921 260.176C291.817 261.552 290.185 262.24 288.025 262.24ZM288.025 259.024C288.617 259.024 289.097 258.864 289.465 258.544C289.833 258.208 290.097 257.68 290.257 256.96C290.433 256.224 290.521 255.264 290.521 254.08C290.521 252.896 290.433 251.944 290.257 251.224C290.097 250.488 289.833 249.96 289.465 249.64C289.097 249.304 288.617 249.136 288.025 249.136C287.449 249.136 286.969 249.304 286.585 249.64C286.217 249.96 285.945 250.488 285.769 251.224C285.609 251.944 285.529 252.896 285.529 254.08C285.529 255.264 285.609 256.224 285.769 256.96C285.945 257.68 286.217 258.208 286.585 258.544C286.969 258.864 287.449 259.024 288.025 259.024Z" fill="#531D0B"/>
<path d="M318.728 262.24C316.568 262.24 314.928 261.552 313.808 260.176C312.704 258.8 312.152 256.768 312.152 254.08C312.152 251.392 312.704 249.36 313.808 247.984C314.928 246.608 316.568 245.92 318.728 245.92C320.888 245.92 322.52 246.608 323.624 247.984C324.744 249.36 325.304 251.392 325.304 254.08C325.304 256.768 324.744 258.8 323.624 260.176C322.52 261.552 320.888 262.24 318.728 262.24ZM318.728 259.024C319.32 259.024 319.8 258.864 320.168 258.544C320.536 258.208 320.8 257.68 320.96 256.96C321.136 256.224 321.224 255.264 321.224 254.08C321.224 252.896 321.136 251.944 320.96 251.224C320.8 250.488 320.536 249.96 320.168 249.64C319.8 249.304 319.32 249.136 318.728 249.136C318.152 249.136 317.672 249.304 317.288 249.64C316.92 249.96 316.648 250.488 316.472 251.224C316.312 251.944 316.232 252.896 316.232 254.08C316.232 255.264 316.312 256.224 316.472 256.96C316.648 257.68 316.92 258.208 317.288 258.544C317.672 258.864 318.152 259.024 318.728 259.024ZM334.653 245.92C335.501 245.92 336.285 246.032 337.005 246.256C337.741 246.48 338.381 246.848 338.925 247.36C339.469 247.872 339.877 248.56 340.149 249.424L336.789 251.008C336.629 250.448 336.349 250.008 335.949 249.688C335.565 249.352 335.045 249.184 334.389 249.184C333.941 249.184 333.525 249.296 333.141 249.52C332.773 249.728 332.453 250.032 332.181 250.432C331.909 250.832 331.701 251.32 331.557 251.896C331.429 252.472 331.365 253.12 331.365 253.84C331.365 253.888 331.365 253.944 331.365 254.008C331.365 254.056 331.365 254.128 331.365 254.224L331.413 254.368C331.605 253.888 331.901 253.488 332.301 253.168C332.717 252.832 333.189 252.576 333.717 252.4C334.245 252.224 334.773 252.136 335.301 252.136C336.277 252.136 337.149 252.328 337.917 252.712C338.685 253.096 339.285 253.648 339.717 254.368C340.165 255.072 340.389 255.928 340.389 256.936C340.389 258.024 340.141 258.968 339.645 259.768C339.149 260.552 338.461 261.16 337.581 261.592C336.701 262.024 335.653 262.24 334.437 262.24C333.077 262.24 331.877 261.944 330.837 261.352C329.813 260.744 329.013 259.848 328.437 258.664C327.877 257.464 327.597 255.984 327.597 254.224C327.597 252.336 327.909 250.784 328.533 249.568C329.157 248.352 329.997 247.44 331.053 246.832C332.125 246.224 333.325 245.92 334.653 245.92ZM334.365 254.92C333.949 254.92 333.565 255.008 333.213 255.184C332.877 255.344 332.605 255.584 332.397 255.904C332.205 256.224 332.109 256.6 332.109 257.032C332.109 257.448 332.213 257.816 332.421 258.136C332.629 258.456 332.901 258.704 333.237 258.88C333.573 259.056 333.949 259.144 334.365 259.144C335.085 259.144 335.637 258.96 336.021 258.592C336.421 258.224 336.621 257.704 336.621 257.032C336.621 256.584 336.533 256.208 336.357 255.904C336.181 255.584 335.925 255.344 335.589 255.184C335.269 255.008 334.861 254.92 334.365 254.92Z" fill="#531D0B"/>
<path d="M258.21 256.97C257.897 256.97 257.663 256.903 257.51 256.77C257.357 256.637 257.28 256.43 257.28 256.15C257.28 255.863 257.357 255.653 257.51 255.52C257.663 255.387 257.897 255.32 258.21 255.32C258.53 255.32 258.767 255.387 258.92 255.52C259.08 255.653 259.16 255.863 259.16 256.15C259.16 256.697 258.843 256.97 258.21 256.97ZM258.21 253.49C257.897 253.49 257.663 253.423 257.51 253.29C257.357 253.157 257.28 252.95 257.28 252.67C257.28 252.383 257.357 252.173 257.51 252.04C257.663 251.907 257.897 251.84 258.21 251.84C258.53 251.84 258.767 251.907 258.92 252.04C259.08 252.173 259.16 252.383 259.16 252.67C259.16 253.217 258.843 253.49 258.21 253.49Z" fill="#531D0B"/>
<path d="M231.556 268.31C231.5 268.218 231.454 268.118 231.418 268.01C231.382 267.902 231.364 267.784 231.364 267.656C231.364 267.332 231.488 267.08 231.736 266.9C231.984 266.716 232.324 266.624 232.756 266.624C233.2 266.624 233.608 266.698 233.98 266.846C234.356 266.994 234.69 267.194 234.982 267.446C235.274 267.698 235.52 267.986 235.72 268.31H234.898C234.75 268.118 234.576 267.946 234.376 267.794C234.176 267.638 233.954 267.516 233.71 267.428C233.47 267.34 233.218 267.296 232.954 267.296C232.706 267.296 232.518 267.346 232.39 267.446C232.266 267.542 232.204 267.676 232.204 267.848C232.204 267.936 232.218 268.018 232.246 268.094C232.278 268.166 232.316 268.238 232.36 268.31H231.556ZM232.39 268.94V272H231.55V268.94H231.088V268.268H232.942V268.94H232.39ZM235.312 272.42C235.228 272.248 235.154 272.074 235.09 271.898C235.03 271.718 234.98 271.56 234.94 271.424L234.874 271.166C234.85 271.118 234.832 271.066 234.82 271.01C234.808 270.954 234.802 270.902 234.802 270.854C234.802 270.694 234.85 270.574 234.946 270.494C235.046 270.41 235.178 270.368 235.342 270.368C235.542 270.368 235.7 270.424 235.816 270.536C235.932 270.648 235.99 270.782 235.99 270.938C235.99 271.074 235.944 271.19 235.852 271.286C235.764 271.382 235.636 271.458 235.468 271.514L235.306 271.586C235.214 271.614 235.12 271.636 235.024 271.652C234.932 271.664 234.822 271.67 234.694 271.67C234.494 271.67 234.298 271.646 234.106 271.598C233.914 271.55 233.74 271.476 233.584 271.376C233.432 271.276 233.31 271.148 233.218 270.992C233.126 270.832 233.08 270.642 233.08 270.422C233.08 270.038 233.21 269.754 233.47 269.57C233.73 269.382 234.122 269.288 234.646 269.288H235L234.886 269.474V268.94H232.852V268.268H236.302V268.94H235.714V269.93H234.784C234.488 269.93 234.268 269.974 234.124 270.062C233.984 270.146 233.914 270.278 233.914 270.458C233.914 270.63 233.982 270.762 234.118 270.854C234.258 270.946 234.446 270.992 234.682 270.992C234.754 270.992 234.828 270.986 234.904 270.974C234.984 270.958 235.062 270.934 235.138 270.902L235.594 271.286C235.65 271.406 235.714 271.54 235.786 271.688C235.858 271.832 235.944 271.984 236.044 272.144L235.312 272.42ZM236.221 268.268H240.001V268.94H239.449V272H238.609V270.434H237.721V270.566C237.721 270.742 237.685 270.872 237.613 270.956C237.541 271.04 237.437 271.082 237.301 271.082C237.201 271.082 237.099 271.054 236.995 270.998C236.891 270.938 236.793 270.862 236.701 270.77C236.613 270.674 236.541 270.572 236.485 270.464C236.433 270.352 236.407 270.248 236.407 270.152C236.407 270.036 236.439 269.942 236.503 269.87C236.567 269.798 236.691 269.762 236.875 269.762H238.609V268.94H236.221V268.268Z" fill="#531D0B"/>
<path d="M281.412 268.94H280.86V272H280.026V270.992L280.188 271.16C280.068 271.256 279.918 271.332 279.738 271.388C279.562 271.44 279.366 271.466 279.15 271.466C278.882 271.466 278.65 271.424 278.454 271.34C278.258 271.256 278.108 271.138 278.004 270.986C277.9 270.834 277.848 270.658 277.848 270.458C277.848 270.322 277.88 270.188 277.944 270.056C278.008 269.924 278.114 269.814 278.262 269.726L278.34 269.654C278.44 269.594 278.558 269.55 278.694 269.522C278.83 269.494 278.966 269.48 279.102 269.48C279.174 269.48 279.24 269.482 279.3 269.486C279.364 269.49 279.424 269.496 279.48 269.504L279.432 270.158C279.388 270.154 279.346 270.152 279.306 270.152C279.266 270.148 279.224 270.146 279.18 270.146C279.008 270.146 278.882 270.174 278.802 270.23C278.722 270.286 278.682 270.364 278.682 270.464C278.682 270.576 278.726 270.66 278.814 270.716C278.902 270.768 279.026 270.794 279.186 270.794C279.37 270.794 279.542 270.758 279.702 270.686C279.862 270.614 279.996 270.51 280.104 270.374L280.026 270.77V268.94H277.44V268.268H281.412V268.94ZM278.694 270.062C278.498 270.046 278.324 270.004 278.172 269.936C278.024 269.868 277.906 269.778 277.818 269.666C277.734 269.55 277.692 269.416 277.692 269.264C277.692 269.112 277.728 268.978 277.8 268.862C277.876 268.746 277.986 268.648 278.13 268.568L278.802 268.832C278.706 268.884 278.636 268.942 278.592 269.006C278.552 269.07 278.532 269.142 278.532 269.222C278.532 269.322 278.566 269.404 278.634 269.468C278.702 269.528 278.784 269.564 278.88 269.576L278.694 270.062ZM279.981 267.38C279.981 267.248 280.027 267.138 280.119 267.05C280.207 266.958 280.317 266.912 280.449 266.912C280.581 266.912 280.691 266.958 280.779 267.05C280.867 267.138 280.911 267.248 280.911 267.38C280.911 267.516 280.867 267.63 280.779 267.722C280.691 267.81 280.581 267.854 280.449 267.854C280.317 267.854 280.207 267.81 280.119 267.722C280.027 267.63 279.981 267.516 279.981 267.38ZM284.643 268.94H283.953V270.056H283.305C282.997 270.056 282.765 270.106 282.609 270.206C282.457 270.306 282.381 270.466 282.381 270.686C282.381 270.882 282.453 271.032 282.597 271.136C282.741 271.24 282.925 271.292 283.149 271.292C283.329 271.292 283.497 271.264 283.653 271.208C283.813 271.148 283.983 271.058 284.163 270.938L284.469 271.556C284.293 271.7 284.095 271.81 283.875 271.886C283.659 271.962 283.407 272 283.119 272C282.811 272 282.537 271.948 282.297 271.844C282.061 271.736 281.875 271.582 281.739 271.382C281.607 271.182 281.541 270.94 281.541 270.656C281.541 270.232 281.683 269.92 281.967 269.72C282.251 269.52 282.649 269.42 283.161 269.42H283.347L283.125 269.582V268.94H281.331V268.268H284.643V268.94ZM283.153 268.31C283.085 268.102 283.025 267.932 282.973 267.8C282.917 267.668 282.863 267.566 282.811 267.494C282.755 267.422 282.695 267.374 282.631 267.35C282.567 267.322 282.493 267.308 282.409 267.308C282.337 267.308 282.263 267.316 282.187 267.332C282.107 267.348 282.033 267.37 281.965 267.398L281.755 266.744C281.863 266.704 281.977 266.674 282.097 266.654C282.213 266.634 282.329 266.624 282.445 266.624C282.629 266.624 282.789 266.65 282.925 266.702C283.057 266.754 283.175 266.844 283.279 266.972C283.383 267.096 283.483 267.268 283.579 267.488C283.671 267.704 283.769 267.978 283.873 268.31H283.153Z" fill="#531D0B"/>
<path d="M320.663 268.31C320.611 268.222 320.567 268.126 320.531 268.022C320.495 267.918 320.477 267.8 320.477 267.668C320.477 267.336 320.609 267.08 320.873 266.9C321.137 266.716 321.503 266.624 321.971 266.624C322.443 266.624 322.879 266.702 323.279 266.858C323.683 267.01 324.043 267.214 324.359 267.47C324.679 267.722 324.945 268.002 325.157 268.31H324.305C324.109 268.094 323.897 267.912 323.669 267.764C323.441 267.616 323.199 267.502 322.943 267.422C322.687 267.342 322.419 267.302 322.139 267.302C321.867 267.302 321.661 267.352 321.521 267.452C321.385 267.548 321.317 267.682 321.317 267.854C321.317 267.946 321.333 268.03 321.365 268.106C321.397 268.182 321.435 268.25 321.479 268.31H320.663ZM321.503 268.94V272H320.663V268.94H320.201V268.268H322.055V268.94H321.503ZM325.409 268.94V272H324.575V270.704H323.477V270.794C323.477 270.962 323.439 271.086 323.363 271.166C323.291 271.242 323.189 271.28 323.057 271.28C322.957 271.28 322.853 271.25 322.745 271.19C322.641 271.13 322.545 271.056 322.457 270.968C322.369 270.876 322.297 270.778 322.241 270.674C322.185 270.566 322.157 270.466 322.157 270.374C322.157 270.282 322.187 270.202 322.247 270.134C322.307 270.066 322.427 270.032 322.607 270.032H322.637V268.94H321.965V268.268H325.961V268.94H325.409ZM324.575 268.94H323.477V270.032H324.575V268.94ZM325.879 268.268H329.659V268.94H329.107V272H328.267V270.434H327.379V270.566C327.379 270.742 327.343 270.872 327.271 270.956C327.199 271.04 327.095 271.082 326.959 271.082C326.859 271.082 326.757 271.054 326.653 270.998C326.549 270.938 326.451 270.862 326.359 270.77C326.271 270.674 326.199 270.572 326.143 270.464C326.091 270.352 326.065 270.248 326.065 270.152C326.065 270.036 326.097 269.942 326.161 269.87C326.225 269.798 326.349 269.762 326.533 269.762H328.267V268.94H325.879V268.268ZM332.882 268.94H332.192V270.056H331.544C331.236 270.056 331.004 270.106 330.848 270.206C330.696 270.306 330.62 270.466 330.62 270.686C330.62 270.882 330.692 271.032 330.836 271.136C330.98 271.24 331.164 271.292 331.388 271.292C331.568 271.292 331.736 271.264 331.892 271.208C332.052 271.148 332.222 271.058 332.402 270.938L332.708 271.556C332.532 271.7 332.334 271.81 332.114 271.886C331.898 271.962 331.646 272 331.358 272C331.05 272 330.776 271.948 330.536 271.844C330.3 271.736 330.114 271.582 329.978 271.382C329.846 271.182 329.78 270.94 329.78 270.656C329.78 270.232 329.922 269.92 330.206 269.72C330.49 269.52 330.888 269.42 331.4 269.42H331.586L331.364 269.582V268.94H329.57V268.268H332.882V268.94Z" fill="#531D0B"/>
<path d="M303.21 256.97C302.897 256.97 302.663 256.903 302.51 256.77C302.357 256.637 302.28 256.43 302.28 256.15C302.28 255.863 302.357 255.653 302.51 255.52C302.663 255.387 302.897 255.32 303.21 255.32C303.53 255.32 303.767 255.387 303.92 255.52C304.08 255.653 304.16 255.863 304.16 256.15C304.16 256.697 303.843 256.97 303.21 256.97ZM303.21 253.49C302.897 253.49 302.663 253.423 302.51 253.29C302.357 253.157 302.28 252.95 302.28 252.67C302.28 252.383 302.357 252.173 302.51 252.04C302.663 251.907 302.897 251.84 303.21 251.84C303.53 251.84 303.767 251.907 303.92 252.04C304.08 252.173 304.16 252.383 304.16 252.67C304.16 253.217 303.843 253.49 303.21 253.49Z" fill="#531D0B"/>
<path d="M91.1475 20.0142V27.9761C91.1475 28.4435 90.9614 28.8926 90.6309 29.2231C90.3004 29.5535 89.8521 29.7388 89.3848 29.7388H76.6152C76.1479 29.7388 75.6996 29.5535 75.3691 29.2231C75.0386 28.8926 74.8525 28.4435 74.8525 27.9761V20.0142H91.1475Z" fill="#FEDB41" stroke="black" stroke-width="0.4"/>
<path d="M89.3848 15.6558C89.8522 15.6558 90.3003 15.8418 90.6309 16.1724C90.9614 16.5029 91.1475 16.951 91.1475 17.4185V20.4146H74.8525V17.4185C74.8525 16.951 75.0386 16.5029 75.3691 16.1724C75.6997 15.8418 76.1478 15.6558 76.6152 15.6558H89.3848Z" fill="#00ACEA" stroke="black" stroke-width="0.4"/>
<path d="M85.8798 23.8194C86.1216 25.0651 85.3521 26.7284 83.0732 27.6519C83.0262 27.6711 82.9736 27.6711 82.9267 27.6519C80.6552 26.7503 79.8786 25.0796 80.1204 23.8194C80.2814 22.9694 80.8751 22.4272 81.6442 22.4272C82.0767 22.4272 82.5384 22.603 83.0001 22.9476C83.4544 22.6179 83.9232 22.4417 84.3482 22.4417C85.1177 22.4417 85.711 22.9839 85.8798 23.8194Z" fill="#D7443E"/>
<path d="M78.54 17.5629C78.4572 17.5629 78.3777 17.53 78.3191 17.4714C78.2605 17.4128 78.2275 17.3333 78.2275 17.2504V14.4609C78.2275 14.3781 78.2605 14.2986 78.3191 14.24C78.3777 14.1814 78.4572 14.1484 78.54 14.1484C78.6229 14.1484 78.7024 14.1814 78.761 14.24C78.8196 14.2986 78.8525 14.3781 78.8525 14.4609V17.2504C78.8525 17.3333 78.8196 17.4128 78.761 17.4714C78.7024 17.53 78.6229 17.5629 78.54 17.5629ZM87.635 17.5629C87.5521 17.5629 87.4726 17.53 87.414 17.4714C87.3554 17.4128 87.3225 17.3333 87.3225 17.2504V14.4609C87.3225 14.3781 87.3554 14.2986 87.414 14.24C87.4726 14.1814 87.5521 14.1484 87.635 14.1484C87.7178 14.1484 87.7973 14.1814 87.8559 14.24C87.9145 14.2986 87.9475 14.3781 87.9475 14.4609V17.2504C87.9475 17.3333 87.9145 17.4128 87.8559 17.4714C87.7973 17.53 87.7178 17.5629 87.635 17.5629Z" fill="#FEDB41"/>
<path d="M107.749 19.636L108.071 19.314C108.164 19.538 108.239 19.7713 108.295 20.014C108.351 20.2567 108.379 20.5413 108.379 20.868C108.379 21.3533 108.276 21.7827 108.071 22.156C107.866 22.52 107.576 22.8373 107.203 23.108C106.83 23.3693 106.391 23.5933 105.887 23.78L105.873 23.5C106.153 23.7893 106.447 24.088 106.755 24.396C107.072 24.6947 107.404 24.9933 107.749 25.292C108.104 25.5907 108.463 25.8893 108.827 26.188L107.679 27.252C106.932 26.608 106.284 26.006 105.733 25.446C105.192 24.886 104.748 24.3587 104.403 23.864C104.179 23.556 104.016 23.2807 103.913 23.038C103.81 22.7953 103.759 22.562 103.759 22.338C103.759 22.0767 103.843 21.8667 104.011 21.708C104.179 21.54 104.408 21.456 104.697 21.456C104.996 21.456 105.276 21.5493 105.537 21.736C105.798 21.9227 106.069 22.184 106.349 22.52L105.453 22.31C105.901 22.1327 106.228 21.9087 106.433 21.638C106.638 21.3673 106.741 21.036 106.741 20.644C106.741 20.3733 106.708 20.1167 106.643 19.874C106.578 19.622 106.484 19.4307 106.363 19.3L107.049 19.636H103.255V18.292H109.471V19.636H107.749ZM110.377 18.39C110.256 18.1753 110.153 17.9513 110.069 17.718C109.985 17.4753 109.943 17.2 109.943 16.892C109.943 16.136 110.237 15.5433 110.825 15.114C111.413 14.6753 112.22 14.456 113.247 14.456C114.264 14.456 115.202 14.6333 116.061 14.988C116.929 15.3333 117.708 15.8047 118.399 16.402C119.09 16.99 119.668 17.6527 120.135 18.39H118.483C118.026 17.8393 117.54 17.3727 117.027 16.99C116.514 16.6073 115.972 16.318 115.403 16.122C114.834 15.9167 114.236 15.814 113.611 15.814C112.958 15.814 112.458 15.94 112.113 16.192C111.768 16.4347 111.595 16.7753 111.595 17.214C111.595 17.466 111.637 17.69 111.721 17.886C111.805 18.0727 111.903 18.2407 112.015 18.39H110.377ZM112.043 19.636V27H110.405V19.636H109.257V18.292H113.387V19.636H112.043ZM121.594 19.636H120.25V27H118.612V24.354L119.144 24.69C118.855 24.9793 118.5 25.208 118.08 25.376C117.67 25.5347 117.203 25.614 116.68 25.614C116.102 25.614 115.588 25.516 115.14 25.32C114.702 25.124 114.356 24.8393 114.104 24.466C113.862 24.0927 113.74 23.64 113.74 23.108C113.74 22.2867 114.011 21.6707 114.552 21.26C115.094 20.84 115.817 20.63 116.722 20.63C117.002 20.63 117.259 20.644 117.492 20.672C117.735 20.7 117.954 20.7373 118.15 20.784L118.038 22.114C117.861 22.0767 117.679 22.0487 117.492 22.03C117.315 22.0113 117.124 22.002 116.918 22.002C116.452 22.002 116.078 22.1 115.798 22.296C115.528 22.492 115.392 22.7767 115.392 23.15C115.392 23.486 115.509 23.752 115.742 23.948C115.976 24.144 116.312 24.242 116.75 24.242C117.161 24.242 117.548 24.144 117.912 23.948C118.276 23.7427 118.556 23.472 118.752 23.136L118.612 24.102V19.636H113.194V18.292H121.594V19.636ZM129.797 19.636H128.453V27H126.815V24.354L127.347 24.69C127.058 24.9793 126.703 25.208 126.283 25.376C125.873 25.5347 125.406 25.614 124.883 25.614C124.305 25.614 123.791 25.516 123.343 25.32C122.905 25.124 122.559 24.8393 122.307 24.466C122.065 24.0927 121.943 23.64 121.943 23.108C121.943 22.2867 122.214 21.6707 122.755 21.26C123.297 20.84 124.02 20.63 124.925 20.63C125.205 20.63 125.462 20.644 125.695 20.672C125.938 20.7 126.157 20.7373 126.353 20.784L126.241 22.114C126.064 22.0767 125.882 22.0487 125.695 22.03C125.518 22.0113 125.327 22.002 125.121 22.002C124.655 22.002 124.281 22.1 124.001 22.296C123.731 22.492 123.595 22.7767 123.595 23.15C123.595 23.486 123.712 23.752 123.945 23.948C124.179 24.144 124.515 24.242 124.953 24.242C125.364 24.242 125.751 24.144 126.115 23.948C126.479 23.7427 126.759 23.472 126.955 23.136L126.815 24.102V19.636H121.397V18.292H129.797V19.636ZM132.387 19.636V27H130.749V19.636H129.601V18.292H133.731V19.636H132.387ZM138.032 19.636L138.354 19.314C138.447 19.538 138.522 19.7713 138.578 20.014C138.634 20.2567 138.662 20.5413 138.662 20.868C138.662 21.3533 138.559 21.7827 138.354 22.156C138.149 22.52 137.859 22.8373 137.486 23.108C137.113 23.3693 136.674 23.5933 136.17 23.78L136.156 23.5C136.436 23.7893 136.73 24.088 137.038 24.396C137.355 24.6947 137.687 24.9933 138.032 25.292C138.387 25.5907 138.746 25.8893 139.11 26.188L137.962 27.252C137.215 26.608 136.567 26.006 136.016 25.446C135.475 24.886 135.031 24.3587 134.686 23.864C134.462 23.556 134.299 23.2807 134.196 23.038C134.093 22.7953 134.042 22.562 134.042 22.338C134.042 22.0767 134.126 21.8667 134.294 21.708C134.462 21.54 134.691 21.456 134.98 21.456C135.279 21.456 135.559 21.5493 135.82 21.736C136.081 21.9227 136.352 22.184 136.632 22.52L135.736 22.31C136.184 22.1327 136.511 21.9087 136.716 21.638C136.921 21.3673 137.024 21.036 137.024 20.644C137.024 20.3733 136.991 20.1167 136.926 19.874C136.861 19.622 136.767 19.4307 136.646 19.3L137.332 19.636H133.538V18.292H139.754V19.636H138.032ZM144.729 27V25.698C145.569 25.1287 146.279 24.6153 146.857 24.158C147.445 23.6913 147.917 23.262 148.271 22.87C148.635 22.4687 148.897 22.0907 149.055 21.736C149.223 21.3813 149.307 21.0267 149.307 20.672C149.307 20.2427 149.177 19.8927 148.915 19.622C148.654 19.342 148.285 19.202 147.809 19.202C147.287 19.202 146.876 19.3793 146.577 19.734C146.288 20.0887 146.129 20.5927 146.101 21.246L144.435 20.616C144.482 19.9813 144.65 19.4447 144.939 19.006C145.238 18.558 145.639 18.2173 146.143 17.984C146.657 17.7413 147.245 17.62 147.907 17.62C148.477 17.62 148.967 17.6993 149.377 17.858C149.797 18.0167 150.143 18.236 150.413 18.516C150.693 18.7867 150.903 19.0993 151.043 19.454C151.183 19.8087 151.253 20.1773 151.253 20.56C151.253 21.1573 151.104 21.722 150.805 22.254C150.516 22.786 150.068 23.3133 149.461 23.836C148.855 24.3587 148.085 24.9093 147.151 25.488V25.502C147.291 25.4927 147.459 25.4833 147.655 25.474C147.861 25.4647 148.071 25.46 148.285 25.46C148.5 25.4507 148.687 25.446 148.845 25.446H151.393V27H144.729ZM153.001 27V25.698C153.841 25.1287 154.55 24.6153 155.129 24.158C155.717 23.6913 156.188 23.262 156.543 22.87C156.907 22.4687 157.168 22.0907 157.327 21.736C157.495 21.3813 157.579 21.0267 157.579 20.672C157.579 20.2427 157.448 19.8927 157.187 19.622C156.925 19.342 156.557 19.202 156.081 19.202C155.558 19.202 155.147 19.3793 154.849 19.734C154.559 20.0887 154.401 20.5927 154.373 21.246L152.707 20.616C152.753 19.9813 152.921 19.4447 153.211 19.006C153.509 18.558 153.911 18.2173 154.415 17.984C154.928 17.7413 155.516 17.62 156.179 17.62C156.748 17.62 157.238 17.6993 157.649 17.858C158.069 18.0167 158.414 18.236 158.685 18.516C158.965 18.7867 159.175 19.0993 159.315 19.454C159.455 19.8087 159.525 20.1773 159.525 20.56C159.525 21.1573 159.375 21.722 159.077 22.254C158.787 22.786 158.339 23.3133 157.733 23.836C157.126 24.3587 156.356 24.9093 155.423 25.488V25.502C155.563 25.4927 155.731 25.4833 155.927 25.474C156.132 25.4647 156.342 25.46 156.557 25.46C156.771 25.4507 156.958 25.446 157.117 25.446H159.665V27H153.001ZM172.342 19.636V27H170.69V23.794H167.932V24.13C167.932 24.4847 167.852 24.746 167.694 24.914C167.535 25.0727 167.325 25.152 167.064 25.152C166.858 25.152 166.639 25.0867 166.406 24.956C166.182 24.8253 165.972 24.662 165.776 24.466C165.58 24.2607 165.421 24.046 165.3 23.822C165.178 23.5887 165.118 23.3693 165.118 23.164C165.118 22.968 165.188 22.8 165.328 22.66C165.468 22.5107 165.729 22.436 166.112 22.436L166.28 22.45V19.636H164.642V18.292H173.686V19.636H172.342ZM170.69 19.636H167.932V22.436H170.69V19.636ZM176.26 19.636V27H174.622V19.636H173.474V18.292H177.604V19.636H176.26ZM187.001 19.636H185.657V27H184.019V24.508L184.411 24.844C184.122 25.1053 183.772 25.3107 183.361 25.46C182.96 25.6 182.516 25.67 182.031 25.67C181.49 25.67 181.014 25.5813 180.603 25.404C180.192 25.2173 179.87 24.9607 179.637 24.634C179.404 24.298 179.287 23.906 179.287 23.458C179.287 23.1593 179.338 22.898 179.441 22.674C179.553 22.4407 179.688 22.2587 179.847 22.128L177.915 22.156V20.812H183.067L182.941 22.142H182.437C181.97 22.142 181.597 22.2353 181.317 22.422C181.046 22.6087 180.911 22.8933 180.911 23.276C180.911 23.5933 181.018 23.8453 181.233 24.032C181.457 24.2093 181.756 24.298 182.129 24.298C182.577 24.298 182.978 24.1813 183.333 23.948C183.697 23.7147 183.977 23.4393 184.173 23.122L184.019 23.892V19.636H177.411V18.292H187.001V19.636ZM183.864 18.39C183.612 18.1287 183.406 17.83 183.248 17.494C183.08 17.158 182.996 16.8033 182.996 16.43C182.996 15.7673 183.215 15.2727 183.654 14.946C184.092 14.6193 184.657 14.456 185.348 14.456C185.656 14.456 185.945 14.484 186.216 14.54C186.477 14.596 186.706 14.6753 186.902 14.778L186.566 15.884C186.407 15.828 186.258 15.786 186.118 15.758C185.968 15.7207 185.814 15.702 185.656 15.702C185.31 15.702 185.049 15.7953 184.872 15.982C184.685 16.1593 184.592 16.4067 184.592 16.724C184.592 17.0133 184.666 17.298 184.816 17.578C184.956 17.8487 185.156 18.1193 185.418 18.39H183.864ZM188.75 24.858C189.048 24.858 189.296 24.9327 189.492 25.082C189.688 25.222 189.837 25.4133 189.94 25.656C190.042 25.8893 190.094 26.1507 190.094 26.44C190.094 26.8227 190.014 27.1913 189.856 27.546C189.706 27.9007 189.496 28.218 189.226 28.498C188.955 28.778 188.647 28.9973 188.302 29.156L187.476 28.498C187.728 28.3953 187.956 28.2693 188.162 28.12C188.376 27.9707 188.558 27.8027 188.708 27.616C188.857 27.4293 188.964 27.238 189.03 27.042L188.96 27C188.913 27.028 188.857 27.0513 188.792 27.07C188.726 27.098 188.633 27.112 188.512 27.112C188.362 27.112 188.213 27.0747 188.064 27C187.914 26.916 187.788 26.7993 187.686 26.65C187.583 26.4913 187.532 26.2953 187.532 26.062C187.532 25.81 187.588 25.5953 187.7 25.418C187.812 25.2407 187.961 25.1053 188.148 25.012C188.334 24.9093 188.535 24.858 188.75 24.858ZM200.789 27.952C200.583 27.5507 200.406 27.1493 200.257 26.748C200.107 26.3373 199.991 25.9733 199.907 25.656L199.739 25.082C199.683 24.9607 199.636 24.8347 199.599 24.704C199.571 24.564 199.557 24.4287 199.557 24.298C199.557 23.962 199.659 23.7053 199.865 23.528C200.079 23.3507 200.359 23.262 200.705 23.262C201.125 23.262 201.461 23.388 201.713 23.64C201.974 23.8827 202.105 24.1767 202.105 24.522C202.105 24.802 202.007 25.0493 201.811 25.264C201.624 25.4787 201.353 25.6513 200.999 25.782L200.677 25.908C200.462 25.9827 200.243 26.0387 200.019 26.076C199.804 26.1133 199.547 26.132 199.249 26.132C198.801 26.132 198.362 26.076 197.933 25.964C197.503 25.852 197.116 25.684 196.771 25.46C196.425 25.2267 196.145 24.928 195.931 24.564C195.725 24.2 195.623 23.7613 195.623 23.248C195.623 22.38 195.921 21.7313 196.519 21.302C197.125 20.8727 198.021 20.658 199.207 20.658H200.089L199.837 21.12V19.636H195.021V18.292H202.889V19.636H201.475V21.96H199.473C198.735 21.96 198.185 22.072 197.821 22.296C197.457 22.5107 197.275 22.856 197.275 23.332C197.275 23.7893 197.447 24.1393 197.793 24.382C198.147 24.6247 198.623 24.746 199.221 24.746C199.389 24.746 199.566 24.732 199.753 24.704C199.939 24.676 200.121 24.62 200.299 24.536L201.209 25.362C201.339 25.6607 201.484 25.978 201.643 26.314C201.811 26.6407 202.011 26.9907 202.245 27.364L200.789 27.952ZM205.504 19.636V27H203.866V19.636H202.718V18.292H206.848V19.636H205.504ZM203.908 18.39C203.74 17.8487 203.586 17.41 203.446 17.074C203.315 16.738 203.184 16.4813 203.054 16.304C202.923 16.1267 202.783 16.0053 202.634 15.94C202.475 15.8653 202.288 15.828 202.074 15.828C201.896 15.828 201.714 15.8513 201.528 15.898C201.332 15.9353 201.15 15.9867 200.982 16.052L200.576 14.722C200.8 14.638 201.047 14.5727 201.318 14.526C201.579 14.4793 201.84 14.456 202.102 14.456C202.522 14.456 202.881 14.5167 203.18 14.638C203.488 14.75 203.758 14.9553 203.992 15.254C204.234 15.5433 204.458 15.9447 204.664 16.458C204.878 16.962 205.107 17.606 205.35 18.39H203.908ZM213.865 19.636V27H212.227V23.64L212.717 24.172C212.437 24.396 212.097 24.578 211.695 24.718C211.303 24.858 210.893 24.928 210.463 24.928C209.847 24.928 209.329 24.8207 208.909 24.606C208.489 24.3913 208.172 24.0693 207.957 23.64C207.752 23.2107 207.649 22.6787 207.649 22.044V19.636H206.655V18.292H215.223V19.636H213.865ZM212.227 19.636H209.287V22.044C209.287 22.3987 209.334 22.688 209.427 22.912C209.521 23.136 209.661 23.304 209.847 23.416C210.034 23.5187 210.267 23.57 210.547 23.57C210.939 23.57 211.313 23.458 211.667 23.234C212.022 23.0007 212.307 22.744 212.521 22.464L212.227 23.444V19.636ZM217.011 24.088C216.628 23.8173 216.339 23.5327 216.143 23.234C215.947 22.9353 215.849 22.618 215.849 22.282C215.849 21.7407 216.045 21.3253 216.437 21.036C216.838 20.7467 217.417 20.602 218.173 20.602H219.979V19.636H215.009V18.292H222.947V19.636H221.603V21.918H218.425C218.089 21.918 217.841 21.9693 217.683 22.072C217.533 22.1747 217.459 22.3287 217.459 22.534C217.459 22.6927 217.515 22.8467 217.627 22.996C217.739 23.136 217.897 23.2667 218.103 23.388L217.011 24.088ZM219.783 26.216C220.035 26.0853 220.226 25.936 220.357 25.768C220.497 25.5907 220.567 25.4087 220.567 25.222C220.567 24.97 220.459 24.7647 220.245 24.606C220.03 24.438 219.685 24.354 219.209 24.354C218.649 24.354 218.219 24.466 217.921 24.69C217.631 24.9047 217.487 25.2033 217.487 25.586C217.487 25.9033 217.599 26.188 217.823 26.44C218.056 26.6827 218.406 26.916 218.873 27.14C219.349 27.364 219.937 27.6067 220.637 27.868L219.923 29.17C219.055 28.8807 218.317 28.568 217.711 28.232C217.104 27.896 216.642 27.5087 216.325 27.07C216.007 26.6313 215.849 26.1367 215.849 25.586C215.849 24.998 216.003 24.5173 216.311 24.144C216.619 23.7613 217.029 23.4813 217.543 23.304C218.056 23.1267 218.635 23.038 219.279 23.038C219.96 23.038 220.515 23.136 220.945 23.332C221.374 23.528 221.687 23.7893 221.883 24.116C222.088 24.4427 222.191 24.7973 222.191 25.18C222.191 25.5533 222.107 25.8987 221.939 26.216C221.771 26.524 221.486 26.818 221.085 27.098L219.783 26.216ZM227.241 19.636L227.563 19.314C227.656 19.538 227.731 19.7713 227.787 20.014C227.843 20.2567 227.871 20.5413 227.871 20.868C227.871 21.3533 227.768 21.7827 227.563 22.156C227.358 22.52 227.068 22.8373 226.695 23.108C226.322 23.3693 225.883 23.5933 225.379 23.78L225.365 23.5C225.645 23.7893 225.939 24.088 226.247 24.396C226.564 24.6947 226.896 24.9933 227.241 25.292C227.596 25.5907 227.955 25.8893 228.319 26.188L227.171 27.252C226.424 26.608 225.776 26.006 225.225 25.446C224.684 24.886 224.24 24.3587 223.895 23.864C223.671 23.556 223.508 23.2807 223.405 23.038C223.302 22.7953 223.251 22.562 223.251 22.338C223.251 22.0767 223.335 21.8667 223.503 21.708C223.671 21.54 223.9 21.456 224.189 21.456C224.488 21.456 224.768 21.5493 225.029 21.736C225.29 21.9227 225.561 22.184 225.841 22.52L224.945 22.31C225.393 22.1327 225.72 21.9087 225.925 21.638C226.13 21.3673 226.233 21.036 226.233 20.644C226.233 20.3733 226.2 20.1167 226.135 19.874C226.07 19.622 225.976 19.4307 225.855 19.3L226.541 19.636H222.747V18.292H228.963V19.636H227.241ZM233.938 27V25.698C234.778 25.1287 235.488 24.6153 236.066 24.158C236.654 23.6913 237.126 23.262 237.48 22.87C237.844 22.4687 238.106 22.0907 238.264 21.736C238.432 21.3813 238.516 21.0267 238.516 20.672C238.516 20.2427 238.386 19.8927 238.124 19.622C237.863 19.342 237.494 19.202 237.018 19.202C236.496 19.202 236.085 19.3793 235.786 19.734C235.497 20.0887 235.338 20.5927 235.31 21.246L233.644 20.616C233.691 19.9813 233.859 19.4447 234.148 19.006C234.447 18.558 234.848 18.2173 235.352 17.984C235.866 17.7413 236.454 17.62 237.116 17.62C237.686 17.62 238.176 17.6993 238.586 17.858C239.006 18.0167 239.352 18.236 239.622 18.516C239.902 18.7867 240.112 19.0993 240.252 19.454C240.392 19.8087 240.462 20.1773 240.462 20.56C240.462 21.1573 240.313 21.722 240.014 22.254C239.725 22.786 239.277 23.3133 238.67 23.836C238.064 24.3587 237.294 24.9093 236.36 25.488V25.502C236.5 25.4927 236.668 25.4833 236.864 25.474C237.07 25.4647 237.28 25.46 237.494 25.46C237.709 25.4507 237.896 25.446 238.054 25.446H240.602V27H233.938ZM243.4 19.86C243.773 19.86 244.067 19.9627 244.282 20.168C244.506 20.3733 244.618 20.6487 244.618 20.994C244.618 21.3487 244.506 21.6287 244.282 21.834C244.067 22.03 243.773 22.128 243.4 22.128C243.026 22.128 242.728 22.03 242.504 21.834C242.289 21.6287 242.182 21.3487 242.182 20.994C242.182 20.6487 242.289 20.3733 242.504 20.168C242.728 19.9627 243.026 19.86 243.4 19.86ZM243.4 24.858C243.773 24.858 244.067 24.9607 244.282 25.166C244.506 25.3713 244.618 25.6467 244.618 25.992C244.618 26.3467 244.506 26.6267 244.282 26.832C244.067 27.028 243.773 27.126 243.4 27.126C243.026 27.126 242.728 27.028 242.504 26.832C242.289 26.6267 242.182 26.3467 242.182 25.992C242.182 25.6467 242.289 25.3713 242.504 25.166C242.728 24.9607 243.026 24.858 243.4 24.858ZM249.949 27.14C248.764 27.14 247.849 26.7387 247.205 25.936C246.57 25.1333 246.253 23.948 246.253 22.38C246.253 20.812 246.57 19.6267 247.205 18.824C247.849 18.0213 248.764 17.62 249.949 17.62C251.134 17.62 252.044 18.0213 252.679 18.824C253.323 19.6267 253.645 20.812 253.645 22.38C253.645 23.948 253.323 25.1333 252.679 25.936C252.044 26.7387 251.134 27.14 249.949 27.14ZM249.949 25.586C250.35 25.586 250.677 25.474 250.929 25.25C251.19 25.0167 251.386 24.6667 251.517 24.2C251.648 23.724 251.713 23.1173 251.713 22.38C251.713 21.6427 251.648 21.0407 251.517 20.574C251.386 20.098 251.19 19.748 250.929 19.524C250.677 19.2907 250.35 19.174 249.949 19.174C249.548 19.174 249.216 19.2907 248.955 19.524C248.694 19.748 248.498 20.098 248.367 20.574C248.246 21.0407 248.185 21.6427 248.185 22.38C248.185 23.1173 248.246 23.724 248.367 24.2C248.498 24.6667 248.694 25.0167 248.955 25.25C249.216 25.474 249.548 25.586 249.949 25.586ZM258.849 27.14C257.664 27.14 256.749 26.7387 256.105 25.936C255.471 25.1333 255.153 23.948 255.153 22.38C255.153 20.812 255.471 19.6267 256.105 18.824C256.749 18.0213 257.664 17.62 258.849 17.62C260.035 17.62 260.945 18.0213 261.579 18.824C262.223 19.6267 262.545 20.812 262.545 22.38C262.545 23.948 262.223 25.1333 261.579 25.936C260.945 26.7387 260.035 27.14 258.849 27.14ZM258.849 25.586C259.251 25.586 259.577 25.474 259.829 25.25C260.091 25.0167 260.287 24.6667 260.417 24.2C260.548 23.724 260.613 23.1173 260.613 22.38C260.613 21.6427 260.548 21.0407 260.417 20.574C260.287 20.098 260.091 19.748 259.829 19.524C259.577 19.2907 259.251 19.174 258.849 19.174C258.448 19.174 258.117 19.2907 257.855 19.524C257.594 19.748 257.398 20.098 257.267 20.574C257.146 21.0407 257.085 21.6427 257.085 22.38C257.085 23.1173 257.146 23.724 257.267 24.2C257.398 24.6667 257.594 25.0167 257.855 25.25C258.117 25.474 258.448 25.586 258.849 25.586ZM276.187 19.636H274.843V27H273.191V24.368L273.681 24.816C273.364 25.0867 272.995 25.2967 272.575 25.446C272.164 25.586 271.688 25.656 271.147 25.656C270.214 25.656 269.476 25.4273 268.935 24.97C268.394 24.5033 268.123 23.8873 268.123 23.122C268.123 22.2727 268.408 21.638 268.977 21.218C269.546 20.798 270.298 20.588 271.231 20.588C271.52 20.588 271.786 20.602 272.029 20.63C272.281 20.6487 272.519 20.686 272.743 20.742L272.617 21.988C272.44 21.9507 272.248 21.9227 272.043 21.904C271.847 21.876 271.642 21.862 271.427 21.862C270.876 21.862 270.447 21.9693 270.139 22.184C269.84 22.3987 269.691 22.7207 269.691 23.15C269.691 23.5607 269.826 23.8687 270.097 24.074C270.377 24.2793 270.741 24.382 271.189 24.382C271.525 24.382 271.833 24.326 272.113 24.214C272.402 24.102 272.659 23.9573 272.883 23.78C273.107 23.5933 273.289 23.4067 273.429 23.22L273.191 24.116V19.636H267.577V18.292H276.187V19.636ZM270.601 21.218L273.009 24.27L272.239 24.872L269.607 21.568L270.601 21.218ZM285.617 19.636V27H283.965V22.226H282.635C282.393 22.226 282.183 22.2213 282.005 22.212C281.828 22.2027 281.693 22.184 281.599 22.156L281.011 21.68C281.515 21.9787 281.917 22.324 282.215 22.716C282.514 23.0987 282.663 23.542 282.663 24.046C282.663 24.4753 282.561 24.8393 282.355 25.138C282.159 25.4367 281.893 25.6607 281.557 25.81C281.231 25.9593 280.857 26.034 280.437 26.034C280.027 26.034 279.635 25.9593 279.261 25.81C278.888 25.6607 278.529 25.418 278.183 25.082C277.847 24.7367 277.525 24.2793 277.217 23.71C276.909 23.1313 276.606 22.4173 276.307 21.568L277.693 21.064C277.955 21.8573 278.216 22.52 278.477 23.052C278.748 23.584 279.028 23.9853 279.317 24.256C279.607 24.5267 279.905 24.662 280.213 24.662C280.456 24.662 280.657 24.5967 280.815 24.466C280.974 24.3353 281.053 24.116 281.053 23.808C281.053 23.4533 280.932 23.1267 280.689 22.828C280.447 22.52 280.129 22.24 279.737 21.988L280.185 20.91H283.965V19.636H275.985V18.292H286.961V19.636H285.617ZM284.001 18.39C283.833 17.8487 283.684 17.41 283.553 17.074C283.413 16.738 283.278 16.4813 283.147 16.304C283.016 16.1267 282.876 16.0053 282.727 15.94C282.568 15.8653 282.382 15.828 282.167 15.828C281.99 15.828 281.808 15.8513 281.621 15.898C281.425 15.9353 281.243 15.9867 281.075 16.052L280.669 14.722C280.893 14.638 281.14 14.5727 281.411 14.526C281.672 14.4793 281.934 14.456 282.195 14.456C282.615 14.456 282.979 14.5167 283.287 14.638C283.586 14.75 283.856 14.9553 284.099 15.254C284.332 15.5433 284.556 15.9447 284.771 16.458C284.976 16.962 285.2 17.606 285.443 18.39H284.001Z" fill="#531D0B"/>
<defs>
<filter id="filter0_d_23778_169944" x="2" y="40" width="356" height="259" filterUnits="userSpaceOnUse" color-interpolation-filters="sRGB">
<feFlood flood-opacity="0" result="BackgroundImageFix"/>
<feColorMatrix in="SourceAlpha" type="matrix" values="0 0 0 0 0 0 0 0 0 0 0 0 0 0 0 0 0 0 127 0" result="hardAlpha"/>
<feOffset/>
<feGaussianBlur stdDeviation="2"/>
<feComposite in2="hardAlpha" operator="out"/>
<feColorMatrix type="matrix" values="0 0 0 0 0 0 0 0 0 0 0 0 0 0 0 0 0 0 0.25 0"/>
<feBlend mode="normal" in2="BackgroundImageFix" result="effect1_dropShadow_23778_169944"/>
<feBlend mode="normal" in="SourceGraphic" in2="effect1_dropShadow_23778_169944" result="shape"/>
</filter>
<linearGradient id="paint0_linear_23778_169944" x1="18" y1="256" x2="208" y2="256" gradientUnits="userSpaceOnUse">
<stop stop-color="#F2994A"/>
<stop offset="1" stop-color="#FE7700"/>
</linearGradient>
</defs>
</svg>
