<svg width="332" height="54" viewBox="0 0 332 54" fill="none" xmlns="http://www.w3.org/2000/svg">
<rect width="332" height="54" rx="12" fill="#016D19"/>
<path d="M86.3389 21.44C87.4189 21.44 88.3669 21.626 89.1829 21.998C89.9989 22.37 90.6949 22.922 91.2709 23.654L89.8849 25.256C89.3929 24.632 88.8529 24.176 88.2649 23.888C87.6889 23.588 87.0169 23.438 86.2489 23.438C85.7449 23.438 85.3249 23.504 84.9889 23.636C84.6649 23.768 84.4249 23.942 84.2689 24.158C84.1249 24.374 84.0529 24.614 84.0529 24.878C84.0529 25.202 84.1789 25.478 84.4309 25.706C84.6829 25.922 85.1149 26.102 85.7269 26.246L87.9409 26.75C89.1169 27.014 89.9569 27.41 90.4609 27.938C90.9769 28.454 91.2349 29.126 91.2349 29.954C91.2349 30.734 91.0309 31.406 90.6229 31.97C90.2149 32.522 89.6449 32.948 88.9129 33.248C88.1809 33.536 87.3409 33.68 86.3929 33.68C85.5649 33.68 84.8029 33.584 84.1069 33.392C83.4229 33.188 82.8109 32.912 82.2709 32.564C81.7309 32.216 81.2809 31.814 80.9209 31.358L82.3249 29.684C82.6009 30.068 82.9429 30.41 83.3509 30.71C83.7589 31.01 84.2209 31.25 84.7369 31.43C85.2649 31.598 85.8169 31.682 86.3929 31.682C86.8849 31.682 87.2989 31.628 87.6349 31.52C87.9829 31.4 88.2409 31.238 88.4089 31.034C88.5889 30.818 88.6789 30.56 88.6789 30.26C88.6789 29.948 88.5709 29.684 88.3549 29.468C88.1509 29.24 87.7669 29.066 87.2029 28.946L84.7909 28.406C84.0949 28.238 83.4949 28.022 82.9909 27.758C82.4989 27.482 82.1209 27.134 81.8569 26.714C81.6049 26.282 81.4789 25.772 81.4789 25.184C81.4789 24.476 81.6709 23.84 82.0549 23.276C82.4389 22.712 82.9909 22.268 83.7109 21.944C84.4429 21.608 85.3189 21.44 86.3389 21.44ZM96.2189 21.746V30.566C96.2189 30.998 96.3269 31.316 96.5429 31.52C96.7709 31.712 97.0769 31.808 97.4609 31.808C97.7609 31.808 98.0249 31.766 98.2529 31.682C98.4809 31.586 98.6849 31.46 98.8649 31.304L99.2609 32.942C98.9729 33.17 98.6129 33.35 98.1809 33.482C97.7489 33.614 97.2929 33.68 96.8129 33.68C96.2129 33.68 95.6789 33.59 95.2109 33.41C94.7549 33.23 94.3949 32.942 94.1309 32.546C93.8789 32.15 93.7529 31.622 93.7529 30.962V22.43L96.2189 21.746ZM99.0989 24.5V26.336H92.0969V24.5H99.0989ZM105.685 27.758C105.685 27.242 105.535 26.84 105.235 26.552C104.947 26.264 104.563 26.12 104.083 26.12C103.639 26.12 103.249 26.234 102.913 26.462C102.577 26.69 102.331 27.068 102.175 27.596L100.069 26.948C100.273 26.156 100.717 25.52 101.401 25.04C102.097 24.56 103.027 24.32 104.191 24.32C104.983 24.32 105.673 24.446 106.261 24.698C106.849 24.938 107.305 25.304 107.629 25.796C107.965 26.288 108.133 26.906 108.133 27.65V31.304C108.133 31.76 108.349 31.988 108.781 31.988C108.985 31.988 109.177 31.958 109.357 31.898L109.213 33.428C108.901 33.584 108.511 33.662 108.043 33.662C107.623 33.662 107.245 33.59 106.909 33.446C106.573 33.302 106.309 33.086 106.117 32.798C105.925 32.498 105.829 32.126 105.829 31.682V31.61L106.261 31.538C106.189 31.994 105.991 32.384 105.667 32.708C105.343 33.02 104.947 33.26 104.479 33.428C104.023 33.596 103.549 33.68 103.057 33.68C102.445 33.68 101.917 33.59 101.473 33.41C101.029 33.218 100.687 32.942 100.447 32.582C100.207 32.222 100.087 31.778 100.087 31.25C100.087 30.578 100.303 30.032 100.735 29.612C101.167 29.18 101.785 28.886 102.589 28.73L105.973 28.046L105.955 29.576L103.795 30.008C103.387 30.092 103.075 30.206 102.859 30.35C102.655 30.482 102.553 30.704 102.553 31.016C102.553 31.316 102.661 31.544 102.877 31.7C103.105 31.856 103.375 31.934 103.687 31.934C103.939 31.934 104.185 31.904 104.425 31.844C104.665 31.784 104.881 31.688 105.073 31.556C105.265 31.424 105.415 31.244 105.523 31.016C105.631 30.788 105.685 30.512 105.685 30.188V27.758ZM110.591 33.5V24.5H112.733L112.895 26.264C113.135 25.64 113.483 25.16 113.939 24.824C114.407 24.488 114.989 24.32 115.685 24.32C115.889 24.32 116.075 24.338 116.243 24.374C116.411 24.41 116.549 24.458 116.657 24.518L116.369 26.588C116.249 26.54 116.099 26.504 115.919 26.48C115.751 26.456 115.529 26.444 115.253 26.444C114.893 26.444 114.545 26.534 114.209 26.714C113.873 26.882 113.597 27.146 113.381 27.506C113.165 27.854 113.057 28.298 113.057 28.838V33.5H110.591ZM120.737 21.746V30.566C120.737 30.998 120.845 31.316 121.061 31.52C121.289 31.712 121.595 31.808 121.979 31.808C122.279 31.808 122.543 31.766 122.771 31.682C122.999 31.586 123.203 31.46 123.383 31.304L123.779 32.942C123.491 33.17 123.131 33.35 122.699 33.482C122.267 33.614 121.811 33.68 121.331 33.68C120.731 33.68 120.197 33.59 119.729 33.41C119.273 33.23 118.913 32.942 118.649 32.546C118.397 32.15 118.271 31.622 118.271 30.962V22.43L120.737 21.746ZM123.617 24.5V26.336H116.615V24.5H123.617ZM132.32 33.5L128.864 21.62H131.51L133.85 31.43L136.226 21.62H138.602L141.014 31.43L143.336 21.62H145.874L142.418 33.5H139.628L137.972 27.02L137.414 24.212H137.378L136.82 27.02L135.182 33.5H132.32ZM151.646 27.758C151.646 27.242 151.496 26.84 151.196 26.552C150.908 26.264 150.524 26.12 150.044 26.12C149.6 26.12 149.21 26.234 148.874 26.462C148.538 26.69 148.292 27.068 148.136 27.596L146.03 26.948C146.234 26.156 146.678 25.52 147.362 25.04C148.058 24.56 148.988 24.32 150.152 24.32C150.944 24.32 151.634 24.446 152.222 24.698C152.81 24.938 153.266 25.304 153.59 25.796C153.926 26.288 154.094 26.906 154.094 27.65V31.304C154.094 31.76 154.31 31.988 154.742 31.988C154.946 31.988 155.138 31.958 155.318 31.898L155.174 33.428C154.862 33.584 154.472 33.662 154.004 33.662C153.584 33.662 153.206 33.59 152.87 33.446C152.534 33.302 152.27 33.086 152.078 32.798C151.886 32.498 151.79 32.126 151.79 31.682V31.61L152.222 31.538C152.15 31.994 151.952 32.384 151.628 32.708C151.304 33.02 150.908 33.26 150.44 33.428C149.984 33.596 149.51 33.68 149.018 33.68C148.406 33.68 147.878 33.59 147.434 33.41C146.99 33.218 146.648 32.942 146.408 32.582C146.168 32.222 146.048 31.778 146.048 31.25C146.048 30.578 146.264 30.032 146.696 29.612C147.128 29.18 147.746 28.886 148.55 28.73L151.934 28.046L151.916 29.576L149.756 30.008C149.348 30.092 149.036 30.206 148.82 30.35C148.616 30.482 148.514 30.704 148.514 31.016C148.514 31.316 148.622 31.544 148.838 31.7C149.066 31.856 149.336 31.934 149.648 31.934C149.9 31.934 150.146 31.904 150.386 31.844C150.626 31.784 150.842 31.688 151.034 31.556C151.226 31.424 151.376 31.244 151.484 31.016C151.592 30.788 151.646 30.512 151.646 30.188V27.758ZM159.386 21.746V30.566C159.386 30.998 159.494 31.316 159.71 31.52C159.938 31.712 160.244 31.808 160.628 31.808C160.928 31.808 161.192 31.766 161.42 31.682C161.648 31.586 161.852 31.46 162.032 31.304L162.428 32.942C162.14 33.17 161.78 33.35 161.348 33.482C160.916 33.614 160.46 33.68 159.98 33.68C159.38 33.68 158.846 33.59 158.378 33.41C157.922 33.23 157.562 32.942 157.298 32.546C157.046 32.15 156.92 31.622 156.92 30.962V22.43L159.386 21.746ZM162.266 24.5V26.336H155.264V24.5H162.266ZM167.721 24.32C168.525 24.32 169.203 24.44 169.755 24.68C170.319 24.908 170.769 25.226 171.105 25.634C171.453 26.03 171.699 26.474 171.843 26.966L169.539 27.794C169.419 27.254 169.215 26.846 168.927 26.57C168.639 26.294 168.249 26.156 167.757 26.156C167.301 26.156 166.911 26.264 166.587 26.48C166.263 26.684 166.017 27.002 165.849 27.434C165.681 27.854 165.597 28.382 165.597 29.018C165.597 29.654 165.681 30.182 165.849 30.602C166.029 31.022 166.281 31.334 166.605 31.538C166.941 31.742 167.331 31.844 167.775 31.844C168.135 31.844 168.441 31.784 168.693 31.664C168.945 31.532 169.149 31.346 169.305 31.106C169.473 30.866 169.587 30.578 169.647 30.242L171.879 30.962C171.747 31.502 171.501 31.976 171.141 32.384C170.781 32.792 170.319 33.11 169.755 33.338C169.191 33.566 168.537 33.68 167.793 33.68C166.869 33.68 166.053 33.494 165.345 33.122C164.637 32.75 164.091 32.216 163.707 31.52C163.323 30.824 163.131 29.984 163.131 29C163.131 28.016 163.323 27.176 163.707 26.48C164.091 25.784 164.631 25.25 165.327 24.878C166.023 24.506 166.821 24.32 167.721 24.32ZM173.495 33.5V20.558H175.961V26.03C176.249 25.454 176.645 25.028 177.149 24.752C177.653 24.464 178.223 24.32 178.859 24.32C179.483 24.32 180.035 24.44 180.515 24.68C181.007 24.92 181.391 25.286 181.667 25.778C181.955 26.258 182.099 26.864 182.099 27.596V33.5H179.633V28.316C179.633 27.536 179.483 27.002 179.183 26.714C178.883 26.414 178.499 26.264 178.031 26.264C177.683 26.264 177.347 26.348 177.023 26.516C176.711 26.672 176.453 26.936 176.249 27.308C176.057 27.668 175.961 28.148 175.961 28.748V33.5H173.495ZM185.582 23.204C185.066 23.204 184.682 23.096 184.43 22.88C184.178 22.652 184.052 22.322 184.052 21.89C184.052 21.446 184.178 21.116 184.43 20.9C184.682 20.672 185.066 20.558 185.582 20.558C186.098 20.558 186.482 20.672 186.734 20.9C186.986 21.116 187.112 21.446 187.112 21.89C187.112 22.322 186.986 22.652 186.734 22.88C186.482 23.096 186.098 23.204 185.582 23.204ZM186.806 24.5V33.5H184.34V24.5H186.806ZM189.12 33.5V24.5H191.334L191.478 27.2L191.172 26.912C191.316 26.324 191.544 25.838 191.856 25.454C192.168 25.07 192.546 24.788 192.99 24.608C193.446 24.416 193.944 24.32 194.484 24.32C195.108 24.32 195.66 24.44 196.14 24.68C196.632 24.92 197.016 25.286 197.292 25.778C197.58 26.258 197.724 26.864 197.724 27.596V33.5H195.258V28.298C195.258 27.53 195.108 27.002 194.808 26.714C194.508 26.414 194.118 26.264 193.638 26.264C193.302 26.264 192.972 26.348 192.648 26.516C192.336 26.672 192.078 26.93 191.874 27.29C191.682 27.65 191.586 28.13 191.586 28.73V33.5H189.12ZM208.262 22.358L208.55 24.122C208.502 24.122 208.448 24.122 208.388 24.122C208.34 24.11 208.286 24.104 208.226 24.104C207.674 24.104 207.26 24.23 206.984 24.482C206.708 24.722 206.57 25.058 206.57 25.49L205.562 25.076C205.562 24.596 205.658 24.152 205.85 23.744C206.042 23.324 206.324 22.988 206.696 22.736C207.08 22.484 207.536 22.358 208.064 22.358C208.088 22.358 208.118 22.358 208.154 22.358C208.19 22.358 208.226 22.358 208.262 22.358ZM205.31 31.808C206.282 31.808 207.032 32.018 207.56 32.438C208.088 32.858 208.352 33.446 208.352 34.202C208.352 34.886 208.154 35.462 207.758 35.93C207.362 36.41 206.804 36.77 206.084 37.01C205.376 37.25 204.554 37.37 203.618 37.37C202.07 37.37 200.936 37.154 200.216 36.722C199.508 36.29 199.154 35.726 199.154 35.03C199.154 34.538 199.34 34.124 199.712 33.788C200.096 33.452 200.726 33.266 201.602 33.23L201.512 33.518C200.888 33.41 200.408 33.206 200.072 32.906C199.748 32.594 199.586 32.168 199.586 31.628C199.586 31.076 199.796 30.626 200.216 30.278C200.648 29.918 201.23 29.708 201.962 29.648L203.042 30.152H202.79C202.274 30.188 201.908 30.296 201.692 30.476C201.488 30.644 201.386 30.836 201.386 31.052C201.386 31.304 201.482 31.496 201.674 31.628C201.878 31.748 202.166 31.808 202.538 31.808H205.31ZM203.636 35.678C204.26 35.678 204.77 35.624 205.166 35.516C205.574 35.408 205.874 35.27 206.066 35.102C206.27 34.934 206.372 34.748 206.372 34.544C206.372 34.316 206.282 34.13 206.102 33.986C205.922 33.854 205.598 33.788 205.13 33.788H202.088C201.8 33.788 201.56 33.86 201.368 34.004C201.188 34.148 201.098 34.346 201.098 34.598C201.098 34.934 201.32 35.198 201.764 35.39C202.22 35.582 202.844 35.678 203.636 35.678ZM203.654 24.32C204.494 24.32 205.22 24.446 205.832 24.698C206.456 24.938 206.93 25.286 207.254 25.742C207.59 26.198 207.758 26.744 207.758 27.38C207.758 28.004 207.59 28.544 207.254 29C206.93 29.456 206.456 29.81 205.832 30.062C205.22 30.302 204.494 30.422 203.654 30.422C202.322 30.422 201.302 30.152 200.594 29.612C199.898 29.06 199.55 28.316 199.55 27.38C199.55 26.744 199.712 26.198 200.036 25.742C200.372 25.286 200.846 24.938 201.458 24.698C202.07 24.446 202.802 24.32 203.654 24.32ZM203.654 25.868C203.174 25.868 202.778 26 202.466 26.264C202.154 26.528 201.998 26.894 201.998 27.362C201.998 27.83 202.154 28.202 202.466 28.478C202.778 28.742 203.174 28.874 203.654 28.874C204.134 28.874 204.524 28.742 204.824 28.478C205.136 28.202 205.292 27.83 205.292 27.362C205.292 26.894 205.136 26.528 204.824 26.264C204.524 26 204.134 25.868 203.654 25.868Z" fill="white"/>
<circle cx="241" cy="27" r="12" fill="white"/>
<path d="M235 21L241 27V21H235Z" fill="#B31232"/>
<path d="M235 33L241 27V33H235Z" fill="#B31232"/>
<path d="M247 27L241 33V27H247Z" fill="#B31232"/>
<path d="M247 27L241 21V27H247Z" fill="#B31232"/>
<rect width="332" height="48" rx="8" fill="#248B3B"/>
<path fill-rule="evenodd" clip-rule="evenodd" d="M95 34C89.477 34 85 29.523 85 24C85 18.477 89.477 14 95 14C100.523 14 105 18.477 105 24C105 29.523 100.523 34 95 34ZM93.823 26.14L91.058 23.373L90 24.431L93.119 27.552C93.3065 27.7395 93.5608 27.8448 93.826 27.8448C94.0912 27.8448 94.3455 27.7395 94.533 27.552L100.485 21.602L99.423 20.54L93.823 26.14Z" fill="white"/>
<path d="M127.119 21.084V29.5H125.231V21.084H124.175V19.548H128.671V21.084H127.119ZM120.447 19.388C121.097 19.388 121.625 19.5 122.031 19.724C122.447 19.9373 122.745 20.2307 122.927 20.604C123.119 20.9667 123.215 21.372 123.215 21.82C123.215 22.62 122.9 23.2653 122.271 23.756C121.652 24.2467 120.697 24.54 119.407 24.636L119.119 23.18C119.727 23.116 120.191 23.0307 120.511 22.924C120.841 22.8067 121.071 22.6627 121.199 22.492C121.327 22.3213 121.391 22.1187 121.391 21.884C121.391 21.5853 121.289 21.356 121.087 21.196C120.895 21.036 120.617 20.956 120.255 20.956C119.924 20.956 119.593 21.004 119.263 21.1C118.932 21.196 118.601 21.34 118.271 21.532L117.743 20.06C118.127 19.8467 118.543 19.6813 118.991 19.564C119.449 19.4467 119.935 19.388 120.447 19.388ZM123.471 26.012C123.471 26.8333 123.199 27.4787 122.655 27.948C122.121 28.4067 121.412 28.636 120.527 28.636C119.844 28.636 119.225 28.4973 118.671 28.22C118.127 27.932 117.62 27.4573 117.151 26.796C116.681 26.1347 116.217 25.228 115.759 24.076L117.279 23.372C117.737 24.6093 118.201 25.532 118.671 26.14C119.14 26.748 119.689 27.052 120.319 27.052C120.735 27.052 121.065 26.9453 121.311 26.732C121.556 26.5187 121.679 26.2093 121.679 25.804C121.679 25.4093 121.535 25.0573 121.247 24.748C120.959 24.428 120.601 24.1453 120.175 23.9L121.071 23.548L122.015 23.484C122.175 23.6013 122.335 23.74 122.495 23.9C122.665 24.06 122.804 24.2253 122.911 24.396L123.071 24.684C123.199 24.876 123.295 25.084 123.359 25.308C123.433 25.532 123.471 25.7667 123.471 26.012ZM123.647 23.868C124.041 23.868 124.436 23.8307 124.831 23.756C125.225 23.6707 125.62 23.532 126.015 23.34L126.079 24.94C125.748 25.0893 125.412 25.196 125.071 25.26C124.729 25.324 124.383 25.356 124.031 25.356C123.711 25.356 123.385 25.3293 123.055 25.276C122.724 25.212 122.415 25.1373 122.127 25.052L121.855 23.884L121.999 23.66C122.244 23.724 122.505 23.7773 122.783 23.82C123.071 23.852 123.359 23.868 123.647 23.868ZM131.615 21.084V29.5H129.743V21.084H128.431V19.548H133.151V21.084H131.615ZM140.845 21.084V29.5H138.973V25.66L139.533 26.268C139.213 26.524 138.823 26.732 138.365 26.892C137.917 27.052 137.447 27.132 136.957 27.132C136.253 27.132 135.661 27.0093 135.181 26.764C134.701 26.5187 134.338 26.1507 134.093 25.66C133.858 25.1693 133.741 24.5613 133.741 23.836V21.084H132.605V19.548H142.397V21.084H140.845ZM138.973 21.084H135.613V23.836C135.613 24.2413 135.666 24.572 135.773 24.828C135.879 25.084 136.039 25.276 136.253 25.404C136.466 25.5213 136.733 25.58 137.053 25.58C137.501 25.58 137.927 25.452 138.333 25.196C138.738 24.9293 139.063 24.636 139.309 24.316L138.973 25.436V21.084ZM150.844 21.084L151.212 20.716C151.318 20.972 151.404 21.2387 151.468 21.516C151.532 21.7933 151.564 22.1187 151.564 22.492C151.564 23.0467 151.446 23.5373 151.212 23.964C150.977 24.38 150.646 24.7427 150.22 25.052C149.793 25.3507 149.292 25.6067 148.716 25.82L148.7 25.5C149.02 25.8307 149.356 26.172 149.708 26.524C150.07 26.8653 150.449 27.2067 150.844 27.548C151.249 27.8893 151.66 28.2307 152.076 28.572L150.764 29.788C149.91 29.052 149.169 28.364 148.54 27.724C147.921 27.084 147.414 26.4813 147.02 25.916C146.764 25.564 146.577 25.2493 146.46 24.972C146.342 24.6947 146.284 24.428 146.284 24.172C146.284 23.8733 146.38 23.6333 146.572 23.452C146.764 23.26 147.025 23.164 147.356 23.164C147.697 23.164 148.017 23.2707 148.316 23.484C148.614 23.6973 148.924 23.996 149.244 24.38L148.22 24.14C148.732 23.9373 149.105 23.6813 149.34 23.372C149.574 23.0627 149.692 22.684 149.692 22.236C149.692 21.9267 149.654 21.6333 149.58 21.356C149.505 21.068 149.398 20.8493 149.26 20.7L150.044 21.084H145.708V19.548H152.812V21.084H150.844ZM153.547 19.66C153.409 19.4147 153.291 19.1533 153.195 18.876C153.099 18.588 153.051 18.268 153.051 17.916C153.051 17.3187 153.233 16.8173 153.595 16.412C153.958 16.0067 154.475 15.6973 155.147 15.484C155.819 15.2707 156.609 15.164 157.515 15.164C158.689 15.164 159.782 15.2813 160.795 15.516C161.819 15.7507 162.763 16.076 163.627 16.492C164.491 16.8973 165.27 17.372 165.963 17.916C166.667 18.46 167.281 19.0413 167.803 19.66H165.819C165.297 19.1907 164.737 18.78 164.139 18.428C163.553 18.0653 162.923 17.756 162.251 17.5C161.59 17.244 160.897 17.052 160.171 16.924C159.446 16.7853 158.694 16.716 157.915 16.716C156.955 16.716 156.219 16.8547 155.707 17.132C155.195 17.4093 154.939 17.8093 154.939 18.332C154.939 18.6093 154.982 18.86 155.067 19.084C155.163 19.2973 155.281 19.4893 155.419 19.66H153.547ZM155.451 21.084V29.5H153.579V21.084H152.267V19.548H156.987V21.084H155.451ZM167.475 21.084V29.5H165.587V24.044H164.067C163.79 24.044 163.55 24.0387 163.347 24.028C163.145 24.0173 162.99 23.996 162.883 23.964L162.211 23.42C162.787 23.7613 163.246 24.156 163.587 24.604C163.929 25.0413 164.099 25.548 164.099 26.124C164.099 26.6147 163.982 27.0307 163.747 27.372C163.523 27.7133 163.219 27.9693 162.835 28.14C162.462 28.3107 162.035 28.396 161.555 28.396C161.086 28.396 160.638 28.3107 160.211 28.14C159.785 27.9693 159.374 27.692 158.979 27.308C158.595 26.9133 158.227 26.3907 157.875 25.74C157.523 25.0787 157.177 24.2627 156.835 23.292L158.419 22.716C158.718 23.6227 159.017 24.38 159.315 24.988C159.625 25.596 159.945 26.0547 160.275 26.364C160.606 26.6733 160.947 26.828 161.299 26.828C161.577 26.828 161.806 26.7533 161.987 26.604C162.169 26.4547 162.259 26.204 162.259 25.852C162.259 25.4467 162.121 25.0733 161.843 24.732C161.566 24.38 161.203 24.06 160.755 23.772L161.267 22.54H165.587V21.084H156.467V19.548H169.011V21.084H167.475ZM172.96 29.82C172.107 28.9667 171.387 28.1827 170.8 27.468C170.213 26.7533 169.781 26.1507 169.504 25.66C169.344 25.372 169.227 25.1107 169.152 24.876C169.077 24.6413 169.04 24.4173 169.04 24.204C169.04 23.8947 169.131 23.644 169.312 23.452C169.504 23.26 169.771 23.164 170.112 23.164C170.475 23.164 170.8 23.2813 171.088 23.516C171.387 23.7507 171.68 24.0387 171.968 24.38L170.864 24.236C171.291 24.0333 171.584 23.7667 171.744 23.436C171.904 23.0947 171.984 22.716 171.984 22.3C171.984 21.9587 171.941 21.6493 171.856 21.372C171.781 21.084 171.68 20.8547 171.552 20.684L172.496 21.084H168.464V19.548H176.688V21.084H173.056L173.488 20.7C173.605 20.956 173.696 21.2333 173.76 21.532C173.835 21.82 173.872 22.1453 173.872 22.508C173.872 22.9347 173.803 23.3187 173.664 23.66C173.525 24.0013 173.339 24.3 173.104 24.556L172.944 24.748C172.752 24.972 172.523 25.164 172.256 25.324C171.989 25.484 171.675 25.6333 171.312 25.772V25.532C171.568 25.8627 171.856 26.1987 172.176 26.54C172.496 26.8813 172.837 27.228 173.2 27.58C173.573 27.932 173.957 28.2893 174.352 28.652L172.96 29.82ZM175.264 26.028C174.763 26.028 174.235 25.964 173.68 25.836C173.125 25.6973 172.592 25.4733 172.08 25.164L172.72 23.98C173.147 24.1613 173.552 24.2893 173.936 24.364C174.32 24.4387 174.725 24.476 175.152 24.476C175.451 24.476 175.739 24.4653 176.016 24.444C176.293 24.412 176.587 24.3747 176.896 24.332L176.96 25.82C176.683 25.9053 176.405 25.964 176.128 25.996C175.861 26.0173 175.573 26.028 175.264 26.028ZM183.351 21.084H181.495V24.108H179.927C179.041 24.108 178.369 24.2573 177.911 24.556C177.452 24.8547 177.223 25.3347 177.223 25.996C177.223 26.6147 177.436 27.084 177.863 27.404C178.289 27.724 178.817 27.884 179.447 27.884C179.937 27.884 180.391 27.804 180.807 27.644C181.233 27.484 181.681 27.244 182.151 26.924L182.855 28.332C182.407 28.716 181.9 29.0093 181.335 29.212C180.78 29.404 180.135 29.5 179.399 29.5C178.609 29.5 177.911 29.3613 177.303 29.084C176.695 28.796 176.215 28.3853 175.863 27.852C175.521 27.3187 175.351 26.684 175.351 25.948C175.351 24.828 175.719 23.996 176.455 23.452C177.201 22.8973 178.252 22.62 179.607 22.62H180.167L179.623 23.036V21.084H174.727V19.548H183.351V21.084ZM187.969 21.084L188.337 20.716C188.443 20.972 188.529 21.2387 188.593 21.516C188.657 21.7933 188.689 22.1187 188.689 22.492C188.689 23.0467 188.571 23.5373 188.337 23.964C188.102 24.38 187.771 24.7427 187.345 25.052C186.918 25.3507 186.417 25.6067 185.841 25.82L185.825 25.5C186.145 25.8307 186.481 26.172 186.833 26.524C187.195 26.8653 187.574 27.2067 187.969 27.548C188.374 27.8893 188.785 28.2307 189.201 28.572L187.889 29.788C187.035 29.052 186.294 28.364 185.665 27.724C185.046 27.084 184.539 26.4813 184.145 25.916C183.889 25.564 183.702 25.2493 183.585 24.972C183.467 24.6947 183.409 24.428 183.409 24.172C183.409 23.8733 183.505 23.6333 183.697 23.452C183.889 23.26 184.15 23.164 184.481 23.164C184.822 23.164 185.142 23.2707 185.441 23.484C185.739 23.6973 186.049 23.996 186.369 24.38L185.345 24.14C185.857 23.9373 186.23 23.6813 186.465 23.372C186.699 23.0627 186.817 22.684 186.817 22.236C186.817 21.9267 186.779 21.6333 186.705 21.356C186.63 21.068 186.523 20.8493 186.385 20.7L187.169 21.084H182.833V19.548H189.937V21.084H187.969ZM195.536 26.172C195.099 25.8627 194.768 25.5373 194.544 25.196C194.32 24.8547 194.208 24.492 194.208 24.108C194.208 23.4893 194.432 23.0147 194.88 22.684C195.339 22.3533 196 22.188 196.864 22.188H198.928V21.084H193.248V19.548H202.32V21.084H200.784V23.692H197.152C196.768 23.692 196.486 23.7507 196.304 23.868C196.134 23.9853 196.048 24.1613 196.048 24.396C196.048 24.5773 196.112 24.7533 196.24 24.924C196.368 25.084 196.55 25.2333 196.784 25.372L195.536 26.172ZM198.704 28.604C198.992 28.4547 199.211 28.284 199.36 28.092C199.52 27.8893 199.6 27.6813 199.6 27.468C199.6 27.18 199.478 26.9453 199.232 26.764C198.987 26.572 198.592 26.476 198.048 26.476C197.408 26.476 196.918 26.604 196.576 26.86C196.246 27.1053 196.08 27.4467 196.08 27.884C196.08 28.2467 196.208 28.572 196.464 28.86C196.731 29.1373 197.131 29.404 197.664 29.66C198.208 29.916 198.88 30.1933 199.68 30.492L198.864 31.98C197.872 31.6493 197.03 31.292 196.336 30.908C195.643 30.524 195.115 30.0813 194.752 29.58C194.39 29.0787 194.208 28.5133 194.208 27.884C194.208 27.212 194.384 26.6627 194.736 26.236C195.088 25.7987 195.558 25.4787 196.144 25.276C196.731 25.0733 197.392 24.972 198.128 24.972C198.907 24.972 199.542 25.084 200.032 25.308C200.523 25.532 200.88 25.8307 201.104 26.204C201.339 26.5773 201.456 26.9827 201.456 27.42C201.456 27.8467 201.36 28.2413 201.168 28.604C200.976 28.956 200.651 29.292 200.192 29.612L198.704 28.604ZM204.976 21.084V29.5H203.104V21.084H201.792V19.548H206.512V21.084H204.976ZM203.152 19.66C202.96 19.0413 202.784 18.54 202.624 18.156C202.475 17.772 202.326 17.4787 202.176 17.276C202.027 17.0733 201.867 16.9347 201.696 16.86C201.515 16.7747 201.302 16.732 201.056 16.732C200.854 16.732 200.646 16.7587 200.432 16.812C200.208 16.8547 200 16.9133 199.808 16.988L199.344 15.468C199.6 15.372 199.883 15.2973 200.192 15.244C200.491 15.1907 200.79 15.164 201.088 15.164C201.568 15.164 201.979 15.2333 202.32 15.372C202.672 15.5 202.982 15.7347 203.248 16.076C203.526 16.4067 203.782 16.8653 204.016 17.452C204.262 18.028 204.523 18.764 204.8 19.66H203.152ZM220.808 21.084H219.272V29.5H217.4V26.652L217.848 27.036C217.518 27.3347 217.118 27.5693 216.648 27.74C216.19 27.9 215.683 27.98 215.128 27.98C214.51 27.98 213.966 27.8787 213.496 27.676C213.027 27.4627 212.659 27.1693 212.392 26.796C212.126 26.412 211.992 25.964 211.992 25.452C211.992 25.1107 212.051 24.812 212.168 24.556C212.296 24.2893 212.451 24.0813 212.632 23.932L210.424 23.964V22.428H216.312L216.168 23.948H215.592C215.059 23.948 214.632 24.0547 214.312 24.268C214.003 24.4813 213.848 24.8067 213.848 25.244C213.848 25.6067 213.971 25.8947 214.216 26.108C214.472 26.3107 214.814 26.412 215.24 26.412C215.752 26.412 216.211 26.2787 216.616 26.012C217.032 25.7453 217.352 25.4307 217.576 25.068L217.4 25.948V21.084H209.848V19.548H220.808V21.084ZM217.467 33.788C216.795 33.788 216.176 33.6813 215.611 33.468C215.045 33.2653 214.523 32.972 214.043 32.588C213.552 32.2147 213.083 31.7773 212.635 31.276L213.835 30.204C214.272 30.7053 214.683 31.1107 215.067 31.42C215.44 31.74 215.813 31.9693 216.187 32.108C216.56 32.2467 216.96 32.316 217.387 32.316C217.867 32.316 218.224 32.2307 218.459 32.06C218.693 31.9 218.811 31.6707 218.811 31.372C218.811 31.1267 218.736 30.9293 218.587 30.78C218.427 30.6413 218.192 30.572 217.883 30.572C217.616 30.572 217.36 30.62 217.115 30.716C216.869 30.8227 216.629 30.9773 216.395 31.18L215.611 29.964C215.92 29.6973 216.267 29.4947 216.651 29.356C217.024 29.2173 217.472 29.148 217.995 29.148C218.784 29.148 219.397 29.3667 219.835 29.804C220.272 30.2413 220.491 30.8067 220.491 31.5C220.491 32.1827 220.24 32.732 219.739 33.148C219.227 33.5747 218.469 33.788 217.467 33.788ZM233.119 21.084H227.919V24.204L227.695 23.852C227.929 23.628 228.212 23.4467 228.543 23.308C228.884 23.1693 229.268 23.1 229.695 23.1C230.505 23.1 231.14 23.34 231.599 23.82C232.068 24.2893 232.303 24.94 232.303 25.772C232.303 26.3053 232.201 26.8333 231.999 27.356C231.807 27.868 231.481 28.4013 231.023 28.956L229.391 28.028C229.711 27.676 229.961 27.324 230.143 26.972C230.335 26.6093 230.431 26.22 230.431 25.804C230.431 25.4093 230.34 25.116 230.159 24.924C229.977 24.7213 229.721 24.62 229.391 24.62C229.071 24.62 228.772 24.7213 228.495 24.924C228.228 25.116 228.015 25.3667 227.855 25.676L227.919 25.18V29.5H226.047V26.348L226.511 26.844C226.276 27.0573 226.02 27.244 225.743 27.404C225.476 27.5533 225.177 27.6707 224.847 27.756C224.527 27.8413 224.18 27.884 223.807 27.884C223.199 27.884 222.649 27.7773 222.159 27.564C221.679 27.34 221.3 27.02 221.023 26.604C220.745 26.1773 220.607 25.6547 220.607 25.036C220.607 24.14 220.905 23.4467 221.503 22.956C222.1 22.4653 222.932 22.22 223.999 22.22C224.276 22.22 224.543 22.236 224.799 22.268C225.055 22.2893 225.3 22.3267 225.535 22.38L225.375 23.916C225.204 23.8733 225.017 23.8413 224.815 23.82C224.612 23.7987 224.404 23.788 224.191 23.788C223.647 23.788 223.225 23.9 222.927 24.124C222.639 24.348 222.495 24.668 222.495 25.084C222.495 25.5 222.628 25.8147 222.895 26.028C223.161 26.2307 223.503 26.332 223.919 26.332C224.42 26.332 224.873 26.1933 225.279 25.916C225.684 25.6387 225.993 25.324 226.207 24.972L226.047 26.124V21.084H219.983V19.548H233.119V21.084ZM225.766 19.66C225.574 19.0413 225.403 18.54 225.254 18.156C225.094 17.772 224.939 17.4787 224.79 17.276C224.64 17.0733 224.48 16.9347 224.31 16.86C224.128 16.7747 223.915 16.732 223.67 16.732C223.467 16.732 223.259 16.7587 223.046 16.812C222.822 16.8547 222.614 16.9133 222.422 16.988L221.958 15.468C222.214 15.372 222.496 15.2973 222.806 15.244C223.104 15.1907 223.403 15.164 223.702 15.164C224.182 15.164 224.598 15.2333 224.95 15.372C225.291 15.5 225.6 15.7347 225.878 16.076C226.144 16.4067 226.4 16.8653 226.646 17.452C226.88 18.028 227.136 18.764 227.414 19.66H225.766ZM238.418 26.172C237.98 25.8627 237.65 25.5373 237.426 25.196C237.202 24.8547 237.09 24.492 237.09 24.108C237.09 23.4893 237.314 23.0147 237.762 22.684C238.22 22.3533 238.882 22.188 239.746 22.188H241.81V21.084H236.13V19.548H245.202V21.084H243.666V23.692H240.034C239.65 23.692 239.367 23.7507 239.186 23.868C239.015 23.9853 238.93 24.1613 238.93 24.396C238.93 24.5773 238.994 24.7533 239.122 24.924C239.25 25.084 239.431 25.2333 239.666 25.372L238.418 26.172ZM241.586 28.604C241.874 28.4547 242.092 28.284 242.242 28.092C242.402 27.8893 242.482 27.6813 242.482 27.468C242.482 27.18 242.359 26.9453 242.114 26.764C241.868 26.572 241.474 26.476 240.93 26.476C240.29 26.476 239.799 26.604 239.458 26.86C239.127 27.1053 238.962 27.4467 238.962 27.884C238.962 28.2467 239.09 28.572 239.346 28.86C239.612 29.1373 240.012 29.404 240.546 29.66C241.09 29.916 241.762 30.1933 242.562 30.492L241.746 31.98C240.754 31.6493 239.911 31.292 239.218 30.908C238.524 30.524 237.996 30.0813 237.634 29.58C237.271 29.0787 237.09 28.5133 237.09 27.884C237.09 27.212 237.266 26.6627 237.618 26.236C237.97 25.7987 238.439 25.4787 239.026 25.276C239.612 25.0733 240.274 24.972 241.01 24.972C241.788 24.972 242.423 25.084 242.914 25.308C243.404 25.532 243.762 25.8307 243.986 26.204C244.22 26.5773 244.338 26.9827 244.338 27.42C244.338 27.8467 244.242 28.2413 244.05 28.604C243.858 28.956 243.532 29.292 243.074 29.612L241.586 28.604ZM242.513 16.396C242.513 16.0973 242.614 15.8467 242.817 15.644C243.02 15.4413 243.265 15.34 243.553 15.34C243.852 15.34 244.097 15.4413 244.289 15.644C244.481 15.8467 244.577 16.0973 244.577 16.396C244.577 16.684 244.481 16.9347 244.289 17.148C244.097 17.3507 243.852 17.452 243.553 17.452C243.265 17.452 243.02 17.3507 242.817 17.148C242.614 16.9347 242.513 16.684 242.513 16.396ZM241.633 19.66C241.302 19.3293 241.025 19.084 240.801 18.924C240.577 18.7533 240.364 18.6413 240.161 18.588C239.958 18.5347 239.734 18.508 239.489 18.508C239.244 18.508 238.998 18.54 238.753 18.604C238.497 18.6573 238.257 18.732 238.033 18.828L237.553 17.548C237.809 17.4307 238.076 17.34 238.353 17.276C238.63 17.212 238.908 17.18 239.185 17.18C239.494 17.18 239.772 17.2173 240.017 17.292C240.252 17.3667 240.492 17.5 240.737 17.692C240.982 17.8733 241.27 18.1293 241.601 18.46L241.665 18.428C241.377 17.8947 241.121 17.4893 240.897 17.212C240.673 16.924 240.449 16.732 240.225 16.636C239.99 16.5293 239.724 16.476 239.425 16.476C239.233 16.476 239.041 16.4973 238.849 16.54C238.657 16.572 238.46 16.6253 238.257 16.7L237.825 15.404C238.038 15.3293 238.284 15.2707 238.561 15.228C238.828 15.1853 239.094 15.164 239.361 15.164C239.852 15.164 240.273 15.2333 240.625 15.372C240.977 15.5107 241.286 15.7507 241.553 16.092C241.82 16.4227 242.081 16.8813 242.337 17.468C242.593 18.044 242.87 18.7747 243.169 19.66H241.633Z" fill="white"/>
</svg>
