<svg width="328" height="60" viewBox="0 0 328 60" fill="none" xmlns="http://www.w3.org/2000/svg">
<rect y="6" width="328" height="54" rx="12" fill="#9B0624"/>
<path d="M84.3389 27.44C85.4189 27.44 86.3669 27.626 87.1829 27.998C87.9989 28.37 88.6949 28.922 89.2709 29.654L87.8849 31.256C87.3929 30.632 86.8529 30.176 86.2649 29.888C85.6889 29.588 85.0169 29.438 84.2489 29.438C83.7449 29.438 83.3249 29.504 82.9889 29.636C82.6649 29.768 82.4249 29.942 82.2689 30.158C82.1249 30.374 82.0529 30.614 82.0529 30.878C82.0529 31.202 82.1789 31.478 82.4309 31.706C82.6829 31.922 83.1149 32.102 83.7269 32.246L85.9409 32.75C87.1169 33.014 87.9569 33.41 88.4609 33.938C88.9769 34.454 89.2349 35.126 89.2349 35.954C89.2349 36.734 89.0309 37.406 88.6229 37.97C88.2149 38.522 87.6449 38.948 86.9129 39.248C86.1809 39.536 85.3409 39.68 84.3929 39.68C83.5649 39.68 82.8029 39.584 82.1069 39.392C81.4229 39.188 80.8109 38.912 80.2709 38.564C79.7309 38.216 79.2809 37.814 78.9209 37.358L80.3249 35.684C80.6009 36.068 80.9429 36.41 81.3509 36.71C81.7589 37.01 82.2209 37.25 82.7369 37.43C83.2649 37.598 83.8169 37.682 84.3929 37.682C84.8849 37.682 85.2989 37.628 85.6349 37.52C85.9829 37.4 86.2409 37.238 86.4089 37.034C86.5889 36.818 86.6789 36.56 86.6789 36.26C86.6789 35.948 86.5709 35.684 86.3549 35.468C86.1509 35.24 85.7669 35.066 85.2029 34.946L82.7909 34.406C82.0949 34.238 81.4949 34.022 80.9909 33.758C80.4989 33.482 80.1209 33.134 79.8569 32.714C79.6049 32.282 79.4789 31.772 79.4789 31.184C79.4789 30.476 79.6709 29.84 80.0549 29.276C80.4389 28.712 80.9909 28.268 81.7109 27.944C82.4429 27.608 83.3189 27.44 84.3389 27.44ZM94.2189 27.746V36.566C94.2189 36.998 94.3269 37.316 94.5429 37.52C94.7709 37.712 95.0769 37.808 95.4609 37.808C95.7609 37.808 96.0249 37.766 96.2529 37.682C96.4809 37.586 96.6849 37.46 96.8649 37.304L97.2609 38.942C96.9729 39.17 96.6129 39.35 96.1809 39.482C95.7489 39.614 95.2929 39.68 94.8129 39.68C94.2129 39.68 93.6789 39.59 93.2109 39.41C92.7549 39.23 92.3949 38.942 92.1309 38.546C91.8789 38.15 91.7529 37.622 91.7529 36.962V28.43L94.2189 27.746ZM97.0989 30.5V32.336H90.0969V30.5H97.0989ZM103.685 33.758C103.685 33.242 103.535 32.84 103.235 32.552C102.947 32.264 102.563 32.12 102.083 32.12C101.639 32.12 101.249 32.234 100.913 32.462C100.577 32.69 100.331 33.068 100.175 33.596L98.0692 32.948C98.2732 32.156 98.7172 31.52 99.4012 31.04C100.097 30.56 101.027 30.32 102.191 30.32C102.983 30.32 103.673 30.446 104.261 30.698C104.849 30.938 105.305 31.304 105.629 31.796C105.965 32.288 106.133 32.906 106.133 33.65V37.304C106.133 37.76 106.349 37.988 106.781 37.988C106.985 37.988 107.177 37.958 107.357 37.898L107.213 39.428C106.901 39.584 106.511 39.662 106.043 39.662C105.623 39.662 105.245 39.59 104.909 39.446C104.573 39.302 104.309 39.086 104.117 38.798C103.925 38.498 103.829 38.126 103.829 37.682V37.61L104.261 37.538C104.189 37.994 103.991 38.384 103.667 38.708C103.343 39.02 102.947 39.26 102.479 39.428C102.023 39.596 101.549 39.68 101.057 39.68C100.445 39.68 99.9172 39.59 99.4732 39.41C99.0292 39.218 98.6872 38.942 98.4472 38.582C98.2072 38.222 98.0872 37.778 98.0872 37.25C98.0872 36.578 98.3032 36.032 98.7352 35.612C99.1672 35.18 99.7852 34.886 100.589 34.73L103.973 34.046L103.955 35.576L101.795 36.008C101.387 36.092 101.075 36.206 100.859 36.35C100.655 36.482 100.553 36.704 100.553 37.016C100.553 37.316 100.661 37.544 100.877 37.7C101.105 37.856 101.375 37.934 101.687 37.934C101.939 37.934 102.185 37.904 102.425 37.844C102.665 37.784 102.881 37.688 103.073 37.556C103.265 37.424 103.415 37.244 103.523 37.016C103.631 36.788 103.685 36.512 103.685 36.188V33.758ZM108.591 39.5V30.5H110.733L110.895 32.264C111.135 31.64 111.483 31.16 111.939 30.824C112.407 30.488 112.989 30.32 113.685 30.32C113.889 30.32 114.075 30.338 114.243 30.374C114.411 30.41 114.549 30.458 114.657 30.518L114.369 32.588C114.249 32.54 114.099 32.504 113.919 32.48C113.751 32.456 113.529 32.444 113.253 32.444C112.893 32.444 112.545 32.534 112.209 32.714C111.873 32.882 111.597 33.146 111.381 33.506C111.165 33.854 111.057 34.298 111.057 34.838V39.5H108.591ZM118.737 27.746V36.566C118.737 36.998 118.845 37.316 119.061 37.52C119.289 37.712 119.595 37.808 119.979 37.808C120.279 37.808 120.543 37.766 120.771 37.682C120.999 37.586 121.203 37.46 121.383 37.304L121.779 38.942C121.491 39.17 121.131 39.35 120.699 39.482C120.267 39.614 119.811 39.68 119.331 39.68C118.731 39.68 118.197 39.59 117.729 39.41C117.273 39.23 116.913 38.942 116.649 38.546C116.397 38.15 116.271 37.622 116.271 36.962V28.43L118.737 27.746ZM121.617 30.5V32.336H114.615V30.5H121.617ZM130.32 39.5L126.864 27.62H129.51L131.85 37.43L134.226 27.62H136.602L139.014 37.43L141.336 27.62H143.874L140.418 39.5H137.628L135.972 33.02L135.414 30.212H135.378L134.82 33.02L133.182 39.5H130.32ZM149.646 33.758C149.646 33.242 149.496 32.84 149.196 32.552C148.908 32.264 148.524 32.12 148.044 32.12C147.6 32.12 147.21 32.234 146.874 32.462C146.538 32.69 146.292 33.068 146.136 33.596L144.03 32.948C144.234 32.156 144.678 31.52 145.362 31.04C146.058 30.56 146.988 30.32 148.152 30.32C148.944 30.32 149.634 30.446 150.222 30.698C150.81 30.938 151.266 31.304 151.59 31.796C151.926 32.288 152.094 32.906 152.094 33.65V37.304C152.094 37.76 152.31 37.988 152.742 37.988C152.946 37.988 153.138 37.958 153.318 37.898L153.174 39.428C152.862 39.584 152.472 39.662 152.004 39.662C151.584 39.662 151.206 39.59 150.87 39.446C150.534 39.302 150.27 39.086 150.078 38.798C149.886 38.498 149.79 38.126 149.79 37.682V37.61L150.222 37.538C150.15 37.994 149.952 38.384 149.628 38.708C149.304 39.02 148.908 39.26 148.44 39.428C147.984 39.596 147.51 39.68 147.018 39.68C146.406 39.68 145.878 39.59 145.434 39.41C144.99 39.218 144.648 38.942 144.408 38.582C144.168 38.222 144.048 37.778 144.048 37.25C144.048 36.578 144.264 36.032 144.696 35.612C145.128 35.18 145.746 34.886 146.55 34.73L149.934 34.046L149.916 35.576L147.756 36.008C147.348 36.092 147.036 36.206 146.82 36.35C146.616 36.482 146.514 36.704 146.514 37.016C146.514 37.316 146.622 37.544 146.838 37.7C147.066 37.856 147.336 37.934 147.648 37.934C147.9 37.934 148.146 37.904 148.386 37.844C148.626 37.784 148.842 37.688 149.034 37.556C149.226 37.424 149.376 37.244 149.484 37.016C149.592 36.788 149.646 36.512 149.646 36.188V33.758ZM157.386 27.746V36.566C157.386 36.998 157.494 37.316 157.71 37.52C157.938 37.712 158.244 37.808 158.628 37.808C158.928 37.808 159.192 37.766 159.42 37.682C159.648 37.586 159.852 37.46 160.032 37.304L160.428 38.942C160.14 39.17 159.78 39.35 159.348 39.482C158.916 39.614 158.46 39.68 157.98 39.68C157.38 39.68 156.846 39.59 156.378 39.41C155.922 39.23 155.562 38.942 155.298 38.546C155.046 38.15 154.92 37.622 154.92 36.962V28.43L157.386 27.746ZM160.266 30.5V32.336H153.264V30.5H160.266ZM165.721 30.32C166.525 30.32 167.203 30.44 167.755 30.68C168.319 30.908 168.769 31.226 169.105 31.634C169.453 32.03 169.699 32.474 169.843 32.966L167.539 33.794C167.419 33.254 167.215 32.846 166.927 32.57C166.639 32.294 166.249 32.156 165.757 32.156C165.301 32.156 164.911 32.264 164.587 32.48C164.263 32.684 164.017 33.002 163.849 33.434C163.681 33.854 163.597 34.382 163.597 35.018C163.597 35.654 163.681 36.182 163.849 36.602C164.029 37.022 164.281 37.334 164.605 37.538C164.941 37.742 165.331 37.844 165.775 37.844C166.135 37.844 166.441 37.784 166.693 37.664C166.945 37.532 167.149 37.346 167.305 37.106C167.473 36.866 167.587 36.578 167.647 36.242L169.879 36.962C169.747 37.502 169.501 37.976 169.141 38.384C168.781 38.792 168.319 39.11 167.755 39.338C167.191 39.566 166.537 39.68 165.793 39.68C164.869 39.68 164.053 39.494 163.345 39.122C162.637 38.75 162.091 38.216 161.707 37.52C161.323 36.824 161.131 35.984 161.131 35C161.131 34.016 161.323 33.176 161.707 32.48C162.091 31.784 162.631 31.25 163.327 30.878C164.023 30.506 164.821 30.32 165.721 30.32ZM171.495 39.5V26.558H173.961V32.03C174.249 31.454 174.645 31.028 175.149 30.752C175.653 30.464 176.223 30.32 176.859 30.32C177.483 30.32 178.035 30.44 178.515 30.68C179.007 30.92 179.391 31.286 179.667 31.778C179.955 32.258 180.099 32.864 180.099 33.596V39.5H177.633V34.316C177.633 33.536 177.483 33.002 177.183 32.714C176.883 32.414 176.499 32.264 176.031 32.264C175.683 32.264 175.347 32.348 175.023 32.516C174.711 32.672 174.453 32.936 174.249 33.308C174.057 33.668 173.961 34.148 173.961 34.748V39.5H171.495ZM183.582 29.204C183.066 29.204 182.682 29.096 182.43 28.88C182.178 28.652 182.052 28.322 182.052 27.89C182.052 27.446 182.178 27.116 182.43 26.9C182.682 26.672 183.066 26.558 183.582 26.558C184.098 26.558 184.482 26.672 184.734 26.9C184.986 27.116 185.112 27.446 185.112 27.89C185.112 28.322 184.986 28.652 184.734 28.88C184.482 29.096 184.098 29.204 183.582 29.204ZM184.806 30.5V39.5H182.34V30.5H184.806ZM187.12 39.5V30.5H189.334L189.478 33.2L189.172 32.912C189.316 32.324 189.544 31.838 189.856 31.454C190.168 31.07 190.546 30.788 190.99 30.608C191.446 30.416 191.944 30.32 192.484 30.32C193.108 30.32 193.66 30.44 194.14 30.68C194.632 30.92 195.016 31.286 195.292 31.778C195.58 32.258 195.724 32.864 195.724 33.596V39.5H193.258V34.298C193.258 33.53 193.108 33.002 192.808 32.714C192.508 32.414 192.118 32.264 191.638 32.264C191.302 32.264 190.972 32.348 190.648 32.516C190.336 32.672 190.078 32.93 189.874 33.29C189.682 33.65 189.586 34.13 189.586 34.73V39.5H187.12ZM206.262 28.358L206.55 30.122C206.502 30.122 206.448 30.122 206.388 30.122C206.34 30.11 206.286 30.104 206.226 30.104C205.674 30.104 205.26 30.23 204.984 30.482C204.708 30.722 204.57 31.058 204.57 31.49L203.562 31.076C203.562 30.596 203.658 30.152 203.85 29.744C204.042 29.324 204.324 28.988 204.696 28.736C205.08 28.484 205.536 28.358 206.064 28.358C206.088 28.358 206.118 28.358 206.154 28.358C206.19 28.358 206.226 28.358 206.262 28.358ZM203.31 37.808C204.282 37.808 205.032 38.018 205.56 38.438C206.088 38.858 206.352 39.446 206.352 40.202C206.352 40.886 206.154 41.462 205.758 41.93C205.362 42.41 204.804 42.77 204.084 43.01C203.376 43.25 202.554 43.37 201.618 43.37C200.07 43.37 198.936 43.154 198.216 42.722C197.508 42.29 197.154 41.726 197.154 41.03C197.154 40.538 197.34 40.124 197.712 39.788C198.096 39.452 198.726 39.266 199.602 39.23L199.512 39.518C198.888 39.41 198.408 39.206 198.072 38.906C197.748 38.594 197.586 38.168 197.586 37.628C197.586 37.076 197.796 36.626 198.216 36.278C198.648 35.918 199.23 35.708 199.962 35.648L201.042 36.152H200.79C200.274 36.188 199.908 36.296 199.692 36.476C199.488 36.644 199.386 36.836 199.386 37.052C199.386 37.304 199.482 37.496 199.674 37.628C199.878 37.748 200.166 37.808 200.538 37.808H203.31ZM201.636 41.678C202.26 41.678 202.77 41.624 203.166 41.516C203.574 41.408 203.874 41.27 204.066 41.102C204.27 40.934 204.372 40.748 204.372 40.544C204.372 40.316 204.282 40.13 204.102 39.986C203.922 39.854 203.598 39.788 203.13 39.788H200.088C199.8 39.788 199.56 39.86 199.368 40.004C199.188 40.148 199.098 40.346 199.098 40.598C199.098 40.934 199.32 41.198 199.764 41.39C200.22 41.582 200.844 41.678 201.636 41.678ZM201.654 30.32C202.494 30.32 203.22 30.446 203.832 30.698C204.456 30.938 204.93 31.286 205.254 31.742C205.59 32.198 205.758 32.744 205.758 33.38C205.758 34.004 205.59 34.544 205.254 35C204.93 35.456 204.456 35.81 203.832 36.062C203.22 36.302 202.494 36.422 201.654 36.422C200.322 36.422 199.302 36.152 198.594 35.612C197.898 35.06 197.55 34.316 197.55 33.38C197.55 32.744 197.712 32.198 198.036 31.742C198.372 31.286 198.846 30.938 199.458 30.698C200.07 30.446 200.802 30.32 201.654 30.32ZM201.654 31.868C201.174 31.868 200.778 32 200.466 32.264C200.154 32.528 199.998 32.894 199.998 33.362C199.998 33.83 200.154 34.202 200.466 34.478C200.778 34.742 201.174 34.874 201.654 34.874C202.134 34.874 202.524 34.742 202.824 34.478C203.136 34.202 203.292 33.83 203.292 33.362C203.292 32.894 203.136 32.528 202.824 32.264C202.524 32 202.134 31.868 201.654 31.868Z" fill="white"/>
<circle cx="239" cy="33" r="12" fill="white"/>
<path d="M233 27L239 33V27H233Z" fill="#B31232"/>
<path d="M233 39L239 33V39H233Z" fill="#B31232"/>
<path d="M245 33L239 39V33H245Z" fill="#B31232"/>
<path d="M245 33L239 27V33H245Z" fill="#B31232"/>
<rect width="328" height="54" rx="12" fill="url(#paint0_linear_24266_198056)"/>
<path d="M91.7338 24.032V33.5H89.6098V24.032H88.4218V22.304H93.4798V24.032H91.7338ZM84.2278 22.124C84.9598 22.124 85.5538 22.25 86.0098 22.502C86.4778 22.742 86.8138 23.072 87.0178 23.492C87.2338 23.9 87.3418 24.356 87.3418 24.86C87.3418 25.76 86.9878 26.486 86.2798 27.038C85.5838 27.59 84.5098 27.92 83.0578 28.028L82.7338 26.39C83.4178 26.318 83.9398 26.222 84.2998 26.102C84.6718 25.97 84.9298 25.808 85.0738 25.616C85.2178 25.424 85.2898 25.196 85.2898 24.932C85.2898 24.596 85.1758 24.338 84.9478 24.158C84.7318 23.978 84.4198 23.888 84.0118 23.888C83.6398 23.888 83.2678 23.942 82.8958 24.05C82.5238 24.158 82.1518 24.32 81.7798 24.536L81.1858 22.88C81.6178 22.64 82.0858 22.454 82.5898 22.322C83.1058 22.19 83.6518 22.124 84.2278 22.124ZM87.6298 29.576C87.6298 30.5 87.3238 31.226 86.7118 31.754C86.1118 32.27 85.3138 32.528 84.3178 32.528C83.5498 32.528 82.8538 32.372 82.2298 32.06C81.6178 31.736 81.0478 31.202 80.5198 30.458C79.9918 29.714 79.4698 28.694 78.9538 27.398L80.6638 26.606C81.1798 27.998 81.7018 29.036 82.2298 29.72C82.7578 30.404 83.3758 30.746 84.0838 30.746C84.5518 30.746 84.9238 30.626 85.1998 30.386C85.4758 30.146 85.6138 29.798 85.6138 29.342C85.6138 28.898 85.4518 28.502 85.1278 28.154C84.8038 27.794 84.4018 27.476 83.9218 27.2L84.9298 26.804L85.9918 26.732C86.1718 26.864 86.3518 27.02 86.5318 27.2C86.7238 27.38 86.8798 27.566 86.9998 27.758L87.1798 28.082C87.3238 28.298 87.4318 28.532 87.5038 28.784C87.5878 29.036 87.6298 29.3 87.6298 29.576ZM87.8278 27.164C88.2718 27.164 88.7158 27.122 89.1598 27.038C89.6038 26.942 90.0478 26.786 90.4918 26.57L90.5638 28.37C90.1918 28.538 89.8138 28.658 89.4298 28.73C89.0458 28.802 88.6558 28.838 88.2598 28.838C87.8998 28.838 87.5338 28.808 87.1618 28.748C86.7898 28.676 86.4418 28.592 86.1178 28.496L85.8118 27.182L85.9738 26.93C86.2498 27.002 86.5438 27.062 86.8558 27.11C87.1798 27.146 87.5038 27.164 87.8278 27.164ZM96.4438 22.124C97.2238 22.124 97.8478 22.256 98.3158 22.52C98.7838 22.784 99.1198 23.168 99.3238 23.672C99.5398 24.164 99.6478 24.752 99.6478 25.436V27.632H102.852V24.032H100.89V22.304H106.704V24.032H104.976V33.5H102.852V29.378H99.6478V29.81C99.6478 30.266 99.5458 30.602 99.3418 30.818C99.1378 31.022 98.8678 31.124 98.5318 31.124C98.2558 31.124 97.9678 31.04 97.6678 30.872C97.3798 30.704 97.1098 30.494 96.8578 30.242C96.6178 29.978 96.4198 29.702 96.2638 29.414C96.1198 29.114 96.0478 28.832 96.0478 28.568C96.0478 28.4 96.0838 28.244 96.1558 28.1C96.2278 27.956 96.3598 27.842 96.5518 27.758C96.7438 27.674 97.0078 27.632 97.3438 27.632L97.5958 27.722V25.364C97.5958 24.776 97.5118 24.338 97.3438 24.05C97.1758 23.762 96.8878 23.618 96.4798 23.618C96.1918 23.618 95.9698 23.69 95.8138 23.834C95.6698 23.978 95.5978 24.164 95.5978 24.392C95.5978 24.668 95.6998 24.878 95.9038 25.022C96.1198 25.166 96.4438 25.262 96.8758 25.31L96.6778 26.768C95.8018 26.72 95.0878 26.492 94.5358 26.084C93.9958 25.676 93.7258 25.106 93.7258 24.374C93.7258 23.618 93.9778 23.054 94.4818 22.682C94.9978 22.31 95.6518 22.124 96.4438 22.124ZM102.353 22.43C102.161 22.046 102.017 21.662 101.921 21.278C101.825 20.894 101.777 20.528 101.777 20.18C101.777 19.34 102.047 18.662 102.587 18.146C103.127 17.63 103.883 17.372 104.855 17.372C105.803 17.372 106.577 17.582 107.177 18.002C107.789 18.41 108.281 18.992 108.653 19.748C109.037 20.504 109.343 21.398 109.571 22.43H107.627C107.387 21.326 107.069 20.498 106.673 19.946C106.289 19.382 105.803 19.1 105.215 19.1C104.759 19.1 104.423 19.232 104.207 19.496C103.991 19.748 103.883 20.096 103.883 20.54C103.883 20.852 103.937 21.17 104.045 21.494C104.141 21.806 104.267 22.118 104.423 22.43H102.353ZM109.733 24.032V33.5H107.627V24.032H106.151V22.304H111.461V24.032H109.733ZM121.317 24.032L121.551 23.654C121.683 23.894 121.785 24.17 121.857 24.482C121.941 24.794 121.983 25.16 121.983 25.58C121.983 26.504 121.755 27.266 121.299 27.866C120.843 28.454 120.171 28.94 119.283 29.324L119.337 29.108C119.721 29.66 120.177 30.128 120.705 30.512C121.233 30.896 121.833 31.19 122.505 31.394C123.177 31.598 123.915 31.7 124.719 31.7C125.427 31.7 126.087 31.628 126.699 31.484C127.323 31.328 127.911 31.094 128.463 30.782L128.769 32.258C128.241 32.654 127.641 32.948 126.969 33.14C126.297 33.332 125.511 33.428 124.611 33.428C123.615 33.428 122.703 33.296 121.875 33.032C121.059 32.768 120.333 32.414 119.697 31.97C119.061 31.514 118.521 31.01 118.077 30.458C117.657 29.93 117.333 29.42 117.105 28.928C116.877 28.436 116.763 27.98 116.763 27.56C116.763 27.176 116.871 26.882 117.087 26.678C117.315 26.474 117.609 26.372 117.969 26.372C118.317 26.372 118.635 26.474 118.923 26.678C119.223 26.87 119.547 27.17 119.895 27.578H118.815C119.091 27.434 119.301 27.248 119.445 27.02C119.601 26.792 119.709 26.54 119.769 26.264C119.829 25.988 119.859 25.712 119.859 25.436C119.859 25.088 119.823 24.752 119.751 24.428C119.691 24.092 119.583 23.81 119.427 23.582L120.327 24.032H116.115V22.304H124.809V24.032H121.317ZM130.011 24.032V33.5H127.905V24.032H124.179V22.304H131.739V24.032H130.011ZM128.481 29.738C128.169 29.954 127.821 30.128 127.437 30.26C127.053 30.392 126.585 30.458 126.033 30.458C125.373 30.458 124.797 30.35 124.305 30.134C123.813 29.906 123.429 29.588 123.153 29.18C122.889 28.76 122.757 28.274 122.757 27.722C122.757 26.87 123.033 26.216 123.585 25.76C124.149 25.292 124.941 25.058 125.961 25.058C126.213 25.058 126.459 25.076 126.699 25.112C126.939 25.136 127.161 25.172 127.365 25.22L127.239 26.75C127.071 26.702 126.903 26.672 126.735 26.66C126.579 26.636 126.411 26.624 126.231 26.624C125.739 26.624 125.367 26.72 125.115 26.912C124.863 27.104 124.737 27.392 124.737 27.776C124.737 28.16 124.869 28.448 125.133 28.64C125.409 28.82 125.757 28.91 126.177 28.91C126.657 28.91 127.077 28.808 127.437 28.604C127.797 28.4 128.073 28.13 128.265 27.794L128.481 29.738ZM127.651 22.43C127.435 21.734 127.243 21.17 127.075 20.738C126.895 20.306 126.721 19.976 126.553 19.748C126.385 19.52 126.205 19.364 126.013 19.28C125.809 19.184 125.569 19.136 125.293 19.136C125.065 19.136 124.831 19.166 124.591 19.226C124.339 19.274 124.105 19.34 123.889 19.424L123.367 17.714C123.655 17.606 123.973 17.522 124.321 17.462C124.657 17.402 124.993 17.372 125.329 17.372C125.869 17.372 126.337 17.45 126.733 17.606C127.117 17.75 127.465 18.014 127.777 18.398C128.077 18.77 128.365 19.286 128.641 19.946C128.905 20.594 129.193 21.422 129.505 22.43H127.651ZM130.879 24.032V22.304H144.019V24.032H142.273V33.5H140.167V26.876L141.193 27.74C141.001 27.656 140.809 27.602 140.617 27.578C140.437 27.554 140.257 27.542 140.077 27.542C139.717 27.542 139.399 27.632 139.123 27.812C138.847 27.98 138.613 28.262 138.421 28.658C138.241 29.054 138.103 29.576 138.007 30.224L135.973 29.72C136.129 28.436 136.555 27.47 137.251 26.822C137.947 26.174 138.859 25.85 139.987 25.85C140.227 25.85 140.479 25.868 140.743 25.904C141.019 25.94 141.235 25.982 141.391 26.03L141.445 26.426L140.167 26.084V24.032H130.879ZM136.909 28.424C136.705 28.172 136.465 27.968 136.189 27.812C135.925 27.644 135.601 27.56 135.217 27.56C134.737 27.56 134.359 27.704 134.083 27.992C133.819 28.268 133.687 28.64 133.687 29.108C133.687 29.696 133.915 30.236 134.371 30.728C134.839 31.208 135.607 31.73 136.675 32.294L135.523 33.86C134.299 33.224 133.333 32.51 132.625 31.718C131.929 30.914 131.581 29.996 131.581 28.964C131.581 27.908 131.893 27.122 132.517 26.606C133.141 26.078 133.933 25.814 134.893 25.814C135.517 25.814 136.063 25.922 136.531 26.138C136.999 26.354 137.407 26.654 137.755 27.038L136.909 28.424ZM141.25 18.758C141.25 18.422 141.364 18.14 141.592 17.912C141.82 17.684 142.096 17.57 142.42 17.57C142.744 17.57 143.02 17.684 143.248 17.912C143.464 18.14 143.572 18.422 143.572 18.758C143.572 19.082 143.464 19.364 143.248 19.604C143.02 19.832 142.744 19.946 142.42 19.946C142.096 19.946 141.82 19.832 141.592 19.604C141.364 19.364 141.25 19.082 141.25 18.758ZM139.918 22.43C139.702 21.734 139.51 21.17 139.342 20.738C139.162 20.306 138.988 19.976 138.82 19.748C138.652 19.52 138.472 19.364 138.28 19.28C138.076 19.184 137.836 19.136 137.56 19.136C137.332 19.136 137.098 19.166 136.858 19.226C136.606 19.274 136.372 19.34 136.156 19.424L135.634 17.714C135.922 17.606 136.24 17.522 136.588 17.462C136.924 17.402 137.26 17.372 137.596 17.372C138.136 17.372 138.604 17.45 139 17.606C139.384 17.75 139.732 18.014 140.044 18.398C140.344 18.77 140.632 19.286 140.908 19.946C141.172 20.594 141.46 21.422 141.772 22.43H139.918ZM161.614 24.032V33.5H159.49V24.032H158.302V22.304H163.36V24.032H161.614ZM154.108 22.124C154.84 22.124 155.434 22.25 155.89 22.502C156.358 22.742 156.694 23.072 156.898 23.492C157.114 23.9 157.222 24.356 157.222 24.86C157.222 25.76 156.868 26.486 156.16 27.038C155.464 27.59 154.39 27.92 152.938 28.028L152.614 26.39C153.298 26.318 153.82 26.222 154.18 26.102C154.552 25.97 154.81 25.808 154.954 25.616C155.098 25.424 155.17 25.196 155.17 24.932C155.17 24.596 155.056 24.338 154.828 24.158C154.612 23.978 154.3 23.888 153.892 23.888C153.52 23.888 153.148 23.942 152.776 24.05C152.404 24.158 152.032 24.32 151.66 24.536L151.066 22.88C151.498 22.64 151.966 22.454 152.47 22.322C152.986 22.19 153.532 22.124 154.108 22.124ZM157.51 29.576C157.51 30.5 157.204 31.226 156.592 31.754C155.992 32.27 155.194 32.528 154.198 32.528C153.43 32.528 152.734 32.372 152.11 32.06C151.498 31.736 150.928 31.202 150.4 30.458C149.872 29.714 149.35 28.694 148.834 27.398L150.544 26.606C151.06 27.998 151.582 29.036 152.11 29.72C152.638 30.404 153.256 30.746 153.964 30.746C154.432 30.746 154.804 30.626 155.08 30.386C155.356 30.146 155.494 29.798 155.494 29.342C155.494 28.898 155.332 28.502 155.008 28.154C154.684 27.794 154.282 27.476 153.802 27.2L154.81 26.804L155.872 26.732C156.052 26.864 156.232 27.02 156.412 27.2C156.604 27.38 156.76 27.566 156.88 27.758L157.06 28.082C157.204 28.298 157.312 28.532 157.384 28.784C157.468 29.036 157.51 29.3 157.51 29.576ZM157.708 27.164C158.152 27.164 158.596 27.122 159.04 27.038C159.484 26.942 159.928 26.786 160.372 26.57L160.444 28.37C160.072 28.538 159.694 28.658 159.31 28.73C158.926 28.802 158.536 28.838 158.14 28.838C157.78 28.838 157.414 28.808 157.042 28.748C156.67 28.676 156.322 28.592 155.998 28.496L155.692 27.182L155.854 26.93C156.13 27.002 156.424 27.062 156.736 27.11C157.06 27.146 157.384 27.164 157.708 27.164ZM166.672 24.032V33.5H164.566V24.032H163.09V22.304H168.4V24.032H166.672ZM164.71 22.43C164.338 22.058 164.026 21.782 163.774 21.602C163.522 21.41 163.282 21.284 163.054 21.224C162.826 21.164 162.574 21.134 162.298 21.134C162.022 21.134 161.74 21.17 161.452 21.242C161.176 21.302 160.912 21.386 160.66 21.494L160.12 20.054C160.408 19.922 160.708 19.82 161.02 19.748C161.332 19.676 161.644 19.64 161.956 19.64C162.304 19.64 162.61 19.682 162.874 19.766C163.15 19.85 163.426 20 163.702 20.216C163.978 20.42 164.302 20.708 164.674 21.08L164.746 21.044C164.422 20.444 164.134 19.988 163.882 19.676C163.63 19.352 163.372 19.136 163.108 19.028C162.856 18.908 162.562 18.848 162.226 18.848C162.01 18.848 161.794 18.872 161.578 18.92C161.362 18.956 161.14 19.016 160.912 19.1L160.426 17.642C160.666 17.558 160.936 17.492 161.236 17.444C161.548 17.396 161.854 17.372 162.154 17.372C162.706 17.372 163.18 17.45 163.576 17.606C163.972 17.762 164.32 18.032 164.62 18.416C164.92 18.788 165.214 19.304 165.502 19.964C165.79 20.612 166.102 21.434 166.438 22.43H164.71ZM173.619 24.032L174.033 23.618C174.153 23.906 174.249 24.206 174.321 24.518C174.393 24.83 174.429 25.196 174.429 25.616C174.429 26.24 174.297 26.792 174.033 27.272C173.769 27.74 173.397 28.148 172.917 28.496C172.437 28.832 171.873 29.12 171.225 29.36L171.207 29C171.567 29.372 171.945 29.756 172.341 30.152C172.749 30.536 173.175 30.92 173.619 31.304C174.075 31.688 174.537 32.072 175.005 32.456L173.529 33.824C172.569 32.996 171.735 32.222 171.027 31.502C170.331 30.782 169.761 30.104 169.317 29.468C169.029 29.072 168.819 28.718 168.687 28.406C168.555 28.094 168.489 27.794 168.489 27.506C168.489 27.17 168.597 26.9 168.813 26.696C169.029 26.48 169.323 26.372 169.695 26.372C170.079 26.372 170.439 26.492 170.775 26.732C171.111 26.972 171.459 27.308 171.819 27.74L170.667 27.47C171.243 27.242 171.663 26.954 171.927 26.606C172.191 26.258 172.323 25.832 172.323 25.328C172.323 24.98 172.281 24.65 172.197 24.338C172.113 24.014 171.993 23.768 171.837 23.6L172.719 24.032H167.841V22.304H175.833V24.032H173.619ZM185.356 29.81C185.02 29.81 184.678 29.84 184.33 29.9C183.994 29.96 183.664 30.044 183.34 30.152C183.004 29.948 182.674 29.708 182.35 29.432C182.026 29.156 181.762 28.844 181.558 28.496C181.366 28.136 181.27 27.752 181.27 27.344C181.27 26.672 181.498 26.162 181.954 25.814C182.41 25.454 183.106 25.274 184.042 25.274H186.076V24.032H180.46V22.304H189.892V24.032H188.182V26.822H184.456C184.072 26.822 183.79 26.888 183.61 27.02C183.43 27.14 183.34 27.314 183.34 27.542C183.34 27.722 183.394 27.89 183.502 28.046C183.61 28.19 183.742 28.328 183.898 28.46C184.21 28.376 184.522 28.316 184.834 28.28C185.146 28.232 185.488 28.208 185.86 28.208C186.568 28.208 187.15 28.316 187.606 28.532C188.062 28.736 188.398 29.03 188.614 29.414C188.842 29.798 188.956 30.236 188.956 30.728C188.956 31.64 188.596 32.342 187.876 32.834C187.156 33.314 186.13 33.536 184.798 33.5C184.726 33.5 184.66 33.506 184.6 33.518C184.54 33.542 184.468 33.56 184.384 33.572C184.312 33.584 184.21 33.596 184.078 33.608C183.166 33.608 182.446 33.464 181.918 33.176C181.402 32.888 181.144 32.492 181.144 31.988C181.144 31.664 181.246 31.412 181.45 31.232C181.666 31.04 181.954 30.944 182.314 30.944C182.686 30.944 183.04 31.082 183.376 31.358C183.724 31.622 184.078 32.06 184.438 32.672C184.846 33.116 185.284 33.554 185.752 33.986C186.22 34.43 186.718 34.868 187.246 35.3L185.644 36.524C185.116 35.948 184.618 35.366 184.15 34.778C183.694 34.19 183.268 33.602 182.872 33.014L182.548 31.808C182.896 31.856 183.25 31.892 183.61 31.916C183.97 31.928 184.264 31.934 184.492 31.934C184.984 31.934 185.404 31.898 185.752 31.826C186.1 31.742 186.364 31.616 186.544 31.448C186.736 31.268 186.832 31.028 186.832 30.728C186.832 30.428 186.718 30.2 186.49 30.044C186.274 29.888 185.896 29.81 185.356 29.81ZM189.335 22.304H200.261V24.032H198.533V33.5H196.409V28.55H193.529V29.162C193.529 29.618 193.427 29.96 193.223 30.188C193.031 30.404 192.755 30.512 192.395 30.512C192.131 30.512 191.849 30.434 191.549 30.278C191.261 30.11 190.997 29.894 190.757 29.63C190.517 29.354 190.319 29.066 190.163 28.766C190.007 28.454 189.929 28.16 189.929 27.884C189.929 27.56 190.019 27.302 190.199 27.11C190.391 26.906 190.733 26.804 191.225 26.804H196.409V24.032H189.335V22.304ZM203.287 24.032V33.5H201.181V24.032H199.705V22.304H205.015V24.032H203.287ZM214.368 24.032V33.5H212.244V29.378H208.698V29.81C208.698 30.266 208.596 30.602 208.392 30.818C208.188 31.022 207.918 31.124 207.582 31.124C207.318 31.124 207.036 31.04 206.736 30.872C206.448 30.704 206.178 30.494 205.926 30.242C205.674 29.978 205.47 29.702 205.314 29.414C205.158 29.114 205.08 28.832 205.08 28.568C205.08 28.316 205.17 28.1 205.35 27.92C205.53 27.728 205.866 27.632 206.358 27.632L206.574 27.65V24.032H204.468V22.304H216.096V24.032H214.368ZM212.244 24.032H208.698V27.632H212.244V24.032ZM233.109 24.032V33.5H230.985V27.362H229.275C228.963 27.362 228.693 27.356 228.465 27.344C228.237 27.332 228.063 27.308 227.943 27.272L227.187 26.66C227.835 27.044 228.351 27.488 228.735 27.992C229.119 28.484 229.311 29.054 229.311 29.702C229.311 30.254 229.179 30.722 228.915 31.106C228.663 31.49 228.321 31.778 227.889 31.97C227.469 32.162 226.989 32.258 226.449 32.258C225.921 32.258 225.417 32.162 224.937 31.97C224.457 31.778 223.995 31.466 223.551 31.034C223.119 30.59 222.705 30.002 222.309 29.27C221.913 28.526 221.523 27.608 221.139 26.516L222.921 25.868C223.257 26.888 223.593 27.74 223.929 28.424C224.277 29.108 224.637 29.624 225.009 29.972C225.381 30.32 225.765 30.494 226.161 30.494C226.473 30.494 226.731 30.41 226.935 30.242C227.139 30.074 227.241 29.792 227.241 29.396C227.241 28.94 227.085 28.52 226.773 28.136C226.461 27.74 226.053 27.38 225.549 27.056L226.125 25.67H230.985V24.032H220.725V22.304H234.837V24.032H233.109ZM230.461 22.43C230.269 22.046 230.125 21.662 230.029 21.278C229.933 20.894 229.885 20.528 229.885 20.18C229.885 19.34 230.155 18.662 230.695 18.146C231.235 17.63 231.991 17.372 232.963 17.372C233.911 17.372 234.685 17.582 235.285 18.002C235.897 18.41 236.389 18.992 236.761 19.748C237.145 20.504 237.451 21.398 237.679 22.43H235.735C235.495 21.326 235.177 20.498 234.781 19.946C234.397 19.382 233.911 19.1 233.323 19.1C232.867 19.1 232.531 19.232 232.315 19.496C232.099 19.748 231.991 20.096 231.991 20.54C231.991 20.852 232.045 21.17 232.153 21.494C232.249 21.806 232.375 22.118 232.531 22.43H230.461ZM237.841 24.032V33.5H235.735V24.032H234.259V22.304H239.569V24.032H237.841ZM248.364 24.032V33.5H246.258V28.01H243.882C243.234 28.01 242.73 28.13 242.37 28.37C242.022 28.61 241.848 28.994 241.848 29.522C241.848 30.026 242.016 30.518 242.352 30.998C242.688 31.466 243.18 32.006 243.828 32.618L242.298 33.86C241.482 33.056 240.846 32.3 240.39 31.592C239.946 30.872 239.724 30.098 239.724 29.27C239.724 28.25 240.06 27.5 240.732 27.02C241.416 26.528 242.364 26.282 243.576 26.282H246.258V24.032H239.022V22.304H250.11V24.032H248.364ZM247.336 18.758C247.336 18.422 247.45 18.14 247.678 17.912C247.906 17.684 248.182 17.57 248.506 17.57C248.83 17.57 249.106 17.684 249.334 17.912C249.55 18.14 249.658 18.422 249.658 18.758C249.658 19.082 249.55 19.364 249.334 19.604C249.106 19.832 248.83 19.946 248.506 19.946C248.182 19.946 247.906 19.832 247.678 19.604C247.45 19.364 247.336 19.082 247.336 18.758ZM246.004 22.43C245.788 21.734 245.596 21.17 245.428 20.738C245.248 20.306 245.074 19.976 244.906 19.748C244.738 19.52 244.558 19.364 244.366 19.28C244.162 19.184 243.922 19.136 243.646 19.136C243.418 19.136 243.184 19.166 242.944 19.226C242.692 19.274 242.458 19.34 242.242 19.424L241.72 17.714C242.008 17.606 242.326 17.522 242.674 17.462C243.01 17.402 243.346 17.372 243.682 17.372C244.222 17.372 244.69 17.45 245.086 17.606C245.47 17.75 245.818 18.014 246.13 18.398C246.43 18.77 246.718 19.286 246.994 19.946C247.258 20.594 247.546 21.422 247.858 22.43H246.004Z" fill="white"/>
<defs>
<linearGradient id="paint0_linear_24266_198056" x1="0" y1="0" x2="164.679" y2="223.197" gradientUnits="userSpaceOnUse">
<stop stop-color="#B31232"/>
<stop offset="1" stop-color="#FF6B2C"/>
</linearGradient>
</defs>
</svg>
