<svg width="128" height="33" viewBox="0 0 128 33" fill="none" xmlns="http://www.w3.org/2000/svg">
<rect x="0.2525" y="0.2525" width="127.495" height="32.495" rx="15.9075" fill="url(#paint0_linear_23916_5778)" fill-opacity="0.1"/>
<rect x="0.2525" y="0.2525" width="127.495" height="32.495" rx="15.9075" stroke="#E1E1E1" stroke-width="0.505"/>
<g clip-path="url(#clip0_23916_5778)">
<mask id="mask0_23916_5778" style="mask-type:luminance" maskUnits="userSpaceOnUse" x="24" y="8" width="17" height="17">
<path d="M24.7084 8.70898H40.2917V24.2923H24.7084V8.70898Z" fill="white"/>
</mask>
<g mask="url(#mask0_23916_5778)">
<path d="M32.5 23.6436C36.4447 23.6436 39.6422 20.4462 39.6422 16.5015C39.6422 12.5568 36.4455 9.35938 32.5 9.35938C28.5546 9.35938 25.3579 12.5561 25.3579 16.5015C25.3579 20.4469 28.5546 23.6436 32.5 23.6436Z" fill="#66E1FF"/>
<path d="M32.5 11.6318C34.1962 11.6331 35.8365 12.2383 37.1272 13.339C38.4178 14.4396 39.2745 15.9637 39.5437 17.6384C39.7009 16.6654 39.6549 15.6704 39.4086 14.716C39.1623 13.7616 38.721 12.8686 38.1125 12.0931C37.5041 11.3177 36.7416 10.6767 35.8732 10.2105C35.0048 9.74423 34.0493 9.46288 33.0668 9.38414C32.0843 9.3054 31.0961 9.43098 30.1645 9.75296C29.233 10.0749 28.3782 10.5864 27.654 11.255C26.9298 11.9236 26.3519 12.735 25.9567 13.6379C25.5616 14.5409 25.3577 15.5159 25.3579 16.5016C25.3603 16.8831 25.3931 17.2618 25.4564 17.6377C25.7258 15.9632 26.5825 14.4392 27.8731 13.3387C29.1637 12.2382 30.8039 11.6331 32.5 11.6318Z" fill="#C2F3FF"/>
<path d="M32.5 23.6436C36.4447 23.6436 39.6422 20.4462 39.6422 16.5015C39.6422 12.5568 36.4455 9.35938 32.5 9.35938C28.5546 9.35938 25.3579 12.5561 25.3579 16.5015C25.3579 20.4469 28.5546 23.6436 32.5 23.6436Z" stroke="#351947" stroke-linecap="round" stroke-linejoin="round"/>
<path d="M34.1235 19.7469H33.1489C32.9768 19.7468 32.8119 19.6783 32.6903 19.5567C32.5686 19.4351 32.5002 19.2701 32.5 19.0981V14.8772C32.4997 14.7912 32.4654 14.7089 32.4046 14.6482C32.3438 14.5874 32.2615 14.5531 32.1756 14.5527H31.2017" stroke="#351947" stroke-linecap="round" stroke-linejoin="round"/>
<path d="M32.3371 13.2552C32.3149 13.2566 32.2925 13.2535 32.2715 13.246C32.2505 13.2385 32.2313 13.2268 32.215 13.2115C32.1988 13.1963 32.1858 13.1779 32.1769 13.1574C32.168 13.137 32.1635 13.1149 32.1635 13.0926C32.1635 13.0703 32.168 13.0482 32.1769 13.0278C32.1858 13.0073 32.1988 12.9889 32.215 12.9737C32.2313 12.9584 32.2505 12.9467 32.2715 12.9392C32.2925 12.9317 32.3149 12.9286 32.3371 12.93M32.3371 13.2552C32.3594 13.2566 32.3817 13.2535 32.4027 13.246C32.4237 13.2385 32.4429 13.2268 32.4592 13.2115C32.4755 13.1963 32.4884 13.1779 32.4973 13.1574C32.5062 13.137 32.5108 13.1149 32.5108 13.0926C32.5108 13.0703 32.5062 13.0482 32.4973 13.0278C32.4884 13.0073 32.4755 12.9889 32.4592 12.9737C32.4429 12.9584 32.4237 12.9467 32.4027 12.9392C32.3817 12.9317 32.3594 12.9286 32.3371 12.93" stroke="#351947"/>
</g>
</g>
<path d="M58.215 13.454H53.665V16.352L53.469 16.128C53.665 15.9133 53.917 15.7407 54.225 15.61C54.533 15.47 54.8783 15.4 55.261 15.4C55.9423 15.4 56.479 15.6053 56.871 16.016C57.263 16.4267 57.459 16.982 57.459 17.682C57.459 18.158 57.3656 18.6247 57.179 19.082C57.0016 19.5393 56.7123 20.0013 56.311 20.468L55.121 19.754C55.4103 19.446 55.6436 19.124 55.821 18.788C55.9983 18.452 56.087 18.0833 56.087 17.682C56.087 17.3087 55.9983 17.0287 55.821 16.842C55.6436 16.646 55.3916 16.548 55.065 16.548C54.7756 16.548 54.5003 16.6413 54.239 16.828C53.987 17.0147 53.7816 17.262 53.623 17.57L53.665 17.094V21H52.293V18.144L52.587 18.55C52.4003 18.7273 52.1903 18.886 51.957 19.026C51.733 19.166 51.481 19.2733 51.201 19.348C50.921 19.4227 50.6223 19.46 50.305 19.46C49.801 19.46 49.3436 19.3667 48.933 19.18C48.5223 18.9933 48.1956 18.718 47.953 18.354C47.7196 17.99 47.603 17.542 47.603 17.01C47.603 16.2353 47.8596 15.6333 48.373 15.204C48.8863 14.7747 49.605 14.56 50.529 14.56C50.7716 14.56 51.0003 14.574 51.215 14.602C51.4296 14.6207 51.6303 14.6533 51.817 14.7L51.705 15.876C51.5463 15.8387 51.3736 15.8107 51.187 15.792C51.0096 15.764 50.8183 15.75 50.613 15.75C50.0903 15.75 49.6843 15.862 49.395 16.086C49.115 16.31 48.975 16.632 48.975 17.052C48.975 17.4627 49.1056 17.7707 49.367 17.976C49.6283 18.1813 49.955 18.284 50.347 18.284C50.795 18.284 51.1963 18.1673 51.551 17.934C51.915 17.7007 52.195 17.4253 52.391 17.108L52.293 17.948V13.454H47.001V12.292H58.215V13.454ZM52.3286 12.39C52.0393 12.0633 51.792 11.8207 51.5866 11.662C51.372 11.5033 51.176 11.396 50.9986 11.34C50.8213 11.284 50.616 11.256 50.3826 11.256C50.168 11.256 49.9533 11.284 49.7386 11.34C49.524 11.396 49.3186 11.466 49.1226 11.55L48.7446 10.5C48.9686 10.4067 49.1973 10.332 49.4306 10.276C49.664 10.22 49.8973 10.192 50.1306 10.192C50.42 10.192 50.672 10.2293 50.8866 10.304C51.092 10.3693 51.302 10.486 51.5166 10.654C51.7313 10.822 51.974 11.046 52.2446 11.326L52.3006 11.298C52.0393 10.8033 51.8153 10.43 51.6286 10.178C51.4326 9.91667 51.2366 9.73933 51.0406 9.646C50.8353 9.55267 50.602 9.506 50.3406 9.506C50.182 9.506 50.0233 9.52467 49.8646 9.562C49.6966 9.59 49.5193 9.64133 49.3326 9.716L48.9966 8.666C49.1833 8.59133 49.3886 8.54 49.6126 8.512C49.8366 8.47467 50.0653 8.456 50.2986 8.456C50.7093 8.456 51.0593 8.51667 51.3486 8.638C51.6286 8.75 51.8853 8.95067 52.1186 9.24C52.352 9.52933 52.5806 9.93067 52.8046 10.444C53.0193 10.948 53.2573 11.5967 53.5186 12.39H52.3286ZM61.9828 21.238C61.2642 20.5193 60.6388 19.838 60.1068 19.194C59.5842 18.55 59.2015 18.004 58.9588 17.556C58.8188 17.3133 58.7162 17.0893 58.6508 16.884C58.5855 16.6693 58.5528 16.4733 58.5528 16.296C58.5528 16.044 58.6275 15.8433 58.7768 15.694C58.9262 15.5447 59.1315 15.47 59.3928 15.47C59.6728 15.47 59.9342 15.5633 60.1768 15.75C60.4195 15.9367 60.6622 16.1793 60.9048 16.478L60.0928 16.38C60.4848 16.2213 60.7555 15.9833 60.9048 15.666C61.0542 15.3487 61.1288 15.0033 61.1288 14.63C61.1288 14.3127 61.0915 14.0327 61.0168 13.79C60.9515 13.538 60.8722 13.3373 60.7788 13.188L61.4648 13.454H58.0068V12.292H63.9848V13.454H61.7588L62.1788 13.174C62.2908 13.4073 62.3748 13.6547 62.4308 13.916C62.4868 14.168 62.5148 14.4573 62.5148 14.784C62.5148 15.1573 62.4542 15.498 62.3328 15.806C62.2208 16.114 62.0575 16.3847 61.8428 16.618L61.7588 16.744C61.5908 16.94 61.3855 17.1127 61.1428 17.262C60.9095 17.402 60.6202 17.5373 60.2748 17.668L60.2468 17.486C60.4802 17.794 60.7368 18.102 61.0168 18.41C61.3062 18.718 61.6188 19.0353 61.9548 19.362C62.2908 19.6793 62.6408 20.0107 63.0048 20.356L61.9828 21.238ZM63.7328 17.696C63.3408 17.696 62.9255 17.6493 62.4868 17.556C62.0575 17.4627 61.6328 17.304 61.2128 17.08L61.6328 16.1C62.0155 16.2493 62.3655 16.3567 62.6828 16.422C63.0002 16.4873 63.3455 16.52 63.7188 16.52C64.1015 16.52 64.4655 16.4873 64.8108 16.422C65.1562 16.3473 65.5108 16.2307 65.8748 16.072V17.304C65.5482 17.444 65.2075 17.5467 64.8528 17.612C64.4982 17.668 64.1248 17.696 63.7328 17.696ZM65.1468 21V13.454H63.6348V12.292H67.9328V13.454H66.5328V21H65.1468ZM65.1795 12.39C64.9929 11.802 64.8342 11.3307 64.7035 10.976C64.5635 10.612 64.4282 10.3367 64.2975 10.15C64.1575 9.954 64.0082 9.82333 63.8495 9.758C63.6909 9.68333 63.4949 9.646 63.2615 9.646C63.0749 9.646 62.8835 9.66933 62.6875 9.716C62.4822 9.75333 62.3002 9.80467 62.1415 9.87L61.7775 8.722C61.9922 8.638 62.2302 8.57267 62.4915 8.526C62.7435 8.47933 62.9909 8.456 63.2335 8.456C63.6535 8.456 64.0129 8.51667 64.3115 8.638C64.6009 8.75 64.8622 8.95533 65.0955 9.254C65.3195 9.54333 65.5342 9.94467 65.7395 10.458C65.9449 10.962 66.1689 11.606 66.4115 12.39H65.1795ZM75.2283 13.454L75.3963 13.23C75.4989 13.4167 75.5783 13.6313 75.6343 13.874C75.6903 14.1167 75.7183 14.392 75.7183 14.7C75.7183 15.456 75.5409 16.0673 75.1863 16.534C74.8409 17.0007 74.3323 17.388 73.6603 17.696L73.7163 17.57C74.0243 18.0273 74.3883 18.4193 74.8083 18.746C75.2283 19.0727 75.7043 19.3247 76.2363 19.502C76.7776 19.67 77.3609 19.754 77.9863 19.754C78.5556 19.754 79.0829 19.6933 79.5683 19.572C80.0536 19.4413 80.5109 19.2407 80.9403 18.97L81.1223 19.992C80.7209 20.3093 80.2636 20.5427 79.7503 20.692C79.2369 20.8413 78.6349 20.916 77.9443 20.916C77.1789 20.916 76.4836 20.8133 75.8583 20.608C75.2423 20.4027 74.6916 20.1273 74.2063 19.782C73.7303 19.4273 73.3196 19.04 72.9743 18.62C72.6289 18.1813 72.3629 17.7707 72.1763 17.388C71.9989 16.996 71.9103 16.632 71.9103 16.296C71.9103 16.0347 71.9849 15.834 72.1343 15.694C72.2929 15.5447 72.4983 15.47 72.7503 15.47C73.0116 15.47 73.2496 15.5493 73.4643 15.708C73.6789 15.8573 73.9123 16.086 74.1643 16.394L73.4503 16.38C73.6929 16.2867 73.8749 16.1513 73.9963 15.974C74.1269 15.7873 74.2156 15.5773 74.2623 15.344C74.3183 15.1107 74.3463 14.882 74.3463 14.658C74.3463 14.378 74.3183 14.112 74.2623 13.86C74.2156 13.5987 74.1316 13.3747 74.0103 13.188L74.5003 13.454H71.3643V12.292H78.2243V13.454H75.2283ZM81.8643 13.454V21H80.4783V13.454H77.7343V12.292H83.2503V13.454H81.8643ZM80.8563 18.088C80.6136 18.256 80.3383 18.3913 80.0303 18.494C79.7316 18.5967 79.3723 18.648 78.9523 18.648C78.4483 18.648 78.0049 18.564 77.6223 18.396C77.2489 18.2187 76.9549 17.9667 76.7403 17.64C76.5349 17.3133 76.4323 16.9307 76.4323 16.492C76.4323 15.8293 76.6516 15.316 77.0903 14.952C77.5289 14.588 78.1403 14.406 78.9243 14.406C79.1296 14.406 79.3256 14.42 79.5123 14.448C79.7083 14.4667 79.8856 14.4947 80.0443 14.532L79.9603 15.596C79.8109 15.5587 79.6616 15.5353 79.5123 15.526C79.3723 15.5073 79.2229 15.498 79.0643 15.498C78.6443 15.498 78.3223 15.5867 78.0983 15.764C77.8743 15.932 77.7623 16.1933 77.7623 16.548C77.7623 16.9027 77.8789 17.164 78.1123 17.332C78.3549 17.4907 78.6536 17.57 79.0083 17.57C79.4096 17.57 79.7643 17.4813 80.0723 17.304C80.3803 17.1267 80.6136 16.9073 80.7723 16.646L80.8563 18.088ZM80.5057 12.39C80.319 11.802 80.1604 11.3307 80.0297 10.976C79.8897 10.612 79.7544 10.3367 79.6237 10.15C79.4837 9.954 79.3344 9.82333 79.1757 9.758C79.017 9.68333 78.821 9.646 78.5877 9.646C78.401 9.646 78.2097 9.66933 78.0137 9.716C77.8084 9.75333 77.6264 9.80467 77.4677 9.87L77.1037 8.722C77.3184 8.638 77.5564 8.57267 77.8177 8.526C78.0697 8.47933 78.317 8.456 78.5597 8.456C78.9797 8.456 79.339 8.51667 79.6377 8.638C79.927 8.75 80.1884 8.95533 80.4217 9.254C80.6457 9.54333 80.8604 9.94467 81.0657 10.458C81.271 10.962 81.495 11.606 81.7377 12.39H80.5057ZM83.0537 13.454V12.292H92.9937V13.454H91.5937V21H90.2217V15.764L90.9217 16.324C90.7724 16.2587 90.6277 16.2167 90.4877 16.198C90.357 16.1793 90.2264 16.17 90.0957 16.17C89.797 16.17 89.531 16.24 89.2977 16.38C89.0644 16.52 88.8684 16.7533 88.7097 17.08C88.551 17.3973 88.425 17.8267 88.3317 18.368L86.9877 18.004C87.1184 17.024 87.445 16.282 87.9677 15.778C88.4997 15.274 89.1997 15.022 90.0677 15.022C90.2544 15.022 90.4364 15.036 90.6137 15.064C90.8004 15.092 90.9544 15.1247 91.0757 15.162L91.1037 15.47L90.2217 15.204V13.454H83.0537ZM87.7297 16.898C87.571 16.6833 87.375 16.5107 87.1417 16.38C86.9177 16.24 86.647 16.17 86.3297 16.17C85.919 16.17 85.597 16.2913 85.3637 16.534C85.1304 16.7767 85.0137 17.1033 85.0137 17.514C85.0137 18.0087 85.2004 18.466 85.5737 18.886C85.9564 19.2967 86.5677 19.7353 87.4077 20.202L86.6377 21.238C85.7044 20.7153 84.9717 20.146 84.4397 19.53C83.9077 18.9047 83.6417 18.1907 83.6417 17.388C83.6417 16.5947 83.875 15.9973 84.3417 15.596C84.8177 15.1947 85.4197 14.994 86.1477 14.994C86.6237 14.994 87.0344 15.0827 87.3797 15.26C87.7344 15.428 88.047 15.6567 88.3177 15.946L87.7297 16.898ZM91.1498 9.506C91.1498 9.26333 91.2338 9.058 91.4018 8.89C91.5698 8.722 91.7658 8.638 91.9898 8.638C92.2231 8.638 92.4191 8.722 92.5778 8.89C92.7364 9.058 92.8158 9.26333 92.8158 9.506C92.8158 9.74867 92.7364 9.954 92.5778 10.122C92.4191 10.29 92.2231 10.374 91.9898 10.374C91.7658 10.374 91.5698 10.29 91.4018 10.122C91.2338 9.954 91.1498 9.74867 91.1498 9.506ZM90.2538 12.39C90.0671 11.802 89.9084 11.3307 89.7778 10.976C89.6378 10.612 89.5024 10.3367 89.3718 10.15C89.2318 9.954 89.0824 9.82333 88.9238 9.758C88.7651 9.68333 88.5691 9.646 88.3358 9.646C88.1491 9.646 87.9578 9.66933 87.7618 9.716C87.5564 9.75333 87.3744 9.80467 87.2158 9.87L86.8518 8.722C87.0664 8.638 87.3044 8.57267 87.5658 8.526C87.8178 8.47933 88.0651 8.456 88.3078 8.456C88.7278 8.456 89.0871 8.51667 89.3858 8.638C89.6751 8.75 89.9364 8.95533 90.1698 9.254C90.3938 9.54333 90.6084 9.94467 90.8138 10.458C91.0191 10.962 91.2431 11.606 91.4858 12.39H90.2538ZM99.7565 18.172L98.9305 16.842L99.8685 16.24C100.307 15.96 100.662 15.708 100.932 15.484C101.203 15.2507 101.399 15.0173 101.52 14.784C101.642 14.5507 101.702 14.2893 101.702 14C101.702 13.5613 101.553 13.2113 101.254 12.95C100.965 12.6793 100.61 12.544 100.19 12.544C99.8638 12.544 99.5278 12.6187 99.1825 12.768C98.8465 12.908 98.5058 13.1553 98.1605 13.51L97.8805 13.776L96.8865 12.656L97.0965 12.432C97.4885 12.012 97.9411 11.662 98.4545 11.382C98.9771 11.102 99.5838 10.962 100.274 10.962C100.872 10.962 101.404 11.0973 101.87 11.368C102.346 11.6293 102.715 11.9887 102.976 12.446C103.238 12.9033 103.368 13.4167 103.368 13.986C103.368 14.378 103.298 14.7607 103.158 15.134C103.028 15.5073 102.785 15.8853 102.43 16.268C102.076 16.6413 101.576 17.0287 100.932 17.43L99.7565 18.172ZM100.12 21.112C99.7938 21.112 99.5185 21 99.2945 20.776C99.0705 20.552 98.9585 20.2767 98.9585 19.95C98.9585 19.6327 99.0705 19.362 99.2945 19.138C99.5185 18.9047 99.7938 18.788 100.12 18.788C100.438 18.788 100.708 18.9047 100.932 19.138C101.166 19.362 101.282 19.6327 101.282 19.95C101.282 20.2767 101.166 20.552 100.932 20.776C100.708 21 100.438 21.112 100.12 21.112Z" fill="white"/>
<defs>
<linearGradient id="paint0_linear_23916_5778" x1="64" y1="0" x2="64" y2="33" gradientUnits="userSpaceOnUse">
<stop stop-color="white"/>
<stop offset="1" stop-color="#999999"/>
</linearGradient>
<clipPath id="clip0_23916_5778">
<rect width="17" height="17" fill="white" transform="translate(24 8)"/>
</clipPath>
</defs>
</svg>
