<svg width="158" height="18" viewBox="0 0 158 18" fill="none" xmlns="http://www.w3.org/2000/svg">
<path d="M3.91304e-05 15.5996V0.671624C3.91304e-05 0.335624 0.808039 0.167624 2.42404 0.167624C4.05604 0.167624 4.87204 0.335624 4.87204 0.671624V12.4316H8.56804C8.85604 12.4316 9.05604 12.8076 9.16804 13.5596C9.21604 13.9276 9.24004 14.3036 9.24004 14.6876C9.24004 15.0716 9.21604 15.4636 9.16804 15.8636C9.04004 16.6316 8.83204 17.0156 8.54404 17.0156H1.15204C0.800039 17.0156 0.520039 16.8716 0.312039 16.5836C0.104039 16.2956 3.91304e-05 15.9676 3.91304e-05 15.5996ZM12.2537 12.8876V4.34363H10.5497C10.2777 4.34363 10.0857 3.99962 9.97373 3.31162C9.92573 2.97562 9.90173 2.63162 9.90173 2.27962C9.90173 1.92762 9.92573 1.58362 9.97373 1.24762C10.0857 0.559624 10.2777 0.215624 10.5497 0.215624H18.6137C18.8857 0.215624 19.0697 0.559624 19.1657 1.24762C19.2297 1.58362 19.2617 1.92762 19.2617 2.27962C19.2617 2.63162 19.2297 2.97562 19.1657 3.31162C19.0697 3.99962 18.8857 4.34363 18.6137 4.34363H17.0057V12.8876H18.6857C18.9577 12.8876 19.1497 13.2316 19.2617 13.9196C19.3257 14.2556 19.3577 14.5996 19.3577 14.9516C19.3577 15.3036 19.3257 15.6476 19.2617 15.9836C19.1497 16.6716 18.9577 17.0156 18.6857 17.0156H10.5977C10.3257 17.0156 10.1417 16.6716 10.0457 15.9836C9.98173 15.6476 9.94973 15.3036 9.94973 14.9516C9.94973 14.5996 9.98173 14.2556 10.0457 13.9196C10.1417 13.2316 10.3257 12.8876 10.5977 12.8876H12.2537ZM20.0228 0.527624C20.0228 0.447624 20.3668 0.375624 21.0548 0.311624C21.7588 0.231624 22.3348 0.191624 22.7828 0.191624C24.5588 0.191624 25.4868 0.423624 25.5668 0.887624L27.6308 11.4476L29.5748 0.887624C29.6708 0.423624 30.6628 0.191624 32.5508 0.191624C33.0148 0.191624 33.5988 0.223624 34.3028 0.287624C35.0068 0.351624 35.3588 0.423625 35.3588 0.503624L31.1108 16.3916C31.0468 16.6476 30.5748 16.8156 29.6948 16.8956C28.3348 17.0396 27.0948 17.0716 25.9748 16.9916C24.8708 16.8956 24.2868 16.7356 24.2228 16.5116L20.0228 0.527624ZM44.626 6.88762C44.93 6.88762 45.082 7.44762 45.082 8.56762C45.082 8.90362 45.042 9.30362 44.962 9.76762C44.898 10.2156 44.77 10.4396 44.578 10.4396H41.53V12.8396H45.946C46.218 12.8396 46.402 13.1916 46.498 13.8956C46.546 14.1996 46.57 14.5276 46.57 14.8796C46.57 15.2156 46.522 15.6556 46.426 16.1996C46.33 16.7436 46.17 17.0156 45.946 17.0156H37.738C37.13 17.0156 36.826 16.7676 36.826 16.2716V0.839624C36.826 0.423624 37.01 0.215624 37.378 0.215624H45.97C46.306 0.215624 46.474 0.927624 46.474 2.35162C46.474 3.75962 46.306 4.46362 45.97 4.46362H41.53V6.88762H44.626ZM60.4094 16.6316C60.4094 16.9516 59.6174 17.1116 58.0334 17.1116C56.4494 17.1116 55.6574 16.9516 55.6574 16.6316V4.58362H52.7774C52.5054 4.58362 52.3134 4.21562 52.2014 3.47962C52.1534 3.12762 52.1294 2.76762 52.1294 2.39962C52.1294 2.03162 52.1534 1.67162 52.2014 1.31962C52.3134 0.583624 52.5054 0.215624 52.7774 0.215624H63.2174C63.4894 0.215624 63.6814 0.583624 63.7934 1.31962C63.8414 1.67162 63.8654 2.03162 63.8654 2.39962C63.8654 2.76762 63.8414 3.12762 63.7934 3.47962C63.6814 4.21562 63.4894 4.58362 63.2174 4.58362H60.4094V16.6316ZM75.9029 17.0636C74.5109 17.0636 73.7589 16.8396 73.6469 16.3916L72.8549 13.2956H69.0389L68.3429 16.2716C68.2469 16.7676 67.4789 17.0156 66.0389 17.0156C65.2709 17.0156 64.7029 16.9756 64.3349 16.8956C63.9669 16.7996 63.7829 16.7276 63.7829 16.6796L68.0309 0.431624C68.0309 0.303624 69.1269 0.239624 71.3189 0.239624C73.5109 0.239624 74.6069 0.303624 74.6069 0.431624L78.7589 16.7036C78.7589 16.8156 78.3909 16.9036 77.6549 16.9676C76.9189 17.0316 76.3349 17.0636 75.9029 17.0636ZM69.6389 10.2476H72.1589L71.0789 5.27962H70.9349L69.6389 10.2476ZM97.1494 17.0396C95.7254 17.0396 95.0134 16.8796 95.0134 16.5596L94.5094 6.93562L91.5814 16.6796C91.5174 16.8716 90.9734 16.9676 89.9494 16.9676C88.9254 16.9676 88.3974 16.8796 88.3654 16.7036L85.3414 6.83962L85.0054 16.4156C84.9894 16.6556 84.6854 16.8236 84.0934 16.9196C83.5014 16.9996 83.0054 17.0396 82.6054 17.0396C82.2214 17.0396 81.8454 17.0156 81.4774 16.9676C80.7094 16.8556 80.3334 16.6556 80.3494 16.3676L80.9014 0.767624C80.9014 0.383624 81.8774 0.191624 83.8294 0.191624C84.4054 0.191624 85.1094 0.239624 85.9414 0.335624C86.7734 0.415624 87.2374 0.583624 87.3334 0.839624L90.0214 8.39962L92.3734 0.815625C92.5174 0.399624 93.6214 0.191624 95.6854 0.191624C96.2774 0.191624 96.9814 0.239624 97.7974 0.335624C98.6294 0.415624 99.0454 0.567624 99.0454 0.791624L99.7414 16.5356C99.7414 16.7116 99.4294 16.8396 98.8054 16.9196C98.1814 16.9996 97.6294 17.0396 97.1494 17.0396ZM113.907 4.55962C113.907 6.22362 113.187 7.48762 111.747 8.35162C112.531 8.63962 113.187 9.13562 113.715 9.83962C114.243 10.5436 114.507 11.5436 114.507 12.8396C114.507 14.1196 114.027 15.1356 113.067 15.8876C112.123 16.6396 110.763 17.0156 108.987 17.0156H103.323C103.051 17.0156 102.827 16.9276 102.651 16.7516C102.475 16.5596 102.387 16.3116 102.387 16.0076V0.647624C102.387 0.471624 102.411 0.359624 102.459 0.311624C102.523 0.247624 102.643 0.215624 102.819 0.215624H108.291C112.035 0.215624 113.907 1.66362 113.907 4.55962ZM106.995 4.10362V7.24762H107.115C108.651 7.24762 109.419 6.73562 109.419 5.71162C109.419 5.15162 109.267 4.74362 108.963 4.48762C108.675 4.23162 108.187 4.10362 107.499 4.10362H106.995ZM106.995 10.0796V13.1996H107.427C108.115 13.1996 108.619 13.0716 108.939 12.8156C109.259 12.5596 109.419 12.1516 109.419 11.5916C109.419 11.0316 109.267 10.6396 108.963 10.4156C108.675 10.1916 108.187 10.0796 107.499 10.0796H106.995ZM123.501 17.2556C121.261 17.2556 119.429 16.5196 118.005 15.0476C116.597 13.5756 115.893 11.4316 115.893 8.61562C115.893 5.78362 116.605 3.63962 118.029 2.18362C119.469 0.727624 121.317 -0.000376225 123.573 -0.000376225C125.845 -0.000376225 127.677 0.719624 129.069 2.15962C130.461 3.58362 131.157 5.75162 131.157 8.66362C131.157 11.5596 130.445 13.7196 129.021 15.1436C127.597 16.5516 125.757 17.2556 123.501 17.2556ZM123.525 4.60762C122.757 4.60762 122.109 4.95962 121.581 5.66362C121.069 6.36762 120.813 7.35962 120.813 8.63962C120.813 9.90362 121.061 10.8796 121.557 11.5676C122.053 12.2396 122.701 12.5756 123.501 12.5756C124.317 12.5756 124.973 12.2316 125.469 11.5436C125.981 10.8556 126.237 9.87162 126.237 8.59162C126.237 7.31162 125.973 6.32762 125.445 5.63962C124.933 4.95162 124.293 4.60762 123.525 4.60762ZM132.844 15.5996V0.671624C132.844 0.335624 133.652 0.167624 135.268 0.167624C136.9 0.167624 137.716 0.335624 137.716 0.671624V12.4316H141.412C141.7 12.4316 141.9 12.8076 142.012 13.5596C142.06 13.9276 142.084 14.3036 142.084 14.6876C142.084 15.0716 142.06 15.4636 142.012 15.8636C141.884 16.6316 141.676 17.0156 141.388 17.0156H133.996C133.644 17.0156 133.364 16.8716 133.156 16.5836C132.948 16.2956 132.844 15.9676 132.844 15.5996ZM154.793 17.0636C153.401 17.0636 152.649 16.8396 152.537 16.3916L151.745 13.2956H147.929L147.233 16.2716C147.137 16.7676 146.369 17.0156 144.929 17.0156C144.161 17.0156 143.593 16.9756 143.225 16.8956C142.857 16.7996 142.673 16.7276 142.673 16.6796L146.921 0.431624C146.921 0.303624 148.017 0.239624 150.209 0.239624C152.401 0.239624 153.497 0.303624 153.497 0.431624L157.649 16.7036C157.649 16.8156 157.281 16.9036 156.545 16.9676C155.809 17.0316 155.225 17.0636 154.793 17.0636ZM148.529 10.2476H151.049L149.969 5.27962H149.825L148.529 10.2476Z" fill="url(#paint0_linear_23951_36726)"/>
<defs>
<linearGradient id="paint0_linear_23951_36726" x1="-0.959961" y1="8.51562" x2="158.04" y2="8.51562" gradientUnits="userSpaceOnUse">
<stop stop-color="#ECC440"/>
<stop offset="0.32" stop-color="#FFFA8A"/>
<stop offset="0.68" stop-color="#DDAC17"/>
<stop offset="1" stop-color="#FFFF95"/>
</linearGradient>
</defs>
</svg>
