<svg width="412" height="917" viewBox="0 0 412 917" fill="none" xmlns="http://www.w3.org/2000/svg">
<rect width="412" height="917" fill="#351947"/>
<g opacity="0.06">
<path d="M207.821 -33H194.659L207.821 458.444L220.983 -33H207.821Z" fill="#20719E"/>
<path d="M118.458 -25.4225L105.495 -23.1374L203.796 458.555L131.419 -27.709L118.458 -25.4225Z" fill="#20719E"/>
<path d="M31.7676 -2.4423L19.3999 2.05878L199.853 459.365L44.1365 -6.94336L31.7676 -2.4423Z" fill="#20719E"/>
<path d="M-49.6148 35.2413L-61.0123 41.8224L196.107 460.845L-38.2161 28.6602L-49.6148 35.2413Z" fill="#20719E"/>
<path d="M-123.215 86.4854L-133.297 94.9467L192.68 462.954L-113.132 78.0254L-123.215 86.4854Z" fill="#20719E"/>
<path d="M-186.801 149.729L-195.261 159.812L189.666 465.624L-178.341 139.646L-186.801 149.729Z" fill="#20719E"/>
<path d="M-238.439 223.057L-245.019 234.456L187.164 468.779L-231.858 211.658L-238.439 223.057Z" fill="#20719E"/>
<path d="M-276.557 304.236L-281.059 316.604L185.25 472.32L-272.056 291.867L-276.557 304.236Z" fill="#20719E"/>
<path d="M-300.002 390.801L-302.287 403.762L183.977 476.139L-297.717 377.84L-300.002 390.801Z" fill="#20719E"/>
<path d="M-308.057 480.123V493.284L183.388 480.123L-308.057 466.961V480.123Z" fill="#20719E"/>
<path d="M-300.479 569.483L-298.194 582.445L183.498 484.145L-302.766 556.522L-300.479 569.483Z" fill="#20719E"/>
<path d="M-277.5 656.174L-272.999 668.541L184.307 488.09L-282.002 643.805L-277.5 656.174Z" fill="#20719E"/>
<path d="M-239.815 737.556L-233.234 748.954L185.788 491.834L-246.397 726.157L-239.815 737.556Z" fill="#20719E"/>
<path d="M-188.573 811.157L-180.112 821.241L187.895 495.264L-197.033 801.075L-188.573 811.157Z" fill="#20719E"/>
<path d="M-125.327 874.746L-115.245 883.205L190.567 498.277L-135.411 866.285L-125.327 874.746Z" fill="#20719E"/>
<path d="M-51.9997 926.383L-40.6009 932.964L193.723 500.779L-63.3984 919.802L-51.9997 926.383Z" fill="#20719E"/>
<path d="M29.1785 964.5L41.5462 969.003L197.262 502.693L16.8096 959.998L29.1785 964.5Z" fill="#20719E"/>
<path d="M115.743 987.944L128.706 990.229L201.082 503.965L102.781 985.659L115.743 987.944Z" fill="#20719E"/>
<path d="M205.065 996H218.226L205.065 504.555L191.902 996H205.065Z" fill="#20719E"/>
<path d="M294.428 988.422L307.389 986.136L209.089 504.443L281.465 990.707L294.428 988.422Z" fill="#20719E"/>
<path d="M381.117 965.442L393.485 960.94L213.033 503.635L368.748 969.944L381.117 965.442Z" fill="#20719E"/>
<path d="M462.499 927.758L473.896 921.177L216.777 502.154L451.1 934.339L462.499 927.758Z" fill="#20719E"/>
<path d="M536.101 876.516L546.184 868.056L220.206 500.049L526.019 884.976L536.101 876.516Z" fill="#20719E"/>
<path d="M599.688 813.271L608.148 803.188L223.219 497.377L591.228 823.353L599.688 813.271Z" fill="#20719E"/>
<path d="M651.324 739.943L657.905 728.545L225.721 494.221L644.743 751.342L651.324 739.943Z" fill="#20719E"/>
<path d="M689.442 658.766L693.944 646.398L227.635 490.682L684.94 671.134L689.442 658.766Z" fill="#20719E"/>
<path d="M712.886 572.2L715.171 559.239L228.908 486.861L710.601 585.162L712.886 572.2Z" fill="#20719E"/>
<path d="M720.943 482.88V469.719L229.498 482.88L720.943 496.041V482.88Z" fill="#20719E"/>
<path d="M713.365 393.514L711.08 380.553L229.386 478.853L715.65 406.476L713.365 393.514Z" fill="#20719E"/>
<path d="M690.385 306.827L685.885 294.459L228.578 474.911L694.887 319.196L690.385 306.827Z" fill="#20719E"/>
<path d="M652.701 225.442L646.12 214.045L227.098 471.165L659.283 236.841L652.701 225.442Z" fill="#20719E"/>
<path d="M601.458 151.842L592.998 141.76L224.989 467.736L609.918 161.924L601.458 151.842Z" fill="#20719E"/>
<path d="M538.212 88.2549L528.129 79.7949L222.317 464.723L548.294 96.7149L538.212 88.2549Z" fill="#20719E"/>
<path d="M464.886 36.6189L453.488 30.0391L219.165 462.222L476.284 43.2001L464.886 36.6189Z" fill="#20719E"/>
<path d="M383.707 -1.50089L371.341 -6.00195L215.625 460.306L396.076 3.00146L383.707 -1.50089Z" fill="#20719E"/>
<path d="M297.141 -24.9434L284.18 -27.2285L211.803 459.036L310.103 -22.6582L297.141 -24.9434Z" fill="#20719E"/>
</g>
</svg>