<svg width="123" height="33" viewBox="0 0 123 33" fill="none" xmlns="http://www.w3.org/2000/svg">
<rect x="0.2525" y="0.2525" width="122.495" height="32.495" rx="15.9075" fill="url(#paint0_linear_23956_39592)" fill-opacity="0.1"/>
<rect x="0.2525" y="0.2525" width="122.495" height="32.495" rx="15.9075" stroke="#E1E1E1" stroke-width="0.505"/>
<path d="M25.2896 12.39C25.1683 12.1753 25.0656 11.9467 24.9816 11.704C24.8976 11.4613 24.8556 11.1907 24.8556 10.892C24.8556 10.136 25.1449 9.54333 25.7236 9.114C26.3023 8.67533 27.0863 8.456 28.0756 8.456C29.0276 8.456 29.9143 8.62867 30.7356 8.974C31.5569 9.31933 32.2943 9.786 32.9476 10.374C33.6009 10.962 34.1563 11.634 34.6136 12.39H33.2276C32.7796 11.7927 32.2943 11.2887 31.7716 10.878C31.2583 10.4673 30.7169 10.1593 30.1476 9.954C29.5783 9.73933 28.9949 9.632 28.3976 9.632C27.7069 9.632 27.1703 9.76267 26.7876 10.024C26.4143 10.276 26.2276 10.64 26.2276 11.116C26.2276 11.396 26.2743 11.6433 26.3676 11.858C26.4703 12.0633 26.5823 12.2407 26.7036 12.39H25.2896ZM26.7176 13.454V21H25.3456V13.454H24.1416V12.292H28.1176V13.454H26.7176ZM27.9014 12.292H36.1194V13.454H34.7194V21H33.3474V16.982H30.9534V17.598C30.9534 17.906 30.8787 18.1347 30.7294 18.284C30.5894 18.4333 30.398 18.508 30.1554 18.508C29.9687 18.508 29.7727 18.452 29.5674 18.34C29.362 18.2187 29.1707 18.06 28.9934 17.864C28.816 17.668 28.6714 17.458 28.5594 17.234C28.4474 17.01 28.3914 16.7953 28.3914 16.59C28.3914 16.3567 28.4567 16.17 28.5874 16.03C28.7274 15.89 28.97 15.82 29.3154 15.82H33.3474V13.454H27.9014V12.292ZM44.4668 12.292V13.454H43.0808V21H41.6948V17.99L42.1008 18.396C41.8208 18.6387 41.4941 18.844 41.1208 19.012C40.7474 19.1707 40.2948 19.25 39.7628 19.25C38.8294 19.25 38.0828 18.9793 37.5228 18.438C36.9721 17.8967 36.5754 17.08 36.3328 15.988C37.0421 15.8573 37.5508 15.6893 37.8588 15.484C38.1761 15.2693 38.3348 14.9847 38.3348 14.63C38.3348 14.35 38.2601 14.0887 38.1108 13.846C37.9614 13.6033 37.7561 13.3933 37.4948 13.216L38.2508 13.454H35.9268V12.292H44.4668ZM38.4468 13.454L38.9368 13.118C39.1981 13.3793 39.3894 13.65 39.5108 13.93C39.6321 14.21 39.6928 14.4993 39.6928 14.798C39.6928 15.2927 39.5528 15.6987 39.2728 16.016C38.9928 16.324 38.5588 16.5713 37.9708 16.758C38.1294 17.1967 38.3488 17.528 38.6288 17.752C38.9088 17.976 39.2868 18.088 39.7628 18.088C40.2388 18.088 40.6541 17.9667 41.0088 17.724C41.3634 17.4813 41.6668 17.2013 41.9188 16.884L41.6948 17.682V13.454H38.4468ZM51.6586 13.454V21H50.2866V17.64H47.3466V18.074C47.3466 18.4007 47.2719 18.6387 47.1226 18.788C46.9826 18.9373 46.8053 19.012 46.5906 19.012C46.3946 19.012 46.1893 18.9513 45.9746 18.83C45.7693 18.7087 45.5733 18.5547 45.3866 18.368C45.2093 18.172 45.0646 17.9667 44.9526 17.752C44.8406 17.528 44.7846 17.3227 44.7846 17.136C44.7846 16.9587 44.8499 16.8047 44.9806 16.674C45.1113 16.5433 45.3493 16.478 45.6946 16.478H45.9746V13.454H44.2666V12.292H53.0586V13.454H51.6586ZM50.2866 13.454H47.3466V16.478H50.2866V13.454ZM66.3589 13.454V21H64.9869V13.454H64.0069V12.292H67.7729V13.454H66.3589ZM60.8289 12.152C61.3796 12.152 61.8276 12.2453 62.1729 12.432C62.5183 12.6187 62.7656 12.8707 62.9149 13.188C63.0736 13.496 63.1529 13.8413 63.1529 14.224C63.1529 14.896 62.8963 15.442 62.3829 15.862C61.8789 16.282 61.0623 16.5387 59.9329 16.632L59.7089 15.498C60.2596 15.4327 60.6843 15.3487 60.9829 15.246C61.2909 15.134 61.5056 14.9987 61.6269 14.84C61.7483 14.672 61.8089 14.4713 61.8089 14.238C61.8089 13.9487 61.7156 13.7247 61.5289 13.566C61.3516 13.4073 61.0856 13.328 60.7309 13.328C60.4229 13.328 60.1196 13.3747 59.8209 13.468C59.5223 13.552 59.2283 13.6827 58.9389 13.86L58.5329 12.726C58.8596 12.5393 59.2143 12.3993 59.5969 12.306C59.9796 12.2033 60.3903 12.152 60.8289 12.152ZM63.3769 17.962C63.3769 18.662 63.1483 19.208 62.6909 19.6C62.2336 19.992 61.6363 20.188 60.8989 20.188C60.3203 20.188 59.8023 20.0667 59.3449 19.824C58.8876 19.572 58.4583 19.1567 58.0569 18.578C57.6649 17.9993 57.2776 17.2107 56.8949 16.212L58.0429 15.708C58.4349 16.8 58.8409 17.6213 59.2609 18.172C59.6809 18.7227 60.1803 18.998 60.7589 18.998C61.1509 18.998 61.4636 18.8953 61.6969 18.69C61.9303 18.4847 62.0469 18.1907 62.0469 17.808C62.0469 17.4253 61.9069 17.0893 61.6269 16.8C61.3563 16.5107 61.0389 16.2633 60.6749 16.058L61.3749 15.806L62.0749 15.722C62.2056 15.8247 62.3456 15.9507 62.4949 16.1C62.6536 16.24 62.7796 16.3847 62.8729 16.534L63.0129 16.786C63.1343 16.9633 63.2229 17.15 63.2789 17.346C63.3443 17.542 63.3769 17.7473 63.3769 17.962ZM63.6009 16.072C63.9369 16.072 64.2823 16.0393 64.6369 15.974C64.9916 15.8993 65.3556 15.778 65.7289 15.61L65.7569 16.842C65.4489 16.9727 65.1363 17.066 64.8189 17.122C64.5109 17.178 64.1983 17.206 63.8809 17.206C63.6196 17.206 63.3489 17.1827 63.0689 17.136C62.7889 17.0893 62.5183 17.0333 62.2569 16.968L62.0049 16.086L62.1029 15.876C62.3363 15.9413 62.5789 15.9927 62.8309 16.03C63.0923 16.058 63.3489 16.072 63.6009 16.072ZM70.1389 13.454V21H68.7669V13.454H67.5629V12.292H71.5389V13.454H70.1389ZM68.8089 12.39C68.5196 12.0633 68.2676 11.8207 68.0529 11.662C67.8476 11.5033 67.6563 11.396 67.4789 11.34C67.3016 11.284 67.0963 11.256 66.8629 11.256C66.6483 11.256 66.4336 11.284 66.2189 11.34C66.0043 11.396 65.7989 11.466 65.6029 11.55L65.2249 10.5C65.4489 10.4067 65.6776 10.332 65.9109 10.276C66.1443 10.22 66.3776 10.192 66.6109 10.192C66.9003 10.192 67.1476 10.2293 67.3529 10.304C67.5676 10.3693 67.7823 10.486 67.9969 10.654C68.2116 10.822 68.4543 11.046 68.7249 11.326L68.7809 11.298C68.5196 10.8033 68.2909 10.43 68.0949 10.178C67.9083 9.91667 67.7123 9.73933 67.5069 9.646C67.3109 9.55267 67.0823 9.506 66.8209 9.506C66.6623 9.506 66.4989 9.52467 66.3309 9.562C66.1723 9.59 65.9996 9.64133 65.8129 9.716L65.4769 8.666C65.6636 8.59133 65.8689 8.54 66.0929 8.512C66.3169 8.47467 66.5456 8.456 66.7789 8.456C67.1896 8.456 67.5349 8.51667 67.8149 8.638C68.1043 8.75 68.3656 8.95067 68.5989 9.24C68.8323 9.52933 69.0563 9.93067 69.2709 10.444C69.4949 10.948 69.7376 11.5967 69.9989 12.39H68.8089ZM75.5512 13.454L75.9292 13.188C76.0319 13.412 76.1066 13.6453 76.1532 13.888C76.1999 14.1307 76.2232 14.406 76.2232 14.714C76.2232 15.218 76.1206 15.6567 75.9152 16.03C75.7099 16.394 75.4159 16.7113 75.0332 16.982C74.6599 17.2433 74.2212 17.472 73.7172 17.668L73.7312 17.458C74.0019 17.7567 74.2959 18.0693 74.6132 18.396C74.9399 18.7227 75.2806 19.0447 75.6352 19.362C75.9992 19.6793 76.3679 19.9967 76.7412 20.314L75.7752 21.21C75.0286 20.5567 74.3846 19.95 73.8432 19.39C73.3112 18.83 72.8679 18.298 72.5132 17.794C72.2799 17.4767 72.1119 17.1967 72.0092 16.954C71.9159 16.7113 71.8692 16.4827 71.8692 16.268C71.8692 16.0253 71.9439 15.834 72.0932 15.694C72.2426 15.5447 72.4479 15.47 72.7092 15.47C72.9799 15.47 73.2366 15.5633 73.4792 15.75C73.7312 15.9273 73.9832 16.1747 74.2352 16.492L73.4372 16.31C73.9412 16.1327 74.3052 15.8993 74.5292 15.61C74.7532 15.3113 74.8652 14.952 74.8652 14.532C74.8652 14.2707 74.8279 14.014 74.7532 13.762C74.6879 13.5007 74.5992 13.3093 74.4872 13.188L75.1452 13.454H71.3232V12.292H77.3992V13.454H75.5512ZM89.4772 13.454V21H88.0912V13.454H86.9292V12.292H90.8632V13.454H89.4772ZM82.6872 18.69C82.2485 18.69 81.8892 18.5873 81.6092 18.382C81.3385 18.1767 81.2032 17.8967 81.2032 17.542C81.2032 17.2527 81.2965 17.0287 81.4832 16.87C81.6699 16.7113 81.9125 16.632 82.2112 16.632C82.4912 16.632 82.7385 16.6973 82.9532 16.828C83.1772 16.9493 83.4105 17.1593 83.6532 17.458L83.8072 17.738C84.2645 18.13 84.6939 18.5547 85.0952 19.012C85.4965 19.4693 85.8699 19.9313 86.2152 20.398L85.0672 21.14C84.5819 20.4587 84.1432 19.8707 83.7512 19.376C83.3592 18.8813 82.9952 18.466 82.6592 18.13L82.5892 17.43C83.1119 17.3833 83.5692 17.248 83.9612 17.024C84.3532 16.7907 84.6612 16.4827 84.8852 16.1C85.1185 15.708 85.2352 15.2507 85.2352 14.728C85.2352 14.2427 85.1279 13.874 84.9132 13.622C84.7079 13.3607 84.4092 13.23 84.0172 13.23C83.7279 13.23 83.5039 13.3047 83.3452 13.454C83.1865 13.594 83.1072 13.776 83.1072 14C83.1072 14.2987 83.2332 14.518 83.4852 14.658C83.7372 14.798 84.0825 14.8913 84.5212 14.938L84.2552 15.918C83.4992 15.8527 82.9065 15.6567 82.4772 15.33C82.0572 14.994 81.8472 14.532 81.8472 13.944C81.8472 13.4027 82.0292 12.9687 82.3932 12.642C82.7665 12.3153 83.2939 12.152 83.9752 12.152C84.5165 12.152 84.9785 12.264 85.3612 12.488C85.7532 12.7027 86.0519 13.0107 86.2572 13.412C86.4625 13.804 86.5652 14.2753 86.5652 14.826C86.5652 15.4327 86.4532 15.974 86.2292 16.45C86.0052 16.9167 85.6832 17.3133 85.2632 17.64C84.8525 17.9667 84.3719 18.2233 83.8212 18.41L83.6252 18.522C83.4385 18.5687 83.2752 18.6107 83.1352 18.648C82.9952 18.676 82.8459 18.69 82.6872 18.69ZM97.6549 13.454V21H96.2829V16.562H94.3789C93.8283 16.562 93.3989 16.66 93.0909 16.856C92.7923 17.052 92.6429 17.3787 92.6429 17.836C92.6429 18.256 92.7783 18.662 93.0489 19.054C93.3289 19.446 93.7349 19.894 94.2669 20.398L93.2869 21.238C92.6429 20.6033 92.1436 20.0107 91.7889 19.46C91.4343 18.9 91.2569 18.3027 91.2569 17.668C91.2569 16.8933 91.5183 16.324 92.0409 15.96C92.5636 15.5867 93.2729 15.4 94.1689 15.4H96.2829V13.454H90.6689V12.292H99.0549V13.454H97.6549ZM97.9764 10.906C97.9764 10.682 98.0464 10.5047 98.1864 10.374C98.3264 10.2433 98.4897 10.178 98.6764 10.178C98.8724 10.178 99.0404 10.2433 99.1804 10.374C99.3204 10.5047 99.3904 10.682 99.3904 10.906C99.3904 11.1113 99.3204 11.284 99.1804 11.424C99.0404 11.564 98.8724 11.634 98.6764 11.634C98.4897 11.634 98.3264 11.564 98.1864 11.424C98.0464 11.284 97.9764 11.1113 97.9764 10.906ZM96.6744 12.39C96.5157 12.1007 96.3897 11.7787 96.2964 11.424C96.1937 11.0693 96.1424 10.7287 96.1424 10.402C96.1424 9.758 96.3337 9.27267 96.7164 8.946C97.0991 8.61933 97.6124 8.456 98.2564 8.456C98.4897 8.456 98.7091 8.47467 98.9144 8.512C99.1291 8.54 99.3157 8.57733 99.4744 8.624L99.3064 9.59C99.1851 9.562 99.0497 9.53867 98.9004 9.52C98.7511 9.50133 98.6111 9.492 98.4804 9.492C98.0604 9.492 97.7384 9.59467 97.5144 9.8C97.2811 10.0053 97.1644 10.29 97.1644 10.654C97.1644 10.8127 97.1784 10.9667 97.2064 11.116C97.2251 11.2653 97.2671 11.4427 97.3324 11.648C97.3884 11.844 97.4631 12.0913 97.5564 12.39H96.6744ZM96.3104 12.39C96.1237 11.802 95.9651 11.3307 95.8344 10.976C95.6944 10.612 95.5591 10.3367 95.4284 10.15C95.2884 9.954 95.1391 9.82333 94.9804 9.758C94.8217 9.68333 94.6257 9.646 94.3924 9.646C94.2057 9.646 94.0144 9.66933 93.8184 9.716C93.6131 9.75333 93.4311 9.80467 93.2724 9.87L92.9084 8.722C93.1231 8.638 93.3611 8.57267 93.6224 8.526C93.8744 8.47933 94.1217 8.456 94.3644 8.456C94.7844 8.456 95.1437 8.51667 95.4424 8.638C95.7317 8.75 95.9931 8.95533 96.2264 9.254C96.4504 9.54333 96.6651 9.94467 96.8704 10.458C97.0757 10.962 97.2997 11.606 97.5424 12.39H96.3104Z" fill="white"/>
<defs>
<linearGradient id="paint0_linear_23956_39592" x1="61.5" y1="0" x2="61.5" y2="33" gradientUnits="userSpaceOnUse">
<stop stop-color="white"/>
<stop offset="1" stop-color="#999999"/>
</linearGradient>
</defs>
</svg>
