<svg width="328" height="60" viewBox="0 0 328 60" fill="none" xmlns="http://www.w3.org/2000/svg">
<rect y="6" width="328" height="54" rx="12" fill="#9B0624"/>
<path d="M84.3389 27.44C85.4189 27.44 86.3669 27.626 87.1829 27.998C87.9989 28.37 88.6949 28.922 89.2709 29.654L87.8849 31.256C87.3929 30.632 86.8529 30.176 86.2649 29.888C85.6889 29.588 85.0169 29.438 84.2489 29.438C83.7449 29.438 83.3249 29.504 82.9889 29.636C82.6649 29.768 82.4249 29.942 82.2689 30.158C82.1249 30.374 82.0529 30.614 82.0529 30.878C82.0529 31.202 82.1789 31.478 82.4309 31.706C82.6829 31.922 83.1149 32.102 83.7269 32.246L85.9409 32.75C87.1169 33.014 87.9569 33.41 88.4609 33.938C88.9769 34.454 89.2349 35.126 89.2349 35.954C89.2349 36.734 89.0309 37.406 88.6229 37.97C88.2149 38.522 87.6449 38.948 86.9129 39.248C86.1809 39.536 85.3409 39.68 84.3929 39.68C83.5649 39.68 82.8029 39.584 82.1069 39.392C81.4229 39.188 80.8109 38.912 80.2709 38.564C79.7309 38.216 79.2809 37.814 78.9209 37.358L80.3249 35.684C80.6009 36.068 80.9429 36.41 81.3509 36.71C81.7589 37.01 82.2209 37.25 82.7369 37.43C83.2649 37.598 83.8169 37.682 84.3929 37.682C84.8849 37.682 85.2989 37.628 85.6349 37.52C85.9829 37.4 86.2409 37.238 86.4089 37.034C86.5889 36.818 86.6789 36.56 86.6789 36.26C86.6789 35.948 86.5709 35.684 86.3549 35.468C86.1509 35.24 85.7669 35.066 85.2029 34.946L82.7909 34.406C82.0949 34.238 81.4949 34.022 80.9909 33.758C80.4989 33.482 80.1209 33.134 79.8569 32.714C79.6049 32.282 79.4789 31.772 79.4789 31.184C79.4789 30.476 79.6709 29.84 80.0549 29.276C80.4389 28.712 80.9909 28.268 81.7109 27.944C82.4429 27.608 83.3189 27.44 84.3389 27.44ZM94.2189 27.746V36.566C94.2189 36.998 94.3269 37.316 94.5429 37.52C94.7709 37.712 95.0769 37.808 95.4609 37.808C95.7609 37.808 96.0249 37.766 96.2529 37.682C96.4809 37.586 96.6849 37.46 96.8649 37.304L97.2609 38.942C96.9729 39.17 96.6129 39.35 96.1809 39.482C95.7489 39.614 95.2929 39.68 94.8129 39.68C94.2129 39.68 93.6789 39.59 93.2109 39.41C92.7549 39.23 92.3949 38.942 92.1309 38.546C91.8789 38.15 91.7529 37.622 91.7529 36.962V28.43L94.2189 27.746ZM97.0989 30.5V32.336H90.0969V30.5H97.0989ZM103.685 33.758C103.685 33.242 103.535 32.84 103.235 32.552C102.947 32.264 102.563 32.12 102.083 32.12C101.639 32.12 101.249 32.234 100.913 32.462C100.577 32.69 100.331 33.068 100.175 33.596L98.0692 32.948C98.2732 32.156 98.7172 31.52 99.4012 31.04C100.097 30.56 101.027 30.32 102.191 30.32C102.983 30.32 103.673 30.446 104.261 30.698C104.849 30.938 105.305 31.304 105.629 31.796C105.965 32.288 106.133 32.906 106.133 33.65V37.304C106.133 37.76 106.349 37.988 106.781 37.988C106.985 37.988 107.177 37.958 107.357 37.898L107.213 39.428C106.901 39.584 106.511 39.662 106.043 39.662C105.623 39.662 105.245 39.59 104.909 39.446C104.573 39.302 104.309 39.086 104.117 38.798C103.925 38.498 103.829 38.126 103.829 37.682V37.61L104.261 37.538C104.189 37.994 103.991 38.384 103.667 38.708C103.343 39.02 102.947 39.26 102.479 39.428C102.023 39.596 101.549 39.68 101.057 39.68C100.445 39.68 99.9172 39.59 99.4732 39.41C99.0292 39.218 98.6872 38.942 98.4472 38.582C98.2072 38.222 98.0872 37.778 98.0872 37.25C98.0872 36.578 98.3032 36.032 98.7352 35.612C99.1672 35.18 99.7852 34.886 100.589 34.73L103.973 34.046L103.955 35.576L101.795 36.008C101.387 36.092 101.075 36.206 100.859 36.35C100.655 36.482 100.553 36.704 100.553 37.016C100.553 37.316 100.661 37.544 100.877 37.7C101.105 37.856 101.375 37.934 101.687 37.934C101.939 37.934 102.185 37.904 102.425 37.844C102.665 37.784 102.881 37.688 103.073 37.556C103.265 37.424 103.415 37.244 103.523 37.016C103.631 36.788 103.685 36.512 103.685 36.188V33.758ZM108.591 39.5V30.5H110.733L110.895 32.264C111.135 31.64 111.483 31.16 111.939 30.824C112.407 30.488 112.989 30.32 113.685 30.32C113.889 30.32 114.075 30.338 114.243 30.374C114.411 30.41 114.549 30.458 114.657 30.518L114.369 32.588C114.249 32.54 114.099 32.504 113.919 32.48C113.751 32.456 113.529 32.444 113.253 32.444C112.893 32.444 112.545 32.534 112.209 32.714C111.873 32.882 111.597 33.146 111.381 33.506C111.165 33.854 111.057 34.298 111.057 34.838V39.5H108.591ZM118.737 27.746V36.566C118.737 36.998 118.845 37.316 119.061 37.52C119.289 37.712 119.595 37.808 119.979 37.808C120.279 37.808 120.543 37.766 120.771 37.682C120.999 37.586 121.203 37.46 121.383 37.304L121.779 38.942C121.491 39.17 121.131 39.35 120.699 39.482C120.267 39.614 119.811 39.68 119.331 39.68C118.731 39.68 118.197 39.59 117.729 39.41C117.273 39.23 116.913 38.942 116.649 38.546C116.397 38.15 116.271 37.622 116.271 36.962V28.43L118.737 27.746ZM121.617 30.5V32.336H114.615V30.5H121.617ZM130.32 39.5L126.864 27.62H129.51L131.85 37.43L134.226 27.62H136.602L139.014 37.43L141.336 27.62H143.874L140.418 39.5H137.628L135.972 33.02L135.414 30.212H135.378L134.82 33.02L133.182 39.5H130.32ZM149.646 33.758C149.646 33.242 149.496 32.84 149.196 32.552C148.908 32.264 148.524 32.12 148.044 32.12C147.6 32.12 147.21 32.234 146.874 32.462C146.538 32.69 146.292 33.068 146.136 33.596L144.03 32.948C144.234 32.156 144.678 31.52 145.362 31.04C146.058 30.56 146.988 30.32 148.152 30.32C148.944 30.32 149.634 30.446 150.222 30.698C150.81 30.938 151.266 31.304 151.59 31.796C151.926 32.288 152.094 32.906 152.094 33.65V37.304C152.094 37.76 152.31 37.988 152.742 37.988C152.946 37.988 153.138 37.958 153.318 37.898L153.174 39.428C152.862 39.584 152.472 39.662 152.004 39.662C151.584 39.662 151.206 39.59 150.87 39.446C150.534 39.302 150.27 39.086 150.078 38.798C149.886 38.498 149.79 38.126 149.79 37.682V37.61L150.222 37.538C150.15 37.994 149.952 38.384 149.628 38.708C149.304 39.02 148.908 39.26 148.44 39.428C147.984 39.596 147.51 39.68 147.018 39.68C146.406 39.68 145.878 39.59 145.434 39.41C144.99 39.218 144.648 38.942 144.408 38.582C144.168 38.222 144.048 37.778 144.048 37.25C144.048 36.578 144.264 36.032 144.696 35.612C145.128 35.18 145.746 34.886 146.55 34.73L149.934 34.046L149.916 35.576L147.756 36.008C147.348 36.092 147.036 36.206 146.82 36.35C146.616 36.482 146.514 36.704 146.514 37.016C146.514 37.316 146.622 37.544 146.838 37.7C147.066 37.856 147.336 37.934 147.648 37.934C147.9 37.934 148.146 37.904 148.386 37.844C148.626 37.784 148.842 37.688 149.034 37.556C149.226 37.424 149.376 37.244 149.484 37.016C149.592 36.788 149.646 36.512 149.646 36.188V33.758ZM157.386 27.746V36.566C157.386 36.998 157.494 37.316 157.71 37.52C157.938 37.712 158.244 37.808 158.628 37.808C158.928 37.808 159.192 37.766 159.42 37.682C159.648 37.586 159.852 37.46 160.032 37.304L160.428 38.942C160.14 39.17 159.78 39.35 159.348 39.482C158.916 39.614 158.46 39.68 157.98 39.68C157.38 39.68 156.846 39.59 156.378 39.41C155.922 39.23 155.562 38.942 155.298 38.546C155.046 38.15 154.92 37.622 154.92 36.962V28.43L157.386 27.746ZM160.266 30.5V32.336H153.264V30.5H160.266ZM165.721 30.32C166.525 30.32 167.203 30.44 167.755 30.68C168.319 30.908 168.769 31.226 169.105 31.634C169.453 32.03 169.699 32.474 169.843 32.966L167.539 33.794C167.419 33.254 167.215 32.846 166.927 32.57C166.639 32.294 166.249 32.156 165.757 32.156C165.301 32.156 164.911 32.264 164.587 32.48C164.263 32.684 164.017 33.002 163.849 33.434C163.681 33.854 163.597 34.382 163.597 35.018C163.597 35.654 163.681 36.182 163.849 36.602C164.029 37.022 164.281 37.334 164.605 37.538C164.941 37.742 165.331 37.844 165.775 37.844C166.135 37.844 166.441 37.784 166.693 37.664C166.945 37.532 167.149 37.346 167.305 37.106C167.473 36.866 167.587 36.578 167.647 36.242L169.879 36.962C169.747 37.502 169.501 37.976 169.141 38.384C168.781 38.792 168.319 39.11 167.755 39.338C167.191 39.566 166.537 39.68 165.793 39.68C164.869 39.68 164.053 39.494 163.345 39.122C162.637 38.75 162.091 38.216 161.707 37.52C161.323 36.824 161.131 35.984 161.131 35C161.131 34.016 161.323 33.176 161.707 32.48C162.091 31.784 162.631 31.25 163.327 30.878C164.023 30.506 164.821 30.32 165.721 30.32ZM171.495 39.5V26.558H173.961V32.03C174.249 31.454 174.645 31.028 175.149 30.752C175.653 30.464 176.223 30.32 176.859 30.32C177.483 30.32 178.035 30.44 178.515 30.68C179.007 30.92 179.391 31.286 179.667 31.778C179.955 32.258 180.099 32.864 180.099 33.596V39.5H177.633V34.316C177.633 33.536 177.483 33.002 177.183 32.714C176.883 32.414 176.499 32.264 176.031 32.264C175.683 32.264 175.347 32.348 175.023 32.516C174.711 32.672 174.453 32.936 174.249 33.308C174.057 33.668 173.961 34.148 173.961 34.748V39.5H171.495ZM183.582 29.204C183.066 29.204 182.682 29.096 182.43 28.88C182.178 28.652 182.052 28.322 182.052 27.89C182.052 27.446 182.178 27.116 182.43 26.9C182.682 26.672 183.066 26.558 183.582 26.558C184.098 26.558 184.482 26.672 184.734 26.9C184.986 27.116 185.112 27.446 185.112 27.89C185.112 28.322 184.986 28.652 184.734 28.88C184.482 29.096 184.098 29.204 183.582 29.204ZM184.806 30.5V39.5H182.34V30.5H184.806ZM187.12 39.5V30.5H189.334L189.478 33.2L189.172 32.912C189.316 32.324 189.544 31.838 189.856 31.454C190.168 31.07 190.546 30.788 190.99 30.608C191.446 30.416 191.944 30.32 192.484 30.32C193.108 30.32 193.66 30.44 194.14 30.68C194.632 30.92 195.016 31.286 195.292 31.778C195.58 32.258 195.724 32.864 195.724 33.596V39.5H193.258V34.298C193.258 33.53 193.108 33.002 192.808 32.714C192.508 32.414 192.118 32.264 191.638 32.264C191.302 32.264 190.972 32.348 190.648 32.516C190.336 32.672 190.078 32.93 189.874 33.29C189.682 33.65 189.586 34.13 189.586 34.73V39.5H187.12ZM206.262 28.358L206.55 30.122C206.502 30.122 206.448 30.122 206.388 30.122C206.34 30.11 206.286 30.104 206.226 30.104C205.674 30.104 205.26 30.23 204.984 30.482C204.708 30.722 204.57 31.058 204.57 31.49L203.562 31.076C203.562 30.596 203.658 30.152 203.85 29.744C204.042 29.324 204.324 28.988 204.696 28.736C205.08 28.484 205.536 28.358 206.064 28.358C206.088 28.358 206.118 28.358 206.154 28.358C206.19 28.358 206.226 28.358 206.262 28.358ZM203.31 37.808C204.282 37.808 205.032 38.018 205.56 38.438C206.088 38.858 206.352 39.446 206.352 40.202C206.352 40.886 206.154 41.462 205.758 41.93C205.362 42.41 204.804 42.77 204.084 43.01C203.376 43.25 202.554 43.37 201.618 43.37C200.07 43.37 198.936 43.154 198.216 42.722C197.508 42.29 197.154 41.726 197.154 41.03C197.154 40.538 197.34 40.124 197.712 39.788C198.096 39.452 198.726 39.266 199.602 39.23L199.512 39.518C198.888 39.41 198.408 39.206 198.072 38.906C197.748 38.594 197.586 38.168 197.586 37.628C197.586 37.076 197.796 36.626 198.216 36.278C198.648 35.918 199.23 35.708 199.962 35.648L201.042 36.152H200.79C200.274 36.188 199.908 36.296 199.692 36.476C199.488 36.644 199.386 36.836 199.386 37.052C199.386 37.304 199.482 37.496 199.674 37.628C199.878 37.748 200.166 37.808 200.538 37.808H203.31ZM201.636 41.678C202.26 41.678 202.77 41.624 203.166 41.516C203.574 41.408 203.874 41.27 204.066 41.102C204.27 40.934 204.372 40.748 204.372 40.544C204.372 40.316 204.282 40.13 204.102 39.986C203.922 39.854 203.598 39.788 203.13 39.788H200.088C199.8 39.788 199.56 39.86 199.368 40.004C199.188 40.148 199.098 40.346 199.098 40.598C199.098 40.934 199.32 41.198 199.764 41.39C200.22 41.582 200.844 41.678 201.636 41.678ZM201.654 30.32C202.494 30.32 203.22 30.446 203.832 30.698C204.456 30.938 204.93 31.286 205.254 31.742C205.59 32.198 205.758 32.744 205.758 33.38C205.758 34.004 205.59 34.544 205.254 35C204.93 35.456 204.456 35.81 203.832 36.062C203.22 36.302 202.494 36.422 201.654 36.422C200.322 36.422 199.302 36.152 198.594 35.612C197.898 35.06 197.55 34.316 197.55 33.38C197.55 32.744 197.712 32.198 198.036 31.742C198.372 31.286 198.846 30.938 199.458 30.698C200.07 30.446 200.802 30.32 201.654 30.32ZM201.654 31.868C201.174 31.868 200.778 32 200.466 32.264C200.154 32.528 199.998 32.894 199.998 33.362C199.998 33.83 200.154 34.202 200.466 34.478C200.778 34.742 201.174 34.874 201.654 34.874C202.134 34.874 202.524 34.742 202.824 34.478C203.136 34.202 203.292 33.83 203.292 33.362C203.292 32.894 203.136 32.528 202.824 32.264C202.524 32 202.134 31.868 201.654 31.868Z" fill="white"/>
<circle cx="239" cy="33" r="12" fill="white"/>
<path d="M233 27L239 33V27H233Z" fill="#B31232"/>
<path d="M233 39L239 33V39H233Z" fill="#B31232"/>
<path d="M245 33L239 39V33H245Z" fill="#B31232"/>
<path d="M245 33L239 27V33H245Z" fill="#B31232"/>
<rect width="328" height="54" rx="12" fill="url(#paint0_linear_23920_35981)"/>
<path d="M132.183 24.032L132.597 23.618C132.717 23.906 132.813 24.206 132.885 24.518C132.957 24.83 132.993 25.196 132.993 25.616C132.993 26.24 132.861 26.792 132.597 27.272C132.333 27.74 131.961 28.148 131.481 28.496C131.001 28.832 130.437 29.12 129.789 29.36L129.771 29C130.131 29.372 130.509 29.756 130.905 30.152C131.313 30.536 131.739 30.92 132.183 31.304C132.639 31.688 133.101 32.072 133.569 32.456L132.093 33.824C131.133 32.996 130.299 32.222 129.591 31.502C128.895 30.782 128.325 30.104 127.881 29.468C127.593 29.072 127.383 28.718 127.251 28.406C127.119 28.094 127.053 27.794 127.053 27.506C127.053 27.17 127.161 26.9 127.377 26.696C127.593 26.48 127.887 26.372 128.259 26.372C128.643 26.372 129.003 26.492 129.339 26.732C129.675 26.972 130.023 27.308 130.383 27.74L129.231 27.47C129.807 27.242 130.227 26.954 130.491 26.606C130.755 26.258 130.887 25.832 130.887 25.328C130.887 24.98 130.845 24.65 130.761 24.338C130.677 24.014 130.557 23.768 130.401 23.6L131.283 24.032H126.405V22.304H134.397V24.032H132.183ZM135.261 22.43C135.105 22.154 134.973 21.86 134.865 21.548C134.757 21.224 134.703 20.864 134.703 20.468C134.703 19.796 134.907 19.232 135.315 18.776C135.723 18.32 136.305 17.972 137.061 17.732C137.817 17.492 138.705 17.372 139.725 17.372C141.045 17.372 142.275 17.504 143.415 17.768C144.567 18.032 145.629 18.398 146.601 18.866C147.573 19.322 148.449 19.856 149.229 20.468C150.021 21.08 150.711 21.734 151.299 22.43H149.067C148.479 21.902 147.849 21.44 147.177 21.044C146.517 20.636 145.809 20.288 145.053 20C144.309 19.712 143.529 19.496 142.713 19.352C141.897 19.196 141.051 19.118 140.175 19.118C139.095 19.118 138.267 19.274 137.691 19.586C137.115 19.898 136.827 20.348 136.827 20.936C136.827 21.248 136.875 21.53 136.971 21.782C137.079 22.022 137.211 22.238 137.367 22.43H135.261ZM137.403 24.032V33.5H135.297V24.032H133.821V22.304H139.131V24.032H137.403ZM150.968 24.032V33.5H148.844V27.362H147.134C146.822 27.362 146.552 27.356 146.324 27.344C146.096 27.332 145.922 27.308 145.802 27.272L145.046 26.66C145.694 27.044 146.21 27.488 146.594 27.992C146.978 28.484 147.17 29.054 147.17 29.702C147.17 30.254 147.038 30.722 146.774 31.106C146.522 31.49 146.18 31.778 145.748 31.97C145.328 32.162 144.848 32.258 144.308 32.258C143.78 32.258 143.276 32.162 142.796 31.97C142.316 31.778 141.854 31.466 141.41 31.034C140.978 30.59 140.564 30.002 140.168 29.27C139.772 28.526 139.382 27.608 138.998 26.516L140.78 25.868C141.116 26.888 141.452 27.74 141.788 28.424C142.136 29.108 142.496 29.624 142.868 29.972C143.24 30.32 143.624 30.494 144.02 30.494C144.332 30.494 144.59 30.41 144.794 30.242C144.998 30.074 145.1 29.792 145.1 29.396C145.1 28.94 144.944 28.52 144.632 28.136C144.32 27.74 143.912 27.38 143.408 27.056L143.984 25.67H148.844V24.032H138.584V22.304H152.696V24.032H150.968ZM157.176 33.86C156.216 32.9 155.406 32.018 154.746 31.214C154.086 30.41 153.6 29.732 153.288 29.18C153.108 28.856 152.976 28.562 152.892 28.298C152.808 28.034 152.766 27.782 152.766 27.542C152.766 27.194 152.868 26.912 153.072 26.696C153.288 26.48 153.588 26.372 153.972 26.372C154.38 26.372 154.746 26.504 155.07 26.768C155.406 27.032 155.736 27.356 156.06 27.74L154.818 27.578C155.298 27.35 155.628 27.05 155.808 26.678C155.988 26.294 156.078 25.868 156.078 25.4C156.078 25.016 156.03 24.668 155.934 24.356C155.85 24.032 155.736 23.774 155.592 23.582L156.654 24.032H152.118V22.304H161.37V24.032H157.284L157.77 23.6C157.902 23.888 158.004 24.2 158.076 24.536C158.16 24.86 158.202 25.226 158.202 25.634C158.202 26.114 158.124 26.546 157.968 26.93C157.812 27.314 157.602 27.65 157.338 27.938L157.158 28.154C156.942 28.406 156.684 28.622 156.384 28.802C156.084 28.982 155.73 29.15 155.322 29.306V29.036C155.61 29.408 155.934 29.786 156.294 30.17C156.654 30.554 157.038 30.944 157.446 31.34C157.866 31.736 158.298 32.138 158.742 32.546L157.176 33.86ZM159.768 29.594C159.204 29.594 158.61 29.522 157.986 29.378C157.362 29.222 156.762 28.97 156.186 28.622L156.906 27.29C157.386 27.494 157.842 27.638 158.274 27.722C158.706 27.806 159.162 27.848 159.642 27.848C159.978 27.848 160.302 27.836 160.614 27.812C160.926 27.776 161.256 27.734 161.604 27.686L161.676 29.36C161.364 29.456 161.052 29.522 160.74 29.558C160.44 29.582 160.116 29.594 159.768 29.594ZM168.903 24.032H166.815V27.434H165.051C164.055 27.434 163.299 27.602 162.783 27.938C162.267 28.274 162.009 28.814 162.009 29.558C162.009 30.254 162.249 30.782 162.729 31.142C163.209 31.502 163.803 31.682 164.511 31.682C165.063 31.682 165.573 31.592 166.041 31.412C166.521 31.232 167.025 30.962 167.553 30.602L168.345 32.186C167.841 32.618 167.271 32.948 166.635 33.176C166.011 33.392 165.285 33.5 164.457 33.5C163.569 33.5 162.783 33.344 162.099 33.032C161.415 32.708 160.875 32.246 160.479 31.646C160.095 31.046 159.903 30.332 159.903 29.504C159.903 28.244 160.317 27.308 161.145 26.696C161.985 26.072 163.167 25.76 164.691 25.76H165.321L164.709 26.228V24.032H159.201V22.304H168.903V24.032ZM174.136 24.032L174.55 23.618C174.67 23.906 174.766 24.206 174.838 24.518C174.91 24.83 174.946 25.196 174.946 25.616C174.946 26.24 174.814 26.792 174.55 27.272C174.286 27.74 173.914 28.148 173.434 28.496C172.954 28.832 172.39 29.12 171.742 29.36L171.724 29C172.084 29.372 172.462 29.756 172.858 30.152C173.266 30.536 173.692 30.92 174.136 31.304C174.592 31.688 175.054 32.072 175.522 32.456L174.046 33.824C173.086 32.996 172.252 32.222 171.544 31.502C170.848 30.782 170.278 30.104 169.834 29.468C169.546 29.072 169.336 28.718 169.204 28.406C169.072 28.094 169.006 27.794 169.006 27.506C169.006 27.17 169.114 26.9 169.33 26.696C169.546 26.48 169.84 26.372 170.212 26.372C170.596 26.372 170.956 26.492 171.292 26.732C171.628 26.972 171.976 27.308 172.336 27.74L171.184 27.47C171.76 27.242 172.18 26.954 172.444 26.606C172.708 26.258 172.84 25.832 172.84 25.328C172.84 24.98 172.798 24.65 172.714 24.338C172.63 24.014 172.51 23.768 172.354 23.6L173.236 24.032H168.358V22.304H176.35V24.032H174.136ZM195.755 24.032H189.905V27.542L189.653 27.146C189.917 26.894 190.235 26.69 190.607 26.534C190.991 26.378 191.423 26.3 191.903 26.3C192.815 26.3 193.529 26.57 194.045 27.11C194.573 27.638 194.837 28.37 194.837 29.306C194.837 29.906 194.723 30.5 194.495 31.088C194.279 31.664 193.913 32.264 193.397 32.888L191.561 31.844C191.921 31.448 192.203 31.052 192.407 30.656C192.623 30.248 192.731 29.81 192.731 29.342C192.731 28.898 192.629 28.568 192.425 28.352C192.221 28.124 191.933 28.01 191.561 28.01C191.201 28.01 190.865 28.124 190.553 28.352C190.253 28.568 190.013 28.85 189.833 29.198L189.905 28.64V33.5H187.799V29.954L188.321 30.512C188.057 30.752 187.769 30.962 187.457 31.142C187.157 31.31 186.821 31.442 186.449 31.538C186.089 31.634 185.699 31.682 185.279 31.682C184.595 31.682 183.977 31.562 183.425 31.322C182.885 31.07 182.459 30.71 182.147 30.242C181.835 29.762 181.679 29.174 181.679 28.478C181.679 27.47 182.015 26.69 182.687 26.138C183.359 25.586 184.295 25.31 185.495 25.31C185.807 25.31 186.107 25.328 186.395 25.364C186.683 25.388 186.959 25.43 187.223 25.49L187.043 27.218C186.851 27.17 186.641 27.134 186.413 27.11C186.185 27.086 185.951 27.074 185.711 27.074C185.099 27.074 184.625 27.2 184.289 27.452C183.965 27.704 183.803 28.064 183.803 28.532C183.803 29 183.953 29.354 184.253 29.594C184.553 29.822 184.937 29.936 185.405 29.936C185.969 29.936 186.479 29.78 186.935 29.468C187.391 29.156 187.739 28.802 187.979 28.406L187.799 29.702V24.032H180.977V22.304H195.755V24.032ZM200.957 24.032L201.371 23.618C201.491 23.906 201.587 24.206 201.659 24.518C201.731 24.83 201.767 25.196 201.767 25.616C201.767 26.24 201.635 26.792 201.371 27.272C201.107 27.74 200.735 28.148 200.255 28.496C199.775 28.832 199.211 29.12 198.563 29.36L198.545 29C198.905 29.372 199.283 29.756 199.679 30.152C200.087 30.536 200.513 30.92 200.957 31.304C201.413 31.688 201.875 32.072 202.343 32.456L200.867 33.824C199.907 32.996 199.073 32.222 198.365 31.502C197.669 30.782 197.099 30.104 196.655 29.468C196.367 29.072 196.157 28.718 196.025 28.406C195.893 28.094 195.827 27.794 195.827 27.506C195.827 27.17 195.935 26.9 196.151 26.696C196.367 26.48 196.661 26.372 197.033 26.372C197.417 26.372 197.777 26.492 198.113 26.732C198.449 26.972 198.797 27.308 199.157 27.74L198.005 27.47C198.581 27.242 199.001 26.954 199.265 26.606C199.529 26.258 199.661 25.832 199.661 25.328C199.661 24.98 199.619 24.65 199.535 24.338C199.451 24.014 199.331 23.768 199.175 23.6L200.057 24.032H195.179V22.304H203.171V24.032H200.957ZM200.241 18.758C200.241 18.422 200.355 18.14 200.583 17.912C200.811 17.684 201.087 17.57 201.411 17.57C201.735 17.57 202.011 17.684 202.239 17.912C202.455 18.14 202.563 18.422 202.563 18.758C202.563 19.082 202.455 19.364 202.239 19.604C202.011 19.832 201.735 19.946 201.411 19.946C201.087 19.946 200.811 19.832 200.583 19.604C200.355 19.364 200.241 19.082 200.241 18.758ZM198.909 22.43C198.693 21.734 198.501 21.17 198.333 20.738C198.153 20.306 197.979 19.976 197.811 19.748C197.643 19.52 197.463 19.364 197.271 19.28C197.067 19.184 196.827 19.136 196.551 19.136C196.323 19.136 196.089 19.166 195.849 19.226C195.597 19.274 195.363 19.34 195.147 19.424L194.625 17.714C194.913 17.606 195.231 17.522 195.579 17.462C195.915 17.402 196.251 17.372 196.587 17.372C197.127 17.372 197.595 17.45 197.991 17.606C198.375 17.75 198.723 18.014 199.035 18.398C199.335 18.77 199.623 19.286 199.899 19.946C200.163 20.594 200.451 21.422 200.763 22.43H198.909Z" fill="white"/>
<defs>
<linearGradient id="paint0_linear_23920_35981" x1="0" y1="0" x2="164.679" y2="223.197" gradientUnits="userSpaceOnUse">
<stop stop-color="#B31232"/>
<stop offset="1" stop-color="#FF6B2C"/>
</linearGradient>
</defs>
</svg>
