<svg width="332" height="54" viewBox="39.8721 791.227 332 54" fill="none" xmlns="http://www.w3.org/2000/svg">
<rect x="39.8721" y="791.227" width="332" height="54" rx="12" fill="#B4B4B4"/>
<path d="M126.211 812.667C127.291 812.667 128.239 812.853 129.055 813.225C129.871 813.597 130.567 814.149 131.143 814.881L129.757 816.483C129.265 815.859 128.725 815.403 128.137 815.115C127.561 814.815 126.889 814.665 126.121 814.665C125.617 814.665 125.197 814.731 124.861 814.863C124.537 814.995 124.297 815.169 124.141 815.385C123.997 815.601 123.925 815.841 123.925 816.105C123.925 816.429 124.051 816.705 124.303 816.933C124.555 817.149 124.987 817.329 125.599 817.473L127.813 817.977C128.989 818.241 129.829 818.637 130.333 819.165C130.849 819.681 131.107 820.353 131.107 821.181C131.107 821.961 130.903 822.633 130.495 823.197C130.087 823.749 129.517 824.175 128.785 824.475C128.053 824.763 127.213 824.907 126.265 824.907C125.437 824.907 124.675 824.811 123.979 824.619C123.295 824.415 122.683 824.139 122.143 823.791C121.603 823.443 121.153 823.041 120.793 822.585L122.197 820.911C122.473 821.295 122.815 821.637 123.223 821.937C123.631 822.237 124.093 822.477 124.609 822.657C125.137 822.825 125.689 822.909 126.265 822.909C126.757 822.909 127.171 822.855 127.507 822.747C127.855 822.627 128.113 822.465 128.281 822.261C128.461 822.045 128.551 821.787 128.551 821.487C128.551 821.175 128.443 820.911 128.227 820.695C128.023 820.467 127.639 820.293 127.075 820.173L124.663 819.633C123.967 819.465 123.367 819.249 122.863 818.985C122.371 818.709 121.993 818.361 121.729 817.941C121.477 817.509 121.351 816.999 121.351 816.411C121.351 815.703 121.543 815.067 121.927 814.503C122.311 813.939 122.863 813.495 123.583 813.171C124.315 812.835 125.191 812.667 126.211 812.667ZM136.091 812.973V821.793C136.091 822.225 136.199 822.543 136.415 822.747C136.643 822.939 136.949 823.035 137.333 823.035C137.633 823.035 137.897 822.993 138.125 822.909C138.353 822.813 138.557 822.687 138.737 822.531L139.133 824.169C138.845 824.397 138.485 824.577 138.053 824.709C137.621 824.841 137.165 824.907 136.685 824.907C136.085 824.907 135.551 824.817 135.083 824.637C134.627 824.457 134.267 824.169 134.003 823.773C133.751 823.377 133.625 822.849 133.625 822.189V813.657L136.091 812.973ZM138.971 815.727V817.563H131.969V815.727H138.971ZM145.557 818.985C145.557 818.469 145.407 818.067 145.107 817.779C144.819 817.491 144.435 817.347 143.955 817.347C143.511 817.347 143.121 817.461 142.785 817.689C142.449 817.917 142.203 818.295 142.047 818.823L139.941 818.175C140.145 817.383 140.589 816.747 141.273 816.267C141.969 815.787 142.899 815.547 144.063 815.547C144.855 815.547 145.545 815.673 146.133 815.925C146.721 816.165 147.177 816.531 147.501 817.023C147.837 817.515 148.005 818.133 148.005 818.877V822.531C148.005 822.987 148.221 823.215 148.653 823.215C148.857 823.215 149.049 823.185 149.229 823.125L149.085 824.655C148.773 824.811 148.383 824.889 147.915 824.889C147.495 824.889 147.117 824.817 146.781 824.673C146.445 824.529 146.181 824.313 145.989 824.025C145.797 823.725 145.701 823.353 145.701 822.909V822.837L146.133 822.765C146.061 823.221 145.863 823.611 145.539 823.935C145.215 824.247 144.819 824.487 144.351 824.655C143.895 824.823 143.421 824.907 142.929 824.907C142.317 824.907 141.789 824.817 141.345 824.637C140.901 824.445 140.559 824.169 140.319 823.809C140.079 823.449 139.959 823.005 139.959 822.477C139.959 821.805 140.175 821.259 140.607 820.839C141.039 820.407 141.657 820.113 142.461 819.957L145.845 819.273L145.827 820.803L143.667 821.235C143.259 821.319 142.947 821.433 142.731 821.577C142.527 821.709 142.425 821.931 142.425 822.243C142.425 822.543 142.533 822.771 142.749 822.927C142.977 823.083 143.247 823.161 143.559 823.161C143.811 823.161 144.057 823.131 144.297 823.071C144.537 823.011 144.753 822.915 144.945 822.783C145.137 822.651 145.287 822.471 145.395 822.243C145.503 822.015 145.557 821.739 145.557 821.415V818.985ZM150.463 824.727V815.727H152.605L152.767 817.491C153.007 816.867 153.355 816.387 153.811 816.051C154.279 815.715 154.861 815.547 155.557 815.547C155.761 815.547 155.947 815.565 156.115 815.601C156.283 815.637 156.421 815.685 156.529 815.745L156.241 817.815C156.121 817.767 155.971 817.731 155.791 817.707C155.623 817.683 155.401 817.671 155.125 817.671C154.765 817.671 154.417 817.761 154.081 817.941C153.745 818.109 153.469 818.373 153.253 818.733C153.037 819.081 152.929 819.525 152.929 820.065V824.727H150.463ZM160.609 812.973V821.793C160.609 822.225 160.717 822.543 160.933 822.747C161.161 822.939 161.467 823.035 161.851 823.035C162.151 823.035 162.415 822.993 162.643 822.909C162.871 822.813 163.075 822.687 163.255 822.531L163.651 824.169C163.363 824.397 163.003 824.577 162.571 824.709C162.139 824.841 161.683 824.907 161.203 824.907C160.603 824.907 160.069 824.817 159.601 824.637C159.145 824.457 158.785 824.169 158.521 823.773C158.269 823.377 158.143 822.849 158.143 822.189V813.657L160.609 812.973ZM163.489 815.727V817.563H156.487V815.727H163.489ZM172.192 824.727L168.736 812.847H171.382L173.722 822.657L176.098 812.847H178.474L180.886 822.657L183.208 812.847H185.746L182.29 824.727H179.5L177.844 818.247L177.286 815.439H177.25L176.692 818.247L175.054 824.727H172.192ZM191.518 818.985C191.518 818.469 191.368 818.067 191.068 817.779C190.78 817.491 190.396 817.347 189.916 817.347C189.472 817.347 189.082 817.461 188.746 817.689C188.41 817.917 188.164 818.295 188.008 818.823L185.902 818.175C186.106 817.383 186.55 816.747 187.234 816.267C187.93 815.787 188.86 815.547 190.024 815.547C190.816 815.547 191.506 815.673 192.094 815.925C192.682 816.165 193.138 816.531 193.462 817.023C193.798 817.515 193.966 818.133 193.966 818.877V822.531C193.966 822.987 194.182 823.215 194.614 823.215C194.818 823.215 195.01 823.185 195.19 823.125L195.046 824.655C194.734 824.811 194.344 824.889 193.876 824.889C193.456 824.889 193.078 824.817 192.742 824.673C192.406 824.529 192.142 824.313 191.95 824.025C191.758 823.725 191.662 823.353 191.662 822.909V822.837L192.094 822.765C192.022 823.221 191.824 823.611 191.5 823.935C191.176 824.247 190.78 824.487 190.312 824.655C189.856 824.823 189.382 824.907 188.89 824.907C188.278 824.907 187.75 824.817 187.306 824.637C186.862 824.445 186.52 824.169 186.28 823.809C186.04 823.449 185.92 823.005 185.92 822.477C185.92 821.805 186.136 821.259 186.568 820.839C187 820.407 187.618 820.113 188.422 819.957L191.806 819.273L191.788 820.803L189.628 821.235C189.22 821.319 188.908 821.433 188.692 821.577C188.488 821.709 188.386 821.931 188.386 822.243C188.386 822.543 188.494 822.771 188.71 822.927C188.938 823.083 189.208 823.161 189.52 823.161C189.772 823.161 190.018 823.131 190.258 823.071C190.498 823.011 190.714 822.915 190.906 822.783C191.098 822.651 191.248 822.471 191.356 822.243C191.464 822.015 191.518 821.739 191.518 821.415V818.985ZM199.259 812.973V821.793C199.259 822.225 199.367 822.543 199.583 822.747C199.811 822.939 200.117 823.035 200.501 823.035C200.801 823.035 201.065 822.993 201.293 822.909C201.521 822.813 201.725 822.687 201.905 822.531L202.301 824.169C202.013 824.397 201.653 824.577 201.221 824.709C200.789 824.841 200.333 824.907 199.853 824.907C199.253 824.907 198.719 824.817 198.251 824.637C197.795 824.457 197.435 824.169 197.171 823.773C196.919 823.377 196.793 822.849 196.793 822.189V813.657L199.259 812.973ZM202.139 815.727V817.563H195.137V815.727H202.139ZM207.593 815.547C208.397 815.547 209.075 815.667 209.627 815.907C210.191 816.135 210.641 816.453 210.977 816.861C211.325 817.257 211.571 817.701 211.715 818.193L209.411 819.021C209.291 818.481 209.087 818.073 208.799 817.797C208.511 817.521 208.121 817.383 207.629 817.383C207.173 817.383 206.783 817.491 206.459 817.707C206.135 817.911 205.889 818.229 205.721 818.661C205.553 819.081 205.469 819.609 205.469 820.245C205.469 820.881 205.553 821.409 205.721 821.829C205.901 822.249 206.153 822.561 206.477 822.765C206.813 822.969 207.203 823.071 207.647 823.071C208.007 823.071 208.313 823.011 208.565 822.891C208.817 822.759 209.021 822.573 209.177 822.333C209.345 822.093 209.459 821.805 209.519 821.469L211.751 822.189C211.619 822.729 211.373 823.203 211.013 823.611C210.653 824.019 210.191 824.337 209.627 824.565C209.063 824.793 208.409 824.907 207.665 824.907C206.741 824.907 205.925 824.721 205.217 824.349C204.509 823.977 203.963 823.443 203.579 822.747C203.195 822.051 203.003 821.211 203.003 820.227C203.003 819.243 203.195 818.403 203.579 817.707C203.963 817.011 204.503 816.477 205.199 816.105C205.895 815.733 206.693 815.547 207.593 815.547ZM213.367 824.727V811.785H215.833V817.257C216.121 816.681 216.517 816.255 217.021 815.979C217.525 815.691 218.095 815.547 218.731 815.547C219.355 815.547 219.907 815.667 220.387 815.907C220.879 816.147 221.263 816.513 221.539 817.005C221.827 817.485 221.971 818.091 221.971 818.823V824.727H219.505V819.543C219.505 818.763 219.355 818.229 219.055 817.941C218.755 817.641 218.371 817.491 217.903 817.491C217.555 817.491 217.219 817.575 216.895 817.743C216.583 817.899 216.325 818.163 216.121 818.535C215.929 818.895 215.833 819.375 215.833 819.975V824.727H213.367ZM225.454 814.431C224.938 814.431 224.554 814.323 224.302 814.107C224.05 813.879 223.924 813.549 223.924 813.117C223.924 812.673 224.05 812.343 224.302 812.127C224.554 811.899 224.938 811.785 225.454 811.785C225.97 811.785 226.354 811.899 226.606 812.127C226.858 812.343 226.984 812.673 226.984 813.117C226.984 813.549 226.858 813.879 226.606 814.107C226.354 814.323 225.97 814.431 225.454 814.431ZM226.678 815.727V824.727H224.212V815.727H226.678ZM228.992 824.727V815.727H231.206L231.35 818.427L231.044 818.139C231.188 817.551 231.416 817.065 231.728 816.681C232.04 816.297 232.418 816.015 232.862 815.835C233.318 815.643 233.816 815.547 234.356 815.547C234.98 815.547 235.532 815.667 236.012 815.907C236.504 816.147 236.888 816.513 237.164 817.005C237.452 817.485 237.596 818.091 237.596 818.823V824.727H235.13V819.525C235.13 818.757 234.98 818.229 234.68 817.941C234.38 817.641 233.99 817.491 233.51 817.491C233.174 817.491 232.844 817.575 232.52 817.743C232.208 817.899 231.95 818.157 231.746 818.517C231.554 818.877 231.458 819.357 231.458 819.957V824.727H228.992ZM248.134 813.585L248.422 815.349C248.374 815.349 248.32 815.349 248.26 815.349C248.212 815.337 248.158 815.331 248.098 815.331C247.546 815.331 247.132 815.457 246.856 815.709C246.58 815.949 246.442 816.285 246.442 816.717L245.434 816.303C245.434 815.823 245.53 815.379 245.722 814.971C245.914 814.551 246.196 814.215 246.568 813.963C246.952 813.711 247.408 813.585 247.936 813.585C247.96 813.585 247.99 813.585 248.026 813.585C248.062 813.585 248.098 813.585 248.134 813.585ZM245.182 823.035C246.154 823.035 246.904 823.245 247.432 823.665C247.96 824.085 248.224 824.673 248.224 825.429C248.224 826.113 248.026 826.689 247.63 827.157C247.234 827.637 246.676 827.997 245.956 828.237C245.248 828.477 244.426 828.597 243.49 828.597C241.942 828.597 240.808 828.381 240.088 827.949C239.38 827.517 239.026 826.953 239.026 826.257C239.026 825.765 239.212 825.351 239.584 825.015C239.968 824.679 240.598 824.493 241.474 824.457L241.384 824.745C240.76 824.637 240.28 824.433 239.944 824.133C239.62 823.821 239.458 823.395 239.458 822.855C239.458 822.303 239.668 821.853 240.088 821.505C240.52 821.145 241.102 820.935 241.834 820.875L242.914 821.379H242.662C242.146 821.415 241.78 821.523 241.564 821.703C241.36 821.871 241.258 822.063 241.258 822.279C241.258 822.531 241.354 822.723 241.546 822.855C241.75 822.975 242.038 823.035 242.41 823.035H245.182ZM243.508 826.905C244.132 826.905 244.642 826.851 245.038 826.743C245.446 826.635 245.746 826.497 245.938 826.329C246.142 826.161 246.244 825.975 246.244 825.771C246.244 825.543 246.154 825.357 245.974 825.213C245.794 825.081 245.47 825.015 245.002 825.015H241.96C241.672 825.015 241.432 825.087 241.24 825.231C241.06 825.375 240.97 825.573 240.97 825.825C240.97 826.161 241.192 826.425 241.636 826.617C242.092 826.809 242.716 826.905 243.508 826.905ZM243.526 815.547C244.366 815.547 245.092 815.673 245.704 815.925C246.328 816.165 246.802 816.513 247.126 816.969C247.462 817.425 247.63 817.971 247.63 818.607C247.63 819.231 247.462 819.771 247.126 820.227C246.802 820.683 246.328 821.037 245.704 821.289C245.092 821.529 244.366 821.649 243.526 821.649C242.194 821.649 241.174 821.379 240.466 820.839C239.77 820.287 239.422 819.543 239.422 818.607C239.422 817.971 239.584 817.425 239.908 816.969C240.244 816.513 240.718 816.165 241.33 815.925C241.942 815.673 242.674 815.547 243.526 815.547ZM243.526 817.095C243.046 817.095 242.65 817.227 242.338 817.491C242.026 817.755 241.87 818.121 241.87 818.589C241.87 819.057 242.026 819.429 242.338 819.705C242.65 819.969 243.046 820.101 243.526 820.101C244.006 820.101 244.396 819.969 244.696 819.705C245.008 819.429 245.164 819.057 245.164 818.589C245.164 818.121 245.008 817.755 244.696 817.491C244.396 817.227 244.006 817.095 243.526 817.095Z" fill="white"/>
<circle cx="280.872" cy="818.227" r="12" fill="white"/>
<path d="M274.872 812.227L280.872 818.227V812.227H274.872Z" fill="#B31232"/>
<path d="M274.872 824.227L280.872 818.227V824.227H274.872Z" fill="#B31232"/>
<path d="M286.872 818.227L280.872 824.227V818.227H286.872Z" fill="#B31232"/>
<path d="M286.872 818.227L280.872 812.227V818.227H286.872Z" fill="#B31232"/>
<rect x="39.8721" y="791.227" width="332" height="48" rx="8" fill="white"/>
<path d="M161.663 812.311L162.031 811.943C162.137 812.199 162.223 812.465 162.287 812.743C162.351 813.02 162.383 813.345 162.383 813.719C162.383 814.273 162.265 814.764 162.031 815.191C161.796 815.607 161.465 815.969 161.039 816.279C160.612 816.577 160.111 816.833 159.535 817.047L159.519 816.727C159.839 817.057 160.175 817.399 160.527 817.751C160.889 818.092 161.268 818.433 161.663 818.775C162.068 819.116 162.479 819.457 162.895 819.799L161.583 821.015C160.729 820.279 159.988 819.591 159.359 818.951C158.74 818.311 158.233 817.708 157.839 817.143C157.583 816.791 157.396 816.476 157.279 816.199C157.161 815.921 157.103 815.655 157.103 815.399C157.103 815.1 157.199 814.86 157.391 814.679C157.583 814.487 157.844 814.391 158.175 814.391C158.516 814.391 158.836 814.497 159.135 814.711C159.433 814.924 159.743 815.223 160.063 815.607L159.039 815.367C159.551 815.164 159.924 814.908 160.159 814.599C160.393 814.289 160.511 813.911 160.511 813.463C160.511 813.153 160.473 812.86 160.399 812.583C160.324 812.295 160.217 812.076 160.079 811.927L160.863 812.311H156.527V810.775H163.631V812.311H161.663ZM164.366 810.887C164.227 810.641 164.11 810.38 164.014 810.103C163.918 809.815 163.87 809.495 163.87 809.143C163.87 808.545 164.051 808.044 164.414 807.639C164.777 807.233 165.294 806.924 165.966 806.711C166.638 806.497 167.427 806.391 168.334 806.391C169.507 806.391 170.601 806.508 171.614 806.743C172.638 806.977 173.582 807.303 174.446 807.719C175.31 808.124 176.089 808.599 176.782 809.143C177.486 809.687 178.099 810.268 178.622 810.887H176.638C176.115 810.417 175.555 810.007 174.958 809.655C174.371 809.292 173.742 808.983 173.07 808.727C172.409 808.471 171.715 808.279 170.99 808.151C170.265 808.012 169.513 807.943 168.734 807.943C167.774 807.943 167.038 808.081 166.526 808.359C166.014 808.636 165.758 809.036 165.758 809.559C165.758 809.836 165.801 810.087 165.886 810.311C165.982 810.524 166.099 810.716 166.238 810.887H164.366ZM166.27 812.311V820.727H164.398V812.311H163.086V810.775H167.806V812.311H166.27ZM178.294 812.311V820.727H176.406V815.271H174.886C174.609 815.271 174.369 815.265 174.166 815.255C173.963 815.244 173.809 815.223 173.702 815.191L173.03 814.647C173.606 814.988 174.065 815.383 174.406 815.831C174.747 816.268 174.918 816.775 174.918 817.351C174.918 817.841 174.801 818.257 174.566 818.599C174.342 818.94 174.038 819.196 173.654 819.367C173.281 819.537 172.854 819.623 172.374 819.623C171.905 819.623 171.457 819.537 171.03 819.367C170.603 819.196 170.193 818.919 169.798 818.535C169.414 818.14 169.046 817.617 168.694 816.967C168.342 816.305 167.995 815.489 167.654 814.519L169.238 813.943C169.537 814.849 169.835 815.607 170.134 816.215C170.443 816.823 170.763 817.281 171.094 817.591C171.425 817.9 171.766 818.055 172.118 818.055C172.395 818.055 172.625 817.98 172.806 817.831C172.987 817.681 173.078 817.431 173.078 817.079C173.078 816.673 172.939 816.3 172.662 815.959C172.385 815.607 172.022 815.287 171.574 814.999L172.086 813.767H176.406V812.311H167.286V810.775H179.83V812.311H178.294ZM183.779 821.047C182.926 820.193 182.206 819.409 181.619 818.695C181.032 817.98 180.6 817.377 180.323 816.887C180.163 816.599 180.046 816.337 179.971 816.103C179.896 815.868 179.859 815.644 179.859 815.431C179.859 815.121 179.95 814.871 180.131 814.679C180.323 814.487 180.59 814.391 180.931 814.391C181.294 814.391 181.619 814.508 181.907 814.743C182.206 814.977 182.499 815.265 182.787 815.607L181.683 815.463C182.11 815.26 182.403 814.993 182.563 814.663C182.723 814.321 182.803 813.943 182.803 813.527C182.803 813.185 182.76 812.876 182.675 812.599C182.6 812.311 182.499 812.081 182.371 811.911L183.315 812.311H179.283V810.775H187.507V812.311H183.875L184.307 811.927C184.424 812.183 184.515 812.46 184.579 812.759C184.654 813.047 184.691 813.372 184.691 813.735C184.691 814.161 184.622 814.545 184.483 814.887C184.344 815.228 184.158 815.527 183.923 815.783L183.763 815.975C183.571 816.199 183.342 816.391 183.075 816.551C182.808 816.711 182.494 816.86 182.131 816.999V816.759C182.387 817.089 182.675 817.425 182.995 817.767C183.315 818.108 183.656 818.455 184.019 818.807C184.392 819.159 184.776 819.516 185.171 819.879L183.779 821.047ZM186.083 817.255C185.582 817.255 185.054 817.191 184.499 817.063C183.944 816.924 183.411 816.7 182.899 816.391L183.539 815.207C183.966 815.388 184.371 815.516 184.755 815.591C185.139 815.665 185.544 815.703 185.971 815.703C186.27 815.703 186.558 815.692 186.835 815.671C187.112 815.639 187.406 815.601 187.715 815.559L187.779 817.047C187.502 817.132 187.224 817.191 186.947 817.223C186.68 817.244 186.392 817.255 186.083 817.255ZM194.17 812.311H192.314V815.335H190.746C189.86 815.335 189.188 815.484 188.73 815.783C188.271 816.081 188.042 816.561 188.042 817.223C188.042 817.841 188.255 818.311 188.682 818.631C189.108 818.951 189.636 819.111 190.266 819.111C190.756 819.111 191.21 819.031 191.626 818.871C192.052 818.711 192.5 818.471 192.97 818.151L193.674 819.559C193.226 819.943 192.719 820.236 192.154 820.439C191.599 820.631 190.954 820.727 190.218 820.727C189.428 820.727 188.73 820.588 188.122 820.311C187.514 820.023 187.034 819.612 186.682 819.079C186.34 818.545 186.17 817.911 186.17 817.175C186.17 816.055 186.538 815.223 187.274 814.679C188.02 814.124 189.071 813.847 190.426 813.847H190.986L190.442 814.263V812.311H185.546V810.775H194.17V812.311ZM198.788 812.311L199.156 811.943C199.262 812.199 199.348 812.465 199.412 812.743C199.476 813.02 199.508 813.345 199.508 813.719C199.508 814.273 199.39 814.764 199.156 815.191C198.921 815.607 198.59 815.969 198.164 816.279C197.737 816.577 197.236 816.833 196.66 817.047L196.644 816.727C196.964 817.057 197.3 817.399 197.652 817.751C198.014 818.092 198.393 818.433 198.788 818.775C199.193 819.116 199.604 819.457 200.02 819.799L198.708 821.015C197.854 820.279 197.113 819.591 196.484 818.951C195.865 818.311 195.358 817.708 194.964 817.143C194.708 816.791 194.521 816.476 194.404 816.199C194.286 815.921 194.228 815.655 194.228 815.399C194.228 815.1 194.324 814.86 194.516 814.679C194.708 814.487 194.969 814.391 195.3 814.391C195.641 814.391 195.961 814.497 196.26 814.711C196.558 814.924 196.868 815.223 197.188 815.607L196.164 815.367C196.676 815.164 197.049 814.908 197.284 814.599C197.518 814.289 197.636 813.911 197.636 813.463C197.636 813.153 197.598 812.86 197.524 812.583C197.449 812.295 197.342 812.076 197.204 811.927L197.988 812.311H193.652V810.775H200.756V812.311H198.788ZM217.203 812.311H212.003V815.431L211.779 815.079C212.014 814.855 212.297 814.673 212.627 814.535C212.969 814.396 213.353 814.327 213.779 814.327C214.59 814.327 215.225 814.567 215.683 815.047C216.153 815.516 216.387 816.167 216.387 816.999C216.387 817.532 216.286 818.06 216.083 818.583C215.891 819.095 215.566 819.628 215.107 820.183L213.475 819.255C213.795 818.903 214.046 818.551 214.227 818.199C214.419 817.836 214.515 817.447 214.515 817.031C214.515 816.636 214.425 816.343 214.243 816.151C214.062 815.948 213.806 815.847 213.475 815.847C213.155 815.847 212.857 815.948 212.579 816.151C212.313 816.343 212.099 816.593 211.939 816.903L212.003 816.407V820.727H210.131V817.575L210.595 818.071C210.361 818.284 210.105 818.471 209.827 818.631C209.561 818.78 209.262 818.897 208.931 818.983C208.611 819.068 208.265 819.111 207.891 819.111C207.283 819.111 206.734 819.004 206.243 818.791C205.763 818.567 205.385 818.247 205.107 817.831C204.83 817.404 204.691 816.881 204.691 816.263C204.691 815.367 204.99 814.673 205.587 814.183C206.185 813.692 207.017 813.447 208.083 813.447C208.361 813.447 208.627 813.463 208.883 813.495C209.139 813.516 209.385 813.553 209.619 813.607L209.459 815.143C209.289 815.1 209.102 815.068 208.899 815.047C208.697 815.025 208.489 815.015 208.275 815.015C207.731 815.015 207.31 815.127 207.011 815.351C206.723 815.575 206.579 815.895 206.579 816.311C206.579 816.727 206.713 817.041 206.979 817.255C207.246 817.457 207.587 817.559 208.003 817.559C208.505 817.559 208.958 817.42 209.363 817.143C209.769 816.865 210.078 816.551 210.291 816.199L210.131 817.351V812.311H204.067V810.775H217.203V812.311ZM221.794 812.311L222.162 811.943C222.269 812.199 222.354 812.465 222.418 812.743C222.482 813.02 222.514 813.345 222.514 813.719C222.514 814.273 222.397 814.764 222.162 815.191C221.927 815.607 221.597 815.969 221.17 816.279C220.743 816.577 220.242 816.833 219.666 817.047L219.65 816.727C219.97 817.057 220.306 817.399 220.658 817.751C221.021 818.092 221.399 818.433 221.794 818.775C222.199 819.116 222.61 819.457 223.026 819.799L221.714 821.015C220.861 820.279 220.119 819.591 219.49 818.951C218.871 818.311 218.365 817.708 217.97 817.143C217.714 816.791 217.527 816.476 217.41 816.199C217.293 815.921 217.234 815.655 217.234 815.399C217.234 815.1 217.33 814.86 217.522 814.679C217.714 814.487 217.975 814.391 218.306 814.391C218.647 814.391 218.967 814.497 219.266 814.711C219.565 814.924 219.874 815.223 220.194 815.607L219.17 815.367C219.682 815.164 220.055 814.908 220.29 814.599C220.525 814.289 220.642 813.911 220.642 813.463C220.642 813.153 220.605 812.86 220.53 812.583C220.455 812.295 220.349 812.076 220.21 811.927L220.994 812.311H216.658V810.775H223.762V812.311H221.794ZM221.125 807.623C221.125 807.324 221.226 807.073 221.429 806.871C221.631 806.668 221.877 806.567 222.165 806.567C222.453 806.567 222.698 806.668 222.901 806.871C223.093 807.073 223.189 807.324 223.189 807.623C223.189 807.911 223.093 808.161 222.901 808.375C222.698 808.577 222.453 808.679 222.165 808.679C221.877 808.679 221.631 808.577 221.429 808.375C221.226 808.161 221.125 807.911 221.125 807.623ZM219.941 810.887C219.749 810.268 219.578 809.767 219.429 809.383C219.269 808.999 219.114 808.705 218.965 808.503C218.815 808.3 218.655 808.161 218.485 808.087C218.303 808.001 218.09 807.959 217.845 807.959C217.642 807.959 217.434 807.985 217.221 808.039C216.997 808.081 216.789 808.14 216.597 808.215L216.133 806.695C216.389 806.599 216.671 806.524 216.981 806.471C217.279 806.417 217.578 806.391 217.877 806.391C218.357 806.391 218.773 806.46 219.125 806.599C219.466 806.727 219.775 806.961 220.053 807.303C220.319 807.633 220.575 808.092 220.821 808.679C221.055 809.255 221.311 809.991 221.589 810.887H219.941Z" fill="black"/>
<g clip-path="url(#clip2_24322_9267)">
<path d="M246.705 809.393C246.705 810.011 247.316 810.934 247.935 811.709C248.73 812.709 249.68 813.582 250.769 814.248C251.585 814.747 252.575 815.226 253.372 815.226M253.372 815.226C252.575 815.226 251.585 815.705 250.769 816.204C249.68 816.871 248.73 817.743 247.935 818.742C247.316 819.518 246.705 820.443 246.705 821.059M253.372 815.226H233.372" stroke="black" stroke-width="1.5"/>
</g>

<defs>
<clipPath id="clip2_24322_9267">
<rect width="20" height="20" fill="white" transform="matrix(-1 0 0 1 253.372 805.227)"/>
</clipPath>

</defs>
</svg>