<svg width="328" height="60" viewBox="0 0 328 60" fill="none" xmlns="http://www.w3.org/2000/svg">
<rect y="6" width="328" height="54" rx="12" fill="#016D19"/>
<path d="M84.3389 27.44C85.4189 27.44 86.3669 27.626 87.1829 27.998C87.9989 28.37 88.6949 28.922 89.2709 29.654L87.8849 31.256C87.3929 30.632 86.8529 30.176 86.2649 29.888C85.6889 29.588 85.0169 29.438 84.2489 29.438C83.7449 29.438 83.3249 29.504 82.9889 29.636C82.6649 29.768 82.4249 29.942 82.2689 30.158C82.1249 30.374 82.0529 30.614 82.0529 30.878C82.0529 31.202 82.1789 31.478 82.4309 31.706C82.6829 31.922 83.1149 32.102 83.7269 32.246L85.9409 32.75C87.1169 33.014 87.9569 33.41 88.4609 33.938C88.9769 34.454 89.2349 35.126 89.2349 35.954C89.2349 36.734 89.0309 37.406 88.6229 37.97C88.2149 38.522 87.6449 38.948 86.9129 39.248C86.1809 39.536 85.3409 39.68 84.3929 39.68C83.5649 39.68 82.8029 39.584 82.1069 39.392C81.4229 39.188 80.8109 38.912 80.2709 38.564C79.7309 38.216 79.2809 37.814 78.9209 37.358L80.3249 35.684C80.6009 36.068 80.9429 36.41 81.3509 36.71C81.7589 37.01 82.2209 37.25 82.7369 37.43C83.2649 37.598 83.8169 37.682 84.3929 37.682C84.8849 37.682 85.2989 37.628 85.6349 37.52C85.9829 37.4 86.2409 37.238 86.4089 37.034C86.5889 36.818 86.6789 36.56 86.6789 36.26C86.6789 35.948 86.5709 35.684 86.3549 35.468C86.1509 35.24 85.7669 35.066 85.2029 34.946L82.7909 34.406C82.0949 34.238 81.4949 34.022 80.9909 33.758C80.4989 33.482 80.1209 33.134 79.8569 32.714C79.6049 32.282 79.4789 31.772 79.4789 31.184C79.4789 30.476 79.6709 29.84 80.0549 29.276C80.4389 28.712 80.9909 28.268 81.7109 27.944C82.4429 27.608 83.3189 27.44 84.3389 27.44ZM94.2189 27.746V36.566C94.2189 36.998 94.3269 37.316 94.5429 37.52C94.7709 37.712 95.0769 37.808 95.4609 37.808C95.7609 37.808 96.0249 37.766 96.2529 37.682C96.4809 37.586 96.6849 37.46 96.8649 37.304L97.2609 38.942C96.9729 39.17 96.6129 39.35 96.1809 39.482C95.7489 39.614 95.2929 39.68 94.8129 39.68C94.2129 39.68 93.6789 39.59 93.2109 39.41C92.7549 39.23 92.3949 38.942 92.1309 38.546C91.8789 38.15 91.7529 37.622 91.7529 36.962V28.43L94.2189 27.746ZM97.0989 30.5V32.336H90.0969V30.5H97.0989ZM103.685 33.758C103.685 33.242 103.535 32.84 103.235 32.552C102.947 32.264 102.563 32.12 102.083 32.12C101.639 32.12 101.249 32.234 100.913 32.462C100.577 32.69 100.331 33.068 100.175 33.596L98.0692 32.948C98.2732 32.156 98.7172 31.52 99.4012 31.04C100.097 30.56 101.027 30.32 102.191 30.32C102.983 30.32 103.673 30.446 104.261 30.698C104.849 30.938 105.305 31.304 105.629 31.796C105.965 32.288 106.133 32.906 106.133 33.65V37.304C106.133 37.76 106.349 37.988 106.781 37.988C106.985 37.988 107.177 37.958 107.357 37.898L107.213 39.428C106.901 39.584 106.511 39.662 106.043 39.662C105.623 39.662 105.245 39.59 104.909 39.446C104.573 39.302 104.309 39.086 104.117 38.798C103.925 38.498 103.829 38.126 103.829 37.682V37.61L104.261 37.538C104.189 37.994 103.991 38.384 103.667 38.708C103.343 39.02 102.947 39.26 102.479 39.428C102.023 39.596 101.549 39.68 101.057 39.68C100.445 39.68 99.9172 39.59 99.4732 39.41C99.0292 39.218 98.6872 38.942 98.4472 38.582C98.2072 38.222 98.0872 37.778 98.0872 37.25C98.0872 36.578 98.3032 36.032 98.7352 35.612C99.1672 35.18 99.7852 34.886 100.589 34.73L103.973 34.046L103.955 35.576L101.795 36.008C101.387 36.092 101.075 36.206 100.859 36.35C100.655 36.482 100.553 36.704 100.553 37.016C100.553 37.316 100.661 37.544 100.877 37.7C101.105 37.856 101.375 37.934 101.687 37.934C101.939 37.934 102.185 37.904 102.425 37.844C102.665 37.784 102.881 37.688 103.073 37.556C103.265 37.424 103.415 37.244 103.523 37.016C103.631 36.788 103.685 36.512 103.685 36.188V33.758ZM108.591 39.5V30.5H110.733L110.895 32.264C111.135 31.64 111.483 31.16 111.939 30.824C112.407 30.488 112.989 30.32 113.685 30.32C113.889 30.32 114.075 30.338 114.243 30.374C114.411 30.41 114.549 30.458 114.657 30.518L114.369 32.588C114.249 32.54 114.099 32.504 113.919 32.48C113.751 32.456 113.529 32.444 113.253 32.444C112.893 32.444 112.545 32.534 112.209 32.714C111.873 32.882 111.597 33.146 111.381 33.506C111.165 33.854 111.057 34.298 111.057 34.838V39.5H108.591ZM118.737 27.746V36.566C118.737 36.998 118.845 37.316 119.061 37.52C119.289 37.712 119.595 37.808 119.979 37.808C120.279 37.808 120.543 37.766 120.771 37.682C120.999 37.586 121.203 37.46 121.383 37.304L121.779 38.942C121.491 39.17 121.131 39.35 120.699 39.482C120.267 39.614 119.811 39.68 119.331 39.68C118.731 39.68 118.197 39.59 117.729 39.41C117.273 39.23 116.913 38.942 116.649 38.546C116.397 38.15 116.271 37.622 116.271 36.962V28.43L118.737 27.746ZM121.617 30.5V32.336H114.615V30.5H121.617ZM130.32 39.5L126.864 27.62H129.51L131.85 37.43L134.226 27.62H136.602L139.014 37.43L141.336 27.62H143.874L140.418 39.5H137.628L135.972 33.02L135.414 30.212H135.378L134.82 33.02L133.182 39.5H130.32ZM149.646 33.758C149.646 33.242 149.496 32.84 149.196 32.552C148.908 32.264 148.524 32.12 148.044 32.12C147.6 32.12 147.21 32.234 146.874 32.462C146.538 32.69 146.292 33.068 146.136 33.596L144.03 32.948C144.234 32.156 144.678 31.52 145.362 31.04C146.058 30.56 146.988 30.32 148.152 30.32C148.944 30.32 149.634 30.446 150.222 30.698C150.81 30.938 151.266 31.304 151.59 31.796C151.926 32.288 152.094 32.906 152.094 33.65V37.304C152.094 37.76 152.31 37.988 152.742 37.988C152.946 37.988 153.138 37.958 153.318 37.898L153.174 39.428C152.862 39.584 152.472 39.662 152.004 39.662C151.584 39.662 151.206 39.59 150.87 39.446C150.534 39.302 150.27 39.086 150.078 38.798C149.886 38.498 149.79 38.126 149.79 37.682V37.61L150.222 37.538C150.15 37.994 149.952 38.384 149.628 38.708C149.304 39.02 148.908 39.26 148.44 39.428C147.984 39.596 147.51 39.68 147.018 39.68C146.406 39.68 145.878 39.59 145.434 39.41C144.99 39.218 144.648 38.942 144.408 38.582C144.168 38.222 144.048 37.778 144.048 37.25C144.048 36.578 144.264 36.032 144.696 35.612C145.128 35.18 145.746 34.886 146.55 34.73L149.934 34.046L149.916 35.576L147.756 36.008C147.348 36.092 147.036 36.206 146.82 36.35C146.616 36.482 146.514 36.704 146.514 37.016C146.514 37.316 146.622 37.544 146.838 37.7C147.066 37.856 147.336 37.934 147.648 37.934C147.9 37.934 148.146 37.904 148.386 37.844C148.626 37.784 148.842 37.688 149.034 37.556C149.226 37.424 149.376 37.244 149.484 37.016C149.592 36.788 149.646 36.512 149.646 36.188V33.758ZM157.386 27.746V36.566C157.386 36.998 157.494 37.316 157.71 37.52C157.938 37.712 158.244 37.808 158.628 37.808C158.928 37.808 159.192 37.766 159.42 37.682C159.648 37.586 159.852 37.46 160.032 37.304L160.428 38.942C160.14 39.17 159.78 39.35 159.348 39.482C158.916 39.614 158.46 39.68 157.98 39.68C157.38 39.68 156.846 39.59 156.378 39.41C155.922 39.23 155.562 38.942 155.298 38.546C155.046 38.15 154.92 37.622 154.92 36.962V28.43L157.386 27.746ZM160.266 30.5V32.336H153.264V30.5H160.266ZM165.721 30.32C166.525 30.32 167.203 30.44 167.755 30.68C168.319 30.908 168.769 31.226 169.105 31.634C169.453 32.03 169.699 32.474 169.843 32.966L167.539 33.794C167.419 33.254 167.215 32.846 166.927 32.57C166.639 32.294 166.249 32.156 165.757 32.156C165.301 32.156 164.911 32.264 164.587 32.48C164.263 32.684 164.017 33.002 163.849 33.434C163.681 33.854 163.597 34.382 163.597 35.018C163.597 35.654 163.681 36.182 163.849 36.602C164.029 37.022 164.281 37.334 164.605 37.538C164.941 37.742 165.331 37.844 165.775 37.844C166.135 37.844 166.441 37.784 166.693 37.664C166.945 37.532 167.149 37.346 167.305 37.106C167.473 36.866 167.587 36.578 167.647 36.242L169.879 36.962C169.747 37.502 169.501 37.976 169.141 38.384C168.781 38.792 168.319 39.11 167.755 39.338C167.191 39.566 166.537 39.68 165.793 39.68C164.869 39.68 164.053 39.494 163.345 39.122C162.637 38.75 162.091 38.216 161.707 37.52C161.323 36.824 161.131 35.984 161.131 35C161.131 34.016 161.323 33.176 161.707 32.48C162.091 31.784 162.631 31.25 163.327 30.878C164.023 30.506 164.821 30.32 165.721 30.32ZM171.495 39.5V26.558H173.961V32.03C174.249 31.454 174.645 31.028 175.149 30.752C175.653 30.464 176.223 30.32 176.859 30.32C177.483 30.32 178.035 30.44 178.515 30.68C179.007 30.92 179.391 31.286 179.667 31.778C179.955 32.258 180.099 32.864 180.099 33.596V39.5H177.633V34.316C177.633 33.536 177.483 33.002 177.183 32.714C176.883 32.414 176.499 32.264 176.031 32.264C175.683 32.264 175.347 32.348 175.023 32.516C174.711 32.672 174.453 32.936 174.249 33.308C174.057 33.668 173.961 34.148 173.961 34.748V39.5H171.495ZM183.582 29.204C183.066 29.204 182.682 29.096 182.43 28.88C182.178 28.652 182.052 28.322 182.052 27.89C182.052 27.446 182.178 27.116 182.43 26.9C182.682 26.672 183.066 26.558 183.582 26.558C184.098 26.558 184.482 26.672 184.734 26.9C184.986 27.116 185.112 27.446 185.112 27.89C185.112 28.322 184.986 28.652 184.734 28.88C184.482 29.096 184.098 29.204 183.582 29.204ZM184.806 30.5V39.5H182.34V30.5H184.806ZM187.12 39.5V30.5H189.334L189.478 33.2L189.172 32.912C189.316 32.324 189.544 31.838 189.856 31.454C190.168 31.07 190.546 30.788 190.99 30.608C191.446 30.416 191.944 30.32 192.484 30.32C193.108 30.32 193.66 30.44 194.14 30.68C194.632 30.92 195.016 31.286 195.292 31.778C195.58 32.258 195.724 32.864 195.724 33.596V39.5H193.258V34.298C193.258 33.53 193.108 33.002 192.808 32.714C192.508 32.414 192.118 32.264 191.638 32.264C191.302 32.264 190.972 32.348 190.648 32.516C190.336 32.672 190.078 32.93 189.874 33.29C189.682 33.65 189.586 34.13 189.586 34.73V39.5H187.12ZM206.262 28.358L206.55 30.122C206.502 30.122 206.448 30.122 206.388 30.122C206.34 30.11 206.286 30.104 206.226 30.104C205.674 30.104 205.26 30.23 204.984 30.482C204.708 30.722 204.57 31.058 204.57 31.49L203.562 31.076C203.562 30.596 203.658 30.152 203.85 29.744C204.042 29.324 204.324 28.988 204.696 28.736C205.08 28.484 205.536 28.358 206.064 28.358C206.088 28.358 206.118 28.358 206.154 28.358C206.19 28.358 206.226 28.358 206.262 28.358ZM203.31 37.808C204.282 37.808 205.032 38.018 205.56 38.438C206.088 38.858 206.352 39.446 206.352 40.202C206.352 40.886 206.154 41.462 205.758 41.93C205.362 42.41 204.804 42.77 204.084 43.01C203.376 43.25 202.554 43.37 201.618 43.37C200.07 43.37 198.936 43.154 198.216 42.722C197.508 42.29 197.154 41.726 197.154 41.03C197.154 40.538 197.34 40.124 197.712 39.788C198.096 39.452 198.726 39.266 199.602 39.23L199.512 39.518C198.888 39.41 198.408 39.206 198.072 38.906C197.748 38.594 197.586 38.168 197.586 37.628C197.586 37.076 197.796 36.626 198.216 36.278C198.648 35.918 199.23 35.708 199.962 35.648L201.042 36.152H200.79C200.274 36.188 199.908 36.296 199.692 36.476C199.488 36.644 199.386 36.836 199.386 37.052C199.386 37.304 199.482 37.496 199.674 37.628C199.878 37.748 200.166 37.808 200.538 37.808H203.31ZM201.636 41.678C202.26 41.678 202.77 41.624 203.166 41.516C203.574 41.408 203.874 41.27 204.066 41.102C204.27 40.934 204.372 40.748 204.372 40.544C204.372 40.316 204.282 40.13 204.102 39.986C203.922 39.854 203.598 39.788 203.13 39.788H200.088C199.8 39.788 199.56 39.86 199.368 40.004C199.188 40.148 199.098 40.346 199.098 40.598C199.098 40.934 199.32 41.198 199.764 41.39C200.22 41.582 200.844 41.678 201.636 41.678ZM201.654 30.32C202.494 30.32 203.22 30.446 203.832 30.698C204.456 30.938 204.93 31.286 205.254 31.742C205.59 32.198 205.758 32.744 205.758 33.38C205.758 34.004 205.59 34.544 205.254 35C204.93 35.456 204.456 35.81 203.832 36.062C203.22 36.302 202.494 36.422 201.654 36.422C200.322 36.422 199.302 36.152 198.594 35.612C197.898 35.06 197.55 34.316 197.55 33.38C197.55 32.744 197.712 32.198 198.036 31.742C198.372 31.286 198.846 30.938 199.458 30.698C200.07 30.446 200.802 30.32 201.654 30.32ZM201.654 31.868C201.174 31.868 200.778 32 200.466 32.264C200.154 32.528 199.998 32.894 199.998 33.362C199.998 33.83 200.154 34.202 200.466 34.478C200.778 34.742 201.174 34.874 201.654 34.874C202.134 34.874 202.524 34.742 202.824 34.478C203.136 34.202 203.292 33.83 203.292 33.362C203.292 32.894 203.136 32.528 202.824 32.264C202.524 32 202.134 31.868 201.654 31.868Z" fill="white"/>
<circle cx="239" cy="33" r="12" fill="white"/>
<path d="M233 27L239 33V27H233Z" fill="#B31232"/>
<path d="M233 39L239 33V39H233Z" fill="#B31232"/>
<path d="M245 33L239 39V33H245Z" fill="#B31232"/>
<path d="M245 33L239 27V33H245Z" fill="#B31232"/>
<rect width="328" height="54" rx="12" fill="#248B3B"/>
<path fill-rule="evenodd" clip-rule="evenodd" d="M85 39C78.3724 39 73 33.6276 73 27C73 20.3724 78.3724 15 85 15C91.6276 15 97 20.3724 97 27C97 33.6276 91.6276 39 85 39ZM83.5876 29.568L80.2696 26.2476L79 27.5172L82.7428 31.2624C82.9678 31.4874 83.273 31.6137 83.5912 31.6137C83.9094 31.6137 84.2146 31.4874 84.4396 31.2624L91.582 24.1224L90.3076 22.848L83.5876 29.568Z" fill="white"/>
<path d="M118.5 24.032V33.5H116.376V24.032H115.188V22.304H120.246V24.032H118.5ZM110.994 22.124C111.726 22.124 112.32 22.25 112.776 22.502C113.244 22.742 113.58 23.072 113.784 23.492C114 23.9 114.108 24.356 114.108 24.86C114.108 25.76 113.754 26.486 113.046 27.038C112.35 27.59 111.276 27.92 109.824 28.028L109.5 26.39C110.184 26.318 110.706 26.222 111.066 26.102C111.438 25.97 111.696 25.808 111.84 25.616C111.984 25.424 112.056 25.196 112.056 24.932C112.056 24.596 111.942 24.338 111.714 24.158C111.498 23.978 111.186 23.888 110.778 23.888C110.406 23.888 110.034 23.942 109.662 24.05C109.29 24.158 108.918 24.32 108.546 24.536L107.952 22.88C108.384 22.64 108.852 22.454 109.356 22.322C109.872 22.19 110.418 22.124 110.994 22.124ZM114.396 29.576C114.396 30.5 114.09 31.226 113.478 31.754C112.878 32.27 112.08 32.528 111.084 32.528C110.316 32.528 109.62 32.372 108.996 32.06C108.384 31.736 107.814 31.202 107.286 30.458C106.758 29.714 106.236 28.694 105.72 27.398L107.43 26.606C107.946 27.998 108.468 29.036 108.996 29.72C109.524 30.404 110.142 30.746 110.85 30.746C111.318 30.746 111.69 30.626 111.966 30.386C112.242 30.146 112.38 29.798 112.38 29.342C112.38 28.898 112.218 28.502 111.894 28.154C111.57 27.794 111.168 27.476 110.688 27.2L111.696 26.804L112.758 26.732C112.938 26.864 113.118 27.02 113.298 27.2C113.49 27.38 113.646 27.566 113.766 27.758L113.946 28.082C114.09 28.298 114.198 28.532 114.27 28.784C114.354 29.036 114.396 29.3 114.396 29.576ZM114.594 27.164C115.038 27.164 115.482 27.122 115.926 27.038C116.37 26.942 116.814 26.786 117.258 26.57L117.33 28.37C116.958 28.538 116.58 28.658 116.196 28.73C115.812 28.802 115.422 28.838 115.026 28.838C114.666 28.838 114.3 28.808 113.928 28.748C113.556 28.676 113.208 28.592 112.884 28.496L112.578 27.182L112.74 26.93C113.016 27.002 113.31 27.062 113.622 27.11C113.946 27.146 114.27 27.164 114.594 27.164ZM123.558 24.032V33.5H121.452V24.032H119.976V22.304H125.286V24.032H123.558ZM133.979 24.032V33.5H131.873V29.18L132.503 29.864C132.143 30.152 131.705 30.386 131.189 30.566C130.685 30.746 130.157 30.836 129.605 30.836C128.813 30.836 128.147 30.698 127.607 30.422C127.067 30.146 126.659 29.732 126.383 29.18C126.119 28.628 125.987 27.944 125.987 27.128V24.032H124.709V22.304H135.725V24.032H133.979ZM131.873 24.032H128.093V27.128C128.093 27.584 128.153 27.956 128.273 28.244C128.393 28.532 128.573 28.748 128.813 28.892C129.053 29.024 129.353 29.09 129.713 29.09C130.217 29.09 130.697 28.946 131.153 28.658C131.609 28.358 131.975 28.028 132.251 27.668L131.873 28.928V24.032ZM146.129 24.032L146.543 23.618C146.663 23.906 146.759 24.206 146.831 24.518C146.903 24.83 146.939 25.196 146.939 25.616C146.939 26.24 146.807 26.792 146.543 27.272C146.279 27.74 145.907 28.148 145.427 28.496C144.947 28.832 144.383 29.12 143.735 29.36L143.717 29C144.077 29.372 144.455 29.756 144.851 30.152C145.259 30.536 145.685 30.92 146.129 31.304C146.585 31.688 147.047 32.072 147.515 32.456L146.039 33.824C145.079 32.996 144.245 32.222 143.537 31.502C142.841 30.782 142.271 30.104 141.827 29.468C141.539 29.072 141.329 28.718 141.197 28.406C141.065 28.094 140.999 27.794 140.999 27.506C140.999 27.17 141.107 26.9 141.323 26.696C141.539 26.48 141.833 26.372 142.205 26.372C142.589 26.372 142.949 26.492 143.285 26.732C143.621 26.972 143.969 27.308 144.329 27.74L143.177 27.47C143.753 27.242 144.173 26.954 144.437 26.606C144.701 26.258 144.833 25.832 144.833 25.328C144.833 24.98 144.791 24.65 144.707 24.338C144.623 24.014 144.503 23.768 144.347 23.6L145.229 24.032H140.351V22.304H148.343V24.032H146.129ZM149.208 22.43C149.052 22.154 148.92 21.86 148.812 21.548C148.704 21.224 148.65 20.864 148.65 20.468C148.65 19.796 148.854 19.232 149.262 18.776C149.67 18.32 150.252 17.972 151.008 17.732C151.764 17.492 152.652 17.372 153.672 17.372C154.992 17.372 156.222 17.504 157.362 17.768C158.514 18.032 159.576 18.398 160.548 18.866C161.52 19.322 162.396 19.856 163.176 20.468C163.968 21.08 164.658 21.734 165.246 22.43H163.014C162.426 21.902 161.796 21.44 161.124 21.044C160.464 20.636 159.756 20.288 159 20C158.256 19.712 157.476 19.496 156.66 19.352C155.844 19.196 154.998 19.118 154.122 19.118C153.042 19.118 152.214 19.274 151.638 19.586C151.062 19.898 150.774 20.348 150.774 20.936C150.774 21.248 150.822 21.53 150.918 21.782C151.026 22.022 151.158 22.238 151.314 22.43H149.208ZM151.35 24.032V33.5H149.244V24.032H147.768V22.304H153.078V24.032H151.35ZM164.915 24.032V33.5H162.791V27.362H161.081C160.769 27.362 160.499 27.356 160.271 27.344C160.043 27.332 159.869 27.308 159.749 27.272L158.993 26.66C159.641 27.044 160.157 27.488 160.541 27.992C160.925 28.484 161.117 29.054 161.117 29.702C161.117 30.254 160.985 30.722 160.721 31.106C160.469 31.49 160.127 31.778 159.695 31.97C159.275 32.162 158.795 32.258 158.255 32.258C157.727 32.258 157.223 32.162 156.743 31.97C156.263 31.778 155.801 31.466 155.357 31.034C154.925 30.59 154.511 30.002 154.115 29.27C153.719 28.526 153.329 27.608 152.945 26.516L154.727 25.868C155.063 26.888 155.399 27.74 155.735 28.424C156.083 29.108 156.443 29.624 156.815 29.972C157.187 30.32 157.571 30.494 157.967 30.494C158.279 30.494 158.537 30.41 158.741 30.242C158.945 30.074 159.047 29.792 159.047 29.396C159.047 28.94 158.891 28.52 158.579 28.136C158.267 27.74 157.859 27.38 157.355 27.056L157.931 25.67H162.791V24.032H152.531V22.304H166.643V24.032H164.915ZM171.123 33.86C170.163 32.9 169.353 32.018 168.693 31.214C168.033 30.41 167.547 29.732 167.235 29.18C167.055 28.856 166.923 28.562 166.839 28.298C166.755 28.034 166.713 27.782 166.713 27.542C166.713 27.194 166.815 26.912 167.019 26.696C167.235 26.48 167.535 26.372 167.919 26.372C168.327 26.372 168.693 26.504 169.017 26.768C169.353 27.032 169.683 27.356 170.007 27.74L168.765 27.578C169.245 27.35 169.575 27.05 169.755 26.678C169.935 26.294 170.025 25.868 170.025 25.4C170.025 25.016 169.977 24.668 169.881 24.356C169.797 24.032 169.683 23.774 169.539 23.582L170.601 24.032H166.065V22.304H175.317V24.032H171.231L171.717 23.6C171.849 23.888 171.951 24.2 172.023 24.536C172.107 24.86 172.149 25.226 172.149 25.634C172.149 26.114 172.071 26.546 171.915 26.93C171.759 27.314 171.549 27.65 171.285 27.938L171.105 28.154C170.889 28.406 170.631 28.622 170.331 28.802C170.031 28.982 169.677 29.15 169.269 29.306V29.036C169.557 29.408 169.881 29.786 170.241 30.17C170.601 30.554 170.985 30.944 171.393 31.34C171.813 31.736 172.245 32.138 172.689 32.546L171.123 33.86ZM173.715 29.594C173.151 29.594 172.557 29.522 171.933 29.378C171.309 29.222 170.709 28.97 170.133 28.622L170.853 27.29C171.333 27.494 171.789 27.638 172.221 27.722C172.653 27.806 173.109 27.848 173.589 27.848C173.925 27.848 174.249 27.836 174.561 27.812C174.873 27.776 175.203 27.734 175.551 27.686L175.623 29.36C175.311 29.456 174.999 29.522 174.687 29.558C174.387 29.582 174.063 29.594 173.715 29.594ZM182.849 24.032H180.761V27.434H178.997C178.001 27.434 177.245 27.602 176.729 27.938C176.213 28.274 175.955 28.814 175.955 29.558C175.955 30.254 176.195 30.782 176.675 31.142C177.155 31.502 177.749 31.682 178.457 31.682C179.009 31.682 179.519 31.592 179.987 31.412C180.467 31.232 180.971 30.962 181.499 30.602L182.291 32.186C181.787 32.618 181.217 32.948 180.581 33.176C179.957 33.392 179.231 33.5 178.403 33.5C177.515 33.5 176.729 33.344 176.045 33.032C175.361 32.708 174.821 32.246 174.425 31.646C174.041 31.046 173.849 30.332 173.849 29.504C173.849 28.244 174.263 27.308 175.091 26.696C175.931 26.072 177.113 25.76 178.637 25.76H179.267L178.655 26.228V24.032H173.147V22.304H182.849V24.032ZM188.082 24.032L188.496 23.618C188.616 23.906 188.712 24.206 188.784 24.518C188.856 24.83 188.892 25.196 188.892 25.616C188.892 26.24 188.76 26.792 188.496 27.272C188.232 27.74 187.86 28.148 187.38 28.496C186.9 28.832 186.336 29.12 185.688 29.36L185.67 29C186.03 29.372 186.408 29.756 186.804 30.152C187.212 30.536 187.638 30.92 188.082 31.304C188.538 31.688 189 32.072 189.468 32.456L187.992 33.824C187.032 32.996 186.198 32.222 185.49 31.502C184.794 30.782 184.224 30.104 183.78 29.468C183.492 29.072 183.282 28.718 183.15 28.406C183.018 28.094 182.952 27.794 182.952 27.506C182.952 27.17 183.06 26.9 183.276 26.696C183.492 26.48 183.786 26.372 184.158 26.372C184.542 26.372 184.902 26.492 185.238 26.732C185.574 26.972 185.922 27.308 186.282 27.74L185.13 27.47C185.706 27.242 186.126 26.954 186.39 26.606C186.654 26.258 186.786 25.832 186.786 25.328C186.786 24.98 186.744 24.65 186.66 24.338C186.576 24.014 186.456 23.768 186.3 23.6L187.182 24.032H182.304V22.304H190.296V24.032H188.082ZM197.497 29.756C197.005 29.408 196.633 29.042 196.381 28.658C196.129 28.274 196.003 27.866 196.003 27.434C196.003 26.738 196.255 26.204 196.759 25.832C197.275 25.46 198.019 25.274 198.991 25.274H201.313V24.032H194.923V22.304H205.129V24.032H203.401V26.966H199.315C198.883 26.966 198.565 27.032 198.361 27.164C198.169 27.296 198.073 27.494 198.073 27.758C198.073 27.962 198.145 28.16 198.289 28.352C198.433 28.532 198.637 28.7 198.901 28.856L197.497 29.756ZM201.061 32.492C201.385 32.324 201.631 32.132 201.799 31.916C201.979 31.688 202.069 31.454 202.069 31.214C202.069 30.89 201.931 30.626 201.655 30.422C201.379 30.206 200.935 30.098 200.323 30.098C199.603 30.098 199.051 30.242 198.667 30.53C198.295 30.806 198.109 31.19 198.109 31.682C198.109 32.09 198.253 32.456 198.541 32.78C198.841 33.092 199.291 33.392 199.891 33.68C200.503 33.968 201.259 34.28 202.159 34.616L201.241 36.29C200.125 35.918 199.177 35.516 198.397 35.084C197.617 34.652 197.023 34.154 196.615 33.59C196.207 33.026 196.003 32.39 196.003 31.682C196.003 30.926 196.201 30.308 196.597 29.828C196.993 29.336 197.521 28.976 198.181 28.748C198.841 28.52 199.585 28.406 200.413 28.406C201.289 28.406 202.003 28.532 202.555 28.784C203.107 29.036 203.509 29.372 203.761 29.792C204.025 30.212 204.157 30.668 204.157 31.16C204.157 31.64 204.049 32.084 203.833 32.492C203.617 32.888 203.251 33.266 202.735 33.626L201.061 32.492ZM208.154 24.032V33.5H206.048V24.032H204.572V22.304H209.882V24.032H208.154ZM206.102 22.43C205.886 21.734 205.688 21.17 205.508 20.738C205.34 20.306 205.172 19.976 205.004 19.748C204.836 19.52 204.656 19.364 204.464 19.28C204.26 19.184 204.02 19.136 203.744 19.136C203.516 19.136 203.282 19.166 203.042 19.226C202.79 19.274 202.556 19.34 202.34 19.424L201.818 17.714C202.106 17.606 202.424 17.522 202.772 17.462C203.108 17.402 203.444 17.372 203.78 17.372C204.32 17.372 204.782 17.45 205.166 17.606C205.562 17.75 205.91 18.014 206.21 18.398C206.522 18.77 206.81 19.286 207.074 19.946C207.35 20.594 207.644 21.422 207.956 22.43H206.102ZM226.867 24.032H225.139V33.5H223.033V30.296L223.537 30.728C223.165 31.064 222.715 31.328 222.187 31.52C221.671 31.7 221.101 31.79 220.477 31.79C219.781 31.79 219.169 31.676 218.641 31.448C218.113 31.208 217.699 30.878 217.399 30.458C217.099 30.026 216.949 29.522 216.949 28.946C216.949 28.562 217.015 28.226 217.147 27.938C217.291 27.638 217.465 27.404 217.669 27.236L215.185 27.272V25.544H221.809L221.647 27.254H220.999C220.399 27.254 219.919 27.374 219.559 27.614C219.211 27.854 219.037 28.22 219.037 28.712C219.037 29.12 219.175 29.444 219.451 29.684C219.739 29.912 220.123 30.026 220.603 30.026C221.179 30.026 221.695 29.876 222.151 29.576C222.619 29.276 222.979 28.922 223.231 28.514L223.033 29.504V24.032H214.537V22.304H226.867V24.032ZM223.145 38.324C222.389 38.324 221.693 38.204 221.057 37.964C220.421 37.736 219.833 37.406 219.293 36.974C218.741 36.554 218.213 36.062 217.709 35.498L219.059 34.292C219.551 34.856 220.013 35.312 220.445 35.66C220.865 36.02 221.285 36.278 221.705 36.434C222.125 36.59 222.575 36.668 223.055 36.668C223.595 36.668 223.997 36.572 224.261 36.38C224.525 36.2 224.657 35.942 224.657 35.606C224.657 35.33 224.573 35.108 224.405 34.94C224.225 34.784 223.961 34.706 223.613 34.706C223.313 34.706 223.025 34.76 222.749 34.868C222.473 34.988 222.203 35.162 221.939 35.39L221.057 34.022C221.405 33.722 221.795 33.494 222.227 33.338C222.647 33.182 223.151 33.104 223.739 33.104C224.627 33.104 225.317 33.35 225.809 33.842C226.301 34.334 226.547 34.97 226.547 35.75C226.547 36.518 226.265 37.136 225.701 37.604C225.125 38.084 224.273 38.324 223.145 38.324ZM240.791 24.032H234.941V27.542L234.689 27.146C234.953 26.894 235.271 26.69 235.643 26.534C236.027 26.378 236.459 26.3 236.939 26.3C237.851 26.3 238.565 26.57 239.081 27.11C239.609 27.638 239.873 28.37 239.873 29.306C239.873 29.906 239.759 30.5 239.531 31.088C239.315 31.664 238.949 32.264 238.433 32.888L236.597 31.844C236.957 31.448 237.239 31.052 237.443 30.656C237.659 30.248 237.767 29.81 237.767 29.342C237.767 28.898 237.665 28.568 237.461 28.352C237.257 28.124 236.969 28.01 236.597 28.01C236.237 28.01 235.901 28.124 235.589 28.352C235.289 28.568 235.049 28.85 234.869 29.198L234.941 28.64V33.5H232.835V29.954L233.357 30.512C233.093 30.752 232.805 30.962 232.493 31.142C232.193 31.31 231.857 31.442 231.485 31.538C231.125 31.634 230.735 31.682 230.315 31.682C229.631 31.682 229.013 31.562 228.461 31.322C227.921 31.07 227.495 30.71 227.183 30.242C226.871 29.762 226.715 29.174 226.715 28.478C226.715 27.47 227.051 26.69 227.723 26.138C228.395 25.586 229.331 25.31 230.531 25.31C230.843 25.31 231.143 25.328 231.431 25.364C231.719 25.388 231.995 25.43 232.259 25.49L232.079 27.218C231.887 27.17 231.677 27.134 231.449 27.11C231.221 27.086 230.987 27.074 230.747 27.074C230.135 27.074 229.661 27.2 229.325 27.452C229.001 27.704 228.839 28.064 228.839 28.532C228.839 29 228.989 29.354 229.289 29.594C229.589 29.822 229.973 29.936 230.441 29.936C231.005 29.936 231.515 29.78 231.971 29.468C232.427 29.156 232.775 28.802 233.015 28.406L232.835 29.702V24.032H226.013V22.304H240.791V24.032ZM232.556 22.43C232.34 21.734 232.148 21.17 231.98 20.738C231.8 20.306 231.626 19.976 231.458 19.748C231.29 19.52 231.11 19.364 230.918 19.28C230.714 19.184 230.474 19.136 230.198 19.136C229.97 19.136 229.736 19.166 229.496 19.226C229.244 19.274 229.01 19.34 228.794 19.424L228.272 17.714C228.56 17.606 228.878 17.522 229.226 17.462C229.562 17.402 229.898 17.372 230.234 17.372C230.774 17.372 231.242 17.45 231.638 17.606C232.022 17.75 232.37 18.014 232.682 18.398C232.982 18.77 233.27 19.286 233.546 19.946C233.81 20.594 234.098 21.422 234.41 22.43H232.556ZM247.691 29.756C247.199 29.408 246.827 29.042 246.575 28.658C246.323 28.274 246.197 27.866 246.197 27.434C246.197 26.738 246.449 26.204 246.953 25.832C247.469 25.46 248.213 25.274 249.185 25.274H251.507V24.032H245.117V22.304H255.323V24.032H253.595V26.966H249.509C249.077 26.966 248.759 27.032 248.555 27.164C248.363 27.296 248.267 27.494 248.267 27.758C248.267 27.962 248.339 28.16 248.483 28.352C248.627 28.532 248.831 28.7 249.095 28.856L247.691 29.756ZM251.255 32.492C251.579 32.324 251.825 32.132 251.993 31.916C252.173 31.688 252.263 31.454 252.263 31.214C252.263 30.89 252.125 30.626 251.849 30.422C251.573 30.206 251.129 30.098 250.517 30.098C249.797 30.098 249.245 30.242 248.861 30.53C248.489 30.806 248.303 31.19 248.303 31.682C248.303 32.09 248.447 32.456 248.735 32.78C249.035 33.092 249.485 33.392 250.085 33.68C250.697 33.968 251.453 34.28 252.353 34.616L251.435 36.29C250.319 35.918 249.371 35.516 248.591 35.084C247.811 34.652 247.217 34.154 246.809 33.59C246.401 33.026 246.197 32.39 246.197 31.682C246.197 30.926 246.395 30.308 246.791 29.828C247.187 29.336 247.715 28.976 248.375 28.748C249.035 28.52 249.779 28.406 250.607 28.406C251.483 28.406 252.197 28.532 252.749 28.784C253.301 29.036 253.703 29.372 253.955 29.792C254.219 30.212 254.351 30.668 254.351 31.16C254.351 31.64 254.243 32.084 254.027 32.492C253.811 32.888 253.445 33.266 252.929 33.626L251.255 32.492ZM252.336 18.758C252.336 18.422 252.45 18.14 252.678 17.912C252.906 17.684 253.182 17.57 253.506 17.57C253.842 17.57 254.118 17.684 254.334 17.912C254.55 18.14 254.658 18.422 254.658 18.758C254.658 19.082 254.55 19.364 254.334 19.604C254.118 19.832 253.842 19.946 253.506 19.946C253.182 19.946 252.906 19.832 252.678 19.604C252.45 19.364 252.336 19.082 252.336 18.758ZM251.346 22.43C250.974 22.058 250.662 21.782 250.41 21.602C250.158 21.41 249.918 21.284 249.69 21.224C249.462 21.164 249.21 21.134 248.934 21.134C248.658 21.134 248.382 21.17 248.106 21.242C247.818 21.302 247.548 21.386 247.296 21.494L246.756 20.054C247.044 19.922 247.344 19.82 247.656 19.748C247.968 19.676 248.28 19.64 248.592 19.64C248.94 19.64 249.252 19.682 249.528 19.766C249.792 19.85 250.062 20 250.338 20.216C250.614 20.42 250.938 20.708 251.31 21.08L251.382 21.044C251.058 20.444 250.77 19.988 250.518 19.676C250.266 19.352 250.014 19.136 249.762 19.028C249.498 18.908 249.198 18.848 248.862 18.848C248.646 18.848 248.43 18.872 248.214 18.92C247.998 18.956 247.776 19.016 247.548 19.1L247.062 17.642C247.302 17.558 247.578 17.492 247.89 17.444C248.19 17.396 248.49 17.372 248.79 17.372C249.342 17.372 249.816 17.45 250.212 17.606C250.608 17.762 250.956 18.032 251.256 18.416C251.556 18.788 251.85 19.304 252.138 19.964C252.426 20.612 252.738 21.434 253.074 22.43H251.346Z" fill="white"/>
</svg>
