<svg width="380" height="298" viewBox="0 0 380 298" fill="none" xmlns="http://www.w3.org/2000/svg">
<rect width="380" height="50" rx="10" fill="white"/>
<path d="M28.27 21.584V30H26.398V26.16L26.958 26.768C26.638 27.024 26.2487 27.232 25.79 27.392C25.342 27.552 24.8727 27.632 24.382 27.632C23.678 27.632 23.086 27.5093 22.606 27.264C22.126 27.0187 21.7633 26.6507 21.518 26.16C21.2833 25.6693 21.166 25.0613 21.166 24.336V21.584H20.03V20.048H29.822V21.584H28.27ZM26.398 21.584H23.038V24.336C23.038 24.7413 23.0913 25.072 23.198 25.328C23.3047 25.584 23.4647 25.776 23.678 25.904C23.8913 26.0213 24.158 26.08 24.478 26.08C24.926 26.08 25.3527 25.952 25.758 25.696C26.1633 25.4293 26.4887 25.136 26.734 24.816L26.398 25.936V21.584ZM31.5449 26.672C31.1075 26.3627 30.7769 26.0373 30.5529 25.696C30.3289 25.3547 30.2169 24.992 30.2169 24.608C30.2169 23.9893 30.4409 23.5147 30.8889 23.184C31.3475 22.8533 32.0089 22.688 32.8729 22.688H34.9369V21.584H29.2569V20.048H38.3289V21.584H36.7929V24.192H33.1609C32.7769 24.192 32.4942 24.2507 32.3129 24.368C32.1422 24.4853 32.0569 24.6613 32.0569 24.896C32.0569 25.0773 32.1209 25.2533 32.2489 25.424C32.3769 25.584 32.5582 25.7333 32.7929 25.872L31.5449 26.672ZM34.7129 29.104C35.0009 28.9547 35.2195 28.784 35.3689 28.592C35.5289 28.3893 35.6089 28.1813 35.6089 27.968C35.6089 27.68 35.4862 27.4453 35.2409 27.264C34.9955 27.072 34.6009 26.976 34.0569 26.976C33.4169 26.976 32.9262 27.104 32.5849 27.36C32.2542 27.6053 32.0889 27.9467 32.0889 28.384C32.0889 28.7467 32.2169 29.072 32.4729 29.36C32.7395 29.6373 33.1395 29.904 33.6729 30.16C34.2169 30.416 34.8889 30.6933 35.6889 30.992L34.8729 32.48C33.8809 32.1493 33.0382 31.792 32.3449 31.408C31.6515 31.024 31.1235 30.5813 30.7609 30.08C30.3982 29.5787 30.2169 29.0133 30.2169 28.384C30.2169 27.712 30.3929 27.1627 30.7449 26.736C31.0969 26.2987 31.5662 25.9787 32.1529 25.776C32.7395 25.5733 33.4009 25.472 34.1369 25.472C34.9155 25.472 35.5502 25.584 36.0409 25.808C36.5315 26.032 36.8889 26.3307 37.1129 26.704C37.3475 27.0773 37.4649 27.4827 37.4649 27.92C37.4649 28.3467 37.3689 28.7413 37.1769 29.104C36.9849 29.456 36.6595 29.792 36.2009 30.112L34.7129 29.104ZM37.7806 21.584V20.048H49.4606V21.584H47.9086V30H46.0366V24.112L46.9486 24.88C46.778 24.8053 46.6073 24.7573 46.4366 24.736C46.2766 24.7147 46.1166 24.704 45.9566 24.704C45.6366 24.704 45.354 24.784 45.1086 24.944C44.8633 25.0933 44.6553 25.344 44.4846 25.696C44.3246 26.048 44.202 26.512 44.1166 27.088L42.3086 26.64C42.4473 25.4987 42.826 24.64 43.4446 24.064C44.0633 23.488 44.874 23.2 45.8766 23.2C46.09 23.2 46.314 23.216 46.5486 23.248C46.794 23.28 46.986 23.3173 47.1246 23.36L47.1726 23.712L46.0366 23.408V21.584H37.7806ZM43.1406 25.488C42.9593 25.264 42.746 25.0827 42.5006 24.944C42.266 24.7947 41.978 24.72 41.6366 24.72C41.21 24.72 40.874 24.848 40.6286 25.104C40.394 25.3493 40.2766 25.68 40.2766 26.096C40.2766 26.6187 40.4793 27.0987 40.8846 27.536C41.3006 27.9627 41.9833 28.4267 42.9326 28.928L41.9086 30.32C40.8206 29.7547 39.962 29.12 39.3326 28.416C38.714 27.7013 38.4046 26.8853 38.4046 25.968C38.4046 25.0293 38.682 24.3307 39.2366 23.872C39.7913 23.4027 40.4953 23.168 41.3486 23.168C41.9033 23.168 42.3886 23.264 42.8046 23.456C43.2206 23.648 43.5833 23.9147 43.8926 24.256L43.1406 25.488ZM45.7621 20.16C45.5701 19.5413 45.3995 19.04 45.2501 18.656C45.0901 18.272 44.9355 17.9787 44.7861 17.776C44.6368 17.5733 44.4768 17.4347 44.3061 17.36C44.1248 17.2747 43.9115 17.232 43.6661 17.232C43.4635 17.232 43.2555 17.2587 43.0421 17.312C42.8181 17.3547 42.6101 17.4133 42.4181 17.488L41.9541 15.968C42.2101 15.872 42.4928 15.7973 42.8021 15.744C43.1008 15.6907 43.3995 15.664 43.6981 15.664C44.1781 15.664 44.5941 15.7333 44.9461 15.872C45.2875 16 45.5968 16.2347 45.8741 16.576C46.1408 16.9067 46.3968 17.3653 46.6421 17.952C46.8768 18.528 47.1328 19.264 47.4101 20.16H45.7621ZM61.3888 21.584V30H59.5168V26.16L60.0768 26.768C59.7568 27.024 59.3674 27.232 58.9088 27.392C58.4608 27.552 57.9914 27.632 57.5008 27.632C56.7968 27.632 56.2048 27.5093 55.7248 27.264C55.2448 27.0187 54.8821 26.6507 54.6368 26.16C54.4021 25.6693 54.2848 25.0613 54.2848 24.336V21.584H53.1488V20.048H62.9408V21.584H61.3888ZM59.5168 21.584H56.1568V24.336C56.1568 24.7413 56.2101 25.072 56.3168 25.328C56.4234 25.584 56.5834 25.776 56.7968 25.904C57.0101 26.0213 57.2768 26.08 57.5968 26.08C58.0448 26.08 58.4714 25.952 58.8768 25.696C59.2821 25.4293 59.6074 25.136 59.8528 24.816L59.5168 25.936V21.584ZM65.5596 21.584V30H63.6876V21.584H62.3756V20.048H67.0956V21.584H65.5596ZM63.1956 17.68C63.1956 17.36 63.3076 17.0933 63.5316 16.88C63.745 16.656 64.001 16.544 64.2996 16.544C64.6196 16.544 64.8863 16.656 65.0996 16.88C65.3023 17.0933 65.4036 17.36 65.4036 17.68C65.4036 17.9893 65.3023 18.256 65.0996 18.48C64.8863 18.6933 64.6196 18.8 64.2996 18.8C64.001 18.8 63.745 18.6933 63.5316 18.48C63.3076 18.256 63.1956 17.9893 63.1956 17.68ZM77.1956 21.584H75.6596V30H73.7876V27.152L74.2356 27.536C73.905 27.8347 73.505 28.0693 73.0356 28.24C72.577 28.4 72.0703 28.48 71.5156 28.48C70.897 28.48 70.353 28.3787 69.8836 28.176C69.4143 27.9627 69.0463 27.6693 68.7796 27.296C68.513 26.912 68.3796 26.464 68.3796 25.952C68.3796 25.6107 68.4383 25.312 68.5556 25.056C68.6836 24.7893 68.8383 24.5813 69.0196 24.432L66.8116 24.464V22.928H72.6996L72.5556 24.448H71.9796C71.4463 24.448 71.0196 24.5547 70.6996 24.768C70.3903 24.9813 70.2356 25.3067 70.2356 25.744C70.2356 26.1067 70.3583 26.3947 70.6036 26.608C70.8596 26.8107 71.201 26.912 71.6276 26.912C72.1396 26.912 72.5983 26.7787 73.0036 26.512C73.4196 26.2453 73.7396 25.9307 73.9636 25.568L73.7876 26.448V21.584H66.2356V20.048H77.1956V21.584Z" fill="black"/>
<g filter="url(#filter0_i_23956_39014)">
<rect x="282" y="14" width="78" height="22" rx="11" fill="#248B3B"/>
<g clip-path="url(#clip0_23956_39014)">
<path fill-rule="evenodd" clip-rule="evenodd" d="M292 25C292 23.6739 292.527 22.4021 293.464 21.4645C294.402 20.5268 295.674 20 297 20C298.326 20 299.598 20.5268 300.536 21.4645C301.473 22.4021 302 23.6739 302 25C302 26.3261 301.473 27.5979 300.536 28.5355C299.598 29.4732 298.326 30 297 30C295.674 30 294.402 29.4732 293.464 28.5355C292.527 27.5979 292 26.3261 292 25ZM296.715 27.14L299.593 23.5413L299.073 23.1253L296.619 26.1927L294.88 24.744L294.453 25.256L296.715 27.14Z" fill="white"/>
</g>
<path d="M310.72 29.12C309.896 29.12 309.172 28.94 308.548 28.58C307.932 28.212 307.452 27.712 307.108 27.08C306.764 26.44 306.592 25.72 306.592 24.92C306.592 24.312 306.696 23.752 306.904 23.24C307.112 22.728 307.4 22.284 307.768 21.908C308.144 21.532 308.58 21.24 309.076 21.032C309.58 20.824 310.128 20.72 310.72 20.72C311.648 20.72 312.408 20.912 313 21.296C313.592 21.672 314.076 22.18 314.452 22.82L313.276 23.168C312.908 22.664 312.512 22.324 312.088 22.148C311.672 21.964 311.216 21.872 310.72 21.872C310.168 21.872 309.672 22.004 309.232 22.268C308.8 22.532 308.456 22.892 308.2 23.348C307.944 23.804 307.816 24.328 307.816 24.92C307.816 25.504 307.944 26.028 308.2 26.492C308.456 26.948 308.8 27.308 309.232 27.572C309.672 27.836 310.168 27.968 310.72 27.968C311.216 27.968 311.672 27.88 312.088 27.704C312.512 27.52 312.908 27.176 313.276 26.672L314.452 27.02C314.076 27.66 313.592 28.172 313 28.556C312.408 28.932 311.648 29.12 310.72 29.12ZM316.588 29.06C316.38 29.06 316.196 29.012 316.036 28.916C315.876 28.812 315.748 28.664 315.652 28.472C315.564 28.28 315.52 28.044 315.52 27.764V20.828H316.696V27.344C316.696 27.592 316.756 27.76 316.876 27.848C317.004 27.936 317.148 27.98 317.308 27.98V28.94C317.204 28.98 317.092 29.008 316.972 29.024C316.852 29.048 316.724 29.06 316.588 29.06ZM320.192 29.168C319.736 29.168 319.344 29.088 319.016 28.928C318.688 28.768 318.436 28.54 318.26 28.244C318.092 27.94 318.008 27.58 318.008 27.164C318.008 26.78 318.096 26.44 318.272 26.144C318.448 25.84 318.7 25.6 319.028 25.424C319.356 25.248 319.744 25.16 320.192 25.16C320.752 25.16 321.2 25.288 321.536 25.544C321.88 25.792 322.12 26.136 322.256 26.576H321.584V25.076C321.584 24.828 321.5 24.6 321.332 24.392C321.164 24.184 320.868 24.08 320.444 24.08C320.22 24.08 319.972 24.108 319.7 24.164C319.436 24.212 319.16 24.3 318.872 24.428L318.512 23.504C318.84 23.344 319.18 23.224 319.532 23.144C319.884 23.064 320.228 23.024 320.564 23.024C321.068 23.024 321.484 23.116 321.812 23.3C322.14 23.484 322.384 23.732 322.544 24.044C322.704 24.348 322.784 24.692 322.784 25.076V29H321.92L321.62 27.932L322.256 27.752C322.112 28.224 321.856 28.58 321.488 28.82C321.12 29.052 320.688 29.168 320.192 29.168ZM320.408 28.1C320.76 28.1 321.044 28.02 321.26 27.86C321.476 27.692 321.584 27.46 321.584 27.164C321.584 26.86 321.476 26.628 321.26 26.468C321.044 26.308 320.76 26.228 320.408 26.228C320.056 26.228 319.772 26.308 319.556 26.468C319.34 26.628 319.232 26.86 319.232 27.164C319.232 27.46 319.34 27.692 319.556 27.86C319.772 28.02 320.056 28.1 320.408 28.1ZM325.498 29H324.298V23.144H325.498V29ZM324.118 21.344C324.118 21.112 324.186 20.924 324.322 20.78C324.466 20.628 324.658 20.552 324.898 20.552C325.13 20.552 325.318 20.628 325.462 20.78C325.606 20.924 325.678 21.112 325.678 21.344C325.678 21.568 325.606 21.756 325.462 21.908C325.318 22.052 325.13 22.124 324.898 22.124C324.658 22.124 324.466 22.052 324.322 21.908C324.186 21.756 324.118 21.568 324.118 21.344ZM327.063 29V23.144H327.975L328.227 24.176L327.927 24.212C328.143 23.956 328.371 23.74 328.611 23.564C328.851 23.388 329.107 23.256 329.379 23.168C329.651 23.072 329.935 23.024 330.231 23.024C330.647 23.024 330.975 23.096 331.215 23.24C331.455 23.376 331.631 23.564 331.743 23.804C331.855 24.036 331.927 24.3 331.959 24.596C331.991 24.892 332.007 25.196 332.007 25.508V29H330.807V25.256C330.807 24.84 330.711 24.56 330.519 24.416C330.335 24.272 330.115 24.2 329.859 24.2C329.491 24.2 329.139 24.316 328.803 24.548C328.467 24.772 328.223 25.044 328.071 25.364V24.692H328.263V29H327.063ZM334.551 29V25.256C334.551 24.84 334.455 24.56 334.263 24.416C334.079 24.272 333.859 24.2 333.603 24.2C333.235 24.2 332.883 24.316 332.547 24.548C332.211 24.772 331.967 25.044 331.815 25.364L331.671 24.212C331.887 23.956 332.115 23.74 332.355 23.564C332.595 23.388 332.851 23.256 333.123 23.168C333.395 23.072 333.679 23.024 333.975 23.024C334.391 23.024 334.719 23.096 334.959 23.24C335.199 23.376 335.375 23.564 335.487 23.804C335.599 24.036 335.671 24.3 335.703 24.596C335.735 24.892 335.751 25.196 335.751 25.508V29H334.551ZM339.684 29.12C339.116 29.12 338.616 28.996 338.184 28.748C337.752 28.492 337.416 28.136 337.176 27.68C336.936 27.224 336.816 26.692 336.816 26.084C336.816 25.468 336.936 24.932 337.176 24.476C337.416 24.02 337.752 23.664 338.184 23.408C338.616 23.152 339.116 23.024 339.684 23.024C340.26 23.024 340.764 23.152 341.196 23.408C341.628 23.664 341.964 24.02 342.204 24.476C342.444 24.932 342.564 25.468 342.564 26.084C342.564 26.14 342.56 26.2 342.552 26.264C342.552 26.32 342.548 26.372 342.54 26.42H337.956V25.388H341.676L341.34 26.084C341.34 25.476 341.204 24.976 340.932 24.584C340.66 24.192 340.244 23.996 339.684 23.996C339.188 23.996 338.792 24.156 338.496 24.476C338.2 24.788 338.052 25.2 338.052 25.712V26.336C338.052 26.872 338.196 27.3 338.484 27.62C338.772 27.932 339.172 28.088 339.684 28.088C340.156 28.088 340.52 27.988 340.776 27.788C341.032 27.588 341.256 27.34 341.448 27.044L342.348 27.608C342.076 28.112 341.724 28.492 341.292 28.748C340.868 28.996 340.332 29.12 339.684 29.12ZM346.032 29.12C345.496 29.12 345.024 28.992 344.616 28.736C344.208 28.48 343.892 28.124 343.668 27.668C343.444 27.204 343.332 26.668 343.332 26.06C343.332 25.452 343.444 24.92 343.668 24.464C343.892 24.008 344.208 23.656 344.616 23.408C345.024 23.152 345.496 23.024 346.032 23.024C346.56 23.024 347.02 23.152 347.412 23.408C347.804 23.656 348.108 24.008 348.324 24.464C348.548 24.92 348.66 25.452 348.66 26.06C348.66 26.668 348.548 27.204 348.324 27.668C348.108 28.124 347.804 28.48 347.412 28.736C347.02 28.992 346.56 29.12 346.032 29.12ZM346.212 28.088C346.708 28.088 347.104 27.904 347.4 27.536C347.704 27.168 347.856 26.68 347.856 26.072C347.856 25.464 347.704 24.976 347.4 24.608C347.104 24.24 346.708 24.056 346.212 24.056C345.716 24.056 345.316 24.24 345.012 24.608C344.708 24.976 344.556 25.46 344.556 26.06C344.556 26.668 344.708 27.16 345.012 27.536C345.316 27.904 345.716 28.088 346.212 28.088ZM348.084 29L347.796 27.824H347.916V24.488H347.796V20.828H348.996V29H348.084Z" fill="white"/>
</g>
<rect y="62" width="380" height="50" rx="10" fill="white"/>
<path d="M24.8 82.048H33.344V83.584H24.8V82.048ZM27.376 87.568C27.7067 87.2053 28.0747 86.928 28.48 86.736C28.8853 86.544 29.36 86.448 29.904 86.448C30.736 86.448 31.3973 86.688 31.888 87.168C32.3787 87.648 32.624 88.2987 32.624 89.12C32.624 89.664 32.496 90.192 32.24 90.704C31.9947 91.216 31.584 91.7173 31.008 92.208L29.504 91.104C29.8773 90.8053 30.1707 90.4907 30.384 90.16C30.608 89.8293 30.72 89.4827 30.72 89.12C30.72 88.736 30.6187 88.4533 30.416 88.272C30.224 88.08 29.9627 87.984 29.632 87.984C29.3547 87.984 29.0933 88.0587 28.848 88.208C28.6027 88.3467 28.4 88.5387 28.24 88.784L27.376 87.568ZM20 82.048H29.376V83.584H20V82.048ZM27.232 83.248C27.4987 83.4507 27.696 83.696 27.824 83.984C27.9627 84.2613 28.032 84.576 28.032 84.928C28.032 85.44 27.8773 85.8933 27.568 86.288C27.2693 86.6827 26.8267 86.9973 26.24 87.232C25.664 87.456 24.9493 87.5947 24.096 87.648L23.808 86.128C24.6293 86.064 25.2267 85.936 25.6 85.744C25.9733 85.5413 26.16 85.216 26.16 84.768C26.16 84.448 26.0587 84.16 25.856 83.904C25.664 83.6373 25.392 83.44 25.04 83.312L27.232 83.248ZM26.96 86.512C27.504 86.96 27.888 87.408 28.112 87.856C28.3467 88.2933 28.464 88.768 28.464 89.28C28.464 90.1333 28.176 90.8 27.6 91.28C27.0347 91.76 26.2933 92 25.376 92C24.8213 92 24.3093 91.92 23.84 91.76C23.3813 91.5893 22.9493 91.3173 22.544 90.944C22.1493 90.5707 21.776 90.0693 21.424 89.44C21.0827 88.8107 20.752 88.032 20.432 87.104L21.984 86.416C22.304 87.3653 22.6187 88.1333 22.928 88.72C23.2373 89.3067 23.568 89.7387 23.92 90.016C24.272 90.2827 24.672 90.416 25.12 90.416C25.5573 90.416 25.904 90.2987 26.16 90.064C26.4267 89.8293 26.56 89.504 26.56 89.088C26.56 88.6613 26.4533 88.288 26.24 87.968C26.0267 87.648 25.7013 87.3547 25.264 87.088L26.96 86.512ZM40.9044 83.584V92H39.0324V88.16L39.5924 88.768C39.2724 89.024 38.883 89.232 38.4244 89.392C37.9764 89.552 37.507 89.632 37.0164 89.632C36.3124 89.632 35.7204 89.5093 35.2404 89.264C34.7604 89.0187 34.3977 88.6507 34.1524 88.16C33.9177 87.6693 33.8004 87.0613 33.8004 86.336V83.584H32.6644V82.048H42.4564V83.584H40.9044ZM39.0324 83.584H35.6724V86.336C35.6724 86.7413 35.7257 87.072 35.8324 87.328C35.939 87.584 36.099 87.776 36.3124 87.904C36.5257 88.0213 36.7924 88.08 37.1124 88.08C37.5604 88.08 37.987 87.952 38.3924 87.696C38.7977 87.4293 39.123 87.136 39.3684 86.816L39.0324 87.936V83.584ZM47.0273 83.584L47.3953 83.216C47.5019 83.472 47.5873 83.7387 47.6513 84.016C47.7153 84.2933 47.7473 84.6187 47.7473 84.992C47.7473 85.5467 47.6299 86.0373 47.3953 86.464C47.1606 86.88 46.8299 87.2427 46.4033 87.552C45.9766 87.8507 45.4753 88.1067 44.8993 88.32L44.8833 88C45.2033 88.3307 45.5393 88.672 45.8913 89.024C46.2539 89.3653 46.6326 89.7067 47.0273 90.048C47.4326 90.3893 47.8433 90.7307 48.2593 91.072L46.9473 92.288C46.0939 91.552 45.3526 90.864 44.7233 90.224C44.1046 89.584 43.5979 88.9813 43.2033 88.416C42.9473 88.064 42.7606 87.7493 42.6433 87.472C42.5259 87.1947 42.4673 86.928 42.4673 86.672C42.4673 86.3733 42.5633 86.1333 42.7553 85.952C42.9473 85.76 43.2086 85.664 43.5393 85.664C43.8806 85.664 44.2006 85.7707 44.4993 85.984C44.7979 86.1973 45.1073 86.496 45.4273 86.88L44.4033 86.64C44.9153 86.4373 45.2886 86.1813 45.5233 85.872C45.7579 85.5627 45.8753 85.184 45.8753 84.736C45.8753 84.4267 45.8379 84.1333 45.7633 83.856C45.6886 83.568 45.5819 83.3493 45.4433 83.2L46.2273 83.584H41.8913V82.048H48.9953V83.584H47.0273ZM62.6013 83.584H61.0653V92H59.1933V88.976L59.8013 89.36C59.4706 89.6907 59.0653 89.952 58.5853 90.144C58.1159 90.3253 57.5826 90.416 56.9853 90.416C56.3239 90.416 55.7373 90.304 55.2253 90.08C54.7239 89.856 54.3293 89.5307 54.0413 89.104C53.7639 88.6773 53.6253 88.16 53.6253 87.552C53.6253 86.6133 53.9346 85.9093 54.5533 85.44C55.1719 84.96 55.9986 84.72 57.0333 84.72C57.3533 84.72 57.6466 84.736 57.9133 84.768C58.1906 84.8 58.4413 84.8427 58.6653 84.896L58.5373 86.416C58.3346 86.3733 58.1266 86.3413 57.9133 86.32C57.7106 86.2987 57.4919 86.288 57.2573 86.288C56.7239 86.288 56.2973 86.4 55.9773 86.624C55.6679 86.848 55.5133 87.1733 55.5133 87.6C55.5133 87.984 55.6466 88.288 55.9133 88.512C56.1799 88.736 56.5639 88.848 57.0653 88.848C57.5346 88.848 57.9773 88.736 58.3933 88.512C58.8093 88.2773 59.1293 87.968 59.3533 87.584L59.1933 88.688V83.584H53.0013V82.048H62.6013V83.584ZM65.2403 83.584V92H63.3683V83.584H62.0563V82.048H66.7763V83.584H65.2403ZM66.2363 83.584V82.048H77.9163V83.584H76.3643V92H74.4923V86.112L75.4043 86.88C75.2336 86.8053 75.0629 86.7573 74.8923 86.736C74.7323 86.7147 74.5723 86.704 74.4123 86.704C74.0923 86.704 73.8096 86.784 73.5643 86.944C73.3189 87.0933 73.1109 87.344 72.9403 87.696C72.7803 88.048 72.6576 88.512 72.5723 89.088L70.7643 88.64C70.9029 87.4987 71.2816 86.64 71.9003 86.064C72.5189 85.488 73.3296 85.2 74.3323 85.2C74.5456 85.2 74.7696 85.216 75.0043 85.248C75.2496 85.28 75.4416 85.3173 75.5803 85.36L75.6283 85.712L74.4923 85.408V83.584H66.2363ZM71.5963 87.488C71.4149 87.264 71.2016 87.0827 70.9563 86.944C70.7216 86.7947 70.4336 86.72 70.0923 86.72C69.6656 86.72 69.3296 86.848 69.0843 87.104C68.8496 87.3493 68.7323 87.68 68.7323 88.096C68.7323 88.6187 68.9349 89.0987 69.3403 89.536C69.7563 89.9627 70.4389 90.4267 71.3883 90.928L70.3643 92.32C69.2763 91.7547 68.4176 91.12 67.7883 90.416C67.1696 89.7013 66.8603 88.8853 66.8603 87.968C66.8603 87.0293 67.1376 86.3307 67.6923 85.872C68.2469 85.4027 68.9509 85.168 69.8043 85.168C70.3589 85.168 70.8443 85.264 71.2603 85.456C71.6763 85.648 72.0389 85.9147 72.3483 86.256L71.5963 87.488ZM73.9777 82.16C73.8071 81.8187 73.6791 81.4773 73.5937 81.136C73.5084 80.7947 73.4657 80.4693 73.4657 80.16C73.4657 79.4133 73.7057 78.8107 74.1857 78.352C74.6657 77.8933 75.3377 77.664 76.2017 77.664C77.0444 77.664 77.7324 77.8507 78.2657 78.224C78.8097 78.5867 79.2471 79.104 79.5777 79.776C79.9191 80.448 80.1911 81.2427 80.3937 82.16H78.6657C78.4524 81.1787 78.1697 80.4427 77.8177 79.952C77.4764 79.4507 77.0444 79.2 76.5217 79.2C76.1164 79.2 75.8177 79.3173 75.6257 79.552C75.4337 79.776 75.3377 80.0853 75.3377 80.48C75.3377 80.7573 75.3857 81.04 75.4817 81.328C75.5671 81.6053 75.6791 81.8827 75.8177 82.16H73.9777ZM80.5377 83.584V92H78.6657V83.584H77.3537V82.048H82.0737V83.584H80.5377ZM86.1044 83.584V82.048H97.7844V83.584H96.2324V92H94.3604V86.112L95.2724 86.88C95.1017 86.8053 94.931 86.7573 94.7604 86.736C94.6004 86.7147 94.4404 86.704 94.2804 86.704C93.9604 86.704 93.6777 86.784 93.4324 86.944C93.187 87.0933 92.979 87.344 92.8084 87.696C92.6484 88.048 92.5257 88.512 92.4404 89.088L90.6324 88.64C90.771 87.4987 91.1497 86.64 91.7684 86.064C92.387 85.488 93.1977 85.2 94.2004 85.2C94.4137 85.2 94.6377 85.216 94.8724 85.248C95.1177 85.28 95.3097 85.3173 95.4484 85.36L95.4964 85.712L94.3604 85.408V83.584H86.1044ZM91.4644 87.488C91.283 87.264 91.0697 87.0827 90.8244 86.944C90.5897 86.7947 90.3017 86.72 89.9604 86.72C89.5337 86.72 89.1977 86.848 88.9524 87.104C88.7177 87.3493 88.6004 87.68 88.6004 88.096C88.6004 88.6187 88.803 89.0987 89.2084 89.536C89.6244 89.9627 90.307 90.4267 91.2564 90.928L90.2324 92.32C89.1444 91.7547 88.2857 91.12 87.6564 90.416C87.0377 89.7013 86.7284 88.8853 86.7284 87.968C86.7284 87.0293 87.0057 86.3307 87.5604 85.872C88.115 85.4027 88.819 85.168 89.6724 85.168C90.227 85.168 90.7124 85.264 91.1284 85.456C91.5444 85.648 91.907 85.9147 92.2164 86.256L91.4644 87.488ZM100.406 83.584V92H98.5339V83.584H97.2219V82.048H101.942V83.584H100.406ZM105.754 88.72C105.455 88.72 105.151 88.7467 104.842 88.8C104.543 88.8533 104.25 88.928 103.962 89.024C103.663 88.8427 103.37 88.6293 103.082 88.384C102.794 88.1387 102.559 87.8613 102.378 87.552C102.207 87.232 102.122 86.8907 102.122 86.528C102.122 85.9307 102.325 85.4773 102.73 85.168C103.135 84.848 103.754 84.688 104.586 84.688H106.394V83.584H101.402V82.048H109.786V83.584H108.266V86.064H104.954C104.613 86.064 104.362 86.1227 104.202 86.24C104.042 86.3467 103.962 86.5013 103.962 86.704C103.962 86.864 104.01 87.0133 104.106 87.152C104.202 87.28 104.319 87.4027 104.458 87.52C104.735 87.4453 105.013 87.392 105.29 87.36C105.567 87.3173 105.871 87.296 106.202 87.296C106.831 87.296 107.349 87.392 107.754 87.584C108.159 87.7653 108.458 88.0267 108.65 88.368C108.853 88.7093 108.954 89.0987 108.954 89.536C108.954 90.3467 108.634 90.9707 107.994 91.408C107.354 91.8347 106.442 92.032 105.258 92C105.194 92 105.135 92.0053 105.082 92.016C105.029 92.0373 104.965 92.0533 104.89 92.064C104.826 92.0747 104.735 92.0853 104.618 92.096C103.807 92.096 103.167 91.968 102.698 91.712C102.239 91.456 102.01 91.104 102.01 90.656C102.01 90.368 102.101 90.144 102.282 89.984C102.474 89.8133 102.73 89.728 103.05 89.728C103.381 89.728 103.695 89.8507 103.994 90.096C104.303 90.3307 104.618 90.72 104.938 91.264C105.301 91.6587 105.69 92.048 106.106 92.432C106.522 92.8267 106.965 93.216 107.434 93.6L106.01 94.688C105.541 94.176 105.098 93.6587 104.682 93.136C104.277 92.6133 103.898 92.0907 103.546 91.568L103.258 90.496C103.567 90.5387 103.882 90.5707 104.202 90.592C104.522 90.6027 104.783 90.608 104.986 90.608C105.423 90.608 105.797 90.576 106.106 90.512C106.415 90.4373 106.65 90.3253 106.81 90.176C106.981 90.016 107.066 89.8027 107.066 89.536C107.066 89.2693 106.965 89.0667 106.762 88.928C106.57 88.7893 106.234 88.72 105.754 88.72ZM109.238 82.048H118.95V83.584H117.414V92H115.526V87.6H112.966V88.144C112.966 88.5493 112.875 88.8533 112.694 89.056C112.523 89.248 112.278 89.344 111.958 89.344C111.723 89.344 111.473 89.2747 111.206 89.136C110.95 88.9867 110.715 88.7947 110.502 88.56C110.289 88.3147 110.113 88.0587 109.974 87.792C109.835 87.5147 109.766 87.2533 109.766 87.008C109.766 86.72 109.846 86.4907 110.006 86.32C110.177 86.1387 110.481 86.048 110.918 86.048H115.526V83.584H109.238V82.048Z" fill="black"/>
<rect x="281" y="76" width="79" height="22" rx="11" fill="#FFA233"/>
<path d="M291.643 90.292L295.015 88.348L296.323 88.42L292.267 91.204L291.643 90.292ZM297.067 84.532V91H295.891V88.096L296.203 88.48C295.987 88.672 295.715 88.832 295.387 88.96C295.059 89.08 294.711 89.14 294.343 89.14C293.847 89.14 293.423 89.052 293.071 88.876C292.727 88.692 292.463 88.42 292.279 88.06C292.103 87.7 292.015 87.252 292.015 86.716V84.532H291.115V83.536H298.279V84.532H297.067ZM295.891 84.532H293.191V86.74C293.191 87.06 293.235 87.324 293.323 87.532C293.419 87.74 293.551 87.896 293.719 88C293.895 88.096 294.107 88.144 294.355 88.144C294.707 88.144 295.039 88.048 295.351 87.856C295.663 87.656 295.915 87.428 296.107 87.172L295.891 87.892V84.532ZM300.763 84.532V88.204C300.763 88.452 300.707 88.644 300.595 88.78C300.483 88.916 300.323 88.984 300.115 88.984C299.947 88.984 299.771 88.932 299.587 88.828C299.411 88.724 299.243 88.588 299.083 88.42C298.931 88.252 298.807 88.072 298.711 87.88C298.615 87.688 298.567 87.504 298.567 87.328C298.567 87.136 298.623 86.98 298.735 86.86C298.855 86.732 299.067 86.668 299.371 86.668L299.587 86.68V84.532H298.111V83.536H305.227V84.532H304.027V91H302.851V84.532H300.763ZM306.045 83.62C305.941 83.436 305.853 83.24 305.781 83.032C305.709 82.824 305.673 82.592 305.673 82.336C305.673 81.688 305.921 81.18 306.417 80.812C306.913 80.436 307.585 80.248 308.433 80.248C309.249 80.248 310.009 80.396 310.713 80.692C311.417 80.988 312.049 81.388 312.609 81.892C313.169 82.396 313.645 82.972 314.037 83.62H312.849C312.465 83.108 312.049 82.676 311.601 82.324C311.161 81.972 310.697 81.708 310.209 81.532C309.721 81.348 309.221 81.256 308.709 81.256C308.117 81.256 307.657 81.368 307.329 81.592C307.009 81.808 306.849 82.12 306.849 82.528C306.849 82.768 306.889 82.98 306.969 83.164C307.057 83.34 307.153 83.492 307.257 83.62H306.045ZM307.269 84.532V91H306.093V84.532H305.061V83.536H308.469V84.532H307.269ZM314.271 84.532V91H313.095V87.196H311.463C310.991 87.196 310.623 87.28 310.359 87.448C310.103 87.616 309.975 87.896 309.975 88.288C309.975 88.648 310.091 88.996 310.323 89.332C310.563 89.668 310.911 90.052 311.367 90.484L310.527 91.204C309.975 90.66 309.547 90.152 309.243 89.68C308.939 89.2 308.787 88.688 308.787 88.144C308.787 87.48 309.011 86.992 309.459 86.68C309.907 86.36 310.515 86.2 311.283 86.2H313.095V84.532H308.283V83.536H315.471V84.532H314.271ZM324.372 84.532V91H323.196V88.096L323.508 88.48C323.292 88.672 323.02 88.832 322.692 88.96C322.364 89.08 322.016 89.14 321.648 89.14C321.152 89.14 320.728 89.052 320.376 88.876C320.032 88.692 319.768 88.42 319.584 88.06C319.408 87.7 319.32 87.252 319.32 86.716V84.532H318.42V83.536H325.584V84.532H324.372ZM323.196 84.532H320.496V86.74C320.496 87.06 320.54 87.324 320.628 87.532C320.724 87.74 320.856 87.896 321.024 88C321.2 88.096 321.412 88.144 321.66 88.144C322.012 88.144 322.344 88.048 322.656 87.856C322.968 87.656 323.22 87.428 323.412 87.172L323.196 87.892V84.532ZM329.028 84.532L329.352 84.304C329.44 84.496 329.504 84.696 329.544 84.904C329.584 85.112 329.604 85.348 329.604 85.612C329.604 86.044 329.516 86.42 329.34 86.74C329.164 87.052 328.912 87.324 328.584 87.556C328.264 87.78 327.888 87.976 327.456 88.144L327.468 87.964C327.7 88.22 327.952 88.488 328.224 88.768C328.504 89.048 328.796 89.324 329.1 89.596C329.412 89.868 329.728 90.14 330.048 90.412L329.22 91.18C328.58 90.62 328.028 90.1 327.564 89.62C327.108 89.14 326.728 88.684 326.424 88.252C326.224 87.98 326.08 87.74 325.992 87.532C325.912 87.324 325.872 87.128 325.872 86.944C325.872 86.736 325.936 86.572 326.064 86.452C326.192 86.324 326.368 86.26 326.592 86.26C326.824 86.26 327.044 86.34 327.252 86.5C327.468 86.652 327.684 86.864 327.9 87.136L327.216 86.98C327.648 86.828 327.96 86.628 328.152 86.38C328.344 86.124 328.44 85.816 328.44 85.456C328.44 85.232 328.408 85.012 328.344 84.796C328.288 84.572 328.212 84.408 328.116 84.304L328.68 84.532H325.404V83.536H330.612V84.532H329.028ZM335.289 88.372C334.985 88.148 334.749 87.912 334.581 87.664C334.413 87.416 334.329 87.144 334.329 86.848C334.329 86.4 334.489 86.06 334.809 85.828C335.129 85.588 335.609 85.468 336.249 85.468H337.845V84.532H333.549V83.536H340.221V84.532H339.021V86.452H336.405C336.085 86.452 335.849 86.5 335.697 86.596C335.553 86.692 335.481 86.836 335.481 87.028C335.481 87.172 335.529 87.312 335.625 87.448C335.729 87.576 335.861 87.692 336.021 87.796L335.289 88.372ZM337.593 90.28C337.841 90.16 338.029 90.02 338.157 89.86C338.293 89.7 338.361 89.532 338.361 89.356C338.361 89.116 338.261 88.916 338.061 88.756C337.869 88.596 337.545 88.516 337.089 88.516C336.577 88.516 336.181 88.624 335.901 88.84C335.629 89.048 335.493 89.336 335.493 89.704C335.493 90 335.597 90.268 335.805 90.508C336.021 90.74 336.333 90.96 336.741 91.168C337.149 91.376 337.653 91.592 338.253 91.816L337.713 92.776C337.033 92.528 336.437 92.26 335.925 91.972C335.421 91.684 335.029 91.356 334.749 90.988C334.469 90.612 334.329 90.18 334.329 89.692C334.329 89.196 334.453 88.792 334.701 88.48C334.949 88.16 335.285 87.924 335.709 87.772C336.133 87.612 336.609 87.532 337.137 87.532C337.697 87.532 338.153 87.616 338.505 87.784C338.857 87.952 339.113 88.172 339.273 88.444C339.433 88.716 339.513 89.016 339.513 89.344C339.513 89.672 339.437 89.972 339.285 90.244C339.133 90.516 338.865 90.768 338.481 91L337.593 90.28ZM337.893 83.62C337.645 83.34 337.433 83.132 337.257 82.996C337.073 82.86 336.905 82.768 336.753 82.72C336.601 82.672 336.425 82.648 336.225 82.648C336.041 82.648 335.857 82.672 335.673 82.72C335.489 82.768 335.313 82.828 335.145 82.9L334.821 82C335.013 81.92 335.209 81.856 335.409 81.808C335.609 81.76 335.809 81.736 336.009 81.736C336.257 81.736 336.473 81.768 336.657 81.832C336.833 81.888 337.013 81.988 337.197 82.132C337.381 82.276 337.589 82.468 337.821 82.708L337.869 82.684C337.645 82.26 337.453 81.94 337.293 81.724C337.125 81.5 336.957 81.348 336.789 81.268C336.613 81.188 336.413 81.148 336.189 81.148C336.053 81.148 335.917 81.164 335.781 81.196C335.637 81.22 335.485 81.264 335.325 81.328L335.037 80.428C335.197 80.364 335.373 80.32 335.565 80.296C335.757 80.264 335.953 80.248 336.153 80.248C336.505 80.248 336.805 80.3 337.053 80.404C337.293 80.5 337.513 80.672 337.713 80.92C337.913 81.168 338.109 81.512 338.301 81.952C338.485 82.384 338.689 82.94 338.913 83.62H337.893ZM341.673 91.084C341.489 91.084 341.317 91.036 341.157 90.94C340.997 90.844 340.869 90.716 340.773 90.556C340.677 90.396 340.629 90.224 340.629 90.04C340.629 89.848 340.677 89.676 340.773 89.524C340.869 89.364 340.997 89.236 341.157 89.14C341.317 89.044 341.489 88.996 341.673 88.996C341.873 88.996 342.049 89.044 342.201 89.14C342.361 89.236 342.489 89.364 342.585 89.524C342.681 89.676 342.729 89.848 342.729 90.04C342.729 90.224 342.681 90.396 342.585 90.556C342.489 90.716 342.361 90.844 342.201 90.94C342.049 91.036 341.873 91.084 341.673 91.084ZM344.954 91.084C344.77 91.084 344.598 91.036 344.438 90.94C344.278 90.844 344.15 90.716 344.054 90.556C343.958 90.396 343.91 90.224 343.91 90.04C343.91 89.848 343.958 89.676 344.054 89.524C344.15 89.364 344.278 89.236 344.438 89.14C344.598 89.044 344.77 88.996 344.954 88.996C345.154 88.996 345.33 89.044 345.482 89.14C345.642 89.236 345.77 89.364 345.866 89.524C345.962 89.676 346.01 89.848 346.01 90.04C346.01 90.224 345.962 90.396 345.866 90.556C345.77 90.716 345.642 90.844 345.482 90.94C345.33 91.036 345.154 91.084 344.954 91.084ZM348.236 91.084C348.052 91.084 347.88 91.036 347.72 90.94C347.56 90.844 347.432 90.716 347.336 90.556C347.24 90.396 347.192 90.224 347.192 90.04C347.192 89.848 347.24 89.676 347.336 89.524C347.432 89.364 347.56 89.236 347.72 89.14C347.88 89.044 348.052 88.996 348.236 88.996C348.436 88.996 348.612 89.044 348.764 89.14C348.924 89.236 349.052 89.364 349.148 89.524C349.244 89.676 349.292 89.848 349.292 90.04C349.292 90.224 349.244 90.396 349.148 90.556C349.052 90.716 348.924 90.844 348.764 90.94C348.612 91.036 348.436 91.084 348.236 91.084Z" fill="white"/>
<rect y="124" width="380" height="50" rx="10" fill="white"/>
<path d="M29.84 145.584H28.304V154H26.416V150.992L26.976 151.504C26.6133 151.813 26.192 152.053 25.712 152.224C25.2427 152.384 24.6987 152.464 24.08 152.464C23.0133 152.464 22.1707 152.203 21.552 151.68C20.9333 151.147 20.624 150.443 20.624 149.568C20.624 148.597 20.9493 147.872 21.6 147.392C22.2507 146.912 23.1093 146.672 24.176 146.672C24.5067 146.672 24.8107 146.688 25.088 146.72C25.376 146.741 25.648 146.784 25.904 146.848L25.76 148.272C25.5573 148.229 25.3387 148.197 25.104 148.176C24.88 148.144 24.6453 148.128 24.4 148.128C23.7707 148.128 23.28 148.251 22.928 148.496C22.5867 148.741 22.416 149.109 22.416 149.6C22.416 150.069 22.5707 150.421 22.88 150.656C23.2 150.891 23.616 151.008 24.128 151.008C24.512 151.008 24.864 150.944 25.184 150.816C25.5147 150.688 25.808 150.523 26.064 150.32C26.32 150.107 26.528 149.893 26.688 149.68L26.416 150.704V145.584H20V144.048H29.84V145.584ZM23.456 147.392L26.208 150.88L25.328 151.568L22.32 147.792L23.456 147.392ZM25.9134 144.16C25.7427 143.819 25.6147 143.477 25.5294 143.136C25.444 142.795 25.4014 142.469 25.4014 142.16C25.4014 141.413 25.6414 140.811 26.1214 140.352C26.6014 139.893 27.2734 139.664 28.1374 139.664C28.98 139.664 29.668 139.851 30.2014 140.224C30.7454 140.587 31.1827 141.104 31.5134 141.776C31.8547 142.448 32.1267 143.243 32.3294 144.16H30.6014C30.388 143.179 30.1054 142.443 29.7534 141.952C29.412 141.451 28.98 141.2 28.4574 141.2C28.052 141.2 27.7534 141.317 27.5614 141.552C27.3694 141.776 27.2734 142.085 27.2734 142.48C27.2734 142.757 27.3214 143.04 27.4174 143.328C27.5027 143.605 27.6147 143.883 27.7534 144.16H25.9134ZM32.4734 145.584V154H30.6014V145.584H29.2894V144.048H34.0094V145.584H32.4734ZM44.4294 145.584H42.8934V154H41.0214V151.152L41.4694 151.536C41.1387 151.835 40.7387 152.069 40.2694 152.24C39.8107 152.4 39.304 152.48 38.7494 152.48C38.1307 152.48 37.5867 152.379 37.1174 152.176C36.648 151.963 36.28 151.669 36.0134 151.296C35.7467 150.912 35.6134 150.464 35.6134 149.952C35.6134 149.611 35.672 149.312 35.7894 149.056C35.9174 148.789 36.072 148.581 36.2534 148.432L34.0454 148.464V146.928H39.9334L39.7894 148.448H39.2134C38.68 148.448 38.2534 148.555 37.9334 148.768C37.624 148.981 37.4694 149.307 37.4694 149.744C37.4694 150.107 37.592 150.395 37.8374 150.608C38.0934 150.811 38.4347 150.912 38.8614 150.912C39.3734 150.912 39.832 150.779 40.2374 150.512C40.6534 150.245 40.9734 149.931 41.1974 149.568L41.0214 150.448V145.584H33.4694V144.048H44.4294V145.584ZM58.0544 145.584H56.5184V154H54.6464V150.976L55.2544 151.36C54.9237 151.691 54.5184 151.952 54.0384 152.144C53.569 152.325 53.0357 152.416 52.4384 152.416C51.777 152.416 51.1904 152.304 50.6784 152.08C50.177 151.856 49.7824 151.531 49.4944 151.104C49.217 150.677 49.0784 150.16 49.0784 149.552C49.0784 148.613 49.3877 147.909 50.0064 147.44C50.625 146.96 51.4517 146.72 52.4864 146.72C52.8064 146.72 53.0997 146.736 53.3664 146.768C53.6437 146.8 53.8944 146.843 54.1184 146.896L53.9904 148.416C53.7877 148.373 53.5797 148.341 53.3664 148.32C53.1637 148.299 52.945 148.288 52.7104 148.288C52.177 148.288 51.7504 148.4 51.4304 148.624C51.121 148.848 50.9664 149.173 50.9664 149.6C50.9664 149.984 51.0997 150.288 51.3664 150.512C51.633 150.736 52.017 150.848 52.5184 150.848C52.9877 150.848 53.4304 150.736 53.8464 150.512C54.2624 150.277 54.5824 149.968 54.8064 149.584L54.6464 150.688V145.584H48.4544V144.048H58.0544V145.584ZM60.6934 145.584V154H58.8214V145.584H57.5094V144.048H62.2294V145.584H60.6934ZM61.6894 145.584V144.048H73.3694V145.584H71.8174V154H69.9454V148.112L70.8574 148.88C70.6867 148.805 70.516 148.757 70.3454 148.736C70.1854 148.715 70.0254 148.704 69.8654 148.704C69.5454 148.704 69.2627 148.784 69.0174 148.944C68.772 149.093 68.564 149.344 68.3934 149.696C68.2334 150.048 68.1107 150.512 68.0254 151.088L66.2174 150.64C66.356 149.499 66.7347 148.64 67.3534 148.064C67.972 147.488 68.7827 147.2 69.7854 147.2C69.9987 147.2 70.2227 147.216 70.4574 147.248C70.7027 147.28 70.8947 147.317 71.0334 147.36L71.0814 147.712L69.9454 147.408V145.584H61.6894ZM67.0494 149.488C66.868 149.264 66.6547 149.083 66.4094 148.944C66.1747 148.795 65.8867 148.72 65.5454 148.72C65.1187 148.72 64.7827 148.848 64.5374 149.104C64.3027 149.349 64.1854 149.68 64.1854 150.096C64.1854 150.619 64.388 151.099 64.7934 151.536C65.2094 151.963 65.892 152.427 66.8414 152.928L65.8174 154.32C64.7294 153.755 63.8707 153.12 63.2414 152.416C62.6227 151.701 62.3134 150.885 62.3134 149.968C62.3134 149.029 62.5907 148.331 63.1454 147.872C63.7 147.403 64.404 147.168 65.2574 147.168C65.812 147.168 66.2974 147.264 66.7134 147.456C67.1294 147.648 67.492 147.915 67.8014 148.256L67.0494 149.488ZM69.4309 144.16C69.2602 143.819 69.1322 143.477 69.0469 143.136C68.9615 142.795 68.9189 142.469 68.9189 142.16C68.9189 141.413 69.1589 140.811 69.6389 140.352C70.1189 139.893 70.7909 139.664 71.6549 139.664C72.4975 139.664 73.1855 139.851 73.7189 140.224C74.2629 140.587 74.7002 141.104 75.0309 141.776C75.3722 142.448 75.6442 143.243 75.8469 144.16H74.1189C73.9055 143.179 73.6229 142.443 73.2709 141.952C72.9295 141.451 72.4975 141.2 71.9749 141.2C71.5695 141.2 71.2709 141.317 71.0789 141.552C70.8869 141.776 70.7909 142.085 70.7909 142.48C70.7909 142.757 70.8389 143.04 70.9349 143.328C71.0202 143.605 71.1322 143.883 71.2709 144.16H69.4309ZM75.9909 145.584V154H74.1189V145.584H72.8069V144.048H77.5269V145.584H75.9909ZM81.5575 145.584V144.048H93.2375V145.584H91.6855V154H89.8135V148.112L90.7255 148.88C90.5548 148.805 90.3842 148.757 90.2135 148.736C90.0535 148.715 89.8935 148.704 89.7335 148.704C89.4135 148.704 89.1308 148.784 88.8855 148.944C88.6402 149.093 88.4322 149.344 88.2615 149.696C88.1015 150.048 87.9788 150.512 87.8935 151.088L86.0855 150.64C86.2242 149.499 86.6028 148.64 87.2215 148.064C87.8402 147.488 88.6508 147.2 89.6535 147.2C89.8668 147.2 90.0908 147.216 90.3255 147.248C90.5708 147.28 90.7628 147.317 90.9015 147.36L90.9495 147.712L89.8135 147.408V145.584H81.5575ZM86.9175 149.488C86.7362 149.264 86.5228 149.083 86.2775 148.944C86.0428 148.795 85.7548 148.72 85.4135 148.72C84.9868 148.72 84.6508 148.848 84.4055 149.104C84.1708 149.349 84.0535 149.68 84.0535 150.096C84.0535 150.619 84.2562 151.099 84.6615 151.536C85.0775 151.963 85.7602 152.427 86.7095 152.928L85.6855 154.32C84.5975 153.755 83.7388 153.12 83.1095 152.416C82.4908 151.701 82.1815 150.885 82.1815 149.968C82.1815 149.029 82.4588 148.331 83.0135 147.872C83.5682 147.403 84.2722 147.168 85.1255 147.168C85.6802 147.168 86.1655 147.264 86.5815 147.456C86.9975 147.648 87.3602 147.915 87.6695 148.256L86.9175 149.488ZM95.859 145.584V154H93.987V145.584H92.675V144.048H97.395V145.584H95.859ZM101.207 150.72C100.908 150.72 100.604 150.747 100.295 150.8C99.9963 150.853 99.703 150.928 99.415 151.024C99.1163 150.843 98.823 150.629 98.535 150.384C98.247 150.139 98.0123 149.861 97.831 149.552C97.6603 149.232 97.575 148.891 97.575 148.528C97.575 147.931 97.7777 147.477 98.183 147.168C98.5883 146.848 99.207 146.688 100.039 146.688H101.847V145.584H96.855V144.048H105.239V145.584H103.719V148.064H100.407C100.066 148.064 99.815 148.123 99.655 148.24C99.495 148.347 99.415 148.501 99.415 148.704C99.415 148.864 99.463 149.013 99.559 149.152C99.655 149.28 99.7723 149.403 99.911 149.52C100.188 149.445 100.466 149.392 100.743 149.36C101.02 149.317 101.324 149.296 101.655 149.296C102.284 149.296 102.802 149.392 103.207 149.584C103.612 149.765 103.911 150.027 104.103 150.368C104.306 150.709 104.407 151.099 104.407 151.536C104.407 152.347 104.087 152.971 103.447 153.408C102.807 153.835 101.895 154.032 100.711 154C100.647 154 100.588 154.005 100.535 154.016C100.482 154.037 100.418 154.053 100.343 154.064C100.279 154.075 100.188 154.085 100.071 154.096C99.2603 154.096 98.6203 153.968 98.151 153.712C97.6923 153.456 97.463 153.104 97.463 152.656C97.463 152.368 97.5537 152.144 97.735 151.984C97.927 151.813 98.183 151.728 98.503 151.728C98.8337 151.728 99.1483 151.851 99.447 152.096C99.7563 152.331 100.071 152.72 100.391 153.264C100.754 153.659 101.143 154.048 101.559 154.432C101.975 154.827 102.418 155.216 102.887 155.6L101.463 156.688C100.994 156.176 100.551 155.659 100.135 155.136C99.7297 154.613 99.351 154.091 98.999 153.568L98.711 152.496C99.0203 152.539 99.335 152.571 99.655 152.592C99.975 152.603 100.236 152.608 100.439 152.608C100.876 152.608 101.25 152.576 101.559 152.512C101.868 152.437 102.103 152.325 102.263 152.176C102.434 152.016 102.519 151.803 102.519 151.536C102.519 151.269 102.418 151.067 102.215 150.928C102.023 150.789 101.687 150.72 101.207 150.72ZM104.691 144.048H114.403V145.584H112.867V154H110.979V149.6H108.419V150.144C108.419 150.549 108.329 150.853 108.147 151.056C107.977 151.248 107.731 151.344 107.411 151.344C107.177 151.344 106.926 151.275 106.659 151.136C106.403 150.987 106.169 150.795 105.955 150.56C105.742 150.315 105.566 150.059 105.427 149.792C105.289 149.515 105.219 149.253 105.219 149.008C105.219 148.72 105.299 148.491 105.459 148.32C105.63 148.139 105.934 148.048 106.371 148.048H110.979V145.584H104.691V144.048Z" fill="black"/>
<rect x="281" y="138" width="79" height="22" rx="11" fill="#FFA233"/>
<path d="M291.643 152.292L295.015 150.348L296.323 150.42L292.267 153.204L291.643 152.292ZM297.067 146.532V153H295.891V150.096L296.203 150.48C295.987 150.672 295.715 150.832 295.387 150.96C295.059 151.08 294.711 151.14 294.343 151.14C293.847 151.14 293.423 151.052 293.071 150.876C292.727 150.692 292.463 150.42 292.279 150.06C292.103 149.7 292.015 149.252 292.015 148.716V146.532H291.115V145.536H298.279V146.532H297.067ZM295.891 146.532H293.191V148.74C293.191 149.06 293.235 149.324 293.323 149.532C293.419 149.74 293.551 149.896 293.719 150C293.895 150.096 294.107 150.144 294.355 150.144C294.707 150.144 295.039 150.048 295.351 149.856C295.663 149.656 295.915 149.428 296.107 149.172L295.891 149.892V146.532ZM300.763 146.532V150.204C300.763 150.452 300.707 150.644 300.595 150.78C300.483 150.916 300.323 150.984 300.115 150.984C299.947 150.984 299.771 150.932 299.587 150.828C299.411 150.724 299.243 150.588 299.083 150.42C298.931 150.252 298.807 150.072 298.711 149.88C298.615 149.688 298.567 149.504 298.567 149.328C298.567 149.136 298.623 148.98 298.735 148.86C298.855 148.732 299.067 148.668 299.371 148.668L299.587 148.68V146.532H298.111V145.536H305.227V146.532H304.027V153H302.851V146.532H300.763ZM306.045 145.62C305.941 145.436 305.853 145.24 305.781 145.032C305.709 144.824 305.673 144.592 305.673 144.336C305.673 143.688 305.921 143.18 306.417 142.812C306.913 142.436 307.585 142.248 308.433 142.248C309.249 142.248 310.009 142.396 310.713 142.692C311.417 142.988 312.049 143.388 312.609 143.892C313.169 144.396 313.645 144.972 314.037 145.62H312.849C312.465 145.108 312.049 144.676 311.601 144.324C311.161 143.972 310.697 143.708 310.209 143.532C309.721 143.348 309.221 143.256 308.709 143.256C308.117 143.256 307.657 143.368 307.329 143.592C307.009 143.808 306.849 144.12 306.849 144.528C306.849 144.768 306.889 144.98 306.969 145.164C307.057 145.34 307.153 145.492 307.257 145.62H306.045ZM307.269 146.532V153H306.093V146.532H305.061V145.536H308.469V146.532H307.269ZM314.271 146.532V153H313.095V149.196H311.463C310.991 149.196 310.623 149.28 310.359 149.448C310.103 149.616 309.975 149.896 309.975 150.288C309.975 150.648 310.091 150.996 310.323 151.332C310.563 151.668 310.911 152.052 311.367 152.484L310.527 153.204C309.975 152.66 309.547 152.152 309.243 151.68C308.939 151.2 308.787 150.688 308.787 150.144C308.787 149.48 309.011 148.992 309.459 148.68C309.907 148.36 310.515 148.2 311.283 148.2H313.095V146.532H308.283V145.536H315.471V146.532H314.271ZM324.372 146.532V153H323.196V150.096L323.508 150.48C323.292 150.672 323.02 150.832 322.692 150.96C322.364 151.08 322.016 151.14 321.648 151.14C321.152 151.14 320.728 151.052 320.376 150.876C320.032 150.692 319.768 150.42 319.584 150.06C319.408 149.7 319.32 149.252 319.32 148.716V146.532H318.42V145.536H325.584V146.532H324.372ZM323.196 146.532H320.496V148.74C320.496 149.06 320.54 149.324 320.628 149.532C320.724 149.74 320.856 149.896 321.024 150C321.2 150.096 321.412 150.144 321.66 150.144C322.012 150.144 322.344 150.048 322.656 149.856C322.968 149.656 323.22 149.428 323.412 149.172L323.196 149.892V146.532ZM329.028 146.532L329.352 146.304C329.44 146.496 329.504 146.696 329.544 146.904C329.584 147.112 329.604 147.348 329.604 147.612C329.604 148.044 329.516 148.42 329.34 148.74C329.164 149.052 328.912 149.324 328.584 149.556C328.264 149.78 327.888 149.976 327.456 150.144L327.468 149.964C327.7 150.22 327.952 150.488 328.224 150.768C328.504 151.048 328.796 151.324 329.1 151.596C329.412 151.868 329.728 152.14 330.048 152.412L329.22 153.18C328.58 152.62 328.028 152.1 327.564 151.62C327.108 151.14 326.728 150.684 326.424 150.252C326.224 149.98 326.08 149.74 325.992 149.532C325.912 149.324 325.872 149.128 325.872 148.944C325.872 148.736 325.936 148.572 326.064 148.452C326.192 148.324 326.368 148.26 326.592 148.26C326.824 148.26 327.044 148.34 327.252 148.5C327.468 148.652 327.684 148.864 327.9 149.136L327.216 148.98C327.648 148.828 327.96 148.628 328.152 148.38C328.344 148.124 328.44 147.816 328.44 147.456C328.44 147.232 328.408 147.012 328.344 146.796C328.288 146.572 328.212 146.408 328.116 146.304L328.68 146.532H325.404V145.536H330.612V146.532H329.028ZM335.289 150.372C334.985 150.148 334.749 149.912 334.581 149.664C334.413 149.416 334.329 149.144 334.329 148.848C334.329 148.4 334.489 148.06 334.809 147.828C335.129 147.588 335.609 147.468 336.249 147.468H337.845V146.532H333.549V145.536H340.221V146.532H339.021V148.452H336.405C336.085 148.452 335.849 148.5 335.697 148.596C335.553 148.692 335.481 148.836 335.481 149.028C335.481 149.172 335.529 149.312 335.625 149.448C335.729 149.576 335.861 149.692 336.021 149.796L335.289 150.372ZM337.593 152.28C337.841 152.16 338.029 152.02 338.157 151.86C338.293 151.7 338.361 151.532 338.361 151.356C338.361 151.116 338.261 150.916 338.061 150.756C337.869 150.596 337.545 150.516 337.089 150.516C336.577 150.516 336.181 150.624 335.901 150.84C335.629 151.048 335.493 151.336 335.493 151.704C335.493 152 335.597 152.268 335.805 152.508C336.021 152.74 336.333 152.96 336.741 153.168C337.149 153.376 337.653 153.592 338.253 153.816L337.713 154.776C337.033 154.528 336.437 154.26 335.925 153.972C335.421 153.684 335.029 153.356 334.749 152.988C334.469 152.612 334.329 152.18 334.329 151.692C334.329 151.196 334.453 150.792 334.701 150.48C334.949 150.16 335.285 149.924 335.709 149.772C336.133 149.612 336.609 149.532 337.137 149.532C337.697 149.532 338.153 149.616 338.505 149.784C338.857 149.952 339.113 150.172 339.273 150.444C339.433 150.716 339.513 151.016 339.513 151.344C339.513 151.672 339.437 151.972 339.285 152.244C339.133 152.516 338.865 152.768 338.481 153L337.593 152.28ZM337.893 145.62C337.645 145.34 337.433 145.132 337.257 144.996C337.073 144.86 336.905 144.768 336.753 144.72C336.601 144.672 336.425 144.648 336.225 144.648C336.041 144.648 335.857 144.672 335.673 144.72C335.489 144.768 335.313 144.828 335.145 144.9L334.821 144C335.013 143.92 335.209 143.856 335.409 143.808C335.609 143.76 335.809 143.736 336.009 143.736C336.257 143.736 336.473 143.768 336.657 143.832C336.833 143.888 337.013 143.988 337.197 144.132C337.381 144.276 337.589 144.468 337.821 144.708L337.869 144.684C337.645 144.26 337.453 143.94 337.293 143.724C337.125 143.5 336.957 143.348 336.789 143.268C336.613 143.188 336.413 143.148 336.189 143.148C336.053 143.148 335.917 143.164 335.781 143.196C335.637 143.22 335.485 143.264 335.325 143.328L335.037 142.428C335.197 142.364 335.373 142.32 335.565 142.296C335.757 142.264 335.953 142.248 336.153 142.248C336.505 142.248 336.805 142.3 337.053 142.404C337.293 142.5 337.513 142.672 337.713 142.92C337.913 143.168 338.109 143.512 338.301 143.952C338.485 144.384 338.689 144.94 338.913 145.62H337.893ZM341.673 153.084C341.489 153.084 341.317 153.036 341.157 152.94C340.997 152.844 340.869 152.716 340.773 152.556C340.677 152.396 340.629 152.224 340.629 152.04C340.629 151.848 340.677 151.676 340.773 151.524C340.869 151.364 340.997 151.236 341.157 151.14C341.317 151.044 341.489 150.996 341.673 150.996C341.873 150.996 342.049 151.044 342.201 151.14C342.361 151.236 342.489 151.364 342.585 151.524C342.681 151.676 342.729 151.848 342.729 152.04C342.729 152.224 342.681 152.396 342.585 152.556C342.489 152.716 342.361 152.844 342.201 152.94C342.049 153.036 341.873 153.084 341.673 153.084ZM344.954 153.084C344.77 153.084 344.598 153.036 344.438 152.94C344.278 152.844 344.15 152.716 344.054 152.556C343.958 152.396 343.91 152.224 343.91 152.04C343.91 151.848 343.958 151.676 344.054 151.524C344.15 151.364 344.278 151.236 344.438 151.14C344.598 151.044 344.77 150.996 344.954 150.996C345.154 150.996 345.33 151.044 345.482 151.14C345.642 151.236 345.77 151.364 345.866 151.524C345.962 151.676 346.01 151.848 346.01 152.04C346.01 152.224 345.962 152.396 345.866 152.556C345.77 152.716 345.642 152.844 345.482 152.94C345.33 153.036 345.154 153.084 344.954 153.084ZM348.236 153.084C348.052 153.084 347.88 153.036 347.72 152.94C347.56 152.844 347.432 152.716 347.336 152.556C347.24 152.396 347.192 152.224 347.192 152.04C347.192 151.848 347.24 151.676 347.336 151.524C347.432 151.364 347.56 151.236 347.72 151.14C347.88 151.044 348.052 150.996 348.236 150.996C348.436 150.996 348.612 151.044 348.764 151.14C348.924 151.236 349.052 151.364 349.148 151.524C349.244 151.676 349.292 151.848 349.292 152.04C349.292 152.224 349.244 152.396 349.148 152.556C349.052 152.716 348.924 152.844 348.764 152.94C348.612 153.036 348.436 153.084 348.236 153.084Z" fill="white"/>
<rect y="186" width="380" height="50" rx="10" fill="white"/>
<path d="M20 206.048H29.712V207.584H28.176V216H26.288V211.6H23.728V212.144C23.728 212.549 23.6373 212.853 23.456 213.056C23.2853 213.248 23.04 213.344 22.72 213.344C22.4853 213.344 22.2347 213.275 21.968 213.136C21.712 212.987 21.4773 212.795 21.264 212.56C21.0507 212.315 20.8747 212.059 20.736 211.792C20.5973 211.515 20.528 211.253 20.528 211.008C20.528 210.72 20.608 210.491 20.768 210.32C20.9387 210.139 21.2427 210.048 21.68 210.048H26.288V207.584H20V206.048ZM25.7884 206.16C25.6177 205.819 25.4897 205.477 25.4044 205.136C25.319 204.795 25.2764 204.469 25.2764 204.16C25.2764 203.413 25.5164 202.811 25.9964 202.352C26.4764 201.893 27.1484 201.664 28.0124 201.664C28.855 201.664 29.543 201.851 30.0764 202.224C30.6204 202.587 31.0577 203.104 31.3884 203.776C31.7297 204.448 32.0017 205.243 32.2044 206.16H30.4764C30.263 205.179 29.9804 204.443 29.6284 203.952C29.287 203.451 28.855 203.2 28.3324 203.2C27.927 203.2 27.6284 203.317 27.4364 203.552C27.2444 203.776 27.1484 204.085 27.1484 204.48C27.1484 204.757 27.1964 205.04 27.2924 205.328C27.3777 205.605 27.4897 205.883 27.6284 206.16H25.7884ZM32.3484 207.584V216H30.4764V207.584H29.1644V206.048H33.8844V207.584H32.3484ZM44.3044 207.584H42.7684V216H40.8964V213.152L41.3444 213.536C41.0137 213.835 40.6137 214.069 40.1444 214.24C39.6857 214.4 39.179 214.48 38.6244 214.48C38.0057 214.48 37.4617 214.379 36.9924 214.176C36.523 213.963 36.155 213.669 35.8884 213.296C35.6217 212.912 35.4884 212.464 35.4884 211.952C35.4884 211.611 35.547 211.312 35.6644 211.056C35.7924 210.789 35.947 210.581 36.1284 210.432L33.9204 210.464V208.928H39.8084L39.6644 210.448H39.0884C38.555 210.448 38.1284 210.555 37.8084 210.768C37.499 210.981 37.3444 211.307 37.3444 211.744C37.3444 212.107 37.467 212.395 37.7124 212.608C37.9684 212.811 38.3097 212.912 38.7364 212.912C39.2484 212.912 39.707 212.779 40.1124 212.512C40.5284 212.245 40.8484 211.931 41.0724 211.568L40.8964 212.448V207.584H33.3444V206.048H44.3044V207.584ZM40.6228 206.16C40.4308 205.541 40.2601 205.04 40.1108 204.656C39.9508 204.272 39.7961 203.979 39.6468 203.776C39.4974 203.573 39.3374 203.435 39.1668 203.36C38.9854 203.275 38.7721 203.232 38.5268 203.232C38.3241 203.232 38.1161 203.259 37.9028 203.312C37.6788 203.355 37.4708 203.413 37.2788 203.488L36.8148 201.968C37.0708 201.872 37.3534 201.797 37.6628 201.744C37.9614 201.691 38.2601 201.664 38.5588 201.664C39.0388 201.664 39.4548 201.733 39.8068 201.872C40.1481 202 40.4574 202.235 40.7348 202.576C41.0014 202.907 41.2574 203.365 41.5028 203.952C41.7374 204.528 41.9934 205.264 42.2708 206.16H40.6228ZM57.6094 207.584H56.0734V216H54.2014V212.976L54.8094 213.36C54.4787 213.691 54.0734 213.952 53.5934 214.144C53.124 214.325 52.5907 214.416 51.9934 214.416C51.332 214.416 50.7454 214.304 50.2334 214.08C49.732 213.856 49.3374 213.531 49.0494 213.104C48.772 212.677 48.6334 212.16 48.6334 211.552C48.6334 210.613 48.9427 209.909 49.5614 209.44C50.18 208.96 51.0067 208.72 52.0414 208.72C52.3614 208.72 52.6547 208.736 52.9214 208.768C53.1987 208.8 53.4494 208.843 53.6734 208.896L53.5454 210.416C53.3427 210.373 53.1347 210.341 52.9214 210.32C52.7187 210.299 52.5 210.288 52.2654 210.288C51.732 210.288 51.3054 210.4 50.9854 210.624C50.676 210.848 50.5214 211.173 50.5214 211.6C50.5214 211.984 50.6547 212.288 50.9214 212.512C51.188 212.736 51.572 212.848 52.0734 212.848C52.5427 212.848 52.9854 212.736 53.4014 212.512C53.8174 212.277 54.1374 211.968 54.3614 211.584L54.2014 212.688V207.584H48.0094V206.048H57.6094V207.584ZM60.2484 207.584V216H58.3764V207.584H57.0644V206.048H61.7844V207.584H60.2484ZM61.2444 207.584V206.048H72.9244V207.584H71.3724V216H69.5004V210.112L70.4124 210.88C70.2417 210.805 70.071 210.757 69.9004 210.736C69.7404 210.715 69.5804 210.704 69.4204 210.704C69.1004 210.704 68.8177 210.784 68.5724 210.944C68.327 211.093 68.119 211.344 67.9484 211.696C67.7884 212.048 67.6657 212.512 67.5804 213.088L65.7724 212.64C65.911 211.499 66.2897 210.64 66.9084 210.064C67.527 209.488 68.3377 209.2 69.3404 209.2C69.5537 209.2 69.7777 209.216 70.0124 209.248C70.2577 209.28 70.4497 209.317 70.5884 209.36L70.6364 209.712L69.5004 209.408V207.584H61.2444ZM66.6044 211.488C66.423 211.264 66.2097 211.083 65.9644 210.944C65.7297 210.795 65.4417 210.72 65.1004 210.72C64.6737 210.72 64.3377 210.848 64.0924 211.104C63.8577 211.349 63.7404 211.68 63.7404 212.096C63.7404 212.619 63.943 213.099 64.3484 213.536C64.7644 213.963 65.447 214.427 66.3964 214.928L65.3724 216.32C64.2844 215.755 63.4257 215.12 62.7964 214.416C62.1777 213.701 61.8684 212.885 61.8684 211.968C61.8684 211.029 62.1457 210.331 62.7004 209.872C63.255 209.403 63.959 209.168 64.8124 209.168C65.367 209.168 65.8524 209.264 66.2684 209.456C66.6844 209.648 67.047 209.915 67.3564 210.256L66.6044 211.488ZM68.9859 206.16C68.8152 205.819 68.6872 205.477 68.6019 205.136C68.5165 204.795 68.4739 204.469 68.4739 204.16C68.4739 203.413 68.7139 202.811 69.1939 202.352C69.6739 201.893 70.3459 201.664 71.2099 201.664C72.0525 201.664 72.7405 201.851 73.2739 202.224C73.8179 202.587 74.2552 203.104 74.5859 203.776C74.9272 204.448 75.1992 205.243 75.4019 206.16H73.6739C73.4605 205.179 73.1779 204.443 72.8259 203.952C72.4845 203.451 72.0525 203.2 71.5299 203.2C71.1245 203.2 70.8259 203.317 70.6339 203.552C70.4419 203.776 70.3459 204.085 70.3459 204.48C70.3459 204.757 70.3939 205.04 70.4899 205.328C70.5752 205.605 70.6872 205.883 70.8259 206.16H68.9859ZM75.5459 207.584V216H73.6739V207.584H72.3619V206.048H77.0819V207.584H75.5459ZM81.1125 207.584V206.048H92.7925V207.584H91.2405V216H89.3685V210.112L90.2805 210.88C90.1098 210.805 89.9392 210.757 89.7685 210.736C89.6085 210.715 89.4485 210.704 89.2885 210.704C88.9685 210.704 88.6858 210.784 88.4405 210.944C88.1952 211.093 87.9872 211.344 87.8165 211.696C87.6565 212.048 87.5338 212.512 87.4485 213.088L85.6405 212.64C85.7792 211.499 86.1578 210.64 86.7765 210.064C87.3952 209.488 88.2058 209.2 89.2085 209.2C89.4218 209.2 89.6458 209.216 89.8805 209.248C90.1258 209.28 90.3178 209.317 90.4565 209.36L90.5045 209.712L89.3685 209.408V207.584H81.1125ZM86.4725 211.488C86.2912 211.264 86.0778 211.083 85.8325 210.944C85.5978 210.795 85.3098 210.72 84.9685 210.72C84.5418 210.72 84.2058 210.848 83.9605 211.104C83.7258 211.349 83.6085 211.68 83.6085 212.096C83.6085 212.619 83.8112 213.099 84.2165 213.536C84.6325 213.963 85.3152 214.427 86.2645 214.928L85.2405 216.32C84.1525 215.755 83.2938 215.12 82.6645 214.416C82.0458 213.701 81.7365 212.885 81.7365 211.968C81.7365 211.029 82.0138 210.331 82.5685 209.872C83.1232 209.403 83.8272 209.168 84.6805 209.168C85.2352 209.168 85.7205 209.264 86.1365 209.456C86.5525 209.648 86.9152 209.915 87.2245 210.256L86.4725 211.488ZM95.414 207.584V216H93.542V207.584H92.23V206.048H96.95V207.584H95.414ZM100.762 212.72C100.463 212.72 100.159 212.747 99.85 212.8C99.5513 212.853 99.258 212.928 98.97 213.024C98.6713 212.843 98.378 212.629 98.09 212.384C97.802 212.139 97.5673 211.861 97.386 211.552C97.2153 211.232 97.13 210.891 97.13 210.528C97.13 209.931 97.3327 209.477 97.738 209.168C98.1433 208.848 98.762 208.688 99.594 208.688H101.402V207.584H96.41V206.048H104.794V207.584H103.274V210.064H99.962C99.6207 210.064 99.37 210.123 99.21 210.24C99.05 210.347 98.97 210.501 98.97 210.704C98.97 210.864 99.018 211.013 99.114 211.152C99.21 211.28 99.3273 211.403 99.466 211.52C99.7433 211.445 100.021 211.392 100.298 211.36C100.575 211.317 100.879 211.296 101.21 211.296C101.839 211.296 102.357 211.392 102.762 211.584C103.167 211.765 103.466 212.027 103.658 212.368C103.861 212.709 103.962 213.099 103.962 213.536C103.962 214.347 103.642 214.971 103.002 215.408C102.362 215.835 101.45 216.032 100.266 216C100.202 216 100.143 216.005 100.09 216.016C100.037 216.037 99.9727 216.053 99.898 216.064C99.834 216.075 99.7433 216.085 99.626 216.096C98.8153 216.096 98.1753 215.968 97.706 215.712C97.2473 215.456 97.018 215.104 97.018 214.656C97.018 214.368 97.1087 214.144 97.29 213.984C97.482 213.813 97.738 213.728 98.058 213.728C98.3887 213.728 98.7033 213.851 99.002 214.096C99.3113 214.331 99.626 214.72 99.946 215.264C100.309 215.659 100.698 216.048 101.114 216.432C101.53 216.827 101.973 217.216 102.442 217.6L101.018 218.688C100.549 218.176 100.106 217.659 99.69 217.136C99.2847 216.613 98.906 216.091 98.554 215.568L98.266 214.496C98.5753 214.539 98.89 214.571 99.21 214.592C99.53 214.603 99.7913 214.608 99.994 214.608C100.431 214.608 100.805 214.576 101.114 214.512C101.423 214.437 101.658 214.325 101.818 214.176C101.989 214.016 102.074 213.803 102.074 213.536C102.074 213.269 101.973 213.067 101.77 212.928C101.578 212.789 101.242 212.72 100.762 212.72ZM104.246 206.048H113.958V207.584H112.422V216H110.534V211.6H107.974V212.144C107.974 212.549 107.884 212.853 107.702 213.056C107.532 213.248 107.286 213.344 106.966 213.344C106.732 213.344 106.481 213.275 106.214 213.136C105.958 212.987 105.724 212.795 105.51 212.56C105.297 212.315 105.121 212.059 104.982 211.792C104.844 211.515 104.774 211.253 104.774 211.008C104.774 210.72 104.854 210.491 105.014 210.32C105.185 210.139 105.489 210.048 105.926 210.048H110.534V207.584H104.246V206.048Z" fill="black"/>
<rect x="281" y="200" width="79" height="22" rx="11" fill="#FFA233"/>
<path d="M291.643 214.292L295.015 212.348L296.323 212.42L292.267 215.204L291.643 214.292ZM297.067 208.532V215H295.891V212.096L296.203 212.48C295.987 212.672 295.715 212.832 295.387 212.96C295.059 213.08 294.711 213.14 294.343 213.14C293.847 213.14 293.423 213.052 293.071 212.876C292.727 212.692 292.463 212.42 292.279 212.06C292.103 211.7 292.015 211.252 292.015 210.716V208.532H291.115V207.536H298.279V208.532H297.067ZM295.891 208.532H293.191V210.74C293.191 211.06 293.235 211.324 293.323 211.532C293.419 211.74 293.551 211.896 293.719 212C293.895 212.096 294.107 212.144 294.355 212.144C294.707 212.144 295.039 212.048 295.351 211.856C295.663 211.656 295.915 211.428 296.107 211.172L295.891 211.892V208.532ZM300.763 208.532V212.204C300.763 212.452 300.707 212.644 300.595 212.78C300.483 212.916 300.323 212.984 300.115 212.984C299.947 212.984 299.771 212.932 299.587 212.828C299.411 212.724 299.243 212.588 299.083 212.42C298.931 212.252 298.807 212.072 298.711 211.88C298.615 211.688 298.567 211.504 298.567 211.328C298.567 211.136 298.623 210.98 298.735 210.86C298.855 210.732 299.067 210.668 299.371 210.668L299.587 210.68V208.532H298.111V207.536H305.227V208.532H304.027V215H302.851V208.532H300.763ZM306.045 207.62C305.941 207.436 305.853 207.24 305.781 207.032C305.709 206.824 305.673 206.592 305.673 206.336C305.673 205.688 305.921 205.18 306.417 204.812C306.913 204.436 307.585 204.248 308.433 204.248C309.249 204.248 310.009 204.396 310.713 204.692C311.417 204.988 312.049 205.388 312.609 205.892C313.169 206.396 313.645 206.972 314.037 207.62H312.849C312.465 207.108 312.049 206.676 311.601 206.324C311.161 205.972 310.697 205.708 310.209 205.532C309.721 205.348 309.221 205.256 308.709 205.256C308.117 205.256 307.657 205.368 307.329 205.592C307.009 205.808 306.849 206.12 306.849 206.528C306.849 206.768 306.889 206.98 306.969 207.164C307.057 207.34 307.153 207.492 307.257 207.62H306.045ZM307.269 208.532V215H306.093V208.532H305.061V207.536H308.469V208.532H307.269ZM314.271 208.532V215H313.095V211.196H311.463C310.991 211.196 310.623 211.28 310.359 211.448C310.103 211.616 309.975 211.896 309.975 212.288C309.975 212.648 310.091 212.996 310.323 213.332C310.563 213.668 310.911 214.052 311.367 214.484L310.527 215.204C309.975 214.66 309.547 214.152 309.243 213.68C308.939 213.2 308.787 212.688 308.787 212.144C308.787 211.48 309.011 210.992 309.459 210.68C309.907 210.36 310.515 210.2 311.283 210.2H313.095V208.532H308.283V207.536H315.471V208.532H314.271ZM324.372 208.532V215H323.196V212.096L323.508 212.48C323.292 212.672 323.02 212.832 322.692 212.96C322.364 213.08 322.016 213.14 321.648 213.14C321.152 213.14 320.728 213.052 320.376 212.876C320.032 212.692 319.768 212.42 319.584 212.06C319.408 211.7 319.32 211.252 319.32 210.716V208.532H318.42V207.536H325.584V208.532H324.372ZM323.196 208.532H320.496V210.74C320.496 211.06 320.54 211.324 320.628 211.532C320.724 211.74 320.856 211.896 321.024 212C321.2 212.096 321.412 212.144 321.66 212.144C322.012 212.144 322.344 212.048 322.656 211.856C322.968 211.656 323.22 211.428 323.412 211.172L323.196 211.892V208.532ZM329.028 208.532L329.352 208.304C329.44 208.496 329.504 208.696 329.544 208.904C329.584 209.112 329.604 209.348 329.604 209.612C329.604 210.044 329.516 210.42 329.34 210.74C329.164 211.052 328.912 211.324 328.584 211.556C328.264 211.78 327.888 211.976 327.456 212.144L327.468 211.964C327.7 212.22 327.952 212.488 328.224 212.768C328.504 213.048 328.796 213.324 329.1 213.596C329.412 213.868 329.728 214.14 330.048 214.412L329.22 215.18C328.58 214.62 328.028 214.1 327.564 213.62C327.108 213.14 326.728 212.684 326.424 212.252C326.224 211.98 326.08 211.74 325.992 211.532C325.912 211.324 325.872 211.128 325.872 210.944C325.872 210.736 325.936 210.572 326.064 210.452C326.192 210.324 326.368 210.26 326.592 210.26C326.824 210.26 327.044 210.34 327.252 210.5C327.468 210.652 327.684 210.864 327.9 211.136L327.216 210.98C327.648 210.828 327.96 210.628 328.152 210.38C328.344 210.124 328.44 209.816 328.44 209.456C328.44 209.232 328.408 209.012 328.344 208.796C328.288 208.572 328.212 208.408 328.116 208.304L328.68 208.532H325.404V207.536H330.612V208.532H329.028ZM335.289 212.372C334.985 212.148 334.749 211.912 334.581 211.664C334.413 211.416 334.329 211.144 334.329 210.848C334.329 210.4 334.489 210.06 334.809 209.828C335.129 209.588 335.609 209.468 336.249 209.468H337.845V208.532H333.549V207.536H340.221V208.532H339.021V210.452H336.405C336.085 210.452 335.849 210.5 335.697 210.596C335.553 210.692 335.481 210.836 335.481 211.028C335.481 211.172 335.529 211.312 335.625 211.448C335.729 211.576 335.861 211.692 336.021 211.796L335.289 212.372ZM337.593 214.28C337.841 214.16 338.029 214.02 338.157 213.86C338.293 213.7 338.361 213.532 338.361 213.356C338.361 213.116 338.261 212.916 338.061 212.756C337.869 212.596 337.545 212.516 337.089 212.516C336.577 212.516 336.181 212.624 335.901 212.84C335.629 213.048 335.493 213.336 335.493 213.704C335.493 214 335.597 214.268 335.805 214.508C336.021 214.74 336.333 214.96 336.741 215.168C337.149 215.376 337.653 215.592 338.253 215.816L337.713 216.776C337.033 216.528 336.437 216.26 335.925 215.972C335.421 215.684 335.029 215.356 334.749 214.988C334.469 214.612 334.329 214.18 334.329 213.692C334.329 213.196 334.453 212.792 334.701 212.48C334.949 212.16 335.285 211.924 335.709 211.772C336.133 211.612 336.609 211.532 337.137 211.532C337.697 211.532 338.153 211.616 338.505 211.784C338.857 211.952 339.113 212.172 339.273 212.444C339.433 212.716 339.513 213.016 339.513 213.344C339.513 213.672 339.437 213.972 339.285 214.244C339.133 214.516 338.865 214.768 338.481 215L337.593 214.28ZM337.893 207.62C337.645 207.34 337.433 207.132 337.257 206.996C337.073 206.86 336.905 206.768 336.753 206.72C336.601 206.672 336.425 206.648 336.225 206.648C336.041 206.648 335.857 206.672 335.673 206.72C335.489 206.768 335.313 206.828 335.145 206.9L334.821 206C335.013 205.92 335.209 205.856 335.409 205.808C335.609 205.76 335.809 205.736 336.009 205.736C336.257 205.736 336.473 205.768 336.657 205.832C336.833 205.888 337.013 205.988 337.197 206.132C337.381 206.276 337.589 206.468 337.821 206.708L337.869 206.684C337.645 206.26 337.453 205.94 337.293 205.724C337.125 205.5 336.957 205.348 336.789 205.268C336.613 205.188 336.413 205.148 336.189 205.148C336.053 205.148 335.917 205.164 335.781 205.196C335.637 205.22 335.485 205.264 335.325 205.328L335.037 204.428C335.197 204.364 335.373 204.32 335.565 204.296C335.757 204.264 335.953 204.248 336.153 204.248C336.505 204.248 336.805 204.3 337.053 204.404C337.293 204.5 337.513 204.672 337.713 204.92C337.913 205.168 338.109 205.512 338.301 205.952C338.485 206.384 338.689 206.94 338.913 207.62H337.893ZM341.673 215.084C341.489 215.084 341.317 215.036 341.157 214.94C340.997 214.844 340.869 214.716 340.773 214.556C340.677 214.396 340.629 214.224 340.629 214.04C340.629 213.848 340.677 213.676 340.773 213.524C340.869 213.364 340.997 213.236 341.157 213.14C341.317 213.044 341.489 212.996 341.673 212.996C341.873 212.996 342.049 213.044 342.201 213.14C342.361 213.236 342.489 213.364 342.585 213.524C342.681 213.676 342.729 213.848 342.729 214.04C342.729 214.224 342.681 214.396 342.585 214.556C342.489 214.716 342.361 214.844 342.201 214.94C342.049 215.036 341.873 215.084 341.673 215.084ZM344.954 215.084C344.77 215.084 344.598 215.036 344.438 214.94C344.278 214.844 344.15 214.716 344.054 214.556C343.958 214.396 343.91 214.224 343.91 214.04C343.91 213.848 343.958 213.676 344.054 213.524C344.15 213.364 344.278 213.236 344.438 213.14C344.598 213.044 344.77 212.996 344.954 212.996C345.154 212.996 345.33 213.044 345.482 213.14C345.642 213.236 345.77 213.364 345.866 213.524C345.962 213.676 346.01 213.848 346.01 214.04C346.01 214.224 345.962 214.396 345.866 214.556C345.77 214.716 345.642 214.844 345.482 214.94C345.33 215.036 345.154 215.084 344.954 215.084ZM348.236 215.084C348.052 215.084 347.88 215.036 347.72 214.94C347.56 214.844 347.432 214.716 347.336 214.556C347.24 214.396 347.192 214.224 347.192 214.04C347.192 213.848 347.24 213.676 347.336 213.524C347.432 213.364 347.56 213.236 347.72 213.14C347.88 213.044 348.052 212.996 348.236 212.996C348.436 212.996 348.612 213.044 348.764 213.14C348.924 213.236 349.052 213.364 349.148 213.524C349.244 213.676 349.292 213.848 349.292 214.04C349.292 214.224 349.244 214.396 349.148 214.556C349.052 214.716 348.924 214.844 348.764 214.94C348.612 215.036 348.436 215.084 348.236 215.084Z" fill="white"/>
<rect y="248" width="380" height="50" rx="10" fill="white"/>
<path d="M24.496 278.32C23.6427 277.467 22.9227 276.683 22.336 275.968C21.7493 275.253 21.3173 274.651 21.04 274.16C20.88 273.872 20.7627 273.611 20.688 273.376C20.6133 273.141 20.576 272.917 20.576 272.704C20.576 272.395 20.6667 272.144 20.848 271.952C21.04 271.76 21.3067 271.664 21.648 271.664C22.0107 271.664 22.336 271.781 22.624 272.016C22.9227 272.251 23.216 272.539 23.504 272.88L22.4 272.736C22.8267 272.533 23.12 272.267 23.28 271.936C23.44 271.595 23.52 271.216 23.52 270.8C23.52 270.459 23.4773 270.149 23.392 269.872C23.3173 269.584 23.216 269.355 23.088 269.184L24.032 269.584H20V268.048H27.008V269.584H24.592L25.024 269.2C25.1413 269.456 25.232 269.733 25.296 270.032C25.3707 270.32 25.408 270.645 25.408 271.008C25.408 271.435 25.3387 271.819 25.2 272.16C25.0613 272.501 24.8747 272.8 24.64 273.056L24.48 273.248C24.2773 273.461 24.0427 273.653 23.776 273.824C23.52 273.984 23.2107 274.133 22.848 274.272V274.032C23.104 274.363 23.392 274.699 23.712 275.04C24.032 275.381 24.3733 275.728 24.736 276.08C25.1093 276.432 25.4933 276.789 25.888 277.152L24.496 278.32ZM26.704 274.352C26.256 274.352 25.7813 274.299 25.28 274.192C24.7787 274.085 24.288 273.899 23.808 273.632L24.352 272.352C24.7893 272.512 25.184 272.629 25.536 272.704C25.888 272.768 26.2773 272.8 26.704 272.8C27.1307 272.8 27.5413 272.763 27.936 272.688C28.3307 272.613 28.7307 272.485 29.136 272.304V273.936C28.784 274.075 28.4053 274.181 28 274.256C27.5947 274.32 27.1627 274.352 26.704 274.352ZM28.256 278V269.584H26.56V268.048H31.664V269.584H30.128V278H28.256ZM34.3015 269.584V278H32.4295V269.584H31.1175V268.048H35.8375V269.584H34.3015ZM40.4335 269.584L40.8015 269.216C40.9082 269.472 40.9935 269.739 41.0575 270.016C41.1215 270.293 41.1535 270.619 41.1535 270.992C41.1535 271.547 41.0362 272.037 40.8015 272.464C40.5668 272.88 40.2362 273.243 39.8095 273.552C39.3828 273.851 38.8815 274.107 38.3055 274.32L38.2895 274C38.6095 274.331 38.9455 274.672 39.2975 275.024C39.6602 275.365 40.0388 275.707 40.4335 276.048C40.8388 276.389 41.2495 276.731 41.6655 277.072L40.3535 278.288C39.5002 277.552 38.7588 276.864 38.1295 276.224C37.5108 275.584 37.0042 274.981 36.6095 274.416C36.3535 274.064 36.1668 273.749 36.0495 273.472C35.9322 273.195 35.8735 272.928 35.8735 272.672C35.8735 272.373 35.9695 272.133 36.1615 271.952C36.3535 271.76 36.6148 271.664 36.9455 271.664C37.2868 271.664 37.6068 271.771 37.9055 271.984C38.2042 272.197 38.5135 272.496 38.8335 272.88L37.8095 272.64C38.3215 272.437 38.6948 272.181 38.9295 271.872C39.1642 271.563 39.2815 271.184 39.2815 270.736C39.2815 270.427 39.2442 270.133 39.1695 269.856C39.0948 269.568 38.9882 269.349 38.8495 269.2L39.6335 269.584H35.2975V268.048H42.4015V269.584H40.4335ZM38.5603 268.16C38.3683 267.541 38.1976 267.04 38.0483 266.656C37.8883 266.272 37.7336 265.979 37.5843 265.776C37.4349 265.573 37.2749 265.435 37.1043 265.36C36.9229 265.275 36.7096 265.232 36.4643 265.232C36.2616 265.232 36.0536 265.259 35.8403 265.312C35.6163 265.355 35.4083 265.413 35.2163 265.488L34.7523 263.968C35.0083 263.872 35.2909 263.797 35.6003 263.744C35.8989 263.691 36.1976 263.664 36.4963 263.664C36.9763 263.664 37.3923 263.733 37.7443 263.872C38.0856 264 38.3949 264.235 38.6723 264.576C38.9389 264.907 39.1949 265.365 39.4403 265.952C39.6749 266.528 39.9309 267.264 40.2083 268.16H38.5603ZM46.0875 268.048H55.7995V269.584H54.2635V278H52.3755V273.6H49.8155V274.144C49.8155 274.549 49.7248 274.853 49.5435 275.056C49.3728 275.248 49.1275 275.344 48.8075 275.344C48.5728 275.344 48.3222 275.275 48.0555 275.136C47.7995 274.987 47.5648 274.795 47.3515 274.56C47.1382 274.315 46.9622 274.059 46.8235 273.792C46.6848 273.515 46.6155 273.253 46.6155 273.008C46.6155 272.72 46.6955 272.491 46.8555 272.32C47.0262 272.139 47.3302 272.048 47.7675 272.048H52.3755V269.584H46.0875V268.048ZM51.8763 265.68C51.8763 265.36 51.9883 265.093 52.2123 264.88C52.4256 264.656 52.6816 264.544 52.9803 264.544C53.3003 264.544 53.5669 264.656 53.7803 264.88C53.9829 265.093 54.0843 265.36 54.0843 265.68C54.0843 265.989 53.9829 266.256 53.7803 266.48C53.5669 266.693 53.3003 266.8 52.9803 266.8C52.6816 266.8 52.4256 266.693 52.2123 266.48C51.9883 266.256 51.8763 265.989 51.8763 265.68ZM64.7719 269.584H63.2359V278H61.3479V274.992L61.9079 275.504C61.5452 275.813 61.1239 276.053 60.6439 276.224C60.1745 276.384 59.6305 276.464 59.0119 276.464C57.9452 276.464 57.1025 276.203 56.4839 275.68C55.8652 275.147 55.5559 274.443 55.5559 273.568C55.5559 272.597 55.8812 271.872 56.5319 271.392C57.1825 270.912 58.0412 270.672 59.1079 270.672C59.4385 270.672 59.7425 270.688 60.0199 270.72C60.3079 270.741 60.5799 270.784 60.8359 270.848L60.6919 272.272C60.4892 272.229 60.2705 272.197 60.0359 272.176C59.8119 272.144 59.5772 272.128 59.3319 272.128C58.7025 272.128 58.2119 272.251 57.8599 272.496C57.5185 272.741 57.3479 273.109 57.3479 273.6C57.3479 274.069 57.5025 274.421 57.8119 274.656C58.1319 274.891 58.5479 275.008 59.0599 275.008C59.4439 275.008 59.7959 274.944 60.1159 274.816C60.4465 274.688 60.7399 274.523 60.9959 274.32C61.2519 274.107 61.4599 273.893 61.6199 273.68L61.3479 274.704V269.584H54.9319V268.048H64.7719V269.584ZM58.3879 271.392L61.1399 274.88L60.2599 275.568L57.2519 271.792L58.3879 271.392ZM69.3572 269.584L69.7252 269.216C69.8319 269.472 69.9172 269.739 69.9812 270.016C70.0452 270.293 70.0772 270.619 70.0772 270.992C70.0772 271.547 69.9599 272.037 69.7252 272.464C69.4906 272.88 69.1599 273.243 68.7332 273.552C68.3066 273.851 67.8052 274.107 67.2292 274.32L67.2132 274C67.5332 274.331 67.8692 274.672 68.2212 275.024C68.5839 275.365 68.9626 275.707 69.3572 276.048C69.7626 276.389 70.1732 276.731 70.5892 277.072L69.2772 278.288C68.4239 277.552 67.6826 276.864 67.0532 276.224C66.4346 275.584 65.9279 274.981 65.5332 274.416C65.2772 274.064 65.0906 273.749 64.9732 273.472C64.8559 273.195 64.7972 272.928 64.7972 272.672C64.7972 272.373 64.8932 272.133 65.0852 271.952C65.2772 271.76 65.5386 271.664 65.8692 271.664C66.2106 271.664 66.5306 271.771 66.8292 271.984C67.1279 272.197 67.4372 272.496 67.7572 272.88L66.7332 272.64C67.2452 272.437 67.6186 272.181 67.8532 271.872C68.0879 271.563 68.2052 271.184 68.2052 270.736C68.2052 270.427 68.1679 270.133 68.0932 269.856C68.0186 269.568 67.9119 269.349 67.7732 269.2L68.5572 269.584H64.2212V268.048H71.3252V269.584H69.3572Z" fill="black"/>
<rect x="281" y="262" width="79" height="22" rx="11" fill="#FFA233"/>
<path d="M291.643 276.292L295.015 274.348L296.323 274.42L292.267 277.204L291.643 276.292ZM297.067 270.532V277H295.891V274.096L296.203 274.48C295.987 274.672 295.715 274.832 295.387 274.96C295.059 275.08 294.711 275.14 294.343 275.14C293.847 275.14 293.423 275.052 293.071 274.876C292.727 274.692 292.463 274.42 292.279 274.06C292.103 273.7 292.015 273.252 292.015 272.716V270.532H291.115V269.536H298.279V270.532H297.067ZM295.891 270.532H293.191V272.74C293.191 273.06 293.235 273.324 293.323 273.532C293.419 273.74 293.551 273.896 293.719 274C293.895 274.096 294.107 274.144 294.355 274.144C294.707 274.144 295.039 274.048 295.351 273.856C295.663 273.656 295.915 273.428 296.107 273.172L295.891 273.892V270.532ZM300.763 270.532V274.204C300.763 274.452 300.707 274.644 300.595 274.78C300.483 274.916 300.323 274.984 300.115 274.984C299.947 274.984 299.771 274.932 299.587 274.828C299.411 274.724 299.243 274.588 299.083 274.42C298.931 274.252 298.807 274.072 298.711 273.88C298.615 273.688 298.567 273.504 298.567 273.328C298.567 273.136 298.623 272.98 298.735 272.86C298.855 272.732 299.067 272.668 299.371 272.668L299.587 272.68V270.532H298.111V269.536H305.227V270.532H304.027V277H302.851V270.532H300.763ZM306.045 269.62C305.941 269.436 305.853 269.24 305.781 269.032C305.709 268.824 305.673 268.592 305.673 268.336C305.673 267.688 305.921 267.18 306.417 266.812C306.913 266.436 307.585 266.248 308.433 266.248C309.249 266.248 310.009 266.396 310.713 266.692C311.417 266.988 312.049 267.388 312.609 267.892C313.169 268.396 313.645 268.972 314.037 269.62H312.849C312.465 269.108 312.049 268.676 311.601 268.324C311.161 267.972 310.697 267.708 310.209 267.532C309.721 267.348 309.221 267.256 308.709 267.256C308.117 267.256 307.657 267.368 307.329 267.592C307.009 267.808 306.849 268.12 306.849 268.528C306.849 268.768 306.889 268.98 306.969 269.164C307.057 269.34 307.153 269.492 307.257 269.62H306.045ZM307.269 270.532V277H306.093V270.532H305.061V269.536H308.469V270.532H307.269ZM314.271 270.532V277H313.095V273.196H311.463C310.991 273.196 310.623 273.28 310.359 273.448C310.103 273.616 309.975 273.896 309.975 274.288C309.975 274.648 310.091 274.996 310.323 275.332C310.563 275.668 310.911 276.052 311.367 276.484L310.527 277.204C309.975 276.66 309.547 276.152 309.243 275.68C308.939 275.2 308.787 274.688 308.787 274.144C308.787 273.48 309.011 272.992 309.459 272.68C309.907 272.36 310.515 272.2 311.283 272.2H313.095V270.532H308.283V269.536H315.471V270.532H314.271ZM324.372 270.532V277H323.196V274.096L323.508 274.48C323.292 274.672 323.02 274.832 322.692 274.96C322.364 275.08 322.016 275.14 321.648 275.14C321.152 275.14 320.728 275.052 320.376 274.876C320.032 274.692 319.768 274.42 319.584 274.06C319.408 273.7 319.32 273.252 319.32 272.716V270.532H318.42V269.536H325.584V270.532H324.372ZM323.196 270.532H320.496V272.74C320.496 273.06 320.54 273.324 320.628 273.532C320.724 273.74 320.856 273.896 321.024 274C321.2 274.096 321.412 274.144 321.66 274.144C322.012 274.144 322.344 274.048 322.656 273.856C322.968 273.656 323.22 273.428 323.412 273.172L323.196 273.892V270.532ZM329.028 270.532L329.352 270.304C329.44 270.496 329.504 270.696 329.544 270.904C329.584 271.112 329.604 271.348 329.604 271.612C329.604 272.044 329.516 272.42 329.34 272.74C329.164 273.052 328.912 273.324 328.584 273.556C328.264 273.78 327.888 273.976 327.456 274.144L327.468 273.964C327.7 274.22 327.952 274.488 328.224 274.768C328.504 275.048 328.796 275.324 329.1 275.596C329.412 275.868 329.728 276.14 330.048 276.412L329.22 277.18C328.58 276.62 328.028 276.1 327.564 275.62C327.108 275.14 326.728 274.684 326.424 274.252C326.224 273.98 326.08 273.74 325.992 273.532C325.912 273.324 325.872 273.128 325.872 272.944C325.872 272.736 325.936 272.572 326.064 272.452C326.192 272.324 326.368 272.26 326.592 272.26C326.824 272.26 327.044 272.34 327.252 272.5C327.468 272.652 327.684 272.864 327.9 273.136L327.216 272.98C327.648 272.828 327.96 272.628 328.152 272.38C328.344 272.124 328.44 271.816 328.44 271.456C328.44 271.232 328.408 271.012 328.344 270.796C328.288 270.572 328.212 270.408 328.116 270.304L328.68 270.532H325.404V269.536H330.612V270.532H329.028ZM335.289 274.372C334.985 274.148 334.749 273.912 334.581 273.664C334.413 273.416 334.329 273.144 334.329 272.848C334.329 272.4 334.489 272.06 334.809 271.828C335.129 271.588 335.609 271.468 336.249 271.468H337.845V270.532H333.549V269.536H340.221V270.532H339.021V272.452H336.405C336.085 272.452 335.849 272.5 335.697 272.596C335.553 272.692 335.481 272.836 335.481 273.028C335.481 273.172 335.529 273.312 335.625 273.448C335.729 273.576 335.861 273.692 336.021 273.796L335.289 274.372ZM337.593 276.28C337.841 276.16 338.029 276.02 338.157 275.86C338.293 275.7 338.361 275.532 338.361 275.356C338.361 275.116 338.261 274.916 338.061 274.756C337.869 274.596 337.545 274.516 337.089 274.516C336.577 274.516 336.181 274.624 335.901 274.84C335.629 275.048 335.493 275.336 335.493 275.704C335.493 276 335.597 276.268 335.805 276.508C336.021 276.74 336.333 276.96 336.741 277.168C337.149 277.376 337.653 277.592 338.253 277.816L337.713 278.776C337.033 278.528 336.437 278.26 335.925 277.972C335.421 277.684 335.029 277.356 334.749 276.988C334.469 276.612 334.329 276.18 334.329 275.692C334.329 275.196 334.453 274.792 334.701 274.48C334.949 274.16 335.285 273.924 335.709 273.772C336.133 273.612 336.609 273.532 337.137 273.532C337.697 273.532 338.153 273.616 338.505 273.784C338.857 273.952 339.113 274.172 339.273 274.444C339.433 274.716 339.513 275.016 339.513 275.344C339.513 275.672 339.437 275.972 339.285 276.244C339.133 276.516 338.865 276.768 338.481 277L337.593 276.28ZM337.893 269.62C337.645 269.34 337.433 269.132 337.257 268.996C337.073 268.86 336.905 268.768 336.753 268.72C336.601 268.672 336.425 268.648 336.225 268.648C336.041 268.648 335.857 268.672 335.673 268.72C335.489 268.768 335.313 268.828 335.145 268.9L334.821 268C335.013 267.92 335.209 267.856 335.409 267.808C335.609 267.76 335.809 267.736 336.009 267.736C336.257 267.736 336.473 267.768 336.657 267.832C336.833 267.888 337.013 267.988 337.197 268.132C337.381 268.276 337.589 268.468 337.821 268.708L337.869 268.684C337.645 268.26 337.453 267.94 337.293 267.724C337.125 267.5 336.957 267.348 336.789 267.268C336.613 267.188 336.413 267.148 336.189 267.148C336.053 267.148 335.917 267.164 335.781 267.196C335.637 267.22 335.485 267.264 335.325 267.328L335.037 266.428C335.197 266.364 335.373 266.32 335.565 266.296C335.757 266.264 335.953 266.248 336.153 266.248C336.505 266.248 336.805 266.3 337.053 266.404C337.293 266.5 337.513 266.672 337.713 266.92C337.913 267.168 338.109 267.512 338.301 267.952C338.485 268.384 338.689 268.94 338.913 269.62H337.893ZM341.673 277.084C341.489 277.084 341.317 277.036 341.157 276.94C340.997 276.844 340.869 276.716 340.773 276.556C340.677 276.396 340.629 276.224 340.629 276.04C340.629 275.848 340.677 275.676 340.773 275.524C340.869 275.364 340.997 275.236 341.157 275.14C341.317 275.044 341.489 274.996 341.673 274.996C341.873 274.996 342.049 275.044 342.201 275.14C342.361 275.236 342.489 275.364 342.585 275.524C342.681 275.676 342.729 275.848 342.729 276.04C342.729 276.224 342.681 276.396 342.585 276.556C342.489 276.716 342.361 276.844 342.201 276.94C342.049 277.036 341.873 277.084 341.673 277.084ZM344.954 277.084C344.77 277.084 344.598 277.036 344.438 276.94C344.278 276.844 344.15 276.716 344.054 276.556C343.958 276.396 343.91 276.224 343.91 276.04C343.91 275.848 343.958 275.676 344.054 275.524C344.15 275.364 344.278 275.236 344.438 275.14C344.598 275.044 344.77 274.996 344.954 274.996C345.154 274.996 345.33 275.044 345.482 275.14C345.642 275.236 345.77 275.364 345.866 275.524C345.962 275.676 346.01 275.848 346.01 276.04C346.01 276.224 345.962 276.396 345.866 276.556C345.77 276.716 345.642 276.844 345.482 276.94C345.33 277.036 345.154 277.084 344.954 277.084ZM348.236 277.084C348.052 277.084 347.88 277.036 347.72 276.94C347.56 276.844 347.432 276.716 347.336 276.556C347.24 276.396 347.192 276.224 347.192 276.04C347.192 275.848 347.24 275.676 347.336 275.524C347.432 275.364 347.56 275.236 347.72 275.14C347.88 275.044 348.052 274.996 348.236 274.996C348.436 274.996 348.612 275.044 348.764 275.14C348.924 275.236 349.052 275.364 349.148 275.524C349.244 275.676 349.292 275.848 349.292 276.04C349.292 276.224 349.244 276.396 349.148 276.556C349.052 276.716 348.924 276.844 348.764 276.94C348.612 277.036 348.436 277.084 348.236 277.084Z" fill="white"/>
<defs>
<filter id="filter0_i_23956_39014" x="282" y="14" width="78" height="26" filterUnits="userSpaceOnUse" color-interpolation-filters="sRGB">
<feFlood flood-opacity="0" result="BackgroundImageFix"/>
<feBlend mode="normal" in="SourceGraphic" in2="BackgroundImageFix" result="shape"/>
<feColorMatrix in="SourceAlpha" type="matrix" values="0 0 0 0 0 0 0 0 0 0 0 0 0 0 0 0 0 0 127 0" result="hardAlpha"/>
<feOffset dy="4"/>
<feGaussianBlur stdDeviation="2"/>
<feComposite in2="hardAlpha" operator="arithmetic" k2="-1" k3="1"/>
<feColorMatrix type="matrix" values="0 0 0 0 0 0 0 0 0 0 0 0 0 0 0 0 0 0 0.25 0"/>
<feBlend mode="normal" in2="shape" result="effect1_innerShadow_23956_39014"/>
</filter>
<clipPath id="clip0_23956_39014">
<rect width="10" height="10" fill="white" transform="translate(292 20)"/>
</clipPath>
</defs>
</svg>
