<svg width="198" height="18" viewBox="0 0 198 18" fill="none" xmlns="http://www.w3.org/2000/svg">
<path d="M1.12771 11.1596C1.43171 11.3996 1.95171 11.7276 2.68771 12.1436C3.43971 12.5596 4.15171 12.7676 4.82371 12.7676C5.51171 12.7676 5.85571 12.5036 5.85571 11.9756C5.85571 11.7356 5.75971 11.5276 5.56771 11.3516C5.37571 11.1596 5.02371 10.9436 4.51171 10.7036C3.99971 10.4636 3.61571 10.2796 3.35971 10.1516C3.10371 10.0076 2.75971 9.78362 2.32771 9.47962C1.91171 9.15962 1.59171 8.83162 1.36771 8.49562C0.727711 7.58362 0.407711 6.42362 0.407711 5.01562C0.407711 3.60763 0.927711 2.42362 1.96771 1.46362C3.02371 0.487624 4.39971 -0.000376225 6.09571 -0.000376225C7.24771 -0.000376225 8.31171 0.127624 9.28771 0.383625C10.2637 0.623624 10.7677 0.943624 10.7997 1.34362C10.7997 1.39162 10.7997 1.43962 10.7997 1.48762C10.7997 2.04762 10.6237 2.75962 10.2717 3.62362C9.91971 4.47162 9.67171 4.94362 9.52771 5.03962C8.50371 4.51162 7.58371 4.24762 6.76771 4.24762C5.96771 4.24762 5.56771 4.53562 5.56771 5.11162C5.56771 5.46362 5.86371 5.77562 6.45571 6.04762C6.58371 6.11162 6.76771 6.19962 7.00771 6.31162C7.24771 6.42362 7.51971 6.55962 7.82371 6.71962C8.14371 6.86362 8.47971 7.05562 8.83171 7.29562C9.19971 7.51962 9.59171 7.82362 10.0077 8.20762C10.8557 9.00762 11.2797 10.0636 11.2797 11.3756C11.2797 13.0876 10.8077 14.4876 9.86371 15.5756C8.91971 16.6636 7.46371 17.2236 5.49571 17.2556C4.53571 17.2556 3.66371 17.1756 2.87971 17.0156C2.11171 16.8556 1.43971 16.5436 0.863711 16.0796C0.287711 15.6156 -0.000289038 15.0556 -0.000289038 14.3996C-0.000289038 13.7436 0.119711 13.0956 0.359711 12.4556C0.599711 11.7996 0.855711 11.3676 1.12771 11.1596ZM21.1017 0.695625C21.1017 0.375624 21.9657 0.215624 23.6937 0.215624C25.4377 0.215624 26.3097 0.375624 26.3097 0.695625V11.7116C26.3097 13.3436 25.7257 14.6796 24.5577 15.7196C23.3897 16.7436 21.7737 17.2556 19.7097 17.2556C17.6617 17.2556 15.9897 16.7276 14.6937 15.6716C13.4137 14.5996 12.7737 13.1596 12.7737 11.3516V0.719625C12.7737 0.399624 13.6377 0.239624 15.3657 0.239624C17.1097 0.239624 17.9817 0.399624 17.9817 0.719625V11.5436C17.9817 11.8636 18.1497 12.1196 18.4857 12.3116C18.8377 12.5036 19.2057 12.5996 19.5897 12.5996C19.9737 12.5996 20.3177 12.5116 20.6217 12.3356C20.9417 12.1596 21.1017 11.8956 21.1017 11.5436V0.695625ZM41.476 16.4876C41.476 16.8236 40.724 16.9916 39.22 16.9916C37.716 16.9916 36.9 16.8716 36.772 16.6316L32.764 9.14362V16.6076C32.764 16.8956 32.02 17.0396 30.532 17.0396C29.06 17.0396 28.324 16.8956 28.324 16.6076V0.551624C28.324 0.311624 28.956 0.191624 30.22 0.191624C30.716 0.191624 31.292 0.239624 31.948 0.335624C32.62 0.415624 33.028 0.575624 33.172 0.815625L37.012 8.20762V0.671624C37.012 0.367624 37.756 0.215624 39.244 0.215624C40.732 0.215624 41.476 0.367624 41.476 0.671624V16.4876ZM43.8865 15.9116V1.51162C43.8865 1.11162 43.9825 0.799624 44.1745 0.575624C44.3825 0.335624 44.6465 0.215624 44.9665 0.215624H48.9745C51.5185 0.215624 53.4465 0.855624 54.7585 2.13562C56.0865 3.41562 56.7505 5.43162 56.7505 8.18362C56.7505 14.0716 54.2385 17.0156 49.2145 17.0156H45.1105C44.2945 17.0156 43.8865 16.6476 43.8865 15.9116ZM48.4945 4.77562V11.9516C48.4945 12.2876 48.5185 12.5036 48.5665 12.5996C48.6145 12.6796 48.7585 12.7196 48.9985 12.7196C49.8785 12.7196 50.5425 12.3916 50.9905 11.7356C51.4545 11.0796 51.6865 9.99162 51.6865 8.47162C51.6865 6.93562 51.4465 5.93562 50.9665 5.47162C50.5025 5.00762 49.7585 4.77562 48.7345 4.77562H48.4945ZM69.9556 17.0636C68.5636 17.0636 67.8116 16.8396 67.6996 16.3916L66.9076 13.2956H63.0916L62.3956 16.2716C62.2996 16.7676 61.5316 17.0156 60.0916 17.0156C59.3236 17.0156 58.7556 16.9756 58.3876 16.8956C58.0196 16.7996 57.8356 16.7276 57.8356 16.6796L62.0836 0.431624C62.0836 0.303624 63.1796 0.239624 65.3716 0.239624C67.5636 0.239624 68.6596 0.303624 68.6596 0.431624L72.8116 16.7036C72.8116 16.8156 72.4436 16.9036 71.7076 16.9676C70.9716 17.0316 70.3876 17.0636 69.9556 17.0636ZM63.6916 10.2476H66.2116L65.1316 5.27962H64.9876L63.6916 10.2476ZM81.7932 1.00762C82.0012 0.447624 83.0252 0.167624 84.8652 0.167624C85.3292 0.167624 85.8732 0.199625 86.4972 0.263625C87.1372 0.327625 87.4332 0.407625 87.3852 0.503624L82.3932 10.5356V16.3916C82.3932 16.6636 81.9532 16.8556 81.0732 16.9676C80.6252 17.0316 80.1852 17.0636 79.7532 17.0636C79.3212 17.0636 78.8892 17.0396 78.4572 16.9916C77.5772 16.8796 77.1372 16.6796 77.1372 16.3916V10.6796L71.9772 0.551624C71.9132 0.455624 72.2412 0.367624 72.9612 0.287624C73.6812 0.191625 74.2892 0.143625 74.7852 0.143625C76.7532 0.143625 77.8332 0.431624 78.0252 1.00762L79.7772 5.90362L81.7932 1.00762ZM99.9543 16.6316C99.9543 16.9516 99.1623 17.1116 97.5783 17.1116C95.9943 17.1116 95.2023 16.9516 95.2023 16.6316V4.58362H92.3223C92.0503 4.58362 91.8583 4.21562 91.7463 3.47962C91.6983 3.12762 91.6743 2.76762 91.6743 2.39962C91.6743 2.03162 91.6983 1.67162 91.7463 1.31962C91.8583 0.583624 92.0503 0.215624 92.3223 0.215624H102.762C103.034 0.215624 103.226 0.583624 103.338 1.31962C103.386 1.67162 103.41 2.03162 103.41 2.39962C103.41 2.76762 103.386 3.12762 103.338 3.47962C103.226 4.21562 103.034 4.58362 102.762 4.58362H99.9543V16.6316ZM115.448 17.0636C114.056 17.0636 113.304 16.8396 113.192 16.3916L112.4 13.2956H108.584L107.888 16.2716C107.792 16.7676 107.024 17.0156 105.584 17.0156C104.816 17.0156 104.248 16.9756 103.88 16.8956C103.512 16.7996 103.328 16.7276 103.328 16.6796L107.576 0.431624C107.576 0.303624 108.672 0.239624 110.864 0.239624C113.056 0.239624 114.152 0.303624 114.152 0.431624L118.304 16.7036C118.304 16.8156 117.936 16.9036 117.2 16.9676C116.464 17.0316 115.88 17.0636 115.448 17.0636ZM109.184 10.2476H111.704L110.624 5.27962H110.48L109.184 10.2476ZM136.694 17.0396C135.27 17.0396 134.558 16.8796 134.558 16.5596L134.054 6.93562L131.126 16.6796C131.062 16.8716 130.518 16.9676 129.494 16.9676C128.47 16.9676 127.942 16.8796 127.91 16.7036L124.886 6.83962L124.55 16.4156C124.534 16.6556 124.23 16.8236 123.638 16.9196C123.046 16.9996 122.55 17.0396 122.15 17.0396C121.766 17.0396 121.39 17.0156 121.022 16.9676C120.254 16.8556 119.878 16.6556 119.894 16.3676L120.446 0.767624C120.446 0.383624 121.422 0.191624 123.374 0.191624C123.95 0.191624 124.654 0.239624 125.486 0.335624C126.318 0.415624 126.782 0.583624 126.878 0.839624L129.566 8.39962L131.918 0.815625C132.062 0.399624 133.166 0.191624 135.23 0.191624C135.822 0.191624 136.526 0.239624 137.342 0.335624C138.174 0.415624 138.59 0.567624 138.59 0.791624L139.286 16.5356C139.286 16.7116 138.974 16.8396 138.35 16.9196C137.726 16.9996 137.174 17.0396 136.694 17.0396ZM153.452 4.55962C153.452 6.22362 152.732 7.48762 151.292 8.35162C152.076 8.63962 152.732 9.13562 153.26 9.83962C153.788 10.5436 154.052 11.5436 154.052 12.8396C154.052 14.1196 153.572 15.1356 152.612 15.8876C151.668 16.6396 150.308 17.0156 148.532 17.0156H142.868C142.596 17.0156 142.372 16.9276 142.196 16.7516C142.02 16.5596 141.932 16.3116 141.932 16.0076V0.647624C141.932 0.471624 141.956 0.359624 142.004 0.311624C142.068 0.247624 142.188 0.215624 142.364 0.215624H147.836C151.58 0.215624 153.452 1.66362 153.452 4.55962ZM146.54 4.10362V7.24762H146.66C148.196 7.24762 148.964 6.73562 148.964 5.71162C148.964 5.15162 148.812 4.74362 148.508 4.48762C148.22 4.23162 147.732 4.10362 147.044 4.10362H146.54ZM146.54 10.0796V13.1996H146.972C147.66 13.1996 148.164 13.0716 148.484 12.8156C148.804 12.5596 148.964 12.1516 148.964 11.5916C148.964 11.0316 148.812 10.6396 148.508 10.4156C148.22 10.1916 147.732 10.0796 147.044 10.0796H146.54ZM163.046 17.2556C160.806 17.2556 158.974 16.5196 157.55 15.0476C156.142 13.5756 155.438 11.4316 155.438 8.61562C155.438 5.78362 156.15 3.63962 157.574 2.18362C159.014 0.727624 160.862 -0.000376225 163.118 -0.000376225C165.39 -0.000376225 167.222 0.719624 168.614 2.15962C170.006 3.58362 170.702 5.75162 170.702 8.66362C170.702 11.5596 169.99 13.7196 168.566 15.1436C167.142 16.5516 165.302 17.2556 163.046 17.2556ZM163.07 4.60762C162.302 4.60762 161.654 4.95962 161.126 5.66362C160.614 6.36762 160.358 7.35962 160.358 8.63962C160.358 9.90362 160.606 10.8796 161.102 11.5676C161.598 12.2396 162.246 12.5756 163.046 12.5756C163.862 12.5756 164.518 12.2316 165.014 11.5436C165.526 10.8556 165.782 9.87162 165.782 8.59162C165.782 7.31162 165.518 6.32762 164.99 5.63962C164.478 4.95162 163.838 4.60762 163.07 4.60762ZM172.389 15.5996V0.671624C172.389 0.335624 173.197 0.167624 174.813 0.167624C176.445 0.167624 177.261 0.335624 177.261 0.671624V12.4316H180.957C181.245 12.4316 181.445 12.8076 181.557 13.5596C181.605 13.9276 181.629 14.3036 181.629 14.6876C181.629 15.0716 181.605 15.4636 181.557 15.8636C181.429 16.6316 181.221 17.0156 180.933 17.0156H173.541C173.189 17.0156 172.909 16.8716 172.701 16.5836C172.493 16.2956 172.389 15.9676 172.389 15.5996ZM194.338 17.0636C192.946 17.0636 192.194 16.8396 192.082 16.3916L191.29 13.2956H187.474L186.778 16.2716C186.682 16.7676 185.914 17.0156 184.474 17.0156C183.706 17.0156 183.138 16.9756 182.77 16.8956C182.402 16.7996 182.218 16.7276 182.218 16.6796L186.466 0.431624C186.466 0.303624 187.562 0.239624 189.754 0.239624C191.946 0.239624 193.042 0.303624 193.042 0.431624L197.194 16.7036C197.194 16.8156 196.826 16.9036 196.09 16.9676C195.354 17.0316 194.77 17.0636 194.338 17.0636ZM188.074 10.2476H190.594L189.514 5.27962H189.37L188.074 10.2476Z" fill="url(#paint0_linear_24348_10502)"/>
<defs>
<linearGradient id="paint0_linear_24348_10502" x1="-0.696289" y1="8.51562" x2="198.304" y2="8.51562" gradientUnits="userSpaceOnUse">
<stop stop-color="#ECC440"/>
<stop offset="0.32" stop-color="#FFFA8A"/>
<stop offset="0.68" stop-color="#DDAC17"/>
<stop offset="1" stop-color="#FFFF95"/>
</linearGradient>
</defs>
</svg>
