<svg width="1024" height="304" viewBox="0 0 1024 304" fill="none" xmlns="http://www.w3.org/2000/svg">
<g filter="url(#filter0_d_24322_9928)">
<rect x="29.877" y="35.8516" width="304" height="224" rx="15.9342" fill="white" fill-opacity="0.1" shape-rendering="crispEdges"/>
<rect x="54.377" y="60.3516" width="255" height="143" rx="11.5" fill="black" stroke="white"/>
<path d="M120.677 230.852L118.017 221.612H120.579L122.147 228.906L123.799 221.612H125.983L127.677 228.892L129.217 221.612H131.695L129.021 230.852H126.403L125.311 226.372L124.891 224.118H124.863L124.457 226.372L123.379 230.852H120.677ZM133.88 223.04C133.395 223.04 133.04 222.951 132.816 222.774C132.601 222.587 132.494 222.298 132.494 221.906C132.494 221.504 132.601 221.215 132.816 221.038C133.04 220.851 133.395 220.758 133.88 220.758C134.356 220.758 134.706 220.851 134.93 221.038C135.154 221.215 135.266 221.504 135.266 221.906C135.266 222.298 135.154 222.587 134.93 222.774C134.706 222.951 134.356 223.04 133.88 223.04ZM135.07 223.852V230.852H132.69V223.852H135.07ZM136.764 230.852V223.852H138.892L139.018 226.26L138.752 225.994C138.845 225.49 139.009 225.07 139.242 224.734C139.485 224.398 139.783 224.146 140.138 223.978C140.502 223.8 140.908 223.712 141.356 223.712C141.841 223.712 142.261 223.805 142.616 223.992C142.98 224.178 143.265 224.454 143.47 224.818C143.675 225.182 143.778 225.639 143.778 226.19V230.852H141.398V226.82C141.398 226.334 141.305 225.998 141.118 225.812C140.931 225.625 140.693 225.532 140.404 225.532C140.18 225.532 139.97 225.588 139.774 225.7C139.578 225.802 139.424 225.97 139.312 226.204C139.2 226.437 139.144 226.75 139.144 227.142V230.852H136.764ZM145.446 230.852V223.852H147.574L147.7 226.26L147.434 225.994C147.527 225.49 147.69 225.07 147.924 224.734C148.166 224.398 148.465 224.146 148.82 223.978C149.184 223.8 149.59 223.712 150.038 223.712C150.523 223.712 150.943 223.805 151.298 223.992C151.662 224.178 151.946 224.454 152.152 224.818C152.357 225.182 152.46 225.639 152.46 226.19V230.852H150.08V226.82C150.08 226.334 149.986 225.998 149.8 225.812C149.613 225.625 149.375 225.532 149.086 225.532C148.862 225.532 148.652 225.588 148.456 225.7C148.26 225.802 148.106 225.97 147.994 226.204C147.882 226.437 147.826 226.75 147.826 227.142V230.852H145.446ZM157.543 230.992C156.769 230.992 156.097 230.847 155.527 230.558C154.967 230.268 154.533 229.853 154.225 229.312C153.917 228.77 153.763 228.117 153.763 227.352C153.763 226.586 153.917 225.933 154.225 225.392C154.533 224.85 154.963 224.435 155.513 224.146C156.073 223.856 156.713 223.712 157.431 223.712C158.169 223.712 158.794 223.856 159.307 224.146C159.83 224.426 160.227 224.818 160.497 225.322C160.768 225.816 160.903 226.386 160.903 227.03C160.903 227.198 160.899 227.366 160.889 227.534C160.88 227.702 160.866 227.842 160.847 227.954H155.303V226.68H159.797L158.663 227.114C158.663 226.554 158.561 226.124 158.355 225.826C158.159 225.527 157.851 225.378 157.431 225.378C157.133 225.378 156.876 225.448 156.661 225.588C156.456 225.728 156.297 225.947 156.185 226.246C156.083 226.544 156.031 226.927 156.031 227.394C156.031 227.851 156.092 228.224 156.213 228.514C156.335 228.794 156.507 228.999 156.731 229.13C156.955 229.251 157.226 229.312 157.543 229.312C157.898 229.312 158.178 229.242 158.383 229.102C158.598 228.962 158.757 228.766 158.859 228.514L160.763 229.144C160.633 229.545 160.404 229.886 160.077 230.166C159.76 230.436 159.377 230.642 158.929 230.782C158.491 230.922 158.029 230.992 157.543 230.992ZM162.235 230.852V223.852H164.335L164.433 225.364C164.61 224.841 164.872 224.435 165.217 224.146C165.572 223.856 166.02 223.712 166.561 223.712C166.738 223.712 166.888 223.726 167.009 223.754C167.14 223.782 167.242 223.819 167.317 223.866L167.079 225.826C166.986 225.788 166.864 225.76 166.715 225.742C166.575 225.714 166.402 225.7 166.197 225.7C165.917 225.7 165.656 225.76 165.413 225.882C165.17 226.003 164.974 226.185 164.825 226.428C164.685 226.661 164.615 226.96 164.615 227.324V230.852H162.235ZM169.606 221.192C169.951 221.192 170.236 221.271 170.46 221.43C170.684 221.588 170.847 221.798 170.95 222.06C171.062 222.312 171.118 222.596 171.118 222.914C171.118 223.334 171.025 223.74 170.838 224.132C170.661 224.514 170.423 224.855 170.124 225.154C169.835 225.443 169.517 225.662 169.172 225.812L168.206 225.098C168.467 224.995 168.705 224.864 168.92 224.706C169.144 224.547 169.335 224.374 169.494 224.188C169.662 224.001 169.788 223.81 169.872 223.614L169.802 223.572C169.755 223.609 169.695 223.637 169.62 223.656C169.545 223.674 169.447 223.684 169.326 223.684C169.158 223.684 168.985 223.642 168.808 223.558C168.64 223.474 168.495 223.348 168.374 223.18C168.262 223.012 168.206 222.797 168.206 222.536C168.206 222.237 168.271 221.99 168.402 221.794C168.533 221.598 168.705 221.448 168.92 221.346C169.135 221.243 169.363 221.192 169.606 221.192ZM174.841 230.992C174.141 230.992 173.488 230.88 172.881 230.656C172.284 230.422 171.789 230.091 171.397 229.662L172.517 228.346C172.75 228.644 173.058 228.896 173.441 229.102C173.833 229.298 174.267 229.396 174.743 229.396C175.032 229.396 175.27 229.354 175.457 229.27C175.644 229.186 175.737 229.055 175.737 228.878C175.737 228.747 175.69 228.644 175.597 228.57C175.504 228.486 175.317 228.416 175.037 228.36L174.057 228.164C173.18 227.986 172.554 227.725 172.181 227.38C171.817 227.025 171.635 226.563 171.635 225.994C171.635 225.611 171.752 225.247 171.985 224.902C172.218 224.547 172.578 224.262 173.063 224.048C173.548 223.824 174.169 223.712 174.925 223.712C175.634 223.712 176.26 223.814 176.801 224.02C177.342 224.225 177.772 224.524 178.089 224.916L176.955 226.204C176.731 225.924 176.442 225.704 176.087 225.546C175.732 225.387 175.378 225.308 175.023 225.308C174.799 225.308 174.608 225.331 174.449 225.378C174.3 225.415 174.188 225.471 174.113 225.546C174.038 225.62 174.001 225.714 174.001 225.826C174.001 225.947 174.057 226.054 174.169 226.148C174.29 226.232 174.51 226.306 174.827 226.372L176.101 226.624C176.82 226.754 177.338 226.992 177.655 227.338C177.972 227.683 178.131 228.098 178.131 228.584C178.131 229.041 178.01 229.452 177.767 229.816C177.524 230.18 177.16 230.469 176.675 230.684C176.19 230.889 175.578 230.992 174.841 230.992ZM191.87 221.612V230.852H189.196L186.326 225.854L185.626 224.482H185.612L185.668 226.19V230.852H183.54V221.612H186.214L189.084 226.61L189.784 227.982H189.798L189.742 226.274V221.612H191.87ZM197.627 226.414C197.627 226.087 197.534 225.83 197.347 225.644C197.17 225.448 196.927 225.35 196.619 225.35C196.311 225.35 196.045 225.429 195.821 225.588C195.607 225.737 195.457 226.008 195.373 226.4L193.357 225.924C193.488 225.252 193.833 224.715 194.393 224.314C194.953 223.912 195.742 223.712 196.759 223.712C197.441 223.712 198.019 223.814 198.495 224.02C198.981 224.216 199.349 224.514 199.601 224.916C199.863 225.308 199.993 225.793 199.993 226.372V228.934C199.993 229.298 200.157 229.48 200.483 229.48C200.651 229.48 200.787 229.461 200.889 229.424L200.749 230.782C200.469 230.912 200.129 230.978 199.727 230.978C199.363 230.978 199.041 230.922 198.761 230.81C198.481 230.688 198.262 230.511 198.103 230.278C197.945 230.035 197.865 229.732 197.865 229.368V229.284L198.131 229.186C198.131 229.587 198.01 229.923 197.767 230.194C197.534 230.464 197.226 230.665 196.843 230.796C196.47 230.926 196.078 230.992 195.667 230.992C195.191 230.992 194.776 230.917 194.421 230.768C194.067 230.618 193.791 230.404 193.595 230.124C193.409 229.834 193.315 229.48 193.315 229.06C193.315 228.556 193.465 228.14 193.763 227.814C194.071 227.478 194.552 227.244 195.205 227.114L197.851 226.568L197.837 227.828L196.493 228.108C196.213 228.164 196.003 228.248 195.863 228.36C195.733 228.462 195.667 228.621 195.667 228.836C195.667 229.041 195.742 229.195 195.891 229.298C196.041 229.4 196.218 229.452 196.423 229.452C196.582 229.452 196.731 229.428 196.871 229.382C197.021 229.335 197.151 229.265 197.263 229.172C197.375 229.069 197.464 228.943 197.529 228.794C197.595 228.644 197.627 228.467 197.627 228.262V226.414ZM201.829 230.852V223.852H203.957L204.027 225.21C204.251 224.715 204.563 224.342 204.965 224.09C205.375 223.838 205.847 223.712 206.379 223.712C206.901 223.712 207.354 223.828 207.737 224.062C208.119 224.295 208.404 224.64 208.591 225.098C208.74 224.79 208.931 224.533 209.165 224.328C209.407 224.122 209.683 223.968 209.991 223.866C210.299 223.763 210.616 223.712 210.943 223.712C211.409 223.712 211.82 223.805 212.175 223.992C212.529 224.169 212.809 224.444 213.015 224.818C213.229 225.182 213.337 225.639 213.337 226.19V230.852H210.957V226.736C210.957 226.288 210.868 225.975 210.691 225.798C210.523 225.62 210.294 225.532 210.005 225.532C209.771 225.532 209.557 225.592 209.361 225.714C209.174 225.826 209.029 225.998 208.927 226.232C208.824 226.465 208.773 226.759 208.773 227.114V230.852H206.393V226.736C206.393 226.288 206.304 225.975 206.127 225.798C205.949 225.62 205.721 225.532 205.441 225.532C205.226 225.532 205.021 225.588 204.825 225.7C204.638 225.812 204.489 225.989 204.377 226.232C204.265 226.465 204.209 226.773 204.209 227.156V230.852H201.829ZM218.424 230.992C217.65 230.992 216.978 230.847 216.408 230.558C215.848 230.268 215.414 229.853 215.106 229.312C214.798 228.77 214.644 228.117 214.644 227.352C214.644 226.586 214.798 225.933 215.106 225.392C215.414 224.85 215.844 224.435 216.394 224.146C216.954 223.856 217.594 223.712 218.312 223.712C219.05 223.712 219.675 223.856 220.188 224.146C220.711 224.426 221.108 224.818 221.378 225.322C221.649 225.816 221.784 226.386 221.784 227.03C221.784 227.198 221.78 227.366 221.77 227.534C221.761 227.702 221.747 227.842 221.728 227.954H216.184V226.68H220.678L219.544 227.114C219.544 226.554 219.442 226.124 219.236 225.826C219.04 225.527 218.732 225.378 218.312 225.378C218.014 225.378 217.757 225.448 217.542 225.588C217.337 225.728 217.178 225.947 217.066 226.246C216.964 226.544 216.912 226.927 216.912 227.394C216.912 227.851 216.973 228.224 217.094 228.514C217.216 228.794 217.388 228.999 217.612 229.13C217.836 229.251 218.107 229.312 218.424 229.312C218.779 229.312 219.059 229.242 219.264 229.102C219.479 228.962 219.638 228.766 219.74 228.514L221.644 229.144C221.514 229.545 221.285 229.886 220.958 230.166C220.641 230.436 220.258 230.642 219.81 230.782C219.372 230.922 218.91 230.992 218.424 230.992Z" fill="white"/>
</g>
<g filter="url(#filter1_d_24322_9928)">
<rect x="349.877" y="35.8516" width="304" height="224" rx="15.9342" fill="white" fill-opacity="0.1" shape-rendering="crispEdges"/>
<rect x="374.377" y="60.3516" width="255" height="143" rx="11.5" fill="black" stroke="#313131"/>
<path d="M452.985 230.852L450.325 221.612H452.887L454.455 228.906L456.107 221.612H458.291L459.985 228.892L461.525 221.612H464.003L461.329 230.852H458.711L457.619 226.372L457.199 224.118H457.171L456.765 226.372L455.687 230.852H452.985ZM466.188 223.04C465.702 223.04 465.348 222.951 465.124 222.774C464.909 222.587 464.802 222.298 464.802 221.906C464.802 221.504 464.909 221.215 465.124 221.038C465.348 220.851 465.702 220.758 466.188 220.758C466.664 220.758 467.014 220.851 467.238 221.038C467.462 221.215 467.574 221.504 467.574 221.906C467.574 222.298 467.462 222.587 467.238 222.774C467.014 222.951 466.664 223.04 466.188 223.04ZM467.378 223.852V230.852H464.998V223.852H467.378ZM469.072 230.852V223.852H471.2L471.326 226.26L471.06 225.994C471.153 225.49 471.316 225.07 471.55 224.734C471.792 224.398 472.091 224.146 472.446 223.978C472.81 223.8 473.216 223.712 473.664 223.712C474.149 223.712 474.569 223.805 474.924 223.992C475.288 224.178 475.572 224.454 475.778 224.818C475.983 225.182 476.086 225.639 476.086 226.19V230.852H473.706V226.82C473.706 226.334 473.612 225.998 473.426 225.812C473.239 225.625 473.001 225.532 472.712 225.532C472.488 225.532 472.278 225.588 472.082 225.7C471.886 225.802 471.732 225.97 471.62 226.204C471.508 226.437 471.452 226.75 471.452 227.142V230.852H469.072ZM477.753 230.852V223.852H479.881L480.007 226.26L479.741 225.994C479.835 225.49 479.998 225.07 480.231 224.734C480.474 224.398 480.773 224.146 481.127 223.978C481.491 223.8 481.897 223.712 482.345 223.712C482.831 223.712 483.251 223.805 483.605 223.992C483.969 224.178 484.254 224.454 484.459 224.818C484.665 225.182 484.767 225.639 484.767 226.19V230.852H482.387V226.82C482.387 226.334 482.294 225.998 482.107 225.812C481.921 225.625 481.683 225.532 481.393 225.532C481.169 225.532 480.959 225.588 480.763 225.7C480.567 225.802 480.413 225.97 480.301 226.204C480.189 226.437 480.133 226.75 480.133 227.142V230.852H477.753ZM489.851 230.992C489.076 230.992 488.404 230.847 487.835 230.558C487.275 230.268 486.841 229.853 486.533 229.312C486.225 228.77 486.071 228.117 486.071 227.352C486.071 226.586 486.225 225.933 486.533 225.392C486.841 224.85 487.27 224.435 487.821 224.146C488.381 223.856 489.02 223.712 489.739 223.712C490.476 223.712 491.102 223.856 491.615 224.146C492.138 224.426 492.534 224.818 492.805 225.322C493.076 225.816 493.211 226.386 493.211 227.03C493.211 227.198 493.206 227.366 493.197 227.534C493.188 227.702 493.174 227.842 493.155 227.954H487.611V226.68H492.105L490.971 227.114C490.971 226.554 490.868 226.124 490.663 225.826C490.467 225.527 490.159 225.378 489.739 225.378C489.44 225.378 489.184 225.448 488.969 225.588C488.764 225.728 488.605 225.947 488.493 226.246C488.39 226.544 488.339 226.927 488.339 227.394C488.339 227.851 488.4 228.224 488.521 228.514C488.642 228.794 488.815 228.999 489.039 229.13C489.263 229.251 489.534 229.312 489.851 229.312C490.206 229.312 490.486 229.242 490.691 229.102C490.906 228.962 491.064 228.766 491.167 228.514L493.071 229.144C492.94 229.545 492.712 229.886 492.385 230.166C492.068 230.436 491.685 230.642 491.237 230.782C490.798 230.922 490.336 230.992 489.851 230.992ZM494.542 230.852V223.852H496.642L496.74 225.364C496.918 224.841 497.179 224.435 497.524 224.146C497.879 223.856 498.327 223.712 498.868 223.712C499.046 223.712 499.195 223.726 499.316 223.754C499.447 223.782 499.55 223.819 499.624 223.866L499.386 225.826C499.293 225.788 499.172 225.76 499.022 225.742C498.882 225.714 498.71 225.7 498.504 225.7C498.224 225.7 497.963 225.76 497.72 225.882C497.478 226.003 497.282 226.185 497.132 226.428C496.992 226.661 496.922 226.96 496.922 227.324V230.852H494.542ZM501.913 221.192C502.259 221.192 502.543 221.271 502.767 221.43C502.991 221.588 503.155 221.798 503.257 222.06C503.369 222.312 503.425 222.596 503.425 222.914C503.425 223.334 503.332 223.74 503.145 224.132C502.968 224.514 502.73 224.855 502.431 225.154C502.142 225.443 501.825 225.662 501.479 225.812L500.513 225.098C500.775 224.995 501.013 224.864 501.227 224.706C501.451 224.547 501.643 224.374 501.801 224.188C501.969 224.001 502.095 223.81 502.179 223.614L502.109 223.572C502.063 223.609 502.002 223.637 501.927 223.656C501.853 223.674 501.755 223.684 501.633 223.684C501.465 223.684 501.293 223.642 501.115 223.558C500.947 223.474 500.803 223.348 500.681 223.18C500.569 223.012 500.513 222.797 500.513 222.536C500.513 222.237 500.579 221.99 500.709 221.794C500.84 221.598 501.013 221.448 501.227 221.346C501.442 221.243 501.671 221.192 501.913 221.192ZM507.148 230.992C506.448 230.992 505.795 230.88 505.188 230.656C504.591 230.422 504.096 230.091 503.704 229.662L504.824 228.346C505.058 228.644 505.366 228.896 505.748 229.102C506.14 229.298 506.574 229.396 507.05 229.396C507.34 229.396 507.578 229.354 507.764 229.27C507.951 229.186 508.044 229.055 508.044 228.878C508.044 228.747 507.998 228.644 507.904 228.57C507.811 228.486 507.624 228.416 507.344 228.36L506.364 228.164C505.487 227.986 504.862 227.725 504.488 227.38C504.124 227.025 503.942 226.563 503.942 225.994C503.942 225.611 504.059 225.247 504.292 224.902C504.526 224.547 504.885 224.262 505.37 224.048C505.856 223.824 506.476 223.712 507.232 223.712C507.942 223.712 508.567 223.814 509.108 224.02C509.65 224.225 510.079 224.524 510.396 224.916L509.262 226.204C509.038 225.924 508.749 225.704 508.394 225.546C508.04 225.387 507.685 225.308 507.33 225.308C507.106 225.308 506.915 225.331 506.756 225.378C506.607 225.415 506.495 225.471 506.42 225.546C506.346 225.62 506.308 225.714 506.308 225.826C506.308 225.947 506.364 226.054 506.476 226.148C506.598 226.232 506.817 226.306 507.134 226.372L508.408 226.624C509.127 226.754 509.645 226.992 509.962 227.338C510.28 227.683 510.438 228.098 510.438 228.584C510.438 229.041 510.317 229.452 510.074 229.816C509.832 230.18 509.468 230.469 508.982 230.684C508.497 230.889 507.886 230.992 507.148 230.992ZM524.177 221.612V230.852H521.503L518.633 225.854L517.933 224.482H517.919L517.975 226.19V230.852H515.847V221.612H518.521L521.391 226.61L522.091 227.982H522.105L522.049 226.274V221.612H524.177ZM529.935 226.414C529.935 226.087 529.841 225.83 529.655 225.644C529.477 225.448 529.235 225.35 528.927 225.35C528.619 225.35 528.353 225.429 528.129 225.588C527.914 225.737 527.765 226.008 527.681 226.4L525.665 225.924C525.795 225.252 526.141 224.715 526.701 224.314C527.261 223.912 528.049 223.712 529.067 223.712C529.748 223.712 530.327 223.814 530.803 224.02C531.288 224.216 531.657 224.514 531.909 224.916C532.17 225.308 532.301 225.793 532.301 226.372V228.934C532.301 229.298 532.464 229.48 532.791 229.48C532.959 229.48 533.094 229.461 533.197 229.424L533.057 230.782C532.777 230.912 532.436 230.978 532.035 230.978C531.671 230.978 531.349 230.922 531.069 230.81C530.789 230.688 530.569 230.511 530.411 230.278C530.252 230.035 530.173 229.732 530.173 229.368V229.284L530.439 229.186C530.439 229.587 530.317 229.923 530.075 230.194C529.841 230.464 529.533 230.665 529.151 230.796C528.777 230.926 528.385 230.992 527.975 230.992C527.499 230.992 527.083 230.917 526.729 230.768C526.374 230.618 526.099 230.404 525.903 230.124C525.716 229.834 525.623 229.48 525.623 229.06C525.623 228.556 525.772 228.14 526.071 227.814C526.379 227.478 526.859 227.244 527.513 227.114L530.159 226.568L530.145 227.828L528.801 228.108C528.521 228.164 528.311 228.248 528.171 228.36C528.04 228.462 527.975 228.621 527.975 228.836C527.975 229.041 528.049 229.195 528.199 229.298C528.348 229.4 528.525 229.452 528.731 229.452C528.889 229.452 529.039 229.428 529.179 229.382C529.328 229.335 529.459 229.265 529.571 229.172C529.683 229.069 529.771 228.943 529.837 228.794C529.902 228.644 529.935 228.467 529.935 228.262V226.414ZM534.136 230.852V223.852H536.264L536.334 225.21C536.558 224.715 536.871 224.342 537.272 224.09C537.683 223.838 538.154 223.712 538.686 223.712C539.209 223.712 539.662 223.828 540.044 224.062C540.427 224.295 540.712 224.64 540.898 225.098C541.048 224.79 541.239 224.533 541.472 224.328C541.715 224.122 541.99 223.968 542.298 223.866C542.606 223.763 542.924 223.712 543.25 223.712C543.717 223.712 544.128 223.805 544.482 223.992C544.837 224.169 545.117 224.444 545.322 224.818C545.537 225.182 545.644 225.639 545.644 226.19V230.852H543.264V226.736C543.264 226.288 543.176 225.975 542.998 225.798C542.83 225.62 542.602 225.532 542.312 225.532C542.079 225.532 541.864 225.592 541.668 225.714C541.482 225.826 541.337 225.998 541.234 226.232C541.132 226.465 541.08 226.759 541.08 227.114V230.852H538.7V226.736C538.7 226.288 538.612 225.975 538.434 225.798C538.257 225.62 538.028 225.532 537.748 225.532C537.534 225.532 537.328 225.588 537.132 225.7C536.946 225.812 536.796 225.989 536.684 226.232C536.572 226.465 536.516 226.773 536.516 227.156V230.852H534.136ZM550.732 230.992C549.957 230.992 549.285 230.847 548.716 230.558C548.156 230.268 547.722 229.853 547.414 229.312C547.106 228.77 546.952 228.117 546.952 227.352C546.952 226.586 547.106 225.933 547.414 225.392C547.722 224.85 548.151 224.435 548.702 224.146C549.262 223.856 549.901 223.712 550.62 223.712C551.357 223.712 551.983 223.856 552.496 224.146C553.019 224.426 553.415 224.818 553.686 225.322C553.957 225.816 554.092 226.386 554.092 227.03C554.092 227.198 554.087 227.366 554.078 227.534C554.069 227.702 554.055 227.842 554.036 227.954H548.492V226.68H552.986L551.852 227.114C551.852 226.554 551.749 226.124 551.544 225.826C551.348 225.527 551.04 225.378 550.62 225.378C550.321 225.378 550.065 225.448 549.85 225.588C549.645 225.728 549.486 225.947 549.374 226.246C549.271 226.544 549.22 226.927 549.22 227.394C549.22 227.851 549.281 228.224 549.402 228.514C549.523 228.794 549.696 228.999 549.92 229.13C550.144 229.251 550.415 229.312 550.732 229.312C551.087 229.312 551.367 229.242 551.572 229.102C551.787 228.962 551.945 228.766 552.048 228.514L553.952 229.144C553.821 229.545 553.593 229.886 553.266 230.166C552.949 230.436 552.566 230.642 552.118 230.782C551.679 230.922 551.217 230.992 550.732 230.992Z" fill="white"/>
<rect x="477.877" y="106.852" width="48" height="48" rx="24" fill="white" fill-opacity="0.1"/>
<path fill-rule="evenodd" clip-rule="evenodd" d="M495.546 123.613C495.573 123.386 495.653 123.168 495.779 122.977C495.905 122.786 496.073 122.627 496.271 122.513C496.47 122.399 496.692 122.332 496.92 122.319C497.148 122.306 497.376 122.346 497.586 122.436C498.648 122.89 501.028 123.969 504.048 125.712C507.069 127.456 509.194 128.979 510.117 129.67C510.905 130.261 510.907 131.433 510.118 132.026C509.204 132.713 507.105 134.216 504.048 135.982C500.988 137.748 498.636 138.814 497.584 139.262C496.678 139.649 495.664 139.062 495.546 138.085C495.408 136.943 495.15 134.35 495.15 130.848C495.15 127.348 495.407 124.756 495.546 123.613Z" fill="white"/>
</g>
<g filter="url(#filter3_d_24322_9928)">
<rect x="669.877" y="35.8516" width="304" height="224" rx="15.9342" fill="white" fill-opacity="0.1" shape-rendering="crispEdges"/>
<rect x="694.377" y="60.3516" width="255" height="143" rx="11.5" fill="black" stroke="white"/>
<path d="M760.677 230.852L758.017 221.612H760.579L762.147 228.906L763.799 221.612H765.983L767.677 228.892L769.217 221.612H771.695L769.021 230.852H766.403L765.311 226.372L764.891 224.118H764.863L764.457 226.372L763.379 230.852H760.677ZM773.88 223.04C773.395 223.04 773.04 222.951 772.816 222.774C772.601 222.587 772.494 222.298 772.494 221.906C772.494 221.504 772.601 221.215 772.816 221.038C773.04 220.851 773.395 220.758 773.88 220.758C774.356 220.758 774.706 220.851 774.93 221.038C775.154 221.215 775.266 221.504 775.266 221.906C775.266 222.298 775.154 222.587 774.93 222.774C774.706 222.951 774.356 223.04 773.88 223.04ZM775.07 223.852V230.852H772.69V223.852H775.07ZM776.764 230.852V223.852H778.892L779.018 226.26L778.752 225.994C778.845 225.49 779.009 225.07 779.242 224.734C779.485 224.398 779.783 224.146 780.138 223.978C780.502 223.8 780.908 223.712 781.356 223.712C781.841 223.712 782.261 223.805 782.616 223.992C782.98 224.178 783.265 224.454 783.47 224.818C783.675 225.182 783.778 225.639 783.778 226.19V230.852H781.398V226.82C781.398 226.334 781.305 225.998 781.118 225.812C780.931 225.625 780.693 225.532 780.404 225.532C780.18 225.532 779.97 225.588 779.774 225.7C779.578 225.802 779.424 225.97 779.312 226.204C779.2 226.437 779.144 226.75 779.144 227.142V230.852H776.764ZM785.446 230.852V223.852H787.574L787.7 226.26L787.434 225.994C787.527 225.49 787.69 225.07 787.924 224.734C788.166 224.398 788.465 224.146 788.82 223.978C789.184 223.8 789.59 223.712 790.038 223.712C790.523 223.712 790.943 223.805 791.298 223.992C791.662 224.178 791.946 224.454 792.152 224.818C792.357 225.182 792.46 225.639 792.46 226.19V230.852H790.08V226.82C790.08 226.334 789.986 225.998 789.8 225.812C789.613 225.625 789.375 225.532 789.086 225.532C788.862 225.532 788.652 225.588 788.456 225.7C788.26 225.802 788.106 225.97 787.994 226.204C787.882 226.437 787.826 226.75 787.826 227.142V230.852H785.446ZM797.543 230.992C796.769 230.992 796.097 230.847 795.527 230.558C794.967 230.268 794.533 229.853 794.225 229.312C793.917 228.77 793.763 228.117 793.763 227.352C793.763 226.586 793.917 225.933 794.225 225.392C794.533 224.85 794.963 224.435 795.513 224.146C796.073 223.856 796.713 223.712 797.431 223.712C798.169 223.712 798.794 223.856 799.307 224.146C799.83 224.426 800.227 224.818 800.497 225.322C800.768 225.816 800.903 226.386 800.903 227.03C800.903 227.198 800.899 227.366 800.889 227.534C800.88 227.702 800.866 227.842 800.847 227.954H795.303V226.68H799.797L798.663 227.114C798.663 226.554 798.561 226.124 798.355 225.826C798.159 225.527 797.851 225.378 797.431 225.378C797.133 225.378 796.876 225.448 796.661 225.588C796.456 225.728 796.297 225.947 796.185 226.246C796.083 226.544 796.031 226.927 796.031 227.394C796.031 227.851 796.092 228.224 796.213 228.514C796.335 228.794 796.507 228.999 796.731 229.13C796.955 229.251 797.226 229.312 797.543 229.312C797.898 229.312 798.178 229.242 798.383 229.102C798.598 228.962 798.757 228.766 798.859 228.514L800.763 229.144C800.633 229.545 800.404 229.886 800.077 230.166C799.76 230.436 799.377 230.642 798.929 230.782C798.491 230.922 798.029 230.992 797.543 230.992ZM802.235 230.852V223.852H804.335L804.433 225.364C804.61 224.841 804.872 224.435 805.217 224.146C805.572 223.856 806.02 223.712 806.561 223.712C806.738 223.712 806.888 223.726 807.009 223.754C807.14 223.782 807.242 223.819 807.317 223.866L807.079 225.826C806.986 225.788 806.864 225.76 806.715 225.742C806.575 225.714 806.402 225.7 806.197 225.7C805.917 225.7 805.656 225.76 805.413 225.882C805.17 226.003 804.974 226.185 804.825 226.428C804.685 226.661 804.615 226.96 804.615 227.324V230.852H802.235ZM809.606 221.192C809.951 221.192 810.236 221.271 810.46 221.43C810.684 221.588 810.847 221.798 810.95 222.06C811.062 222.312 811.118 222.596 811.118 222.914C811.118 223.334 811.025 223.74 810.838 224.132C810.661 224.514 810.423 224.855 810.124 225.154C809.835 225.443 809.517 225.662 809.172 225.812L808.206 225.098C808.467 224.995 808.705 224.864 808.92 224.706C809.144 224.547 809.335 224.374 809.494 224.188C809.662 224.001 809.788 223.81 809.872 223.614L809.802 223.572C809.755 223.609 809.695 223.637 809.62 223.656C809.545 223.674 809.447 223.684 809.326 223.684C809.158 223.684 808.985 223.642 808.808 223.558C808.64 223.474 808.495 223.348 808.374 223.18C808.262 223.012 808.206 222.797 808.206 222.536C808.206 222.237 808.271 221.99 808.402 221.794C808.533 221.598 808.705 221.448 808.92 221.346C809.135 221.243 809.363 221.192 809.606 221.192ZM814.841 230.992C814.141 230.992 813.488 230.88 812.881 230.656C812.284 230.422 811.789 230.091 811.397 229.662L812.517 228.346C812.75 228.644 813.058 228.896 813.441 229.102C813.833 229.298 814.267 229.396 814.743 229.396C815.032 229.396 815.27 229.354 815.457 229.27C815.644 229.186 815.737 229.055 815.737 228.878C815.737 228.747 815.69 228.644 815.597 228.57C815.504 228.486 815.317 228.416 815.037 228.36L814.057 228.164C813.18 227.986 812.554 227.725 812.181 227.38C811.817 227.025 811.635 226.563 811.635 225.994C811.635 225.611 811.752 225.247 811.985 224.902C812.218 224.547 812.578 224.262 813.063 224.048C813.548 223.824 814.169 223.712 814.925 223.712C815.634 223.712 816.26 223.814 816.801 224.02C817.342 224.225 817.772 224.524 818.089 224.916L816.955 226.204C816.731 225.924 816.442 225.704 816.087 225.546C815.732 225.387 815.378 225.308 815.023 225.308C814.799 225.308 814.608 225.331 814.449 225.378C814.3 225.415 814.188 225.471 814.113 225.546C814.038 225.62 814.001 225.714 814.001 225.826C814.001 225.947 814.057 226.054 814.169 226.148C814.29 226.232 814.51 226.306 814.827 226.372L816.101 226.624C816.82 226.754 817.338 226.992 817.655 227.338C817.972 227.683 818.131 228.098 818.131 228.584C818.131 229.041 818.01 229.452 817.767 229.816C817.524 230.18 817.16 230.469 816.675 230.684C816.19 230.889 815.578 230.992 814.841 230.992ZM831.87 221.612V230.852H829.196L826.326 225.854L825.626 224.482H825.612L825.668 226.19V230.852H823.54V221.612H826.214L829.084 226.61L829.784 227.982H829.798L829.742 226.274V221.612H831.87ZM837.627 226.414C837.627 226.087 837.534 225.83 837.347 225.644C837.17 225.448 836.927 225.35 836.619 225.35C836.311 225.35 836.045 225.429 835.821 225.588C835.607 225.737 835.457 226.008 835.373 226.4L833.357 225.924C833.488 225.252 833.833 224.715 834.393 224.314C834.953 223.912 835.742 223.712 836.759 223.712C837.441 223.712 838.019 223.814 838.495 224.02C838.981 224.216 839.349 224.514 839.601 224.916C839.863 225.308 839.993 225.793 839.993 226.372V228.934C839.993 229.298 840.157 229.48 840.483 229.48C840.651 229.48 840.787 229.461 840.889 229.424L840.749 230.782C840.469 230.912 840.129 230.978 839.727 230.978C839.363 230.978 839.041 230.922 838.761 230.81C838.481 230.688 838.262 230.511 838.103 230.278C837.945 230.035 837.865 229.732 837.865 229.368V229.284L838.131 229.186C838.131 229.587 838.01 229.923 837.767 230.194C837.534 230.464 837.226 230.665 836.843 230.796C836.47 230.926 836.078 230.992 835.667 230.992C835.191 230.992 834.776 230.917 834.421 230.768C834.067 230.618 833.791 230.404 833.595 230.124C833.409 229.834 833.315 229.48 833.315 229.06C833.315 228.556 833.465 228.14 833.763 227.814C834.071 227.478 834.552 227.244 835.205 227.114L837.851 226.568L837.837 227.828L836.493 228.108C836.213 228.164 836.003 228.248 835.863 228.36C835.733 228.462 835.667 228.621 835.667 228.836C835.667 229.041 835.742 229.195 835.891 229.298C836.041 229.4 836.218 229.452 836.423 229.452C836.582 229.452 836.731 229.428 836.871 229.382C837.021 229.335 837.151 229.265 837.263 229.172C837.375 229.069 837.464 228.943 837.529 228.794C837.595 228.644 837.627 228.467 837.627 228.262V226.414ZM841.829 230.852V223.852H843.957L844.027 225.21C844.251 224.715 844.563 224.342 844.965 224.09C845.375 223.838 845.847 223.712 846.379 223.712C846.901 223.712 847.354 223.828 847.737 224.062C848.119 224.295 848.404 224.64 848.591 225.098C848.74 224.79 848.931 224.533 849.165 224.328C849.407 224.122 849.683 223.968 849.991 223.866C850.299 223.763 850.616 223.712 850.943 223.712C851.409 223.712 851.82 223.805 852.175 223.992C852.529 224.169 852.809 224.444 853.015 224.818C853.229 225.182 853.337 225.639 853.337 226.19V230.852H850.957V226.736C850.957 226.288 850.868 225.975 850.691 225.798C850.523 225.62 850.294 225.532 850.005 225.532C849.771 225.532 849.557 225.592 849.361 225.714C849.174 225.826 849.029 225.998 848.927 226.232C848.824 226.465 848.773 226.759 848.773 227.114V230.852H846.393V226.736C846.393 226.288 846.304 225.975 846.127 225.798C845.949 225.62 845.721 225.532 845.441 225.532C845.226 225.532 845.021 225.588 844.825 225.7C844.638 225.812 844.489 225.989 844.377 226.232C844.265 226.465 844.209 226.773 844.209 227.156V230.852H841.829ZM858.424 230.992C857.65 230.992 856.978 230.847 856.408 230.558C855.848 230.268 855.414 229.853 855.106 229.312C854.798 228.77 854.644 228.117 854.644 227.352C854.644 226.586 854.798 225.933 855.106 225.392C855.414 224.85 855.844 224.435 856.394 224.146C856.954 223.856 857.594 223.712 858.312 223.712C859.05 223.712 859.675 223.856 860.188 224.146C860.711 224.426 861.108 224.818 861.378 225.322C861.649 225.816 861.784 226.386 861.784 227.03C861.784 227.198 861.78 227.366 861.77 227.534C861.761 227.702 861.747 227.842 861.728 227.954H856.184V226.68H860.678L859.544 227.114C859.544 226.554 859.442 226.124 859.236 225.826C859.04 225.527 858.732 225.378 858.312 225.378C858.014 225.378 857.757 225.448 857.542 225.588C857.337 225.728 857.178 225.947 857.066 226.246C856.964 226.544 856.912 226.927 856.912 227.394C856.912 227.851 856.973 228.224 857.094 228.514C857.216 228.794 857.388 228.999 857.612 229.13C857.836 229.251 858.107 229.312 858.424 229.312C858.779 229.312 859.059 229.242 859.264 229.102C859.479 228.962 859.638 228.766 859.74 228.514L861.644 229.144C861.514 229.545 861.285 229.886 860.958 230.166C860.641 230.436 860.258 230.642 859.81 230.782C859.372 230.922 858.91 230.992 858.424 230.992Z" fill="white"/>
</g>
<defs>
<filter id="filter0_d_24322_9928" x="0.000291824" y="-0.000430346" width="383.671" height="303.671" filterUnits="userSpaceOnUse" color-interpolation-filters="sRGB">
<feFlood flood-opacity="0" result="BackgroundImageFix"/>
<feColorMatrix in="SourceAlpha" type="matrix" values="0 0 0 0 0 0 0 0 0 0 0 0 0 0 0 0 0 0 127 0" result="hardAlpha"/>
<feOffset dx="9.95889" dy="3.98356"/>
<feGaussianBlur stdDeviation="19.9178"/>
<feComposite in2="hardAlpha" operator="out"/>
<feColorMatrix type="matrix" values="0 0 0 0 0 0 0 0 0 0 0 0 0 0 0 0 0 0 0.16 0"/>
<feBlend mode="normal" in2="BackgroundImageFix" result="effect1_dropShadow_24322_9928"/>
<feBlend mode="normal" in="BackgroundImageFix" in2="effect1_dropShadow_24322_9928" result="BackgroundImageFix"/>
<feBlend mode="normal" in="SourceGraphic" in2="BackgroundImageFix" result="shape"/>
</filter>
<filter id="filter1_d_24322_9928" x="320" y="-0.000430346" width="383.671" height="303.671" filterUnits="userSpaceOnUse" color-interpolation-filters="sRGB">
<feFlood flood-opacity="0" result="BackgroundImageFix"/>
<feColorMatrix in="SourceAlpha" type="matrix" values="0 0 0 0 0 0 0 0 0 0 0 0 0 0 0 0 0 0 127 0" result="hardAlpha"/>
<feOffset dx="9.95889" dy="3.98356"/>
<feGaussianBlur stdDeviation="19.9178"/>
<feComposite in2="hardAlpha" operator="out"/>
<feColorMatrix type="matrix" values="0 0 0 0 0 0 0 0 0 0 0 0 0 0 0 0 0 0 0.16 0"/>
<feBlend mode="normal" in2="BackgroundImageFix" result="effect1_dropShadow_24322_9928"/>
<feBlend mode="normal" in="BackgroundImageFix" in2="effect1_dropShadow_24322_9928" result="BackgroundImageFix"/>
<feBlend mode="normal" in="SourceGraphic" in2="BackgroundImageFix" result="shape"/>
</filter>
<filter id="filter3_d_24322_9928" x="640" y="-0.000430346" width="383.671" height="303.671" filterUnits="userSpaceOnUse" color-interpolation-filters="sRGB">
<feFlood flood-opacity="0" result="BackgroundImageFix"/>
<feColorMatrix in="SourceAlpha" type="matrix" values="0 0 0 0 0 0 0 0 0 0 0 0 0 0 0 0 0 0 127 0" result="hardAlpha"/>
<feOffset dx="9.95889" dy="3.98356"/>
<feGaussianBlur stdDeviation="19.9178"/>
<feComposite in2="hardAlpha" operator="out"/>
<feColorMatrix type="matrix" values="0 0 0 0 0 0 0 0 0 0 0 0 0 0 0 0 0 0 0.16 0"/>
<feBlend mode="normal" in2="BackgroundImageFix" result="effect1_dropShadow_24322_9928"/>
<feBlend mode="normal" in="BackgroundImageFix" in2="effect1_dropShadow_24322_9928" result="BackgroundImageFix"/>
<feBlend mode="normal" in="SourceGraphic" in2="BackgroundImageFix" result="shape"/>
</filter>
</defs>
</svg>
