<svg width="269" height="101" viewBox="0 0 269 101" fill="none" xmlns="http://www.w3.org/2000/svg">
<rect x="269" y="11" width="90" height="269" rx="20" transform="rotate(90 269 11)" fill="black" fill-opacity="0.1"/>
<path d="M37.016 58.28C34.496 58.28 32.5827 57.4773 31.276 55.872C29.988 54.2667 29.344 51.896 29.344 48.76C29.344 45.624 29.988 43.2533 31.276 41.648C32.5827 40.0427 34.496 39.24 37.016 39.24C39.536 39.24 41.44 40.0427 42.728 41.648C44.0347 43.2533 44.688 45.624 44.688 48.76C44.688 51.896 44.0347 54.2667 42.728 55.872C41.44 57.4773 39.536 58.28 37.016 58.28ZM37.016 54.528C37.7067 54.528 38.2667 54.3413 38.696 53.968C39.1253 53.576 39.4333 52.96 39.62 52.12C39.8253 51.2613 39.928 50.1413 39.928 48.76C39.928 47.3787 39.8253 46.268 39.62 45.428C39.4333 44.5693 39.1253 43.9533 38.696 43.58C38.2667 43.188 37.7067 42.992 37.016 42.992C36.344 42.992 35.784 43.188 35.336 43.58C34.9067 43.9533 34.5893 44.5693 34.384 45.428C34.1973 46.268 34.104 47.3787 34.104 48.76C34.104 50.1413 34.1973 51.2613 34.384 52.12C34.5893 52.96 34.9067 53.576 35.336 53.968C35.784 54.3413 36.344 54.528 37.016 54.528ZM55.5955 39.24C56.5849 39.24 57.4995 39.3707 58.3395 39.632C59.1982 39.8933 59.9449 40.3227 60.5795 40.92C61.2142 41.5173 61.6902 42.32 62.0075 43.328L58.0875 45.176C57.9009 44.5227 57.5742 44.0093 57.1075 43.636C56.6595 43.244 56.0529 43.048 55.2875 43.048C54.7649 43.048 54.2795 43.1787 53.8315 43.44C53.4022 43.6827 53.0289 44.0373 52.7115 44.504C52.3942 44.9707 52.1515 45.54 51.9835 46.212C51.8342 46.884 51.7595 47.64 51.7595 48.48C51.7595 48.536 51.7595 48.6013 51.7595 48.676C51.7595 48.732 51.7595 48.816 51.7595 48.928L51.8155 49.096C52.0395 48.536 52.3849 48.0693 52.8515 47.696C53.3369 47.304 53.8875 47.0053 54.5035 46.8C55.1195 46.5947 55.7355 46.492 56.3515 46.492C57.4902 46.492 58.5075 46.716 59.4035 47.164C60.2995 47.612 60.9995 48.256 61.5035 49.096C62.0262 49.9173 62.2875 50.916 62.2875 52.092C62.2875 53.3613 61.9982 54.4627 61.4195 55.396C60.8409 56.3107 60.0382 57.02 59.0115 57.524C57.9849 58.028 56.7622 58.28 55.3435 58.28C53.7569 58.28 52.3569 57.9347 51.1435 57.244C49.9489 56.5347 49.0155 55.4893 48.3435 54.108C47.6902 52.708 47.3635 50.9813 47.3635 48.928C47.3635 46.7253 47.7275 44.9147 48.4555 43.496C49.1835 42.0773 50.1635 41.0133 51.3955 40.304C52.6462 39.5947 54.0462 39.24 55.5955 39.24ZM55.2595 49.74C54.7742 49.74 54.3262 49.8427 53.9155 50.048C53.5235 50.2347 53.2062 50.5147 52.9635 50.888C52.7395 51.2613 52.6275 51.7 52.6275 52.204C52.6275 52.6893 52.7489 53.1187 52.9915 53.492C53.2342 53.8653 53.5515 54.1547 53.9435 54.36C54.3355 54.5653 54.7742 54.668 55.2595 54.668C56.0995 54.668 56.7435 54.4533 57.1915 54.024C57.6582 53.5947 57.8915 52.988 57.8915 52.204C57.8915 51.6813 57.7889 51.2427 57.5835 50.888C57.3782 50.5147 57.0795 50.2347 56.6875 50.048C56.3142 49.8427 55.8382 49.74 55.2595 49.74Z" fill="white"/>
<path d="M39.4265 74.85C39.3332 74.6967 39.2565 74.53 39.1965 74.35C39.1365 74.17 39.1065 73.9733 39.1065 73.76C39.1065 73.22 39.3132 72.8 39.7265 72.5C40.1398 72.1933 40.7065 72.04 41.4265 72.04C42.1665 72.04 42.8465 72.1633 43.4665 72.41C44.0932 72.6567 44.6498 72.99 45.1365 73.41C45.6232 73.83 46.0332 74.31 46.3665 74.85H44.9965C44.7498 74.53 44.4598 74.2433 44.1265 73.99C43.7932 73.73 43.4232 73.5267 43.0165 73.38C42.6165 73.2333 42.1965 73.16 41.7565 73.16C41.3432 73.16 41.0298 73.2433 40.8165 73.41C40.6098 73.57 40.5065 73.7933 40.5065 74.08C40.5065 74.2267 40.5298 74.3633 40.5765 74.49C40.6298 74.61 40.6932 74.73 40.7665 74.85H39.4265ZM40.8165 75.9V81H39.4165V75.9H38.6465V74.78H41.7365V75.9H40.8165ZM45.6859 81.7C45.5459 81.4133 45.4226 81.1233 45.3159 80.83C45.2159 80.53 45.1326 80.2667 45.0659 80.04L44.9559 79.61C44.9159 79.53 44.8859 79.4433 44.8659 79.35C44.8459 79.2567 44.8359 79.17 44.8359 79.09C44.8359 78.8233 44.9159 78.6233 45.0759 78.49C45.2426 78.35 45.4626 78.28 45.7359 78.28C46.0693 78.28 46.3326 78.3733 46.5259 78.56C46.7193 78.7467 46.8159 78.97 46.8159 79.23C46.8159 79.4567 46.7393 79.65 46.5859 79.81C46.4393 79.97 46.2259 80.0967 45.9459 80.19L45.6759 80.31C45.5226 80.3567 45.3659 80.3933 45.2059 80.42C45.0526 80.44 44.8693 80.45 44.6559 80.45C44.3226 80.45 43.9959 80.41 43.6759 80.33C43.3559 80.25 43.0659 80.1267 42.8059 79.96C42.5526 79.7933 42.3493 79.58 42.1959 79.32C42.0426 79.0533 41.9659 78.7367 41.9659 78.37C41.9659 77.73 42.1826 77.2567 42.6159 76.95C43.0493 76.6367 43.7026 76.48 44.5759 76.48H45.1659L44.9759 76.79V75.9H41.5859V74.78H47.3359V75.9H46.3559V77.55H44.8059C44.3126 77.55 43.9459 77.6233 43.7059 77.77C43.4726 77.91 43.3559 78.13 43.3559 78.43C43.3559 78.7167 43.4693 78.9367 43.6959 79.09C43.9293 79.2433 44.2426 79.32 44.6359 79.32C44.7559 79.32 44.8793 79.31 45.0059 79.29C45.1393 79.2633 45.2693 79.2233 45.3959 79.17L46.1559 79.81C46.2493 80.01 46.3559 80.2333 46.4759 80.48C46.5959 80.72 46.7393 80.9733 46.9059 81.24L45.6859 81.7ZM47.2012 74.78H53.5012V75.9H52.5812V81H51.1812V78.39H49.7012V78.61C49.7012 78.9033 49.6412 79.12 49.5212 79.26C49.4012 79.4 49.2278 79.47 49.0012 79.47C48.8345 79.47 48.6645 79.4233 48.4912 79.33C48.3178 79.23 48.1545 79.1033 48.0012 78.95C47.8545 78.79 47.7345 78.62 47.6412 78.44C47.5545 78.2533 47.5112 78.08 47.5112 77.92C47.5112 77.7267 47.5645 77.57 47.6712 77.45C47.7778 77.33 47.9845 77.27 48.2912 77.27H51.1812V75.9H47.2012V74.78Z" fill="white"/>
<path d="M75.694 52.1182C75.2553 52.1182 74.924 52.0248 74.7 51.8382C74.4853 51.6515 74.378 51.3622 74.378 50.9702C74.378 50.5688 74.4853 50.2748 74.7 50.0882C74.924 49.9015 75.2553 49.8082 75.694 49.8082C76.142 49.8082 76.4733 49.9015 76.688 50.0882C76.912 50.2748 77.024 50.5688 77.024 50.9702C77.024 51.7355 76.5807 52.1182 75.694 52.1182ZM75.694 47.2602C75.2553 47.2602 74.924 47.1668 74.7 46.9802C74.4853 46.7935 74.378 46.5042 74.378 46.1122C74.378 45.7108 74.4853 45.4168 74.7 45.2302C74.924 45.0435 75.2553 44.9502 75.694 44.9502C76.142 44.9502 76.4733 45.0435 76.688 45.2302C76.912 45.4168 77.024 45.7108 77.024 46.1122C77.024 46.8775 76.5807 47.2602 75.694 47.2602Z" fill="white"/>
<path d="M89.68 58V54.92C91.2667 53.9307 92.62 53.0067 93.74 52.148C94.86 51.2893 95.7653 50.4773 96.456 49.712C97.1653 48.9467 97.688 48.2187 98.024 47.528C98.36 46.8373 98.528 46.1653 98.528 45.512C98.528 44.8027 98.3133 44.2147 97.884 43.748C97.4733 43.2627 96.8573 43.02 96.036 43.02C95.1587 43.02 94.4773 43.3467 93.992 44C93.5067 44.6347 93.2453 45.568 93.208 46.8L89.092 45.54C89.1293 44.1587 89.456 43.0013 90.072 42.068C90.7067 41.1347 91.5653 40.4347 92.648 39.968C93.7307 39.4827 94.9627 39.24 96.344 39.24C97.5573 39.24 98.6027 39.4173 99.48 39.772C100.376 40.108 101.104 40.5653 101.664 41.144C102.224 41.704 102.635 42.3387 102.896 43.048C103.176 43.7387 103.316 44.448 103.316 45.176C103.316 46.3707 103.008 47.4907 102.392 48.536C101.776 49.5627 100.88 50.5613 99.704 51.532C98.5467 52.484 97.1373 53.4453 95.476 54.416V54.444C95.7933 54.4253 96.1667 54.4067 96.596 54.388C97.0253 54.3693 97.4733 54.36 97.94 54.36C98.4067 54.3413 98.8267 54.332 99.2 54.332H103.54V58H89.68ZM113.696 58.28C111.176 58.28 109.262 57.4773 107.956 55.872C106.668 54.2667 106.024 51.896 106.024 48.76C106.024 45.624 106.668 43.2533 107.956 41.648C109.262 40.0427 111.176 39.24 113.696 39.24C116.216 39.24 118.12 40.0427 119.408 41.648C120.714 43.2533 121.368 45.624 121.368 48.76C121.368 51.896 120.714 54.2667 119.408 55.872C118.12 57.4773 116.216 58.28 113.696 58.28ZM113.696 54.528C114.386 54.528 114.946 54.3413 115.376 53.968C115.805 53.576 116.113 52.96 116.3 52.12C116.505 51.2613 116.608 50.1413 116.608 48.76C116.608 47.3787 116.505 46.268 116.3 45.428C116.113 44.5693 115.805 43.9533 115.376 43.58C114.946 43.188 114.386 42.992 113.696 42.992C113.024 42.992 112.464 43.188 112.016 43.58C111.586 43.9533 111.269 44.5693 111.064 45.428C110.877 46.268 110.784 47.3787 110.784 48.76C110.784 50.1413 110.877 51.2613 111.064 52.12C111.269 52.96 111.586 53.576 112.016 53.968C112.464 54.3413 113.024 54.528 113.696 54.528Z" fill="white"/>
<path d="M106.187 75.9H105.267V81H103.877V79.32L104.147 79.6C103.947 79.76 103.697 79.8867 103.397 79.98C103.104 80.0667 102.777 80.11 102.417 80.11C101.971 80.11 101.584 80.04 101.257 79.9C100.931 79.76 100.681 79.5633 100.507 79.31C100.334 79.0567 100.247 78.7633 100.247 78.43C100.247 78.2033 100.301 77.98 100.407 77.76C100.514 77.54 100.691 77.3567 100.937 77.21L101.067 77.09C101.234 76.99 101.431 76.9167 101.657 76.87C101.884 76.8233 102.111 76.8 102.337 76.8C102.457 76.8 102.567 76.8033 102.667 76.81C102.774 76.8167 102.874 76.8267 102.967 76.84L102.887 77.93C102.814 77.9233 102.744 77.92 102.677 77.92C102.611 77.9133 102.541 77.91 102.467 77.91C102.181 77.91 101.971 77.9567 101.837 78.05C101.704 78.1433 101.637 78.2733 101.637 78.44C101.637 78.6267 101.711 78.7667 101.857 78.86C102.004 78.9467 102.211 78.99 102.477 78.99C102.784 78.99 103.071 78.93 103.337 78.81C103.604 78.69 103.827 78.5167 104.007 78.29L103.877 78.95V75.9H99.5674V74.78H106.187V75.9ZM101.657 77.77C101.331 77.7433 101.041 77.6733 100.787 77.56C100.541 77.4467 100.344 77.2967 100.197 77.11C100.057 76.9167 99.9874 76.6933 99.9874 76.44C99.9874 76.1867 100.047 75.9633 100.167 75.77C100.294 75.5767 100.477 75.4133 100.717 75.28L101.837 75.72C101.677 75.8067 101.561 75.9033 101.487 76.01C101.421 76.1167 101.387 76.2367 101.387 76.37C101.387 76.5367 101.444 76.6733 101.557 76.78C101.671 76.88 101.807 76.94 101.967 76.96L101.657 77.77ZM103.802 73.3C103.802 73.08 103.878 72.8967 104.032 72.75C104.178 72.5967 104.362 72.52 104.582 72.52C104.802 72.52 104.985 72.5967 105.132 72.75C105.278 72.8967 105.352 73.08 105.352 73.3C105.352 73.5267 105.278 73.7167 105.132 73.87C104.985 74.0167 104.802 74.09 104.582 74.09C104.362 74.09 104.178 74.0167 104.032 73.87C103.878 73.7167 103.802 73.5267 103.802 73.3ZM111.572 75.9H110.422V77.76H109.342C108.828 77.76 108.442 77.8433 108.182 78.01C107.928 78.1767 107.802 78.4433 107.802 78.81C107.802 79.1367 107.922 79.3867 108.162 79.56C108.402 79.7333 108.708 79.82 109.082 79.82C109.382 79.82 109.662 79.7733 109.922 79.68C110.188 79.58 110.472 79.43 110.772 79.23L111.282 80.26C110.988 80.5 110.658 80.6833 110.292 80.81C109.932 80.9367 109.512 81 109.032 81C108.518 81 108.062 80.9133 107.662 80.74C107.268 80.56 106.958 80.3033 106.732 79.97C106.512 79.6367 106.402 79.2333 106.402 78.76C106.402 78.0533 106.638 77.5333 107.112 77.2C107.585 76.8667 108.248 76.7 109.102 76.7H109.412L109.042 76.97V75.9H106.052V74.78H111.572V75.9ZM109.088 74.85C108.975 74.5033 108.875 74.22 108.788 74C108.695 73.78 108.605 73.61 108.518 73.49C108.425 73.37 108.325 73.29 108.218 73.25C108.111 73.2033 107.988 73.18 107.848 73.18C107.728 73.18 107.605 73.1933 107.478 73.22C107.345 73.2467 107.221 73.2833 107.108 73.33L106.758 72.24C106.938 72.1733 107.128 72.1233 107.328 72.09C107.521 72.0567 107.715 72.04 107.908 72.04C108.215 72.04 108.481 72.0833 108.708 72.17C108.928 72.2567 109.125 72.4067 109.298 72.62C109.471 72.8267 109.638 73.1133 109.798 73.48C109.951 73.84 110.115 74.2967 110.288 74.85H109.088Z" fill="white"/>
<path d="M134.694 52.1182C134.255 52.1182 133.924 52.0248 133.7 51.8382C133.485 51.6515 133.378 51.3622 133.378 50.9702C133.378 50.5688 133.485 50.2748 133.7 50.0882C133.924 49.9015 134.255 49.8082 134.694 49.8082C135.142 49.8082 135.473 49.9015 135.688 50.0882C135.912 50.2748 136.024 50.5688 136.024 50.9702C136.024 51.7355 135.581 52.1182 134.694 52.1182ZM134.694 47.2602C134.255 47.2602 133.924 47.1668 133.7 46.9802C133.485 46.7935 133.378 46.5042 133.378 46.1122C133.378 45.7108 133.485 45.4168 133.7 45.2302C133.924 45.0435 134.255 44.9502 134.694 44.9502C135.142 44.9502 135.473 45.0435 135.688 45.2302C135.912 45.4168 136.024 45.7108 136.024 46.1122C136.024 46.8775 135.581 47.2602 134.694 47.2602Z" fill="white"/>
<path d="M156.016 57.28C153.496 57.28 151.583 56.4773 150.276 54.872C148.988 53.2667 148.344 50.896 148.344 47.76C148.344 44.624 148.988 42.2533 150.276 40.648C151.583 39.0427 153.496 38.24 156.016 38.24C158.536 38.24 160.44 39.0427 161.728 40.648C163.035 42.2533 163.688 44.624 163.688 47.76C163.688 50.896 163.035 53.2667 161.728 54.872C160.44 56.4773 158.536 57.28 156.016 57.28ZM156.016 53.528C156.707 53.528 157.267 53.3413 157.696 52.968C158.125 52.576 158.433 51.96 158.62 51.12C158.825 50.2613 158.928 49.1413 158.928 47.76C158.928 46.3787 158.825 45.268 158.62 44.428C158.433 43.5693 158.125 42.9533 157.696 42.58C157.267 42.188 156.707 41.992 156.016 41.992C155.344 41.992 154.784 42.188 154.336 42.58C153.907 42.9533 153.589 43.5693 153.384 44.428C153.197 45.268 153.104 46.3787 153.104 47.76C153.104 49.1413 153.197 50.2613 153.384 51.12C153.589 51.96 153.907 52.576 154.336 52.968C154.784 53.3413 155.344 53.528 156.016 53.528ZM174.596 38.24C175.585 38.24 176.5 38.3707 177.34 38.632C178.198 38.8933 178.945 39.3227 179.58 39.92C180.214 40.5173 180.69 41.32 181.008 42.328L177.088 44.176C176.901 43.5227 176.574 43.0093 176.108 42.636C175.66 42.244 175.053 42.048 174.288 42.048C173.765 42.048 173.28 42.1787 172.832 42.44C172.402 42.6827 172.029 43.0373 171.712 43.504C171.394 43.9707 171.152 44.54 170.984 45.212C170.834 45.884 170.76 46.64 170.76 47.48C170.76 47.536 170.76 47.6013 170.76 47.676C170.76 47.732 170.76 47.816 170.76 47.928L170.816 48.096C171.04 47.536 171.385 47.0693 171.852 46.696C172.337 46.304 172.888 46.0053 173.504 45.8C174.12 45.5947 174.736 45.492 175.352 45.492C176.49 45.492 177.508 45.716 178.404 46.164C179.3 46.612 180 47.256 180.504 48.096C181.026 48.9173 181.288 49.916 181.288 51.092C181.288 52.3613 180.998 53.4627 180.42 54.396C179.841 55.3107 179.038 56.02 178.012 56.524C176.985 57.028 175.762 57.28 174.344 57.28C172.757 57.28 171.357 56.9347 170.144 56.244C168.949 55.5347 168.016 54.4893 167.344 53.108C166.69 51.708 166.364 49.9813 166.364 47.928C166.364 45.7253 166.728 43.9147 167.456 42.496C168.184 41.0773 169.164 40.0133 170.396 39.304C171.646 38.5947 173.046 38.24 174.596 38.24ZM174.26 48.74C173.774 48.74 173.326 48.8427 172.916 49.048C172.524 49.2347 172.206 49.5147 171.964 49.888C171.74 50.2613 171.628 50.7 171.628 51.204C171.628 51.6893 171.749 52.1187 171.992 52.492C172.234 52.8653 172.552 53.1547 172.944 53.36C173.336 53.5653 173.774 53.668 174.26 53.668C175.1 53.668 175.744 53.4533 176.192 53.024C176.658 52.5947 176.892 51.988 176.892 51.204C176.892 50.6813 176.789 50.2427 176.584 49.888C176.378 49.5147 176.08 49.2347 175.688 49.048C175.314 48.8427 174.838 48.74 174.26 48.74Z" fill="white"/>
<path d="M155.272 73.85C155.185 73.7033 155.112 73.5433 155.052 73.37C154.992 73.1967 154.962 73 154.962 72.78C154.962 72.2267 155.182 71.8 155.622 71.5C156.062 71.1933 156.672 71.04 157.452 71.04C158.239 71.04 158.965 71.17 159.632 71.43C160.305 71.6833 160.905 72.0233 161.432 72.45C161.965 72.87 162.409 73.3367 162.762 73.85H161.342C161.015 73.49 160.662 73.1867 160.282 72.94C159.902 72.6933 159.499 72.5033 159.072 72.37C158.645 72.2367 158.199 72.17 157.732 72.17C157.279 72.17 156.935 72.2533 156.702 72.42C156.475 72.58 156.362 72.8033 156.362 73.09C156.362 73.2433 156.389 73.3833 156.442 73.51C156.495 73.6367 156.559 73.75 156.632 73.85H155.272ZM156.672 74.9V80H155.272V74.9H154.502V73.78H157.592V74.9H156.672ZM163.181 74.9V80H161.791V77.84H159.961V77.99C159.961 78.27 159.898 78.4767 159.771 78.61C159.651 78.7367 159.481 78.8 159.261 78.8C159.095 78.8 158.921 78.75 158.741 78.65C158.568 78.55 158.408 78.4267 158.261 78.28C158.115 78.1267 157.995 77.9633 157.901 77.79C157.808 77.61 157.761 77.4433 157.761 77.29C157.761 77.1367 157.811 77.0033 157.911 76.89C158.011 76.7767 158.211 76.72 158.511 76.72H158.561V74.9H157.441V73.78H164.101V74.9H163.181ZM161.791 74.9H159.961V76.72H161.791V74.9ZM163.965 73.78H170.265V74.9H169.345V80H167.945V77.39H166.465V77.61C166.465 77.9033 166.405 78.12 166.285 78.26C166.165 78.4 165.992 78.47 165.765 78.47C165.598 78.47 165.428 78.4233 165.255 78.33C165.082 78.23 164.918 78.1033 164.765 77.95C164.618 77.79 164.498 77.62 164.405 77.44C164.318 77.2533 164.275 77.08 164.275 76.92C164.275 76.7267 164.328 76.57 164.435 76.45C164.542 76.33 164.748 76.27 165.055 76.27H167.945V74.9H163.965V73.78ZM175.637 74.9H174.487V76.76H173.407C172.894 76.76 172.507 76.8433 172.247 77.01C171.994 77.1767 171.867 77.4433 171.867 77.81C171.867 78.1367 171.987 78.3867 172.227 78.56C172.467 78.7333 172.774 78.82 173.147 78.82C173.447 78.82 173.727 78.7733 173.987 78.68C174.254 78.58 174.537 78.43 174.837 78.23L175.347 79.26C175.054 79.5 174.724 79.6833 174.357 79.81C173.997 79.9367 173.577 80 173.097 80C172.584 80 172.127 79.9133 171.727 79.74C171.334 79.56 171.024 79.3033 170.797 78.97C170.577 78.6367 170.467 78.2333 170.467 77.76C170.467 77.0533 170.704 76.5333 171.177 76.2C171.651 75.8667 172.314 75.7 173.167 75.7H173.477L173.107 75.97V74.9H170.117V73.78H175.637V74.9Z" fill="white"/>
<path d="M194.694 52.1182C194.255 52.1182 193.924 52.0248 193.7 51.8382C193.485 51.6515 193.378 51.3622 193.378 50.9702C193.378 50.5688 193.485 50.2748 193.7 50.0882C193.924 49.9015 194.255 49.8082 194.694 49.8082C195.142 49.8082 195.473 49.9015 195.688 50.0882C195.912 50.2748 196.024 50.5688 196.024 50.9702C196.024 51.7355 195.581 52.1182 194.694 52.1182ZM194.694 47.2602C194.255 47.2602 193.924 47.1668 193.7 46.9802C193.485 46.7935 193.378 46.5042 193.378 46.1122C193.378 45.7108 193.485 45.4168 193.7 45.2302C193.924 45.0435 194.255 44.9502 194.694 44.9502C195.142 44.9502 195.473 45.0435 195.688 45.2302C195.912 45.4168 196.024 45.7108 196.024 46.1122C196.024 46.8775 195.581 47.2602 194.694 47.2602Z" fill="white"/>
<path d="M212.348 58V47.36C212.348 46.8747 212.348 46.38 212.348 45.876C212.367 45.3533 212.376 44.8213 212.376 44.28C211.76 44.84 211.079 45.3347 210.332 45.764C209.585 46.1747 208.801 46.4547 207.98 46.604L207.532 42.628C208.017 42.5907 208.531 42.4693 209.072 42.264C209.632 42.0587 210.183 41.8067 210.724 41.508C211.265 41.2093 211.751 40.892 212.18 40.556C212.609 40.2013 212.936 39.856 213.16 39.52H216.996V58H212.348ZM228.075 58.28C225.555 58.28 223.641 57.4773 222.335 55.872C221.047 54.2667 220.403 51.896 220.403 48.76C220.403 45.624 221.047 43.2533 222.335 41.648C223.641 40.0427 225.555 39.24 228.075 39.24C230.595 39.24 232.499 40.0427 233.787 41.648C235.093 43.2533 235.747 45.624 235.747 48.76C235.747 51.896 235.093 54.2667 233.787 55.872C232.499 57.4773 230.595 58.28 228.075 58.28ZM228.075 54.528C228.765 54.528 229.325 54.3413 229.755 53.968C230.184 53.576 230.492 52.96 230.679 52.12C230.884 51.2613 230.987 50.1413 230.987 48.76C230.987 47.3787 230.884 46.268 230.679 45.428C230.492 44.5693 230.184 43.9533 229.755 43.58C229.325 43.188 228.765 42.992 228.075 42.992C227.403 42.992 226.843 43.188 226.395 43.58C225.965 43.9533 225.648 44.5693 225.443 45.428C225.256 46.268 225.163 47.3787 225.163 48.76C225.163 50.1413 225.256 51.2613 225.443 52.12C225.648 52.96 225.965 53.576 226.395 53.968C226.843 54.3413 227.403 54.528 228.075 54.528Z" fill="white"/>
<path d="M214.577 81.23C214.03 80.6833 213.577 80.1933 213.217 79.76C212.863 79.3267 212.603 78.9633 212.437 78.67C212.33 78.4833 212.253 78.3167 212.207 78.17C212.16 78.0167 212.137 77.8767 212.137 77.75C212.137 77.5367 212.2 77.3667 212.327 77.24C212.453 77.1067 212.64 77.04 212.887 77.04C213.14 77.04 213.363 77.12 213.557 77.28C213.757 77.4333 213.953 77.62 214.147 77.84L213.327 77.71C213.567 77.57 213.733 77.4067 213.827 77.22C213.927 77.0333 213.977 76.8133 213.977 76.56C213.977 76.36 213.95 76.1733 213.897 76C213.843 75.8267 213.77 75.6833 213.677 75.57L214.377 75.9H211.807V74.78H216.317V75.9H214.887L215.117 75.59C215.197 75.7567 215.257 75.93 215.297 76.11C215.343 76.2833 215.367 76.4833 215.367 76.71C215.367 76.9767 215.32 77.2133 215.227 77.42C215.14 77.6267 215.023 77.8067 214.877 77.96L214.747 78.11C214.62 78.2367 214.477 78.3533 214.317 78.46C214.163 78.56 213.983 78.65 213.777 78.73V78.56C213.943 78.7533 214.123 78.9533 214.317 79.16C214.51 79.36 214.717 79.5633 214.937 79.77C215.157 79.9767 215.38 80.1833 215.607 80.39L214.577 81.23ZM216.117 78.82C215.83 78.82 215.53 78.7867 215.217 78.72C214.903 78.6467 214.597 78.5267 214.297 78.36L214.667 77.43C214.94 77.53 215.183 77.6 215.397 77.64C215.61 77.6733 215.85 77.69 216.117 77.69C216.377 77.69 216.63 77.67 216.877 77.63C217.123 77.5833 217.373 77.5067 217.627 77.4V78.57C217.413 78.65 217.18 78.7133 216.927 78.76C216.68 78.8 216.41 78.82 216.117 78.82ZM217.017 81V75.9H215.987V74.78H219.337V75.9H218.417V81H217.017ZM217.069 74.85C216.956 74.5033 216.856 74.22 216.769 74C216.676 73.78 216.586 73.61 216.499 73.49C216.406 73.37 216.306 73.29 216.199 73.25C216.093 73.2033 215.969 73.18 215.829 73.18C215.709 73.18 215.586 73.1933 215.459 73.22C215.326 73.2467 215.203 73.2833 215.089 73.33L214.739 72.24C214.919 72.1733 215.109 72.1233 215.309 72.09C215.503 72.0567 215.696 72.04 215.889 72.04C216.196 72.04 216.463 72.0833 216.689 72.17C216.909 72.2567 217.106 72.4067 217.279 72.62C217.453 72.8267 217.619 73.1133 217.779 73.48C217.933 73.84 218.096 74.2967 218.269 74.85H217.069ZM227.639 75.9H224.379V77.7L224.239 77.41C224.399 77.2833 224.576 77.1833 224.769 77.11C224.969 77.0367 225.199 77 225.459 77C225.979 77 226.393 77.1533 226.699 77.46C227.006 77.76 227.159 78.18 227.159 78.72C227.159 79.04 227.099 79.3633 226.979 79.69C226.859 80.0167 226.659 80.3567 226.379 80.71L225.169 80.04C225.349 79.8267 225.493 79.6167 225.599 79.41C225.713 79.1967 225.769 78.9733 225.769 78.74C225.769 78.5267 225.719 78.37 225.619 78.27C225.519 78.1633 225.379 78.11 225.199 78.11C225.019 78.11 224.849 78.1667 224.689 78.28C224.536 78.3867 224.419 78.52 224.339 78.68L224.379 78.41V81H222.979V79.11L223.369 79.44C223.216 79.58 223.049 79.7 222.869 79.8C222.689 79.8933 222.493 79.9667 222.279 80.02C222.073 80.0667 221.853 80.09 221.619 80.09C221.206 80.09 220.843 80.02 220.529 79.88C220.223 79.74 219.979 79.5367 219.799 79.27C219.626 78.9967 219.539 78.6667 219.539 78.28C219.539 77.7133 219.726 77.2767 220.099 76.97C220.479 76.6633 221.013 76.51 221.699 76.51C221.873 76.51 222.043 76.5167 222.209 76.53C222.376 76.5433 222.533 76.5667 222.679 76.6L222.559 77.71C222.459 77.6833 222.349 77.6633 222.229 77.65C222.116 77.6367 221.996 77.63 221.869 77.63C221.576 77.63 221.346 77.69 221.179 77.81C221.019 77.93 220.939 78.1 220.939 78.32C220.939 78.5333 221.013 78.6967 221.159 78.81C221.306 78.9167 221.496 78.97 221.729 78.97C222.043 78.97 222.323 78.88 222.569 78.7C222.816 78.52 223.003 78.3233 223.129 78.11L222.979 78.97V75.9H219.189V74.78H227.639V75.9ZM222.877 73.3C222.877 73.08 222.954 72.8967 223.107 72.75C223.254 72.5967 223.437 72.52 223.657 72.52C223.877 72.52 224.06 72.5967 224.207 72.75C224.354 72.8967 224.427 73.08 224.427 73.3C224.427 73.5267 224.354 73.7167 224.207 73.87C224.06 74.0167 223.877 74.09 223.657 74.09C223.437 74.09 223.254 74.0167 223.107 73.87C222.954 73.7167 222.877 73.5267 222.877 73.3ZM230.66 79.07C230.494 79.07 230.317 79.0833 230.13 79.11C229.95 79.1367 229.774 79.1733 229.6 79.22C229.26 79.0333 228.97 78.8133 228.73 78.56C228.49 78.3 228.37 78.0067 228.37 77.68C228.37 77.2867 228.507 76.99 228.78 76.79C229.054 76.5833 229.47 76.48 230.03 76.48H231.01V75.9H227.38V74.78H233.32V75.9H232.39V77.43H230.26C230.074 77.43 229.94 77.46 229.86 77.52C229.78 77.58 229.74 77.67 229.74 77.79C229.74 77.8633 229.76 77.9333 229.8 78C229.847 78.0667 229.904 78.1233 229.97 78.17C230.117 78.1367 230.28 78.11 230.46 78.09C230.647 78.0633 230.844 78.05 231.05 78.05C231.67 78.05 232.124 78.18 232.41 78.44C232.697 78.7 232.84 79.0467 232.84 79.48C232.84 79.7733 232.767 80.04 232.62 80.28C232.48 80.52 232.247 80.71 231.92 80.85C231.594 80.9833 231.16 81.05 230.62 81.05C230.02 81.05 229.474 80.96 228.98 80.78C228.487 80.5933 228.02 80.3267 227.58 79.98L228.19 78.98C228.57 79.3067 228.95 79.5567 229.33 79.73C229.71 79.8967 230.104 79.98 230.51 79.98C230.83 79.98 231.06 79.94 231.2 79.86C231.347 79.7733 231.42 79.6533 231.42 79.5C231.42 79.36 231.364 79.2533 231.25 79.18C231.144 79.1067 230.947 79.07 230.66 79.07Z" fill="white"/>
<g filter="url(#filter1_i_23906_171580)">
<rect x="95" width="79" height="22" rx="11" fill="#AC6C16"/>
<path d="M106.699 8.532L106.843 8.34C106.931 8.5 106.999 8.684 107.047 8.892C107.095 9.1 107.119 9.336 107.119 9.6C107.119 10.248 106.967 10.772 106.663 11.172C106.367 11.572 105.931 11.904 105.355 12.168L105.403 12.06C105.667 12.452 105.979 12.788 106.339 13.068C106.699 13.348 107.107 13.564 107.563 13.716C108.027 13.86 108.527 13.932 109.063 13.932C109.551 13.932 110.003 13.88 110.419 13.776C110.835 13.664 111.227 13.492 111.595 13.26L111.751 14.136C111.407 14.408 111.015 14.608 110.575 14.736C110.135 14.864 109.619 14.928 109.027 14.928C108.371 14.928 107.775 14.84 107.239 14.664C106.711 14.488 106.239 14.252 105.823 13.956C105.415 13.652 105.063 13.32 104.767 12.96C104.471 12.584 104.243 12.232 104.083 11.904C103.931 11.568 103.855 11.256 103.855 10.968C103.855 10.744 103.919 10.572 104.047 10.452C104.183 10.324 104.359 10.26 104.575 10.26C104.799 10.26 105.003 10.328 105.187 10.464C105.371 10.592 105.571 10.788 105.787 11.052L105.175 11.04C105.383 10.96 105.539 10.844 105.643 10.692C105.755 10.532 105.831 10.352 105.871 10.152C105.919 9.952 105.943 9.756 105.943 9.564C105.943 9.324 105.919 9.096 105.871 8.88C105.831 8.656 105.759 8.464 105.655 8.304L106.075 8.532H103.387V7.536H109.267V8.532H106.699ZM112.387 8.532V15H111.199V8.532H108.847V7.536H113.575V8.532H112.387ZM111.523 12.504C111.315 12.648 111.079 12.764 110.815 12.852C110.559 12.94 110.251 12.984 109.891 12.984C109.459 12.984 109.079 12.912 108.751 12.768C108.431 12.616 108.179 12.4 107.995 12.12C107.819 11.84 107.731 11.512 107.731 11.136C107.731 10.568 107.919 10.128 108.295 9.816C108.671 9.504 109.195 9.348 109.867 9.348C110.043 9.348 110.211 9.36 110.371 9.384C110.539 9.4 110.691 9.424 110.827 9.456L110.755 10.368C110.627 10.336 110.499 10.316 110.371 10.308C110.251 10.292 110.123 10.284 109.987 10.284C109.627 10.284 109.351 10.36 109.159 10.512C108.967 10.656 108.871 10.88 108.871 11.184C108.871 11.488 108.971 11.712 109.171 11.856C109.379 11.992 109.635 12.06 109.939 12.06C110.283 12.06 110.587 11.984 110.851 11.832C111.115 11.68 111.315 11.492 111.451 11.268L111.523 12.504ZM111.222 7.62C111.062 7.116 110.926 6.712 110.814 6.408C110.694 6.096 110.578 5.86 110.466 5.7C110.346 5.532 110.218 5.42 110.082 5.364C109.946 5.3 109.778 5.268 109.578 5.268C109.418 5.268 109.254 5.288 109.086 5.328C108.91 5.36 108.754 5.404 108.618 5.46L108.306 4.476C108.49 4.404 108.694 4.348 108.918 4.308C109.134 4.268 109.346 4.248 109.554 4.248C109.914 4.248 110.222 4.3 110.478 4.404C110.726 4.5 110.95 4.676 111.15 4.932C111.342 5.18 111.526 5.524 111.702 5.964C111.878 6.396 112.07 6.948 112.278 7.62H111.222ZM113.406 8.532V7.536H121.926V8.532H120.726V15H119.55V10.512L120.15 10.992C120.022 10.936 119.898 10.9 119.778 10.884C119.666 10.868 119.554 10.86 119.442 10.86C119.186 10.86 118.958 10.92 118.758 11.04C118.558 11.16 118.39 11.36 118.254 11.64C118.118 11.912 118.01 12.28 117.93 12.744L116.778 12.432C116.89 11.592 117.17 10.956 117.618 10.524C118.074 10.092 118.674 9.876 119.418 9.876C119.578 9.876 119.734 9.888 119.886 9.912C120.046 9.936 120.178 9.964 120.282 9.996L120.306 10.26L119.55 10.032V8.532H113.406ZM117.414 11.484C117.278 11.3 117.11 11.152 116.91 11.04C116.718 10.92 116.486 10.86 116.214 10.86C115.862 10.86 115.586 10.964 115.386 11.172C115.186 11.38 115.086 11.66 115.086 12.012C115.086 12.436 115.246 12.828 115.566 13.188C115.894 13.54 116.418 13.916 117.138 14.316L116.478 15.204C115.678 14.756 115.05 14.268 114.594 13.74C114.138 13.204 113.91 12.592 113.91 11.904C113.91 11.224 114.11 10.712 114.51 10.368C114.918 10.024 115.434 9.852 116.058 9.852C116.466 9.852 116.818 9.928 117.114 10.08C117.418 10.224 117.686 10.42 117.918 10.668L117.414 11.484ZM132.166 8.532V15H130.978V8.532H129.982V7.536H133.354V8.532H132.166ZM126.346 13.02C125.97 13.02 125.662 12.932 125.422 12.756C125.19 12.58 125.074 12.34 125.074 12.036C125.074 11.788 125.154 11.596 125.314 11.46C125.474 11.324 125.682 11.256 125.938 11.256C126.178 11.256 126.39 11.312 126.574 11.424C126.766 11.528 126.966 11.708 127.174 11.964L127.306 12.204C127.698 12.54 128.066 12.904 128.41 13.296C128.754 13.688 129.074 14.084 129.37 14.484L128.386 15.12C127.97 14.536 127.594 14.032 127.258 13.608C126.922 13.184 126.61 12.828 126.322 12.54L126.262 11.94C126.71 11.9 127.102 11.784 127.438 11.592C127.774 11.392 128.038 11.128 128.23 10.8C128.43 10.464 128.53 10.072 128.53 9.624C128.53 9.208 128.438 8.892 128.254 8.676C128.078 8.452 127.822 8.34 127.486 8.34C127.238 8.34 127.046 8.404 126.91 8.532C126.774 8.652 126.706 8.808 126.706 9C126.706 9.256 126.814 9.444 127.03 9.564C127.246 9.684 127.542 9.764 127.918 9.804L127.69 10.644C127.042 10.588 126.534 10.42 126.166 10.14C125.806 9.852 125.626 9.456 125.626 8.952C125.626 8.488 125.782 8.116 126.094 7.836C126.414 7.556 126.866 7.416 127.45 7.416C127.914 7.416 128.31 7.512 128.638 7.704C128.974 7.888 129.23 8.152 129.406 8.496C129.582 8.832 129.67 9.236 129.67 9.708C129.67 10.228 129.574 10.692 129.382 11.1C129.19 11.5 128.914 11.84 128.554 12.12C128.202 12.4 127.79 12.62 127.318 12.78L127.15 12.876C126.99 12.916 126.85 12.952 126.73 12.984C126.61 13.008 126.482 13.02 126.346 13.02ZM131.159 18.216C130.679 18.216 130.235 18.14 129.827 17.988C129.411 17.836 129.023 17.616 128.663 17.328C128.295 17.048 127.939 16.716 127.595 16.332L128.387 15.612C128.715 15.996 129.023 16.308 129.311 16.548C129.599 16.788 129.891 16.964 130.188 17.076C130.475 17.188 130.783 17.244 131.111 17.244C131.503 17.244 131.799 17.172 131.999 17.028C132.191 16.884 132.287 16.688 132.287 16.44C132.287 16.232 132.227 16.06 132.107 15.924C131.979 15.796 131.787 15.732 131.531 15.732C131.315 15.732 131.111 15.776 130.919 15.864C130.727 15.96 130.543 16.088 130.367 16.248L129.803 15.468C130.035 15.252 130.291 15.088 130.571 14.976C130.851 14.864 131.183 14.808 131.567 14.808C132.143 14.808 132.587 14.968 132.899 15.288C133.204 15.608 133.356 16.02 133.356 16.524C133.356 17.044 133.171 17.456 132.803 17.76C132.427 18.064 131.879 18.216 131.159 18.216ZM138.192 11.772C137.968 11.564 137.728 11.4 137.472 11.28C137.224 11.16 136.908 11.1 136.524 11.1L136.488 10.164C136.864 10.172 137.192 10.216 137.472 10.296C137.752 10.368 138.004 10.476 138.228 10.62L138.192 11.772ZM139.392 13.152C138.84 13.152 138.404 12.996 138.084 12.684C137.772 12.372 137.616 11.964 137.616 11.46C137.616 10.94 137.78 10.52 138.108 10.2C138.436 9.88 138.904 9.72 139.512 9.72C140.016 9.72 140.448 9.84 140.808 10.08C141.168 10.312 141.488 10.672 141.768 11.16C142.048 11.64 142.312 12.256 142.56 13.008L141.576 13.368C141.352 12.688 141.136 12.152 140.928 11.76C140.728 11.368 140.516 11.088 140.292 10.92C140.068 10.744 139.816 10.656 139.536 10.656C139.264 10.656 139.044 10.728 138.876 10.872C138.716 11.008 138.636 11.2 138.636 11.448C138.636 11.728 138.72 11.928 138.888 12.048C139.056 12.16 139.256 12.216 139.488 12.216C139.624 12.216 139.752 12.2 139.872 12.168C139.992 12.128 140.112 12.076 140.232 12.012L140.544 12.852C140.224 13.052 139.84 13.152 139.392 13.152ZM138.168 7.536H142.92V8.532H138.168V7.536ZM136.812 8.532L137.136 8.304C137.224 8.496 137.288 8.696 137.328 8.904C137.368 9.112 137.388 9.348 137.388 9.612C137.388 10.044 137.3 10.42 137.124 10.74C136.948 11.052 136.696 11.324 136.368 11.556C136.048 11.78 135.672 11.976 135.24 12.144L135.252 11.964C135.484 12.22 135.736 12.488 136.008 12.768C136.288 13.048 136.58 13.324 136.884 13.596C137.196 13.868 137.512 14.14 137.832 14.412L137.004 15.18C136.364 14.62 135.812 14.1 135.348 13.62C134.892 13.14 134.512 12.684 134.208 12.252C134.008 11.98 133.864 11.74 133.776 11.532C133.696 11.324 133.656 11.128 133.656 10.944C133.656 10.736 133.72 10.572 133.848 10.452C133.976 10.324 134.152 10.26 134.376 10.26C134.608 10.26 134.828 10.34 135.036 10.5C135.252 10.652 135.468 10.864 135.684 11.136L135 10.98C135.432 10.828 135.744 10.628 135.936 10.38C136.128 10.124 136.224 9.816 136.224 9.456C136.224 9.232 136.192 9.012 136.128 8.796C136.072 8.572 135.996 8.408 135.9 8.304L136.464 8.532H133.188V7.536H138.396V8.532H136.812ZM147.467 12.372C147.163 12.148 146.927 11.912 146.759 11.664C146.591 11.416 146.507 11.144 146.507 10.848C146.507 10.4 146.667 10.06 146.987 9.828C147.307 9.588 147.787 9.468 148.427 9.468H150.023V8.532H145.727V7.536H152.399V8.532H151.199V10.452H148.583C148.263 10.452 148.027 10.5 147.875 10.596C147.731 10.692 147.659 10.836 147.659 11.028C147.659 11.172 147.707 11.312 147.803 11.448C147.907 11.576 148.039 11.692 148.199 11.796L147.467 12.372ZM149.771 14.28C150.019 14.16 150.207 14.02 150.335 13.86C150.471 13.7 150.539 13.532 150.539 13.356C150.539 13.116 150.439 12.916 150.239 12.756C150.047 12.596 149.723 12.516 149.267 12.516C148.755 12.516 148.359 12.624 148.079 12.84C147.807 13.048 147.671 13.336 147.671 13.704C147.671 14 147.775 14.268 147.983 14.508C148.199 14.74 148.511 14.96 148.919 15.168C149.327 15.376 149.831 15.592 150.431 15.816L149.891 16.776C149.211 16.528 148.615 16.26 148.103 15.972C147.599 15.684 147.207 15.356 146.927 14.988C146.647 14.612 146.507 14.18 146.507 13.692C146.507 13.196 146.631 12.792 146.879 12.48C147.127 12.16 147.463 11.924 147.887 11.772C148.311 11.612 148.787 11.532 149.315 11.532C149.875 11.532 150.331 11.616 150.683 11.784C151.035 11.952 151.291 12.172 151.451 12.444C151.611 12.716 151.691 13.016 151.691 13.344C151.691 13.672 151.615 13.972 151.463 14.244C151.311 14.516 151.043 14.768 150.659 15L149.771 14.28ZM154.427 8.532V15H153.251V8.532H152.219V7.536H155.627V8.532H154.427ZM153.263 7.62C153.103 7.116 152.963 6.712 152.843 6.408C152.731 6.096 152.615 5.86 152.495 5.7C152.383 5.532 152.259 5.42 152.123 5.364C151.987 5.3 151.819 5.268 151.619 5.268C151.459 5.268 151.295 5.288 151.127 5.328C150.951 5.36 150.795 5.404 150.659 5.46L150.347 4.476C150.531 4.404 150.735 4.348 150.959 4.308C151.175 4.268 151.387 4.248 151.595 4.248C151.955 4.248 152.259 4.3 152.507 4.404C152.763 4.5 152.987 4.676 153.179 4.932C153.379 5.18 153.567 5.524 153.743 5.964C153.919 6.396 154.111 6.948 154.319 7.62H153.263ZM158.093 8.532V12.204C158.093 12.452 158.037 12.644 157.925 12.78C157.813 12.916 157.653 12.984 157.445 12.984C157.277 12.984 157.101 12.932 156.917 12.828C156.741 12.724 156.573 12.588 156.413 12.42C156.261 12.252 156.137 12.072 156.041 11.88C155.945 11.688 155.897 11.504 155.897 11.328C155.897 11.136 155.953 10.98 156.065 10.86C156.185 10.732 156.397 10.668 156.701 10.668L156.917 10.68V8.532H155.441V7.536H162.557V8.532H161.357V15H160.181V8.532H158.093ZM164.599 8.532V15H163.423V8.532H162.391V7.536H165.799V8.532H164.599Z" fill="white"/>
</g>
<defs>
<filter id="filter1_i_23906_171580" x="95" y="0" width="79" height="26" filterUnits="userSpaceOnUse" color-interpolation-filters="sRGB">
<feFlood flood-opacity="0" result="BackgroundImageFix"/>
<feBlend mode="normal" in="SourceGraphic" in2="BackgroundImageFix" result="shape"/>
<feColorMatrix in="SourceAlpha" type="matrix" values="0 0 0 0 0 0 0 0 0 0 0 0 0 0 0 0 0 0 127 0" result="hardAlpha"/>
<feOffset dy="4"/>
<feGaussianBlur stdDeviation="2"/>
<feComposite in2="hardAlpha" operator="arithmetic" k2="-1" k3="1"/>
<feColorMatrix type="matrix" values="0 0 0 0 0 0 0 0 0 0 0 0 0 0 0 0 0 0 0.25 0"/>
<feBlend mode="normal" in2="shape" result="effect1_innerShadow_23906_171580"/>
</filter>
</defs>
</svg>
