<svg width="136" height="49" viewBox="0 0 136 49" fill="none" xmlns="http://www.w3.org/2000/svg">
<rect y="7" width="136" height="42" rx="8" fill="black" fill-opacity="0.3"/>
<path d="M11.7412 35.08C11.6665 34.9573 11.6052 34.824 11.5572 34.68C11.5092 34.536 11.4852 34.3787 11.4852 34.208C11.4852 33.776 11.6505 33.44 11.9812 33.2C12.3119 32.9547 12.7652 32.832 13.3412 32.832C13.9332 32.832 14.4772 32.9307 14.9732 33.128C15.4745 33.3253 15.9199 33.592 16.3092 33.928C16.6985 34.264 17.0265 34.648 17.2932 35.08H16.1972C15.9999 34.824 15.7679 34.5947 15.5012 34.392C15.2345 34.184 14.9385 34.0213 14.6132 33.904C14.2932 33.7867 13.9572 33.728 13.6052 33.728C13.2745 33.728 13.0239 33.7947 12.8532 33.928C12.6879 34.056 12.6052 34.2347 12.6052 34.464C12.6052 34.5813 12.6239 34.6907 12.6612 34.792C12.7039 34.888 12.7545 34.984 12.8132 35.08H11.7412ZM12.8532 35.92V40H11.7332V35.92H11.1172V35.024H13.5892V35.92H12.8532ZM16.7488 40.56C16.6368 40.3307 16.5381 40.0987 16.4528 39.864C16.3728 39.624 16.3061 39.4133 16.2528 39.232L16.1648 38.888C16.1328 38.824 16.1088 38.7547 16.0928 38.68C16.0768 38.6053 16.0688 38.536 16.0688 38.472C16.0688 38.2587 16.1328 38.0987 16.2608 37.992C16.3941 37.88 16.5701 37.824 16.7888 37.824C17.0554 37.824 17.2661 37.8987 17.4208 38.048C17.5754 38.1973 17.6528 38.376 17.6528 38.584C17.6528 38.7653 17.5914 38.92 17.4688 39.048C17.3514 39.176 17.1808 39.2773 16.9568 39.352L16.7408 39.448C16.6181 39.4853 16.4928 39.5147 16.3648 39.536C16.2421 39.552 16.0954 39.56 15.9248 39.56C15.6581 39.56 15.3968 39.528 15.1408 39.464C14.8848 39.4 14.6528 39.3013 14.4448 39.168C14.2421 39.0347 14.0794 38.864 13.9568 38.656C13.8341 38.4427 13.7728 38.1893 13.7728 37.896C13.7728 37.384 13.9461 37.0053 14.2928 36.76C14.6394 36.5093 15.1621 36.384 15.8608 36.384H16.3328L16.1808 36.632V35.92H13.4688V35.024H18.0688V35.92H17.2848V37.24H16.0448C15.6501 37.24 15.3568 37.2987 15.1648 37.416C14.9781 37.528 14.8848 37.704 14.8848 37.944C14.8848 38.1733 14.9754 38.3493 15.1568 38.472C15.3434 38.5947 15.5941 38.656 15.9088 38.656C16.0048 38.656 16.1034 38.648 16.2048 38.632C16.3114 38.6107 16.4154 38.5787 16.5168 38.536L17.1248 39.048C17.1994 39.208 17.2848 39.3867 17.3808 39.584C17.4768 39.776 17.5914 39.9787 17.7248 40.192L16.7488 40.56ZM17.9609 35.024H23.0009V35.92H22.2649V40H21.1449V37.912H19.9609V38.088C19.9609 38.3227 19.9129 38.496 19.8169 38.608C19.7209 38.72 19.5823 38.776 19.4009 38.776C19.2676 38.776 19.1316 38.7387 18.9929 38.664C18.8543 38.584 18.7236 38.4827 18.6009 38.36C18.4836 38.232 18.3876 38.096 18.3129 37.952C18.2436 37.8027 18.2089 37.664 18.2089 37.536C18.2089 37.3813 18.2516 37.256 18.3369 37.16C18.4223 37.064 18.5876 37.016 18.8329 37.016H21.1449V35.92H17.9609V35.024Z" fill="white"/>
<path d="M12.508 27.14C11.248 27.14 10.2913 26.7387 9.638 25.936C8.994 25.1333 8.672 23.948 8.672 22.38C8.672 20.812 8.994 19.6267 9.638 18.824C10.2913 18.0213 11.248 17.62 12.508 17.62C13.768 17.62 14.72 18.0213 15.364 18.824C16.0173 19.6267 16.344 20.812 16.344 22.38C16.344 23.948 16.0173 25.1333 15.364 25.936C14.72 26.7387 13.768 27.14 12.508 27.14ZM12.508 25.264C12.8533 25.264 13.1333 25.1707 13.348 24.984C13.5627 24.788 13.7167 24.48 13.81 24.06C13.9127 23.6307 13.964 23.0707 13.964 22.38C13.964 21.6893 13.9127 21.134 13.81 20.714C13.7167 20.2847 13.5627 19.9767 13.348 19.79C13.1333 19.594 12.8533 19.496 12.508 19.496C12.172 19.496 11.892 19.594 11.668 19.79C11.4533 19.9767 11.2947 20.2847 11.192 20.714C11.0987 21.134 11.052 21.6893 11.052 22.38C11.052 23.0707 11.0987 23.6307 11.192 24.06C11.2947 24.48 11.4533 24.788 11.668 24.984C11.892 25.1707 12.172 25.264 12.508 25.264ZM21.7978 17.62C22.2924 17.62 22.7498 17.6853 23.1698 17.816C23.5991 17.9467 23.9724 18.1613 24.2898 18.46C24.6071 18.7587 24.8451 19.16 25.0038 19.664L23.0438 20.588C22.9504 20.2613 22.7871 20.0047 22.5538 19.818C22.3298 19.622 22.0264 19.524 21.6438 19.524C21.3824 19.524 21.1398 19.5893 20.9158 19.72C20.7011 19.8413 20.5144 20.0187 20.3558 20.252C20.1971 20.4853 20.0758 20.77 19.9918 21.106C19.9171 21.442 19.8798 21.82 19.8798 22.24C19.8798 22.268 19.8798 22.3007 19.8798 22.338C19.8798 22.366 19.8798 22.408 19.8798 22.464L19.9078 22.548C20.0198 22.268 20.1924 22.0347 20.4258 21.848C20.6684 21.652 20.9438 21.5027 21.2518 21.4C21.5598 21.2973 21.8678 21.246 22.1758 21.246C22.7451 21.246 23.2538 21.358 23.7018 21.582C24.1498 21.806 24.4998 22.128 24.7518 22.548C25.0131 22.9587 25.1438 23.458 25.1438 24.046C25.1438 24.6807 24.9991 25.2313 24.7098 25.698C24.4204 26.1553 24.0191 26.51 23.5058 26.762C22.9924 27.014 22.3811 27.14 21.6718 27.14C20.8784 27.14 20.1784 26.9673 19.5718 26.622C18.9744 26.2673 18.5078 25.7447 18.1718 25.054C17.8451 24.354 17.6818 23.4907 17.6818 22.464C17.6818 21.3627 17.8638 20.4573 18.2278 19.748C18.5918 19.0387 19.0818 18.5067 19.6978 18.152C20.3231 17.7973 21.0231 17.62 21.7978 17.62ZM21.6298 22.87C21.3871 22.87 21.1631 22.9213 20.9578 23.024C20.7618 23.1173 20.6031 23.2573 20.4818 23.444C20.3698 23.6307 20.3138 23.85 20.3138 24.102C20.3138 24.3447 20.3744 24.5593 20.4958 24.746C20.6171 24.9327 20.7758 25.0773 20.9718 25.18C21.1678 25.2827 21.3871 25.334 21.6298 25.334C22.0498 25.334 22.3718 25.2267 22.5958 25.012C22.8291 24.7973 22.9458 24.494 22.9458 24.102C22.9458 23.8407 22.8944 23.6213 22.7918 23.444C22.6891 23.2573 22.5398 23.1173 22.3438 23.024C22.1571 22.9213 21.9191 22.87 21.6298 22.87Z" fill="white"/>
<path d="M33.21 28.8089C32.8967 28.8089 32.6633 28.7422 32.51 28.6089C32.3567 28.4755 32.28 28.2689 32.28 27.9889C32.28 27.7022 32.3567 27.4922 32.51 27.3589C32.6633 27.2255 32.8967 27.1589 33.21 27.1589C33.53 27.1589 33.7667 27.2255 33.92 27.3589C34.08 27.4922 34.16 27.7022 34.16 27.9889C34.16 28.5355 33.8433 28.8089 33.21 28.8089ZM33.21 25.3289C32.8967 25.3289 32.6633 25.2622 32.51 25.1289C32.3567 24.9955 32.28 24.7889 32.28 24.5089C32.28 24.2222 32.3567 24.0122 32.51 23.8789C32.6633 23.7455 32.8967 23.6789 33.21 23.6789C33.53 23.6789 33.7667 23.7455 33.92 23.8789C34.08 24.0122 34.16 24.2222 34.16 24.5089C34.16 25.0555 33.8433 25.3289 33.21 25.3289Z" fill="white"/>
<path d="M51.5499 35.92H50.8139V40H49.7019V38.656L49.9179 38.88C49.7579 39.008 49.5579 39.1093 49.3179 39.184C49.0832 39.2533 48.8219 39.288 48.5339 39.288C48.1766 39.288 47.8672 39.232 47.6059 39.12C47.3446 39.008 47.1446 38.8507 47.0059 38.648C46.8672 38.4453 46.7979 38.2107 46.7979 37.944C46.7979 37.7627 46.8406 37.584 46.9259 37.408C47.0112 37.232 47.1526 37.0853 47.3499 36.968L47.4539 36.872C47.5872 36.792 47.7446 36.7333 47.9259 36.696C48.1072 36.6587 48.2886 36.64 48.4699 36.64C48.5659 36.64 48.6539 36.6427 48.7339 36.648C48.8192 36.6533 48.8992 36.6613 48.9739 36.672L48.9099 37.544C48.8512 37.5387 48.7952 37.536 48.7419 37.536C48.6886 37.5307 48.6326 37.528 48.5739 37.528C48.3446 37.528 48.1766 37.5653 48.0699 37.64C47.9632 37.7147 47.9099 37.8187 47.9099 37.952C47.9099 38.1013 47.9686 38.2133 48.0859 38.288C48.2032 38.3573 48.3686 38.392 48.5819 38.392C48.8272 38.392 49.0566 38.344 49.2699 38.248C49.4832 38.152 49.6619 38.0133 49.8059 37.832L49.7019 38.36V35.92H46.2539V35.024H51.5499V35.92ZM47.9259 37.416C47.6646 37.3947 47.4326 37.3387 47.2299 37.248C47.0326 37.1573 46.8752 37.0373 46.7579 36.888C46.6459 36.7333 46.5899 36.5547 46.5899 36.352C46.5899 36.1493 46.6379 35.9707 46.7339 35.816C46.8352 35.6613 46.9819 35.5307 47.1739 35.424L48.0699 35.776C47.9419 35.8453 47.8486 35.9227 47.7899 36.008C47.7366 36.0933 47.7099 36.1893 47.7099 36.296C47.7099 36.4293 47.7552 36.5387 47.8459 36.624C47.9366 36.704 48.0459 36.752 48.1739 36.768L47.9259 37.416ZM49.6414 33.84C49.6414 33.664 49.7027 33.5173 49.8254 33.4C49.9427 33.2773 50.0894 33.216 50.2654 33.216C50.4414 33.216 50.5881 33.2773 50.7054 33.4C50.8227 33.5173 50.8814 33.664 50.8814 33.84C50.8814 34.0213 50.8227 34.1733 50.7054 34.296C50.5881 34.4133 50.4414 34.472 50.2654 34.472C50.0894 34.472 49.9427 34.4133 49.8254 34.296C49.7027 34.1733 49.6414 34.0213 49.6414 33.84ZM55.8574 35.92H54.9374V37.408H54.0734C53.6627 37.408 53.3534 37.4747 53.1454 37.608C52.9427 37.7413 52.8414 37.9547 52.8414 38.248C52.8414 38.5093 52.9374 38.7093 53.1294 38.848C53.3214 38.9867 53.5667 39.056 53.8654 39.056C54.1054 39.056 54.3294 39.0187 54.5374 38.944C54.7507 38.864 54.9774 38.744 55.2174 38.584L55.6254 39.408C55.3907 39.6 55.1267 39.7467 54.8334 39.848C54.5454 39.9493 54.2094 40 53.8254 40C53.4147 40 53.0494 39.9307 52.7294 39.792C52.4147 39.648 52.1667 39.4427 51.9854 39.176C51.8094 38.9093 51.7214 38.5867 51.7214 38.208C51.7214 37.6427 51.9107 37.2267 52.2894 36.96C52.6681 36.6933 53.1987 36.56 53.8814 36.56H54.1294L53.8334 36.776V35.92H51.4414V35.024H55.8574V35.92ZM53.8704 35.08C53.7797 34.8027 53.6997 34.576 53.6304 34.4C53.5557 34.224 53.4837 34.088 53.4144 33.992C53.3397 33.896 53.2597 33.832 53.1744 33.8C53.0891 33.7627 52.9904 33.744 52.8784 33.744C52.7824 33.744 52.6837 33.7547 52.5824 33.776C52.4757 33.7973 52.3771 33.8267 52.2864 33.864L52.0064 32.992C52.1504 32.9387 52.3024 32.8987 52.4624 32.872C52.6171 32.8453 52.7717 32.832 52.9264 32.832C53.1717 32.832 53.3851 32.8667 53.5664 32.936C53.7424 33.0053 53.8997 33.1253 54.0384 33.296C54.1771 33.4613 54.3104 33.6907 54.4384 33.984C54.5611 34.272 54.6917 34.6373 54.8304 35.08H53.8704Z" fill="white"/>
<path d="M42.84 27V25.46C43.6333 24.9653 44.31 24.5033 44.87 24.074C45.43 23.6447 45.8827 23.2387 46.228 22.856C46.5827 22.4733 46.844 22.1093 47.012 21.764C47.18 21.4187 47.264 21.0827 47.264 20.756C47.264 20.4013 47.1567 20.1073 46.942 19.874C46.7367 19.6313 46.4287 19.51 46.018 19.51C45.5793 19.51 45.2387 19.6733 44.996 20C44.7533 20.3173 44.6227 20.784 44.604 21.4L42.546 20.77C42.5647 20.0793 42.728 19.5007 43.036 19.034C43.3533 18.5673 43.7827 18.2173 44.324 17.984C44.8653 17.7413 45.4813 17.62 46.172 17.62C46.7787 17.62 47.3013 17.7087 47.74 17.886C48.188 18.054 48.552 18.2827 48.832 18.572C49.112 18.852 49.3173 19.1693 49.448 19.524C49.588 19.8693 49.658 20.224 49.658 20.588C49.658 21.1853 49.504 21.7453 49.196 22.268C48.888 22.7813 48.44 23.2807 47.852 23.766C47.2733 24.242 46.5687 24.7227 45.738 25.208V25.222C45.8967 25.2127 46.0833 25.2033 46.298 25.194C46.5127 25.1847 46.7367 25.18 46.97 25.18C47.2033 25.1707 47.4133 25.166 47.6 25.166H49.77V27H42.84ZM54.8478 27.14C53.5878 27.14 52.6312 26.7387 51.9778 25.936C51.3338 25.1333 51.0118 23.948 51.0118 22.38C51.0118 20.812 51.3338 19.6267 51.9778 18.824C52.6312 18.0213 53.5878 17.62 54.8478 17.62C56.1078 17.62 57.0598 18.0213 57.7038 18.824C58.3572 19.6267 58.6838 20.812 58.6838 22.38C58.6838 23.948 58.3572 25.1333 57.7038 25.936C57.0598 26.7387 56.1078 27.14 54.8478 27.14ZM54.8478 25.264C55.1932 25.264 55.4732 25.1707 55.6878 24.984C55.9025 24.788 56.0565 24.48 56.1498 24.06C56.2525 23.6307 56.3038 23.0707 56.3038 22.38C56.3038 21.6893 56.2525 21.134 56.1498 20.714C56.0565 20.2847 55.9025 19.9767 55.6878 19.79C55.4732 19.594 55.1932 19.496 54.8478 19.496C54.5118 19.496 54.2318 19.594 54.0078 19.79C53.7932 19.9767 53.6345 20.2847 53.5318 20.714C53.4385 21.134 53.3918 21.6893 53.3918 22.38C53.3918 23.0707 53.4385 23.6307 53.5318 24.06C53.6345 24.48 53.7932 24.788 54.0078 24.984C54.2318 25.1707 54.5118 25.264 54.8478 25.264Z" fill="white"/>
<path d="M67.21 28.8089C66.8967 28.8089 66.6633 28.7422 66.51 28.6089C66.3567 28.4755 66.28 28.2689 66.28 27.9889C66.28 27.7022 66.3567 27.4922 66.51 27.3589C66.6633 27.2255 66.8967 27.1589 67.21 27.1589C67.53 27.1589 67.7667 27.2255 67.92 27.3589C68.08 27.4922 68.16 27.7022 68.16 27.9889C68.16 28.5355 67.8433 28.8089 67.21 28.8089ZM67.21 25.3289C66.8967 25.3289 66.6633 25.2622 66.51 25.1289C66.3567 24.9955 66.28 24.7889 66.28 24.5089C66.28 24.2222 66.3567 24.0122 66.51 23.8789C66.6633 23.7455 66.8967 23.6789 67.21 23.6789C67.53 23.6789 67.7667 23.7455 67.92 23.8789C68.08 24.0122 68.16 24.2222 68.16 24.5089C68.16 25.0555 67.8433 25.3289 67.21 25.3289Z" fill="white"/>
<path d="M77.2176 35.08C77.1482 34.9627 77.0896 34.8347 77.0416 34.696C76.9936 34.5573 76.9696 34.4 76.9696 34.224C76.9696 33.7813 77.1456 33.44 77.4976 33.2C77.8496 32.9547 78.3376 32.832 78.9616 32.832C79.5909 32.832 80.1722 32.936 80.7056 33.144C81.2442 33.3467 81.7242 33.6187 82.1456 33.96C82.5722 34.296 82.9269 34.6693 83.2096 35.08H82.0736C81.8122 34.792 81.5296 34.5493 81.2256 34.352C80.9216 34.1547 80.5989 34.0027 80.2576 33.896C79.9162 33.7893 79.5589 33.736 79.1856 33.736C78.8229 33.736 78.5482 33.8027 78.3616 33.936C78.1802 34.064 78.0896 34.2427 78.0896 34.472C78.0896 34.5947 78.1109 34.7067 78.1536 34.808C78.1962 34.9093 78.2469 35 78.3056 35.08H77.2176ZM78.3376 35.92V40H77.2176V35.92H76.6016V35.024H79.0736V35.92H78.3376ZM83.5451 35.92V40H82.4331V38.272H80.9691V38.392C80.9691 38.616 80.9185 38.7813 80.8171 38.888C80.7211 38.9893 80.5851 39.04 80.4091 39.04C80.2758 39.04 80.1371 39 79.9931 38.92C79.8545 38.84 79.7265 38.7413 79.6091 38.624C79.4918 38.5013 79.3958 38.3707 79.3211 38.232C79.2465 38.088 79.2091 37.9547 79.2091 37.832C79.2091 37.7093 79.2491 37.6027 79.3291 37.512C79.4091 37.4213 79.5691 37.376 79.8091 37.376H79.8491V35.92H78.9531V35.024H84.2811V35.92H83.5451ZM82.4331 35.92H80.9691V37.376H82.4331V35.92ZM84.1719 35.024H89.2119V35.92H88.4759V40H87.3559V37.912H86.1719V38.088C86.1719 38.3227 86.1239 38.496 86.0279 38.608C85.9319 38.72 85.7932 38.776 85.6119 38.776C85.4785 38.776 85.3425 38.7387 85.2039 38.664C85.0652 38.584 84.9345 38.4827 84.8119 38.36C84.6945 38.232 84.5985 38.096 84.5239 37.952C84.4545 37.8027 84.4199 37.664 84.4199 37.536C84.4199 37.3813 84.4625 37.256 84.5479 37.16C84.6332 37.064 84.7985 37.016 85.0439 37.016H87.3559V35.92H84.1719V35.024ZM93.5098 35.92H92.5898V37.408H91.7258C91.3151 37.408 91.0058 37.4747 90.7978 37.608C90.5951 37.7413 90.4938 37.9547 90.4938 38.248C90.4938 38.5093 90.5898 38.7093 90.7818 38.848C90.9738 38.9867 91.2191 39.056 91.5178 39.056C91.7578 39.056 91.9818 39.0187 92.1898 38.944C92.4031 38.864 92.6298 38.744 92.8698 38.584L93.2778 39.408C93.0431 39.6 92.7791 39.7467 92.4858 39.848C92.1978 39.9493 91.8618 40 91.4778 40C91.0671 40 90.7018 39.9307 90.3818 39.792C90.0671 39.648 89.8191 39.4427 89.6378 39.176C89.4618 38.9093 89.3738 38.5867 89.3738 38.208C89.3738 37.6427 89.5631 37.2267 89.9418 36.96C90.3204 36.6933 90.8511 36.56 91.5338 36.56H91.7818L91.4858 36.776V35.92H89.0938V35.024H93.5098V35.92Z" fill="white"/>
<path d="M76.84 27V25.46C77.6333 24.9653 78.31 24.5033 78.87 24.074C79.43 23.6447 79.8827 23.2387 80.228 22.856C80.5827 22.4733 80.844 22.1093 81.012 21.764C81.18 21.4187 81.264 21.0827 81.264 20.756C81.264 20.4013 81.1567 20.1073 80.942 19.874C80.7367 19.6313 80.4287 19.51 80.018 19.51C79.5793 19.51 79.2387 19.6733 78.996 20C78.7533 20.3173 78.6227 20.784 78.604 21.4L76.546 20.77C76.5647 20.0793 76.728 19.5007 77.036 19.034C77.3533 18.5673 77.7827 18.2173 78.324 17.984C78.8653 17.7413 79.4813 17.62 80.172 17.62C80.7787 17.62 81.3013 17.7087 81.74 17.886C82.188 18.054 82.552 18.2827 82.832 18.572C83.112 18.852 83.3173 19.1693 83.448 19.524C83.588 19.8693 83.658 20.224 83.658 20.588C83.658 21.1853 83.504 21.7453 83.196 22.268C82.888 22.7813 82.44 23.2807 81.852 23.766C81.2733 24.242 80.5687 24.7227 79.738 25.208V25.222C79.8967 25.2127 80.0833 25.2033 80.298 25.194C80.5127 25.1847 80.7367 25.18 80.97 25.18C81.2033 25.1707 81.4133 25.166 81.6 25.166H83.77V27H76.84ZM88.8478 27.14C87.5878 27.14 86.6312 26.7387 85.9778 25.936C85.3338 25.1333 85.0118 23.948 85.0118 22.38C85.0118 20.812 85.3338 19.6267 85.9778 18.824C86.6312 18.0213 87.5878 17.62 88.8478 17.62C90.1078 17.62 91.0598 18.0213 91.7038 18.824C92.3572 19.6267 92.6838 20.812 92.6838 22.38C92.6838 23.948 92.3572 25.1333 91.7038 25.936C91.0598 26.7387 90.1078 27.14 88.8478 27.14ZM88.8478 25.264C89.1932 25.264 89.4732 25.1707 89.6878 24.984C89.9025 24.788 90.0565 24.48 90.1498 24.06C90.2525 23.6307 90.3038 23.0707 90.3038 22.38C90.3038 21.6893 90.2525 21.134 90.1498 20.714C90.0565 20.2847 89.9025 19.9767 89.6878 19.79C89.4732 19.594 89.1932 19.496 88.8478 19.496C88.5118 19.496 88.2318 19.594 88.0078 19.79C87.7932 19.9767 87.6345 20.2847 87.5318 20.714C87.4385 21.134 87.3918 21.6893 87.3918 22.38C87.3918 23.0707 87.4385 23.6307 87.5318 24.06C87.6345 24.48 87.7932 24.788 88.0078 24.984C88.2318 25.1707 88.5118 25.264 88.8478 25.264Z" fill="white"/>
<path d="M101.21 28.8089C100.897 28.8089 100.663 28.7422 100.51 28.6089C100.357 28.4755 100.28 28.2689 100.28 27.9889C100.28 27.7022 100.357 27.4922 100.51 27.3589C100.663 27.2255 100.897 27.1589 101.21 27.1589C101.53 27.1589 101.767 27.2255 101.92 27.3589C102.08 27.4922 102.16 27.7022 102.16 27.9889C102.16 28.5355 101.843 28.8089 101.21 28.8089ZM101.21 25.3289C100.897 25.3289 100.663 25.2622 100.51 25.1289C100.357 24.9955 100.28 24.7889 100.28 24.5089C100.28 24.2222 100.357 24.0122 100.51 23.8789C100.663 23.7455 100.897 23.6789 101.21 23.6789C101.53 23.6789 101.767 23.7455 101.92 23.8789C102.08 24.0122 102.16 24.2222 102.16 24.5089C102.16 25.0555 101.843 25.3289 101.21 25.3289Z" fill="white"/>
<path d="M112.661 40.184C112.224 39.7467 111.861 39.3547 111.573 39.008C111.291 38.6613 111.083 38.3707 110.949 38.136C110.864 37.9867 110.803 37.8533 110.765 37.736C110.728 37.6133 110.709 37.5013 110.709 37.4C110.709 37.2293 110.76 37.0933 110.861 36.992C110.963 36.8853 111.112 36.832 111.309 36.832C111.512 36.832 111.691 36.896 111.845 37.024C112.005 37.1467 112.163 37.296 112.317 37.472L111.661 37.368C111.853 37.256 111.987 37.1253 112.061 36.976C112.141 36.8267 112.181 36.6507 112.181 36.448C112.181 36.288 112.16 36.1387 112.117 36C112.075 35.8613 112.016 35.7467 111.941 35.656L112.501 35.92H110.445V35.024H114.053V35.92H112.909L113.093 35.672C113.157 35.8053 113.205 35.944 113.237 36.088C113.275 36.2267 113.293 36.3867 113.293 36.568C113.293 36.7813 113.256 36.9707 113.181 37.136C113.112 37.3013 113.019 37.4453 112.901 37.568L112.797 37.688C112.696 37.7893 112.581 37.8827 112.453 37.968C112.331 38.048 112.187 38.12 112.021 38.184V38.048C112.155 38.2027 112.299 38.3627 112.453 38.528C112.608 38.688 112.773 38.8507 112.949 39.016C113.125 39.1813 113.304 39.3467 113.485 39.512L112.661 40.184ZM113.893 38.256C113.664 38.256 113.424 38.2293 113.173 38.176C112.923 38.1173 112.677 38.0213 112.437 37.888L112.733 37.144C112.952 37.224 113.147 37.28 113.317 37.312C113.488 37.3387 113.68 37.352 113.893 37.352C114.101 37.352 114.304 37.336 114.501 37.304C114.699 37.2667 114.899 37.2053 115.101 37.12V38.056C114.931 38.12 114.744 38.1707 114.541 38.208C114.344 38.24 114.128 38.256 113.893 38.256ZM114.613 40V35.92H113.789V35.024H116.469V35.92H115.733V40H114.613ZM114.656 35.08C114.565 34.8027 114.485 34.576 114.416 34.4C114.341 34.224 114.269 34.088 114.2 33.992C114.125 33.896 114.045 33.832 113.96 33.8C113.874 33.7627 113.776 33.744 113.664 33.744C113.568 33.744 113.469 33.7547 113.368 33.776C113.261 33.7973 113.162 33.8267 113.072 33.864L112.792 32.992C112.936 32.9387 113.088 32.8987 113.248 32.872C113.402 32.8453 113.557 32.832 113.712 32.832C113.957 32.832 114.17 32.8667 114.352 32.936C114.528 33.0053 114.685 33.1253 114.824 33.296C114.962 33.4613 115.096 33.6907 115.224 33.984C115.346 34.272 115.477 34.6373 115.616 35.08H114.656ZM123.112 35.92H120.504V37.36L120.392 37.128C120.52 37.0267 120.661 36.9467 120.816 36.888C120.976 36.8293 121.16 36.8 121.368 36.8C121.784 36.8 122.114 36.9227 122.36 37.168C122.605 37.408 122.728 37.744 122.728 38.176C122.728 38.432 122.68 38.6907 122.584 38.952C122.488 39.2133 122.328 39.4853 122.104 39.768L121.136 39.232C121.28 39.0613 121.394 38.8933 121.48 38.728C121.57 38.5573 121.616 38.3787 121.616 38.192C121.616 38.0213 121.576 37.896 121.496 37.816C121.416 37.7307 121.304 37.688 121.16 37.688C121.016 37.688 120.88 37.7333 120.752 37.824C120.629 37.9093 120.536 38.016 120.472 38.144L120.504 37.928V40H119.384V38.488L119.696 38.752C119.573 38.864 119.44 38.96 119.296 39.04C119.152 39.1147 118.994 39.1733 118.824 39.216C118.658 39.2533 118.482 39.272 118.296 39.272C117.965 39.272 117.674 39.216 117.424 39.104C117.178 38.992 116.984 38.8293 116.84 38.616C116.701 38.3973 116.632 38.1333 116.632 37.824C116.632 37.3707 116.781 37.0213 117.08 36.776C117.384 36.5307 117.81 36.408 118.36 36.408C118.498 36.408 118.634 36.4133 118.768 36.424C118.901 36.4347 119.026 36.4533 119.144 36.48L119.048 37.368C118.968 37.3467 118.88 37.3307 118.784 37.32C118.693 37.3093 118.597 37.304 118.496 37.304C118.261 37.304 118.077 37.352 117.944 37.448C117.816 37.544 117.752 37.68 117.752 37.856C117.752 38.0267 117.81 38.1573 117.928 38.248C118.045 38.3333 118.197 38.376 118.384 38.376C118.634 38.376 118.858 38.304 119.056 38.16C119.253 38.016 119.402 37.8587 119.504 37.688L119.384 38.376V35.92H116.352V35.024H123.112V35.92ZM119.302 33.84C119.302 33.664 119.363 33.5173 119.486 33.4C119.603 33.2773 119.75 33.216 119.926 33.216C120.102 33.216 120.248 33.2773 120.366 33.4C120.483 33.5173 120.542 33.664 120.542 33.84C120.542 34.0213 120.483 34.1733 120.366 34.296C120.248 34.4133 120.102 34.472 119.926 34.472C119.75 34.472 119.603 34.4133 119.486 34.296C119.363 34.1733 119.302 34.0213 119.302 33.84ZM125.528 38.456C125.395 38.456 125.254 38.4667 125.104 38.488C124.96 38.5093 124.819 38.5387 124.68 38.576C124.408 38.4267 124.176 38.2507 123.984 38.048C123.792 37.84 123.696 37.6053 123.696 37.344C123.696 37.0293 123.806 36.792 124.024 36.632C124.243 36.4667 124.576 36.384 125.024 36.384H125.808V35.92H122.904V35.024H127.656V35.92H126.912V37.144H125.208C125.059 37.144 124.952 37.168 124.888 37.216C124.824 37.264 124.792 37.336 124.792 37.432C124.792 37.4907 124.808 37.5467 124.84 37.6C124.878 37.6533 124.923 37.6987 124.976 37.736C125.094 37.7093 125.224 37.688 125.368 37.672C125.518 37.6507 125.675 37.64 125.84 37.64C126.336 37.64 126.699 37.744 126.928 37.952C127.158 38.16 127.272 38.4373 127.272 38.784C127.272 39.0187 127.214 39.232 127.096 39.424C126.984 39.616 126.798 39.768 126.536 39.88C126.275 39.9867 125.928 40.04 125.496 40.04C125.016 40.04 124.579 39.968 124.184 39.824C123.79 39.6747 123.416 39.4613 123.064 39.184L123.552 38.384C123.856 38.6453 124.16 38.8453 124.464 38.984C124.768 39.1173 125.083 39.184 125.408 39.184C125.664 39.184 125.848 39.152 125.96 39.088C126.078 39.0187 126.136 38.9227 126.136 38.8C126.136 38.688 126.091 38.6027 126 38.544C125.915 38.4853 125.758 38.456 125.528 38.456Z" fill="white"/>
<path d="M110.84 27V25.46C111.633 24.9653 112.31 24.5033 112.87 24.074C113.43 23.6447 113.883 23.2387 114.228 22.856C114.583 22.4733 114.844 22.1093 115.012 21.764C115.18 21.4187 115.264 21.0827 115.264 20.756C115.264 20.4013 115.157 20.1073 114.942 19.874C114.737 19.6313 114.429 19.51 114.018 19.51C113.579 19.51 113.239 19.6733 112.996 20C112.753 20.3173 112.623 20.784 112.604 21.4L110.546 20.77C110.565 20.0793 110.728 19.5007 111.036 19.034C111.353 18.5673 111.783 18.2173 112.324 17.984C112.865 17.7413 113.481 17.62 114.172 17.62C114.779 17.62 115.301 17.7087 115.74 17.886C116.188 18.054 116.552 18.2827 116.832 18.572C117.112 18.852 117.317 19.1693 117.448 19.524C117.588 19.8693 117.658 20.224 117.658 20.588C117.658 21.1853 117.504 21.7453 117.196 22.268C116.888 22.7813 116.44 23.2807 115.852 23.766C115.273 24.242 114.569 24.7227 113.738 25.208V25.222C113.897 25.2127 114.083 25.2033 114.298 25.194C114.513 25.1847 114.737 25.18 114.97 25.18C115.203 25.1707 115.413 25.166 115.6 25.166H117.77V27H110.84ZM122.848 27.14C121.588 27.14 120.631 26.7387 119.978 25.936C119.334 25.1333 119.012 23.948 119.012 22.38C119.012 20.812 119.334 19.6267 119.978 18.824C120.631 18.0213 121.588 17.62 122.848 17.62C124.108 17.62 125.06 18.0213 125.704 18.824C126.357 19.6267 126.684 20.812 126.684 22.38C126.684 23.948 126.357 25.1333 125.704 25.936C125.06 26.7387 124.108 27.14 122.848 27.14ZM122.848 25.264C123.193 25.264 123.473 25.1707 123.688 24.984C123.903 24.788 124.057 24.48 124.15 24.06C124.253 23.6307 124.304 23.0707 124.304 22.38C124.304 21.6893 124.253 21.134 124.15 20.714C124.057 20.2847 123.903 19.9767 123.688 19.79C123.473 19.594 123.193 19.496 122.848 19.496C122.512 19.496 122.232 19.594 122.008 19.79C121.793 19.9767 121.635 20.2847 121.532 20.714C121.439 21.134 121.392 21.6893 121.392 22.38C121.392 23.0707 121.439 23.6307 121.532 24.06C121.635 24.48 121.793 24.788 122.008 24.984C122.232 25.1707 122.512 25.264 122.848 25.264Z" fill="white"/>
<g filter="url(#filter1_i_24299_6993)">
<rect x="39" width="58" height="13" rx="6.5" fill="#AC6C16"/>
<path d="M49.4658 4.688L49.5618 4.56C49.6205 4.66667 49.6658 4.78933 49.6978 4.928C49.7298 5.06667 49.7458 5.224 49.7458 5.4C49.7458 5.832 49.6445 6.18133 49.4418 6.448C49.2445 6.71467 48.9538 6.936 48.5698 7.112L48.6018 7.04C48.7778 7.30133 48.9858 7.52533 49.2258 7.712C49.4658 7.89867 49.7378 8.04267 50.0418 8.144C50.3511 8.24 50.6845 8.288 51.0418 8.288C51.3671 8.288 51.6685 8.25333 51.9458 8.184C52.2231 8.10933 52.4845 7.99467 52.7298 7.84L52.8338 8.424C52.6045 8.60533 52.3431 8.73867 52.0498 8.824C51.7565 8.90933 51.4125 8.952 51.0178 8.952C50.5805 8.952 50.1831 8.89333 49.8258 8.776C49.4738 8.65867 49.1591 8.50133 48.8818 8.304C48.6098 8.10133 48.3751 7.88 48.1778 7.64C47.9805 7.38933 47.8285 7.15467 47.7218 6.936C47.6205 6.712 47.5698 6.504 47.5698 6.312C47.5698 6.16267 47.6125 6.048 47.6978 5.968C47.7885 5.88267 47.9058 5.84 48.0498 5.84C48.1991 5.84 48.3351 5.88533 48.4578 5.976C48.5805 6.06133 48.7138 6.192 48.8578 6.368L48.4498 6.36C48.5885 6.30667 48.6925 6.22933 48.7618 6.128C48.8365 6.02133 48.8871 5.90133 48.9138 5.768C48.9458 5.63467 48.9618 5.504 48.9618 5.376C48.9618 5.216 48.9458 5.064 48.9138 4.92C48.8871 4.77067 48.8391 4.64267 48.7698 4.536L49.0498 4.688H47.2578V4.024H51.1778V4.688H49.4658ZM53.2578 4.688V9H52.4658V4.688H50.8978V4.024H54.0498V4.688H53.2578ZM52.6818 7.336C52.5431 7.432 52.3858 7.50933 52.2098 7.568C52.0391 7.62667 51.8338 7.656 51.5938 7.656C51.3058 7.656 51.0525 7.608 50.8338 7.512C50.6205 7.41067 50.4525 7.26667 50.3298 7.08C50.2125 6.89333 50.1538 6.67467 50.1538 6.424C50.1538 6.04533 50.2791 5.752 50.5298 5.544C50.7805 5.336 51.1298 5.232 51.5778 5.232C51.6951 5.232 51.8071 5.24 51.9138 5.256C52.0258 5.26667 52.1271 5.28267 52.2178 5.304L52.1698 5.912C52.0845 5.89067 51.9991 5.87733 51.9138 5.872C51.8338 5.86133 51.7485 5.856 51.6578 5.856C51.4178 5.856 51.2338 5.90667 51.1058 6.008C50.9778 6.104 50.9138 6.25333 50.9138 6.456C50.9138 6.65867 50.9805 6.808 51.1138 6.904C51.2525 6.99467 51.4231 7.04 51.6258 7.04C51.8551 7.04 52.0578 6.98933 52.2338 6.888C52.4098 6.78667 52.5431 6.66133 52.6338 6.512L52.6818 7.336ZM52.4815 4.08C52.3748 3.744 52.2842 3.47467 52.2095 3.272C52.1295 3.064 52.0522 2.90667 51.9775 2.8C51.8975 2.688 51.8122 2.61333 51.7215 2.576C51.6308 2.53333 51.5188 2.512 51.3855 2.512C51.2788 2.512 51.1695 2.52533 51.0575 2.552C50.9402 2.57333 50.8362 2.60267 50.7455 2.64L50.5375 1.984C50.6602 1.936 50.7962 1.89867 50.9455 1.872C51.0895 1.84533 51.2308 1.832 51.3695 1.832C51.6095 1.832 51.8148 1.86667 51.9855 1.936C52.1508 2 52.3002 2.11733 52.4335 2.288C52.5615 2.45333 52.6842 2.68267 52.8015 2.976C52.9188 3.264 53.0468 3.632 53.1855 4.08H52.4815ZM53.9375 4.688V4.024H59.6175V4.688H58.8175V9H58.0335V6.008L58.4335 6.328C58.3482 6.29067 58.2655 6.26667 58.1855 6.256C58.1108 6.24533 58.0362 6.24 57.9615 6.24C57.7908 6.24 57.6388 6.28 57.5055 6.36C57.3722 6.44 57.2602 6.57333 57.1695 6.76C57.0788 6.94133 57.0068 7.18667 56.9535 7.496L56.1855 7.288C56.2602 6.728 56.4468 6.304 56.7455 6.016C57.0495 5.728 57.4495 5.584 57.9455 5.584C58.0522 5.584 58.1562 5.592 58.2575 5.608C58.3642 5.624 58.4522 5.64267 58.5215 5.664L58.5375 5.84L58.0335 5.688V4.688H53.9375ZM56.6095 6.656C56.5188 6.53333 56.4068 6.43467 56.2735 6.36C56.1455 6.28 55.9908 6.24 55.8095 6.24C55.5748 6.24 55.3908 6.30933 55.2575 6.448C55.1242 6.58667 55.0575 6.77333 55.0575 7.008C55.0575 7.29067 55.1642 7.552 55.3775 7.792C55.5962 8.02667 55.9455 8.27733 56.4255 8.544L55.9855 9.136C55.4522 8.83733 55.0335 8.512 54.7295 8.16C54.4255 7.80267 54.2735 7.39467 54.2735 6.936C54.2735 6.48267 54.4068 6.14133 54.6735 5.912C54.9455 5.68267 55.2895 5.568 55.7055 5.568C55.9775 5.568 56.2122 5.61867 56.4095 5.72C56.6122 5.816 56.7908 5.94667 56.9455 6.112L56.6095 6.656ZM66.444 4.688V9H65.652V4.688H64.988V4.024H67.236V4.688H66.444ZM62.564 7.68C62.3133 7.68 62.108 7.62133 61.948 7.504C61.7933 7.38667 61.716 7.22667 61.716 7.024C61.716 6.85867 61.7693 6.73067 61.876 6.64C61.9827 6.54933 62.1213 6.504 62.292 6.504C62.452 6.504 62.5933 6.54133 62.716 6.616C62.844 6.68533 62.9773 6.80533 63.116 6.976L63.204 7.136C63.4653 7.36 63.7107 7.60267 63.94 7.864C64.1693 8.12533 64.3827 8.38933 64.58 8.656L63.924 9.08C63.6467 8.69067 63.396 8.35467 63.172 8.072C62.948 7.78933 62.74 7.552 62.548 7.36L62.508 6.96C62.8067 6.93333 63.068 6.856 63.292 6.728C63.516 6.59467 63.692 6.41867 63.82 6.2C63.9533 5.976 64.02 5.71467 64.02 5.416C64.02 5.13867 63.9587 4.928 63.836 4.784C63.7187 4.63467 63.548 4.56 63.324 4.56C63.1587 4.56 63.0307 4.60267 62.94 4.688C62.8493 4.768 62.804 4.872 62.804 5C62.804 5.17067 62.876 5.296 63.02 5.376C63.164 5.456 63.3613 5.50933 63.612 5.536L63.46 6.096C63.028 6.05867 62.6893 5.94667 62.444 5.76C62.204 5.568 62.084 5.304 62.084 4.968C62.084 4.65867 62.188 4.41067 62.396 4.224C62.6093 4.03733 62.9107 3.944 63.3 3.944C63.6093 3.944 63.8733 4.008 64.092 4.136C64.316 4.25867 64.4867 4.43467 64.604 4.664C64.7213 4.888 64.78 5.15733 64.78 5.472C64.78 5.81867 64.716 6.128 64.588 6.4C64.46 6.66667 64.276 6.89333 64.036 7.08C63.8013 7.26667 63.5267 7.41333 63.212 7.52L63.1 7.584C62.9933 7.61067 62.9 7.63467 62.82 7.656C62.74 7.672 62.6547 7.68 62.564 7.68ZM65.773 11.144C65.453 11.144 65.157 11.0933 64.885 10.992C64.6077 10.8907 64.349 10.744 64.109 10.552C63.8637 10.3653 63.6263 10.144 63.397 9.888L63.925 9.408C64.1437 9.664 64.349 9.872 64.541 10.032C64.733 10.192 64.9277 10.3093 65.125 10.384C65.317 10.4587 65.5223 10.496 65.741 10.496C66.0023 10.496 66.1997 10.448 66.333 10.352C66.461 10.256 66.525 10.1253 66.525 9.96C66.525 9.82133 66.485 9.70667 66.405 9.616C66.3197 9.53067 66.1917 9.488 66.021 9.488C65.877 9.488 65.741 9.51733 65.613 9.576C65.485 9.64 65.3623 9.72533 65.245 9.832L64.869 9.312C65.0237 9.168 65.1943 9.05867 65.381 8.984C65.5677 8.90933 65.789 8.872 66.045 8.872C66.429 8.872 66.725 8.97867 66.933 9.192C67.1357 9.40533 67.237 9.68 67.237 10.016C67.237 10.3627 67.1143 10.6373 66.869 10.84C66.6183 11.0427 66.253 11.144 65.773 11.144ZM70.461 6.848C70.3117 6.70933 70.1517 6.6 69.981 6.52C69.8157 6.44 69.605 6.4 69.349 6.4L69.325 5.776C69.5757 5.78133 69.7943 5.81067 69.981 5.864C70.1677 5.912 70.3357 5.984 70.485 6.08L70.461 6.848ZM71.261 7.768C70.893 7.768 70.6023 7.664 70.389 7.456C70.181 7.248 70.077 6.976 70.077 6.64C70.077 6.29333 70.1863 6.01333 70.405 5.8C70.6237 5.58667 70.9357 5.48 71.341 5.48C71.677 5.48 71.965 5.56 72.205 5.72C72.445 5.87467 72.6583 6.11467 72.845 6.44C73.0317 6.76 73.2077 7.17067 73.373 7.672L72.717 7.912C72.5677 7.45867 72.4237 7.10133 72.285 6.84C72.1517 6.57867 72.0103 6.392 71.861 6.28C71.7117 6.16267 71.5437 6.104 71.357 6.104C71.1757 6.104 71.029 6.152 70.917 6.248C70.8103 6.33867 70.757 6.46667 70.757 6.632C70.757 6.81867 70.813 6.952 70.925 7.032C71.037 7.10667 71.1703 7.144 71.325 7.144C71.4157 7.144 71.501 7.13333 71.581 7.112C71.661 7.08533 71.741 7.05067 71.821 7.008L72.029 7.568C71.8157 7.70133 71.5597 7.768 71.261 7.768ZM70.445 4.024H73.613V4.688H70.445V4.024ZM69.541 4.688L69.757 4.536C69.8157 4.664 69.8583 4.79733 69.885 4.936C69.9117 5.07467 69.925 5.232 69.925 5.408C69.925 5.696 69.8663 5.94667 69.749 6.16C69.6317 6.368 69.4637 6.54933 69.245 6.704C69.0317 6.85333 68.781 6.984 68.493 7.096L68.501 6.976C68.6557 7.14667 68.8237 7.32533 69.005 7.512C69.1917 7.69867 69.3863 7.88267 69.589 8.064C69.797 8.24533 70.0077 8.42667 70.221 8.608L69.669 9.12C69.2423 8.74667 68.8743 8.4 68.565 8.08C68.261 7.76 68.0077 7.456 67.805 7.168C67.6717 6.98667 67.5757 6.82667 67.517 6.688C67.4637 6.54933 67.437 6.41867 67.437 6.296C67.437 6.15733 67.4797 6.048 67.565 5.968C67.6503 5.88267 67.7677 5.84 67.917 5.84C68.0717 5.84 68.2183 5.89333 68.357 6C68.501 6.10133 68.645 6.24267 68.789 6.424L68.333 6.32C68.621 6.21867 68.829 6.08533 68.957 5.92C69.085 5.74933 69.149 5.544 69.149 5.304C69.149 5.15467 69.1277 5.008 69.085 4.864C69.0477 4.71467 68.997 4.60533 68.933 4.536L69.309 4.688H67.125V4.024H70.597V4.688H69.541ZM76.6444 7.248C76.4417 7.09867 76.2844 6.94133 76.1724 6.776C76.0604 6.61067 76.0044 6.42933 76.0044 6.232C76.0044 5.93333 76.111 5.70667 76.3244 5.552C76.5377 5.392 76.8577 5.312 77.2844 5.312H78.3484V4.688H75.4844V4.024H79.9324V4.688H79.1324V5.968H77.3884C77.175 5.968 77.0177 6 76.9164 6.064C76.8204 6.128 76.7724 6.224 76.7724 6.352C76.7724 6.448 76.8044 6.54133 76.8684 6.632C76.9377 6.71733 77.0257 6.79467 77.1324 6.864L76.6444 7.248ZM78.1804 8.52C78.3457 8.44 78.471 8.34667 78.5564 8.24C78.647 8.13333 78.6924 8.02133 78.6924 7.904C78.6924 7.744 78.6257 7.61067 78.4924 7.504C78.3644 7.39733 78.1484 7.344 77.8444 7.344C77.503 7.344 77.239 7.416 77.0524 7.56C76.871 7.69867 76.7804 7.89067 76.7804 8.136C76.7804 8.33333 76.8497 8.512 76.9884 8.672C77.1324 8.82667 77.3404 8.97333 77.6124 9.112C77.8844 9.25067 78.2204 9.39467 78.6204 9.544L78.2604 10.184C77.807 10.0187 77.4097 9.84 77.0684 9.648C76.7324 9.456 76.471 9.23733 76.2844 8.992C76.0977 8.74133 76.0044 8.45333 76.0044 8.128C76.0044 7.79733 76.087 7.528 76.2524 7.32C76.4177 7.10667 76.6417 6.94933 76.9244 6.848C77.207 6.74133 77.5244 6.688 77.8764 6.688C78.2497 6.688 78.5537 6.744 78.7884 6.856C79.023 6.968 79.1937 7.11467 79.3004 7.296C79.407 7.47733 79.4604 7.67733 79.4604 7.896C79.4604 8.11467 79.4097 8.31467 79.3084 8.496C79.207 8.67733 79.0284 8.84533 78.7724 9L78.1804 8.52ZM81.2845 4.688V9H80.5005V4.688H79.8125V4.024H82.0845V4.688H81.2845ZM80.5085 4.08C80.4018 3.744 80.3085 3.47467 80.2285 3.272C80.1538 3.064 80.0765 2.90667 79.9965 2.8C79.9218 2.688 79.8392 2.61333 79.7485 2.576C79.6578 2.53333 79.5458 2.512 79.4125 2.512C79.3058 2.512 79.1965 2.52533 79.0845 2.552C78.9672 2.57333 78.8632 2.60267 78.7725 2.64L78.5645 1.984C78.6872 1.936 78.8232 1.89867 78.9725 1.872C79.1165 1.84533 79.2578 1.832 79.3965 1.832C79.6365 1.832 79.8392 1.86667 80.0045 1.936C80.1752 2 80.3245 2.11733 80.4525 2.288C80.5858 2.45333 80.7112 2.68267 80.8285 2.976C80.9458 3.264 81.0738 3.632 81.2125 4.08H80.5085ZM83.7289 4.688V7.136C83.7289 7.30133 83.6916 7.42933 83.6169 7.52C83.5423 7.61067 83.4356 7.656 83.2969 7.656C83.1849 7.656 83.0676 7.62133 82.9449 7.552C82.8276 7.48267 82.7156 7.392 82.6089 7.28C82.5076 7.168 82.4249 7.048 82.3609 6.92C82.2969 6.792 82.2649 6.66933 82.2649 6.552C82.2649 6.424 82.3023 6.32 82.3769 6.24C82.4569 6.15467 82.5983 6.112 82.8009 6.112L82.9449 6.12V4.688H81.9609V4.024H86.7049V4.688H85.9049V9H85.1209V4.688H83.7289ZM88.0658 4.688V9H87.2818V4.688H86.5938V4.024H88.8658V4.688H88.0658Z" fill="white"/>
</g>
<defs>
<filter id="filter1_i_24299_6993" x="39" y="0" width="58" height="17" filterUnits="userSpaceOnUse" color-interpolation-filters="sRGB">
<feFlood flood-opacity="0" result="BackgroundImageFix"/>
<feBlend mode="normal" in="SourceGraphic" in2="BackgroundImageFix" result="shape"/>
<feColorMatrix in="SourceAlpha" type="matrix" values="0 0 0 0 0 0 0 0 0 0 0 0 0 0 0 0 0 0 127 0" result="hardAlpha"/>
<feOffset dy="4"/>
<feGaussianBlur stdDeviation="2"/>
<feComposite in2="hardAlpha" operator="arithmetic" k2="-1" k3="1"/>
<feColorMatrix type="matrix" values="0 0 0 0 0 0 0 0 0 0 0 0 0 0 0 0 0 0 0.25 0"/>
<feBlend mode="normal" in2="shape" result="effect1_innerShadow_24299_6993"/>
</filter>
</defs>
</svg>
