<svg width="213" height="54" viewBox="0 0 213 54" fill="none" xmlns="http://www.w3.org/2000/svg">
<rect x="213" width="54" height="213" rx="27" transform="rotate(90 213 0)" fill="black" fill-opacity="0.1"/>
<foreignObject x="-8" y="-8" width="123" height="70"><div xmlns="http://www.w3.org/1999/xhtml" style="backdrop-filter:blur(9px);clip-path:url(#bgblur_0_24239_49013_clip_path);height:100%;width:100%"></div></foreignObject><g data-figma-bg-blur-radius="18">
<rect x="10" y="10" width="87" height="34" rx="17" fill="white" fill-opacity="0.4"/>
<path d="M39.456 21.94C41.1093 21.94 42.3893 22.3987 43.296 23.316C44.2027 24.2227 44.656 25.524 44.656 27.22C44.656 28.9053 44.2027 30.2067 43.296 31.124C42.3893 32.0413 41.1093 32.5 39.456 32.5H35.376V21.94H39.456ZM39.344 30.74C40.3467 30.74 41.0987 30.4413 41.6 29.844C42.112 29.236 42.368 28.3613 42.368 27.22C42.368 26.0787 42.112 25.2093 41.6 24.612C41.0987 24.004 40.3467 23.7 39.344 23.7H37.584V30.74H39.344ZM51.1495 27.396C51.1495 26.9373 51.0162 26.58 50.7495 26.324C50.4935 26.068 50.1522 25.94 49.7255 25.94C49.3308 25.94 48.9842 26.0413 48.6855 26.244C48.3868 26.4467 48.1682 26.7827 48.0295 27.252L46.1575 26.676C46.3388 25.972 46.7335 25.4067 47.3415 24.98C47.9602 24.5533 48.7868 24.34 49.8215 24.34C50.5255 24.34 51.1388 24.452 51.6615 24.676C52.1842 24.8893 52.5895 25.2147 52.8775 25.652C53.1762 26.0893 53.3255 26.6387 53.3255 27.3V30.548C53.3255 30.9533 53.5175 31.156 53.9015 31.156C54.0828 31.156 54.2535 31.1293 54.4135 31.076L54.2855 32.436C54.0082 32.5747 53.6615 32.644 53.2455 32.644C52.8722 32.644 52.5362 32.58 52.2375 32.452C51.9388 32.324 51.7042 32.132 51.5335 31.876C51.3628 31.6093 51.2775 31.2787 51.2775 30.884V30.82L51.6615 30.756C51.5975 31.1613 51.4215 31.508 51.1335 31.796C50.8455 32.0733 50.4935 32.2867 50.0775 32.436C49.6722 32.5853 49.2508 32.66 48.8135 32.66C48.2695 32.66 47.8002 32.58 47.4055 32.42C47.0108 32.2493 46.7068 32.004 46.4935 31.684C46.2802 31.364 46.1735 30.9693 46.1735 30.5C46.1735 29.9027 46.3655 29.4173 46.7495 29.044C47.1335 28.66 47.6828 28.3987 48.3975 28.26L51.4055 27.652L51.3895 29.012L49.4695 29.396C49.1068 29.4707 48.8295 29.572 48.6375 29.7C48.4562 29.8173 48.3655 30.0147 48.3655 30.292C48.3655 30.5587 48.4615 30.7613 48.6535 30.9C48.8562 31.0387 49.0962 31.108 49.3735 31.108C49.5975 31.108 49.8162 31.0813 50.0295 31.028C50.2428 30.9747 50.4348 30.8893 50.6055 30.772C50.7762 30.6547 50.9095 30.4947 51.0055 30.292C51.1015 30.0893 51.1495 29.844 51.1495 29.556V27.396ZM56.881 23.348C56.4223 23.348 56.081 23.252 55.857 23.06C55.633 22.8573 55.521 22.564 55.521 22.18C55.521 21.7853 55.633 21.492 55.857 21.3C56.081 21.0973 56.4223 20.996 56.881 20.996C57.3397 20.996 57.681 21.0973 57.905 21.3C58.129 21.492 58.241 21.7853 58.241 22.18C58.241 22.564 58.129 22.8573 57.905 23.06C57.681 23.252 57.3397 23.348 56.881 23.348ZM57.969 24.5V32.5H55.777V24.5H57.969ZM62.4526 20.996V30.036C62.4526 30.4093 62.5166 30.6707 62.6446 30.82C62.7726 30.9693 62.986 31.044 63.2846 31.044C63.466 31.044 63.6153 31.0333 63.7326 31.012C63.85 30.98 63.9993 30.9373 64.1806 30.884L63.9886 32.324C63.8073 32.4307 63.578 32.5107 63.3006 32.564C63.034 32.628 62.7673 32.66 62.5006 32.66C61.722 32.66 61.1513 32.4733 60.7886 32.1C60.4366 31.716 60.2606 31.108 60.2606 30.276V20.996H62.4526ZM72.5939 24.5L69.3619 32.996C69.1059 33.7213 68.8179 34.2973 68.4979 34.724C68.1885 35.1507 67.8259 35.46 67.4099 35.652C67.0045 35.844 66.5192 35.94 65.9539 35.94C65.5379 35.94 65.1539 35.8867 64.8019 35.78C64.4605 35.684 64.1619 35.556 63.9059 35.396L64.3699 33.812C64.5725 33.972 64.7859 34.084 65.0099 34.148C65.2339 34.2227 65.4899 34.26 65.7779 34.26C66.0765 34.26 66.3325 34.196 66.5459 34.068C66.7699 33.94 66.9565 33.684 67.1059 33.3L67.3779 32.612L66.4979 30.532L64.0499 24.5H66.4819L68.0019 29.3L68.4179 30.9L68.9139 29.204L70.3699 24.5H72.5939Z" fill="white"/>
</g>
<path d="M126.232 21.78C127.192 21.78 128.035 21.9453 128.76 22.276C129.485 22.6067 130.104 23.0973 130.616 23.748L129.384 25.172C128.947 24.6173 128.467 24.212 127.944 23.956C127.432 23.6893 126.835 23.556 126.152 23.556C125.704 23.556 125.331 23.6147 125.032 23.732C124.744 23.8493 124.531 24.004 124.392 24.196C124.264 24.388 124.2 24.6013 124.2 24.836C124.2 25.124 124.312 25.3693 124.536 25.572C124.76 25.764 125.144 25.924 125.688 26.052L127.656 26.5C128.701 26.7347 129.448 27.0867 129.896 27.556C130.355 28.0147 130.584 28.612 130.584 29.348C130.584 30.0413 130.403 30.6387 130.04 31.14C129.677 31.6307 129.171 32.0093 128.52 32.276C127.869 32.532 127.123 32.66 126.28 32.66C125.544 32.66 124.867 32.5747 124.248 32.404C123.64 32.2227 123.096 31.9773 122.616 31.668C122.136 31.3587 121.736 31.0013 121.416 30.596L122.664 29.108C122.909 29.4493 123.213 29.7533 123.576 30.02C123.939 30.2867 124.349 30.5 124.808 30.66C125.277 30.8093 125.768 30.884 126.28 30.884C126.717 30.884 127.085 30.836 127.384 30.74C127.693 30.6333 127.923 30.4893 128.072 30.308C128.232 30.116 128.312 29.8867 128.312 29.62C128.312 29.3427 128.216 29.108 128.024 28.916C127.843 28.7133 127.501 28.5587 127 28.452L124.856 27.972C124.237 27.8227 123.704 27.6307 123.256 27.396C122.819 27.1507 122.483 26.8413 122.248 26.468C122.024 26.084 121.912 25.6307 121.912 25.108C121.912 24.4787 122.083 23.9133 122.424 23.412C122.765 22.9107 123.256 22.516 123.896 22.228C124.547 21.9293 125.325 21.78 126.232 21.78ZM135.186 32.66C134.653 32.66 134.173 32.564 133.746 32.372C133.319 32.18 132.978 31.876 132.722 31.46C132.477 31.0333 132.354 30.484 132.354 29.812V24.5H134.546V29.284C134.546 29.9027 134.674 30.3347 134.93 30.58C135.186 30.8147 135.554 30.932 136.034 30.932C136.258 30.932 136.477 30.8947 136.69 30.82C136.903 30.7347 137.09 30.6067 137.25 30.436C137.421 30.2653 137.554 30.0467 137.65 29.78C137.746 29.5027 137.794 29.1773 137.794 28.804V24.5H139.986V32.5H138.034L137.954 31.108C137.687 31.6413 137.319 32.036 136.85 32.292C136.391 32.5373 135.837 32.66 135.186 32.66ZM142.293 32.5V24.5H144.261L144.389 26.9L144.117 26.644C144.245 26.1213 144.447 25.6893 144.725 25.348C145.002 25.0067 145.338 24.756 145.733 24.596C146.138 24.4253 146.581 24.34 147.061 24.34C147.615 24.34 148.106 24.4467 148.533 24.66C148.97 24.8733 149.311 25.1987 149.557 25.636C149.813 26.0627 149.941 26.6013 149.941 27.252V32.5H147.749V27.876C147.749 27.1933 147.615 26.724 147.349 26.468C147.082 26.2013 146.735 26.068 146.309 26.068C146.01 26.068 145.717 26.1427 145.429 26.292C145.151 26.4307 144.922 26.66 144.741 26.98C144.57 27.3 144.485 27.7267 144.485 28.26V32.5H142.293ZM155.223 32.66C154.562 32.66 153.97 32.4947 153.447 32.164C152.935 31.8333 152.53 31.3587 152.231 30.74C151.943 30.1213 151.799 29.38 151.799 28.516C151.799 27.6307 151.954 26.8787 152.263 26.26C152.572 25.6307 152.988 25.156 153.511 24.836C154.044 24.5053 154.642 24.34 155.303 24.34C156.007 24.34 156.588 24.5427 157.047 24.948C157.506 25.3533 157.804 25.876 157.943 26.516L157.735 26.772V20.996H159.927V32.5H157.959L157.815 30.068L158.087 30.196C158.012 30.6973 157.842 31.1347 157.575 31.508C157.308 31.8707 156.972 32.1533 156.567 32.356C156.162 32.5587 155.714 32.66 155.223 32.66ZM155.863 30.98C156.247 30.98 156.578 30.884 156.855 30.692C157.132 30.4893 157.346 30.196 157.495 29.812C157.655 29.428 157.735 28.9693 157.735 28.436C157.735 27.924 157.66 27.492 157.511 27.14C157.362 26.7773 157.148 26.5 156.871 26.308C156.594 26.116 156.268 26.02 155.895 26.02C155.298 26.02 154.828 26.2333 154.487 26.66C154.156 27.076 153.991 27.6893 153.991 28.5C153.991 29.3107 154.156 29.9293 154.487 30.356C154.818 30.772 155.276 30.98 155.863 30.98ZM166.79 27.396C166.79 26.9373 166.657 26.58 166.39 26.324C166.134 26.068 165.793 25.94 165.366 25.94C164.971 25.94 164.625 26.0413 164.326 26.244C164.027 26.4467 163.809 26.7827 163.67 27.252L161.798 26.676C161.979 25.972 162.374 25.4067 162.982 24.98C163.601 24.5533 164.427 24.34 165.462 24.34C166.166 24.34 166.779 24.452 167.302 24.676C167.825 24.8893 168.23 25.2147 168.518 25.652C168.817 26.0893 168.966 26.6387 168.966 27.3V30.548C168.966 30.9533 169.158 31.156 169.542 31.156C169.723 31.156 169.894 31.1293 170.054 31.076L169.926 32.436C169.649 32.5747 169.302 32.644 168.886 32.644C168.513 32.644 168.177 32.58 167.878 32.452C167.579 32.324 167.345 32.132 167.174 31.876C167.003 31.6093 166.918 31.2787 166.918 30.884V30.82L167.302 30.756C167.238 31.1613 167.062 31.508 166.774 31.796C166.486 32.0733 166.134 32.2867 165.718 32.436C165.313 32.5853 164.891 32.66 164.454 32.66C163.91 32.66 163.441 32.58 163.046 32.42C162.651 32.2493 162.347 32.004 162.134 31.684C161.921 31.364 161.814 30.9693 161.814 30.5C161.814 29.9027 162.006 29.4173 162.39 29.044C162.774 28.66 163.323 28.3987 164.038 28.26L167.046 27.652L167.03 29.012L165.11 29.396C164.747 29.4707 164.47 29.572 164.278 29.7C164.097 29.8173 164.006 30.0147 164.006 30.292C164.006 30.5587 164.102 30.7613 164.294 30.9C164.497 31.0387 164.737 31.108 165.014 31.108C165.238 31.108 165.457 31.0813 165.67 31.028C165.883 30.9747 166.075 30.8893 166.246 30.772C166.417 30.6547 166.55 30.4947 166.646 30.292C166.742 30.0893 166.79 29.844 166.79 29.556V27.396ZM178.438 24.5L175.206 32.996C174.95 33.7213 174.662 34.2973 174.342 34.724C174.032 35.1507 173.67 35.46 173.254 35.652C172.848 35.844 172.363 35.94 171.798 35.94C171.382 35.94 170.998 35.8867 170.646 35.78C170.304 35.684 170.006 35.556 169.75 35.396L170.214 33.812C170.416 33.972 170.63 34.084 170.854 34.148C171.078 34.2227 171.334 34.26 171.622 34.26C171.92 34.26 172.176 34.196 172.39 34.068C172.614 33.94 172.8 33.684 172.95 33.3L173.222 32.612L172.342 30.532L169.894 24.5H172.326L173.846 29.3L174.262 30.9L174.758 29.204L176.214 24.5H178.438Z" fill="white"/>
<defs>
<clipPath id="bgblur_0_24239_49013_clip_path" transform="translate(8 8)"><rect x="10" y="10" width="87" height="34" rx="17"/>
</clipPath></defs>
</svg>
